<?xml version="1.0" encoding="UTF-8" standalone="no"?>
<!DOCTYPE svg PUBLIC "-//W3C//DTD SVG 1.1//EN"
 "http://www.w3.org/Graphics/SVG/1.1/DTD/svg11.dtd">
<!-- Generated by graphviz version 2.40.1 (20161225.0304)
 -->
<!-- Title: dependencies Pages: 1 -->
<svg width="1095pt" height="284pt"
 viewBox="0.00 0.00 1095.00 284.00" xmlns="http://www.w3.org/2000/svg" xmlns:xlink="http://www.w3.org/1999/xlink">
<g id="graph0" class="graph" transform="scale(1 1) rotate(0) translate(4 280)">
<title>dependencies</title>
<polygon fill="#ffffff" stroke="transparent" points="-4,4 -4,-280 1091,-280 1091,4 -4,4"/>
<text text-anchor="start" x="522.5091" y="-42.4" font-family="sans-serif" font-weight="bold" font-size="14.00" fill="#000000">Legend</text>
<polygon fill="#ffffb3" stroke="transparent" points="309.5,-10 309.5,-30 329.5,-30 329.5,-10 309.5,-10"/>
<text text-anchor="start" x="333.129" y="-15.4" font-family="sans-serif" font-size="14.00" fill="#000000"> &#160;Declarations</text>
<polygon fill="#8dd3c7" stroke="transparent" points="422.5,-10 422.5,-30 442.5,-30 442.5,-10 422.5,-10"/>
<text text-anchor="start" x="446.2251" y="-15.4" font-family="sans-serif" font-size="14.00" fill="#000000"> &#160;Module</text>
<polygon fill="#80b1d3" stroke="transparent" points="508.5,-10 508.5,-30 528.5,-30 528.5,-10 508.5,-10"/>
<text text-anchor="start" x="532.2812" y="-15.4" font-family="sans-serif" font-size="14.00" fill="#000000"> &#160;Bootstrap</text>
<polygon fill="#fdb462" stroke="transparent" points="605.5,-10 605.5,-30 625.5,-30 625.5,-10 605.5,-10"/>
<text text-anchor="start" x="629.1732" y="-15.4" font-family="sans-serif" font-size="14.00" fill="#000000"> &#160;Providers</text>
<polygon fill="#fb8072" stroke="transparent" points="701.5,-10 701.5,-30 721.5,-30 721.5,-10 701.5,-10"/>
<text text-anchor="start" x="725.2258" y="-15.4" font-family="sans-serif" font-size="14.00" fill="#000000"> &#160;Exports</text>
<g id="clust1" class="cluster">
<title>cluster_ProductConfigurationModule</title>
<polygon fill="none" stroke="#000000" stroke-dasharray="1,5" points="8,-70 8,-268 1079,-268 1079,-70 8,-70"/>
</g>
<g id="clust2" class="cluster">
<title>cluster_ProductConfigurationModule_declarations</title>
<polygon fill="none" stroke="#000000" points="851,-78 851,-130 1071,-130 1071,-78 851,-78"/>
</g>
<g id="clust4" class="cluster">
<title>cluster_ProductConfigurationModule_imports</title>
<polygon fill="none" stroke="#000000" points="16,-78 16,-130 843,-130 843,-78 16,-78"/>
</g>
<g id="clust5" class="cluster">
<title>cluster_ProductConfigurationModule_exports</title>
<polygon fill="none" stroke="#000000" points="361,-208 361,-260 583,-260 583,-208 361,-208"/>
</g>
<!-- ProductConfigurationComponent -->
<g id="node1" class="node">
<title>ProductConfigurationComponent</title>
<polygon fill="#ffffb3" stroke="#000000" points="1062.9254,-122 859.0746,-122 859.0746,-86 1062.9254,-86 1062.9254,-122"/>
<text text-anchor="middle" x="961" y="-99.8" font-family="Times,serif" font-size="14.00" fill="#000000">ProductConfigurationComponent</text>
</g>
<!-- ProductConfigurationModule -->
<g id="node2" class="node">
<title>ProductConfigurationModule</title>
<polygon fill="#8dd3c7" stroke="#000000" points="562.6428,-187 559.6428,-191 538.6428,-191 535.6428,-187 381.3572,-187 381.3572,-151 562.6428,-151 562.6428,-187"/>
<text text-anchor="middle" x="472" y="-164.8" font-family="Times,serif" font-size="14.00" fill="#000000">ProductConfigurationModule</text>
</g>
<!-- ProductConfigurationComponent&#45;&gt;ProductConfigurationModule -->
<g id="edge1" class="edge">
<title>ProductConfigurationComponent&#45;&gt;ProductConfigurationModule</title>
<path fill="none" stroke="#000000" d="M961,-122.2843C961,-143.3211 961,-175 961,-175 961,-175 572.8311,-175 572.8311,-175"/>
<polygon fill="#000000" stroke="#000000" points="572.8312,-171.5001 562.8311,-175 572.8311,-178.5001 572.8312,-171.5001"/>
</g>
<!-- ProductConfigurationComponent  -->
<g id="node9" class="node">
<title>ProductConfigurationComponent </title>
<polygon fill="#fb8072" stroke="#000000" points="575.425,-252 368.575,-252 368.575,-216 575.425,-216 575.425,-252"/>
<text text-anchor="middle" x="472" y="-229.8" font-family="Times,serif" font-size="14.00" fill="#000000">ProductConfigurationComponent </text>
</g>
<!-- ProductConfigurationModule&#45;&gt;ProductConfigurationComponent  -->
<g id="edge8" class="edge">
<title>ProductConfigurationModule&#45;&gt;ProductConfigurationComponent </title>
<path fill="none" stroke="#000000" stroke-dasharray="5,2" d="M472,-187.1061C472,-187.1061 472,-205.991 472,-205.991"/>
<polygon fill="#000000" stroke="#000000" points="468.5001,-205.9909 472,-215.991 475.5001,-205.991 468.5001,-205.9909"/>
</g>
<!-- ButtonModule -->
<g id="node3" class="node">
<title>ButtonModule</title>
<polygon fill="#8dd3c7" stroke="#000000" points="834.6682,-122 831.6682,-126 810.6682,-126 807.6682,-122 737.3318,-122 737.3318,-86 834.6682,-86 834.6682,-122"/>
<text text-anchor="middle" x="786" y="-99.8" font-family="Times,serif" font-size="14.00" fill="#000000">ButtonModule</text>
</g>
<!-- ButtonModule&#45;&gt;ProductConfigurationModule -->
<g id="edge2" class="edge">
<title>ButtonModule&#45;&gt;ProductConfigurationModule</title>
<path fill="none" stroke="#000000" d="M786,-122.0225C786,-139.3734 786,-163 786,-163 786,-163 572.8218,-163 572.8218,-163"/>
<polygon fill="#000000" stroke="#000000" points="572.8218,-159.5001 562.8218,-163 572.8218,-166.5001 572.8218,-159.5001"/>
</g>
<!-- ConstraintAlertModule -->
<g id="node4" class="node">
<title>ConstraintAlertModule</title>
<polygon fill="#8dd3c7" stroke="#000000" points="719.1414,-122 716.1414,-126 695.1414,-126 692.1414,-122 572.8586,-122 572.8586,-86 719.1414,-86 719.1414,-122"/>
<text text-anchor="middle" x="646" y="-99.8" font-family="Times,serif" font-size="14.00" fill="#000000">ConstraintAlertModule</text>
</g>
<!-- ConstraintAlertModule&#45;&gt;ProductConfigurationModule -->
<g id="edge3" class="edge">
<title>ConstraintAlertModule&#45;&gt;ProductConfigurationModule</title>
<path fill="none" stroke="#000000" d="M572.5958,-104C564.1827,-104 558.5446,-104 558.5446,-104 558.5446,-104 558.5446,-140.8939 558.5446,-140.8939"/>
<polygon fill="#000000" stroke="#000000" points="555.0446,-140.8938 558.5446,-150.8939 562.0446,-140.8939 555.0446,-140.8938"/>
</g>
<!-- ConstraintPopoverModule -->
<g id="node5" class="node">
<title>ConstraintPopoverModule</title>
<polygon fill="#8dd3c7" stroke="#000000" points="554.0365,-122 551.0365,-126 530.0365,-126 527.0365,-122 389.9635,-122 389.9635,-86 554.0365,-86 554.0365,-122"/>
<text text-anchor="middle" x="472" y="-99.8" font-family="Times,serif" font-size="14.00" fill="#000000">ConstraintPopoverModule</text>
</g>
<!-- ConstraintPopoverModule&#45;&gt;ProductConfigurationModule -->
<g id="edge4" class="edge">
<title>ConstraintPopoverModule&#45;&gt;ProductConfigurationModule</title>
<path fill="none" stroke="#000000" d="M472,-122.1061C472,-122.1061 472,-140.991 472,-140.991"/>
<polygon fill="#000000" stroke="#000000" points="468.5001,-140.9909 472,-150.991 475.5001,-140.991 468.5001,-140.9909"/>
</g>
<!-- InputFieldModule -->
<g id="node6" class="node">
<title>InputFieldModule</title>
<polygon fill="#8dd3c7" stroke="#000000" points="371.8795,-122 368.8795,-126 347.8795,-126 344.8795,-122 254.1205,-122 254.1205,-86 371.8795,-86 371.8795,-122"/>
<text text-anchor="middle" x="313" y="-99.8" font-family="Times,serif" font-size="14.00" fill="#000000">InputFieldModule</text>
</g>
<!-- InputFieldModule&#45;&gt;ProductConfigurationModule -->
<g id="edge5" class="edge">
<title>InputFieldModule&#45;&gt;ProductConfigurationModule</title>
<path fill="none" stroke="#000000" d="M372.166,-104C380.0381,-104 385.4555,-104 385.4555,-104 385.4555,-104 385.4555,-140.8939 385.4555,-140.8939"/>
<polygon fill="#000000" stroke="#000000" points="381.9555,-140.8938 385.4555,-150.8939 388.9555,-140.8939 381.9555,-140.8938"/>
</g>
<!-- MdDotsModule -->
<g id="node7" class="node">
<title>MdDotsModule</title>
<polygon fill="#8dd3c7" stroke="#000000" points="235.9371,-122 232.9371,-126 211.9371,-126 208.9371,-122 130.0629,-122 130.0629,-86 235.9371,-86 235.9371,-122"/>
<text text-anchor="middle" x="183" y="-99.8" font-family="Times,serif" font-size="14.00" fill="#000000">MdDotsModule</text>
</g>
<!-- MdDotsModule&#45;&gt;ProductConfigurationModule -->
<g id="edge6" class="edge">
<title>MdDotsModule&#45;&gt;ProductConfigurationModule</title>
<path fill="none" stroke="#000000" d="M183,-122.0225C183,-139.3734 183,-163 183,-163 183,-163 371.3515,-163 371.3515,-163"/>
<polygon fill="#000000" stroke="#000000" points="371.3516,-166.5001 381.3515,-163 371.3515,-159.5001 371.3516,-166.5001"/>
</g>
<!-- PriceModule -->
<g id="node8" class="node">
<title>PriceModule</title>
<polygon fill="#8dd3c7" stroke="#000000" points="112.3134,-122 109.3134,-126 88.3134,-126 85.3134,-122 23.6866,-122 23.6866,-86 112.3134,-86 112.3134,-122"/>
<text text-anchor="middle" x="68" y="-99.8" font-family="Times,serif" font-size="14.00" fill="#000000">PriceModule</text>
</g>
<!-- PriceModule&#45;&gt;ProductConfigurationModule -->
<g id="edge7" class="edge">
<title>PriceModule&#45;&gt;ProductConfigurationModule</title>
<path fill="none" stroke="#000000" d="M68,-122.2843C68,-143.3211 68,-175 68,-175 68,-175 371.3345,-175 371.3345,-175"/>
<polygon fill="#000000" stroke="#000000" points="371.3345,-178.5001 381.3345,-175 371.3345,-171.5001 371.3345,-178.5001"/>
</g>
</g>
</svg>
