<?xml version="1.0" encoding="UTF-8" standalone="no"?>
<!DOCTYPE svg PUBLIC "-//W3C//DTD SVG 1.1//EN"
 "http://www.w3.org/Graphics/SVG/1.1/DTD/svg11.dtd">
<!-- Generated by graphviz version 2.40.1 (20161225.0304)
 -->
<!-- Title: dependencies Pages: 1 -->
<svg width="504pt" height="284pt"
 viewBox="0.00 0.00 504.00 284.00" xmlns="http://www.w3.org/2000/svg" xmlns:xlink="http://www.w3.org/1999/xlink">
<g id="graph0" class="graph" transform="scale(1 1) rotate(0) translate(4 280)">
<title>dependencies</title>
<polygon fill="#ffffff" stroke="transparent" points="-4,4 -4,-280 500,-280 500,4 -4,4"/>
<text text-anchor="start" x="227.0091" y="-42.4" font-family="sans-serif" font-weight="bold" font-size="14.00" fill="#000000">Legend</text>
<polygon fill="#ffffb3" stroke="transparent" points="14,-10 14,-30 34,-30 34,-10 14,-10"/>
<text text-anchor="start" x="37.629" y="-15.4" font-family="sans-serif" font-size="14.00" fill="#000000"> &#160;Declarations</text>
<polygon fill="#8dd3c7" stroke="transparent" points="127,-10 127,-30 147,-30 147,-10 127,-10"/>
<text text-anchor="start" x="150.7251" y="-15.4" font-family="sans-serif" font-size="14.00" fill="#000000"> &#160;Module</text>
<polygon fill="#80b1d3" stroke="transparent" points="213,-10 213,-30 233,-30 233,-10 213,-10"/>
<text text-anchor="start" x="236.7812" y="-15.4" font-family="sans-serif" font-size="14.00" fill="#000000"> &#160;Bootstrap</text>
<polygon fill="#fdb462" stroke="transparent" points="310,-10 310,-30 330,-30 330,-10 310,-10"/>
<text text-anchor="start" x="333.6732" y="-15.4" font-family="sans-serif" font-size="14.00" fill="#000000"> &#160;Providers</text>
<polygon fill="#fb8072" stroke="transparent" points="406,-10 406,-30 426,-30 426,-10 406,-10"/>
<text text-anchor="start" x="429.7258" y="-15.4" font-family="sans-serif" font-size="14.00" fill="#000000"> &#160;Exports</text>
<g id="clust1" class="cluster">
<title>cluster_ConstraintIconModule</title>
<polygon fill="none" stroke="#000000" stroke-dasharray="1,5" points="19,-70 19,-268 477,-268 477,-70 19,-70"/>
</g>
<g id="clust2" class="cluster">
<title>cluster_ConstraintIconModule_declarations</title>
<polygon fill="none" stroke="#000000" points="329,-78 329,-130 469,-130 469,-78 329,-78"/>
</g>
<g id="clust4" class="cluster">
<title>cluster_ConstraintIconModule_imports</title>
<polygon fill="none" stroke="#000000" points="27,-78 27,-130 321,-130 321,-78 27,-78"/>
</g>
<g id="clust5" class="cluster">
<title>cluster_ConstraintIconModule_exports</title>
<polygon fill="none" stroke="#000000" points="153,-208 153,-260 297,-260 297,-208 153,-208"/>
</g>
<!-- CRIconComponent -->
<g id="node1" class="node">
<title>CRIconComponent</title>
<polygon fill="#ffffb3" stroke="#000000" points="461.3809,-122 336.6191,-122 336.6191,-86 461.3809,-86 461.3809,-122"/>
<text text-anchor="middle" x="399" y="-99.8" font-family="Times,serif" font-size="14.00" fill="#000000">CRIconComponent</text>
</g>
<!-- ConstraintIconModule -->
<g id="node2" class="node">
<title>ConstraintIconModule</title>
<polygon fill="#8dd3c7" stroke="#000000" points="296.2534,-187 293.2534,-191 272.2534,-191 269.2534,-187 153.7466,-187 153.7466,-151 296.2534,-151 296.2534,-187"/>
<text text-anchor="middle" x="225" y="-164.8" font-family="Times,serif" font-size="14.00" fill="#000000">ConstraintIconModule</text>
</g>
<!-- CRIconComponent&#45;&gt;ConstraintIconModule -->
<g id="edge1" class="edge">
<title>CRIconComponent&#45;&gt;ConstraintIconModule</title>
<path fill="none" stroke="#000000" d="M399,-122.1061C399,-141.3391 399,-169 399,-169 399,-169 306.2745,-169 306.2745,-169"/>
<polygon fill="#000000" stroke="#000000" points="306.2745,-165.5001 296.2745,-169 306.2745,-172.5001 306.2745,-165.5001"/>
</g>
<!-- CRIconComponent  -->
<g id="node5" class="node">
<title>CRIconComponent </title>
<polygon fill="#fb8072" stroke="#000000" points="289.3814,-252 160.6186,-252 160.6186,-216 289.3814,-216 289.3814,-252"/>
<text text-anchor="middle" x="225" y="-229.8" font-family="Times,serif" font-size="14.00" fill="#000000">CRIconComponent </text>
</g>
<!-- ConstraintIconModule&#45;&gt;CRIconComponent  -->
<g id="edge4" class="edge">
<title>ConstraintIconModule&#45;&gt;CRIconComponent </title>
<path fill="none" stroke="#000000" stroke-dasharray="5,2" d="M225,-187.1061C225,-187.1061 225,-205.991 225,-205.991"/>
<polygon fill="#000000" stroke="#000000" points="221.5001,-205.9909 225,-215.991 228.5001,-205.991 221.5001,-205.9909"/>
</g>
<!-- ConstraintSideMenuModule -->
<g id="node3" class="node">
<title>ConstraintSideMenuModule</title>
<polygon fill="#8dd3c7" stroke="#000000" points="312.9255,-122 309.9255,-126 288.9255,-126 285.9255,-122 137.0745,-122 137.0745,-86 312.9255,-86 312.9255,-122"/>
<text text-anchor="middle" x="225" y="-99.8" font-family="Times,serif" font-size="14.00" fill="#000000">ConstraintSideMenuModule</text>
</g>
<!-- ConstraintSideMenuModule&#45;&gt;ConstraintIconModule -->
<g id="edge2" class="edge">
<title>ConstraintSideMenuModule&#45;&gt;ConstraintIconModule</title>
<path fill="none" stroke="#000000" d="M225,-122.1061C225,-122.1061 225,-140.991 225,-140.991"/>
<polygon fill="#000000" stroke="#000000" points="221.5001,-140.9909 225,-150.991 228.5001,-140.991 221.5001,-140.9909"/>
</g>
<!-- IconModule -->
<g id="node4" class="node">
<title>IconModule</title>
<polygon fill="#8dd3c7" stroke="#000000" points="119.4261,-122 116.4261,-126 95.4261,-126 92.4261,-122 34.5739,-122 34.5739,-86 119.4261,-86 119.4261,-122"/>
<text text-anchor="middle" x="77" y="-99.8" font-family="Times,serif" font-size="14.00" fill="#000000">IconModule</text>
</g>
<!-- IconModule&#45;&gt;ConstraintIconModule -->
<g id="edge3" class="edge">
<title>IconModule&#45;&gt;ConstraintIconModule</title>
<path fill="none" stroke="#000000" d="M77,-122.1061C77,-141.3391 77,-169 77,-169 77,-169 143.6011,-169 143.6011,-169"/>
<polygon fill="#000000" stroke="#000000" points="143.6011,-172.5001 153.6011,-169 143.6011,-165.5001 143.6011,-172.5001"/>
</g>
</g>
</svg>
