<?xml version="1.0" encoding="UTF-8" standalone="no"?>
<!DOCTYPE svg PUBLIC "-//W3C//DTD SVG 1.1//EN"
 "http://www.w3.org/Graphics/SVG/1.1/DTD/svg11.dtd">
<!-- Generated by graphviz version 2.40.1 (20161225.0304)
 -->
<!-- Title: dependencies Pages: 1 -->
<svg width="520pt" height="284pt"
 viewBox="0.00 0.00 520.00 284.00" xmlns="http://www.w3.org/2000/svg" xmlns:xlink="http://www.w3.org/1999/xlink">
<g id="graph0" class="graph" transform="scale(1 1) rotate(0) translate(4 280)">
<title>dependencies</title>
<polygon fill="#ffffff" stroke="transparent" points="-4,4 -4,-280 516,-280 516,4 -4,4"/>
<text text-anchor="start" x="235.0091" y="-42.4" font-family="sans-serif" font-weight="bold" font-size="14.00" fill="#000000">Legend</text>
<polygon fill="#ffffb3" stroke="transparent" points="22,-10 22,-30 42,-30 42,-10 22,-10"/>
<text text-anchor="start" x="45.629" y="-15.4" font-family="sans-serif" font-size="14.00" fill="#000000"> &#160;Declarations</text>
<polygon fill="#8dd3c7" stroke="transparent" points="135,-10 135,-30 155,-30 155,-10 135,-10"/>
<text text-anchor="start" x="158.7251" y="-15.4" font-family="sans-serif" font-size="14.00" fill="#000000"> &#160;Module</text>
<polygon fill="#80b1d3" stroke="transparent" points="221,-10 221,-30 241,-30 241,-10 221,-10"/>
<text text-anchor="start" x="244.7812" y="-15.4" font-family="sans-serif" font-size="14.00" fill="#000000"> &#160;Bootstrap</text>
<polygon fill="#fdb462" stroke="transparent" points="318,-10 318,-30 338,-30 338,-10 318,-10"/>
<text text-anchor="start" x="341.6732" y="-15.4" font-family="sans-serif" font-size="14.00" fill="#000000"> &#160;Providers</text>
<polygon fill="#fb8072" stroke="transparent" points="414,-10 414,-30 434,-30 434,-10 414,-10"/>
<text text-anchor="start" x="437.7258" y="-15.4" font-family="sans-serif" font-size="14.00" fill="#000000"> &#160;Exports</text>
<g id="clust1" class="cluster">
<title>cluster_ConstraintIconModule</title>
<polygon fill="none" stroke="#000000" stroke-dasharray="1,5" points="8,-70 8,-268 504,-268 504,-70 8,-70"/>
</g>
<g id="clust2" class="cluster">
<title>cluster_ConstraintIconModule_declarations</title>
<polygon fill="none" stroke="#000000" points="356,-78 356,-130 496,-130 496,-78 356,-78"/>
</g>
<g id="clust4" class="cluster">
<title>cluster_ConstraintIconModule_imports</title>
<polygon fill="none" stroke="#000000" points="16,-78 16,-130 348,-130 348,-78 16,-78"/>
</g>
<g id="clust5" class="cluster">
<title>cluster_ConstraintIconModule_exports</title>
<polygon fill="none" stroke="#000000" points="180,-208 180,-260 324,-260 324,-208 180,-208"/>
</g>
<!-- CRIconComponent -->
<g id="node1" class="node">
<title>CRIconComponent</title>
<polygon fill="#ffffb3" stroke="#000000" points="488.3809,-122 363.6191,-122 363.6191,-86 488.3809,-86 488.3809,-122"/>
<text text-anchor="middle" x="426" y="-99.8" font-family="Times,serif" font-size="14.00" fill="#000000">CRIconComponent</text>
</g>
<!-- ConstraintIconModule -->
<g id="node2" class="node">
<title>ConstraintIconModule</title>
<polygon fill="#8dd3c7" stroke="#000000" points="323.2534,-187 320.2534,-191 299.2534,-191 296.2534,-187 180.7466,-187 180.7466,-151 323.2534,-151 323.2534,-187"/>
<text text-anchor="middle" x="252" y="-164.8" font-family="Times,serif" font-size="14.00" fill="#000000">ConstraintIconModule</text>
</g>
<!-- CRIconComponent&#45;&gt;ConstraintIconModule -->
<g id="edge1" class="edge">
<title>CRIconComponent&#45;&gt;ConstraintIconModule</title>
<path fill="none" stroke="#000000" d="M426,-122.1061C426,-141.3391 426,-169 426,-169 426,-169 333.2745,-169 333.2745,-169"/>
<polygon fill="#000000" stroke="#000000" points="333.2745,-165.5001 323.2745,-169 333.2745,-172.5001 333.2745,-165.5001"/>
</g>
<!-- CRIconComponent  -->
<g id="node5" class="node">
<title>CRIconComponent </title>
<polygon fill="#fb8072" stroke="#000000" points="316.3814,-252 187.6186,-252 187.6186,-216 316.3814,-216 316.3814,-252"/>
<text text-anchor="middle" x="252" y="-229.8" font-family="Times,serif" font-size="14.00" fill="#000000">CRIconComponent </text>
</g>
<!-- ConstraintIconModule&#45;&gt;CRIconComponent  -->
<g id="edge4" class="edge">
<title>ConstraintIconModule&#45;&gt;CRIconComponent </title>
<path fill="none" stroke="#000000" stroke-dasharray="5,2" d="M252,-187.1061C252,-187.1061 252,-205.991 252,-205.991"/>
<polygon fill="#000000" stroke="#000000" points="248.5001,-205.9909 252,-215.991 255.5001,-205.991 248.5001,-205.9909"/>
</g>
<!-- ConstraintSideMenuModule -->
<g id="node3" class="node">
<title>ConstraintSideMenuModule</title>
<polygon fill="#8dd3c7" stroke="#000000" points="339.9255,-122 336.9255,-126 315.9255,-126 312.9255,-122 164.0745,-122 164.0745,-86 339.9255,-86 339.9255,-122"/>
<text text-anchor="middle" x="252" y="-99.8" font-family="Times,serif" font-size="14.00" fill="#000000">ConstraintSideMenuModule</text>
</g>
<!-- ConstraintSideMenuModule&#45;&gt;ConstraintIconModule -->
<g id="edge2" class="edge">
<title>ConstraintSideMenuModule&#45;&gt;ConstraintIconModule</title>
<path fill="none" stroke="#000000" d="M252,-122.1061C252,-122.1061 252,-140.991 252,-140.991"/>
<polygon fill="#000000" stroke="#000000" points="248.5001,-140.9909 252,-150.991 255.5001,-140.991 248.5001,-140.9909"/>
</g>
<!-- MdSpinnerModule -->
<g id="node4" class="node">
<title>MdSpinnerModule</title>
<polygon fill="#8dd3c7" stroke="#000000" points="146.0436,-122 143.0436,-126 122.0436,-126 119.0436,-122 23.9564,-122 23.9564,-86 146.0436,-86 146.0436,-122"/>
<text text-anchor="middle" x="85" y="-99.8" font-family="Times,serif" font-size="14.00" fill="#000000">MdSpinnerModule</text>
</g>
<!-- MdSpinnerModule&#45;&gt;ConstraintIconModule -->
<g id="edge3" class="edge">
<title>MdSpinnerModule&#45;&gt;ConstraintIconModule</title>
<path fill="none" stroke="#000000" d="M85,-122.1061C85,-141.3391 85,-169 85,-169 85,-169 170.6926,-169 170.6926,-169"/>
<polygon fill="#000000" stroke="#000000" points="170.6926,-172.5001 180.6926,-169 170.6925,-165.5001 170.6926,-172.5001"/>
</g>
</g>
</svg>
