<?xml version="1.0" encoding="UTF-8" standalone="no"?>
<!DOCTYPE svg PUBLIC "-//W3C//DTD SVG 1.1//EN"
 "http://www.w3.org/Graphics/SVG/1.1/DTD/svg11.dtd">
<!-- Generated by graphviz version 2.40.1 (20161225.0304)
 -->
<!-- Title: dependencies Pages: 1 -->
<svg width="504pt" height="284pt"
 viewBox="0.00 0.00 504.00 284.00" xmlns="http://www.w3.org/2000/svg" xmlns:xlink="http://www.w3.org/1999/xlink">
<g id="graph0" class="graph" transform="scale(1 1) rotate(0) translate(4 280)">
<title>dependencies</title>
<polygon fill="#ffffff" stroke="transparent" points="-4,4 -4,-280 500,-280 500,4 -4,4"/>
<text text-anchor="start" x="227.0091" y="-42.4" font-family="sans-serif" font-weight="bold" font-size="14.00" fill="#000000">Legend</text>
<polygon fill="#ffffb3" stroke="transparent" points="14,-10 14,-30 34,-30 34,-10 14,-10"/>
<text text-anchor="start" x="37.629" y="-15.4" font-family="sans-serif" font-size="14.00" fill="#000000"> &#160;Declarations</text>
<polygon fill="#8dd3c7" stroke="transparent" points="127,-10 127,-30 147,-30 147,-10 127,-10"/>
<text text-anchor="start" x="150.7251" y="-15.4" font-family="sans-serif" font-size="14.00" fill="#000000"> &#160;Module</text>
<polygon fill="#80b1d3" stroke="transparent" points="213,-10 213,-30 233,-30 233,-10 213,-10"/>
<text text-anchor="start" x="236.7812" y="-15.4" font-family="sans-serif" font-size="14.00" fill="#000000"> &#160;Bootstrap</text>
<polygon fill="#fdb462" stroke="transparent" points="310,-10 310,-30 330,-30 330,-10 310,-10"/>
<text text-anchor="start" x="333.6732" y="-15.4" font-family="sans-serif" font-size="14.00" fill="#000000"> &#160;Providers</text>
<polygon fill="#fb8072" stroke="transparent" points="406,-10 406,-30 426,-30 426,-10 406,-10"/>
<text text-anchor="start" x="429.7258" y="-15.4" font-family="sans-serif" font-size="14.00" fill="#000000"> &#160;Exports</text>
<g id="clust1" class="cluster">
<title>cluster_ProductAttributeModule</title>
<polygon fill="none" stroke="#000000" stroke-dasharray="1,5" points="73,-70 73,-268 423,-268 423,-70 73,-70"/>
</g>
<g id="clust2" class="cluster">
<title>cluster_ProductAttributeModule_declarations</title>
<polygon fill="none" stroke="#000000" points="223,-78 223,-130 415,-130 415,-78 223,-78"/>
</g>
<g id="clust4" class="cluster">
<title>cluster_ProductAttributeModule_imports</title>
<polygon fill="none" stroke="#000000" points="81,-78 81,-130 215,-130 215,-78 81,-78"/>
</g>
<g id="clust5" class="cluster">
<title>cluster_ProductAttributeModule_exports</title>
<polygon fill="none" stroke="#000000" points="151,-208 151,-260 345,-260 345,-208 151,-208"/>
</g>
<!-- ProductAttributeComponent -->
<g id="node1" class="node">
<title>ProductAttributeComponent</title>
<polygon fill="#ffffb3" stroke="#000000" points="406.9255,-122 231.0745,-122 231.0745,-86 406.9255,-86 406.9255,-122"/>
<text text-anchor="middle" x="319" y="-99.8" font-family="Times,serif" font-size="14.00" fill="#000000">ProductAttributeComponent</text>
</g>
<!-- ProductAttributeModule -->
<g id="node2" class="node">
<title>ProductAttributeModule</title>
<polygon fill="#8dd3c7" stroke="#000000" points="324.6428,-187 321.6428,-191 300.6428,-191 297.6428,-187 171.3572,-187 171.3572,-151 324.6428,-151 324.6428,-187"/>
<text text-anchor="middle" x="248" y="-164.8" font-family="Times,serif" font-size="14.00" fill="#000000">ProductAttributeModule</text>
</g>
<!-- ProductAttributeComponent&#45;&gt;ProductAttributeModule -->
<g id="edge1" class="edge">
<title>ProductAttributeComponent&#45;&gt;ProductAttributeModule</title>
<path fill="none" stroke="#000000" d="M278.0544,-122.1061C278.0544,-122.1061 278.0544,-140.991 278.0544,-140.991"/>
<polygon fill="#000000" stroke="#000000" points="274.5544,-140.9909 278.0544,-150.991 281.5544,-140.991 274.5544,-140.9909"/>
</g>
<!-- ProductAttributeComponent  -->
<g id="node4" class="node">
<title>ProductAttributeComponent </title>
<polygon fill="#fb8072" stroke="#000000" points="337.425,-252 158.575,-252 158.575,-216 337.425,-216 337.425,-252"/>
<text text-anchor="middle" x="248" y="-229.8" font-family="Times,serif" font-size="14.00" fill="#000000">ProductAttributeComponent </text>
</g>
<!-- ProductAttributeModule&#45;&gt;ProductAttributeComponent  -->
<g id="edge3" class="edge">
<title>ProductAttributeModule&#45;&gt;ProductAttributeComponent </title>
<path fill="none" stroke="#000000" stroke-dasharray="5,2" d="M248,-187.1061C248,-187.1061 248,-205.991 248,-205.991"/>
<polygon fill="#000000" stroke="#000000" points="244.5001,-205.9909 248,-215.991 251.5001,-205.991 244.5001,-205.9909"/>
</g>
<!-- InputFieldModule -->
<g id="node3" class="node">
<title>InputFieldModule</title>
<polygon fill="#8dd3c7" stroke="#000000" points="206.8795,-122 203.8795,-126 182.8795,-126 179.8795,-122 89.1205,-122 89.1205,-86 206.8795,-86 206.8795,-122"/>
<text text-anchor="middle" x="148" y="-99.8" font-family="Times,serif" font-size="14.00" fill="#000000">InputFieldModule</text>
</g>
<!-- InputFieldModule&#45;&gt;ProductAttributeModule -->
<g id="edge2" class="edge">
<title>InputFieldModule&#45;&gt;ProductAttributeModule</title>
<path fill="none" stroke="#000000" d="M189.0593,-122.1061C189.0593,-122.1061 189.0593,-140.991 189.0593,-140.991"/>
<polygon fill="#000000" stroke="#000000" points="185.5593,-140.9909 189.0593,-150.991 192.5593,-140.991 185.5593,-140.9909"/>
</g>
</g>
</svg>
