<?xml version="1.0" encoding="UTF-8" standalone="no"?>
<!DOCTYPE svg PUBLIC "-//W3C//DTD SVG 1.1//EN"
 "http://www.w3.org/Graphics/SVG/1.1/DTD/svg11.dtd">
<!-- Generated by graphviz version 2.40.1 (20161225.0304)
 -->
<!-- Title: dependencies Pages: 1 -->
<svg width="818pt" height="284pt"
 viewBox="0.00 0.00 818.00 284.00" xmlns="http://www.w3.org/2000/svg" xmlns:xlink="http://www.w3.org/1999/xlink">
<g id="graph0" class="graph" transform="scale(1 1) rotate(0) translate(4 280)">
<title>dependencies</title>
<polygon fill="#ffffff" stroke="transparent" points="-4,4 -4,-280 814,-280 814,4 -4,4"/>
<text text-anchor="start" x="384.0091" y="-42.4" font-family="sans-serif" font-weight="bold" font-size="14.00" fill="#000000">Legend</text>
<polygon fill="#ffffb3" stroke="transparent" points="171,-10 171,-30 191,-30 191,-10 171,-10"/>
<text text-anchor="start" x="194.629" y="-15.4" font-family="sans-serif" font-size="14.00" fill="#000000"> &#160;Declarations</text>
<polygon fill="#8dd3c7" stroke="transparent" points="284,-10 284,-30 304,-30 304,-10 284,-10"/>
<text text-anchor="start" x="307.7251" y="-15.4" font-family="sans-serif" font-size="14.00" fill="#000000"> &#160;Module</text>
<polygon fill="#80b1d3" stroke="transparent" points="370,-10 370,-30 390,-30 390,-10 370,-10"/>
<text text-anchor="start" x="393.7812" y="-15.4" font-family="sans-serif" font-size="14.00" fill="#000000"> &#160;Bootstrap</text>
<polygon fill="#fdb462" stroke="transparent" points="467,-10 467,-30 487,-30 487,-10 467,-10"/>
<text text-anchor="start" x="490.6732" y="-15.4" font-family="sans-serif" font-size="14.00" fill="#000000"> &#160;Providers</text>
<polygon fill="#fb8072" stroke="transparent" points="563,-10 563,-30 583,-30 583,-10 563,-10"/>
<text text-anchor="start" x="586.7258" y="-15.4" font-family="sans-serif" font-size="14.00" fill="#000000"> &#160;Exports</text>
<g id="clust1" class="cluster">
<title>cluster_CatalogModule</title>
<polygon fill="none" stroke="#000000" stroke-dasharray="1,5" points="8,-70 8,-268 802,-268 802,-70 8,-70"/>
</g>
<g id="clust2" class="cluster">
<title>cluster_CatalogModule_declarations</title>
<polygon fill="none" stroke="#000000" points="242,-78 242,-130 794,-130 794,-78 242,-78"/>
</g>
<g id="clust6" class="cluster">
<title>cluster_CatalogModule_imports</title>
<polygon fill="none" stroke="#000000" points="16,-78 16,-130 234,-130 234,-78 16,-78"/>
</g>
<g id="clust7" class="cluster">
<title>cluster_CatalogModule_exports</title>
<polygon fill="none" stroke="#000000" points="46,-208 46,-260 608,-260 608,-208 46,-208"/>
</g>
<!-- ProductCardComponent -->
<g id="node1" class="node">
<title>ProductCardComponent</title>
<polygon fill="#ffffb3" stroke="#000000" points="786.0926,-122 633.9074,-122 633.9074,-86 786.0926,-86 786.0926,-122"/>
<text text-anchor="middle" x="710" y="-99.8" font-family="Times,serif" font-size="14.00" fill="#000000">ProductCardComponent</text>
</g>
<!-- CatalogModule -->
<g id="node4" class="node">
<title>CatalogModule</title>
<polygon fill="#8dd3c7" stroke="#000000" points="388.5968,-187 385.5968,-191 364.5968,-191 361.5968,-187 285.4032,-187 285.4032,-151 388.5968,-151 388.5968,-187"/>
<text text-anchor="middle" x="337" y="-164.8" font-family="Times,serif" font-size="14.00" fill="#000000">CatalogModule</text>
</g>
<!-- ProductCardComponent&#45;&gt;CatalogModule -->
<g id="edge1" class="edge">
<title>ProductCardComponent&#45;&gt;CatalogModule</title>
<path fill="none" stroke="#000000" d="M710,-122.1061C710,-141.3391 710,-169 710,-169 710,-169 398.8641,-169 398.8641,-169"/>
<polygon fill="#000000" stroke="#000000" points="398.8641,-165.5001 388.8641,-169 398.864,-172.5001 398.8641,-165.5001"/>
</g>
<!-- ProductCarouselComponent -->
<g id="node2" class="node">
<title>ProductCarouselComponent</title>
<polygon fill="#ffffb3" stroke="#000000" points="616.1428,-122 441.8572,-122 441.8572,-86 616.1428,-86 616.1428,-122"/>
<text text-anchor="middle" x="529" y="-99.8" font-family="Times,serif" font-size="14.00" fill="#000000">ProductCarouselComponent</text>
</g>
<!-- ProductCarouselComponent&#45;&gt;CatalogModule -->
<g id="edge2" class="edge">
<title>ProductCarouselComponent&#45;&gt;CatalogModule</title>
<path fill="none" stroke="#000000" d="M496.0679,-122.027C496.0679,-138.3976 496.0679,-160 496.0679,-160 496.0679,-160 398.6448,-160 398.6448,-160"/>
<polygon fill="#000000" stroke="#000000" points="398.6448,-156.5001 388.6448,-160 398.6448,-163.5001 398.6448,-156.5001"/>
</g>
<!-- ProductReviewsComponent -->
<g id="node3" class="node">
<title>ProductReviewsComponent</title>
<polygon fill="#ffffb3" stroke="#000000" points="423.5884,-122 250.4116,-122 250.4116,-86 423.5884,-86 423.5884,-122"/>
<text text-anchor="middle" x="337" y="-99.8" font-family="Times,serif" font-size="14.00" fill="#000000">ProductReviewsComponent</text>
</g>
<!-- ProductReviewsComponent&#45;&gt;CatalogModule -->
<g id="edge3" class="edge">
<title>ProductReviewsComponent&#45;&gt;CatalogModule</title>
<path fill="none" stroke="#000000" d="M337,-122.1061C337,-122.1061 337,-140.991 337,-140.991"/>
<polygon fill="#000000" stroke="#000000" points="333.5001,-140.9909 337,-150.991 340.5001,-140.991 333.5001,-140.9909"/>
</g>
<!-- ProductCardComponent  -->
<g id="node7" class="node">
<title>ProductCardComponent </title>
<polygon fill="#fb8072" stroke="#000000" points="599.5931,-252 444.4069,-252 444.4069,-216 599.5931,-216 599.5931,-252"/>
<text text-anchor="middle" x="522" y="-229.8" font-family="Times,serif" font-size="14.00" fill="#000000">ProductCardComponent </text>
</g>
<!-- CatalogModule&#45;&gt;ProductCardComponent  -->
<g id="edge6" class="edge">
<title>CatalogModule&#45;&gt;ProductCardComponent </title>
<path fill="none" stroke="#000000" stroke-dasharray="5,2" d="M388.5998,-178C451.0459,-178 547.9321,-178 547.9321,-178 547.9321,-178 547.9321,-205.973 547.9321,-205.973"/>
<polygon fill="#000000" stroke="#000000" points="544.4322,-205.973 547.9321,-215.973 551.4322,-205.973 544.4322,-205.973"/>
</g>
<!-- ProductCarouselComponent  -->
<g id="node8" class="node">
<title>ProductCarouselComponent </title>
<polygon fill="#fb8072" stroke="#000000" points="426.1425,-252 247.8575,-252 247.8575,-216 426.1425,-216 426.1425,-252"/>
<text text-anchor="middle" x="337" y="-229.8" font-family="Times,serif" font-size="14.00" fill="#000000">ProductCarouselComponent </text>
</g>
<!-- CatalogModule&#45;&gt;ProductCarouselComponent  -->
<g id="edge7" class="edge">
<title>CatalogModule&#45;&gt;ProductCarouselComponent </title>
<path fill="none" stroke="#000000" stroke-dasharray="5,2" d="M337,-187.1061C337,-187.1061 337,-205.991 337,-205.991"/>
<polygon fill="#000000" stroke="#000000" points="333.5001,-205.9909 337,-215.991 340.5001,-205.991 333.5001,-205.9909"/>
</g>
<!-- ProductReviewsComponent  -->
<g id="node9" class="node">
<title>ProductReviewsComponent </title>
<polygon fill="#fb8072" stroke="#000000" points="230.0889,-252 53.9111,-252 53.9111,-216 230.0889,-216 230.0889,-252"/>
<text text-anchor="middle" x="142" y="-229.8" font-family="Times,serif" font-size="14.00" fill="#000000">ProductReviewsComponent </text>
</g>
<!-- CatalogModule&#45;&gt;ProductReviewsComponent  -->
<g id="edge8" class="edge">
<title>CatalogModule&#45;&gt;ProductReviewsComponent </title>
<path fill="none" stroke="#000000" stroke-dasharray="5,2" d="M285.0936,-178C236.0874,-178 170.058,-178 170.058,-178 170.058,-178 170.058,-205.973 170.058,-205.973"/>
<polygon fill="#000000" stroke="#000000" points="166.5581,-205.973 170.058,-215.973 173.5581,-205.973 166.5581,-205.973"/>
</g>
<!-- CartModule -->
<g id="node5" class="node">
<title>CartModule</title>
<polygon fill="#8dd3c7" stroke="#000000" points="225.6529,-122 222.6529,-126 201.6529,-126 198.6529,-122 142.3471,-122 142.3471,-86 225.6529,-86 225.6529,-122"/>
<text text-anchor="middle" x="184" y="-99.8" font-family="Times,serif" font-size="14.00" fill="#000000">CartModule</text>
</g>
<!-- CartModule&#45;&gt;CatalogModule -->
<g id="edge4" class="edge">
<title>CartModule&#45;&gt;CatalogModule</title>
<path fill="none" stroke="#000000" d="M197.942,-122.027C197.942,-138.3976 197.942,-160 197.942,-160 197.942,-160 275.2199,-160 275.2199,-160"/>
<polygon fill="#000000" stroke="#000000" points="275.22,-163.5001 285.2199,-160 275.2199,-156.5001 275.22,-163.5001"/>
</g>
<!-- PricingModule -->
<g id="node6" class="node">
<title>PricingModule</title>
<polygon fill="#8dd3c7" stroke="#000000" points="123.9888,-122 120.9888,-126 99.9888,-126 96.9888,-122 24.0112,-122 24.0112,-86 123.9888,-86 123.9888,-122"/>
<text text-anchor="middle" x="74" y="-99.8" font-family="Times,serif" font-size="14.00" fill="#000000">PricingModule</text>
</g>
<!-- PricingModule&#45;&gt;CatalogModule -->
<g id="edge5" class="edge">
<title>PricingModule&#45;&gt;CatalogModule</title>
<path fill="none" stroke="#000000" d="M88.8501,-122.1061C88.8501,-141.3391 88.8501,-169 88.8501,-169 88.8501,-169 275.2817,-169 275.2817,-169"/>
<polygon fill="#000000" stroke="#000000" points="275.2817,-172.5001 285.2817,-169 275.2817,-165.5001 275.2817,-172.5001"/>
</g>
</g>
</svg>
