<?xml version="1.0" encoding="UTF-8" standalone="no"?>
<!DOCTYPE svg PUBLIC "-//W3C//DTD SVG 1.1//EN"
 "http://www.w3.org/Graphics/SVG/1.1/DTD/svg11.dtd">
<!-- Generated by graphviz version 2.40.1 (20161225.0304)
 -->
<!-- Title: dependencies Pages: 1 -->
<svg width="740pt" height="284pt"
 viewBox="0.00 0.00 740.00 284.00" xmlns="http://www.w3.org/2000/svg" xmlns:xlink="http://www.w3.org/1999/xlink">
<g id="graph0" class="graph" transform="scale(1 1) rotate(0) translate(4 280)">
<title>dependencies</title>
<polygon fill="#ffffff" stroke="transparent" points="-4,4 -4,-280 736,-280 736,4 -4,4"/>
<text text-anchor="start" x="345.0091" y="-42.4" font-family="sans-serif" font-weight="bold" font-size="14.00" fill="#000000">Legend</text>
<polygon fill="#ffffb3" stroke="transparent" points="132,-10 132,-30 152,-30 152,-10 132,-10"/>
<text text-anchor="start" x="155.629" y="-15.4" font-family="sans-serif" font-size="14.00" fill="#000000"> &#160;Declarations</text>
<polygon fill="#8dd3c7" stroke="transparent" points="245,-10 245,-30 265,-30 265,-10 245,-10"/>
<text text-anchor="start" x="268.7251" y="-15.4" font-family="sans-serif" font-size="14.00" fill="#000000"> &#160;Module</text>
<polygon fill="#80b1d3" stroke="transparent" points="331,-10 331,-30 351,-30 351,-10 331,-10"/>
<text text-anchor="start" x="354.7812" y="-15.4" font-family="sans-serif" font-size="14.00" fill="#000000"> &#160;Bootstrap</text>
<polygon fill="#fdb462" stroke="transparent" points="428,-10 428,-30 448,-30 448,-10 428,-10"/>
<text text-anchor="start" x="451.6732" y="-15.4" font-family="sans-serif" font-size="14.00" fill="#000000"> &#160;Providers</text>
<polygon fill="#fb8072" stroke="transparent" points="524,-10 524,-30 544,-30 544,-10 524,-10"/>
<text text-anchor="start" x="547.7258" y="-15.4" font-family="sans-serif" font-size="14.00" fill="#000000"> &#160;Exports</text>
<g id="clust1" class="cluster">
<title>cluster_CatalogModule</title>
<polygon fill="none" stroke="#000000" stroke-dasharray="1,5" points="8,-70 8,-268 724,-268 724,-70 8,-70"/>
</g>
<g id="clust2" class="cluster">
<title>cluster_CatalogModule_declarations</title>
<polygon fill="none" stroke="#000000" points="356,-78 356,-130 716,-130 716,-78 356,-78"/>
</g>
<g id="clust5" class="cluster">
<title>cluster_CatalogModule_imports</title>
<polygon fill="none" stroke="#000000" points="16,-78 16,-130 348,-130 348,-78 16,-78"/>
</g>
<g id="clust6" class="cluster">
<title>cluster_CatalogModule_exports</title>
<polygon fill="none" stroke="#000000" points="106,-208 106,-260 474,-260 474,-208 106,-208"/>
</g>
<!-- ProductCardComponent -->
<g id="node1" class="node">
<title>ProductCardComponent</title>
<polygon fill="#ffffb3" stroke="#000000" points="708.0926,-122 555.9074,-122 555.9074,-86 708.0926,-86 708.0926,-122"/>
<text text-anchor="middle" x="632" y="-99.8" font-family="Times,serif" font-size="14.00" fill="#000000">ProductCardComponent</text>
</g>
<!-- CatalogModule -->
<g id="node3" class="node">
<title>CatalogModule</title>
<polygon fill="#8dd3c7" stroke="#000000" points="343.5968,-187 340.5968,-191 319.5968,-191 316.5968,-187 240.4032,-187 240.4032,-151 343.5968,-151 343.5968,-187"/>
<text text-anchor="middle" x="292" y="-164.8" font-family="Times,serif" font-size="14.00" fill="#000000">CatalogModule</text>
</g>
<!-- ProductCardComponent&#45;&gt;CatalogModule -->
<g id="edge1" class="edge">
<title>ProductCardComponent&#45;&gt;CatalogModule</title>
<path fill="none" stroke="#000000" d="M632,-122.2843C632,-143.3211 632,-175 632,-175 632,-175 353.6387,-175 353.6387,-175"/>
<polygon fill="#000000" stroke="#000000" points="353.6387,-171.5001 343.6387,-175 353.6386,-178.5001 353.6387,-171.5001"/>
</g>
<!-- ProductCarouselComponent -->
<g id="node2" class="node">
<title>ProductCarouselComponent</title>
<polygon fill="#ffffb3" stroke="#000000" points="538.1428,-122 363.8572,-122 363.8572,-86 538.1428,-86 538.1428,-122"/>
<text text-anchor="middle" x="451" y="-99.8" font-family="Times,serif" font-size="14.00" fill="#000000">ProductCarouselComponent</text>
</g>
<!-- ProductCarouselComponent&#45;&gt;CatalogModule -->
<g id="edge2" class="edge">
<title>ProductCarouselComponent&#45;&gt;CatalogModule</title>
<path fill="none" stroke="#000000" d="M414.7376,-122.0225C414.7376,-139.3734 414.7376,-163 414.7376,-163 414.7376,-163 353.696,-163 353.696,-163"/>
<polygon fill="#000000" stroke="#000000" points="353.6961,-159.5001 343.696,-163 353.696,-166.5001 353.6961,-159.5001"/>
</g>
<!-- ProductCardComponent  -->
<g id="node7" class="node">
<title>ProductCardComponent </title>
<polygon fill="#fb8072" stroke="#000000" points="465.5931,-252 310.4069,-252 310.4069,-216 465.5931,-216 465.5931,-252"/>
<text text-anchor="middle" x="388" y="-229.8" font-family="Times,serif" font-size="14.00" fill="#000000">ProductCardComponent </text>
</g>
<!-- CatalogModule&#45;&gt;ProductCardComponent  -->
<g id="edge6" class="edge">
<title>CatalogModule&#45;&gt;ProductCardComponent </title>
<path fill="none" stroke="#000000" stroke-dasharray="5,2" d="M326.8761,-187.1061C326.8761,-187.1061 326.8761,-205.991 326.8761,-205.991"/>
<polygon fill="#000000" stroke="#000000" points="323.3761,-205.9909 326.8761,-215.991 330.3761,-205.991 323.3761,-205.9909"/>
</g>
<!-- ProductCarouselComponent  -->
<g id="node8" class="node">
<title>ProductCarouselComponent </title>
<polygon fill="#fb8072" stroke="#000000" points="292.1425,-252 113.8575,-252 113.8575,-216 292.1425,-216 292.1425,-252"/>
<text text-anchor="middle" x="203" y="-229.8" font-family="Times,serif" font-size="14.00" fill="#000000">ProductCarouselComponent </text>
</g>
<!-- CatalogModule&#45;&gt;ProductCarouselComponent  -->
<g id="edge7" class="edge">
<title>CatalogModule&#45;&gt;ProductCarouselComponent </title>
<path fill="none" stroke="#000000" stroke-dasharray="5,2" d="M266.2614,-187.1061C266.2614,-187.1061 266.2614,-205.991 266.2614,-205.991"/>
<polygon fill="#000000" stroke="#000000" points="262.7615,-205.9909 266.2614,-215.991 269.7615,-205.991 262.7615,-205.9909"/>
</g>
<!-- ApttusModule -->
<g id="node4" class="node">
<title>ApttusModule</title>
<polygon fill="#8dd3c7" stroke="#000000" points="340.3823,-122 337.3823,-126 316.3823,-126 313.3823,-122 243.6177,-122 243.6177,-86 340.3823,-86 340.3823,-122"/>
<text text-anchor="middle" x="292" y="-99.8" font-family="Times,serif" font-size="14.00" fill="#000000">ApttusModule</text>
</g>
<!-- ApttusModule&#45;&gt;CatalogModule -->
<g id="edge3" class="edge">
<title>ApttusModule&#45;&gt;CatalogModule</title>
<path fill="none" stroke="#000000" d="M292,-122.1061C292,-122.1061 292,-140.991 292,-140.991"/>
<polygon fill="#000000" stroke="#000000" points="288.5001,-140.9909 292,-150.991 295.5001,-140.991 288.5001,-140.9909"/>
</g>
<!-- CartModule -->
<g id="node5" class="node">
<title>CartModule</title>
<polygon fill="#8dd3c7" stroke="#000000" points="225.6529,-122 222.6529,-126 201.6529,-126 198.6529,-122 142.3471,-122 142.3471,-86 225.6529,-86 225.6529,-122"/>
<text text-anchor="middle" x="184" y="-99.8" font-family="Times,serif" font-size="14.00" fill="#000000">CartModule</text>
</g>
<!-- CartModule&#45;&gt;CatalogModule -->
<g id="edge4" class="edge">
<title>CartModule&#45;&gt;CatalogModule</title>
<path fill="none" stroke="#000000" d="M184,-122.0225C184,-139.3734 184,-163 184,-163 184,-163 230.2143,-163 230.2143,-163"/>
<polygon fill="#000000" stroke="#000000" points="230.2143,-166.5001 240.2143,-163 230.2143,-159.5001 230.2143,-166.5001"/>
</g>
<!-- PricingModule -->
<g id="node6" class="node">
<title>PricingModule</title>
<polygon fill="#8dd3c7" stroke="#000000" points="123.9888,-122 120.9888,-126 99.9888,-126 96.9888,-122 24.0112,-122 24.0112,-86 123.9888,-86 123.9888,-122"/>
<text text-anchor="middle" x="74" y="-99.8" font-family="Times,serif" font-size="14.00" fill="#000000">PricingModule</text>
</g>
<!-- PricingModule&#45;&gt;CatalogModule -->
<g id="edge5" class="edge">
<title>PricingModule&#45;&gt;CatalogModule</title>
<path fill="none" stroke="#000000" d="M118.9616,-122.2843C118.9616,-143.3211 118.9616,-175 118.9616,-175 118.9616,-175 230.0828,-175 230.0828,-175"/>
<polygon fill="#000000" stroke="#000000" points="230.0828,-178.5001 240.0828,-175 230.0827,-171.5001 230.0828,-178.5001"/>
</g>
</g>
</svg>
