<?xml version="1.0" encoding="UTF-8" standalone="no"?>
<!DOCTYPE svg PUBLIC "-//W3C//DTD SVG 1.1//EN"
 "http://www.w3.org/Graphics/SVG/1.1/DTD/svg11.dtd">
<!-- Generated by graphviz version 2.40.1 (20161225.0304)
 -->
<!-- Title: dependencies Pages: 1 -->
<svg width="3340pt" height="284pt"
 viewBox="0.00 0.00 3340.00 284.00" xmlns="http://www.w3.org/2000/svg" xmlns:xlink="http://www.w3.org/1999/xlink">
<g id="graph0" class="graph" transform="scale(1 1) rotate(0) translate(4 280)">
<title>dependencies</title>
<polygon fill="#ffffff" stroke="transparent" points="-4,4 -4,-280 3336,-280 3336,4 -4,4"/>
<text text-anchor="start" x="1645.0091" y="-42.4" font-family="sans-serif" font-weight="bold" font-size="14.00" fill="#000000">Legend</text>
<polygon fill="#ffffb3" stroke="transparent" points="1432,-10 1432,-30 1452,-30 1452,-10 1432,-10"/>
<text text-anchor="start" x="1455.629" y="-15.4" font-family="sans-serif" font-size="14.00" fill="#000000"> &#160;Declarations</text>
<polygon fill="#8dd3c7" stroke="transparent" points="1545,-10 1545,-30 1565,-30 1565,-10 1545,-10"/>
<text text-anchor="start" x="1568.7251" y="-15.4" font-family="sans-serif" font-size="14.00" fill="#000000"> &#160;Module</text>
<polygon fill="#80b1d3" stroke="transparent" points="1631,-10 1631,-30 1651,-30 1651,-10 1631,-10"/>
<text text-anchor="start" x="1654.7812" y="-15.4" font-family="sans-serif" font-size="14.00" fill="#000000"> &#160;Bootstrap</text>
<polygon fill="#fdb462" stroke="transparent" points="1728,-10 1728,-30 1748,-30 1748,-10 1728,-10"/>
<text text-anchor="start" x="1751.6732" y="-15.4" font-family="sans-serif" font-size="14.00" fill="#000000"> &#160;Providers</text>
<polygon fill="#fb8072" stroke="transparent" points="1824,-10 1824,-30 1844,-30 1844,-10 1824,-10"/>
<text text-anchor="start" x="1847.7258" y="-15.4" font-family="sans-serif" font-size="14.00" fill="#000000"> &#160;Exports</text>
<g id="clust1" class="cluster">
<title>cluster_CatalogModule</title>
<polygon fill="none" stroke="#000000" stroke-dasharray="1,5" points="8,-70 8,-268 3324,-268 3324,-70 8,-70"/>
</g>
<g id="clust2" class="cluster">
<title>cluster_CatalogModule_declarations</title>
<polygon fill="none" stroke="#000000" points="2413,-78 2413,-130 3316,-130 3316,-78 2413,-78"/>
</g>
<g id="clust8" class="cluster">
<title>cluster_CatalogModule_imports</title>
<polygon fill="none" stroke="#000000" points="2187,-78 2187,-130 2405,-130 2405,-78 2187,-78"/>
</g>
<g id="clust9" class="cluster">
<title>cluster_CatalogModule_exports</title>
<polygon fill="none" stroke="#000000" points="1388,-208 1388,-260 2309,-260 2309,-208 1388,-208"/>
</g>
<g id="clust11" class="cluster">
<title>cluster_CatalogModule_providers</title>
<polygon fill="none" stroke="#000000" points="16,-78 16,-130 2179,-130 2179,-78 16,-78"/>
</g>
<!-- BreadcrumbComponent -->
<g id="node1" class="node">
<title>BreadcrumbComponent</title>
<polygon fill="#ffffb3" stroke="#000000" points="3308.0253,-122 3157.9747,-122 3157.9747,-86 3308.0253,-86 3308.0253,-122"/>
<text text-anchor="middle" x="3233" y="-99.8" font-family="Times,serif" font-size="14.00" fill="#000000">BreadcrumbComponent</text>
</g>
<!-- CatalogModule -->
<g id="node6" class="node">
<title>CatalogModule</title>
<polygon fill="#8dd3c7" stroke="#000000" points="1917.5968,-187 1914.5968,-191 1893.5968,-191 1890.5968,-187 1814.4032,-187 1814.4032,-151 1917.5968,-151 1917.5968,-187"/>
<text text-anchor="middle" x="1866" y="-164.8" font-family="Times,serif" font-size="14.00" fill="#000000">CatalogModule</text>
</g>
<!-- BreadcrumbComponent&#45;&gt;CatalogModule -->
<g id="edge1" class="edge">
<title>BreadcrumbComponent&#45;&gt;CatalogModule</title>
<path fill="none" stroke="#000000" d="M3233,-122.2921C3233,-144.2057 3233,-178 3233,-178 3233,-178 1927.9188,-178 1927.9188,-178"/>
<polygon fill="#000000" stroke="#000000" points="1927.9188,-174.5001 1917.9188,-178 1927.9187,-181.5001 1927.9188,-174.5001"/>
</g>
<!-- ProductCardComponent -->
<g id="node2" class="node">
<title>ProductCardComponent</title>
<polygon fill="#ffffb3" stroke="#000000" points="3140.0926,-122 2987.9074,-122 2987.9074,-86 3140.0926,-86 3140.0926,-122"/>
<text text-anchor="middle" x="3064" y="-99.8" font-family="Times,serif" font-size="14.00" fill="#000000">ProductCardComponent</text>
</g>
<!-- ProductCardComponent&#45;&gt;CatalogModule -->
<g id="edge2" class="edge">
<title>ProductCardComponent&#45;&gt;CatalogModule</title>
<path fill="none" stroke="#000000" d="M3064,-122.0267C3064,-142.7672 3064,-174 3064,-174 3064,-174 1927.8611,-174 1927.8611,-174"/>
<polygon fill="#000000" stroke="#000000" points="1927.8611,-170.5001 1917.8611,-174 1927.8611,-177.5001 1927.8611,-170.5001"/>
</g>
<!-- ProductCarouselComponent -->
<g id="node3" class="node">
<title>ProductCarouselComponent</title>
<polygon fill="#ffffb3" stroke="#000000" points="2970.1428,-122 2795.8572,-122 2795.8572,-86 2970.1428,-86 2970.1428,-122"/>
<text text-anchor="middle" x="2883" y="-99.8" font-family="Times,serif" font-size="14.00" fill="#000000">ProductCarouselComponent</text>
</g>
<!-- ProductCarouselComponent&#45;&gt;CatalogModule -->
<g id="edge3" class="edge">
<title>ProductCarouselComponent&#45;&gt;CatalogModule</title>
<path fill="none" stroke="#000000" d="M2883,-122.308C2883,-142.1455 2883,-171 2883,-171 2883,-171 1927.8314,-171 1927.8314,-171"/>
<polygon fill="#000000" stroke="#000000" points="1927.8314,-167.5001 1917.8314,-171 1927.8313,-174.5001 1927.8314,-167.5001"/>
</g>
<!-- ProductImagesComponent -->
<g id="node4" class="node">
<title>ProductImagesComponent</title>
<polygon fill="#ffffb3" stroke="#000000" points="2777.8061,-122 2612.1939,-122 2612.1939,-86 2777.8061,-86 2777.8061,-122"/>
<text text-anchor="middle" x="2695" y="-99.8" font-family="Times,serif" font-size="14.00" fill="#000000">ProductImagesComponent</text>
</g>
<!-- ProductImagesComponent&#45;&gt;CatalogModule -->
<g id="edge4" class="edge">
<title>ProductImagesComponent&#45;&gt;CatalogModule</title>
<path fill="none" stroke="#000000" d="M2695,-122.1686C2695,-141.0898 2695,-168 2695,-168 2695,-168 1927.8577,-168 1927.8577,-168"/>
<polygon fill="#000000" stroke="#000000" points="1927.8577,-164.5001 1917.8577,-168 1927.8576,-171.5001 1927.8577,-164.5001"/>
</g>
<!-- ProductReviewsComponent -->
<g id="node5" class="node">
<title>ProductReviewsComponent</title>
<polygon fill="#ffffb3" stroke="#000000" points="2594.5884,-122 2421.4116,-122 2421.4116,-86 2594.5884,-86 2594.5884,-122"/>
<text text-anchor="middle" x="2508" y="-99.8" font-family="Times,serif" font-size="14.00" fill="#000000">ProductReviewsComponent</text>
</g>
<!-- ProductReviewsComponent&#45;&gt;CatalogModule -->
<g id="edge5" class="edge">
<title>ProductReviewsComponent&#45;&gt;CatalogModule</title>
<path fill="none" stroke="#000000" d="M2508,-122.302C2508,-140.2699 2508,-165 2508,-165 2508,-165 1927.7227,-165 1927.7227,-165"/>
<polygon fill="#000000" stroke="#000000" points="1927.7228,-161.5001 1917.7227,-165 1927.7227,-168.5001 1927.7228,-161.5001"/>
</g>
<!-- BreadcrumbComponent  -->
<g id="node9" class="node">
<title>BreadcrumbComponent </title>
<polygon fill="#fb8072" stroke="#000000" points="2301.0246,-252 2146.9754,-252 2146.9754,-216 2301.0246,-216 2301.0246,-252"/>
<text text-anchor="middle" x="2224" y="-229.8" font-family="Times,serif" font-size="14.00" fill="#000000">BreadcrumbComponent </text>
</g>
<!-- CatalogModule&#45;&gt;BreadcrumbComponent  -->
<g id="edge8" class="edge">
<title>CatalogModule&#45;&gt;BreadcrumbComponent </title>
<path fill="none" stroke="#000000" stroke-dasharray="5,2" d="M1917.7413,-181C2001.91,-181 2159.1886,-181 2159.1886,-181 2159.1886,-181 2159.1886,-205.7604 2159.1886,-205.7604"/>
<polygon fill="#000000" stroke="#000000" points="2155.6887,-205.7604 2159.1886,-215.7604 2162.6887,-205.7604 2155.6887,-205.7604"/>
</g>
<!-- ProductCardComponent  -->
<g id="node10" class="node">
<title>ProductCardComponent </title>
<polygon fill="#fb8072" stroke="#000000" points="2128.5931,-252 1973.4069,-252 1973.4069,-216 2128.5931,-216 2128.5931,-252"/>
<text text-anchor="middle" x="2051" y="-229.8" font-family="Times,serif" font-size="14.00" fill="#000000">ProductCardComponent </text>
</g>
<!-- CatalogModule&#45;&gt;ProductCardComponent  -->
<g id="edge9" class="edge">
<title>CatalogModule&#45;&gt;ProductCardComponent </title>
<path fill="none" stroke="#000000" stroke-dasharray="5,2" d="M1917.803,-184C1951.0953,-184 1988.151,-184 1988.151,-184 1988.151,-184 1988.151,-205.9489 1988.151,-205.9489"/>
<polygon fill="#000000" stroke="#000000" points="1984.6511,-205.9488 1988.151,-215.9489 1991.6511,-205.9489 1984.6511,-205.9488"/>
</g>
<!-- ProductCarouselComponent  -->
<g id="node11" class="node">
<title>ProductCarouselComponent </title>
<polygon fill="#fb8072" stroke="#000000" points="1955.1425,-252 1776.8575,-252 1776.8575,-216 1955.1425,-216 1955.1425,-252"/>
<text text-anchor="middle" x="1866" y="-229.8" font-family="Times,serif" font-size="14.00" fill="#000000">ProductCarouselComponent </text>
</g>
<!-- CatalogModule&#45;&gt;ProductCarouselComponent  -->
<g id="edge10" class="edge">
<title>CatalogModule&#45;&gt;ProductCarouselComponent </title>
<path fill="none" stroke="#000000" stroke-dasharray="5,2" d="M1866,-187.1061C1866,-187.1061 1866,-205.991 1866,-205.991"/>
<polygon fill="#000000" stroke="#000000" points="1862.5001,-205.9909 1866,-215.991 1869.5001,-205.991 1862.5001,-205.9909"/>
</g>
<!-- ProductImagesComponent  -->
<g id="node12" class="node">
<title>ProductImagesComponent </title>
<polygon fill="#fb8072" stroke="#000000" points="1759.3059,-252 1590.6941,-252 1590.6941,-216 1759.3059,-216 1759.3059,-252"/>
<text text-anchor="middle" x="1675" y="-229.8" font-family="Times,serif" font-size="14.00" fill="#000000">ProductImagesComponent </text>
</g>
<!-- CatalogModule&#45;&gt;ProductImagesComponent  -->
<g id="edge11" class="edge">
<title>CatalogModule&#45;&gt;ProductImagesComponent </title>
<path fill="none" stroke="#000000" stroke-dasharray="5,2" d="M1814.3256,-184C1781.116,-184 1744.1523,-184 1744.1523,-184 1744.1523,-184 1744.1523,-205.9489 1744.1523,-205.9489"/>
<polygon fill="#000000" stroke="#000000" points="1740.6524,-205.9488 1744.1523,-215.9489 1747.6524,-205.9489 1740.6524,-205.9488"/>
</g>
<!-- ProductReviewsComponent  -->
<g id="node13" class="node">
<title>ProductReviewsComponent </title>
<polygon fill="#fb8072" stroke="#000000" points="1572.0889,-252 1395.9111,-252 1395.9111,-216 1572.0889,-216 1572.0889,-252"/>
<text text-anchor="middle" x="1484" y="-229.8" font-family="Times,serif" font-size="14.00" fill="#000000">ProductReviewsComponent </text>
</g>
<!-- CatalogModule&#45;&gt;ProductReviewsComponent  -->
<g id="edge12" class="edge">
<title>CatalogModule&#45;&gt;ProductReviewsComponent </title>
<path fill="none" stroke="#000000" stroke-dasharray="5,2" d="M1814.4489,-181C1723.2332,-181 1542.9148,-181 1542.9148,-181 1542.9148,-181 1542.9148,-205.7604 1542.9148,-205.7604"/>
<polygon fill="#000000" stroke="#000000" points="1539.4149,-205.7604 1542.9148,-215.7604 1546.4149,-205.7604 1539.4149,-205.7604"/>
</g>
<!-- CartModule -->
<g id="node7" class="node">
<title>CartModule</title>
<polygon fill="#8dd3c7" stroke="#000000" points="2396.6529,-122 2393.6529,-126 2372.6529,-126 2369.6529,-122 2313.3471,-122 2313.3471,-86 2396.6529,-86 2396.6529,-122"/>
<text text-anchor="middle" x="2355" y="-99.8" font-family="Times,serif" font-size="14.00" fill="#000000">CartModule</text>
</g>
<!-- CartModule&#45;&gt;CatalogModule -->
<g id="edge6" class="edge">
<title>CartModule&#45;&gt;CatalogModule</title>
<path fill="none" stroke="#000000" d="M2355,-122.0352C2355,-138.7344 2355,-161 2355,-161 2355,-161 1927.8686,-161 1927.8686,-161"/>
<polygon fill="#000000" stroke="#000000" points="1927.8687,-157.5001 1917.8686,-161 1927.8686,-164.5001 1927.8687,-157.5001"/>
</g>
<!-- PricingModule -->
<g id="node8" class="node">
<title>PricingModule</title>
<polygon fill="#8dd3c7" stroke="#000000" points="2294.9888,-122 2291.9888,-126 2270.9888,-126 2267.9888,-122 2195.0112,-122 2195.0112,-86 2294.9888,-86 2294.9888,-122"/>
<text text-anchor="middle" x="2245" y="-99.8" font-family="Times,serif" font-size="14.00" fill="#000000">PricingModule</text>
</g>
<!-- PricingModule&#45;&gt;CatalogModule -->
<g id="edge7" class="edge">
<title>PricingModule&#45;&gt;CatalogModule</title>
<path fill="none" stroke="#000000" d="M2245,-122.2819C2245,-137.9478 2245,-158 2245,-158 2245,-158 1927.9037,-158 1927.9037,-158"/>
<polygon fill="#000000" stroke="#000000" points="1927.9037,-154.5001 1917.9037,-158 1927.9036,-161.5001 1927.9037,-154.5001"/>
</g>
<!-- CategoryService -->
<g id="node14" class="node">
<title>CategoryService</title>
<ellipse fill="#fdb462" stroke="#000000" cx="2096" cy="-104" rx="75.279" ry="18"/>
<text text-anchor="middle" x="2096" y="-99.8" font-family="Times,serif" font-size="14.00" fill="#000000">CategoryService</text>
</g>
<!-- CategoryService&#45;&gt;CatalogModule -->
<g id="edge13" class="edge">
<title>CategoryService&#45;&gt;CatalogModule</title>
<path fill="none" stroke="#000000" d="M2074.7034,-121.5513C2074.7034,-136.3038 2074.7034,-155 2074.7034,-155 2074.7034,-155 1927.5896,-155 1927.5896,-155"/>
<polygon fill="#000000" stroke="#000000" points="1927.5897,-151.5001 1917.5896,-155 1927.5896,-158.5001 1927.5897,-151.5001"/>
</g>
<!-- ConstraintRuleConditionService -->
<g id="node15" class="node">
<title>ConstraintRuleConditionService</title>
<ellipse fill="#fdb462" stroke="#000000" cx="1866" cy="-104" rx="137.1966" ry="18"/>
<text text-anchor="middle" x="1866" y="-99.8" font-family="Times,serif" font-size="14.00" fill="#000000">ConstraintRuleConditionService</text>
</g>
<!-- ConstraintRuleConditionService&#45;&gt;CatalogModule -->
<g id="edge14" class="edge">
<title>ConstraintRuleConditionService&#45;&gt;CatalogModule</title>
<path fill="none" stroke="#000000" d="M1866,-122.1061C1866,-122.1061 1866,-140.991 1866,-140.991"/>
<polygon fill="#000000" stroke="#000000" points="1862.5001,-140.9909 1866,-150.991 1869.5001,-140.991 1862.5001,-140.9909"/>
</g>
<!-- ConstraintRuleService -->
<g id="node16" class="node">
<title>ConstraintRuleService</title>
<ellipse fill="#fdb462" stroke="#000000" cx="1612" cy="-104" rx="98.4294" ry="18"/>
<text text-anchor="middle" x="1612" y="-99.8" font-family="Times,serif" font-size="14.00" fill="#000000">ConstraintRuleService</text>
</g>
<!-- ConstraintRuleService&#45;&gt;CatalogModule -->
<g id="edge15" class="edge">
<title>ConstraintRuleService&#45;&gt;CatalogModule</title>
<path fill="none" stroke="#000000" d="M1650.5309,-120.6993C1650.5309,-135.5731 1650.5309,-155 1650.5309,-155 1650.5309,-155 1804.3898,-155 1804.3898,-155"/>
<polygon fill="#000000" stroke="#000000" points="1804.3898,-158.5001 1814.3898,-155 1804.3897,-151.5001 1804.3898,-158.5001"/>
</g>
<!-- ProductAttributeRuleService -->
<g id="node17" class="node">
<title>ProductAttributeRuleService</title>
<ellipse fill="#fdb462" stroke="#000000" cx="1372" cy="-104" rx="123.2688" ry="18"/>
<text text-anchor="middle" x="1372" y="-99.8" font-family="Times,serif" font-size="14.00" fill="#000000">ProductAttributeRuleService</text>
</g>
<!-- ProductAttributeRuleService&#45;&gt;CatalogModule -->
<g id="edge16" class="edge">
<title>ProductAttributeRuleService&#45;&gt;CatalogModule</title>
<path fill="none" stroke="#000000" d="M1445.4201,-118.471C1445.4201,-134.4665 1445.4201,-158 1445.4201,-158 1445.4201,-158 1804.4286,-158 1804.4286,-158"/>
<polygon fill="#000000" stroke="#000000" points="1804.4287,-161.5001 1814.4286,-158 1804.4286,-154.5001 1804.4287,-161.5001"/>
</g>
<!-- ProductAttributeService -->
<g id="node18" class="node">
<title>ProductAttributeService</title>
<ellipse fill="#fdb462" stroke="#000000" cx="1126" cy="-104" rx="104.7906" ry="18"/>
<text text-anchor="middle" x="1126" y="-99.8" font-family="Times,serif" font-size="14.00" fill="#000000">ProductAttributeService</text>
</g>
<!-- ProductAttributeService&#45;&gt;CatalogModule -->
<g id="edge17" class="edge">
<title>ProductAttributeService&#45;&gt;CatalogModule</title>
<path fill="none" stroke="#000000" d="M1126,-122.0352C1126,-138.7344 1126,-161 1126,-161 1126,-161 1804.2588,-161 1804.2588,-161"/>
<polygon fill="#000000" stroke="#000000" points="1804.2588,-164.5001 1814.2588,-161 1804.2587,-157.5001 1804.2588,-164.5001"/>
</g>
<!-- ProductOptionGroupService -->
<g id="node19" class="node">
<title>ProductOptionGroupService</title>
<ellipse fill="#fdb462" stroke="#000000" cx="882" cy="-104" rx="121.5529" ry="18"/>
<text text-anchor="middle" x="882" y="-99.8" font-family="Times,serif" font-size="14.00" fill="#000000">ProductOptionGroupService</text>
</g>
<!-- ProductOptionGroupService&#45;&gt;CatalogModule -->
<g id="edge18" class="edge">
<title>ProductOptionGroupService&#45;&gt;CatalogModule</title>
<path fill="none" stroke="#000000" d="M882,-122.302C882,-140.2699 882,-165 882,-165 882,-165 1804.1365,-165 1804.1365,-165"/>
<polygon fill="#000000" stroke="#000000" points="1804.1365,-168.5001 1814.1365,-165 1804.1365,-161.5001 1804.1365,-168.5001"/>
</g>
<!-- ProductOptionService -->
<g id="node20" class="node">
<title>ProductOptionService</title>
<ellipse fill="#fdb462" stroke="#000000" cx="646" cy="-104" rx="96.71" ry="18"/>
<text text-anchor="middle" x="646" y="-99.8" font-family="Times,serif" font-size="14.00" fill="#000000">ProductOptionService</text>
</g>
<!-- ProductOptionService&#45;&gt;CatalogModule -->
<g id="edge19" class="edge">
<title>ProductOptionService&#45;&gt;CatalogModule</title>
<path fill="none" stroke="#000000" d="M646,-122.1686C646,-141.0898 646,-168 646,-168 646,-168 1804.3574,-168 1804.3574,-168"/>
<polygon fill="#000000" stroke="#000000" points="1804.3574,-171.5001 1814.3574,-168 1804.3573,-164.5001 1804.3574,-171.5001"/>
</g>
<!-- ProductReviewService -->
<g id="node21" class="node">
<title>ProductReviewService</title>
<ellipse fill="#fdb462" stroke="#000000" cx="432" cy="-104" rx="99.5558" ry="18"/>
<text text-anchor="middle" x="432" y="-99.8" font-family="Times,serif" font-size="14.00" fill="#000000">ProductReviewService</text>
</g>
<!-- ProductReviewService&#45;&gt;CatalogModule -->
<g id="edge20" class="edge">
<title>ProductReviewService&#45;&gt;CatalogModule</title>
<path fill="none" stroke="#000000" d="M432,-122.308C432,-142.1455 432,-171 432,-171 432,-171 1804.116,-171 1804.116,-171"/>
<polygon fill="#000000" stroke="#000000" points="1804.116,-174.5001 1814.116,-171 1804.116,-167.5001 1804.116,-174.5001"/>
</g>
<!-- ProductService -->
<g id="node22" class="node">
<title>ProductService</title>
<ellipse fill="#fdb462" stroke="#000000" cx="244" cy="-104" rx="70.0616" ry="18"/>
<text text-anchor="middle" x="244" y="-99.8" font-family="Times,serif" font-size="14.00" fill="#000000">ProductService</text>
</g>
<!-- ProductService&#45;&gt;CatalogModule -->
<g id="edge21" class="edge">
<title>ProductService&#45;&gt;CatalogModule</title>
<path fill="none" stroke="#000000" d="M244,-122.0267C244,-142.7672 244,-174 244,-174 244,-174 1804.3249,-174 1804.3249,-174"/>
<polygon fill="#000000" stroke="#000000" points="1804.325,-177.5001 1814.3249,-174 1804.3249,-170.5001 1804.325,-177.5001"/>
</g>
<!-- SearchService -->
<g id="node23" class="node">
<title>SearchService</title>
<ellipse fill="#fdb462" stroke="#000000" cx="90" cy="-104" rx="66.0281" ry="18"/>
<text text-anchor="middle" x="90" y="-99.8" font-family="Times,serif" font-size="14.00" fill="#000000">SearchService</text>
</g>
<!-- SearchService&#45;&gt;CatalogModule -->
<g id="edge22" class="edge">
<title>SearchService&#45;&gt;CatalogModule</title>
<path fill="none" stroke="#000000" d="M90,-122.2921C90,-144.2057 90,-178 90,-178 90,-178 1804.2873,-178 1804.2873,-178"/>
<polygon fill="#000000" stroke="#000000" points="1804.2874,-181.5001 1814.2873,-178 1804.2873,-174.5001 1804.2874,-181.5001"/>
</g>
</g>
</svg>
