<?xml version="1.0" encoding="UTF-8" standalone="no"?>
<!DOCTYPE svg PUBLIC "-//W3C//DTD SVG 1.1//EN"
 "http://www.w3.org/Graphics/SVG/1.1/DTD/svg11.dtd">
<!-- Generated by graphviz version 2.40.1 (20161225.0304)
 -->
<!-- Title: dependencies Pages: 1 -->
<svg width="1169pt" height="284pt"
 viewBox="0.00 0.00 1169.00 284.00" xmlns="http://www.w3.org/2000/svg" xmlns:xlink="http://www.w3.org/1999/xlink">
<g id="graph0" class="graph" transform="scale(1 1) rotate(0) translate(4 280)">
<title>dependencies</title>
<polygon fill="#ffffff" stroke="transparent" points="-4,4 -4,-280 1165,-280 1165,4 -4,4"/>
<text text-anchor="start" x="559.5091" y="-42.4" font-family="sans-serif" font-weight="bold" font-size="14.00" fill="#000000">Legend</text>
<polygon fill="#ffffb3" stroke="transparent" points="346.5,-10 346.5,-30 366.5,-30 366.5,-10 346.5,-10"/>
<text text-anchor="start" x="370.129" y="-15.4" font-family="sans-serif" font-size="14.00" fill="#000000"> &#160;Declarations</text>
<polygon fill="#8dd3c7" stroke="transparent" points="459.5,-10 459.5,-30 479.5,-30 479.5,-10 459.5,-10"/>
<text text-anchor="start" x="483.2251" y="-15.4" font-family="sans-serif" font-size="14.00" fill="#000000"> &#160;Module</text>
<polygon fill="#80b1d3" stroke="transparent" points="545.5,-10 545.5,-30 565.5,-30 565.5,-10 545.5,-10"/>
<text text-anchor="start" x="569.2812" y="-15.4" font-family="sans-serif" font-size="14.00" fill="#000000"> &#160;Bootstrap</text>
<polygon fill="#fdb462" stroke="transparent" points="642.5,-10 642.5,-30 662.5,-30 662.5,-10 642.5,-10"/>
<text text-anchor="start" x="666.1732" y="-15.4" font-family="sans-serif" font-size="14.00" fill="#000000"> &#160;Providers</text>
<polygon fill="#fb8072" stroke="transparent" points="738.5,-10 738.5,-30 758.5,-30 758.5,-10 738.5,-10"/>
<text text-anchor="start" x="762.2258" y="-15.4" font-family="sans-serif" font-size="14.00" fill="#000000"> &#160;Exports</text>
<g id="clust1" class="cluster">
<title>cluster_CatalogModule</title>
<polygon fill="none" stroke="#000000" stroke-dasharray="1,5" points="8,-70 8,-268 1153,-268 1153,-70 8,-70"/>
</g>
<g id="clust2" class="cluster">
<title>cluster_CatalogModule_declarations</title>
<polygon fill="none" stroke="#000000" points="242,-78 242,-130 1145,-130 1145,-78 242,-78"/>
</g>
<g id="clust8" class="cluster">
<title>cluster_CatalogModule_imports</title>
<polygon fill="none" stroke="#000000" points="16,-78 16,-130 234,-130 234,-78 16,-78"/>
</g>
<g id="clust9" class="cluster">
<title>cluster_CatalogModule_exports</title>
<polygon fill="none" stroke="#000000" points="46,-208 46,-260 967,-260 967,-208 46,-208"/>
</g>
<!-- BreadcrumbComponent -->
<g id="node1" class="node">
<title>BreadcrumbComponent</title>
<polygon fill="#ffffb3" stroke="#000000" points="1137.0253,-122 986.9747,-122 986.9747,-86 1137.0253,-86 1137.0253,-122"/>
<text text-anchor="middle" x="1062" y="-99.8" font-family="Times,serif" font-size="14.00" fill="#000000">BreadcrumbComponent</text>
</g>
<!-- CatalogModule -->
<g id="node6" class="node">
<title>CatalogModule</title>
<polygon fill="#8dd3c7" stroke="#000000" points="575.5968,-187 572.5968,-191 551.5968,-191 548.5968,-187 472.4032,-187 472.4032,-151 575.5968,-151 575.5968,-187"/>
<text text-anchor="middle" x="524" y="-164.8" font-family="Times,serif" font-size="14.00" fill="#000000">CatalogModule</text>
</g>
<!-- BreadcrumbComponent&#45;&gt;CatalogModule -->
<g id="edge1" class="edge">
<title>BreadcrumbComponent&#45;&gt;CatalogModule</title>
<path fill="none" stroke="#000000" d="M1062,-122.1061C1062,-141.3391 1062,-169 1062,-169 1062,-169 585.5857,-169 585.5857,-169"/>
<polygon fill="#000000" stroke="#000000" points="585.5857,-165.5001 575.5857,-169 585.5857,-172.5001 585.5857,-165.5001"/>
</g>
<!-- ProductCardComponent -->
<g id="node2" class="node">
<title>ProductCardComponent</title>
<polygon fill="#ffffb3" stroke="#000000" points="969.0926,-122 816.9074,-122 816.9074,-86 969.0926,-86 969.0926,-122"/>
<text text-anchor="middle" x="893" y="-99.8" font-family="Times,serif" font-size="14.00" fill="#000000">ProductCardComponent</text>
</g>
<!-- ProductCardComponent&#45;&gt;CatalogModule -->
<g id="edge2" class="edge">
<title>ProductCardComponent&#45;&gt;CatalogModule</title>
<path fill="none" stroke="#000000" d="M887.983,-122.0225C887.983,-139.3734 887.983,-163 887.983,-163 887.983,-163 585.7633,-163 585.7633,-163"/>
<polygon fill="#000000" stroke="#000000" points="585.7634,-159.5001 575.7633,-163 585.7633,-166.5001 585.7634,-159.5001"/>
</g>
<!-- ProductCarouselComponent -->
<g id="node3" class="node">
<title>ProductCarouselComponent</title>
<polygon fill="#ffffb3" stroke="#000000" points="799.1428,-122 624.8572,-122 624.8572,-86 799.1428,-86 799.1428,-122"/>
<text text-anchor="middle" x="712" y="-99.8" font-family="Times,serif" font-size="14.00" fill="#000000">ProductCarouselComponent</text>
</g>
<!-- ProductCarouselComponent&#45;&gt;CatalogModule -->
<g id="edge3" class="edge">
<title>ProductCarouselComponent&#45;&gt;CatalogModule</title>
<path fill="none" stroke="#000000" d="M683.0679,-122.2396C683.0679,-137.5706 683.0679,-157 683.0679,-157 683.0679,-157 585.6448,-157 585.6448,-157"/>
<polygon fill="#000000" stroke="#000000" points="585.6448,-153.5001 575.6448,-157 585.6448,-160.5001 585.6448,-153.5001"/>
</g>
<!-- ProductImagesComponent -->
<g id="node4" class="node">
<title>ProductImagesComponent</title>
<polygon fill="#ffffb3" stroke="#000000" points="606.8061,-122 441.1939,-122 441.1939,-86 606.8061,-86 606.8061,-122"/>
<text text-anchor="middle" x="524" y="-99.8" font-family="Times,serif" font-size="14.00" fill="#000000">ProductImagesComponent</text>
</g>
<!-- ProductImagesComponent&#45;&gt;CatalogModule -->
<g id="edge4" class="edge">
<title>ProductImagesComponent&#45;&gt;CatalogModule</title>
<path fill="none" stroke="#000000" d="M524,-122.1061C524,-122.1061 524,-140.991 524,-140.991"/>
<polygon fill="#000000" stroke="#000000" points="520.5001,-140.9909 524,-150.991 527.5001,-140.991 520.5001,-140.9909"/>
</g>
<!-- ProductReviewsComponent -->
<g id="node5" class="node">
<title>ProductReviewsComponent</title>
<polygon fill="#ffffb3" stroke="#000000" points="423.5884,-122 250.4116,-122 250.4116,-86 423.5884,-86 423.5884,-122"/>
<text text-anchor="middle" x="337" y="-99.8" font-family="Times,serif" font-size="14.00" fill="#000000">ProductReviewsComponent</text>
</g>
<!-- ProductReviewsComponent&#45;&gt;CatalogModule -->
<g id="edge5" class="edge">
<title>ProductReviewsComponent&#45;&gt;CatalogModule</title>
<path fill="none" stroke="#000000" d="M361.7539,-122.2396C361.7539,-137.5706 361.7539,-157 361.7539,-157 361.7539,-157 462.2182,-157 462.2182,-157"/>
<polygon fill="#000000" stroke="#000000" points="462.2183,-160.5001 472.2182,-157 462.2182,-153.5001 462.2183,-160.5001"/>
</g>
<!-- BreadcrumbComponent  -->
<g id="node9" class="node">
<title>BreadcrumbComponent </title>
<polygon fill="#fb8072" stroke="#000000" points="959.0246,-252 804.9754,-252 804.9754,-216 959.0246,-216 959.0246,-252"/>
<text text-anchor="middle" x="882" y="-229.8" font-family="Times,serif" font-size="14.00" fill="#000000">BreadcrumbComponent </text>
</g>
<!-- CatalogModule&#45;&gt;BreadcrumbComponent  -->
<g id="edge8" class="edge">
<title>CatalogModule&#45;&gt;BreadcrumbComponent </title>
<path fill="none" stroke="#000000" stroke-dasharray="5,2" d="M575.636,-175C658.2567,-175 810.9707,-175 810.9707,-175 810.9707,-175 810.9707,-205.9775 810.9707,-205.9775"/>
<polygon fill="#000000" stroke="#000000" points="807.4708,-205.9774 810.9707,-215.9775 814.4708,-205.9775 807.4708,-205.9774"/>
</g>
<!-- ProductCardComponent  -->
<g id="node10" class="node">
<title>ProductCardComponent </title>
<polygon fill="#fb8072" stroke="#000000" points="786.5931,-252 631.4069,-252 631.4069,-216 786.5931,-216 786.5931,-252"/>
<text text-anchor="middle" x="709" y="-229.8" font-family="Times,serif" font-size="14.00" fill="#000000">ProductCardComponent </text>
</g>
<!-- CatalogModule&#45;&gt;ProductCardComponent  -->
<g id="edge9" class="edge">
<title>CatalogModule&#45;&gt;ProductCardComponent </title>
<path fill="none" stroke="#000000" stroke-dasharray="5,2" d="M575.5998,-181C638.0459,-181 734.9321,-181 734.9321,-181 734.9321,-181 734.9321,-205.7604 734.9321,-205.7604"/>
<polygon fill="#000000" stroke="#000000" points="731.4322,-205.7604 734.9321,-215.7604 738.4322,-205.7604 731.4322,-205.7604"/>
</g>
<!-- ProductCarouselComponent  -->
<g id="node11" class="node">
<title>ProductCarouselComponent </title>
<polygon fill="#fb8072" stroke="#000000" points="613.1425,-252 434.8575,-252 434.8575,-216 613.1425,-216 613.1425,-252"/>
<text text-anchor="middle" x="524" y="-229.8" font-family="Times,serif" font-size="14.00" fill="#000000">ProductCarouselComponent </text>
</g>
<!-- CatalogModule&#45;&gt;ProductCarouselComponent  -->
<g id="edge10" class="edge">
<title>CatalogModule&#45;&gt;ProductCarouselComponent </title>
<path fill="none" stroke="#000000" stroke-dasharray="5,2" d="M524,-187.1061C524,-187.1061 524,-205.991 524,-205.991"/>
<polygon fill="#000000" stroke="#000000" points="520.5001,-205.9909 524,-215.991 527.5001,-205.991 520.5001,-205.9909"/>
</g>
<!-- ProductImagesComponent  -->
<g id="node12" class="node">
<title>ProductImagesComponent </title>
<polygon fill="#fb8072" stroke="#000000" points="417.3059,-252 248.6941,-252 248.6941,-216 417.3059,-216 417.3059,-252"/>
<text text-anchor="middle" x="333" y="-229.8" font-family="Times,serif" font-size="14.00" fill="#000000">ProductImagesComponent </text>
</g>
<!-- CatalogModule&#45;&gt;ProductImagesComponent  -->
<g id="edge11" class="edge">
<title>CatalogModule&#45;&gt;ProductImagesComponent </title>
<path fill="none" stroke="#000000" stroke-dasharray="5,2" d="M472.3619,-181C407.9273,-181 306.1048,-181 306.1048,-181 306.1048,-181 306.1048,-205.7604 306.1048,-205.7604"/>
<polygon fill="#000000" stroke="#000000" points="302.6049,-205.7604 306.1048,-215.7604 309.6049,-205.7604 302.6049,-205.7604"/>
</g>
<!-- ProductReviewsComponent  -->
<g id="node13" class="node">
<title>ProductReviewsComponent </title>
<polygon fill="#fb8072" stroke="#000000" points="230.0889,-252 53.9111,-252 53.9111,-216 230.0889,-216 230.0889,-252"/>
<text text-anchor="middle" x="142" y="-229.8" font-family="Times,serif" font-size="14.00" fill="#000000">ProductReviewsComponent </text>
</g>
<!-- CatalogModule&#45;&gt;ProductReviewsComponent  -->
<g id="edge12" class="edge">
<title>CatalogModule&#45;&gt;ProductReviewsComponent </title>
<path fill="none" stroke="#000000" stroke-dasharray="5,2" d="M472.1547,-175C373.8439,-175 170.058,-175 170.058,-175 170.058,-175 170.058,-205.9775 170.058,-205.9775"/>
<polygon fill="#000000" stroke="#000000" points="166.5579,-205.9775 170.058,-215.9775 173.5579,-205.9774 166.5579,-205.9775"/>
</g>
<!-- CartModule -->
<g id="node7" class="node">
<title>CartModule</title>
<polygon fill="#8dd3c7" stroke="#000000" points="225.6529,-122 222.6529,-126 201.6529,-126 198.6529,-122 142.3471,-122 142.3471,-86 225.6529,-86 225.6529,-122"/>
<text text-anchor="middle" x="184" y="-99.8" font-family="Times,serif" font-size="14.00" fill="#000000">CartModule</text>
</g>
<!-- CartModule&#45;&gt;CatalogModule -->
<g id="edge6" class="edge">
<title>CartModule&#45;&gt;CatalogModule</title>
<path fill="none" stroke="#000000" d="M197.942,-122.0225C197.942,-139.3734 197.942,-163 197.942,-163 197.942,-163 462.3351,-163 462.3351,-163"/>
<polygon fill="#000000" stroke="#000000" points="462.3352,-166.5001 472.3351,-163 462.3351,-159.5001 462.3352,-166.5001"/>
</g>
<!-- PricingModule -->
<g id="node8" class="node">
<title>PricingModule</title>
<polygon fill="#8dd3c7" stroke="#000000" points="123.9888,-122 120.9888,-126 99.9888,-126 96.9888,-122 24.0112,-122 24.0112,-86 123.9888,-86 123.9888,-122"/>
<text text-anchor="middle" x="74" y="-99.8" font-family="Times,serif" font-size="14.00" fill="#000000">PricingModule</text>
</g>
<!-- PricingModule&#45;&gt;CatalogModule -->
<g id="edge7" class="edge">
<title>PricingModule&#45;&gt;CatalogModule</title>
<path fill="none" stroke="#000000" d="M88.8501,-122.1061C88.8501,-141.3391 88.8501,-169 88.8501,-169 88.8501,-169 462.3738,-169 462.3738,-169"/>
<polygon fill="#000000" stroke="#000000" points="462.3738,-172.5001 472.3738,-169 462.3738,-165.5001 462.3738,-172.5001"/>
</g>
</g>
</svg>
