<?xml version="1.0" encoding="UTF-8" standalone="no"?>
<!DOCTYPE svg PUBLIC "-//W3C//DTD SVG 1.1//EN"
 "http://www.w3.org/Graphics/SVG/1.1/DTD/svg11.dtd">
<!-- Generated by graphviz version 2.40.1 (20161225.0304)
 -->
<!-- Title: dependencies Pages: 1 -->
<svg width="504pt" height="211pt"
 viewBox="0.00 0.00 504.00 211.00" xmlns="http://www.w3.org/2000/svg" xmlns:xlink="http://www.w3.org/1999/xlink">
<g id="graph0" class="graph" transform="scale(1 1) rotate(0) translate(4 207)">
<title>dependencies</title>
<polygon fill="#ffffff" stroke="transparent" points="-4,4 -4,-207 500,-207 500,4 -4,4"/>
<text text-anchor="start" x="227.0091" y="-42.4" font-family="sans-serif" font-weight="bold" font-size="14.00" fill="#000000">Legend</text>
<polygon fill="#ffffb3" stroke="transparent" points="14,-10 14,-30 34,-30 34,-10 14,-10"/>
<text text-anchor="start" x="37.629" y="-15.4" font-family="sans-serif" font-size="14.00" fill="#000000"> &#160;Declarations</text>
<polygon fill="#8dd3c7" stroke="transparent" points="127,-10 127,-30 147,-30 147,-10 127,-10"/>
<text text-anchor="start" x="150.7251" y="-15.4" font-family="sans-serif" font-size="14.00" fill="#000000"> &#160;Module</text>
<polygon fill="#80b1d3" stroke="transparent" points="213,-10 213,-30 233,-30 233,-10 213,-10"/>
<text text-anchor="start" x="236.7812" y="-15.4" font-family="sans-serif" font-size="14.00" fill="#000000"> &#160;Bootstrap</text>
<polygon fill="#fdb462" stroke="transparent" points="310,-10 310,-30 330,-30 330,-10 310,-10"/>
<text text-anchor="start" x="333.6732" y="-15.4" font-family="sans-serif" font-size="14.00" fill="#000000"> &#160;Providers</text>
<polygon fill="#fb8072" stroke="transparent" points="406,-10 406,-30 426,-30 426,-10 406,-10"/>
<text text-anchor="start" x="429.7258" y="-15.4" font-family="sans-serif" font-size="14.00" fill="#000000"> &#160;Exports</text>
<g id="clust1" class="cluster">
<title>cluster_CatalogModule</title>
<polygon fill="none" stroke="#000000" stroke-dasharray="1,5" points="77,-70 77,-195 419,-195 419,-70 77,-70"/>
</g>
<g id="clust3" class="cluster">
<title>cluster_CatalogModule_imports</title>
<polygon fill="none" stroke="#000000" points="85,-78 85,-130 411,-130 411,-78 85,-78"/>
</g>
<!-- CartModule -->
<g id="node1" class="node">
<title>CartModule</title>
<polygon fill="#8dd3c7" stroke="#000000" points="402.6529,-122 399.6529,-126 378.6529,-126 375.6529,-122 319.3471,-122 319.3471,-86 402.6529,-86 402.6529,-122"/>
<text text-anchor="middle" x="361" y="-99.8" font-family="Times,serif" font-size="14.00" fill="#000000">CartModule</text>
</g>
<!-- CatalogModule -->
<g id="node4" class="node">
<title>CatalogModule</title>
<polygon fill="#8dd3c7" stroke="#000000" points="302.5968,-187 299.5968,-191 278.5968,-191 275.5968,-187 199.4032,-187 199.4032,-151 302.5968,-151 302.5968,-187"/>
<text text-anchor="middle" x="251" y="-164.8" font-family="Times,serif" font-size="14.00" fill="#000000">CatalogModule</text>
</g>
<!-- CartModule&#45;&gt;CatalogModule -->
<g id="edge1" class="edge">
<title>CartModule&#45;&gt;CatalogModule</title>
<path fill="none" stroke="#000000" d="M361,-122.1061C361,-141.3391 361,-169 361,-169 361,-169 312.779,-169 312.779,-169"/>
<polygon fill="#000000" stroke="#000000" points="312.779,-165.5001 302.779,-169 312.7789,-172.5001 312.779,-165.5001"/>
</g>
<!-- PricingModule -->
<g id="node2" class="node">
<title>PricingModule</title>
<polygon fill="#8dd3c7" stroke="#000000" points="300.9888,-122 297.9888,-126 276.9888,-126 273.9888,-122 201.0112,-122 201.0112,-86 300.9888,-86 300.9888,-122"/>
<text text-anchor="middle" x="251" y="-99.8" font-family="Times,serif" font-size="14.00" fill="#000000">PricingModule</text>
</g>
<!-- PricingModule&#45;&gt;CatalogModule -->
<g id="edge2" class="edge">
<title>PricingModule&#45;&gt;CatalogModule</title>
<path fill="none" stroke="#000000" d="M251,-122.1061C251,-122.1061 251,-140.991 251,-140.991"/>
<polygon fill="#000000" stroke="#000000" points="247.5001,-140.9909 251,-150.991 254.5001,-140.991 247.5001,-140.9909"/>
</g>
<!-- StoreModule -->
<g id="node3" class="node">
<title>StoreModule</title>
<polygon fill="#8dd3c7" stroke="#000000" points="182.5983,-122 179.5983,-126 158.5983,-126 155.5983,-122 93.4017,-122 93.4017,-86 182.5983,-86 182.5983,-122"/>
<text text-anchor="middle" x="138" y="-99.8" font-family="Times,serif" font-size="14.00" fill="#000000">StoreModule</text>
</g>
<!-- StoreModule&#45;&gt;CatalogModule -->
<g id="edge3" class="edge">
<title>StoreModule&#45;&gt;CatalogModule</title>
<path fill="none" stroke="#000000" d="M138,-122.1061C138,-141.3391 138,-169 138,-169 138,-169 189.1301,-169 189.1301,-169"/>
<polygon fill="#000000" stroke="#000000" points="189.1302,-172.5001 199.1301,-169 189.1301,-165.5001 189.1302,-172.5001"/>
</g>
</g>
</svg>
