<?xml version="1.0" encoding="UTF-8" standalone="no"?>
<!DOCTYPE svg PUBLIC "-//W3C//DTD SVG 1.1//EN"
 "http://www.w3.org/Graphics/SVG/1.1/DTD/svg11.dtd">
<!-- Generated by graphviz version 2.40.1 (20161225.0304)
 -->
<!-- Title: dependencies Pages: 1 -->
<svg width="504pt" height="211pt"
 viewBox="0.00 0.00 504.00 211.00" xmlns="http://www.w3.org/2000/svg" xmlns:xlink="http://www.w3.org/1999/xlink">
<g id="graph0" class="graph" transform="scale(1 1) rotate(0) translate(4 207)">
<title>dependencies</title>
<polygon fill="#ffffff" stroke="transparent" points="-4,4 -4,-207 500,-207 500,4 -4,4"/>
<text text-anchor="start" x="227.0091" y="-42.4" font-family="sans-serif" font-weight="bold" font-size="14.00" fill="#000000">Legend</text>
<polygon fill="#ffffb3" stroke="transparent" points="14,-10 14,-30 34,-30 34,-10 14,-10"/>
<text text-anchor="start" x="37.629" y="-15.4" font-family="sans-serif" font-size="14.00" fill="#000000"> &#160;Declarations</text>
<polygon fill="#8dd3c7" stroke="transparent" points="127,-10 127,-30 147,-30 147,-10 127,-10"/>
<text text-anchor="start" x="150.7251" y="-15.4" font-family="sans-serif" font-size="14.00" fill="#000000"> &#160;Module</text>
<polygon fill="#80b1d3" stroke="transparent" points="213,-10 213,-30 233,-30 233,-10 213,-10"/>
<text text-anchor="start" x="236.7812" y="-15.4" font-family="sans-serif" font-size="14.00" fill="#000000"> &#160;Bootstrap</text>
<polygon fill="#fdb462" stroke="transparent" points="310,-10 310,-30 330,-30 330,-10 310,-10"/>
<text text-anchor="start" x="333.6732" y="-15.4" font-family="sans-serif" font-size="14.00" fill="#000000"> &#160;Providers</text>
<polygon fill="#fb8072" stroke="transparent" points="406,-10 406,-30 426,-30 426,-10 406,-10"/>
<text text-anchor="start" x="429.7258" y="-15.4" font-family="sans-serif" font-size="14.00" fill="#000000"> &#160;Exports</text>
<g id="clust1" class="cluster">
<title>cluster_ProductListModule</title>
<polygon fill="none" stroke="#000000" stroke-dasharray="1,5" points="26.5,-70 26.5,-195 469.5,-195 469.5,-70 26.5,-70"/>
</g>
<g id="clust2" class="cluster">
<title>cluster_ProductListModule_declarations</title>
<polygon fill="none" stroke="#000000" points="158.5,-78 158.5,-130 461.5,-130 461.5,-78 158.5,-78"/>
</g>
<g id="clust5" class="cluster">
<title>cluster_ProductListModule_imports</title>
<polygon fill="none" stroke="#000000" points="34.5,-78 34.5,-130 150.5,-130 150.5,-78 34.5,-78"/>
</g>
<!-- ProductListComponent -->
<g id="node1" class="node">
<title>ProductListComponent</title>
<polygon fill="#ffffb3" stroke="#000000" points="453.6596,-122 307.3404,-122 307.3404,-86 453.6596,-86 453.6596,-122"/>
<text text-anchor="middle" x="380.5" y="-99.8" font-family="Times,serif" font-size="14.00" fill="#000000">ProductListComponent</text>
</g>
<!-- ProductListModule -->
<g id="node3" class="node">
<title>ProductListModule</title>
<polygon fill="#8dd3c7" stroke="#000000" points="289.8767,-187 286.8767,-191 265.8767,-191 262.8767,-187 165.1233,-187 165.1233,-151 289.8767,-151 289.8767,-187"/>
<text text-anchor="middle" x="227.5" y="-164.8" font-family="Times,serif" font-size="14.00" fill="#000000">ProductListModule</text>
</g>
<!-- ProductListComponent&#45;&gt;ProductListModule -->
<g id="edge1" class="edge">
<title>ProductListComponent&#45;&gt;ProductListModule</title>
<path fill="none" stroke="#000000" d="M380.5,-122.1061C380.5,-141.3391 380.5,-169 380.5,-169 380.5,-169 300.1724,-169 300.1724,-169"/>
<polygon fill="#000000" stroke="#000000" points="300.1724,-165.5001 290.1724,-169 300.1724,-172.5001 300.1724,-165.5001"/>
</g>
<!-- ResultsComponent -->
<g id="node2" class="node">
<title>ResultsComponent</title>
<polygon fill="#ffffb3" stroke="#000000" points="288.5548,-122 166.4452,-122 166.4452,-86 288.5548,-86 288.5548,-122"/>
<text text-anchor="middle" x="227.5" y="-99.8" font-family="Times,serif" font-size="14.00" fill="#000000">ResultsComponent</text>
</g>
<!-- ResultsComponent&#45;&gt;ProductListModule -->
<g id="edge2" class="edge">
<title>ResultsComponent&#45;&gt;ProductListModule</title>
<path fill="none" stroke="#000000" d="M227.5,-122.1061C227.5,-122.1061 227.5,-140.991 227.5,-140.991"/>
<polygon fill="#000000" stroke="#000000" points="224.0001,-140.9909 227.5,-150.991 231.0001,-140.991 224.0001,-140.9909"/>
</g>
<!-- PricingModule -->
<g id="node4" class="node">
<title>PricingModule</title>
<polygon fill="#8dd3c7" stroke="#000000" points="142.4888,-122 139.4888,-126 118.4888,-126 115.4888,-122 42.5112,-122 42.5112,-86 142.4888,-86 142.4888,-122"/>
<text text-anchor="middle" x="92.5" y="-99.8" font-family="Times,serif" font-size="14.00" fill="#000000">PricingModule</text>
</g>
<!-- PricingModule&#45;&gt;ProductListModule -->
<g id="edge3" class="edge">
<title>PricingModule&#45;&gt;ProductListModule</title>
<path fill="none" stroke="#000000" d="M92.5,-122.1061C92.5,-141.3391 92.5,-169 92.5,-169 92.5,-169 154.7426,-169 154.7426,-169"/>
<polygon fill="#000000" stroke="#000000" points="154.7427,-172.5001 164.7426,-169 154.7426,-165.5001 154.7427,-172.5001"/>
</g>
</g>
</svg>
