<?xml version="1.0" encoding="UTF-8" standalone="no"?>
<!DOCTYPE svg PUBLIC "-//W3C//DTD SVG 1.1//EN"
 "http://www.w3.org/Graphics/SVG/1.1/DTD/svg11.dtd">
<!-- Generated by graphviz version 2.40.1 (20161225.0304)
 -->
<!-- Title: dependencies Pages: 1 -->
<svg width="1725pt" height="211pt"
 viewBox="0.00 0.00 1725.00 211.00" xmlns="http://www.w3.org/2000/svg" xmlns:xlink="http://www.w3.org/1999/xlink">
<g id="graph0" class="graph" transform="scale(1 1) rotate(0) translate(4 207)">
<title>dependencies</title>
<polygon fill="#ffffff" stroke="transparent" points="-4,4 -4,-207 1721,-207 1721,4 -4,4"/>
<text text-anchor="start" x="837.5091" y="-42.4" font-family="sans-serif" font-weight="bold" font-size="14.00" fill="#000000">Legend</text>
<polygon fill="#ffffb3" stroke="transparent" points="624.5,-10 624.5,-30 644.5,-30 644.5,-10 624.5,-10"/>
<text text-anchor="start" x="648.129" y="-15.4" font-family="sans-serif" font-size="14.00" fill="#000000"> &#160;Declarations</text>
<polygon fill="#8dd3c7" stroke="transparent" points="737.5,-10 737.5,-30 757.5,-30 757.5,-10 737.5,-10"/>
<text text-anchor="start" x="761.2251" y="-15.4" font-family="sans-serif" font-size="14.00" fill="#000000"> &#160;Module</text>
<polygon fill="#80b1d3" stroke="transparent" points="823.5,-10 823.5,-30 843.5,-30 843.5,-10 823.5,-10"/>
<text text-anchor="start" x="847.2812" y="-15.4" font-family="sans-serif" font-size="14.00" fill="#000000"> &#160;Bootstrap</text>
<polygon fill="#fdb462" stroke="transparent" points="920.5,-10 920.5,-30 940.5,-30 940.5,-10 920.5,-10"/>
<text text-anchor="start" x="944.1732" y="-15.4" font-family="sans-serif" font-size="14.00" fill="#000000"> &#160;Providers</text>
<polygon fill="#fb8072" stroke="transparent" points="1016.5,-10 1016.5,-30 1036.5,-30 1036.5,-10 1016.5,-10"/>
<text text-anchor="start" x="1040.2258" y="-15.4" font-family="sans-serif" font-size="14.00" fill="#000000"> &#160;Exports</text>
<g id="clust1" class="cluster">
<title>cluster_ProductListModule</title>
<polygon fill="none" stroke="#000000" stroke-dasharray="1,5" points="8,-70 8,-195 1709,-195 1709,-70 8,-70"/>
</g>
<g id="clust2" class="cluster">
<title>cluster_ProductListModule_declarations</title>
<polygon fill="none" stroke="#000000" points="725,-78 725,-130 1701,-130 1701,-78 725,-78"/>
</g>
<g id="clust9" class="cluster">
<title>cluster_ProductListModule_imports</title>
<polygon fill="none" stroke="#000000" points="16,-78 16,-130 717,-130 717,-78 16,-78"/>
</g>
<!-- FieldFilterComponent -->
<g id="node1" class="node">
<title>FieldFilterComponent</title>
<polygon fill="#ffffb3" stroke="#000000" points="1693.4411,-122 1552.5589,-122 1552.5589,-86 1693.4411,-86 1693.4411,-122"/>
<text text-anchor="middle" x="1623" y="-99.8" font-family="Times,serif" font-size="14.00" fill="#000000">FieldFilterComponent</text>
</g>
<!-- ProductListModule -->
<g id="node7" class="node">
<title>ProductListModule</title>
<polygon fill="#8dd3c7" stroke="#000000" points="871.3767,-187 868.3767,-191 847.3767,-191 844.3767,-187 746.6233,-187 746.6233,-151 871.3767,-151 871.3767,-187"/>
<text text-anchor="middle" x="809" y="-164.8" font-family="Times,serif" font-size="14.00" fill="#000000">ProductListModule</text>
</g>
<!-- FieldFilterComponent&#45;&gt;ProductListModule -->
<g id="edge1" class="edge">
<title>FieldFilterComponent&#45;&gt;ProductListModule</title>
<path fill="none" stroke="#000000" d="M1623,-122.0908C1623,-145.1328 1623,-182 1623,-182 1623,-182 881.5216,-182 881.5216,-182"/>
<polygon fill="#000000" stroke="#000000" points="881.5216,-178.5001 871.5216,-182 881.5216,-185.5001 881.5216,-178.5001"/>
</g>
<!-- PriceTierComponent -->
<g id="node2" class="node">
<title>PriceTierComponent</title>
<polygon fill="#ffffb3" stroke="#000000" points="1534.9144,-122 1401.0856,-122 1401.0856,-86 1534.9144,-86 1534.9144,-122"/>
<text text-anchor="middle" x="1468" y="-99.8" font-family="Times,serif" font-size="14.00" fill="#000000">PriceTierComponent</text>
</g>
<!-- PriceTierComponent&#45;&gt;ProductListModule -->
<g id="edge2" class="edge">
<title>PriceTierComponent&#45;&gt;ProductListModule</title>
<path fill="none" stroke="#000000" d="M1468,-122.2843C1468,-143.3211 1468,-175 1468,-175 1468,-175 881.5912,-175 881.5912,-175"/>
<polygon fill="#000000" stroke="#000000" points="881.5913,-171.5001 871.5912,-175 881.5912,-178.5001 881.5913,-171.5001"/>
</g>
<!-- ProductListComponent -->
<g id="node3" class="node">
<title>ProductListComponent</title>
<polygon fill="#ffffb3" stroke="#000000" points="1383.1596,-122 1236.8404,-122 1236.8404,-86 1383.1596,-86 1383.1596,-122"/>
<text text-anchor="middle" x="1310" y="-99.8" font-family="Times,serif" font-size="14.00" fill="#000000">ProductListComponent</text>
</g>
<!-- ProductListComponent&#45;&gt;ProductListModule -->
<g id="edge3" class="edge">
<title>ProductListComponent&#45;&gt;ProductListModule</title>
<path fill="none" stroke="#000000" d="M1310,-122.1061C1310,-141.3391 1310,-169 1310,-169 1310,-169 881.439,-169 881.439,-169"/>
<polygon fill="#000000" stroke="#000000" points="881.439,-165.5001 871.439,-169 881.439,-172.5001 881.439,-165.5001"/>
</g>
<!-- RelatedCategoryComponent -->
<g id="node4" class="node">
<title>RelatedCategoryComponent</title>
<polygon fill="#ffffb3" stroke="#000000" points="1218.9115,-122 1043.0885,-122 1043.0885,-86 1218.9115,-86 1218.9115,-122"/>
<text text-anchor="middle" x="1131" y="-99.8" font-family="Times,serif" font-size="14.00" fill="#000000">RelatedCategoryComponent</text>
</g>
<!-- RelatedCategoryComponent&#45;&gt;ProductListModule -->
<g id="edge4" class="edge">
<title>RelatedCategoryComponent&#45;&gt;ProductListModule</title>
<path fill="none" stroke="#000000" d="M1131,-122.0225C1131,-139.3734 1131,-163 1131,-163 1131,-163 881.4666,-163 881.4666,-163"/>
<polygon fill="#000000" stroke="#000000" points="881.4667,-159.5001 871.4666,-163 881.4666,-166.5001 881.4667,-159.5001"/>
</g>
<!-- ResultsComponent -->
<g id="node5" class="node">
<title>ResultsComponent</title>
<polygon fill="#ffffb3" stroke="#000000" points="1025.0548,-122 902.9452,-122 902.9452,-86 1025.0548,-86 1025.0548,-122"/>
<text text-anchor="middle" x="964" y="-99.8" font-family="Times,serif" font-size="14.00" fill="#000000">ResultsComponent</text>
</g>
<!-- ResultsComponent&#45;&gt;ProductListModule -->
<g id="edge5" class="edge">
<title>ResultsComponent&#45;&gt;ProductListModule</title>
<path fill="none" stroke="#000000" d="M964,-122.2396C964,-137.5706 964,-157 964,-157 964,-157 881.5977,-157 881.5977,-157"/>
<polygon fill="#000000" stroke="#000000" points="881.5977,-153.5001 871.5977,-157 881.5976,-160.5001 881.5977,-153.5001"/>
</g>
<!-- SubcategoryComponent -->
<g id="node6" class="node">
<title>SubcategoryComponent</title>
<polygon fill="#ffffb3" stroke="#000000" points="884.8103,-122 733.1897,-122 733.1897,-86 884.8103,-86 884.8103,-122"/>
<text text-anchor="middle" x="809" y="-99.8" font-family="Times,serif" font-size="14.00" fill="#000000">SubcategoryComponent</text>
</g>
<!-- SubcategoryComponent&#45;&gt;ProductListModule -->
<g id="edge6" class="edge">
<title>SubcategoryComponent&#45;&gt;ProductListModule</title>
<path fill="none" stroke="#000000" d="M809,-122.1061C809,-122.1061 809,-140.991 809,-140.991"/>
<polygon fill="#000000" stroke="#000000" points="805.5001,-140.9909 809,-150.991 812.5001,-140.991 805.5001,-140.9909"/>
</g>
<!-- CatalogModule -->
<g id="node8" class="node">
<title>CatalogModule</title>
<polygon fill="#8dd3c7" stroke="#000000" points="708.5968,-122 705.5968,-126 684.5968,-126 681.5968,-122 605.4032,-122 605.4032,-86 708.5968,-86 708.5968,-122"/>
<text text-anchor="middle" x="657" y="-99.8" font-family="Times,serif" font-size="14.00" fill="#000000">CatalogModule</text>
</g>
<!-- CatalogModule&#45;&gt;ProductListModule -->
<g id="edge7" class="edge">
<title>CatalogModule&#45;&gt;ProductListModule</title>
<path fill="none" stroke="#000000" d="M657,-122.2396C657,-137.5706 657,-157 657,-157 657,-157 736.2982,-157 736.2982,-157"/>
<polygon fill="#000000" stroke="#000000" points="736.2983,-160.5001 746.2982,-157 736.2982,-153.5001 736.2983,-160.5001"/>
</g>
<!-- ConstraintRulesModule -->
<g id="node9" class="node">
<title>ConstraintRulesModule</title>
<polygon fill="#8dd3c7" stroke="#000000" points="587.7646,-122 584.7646,-126 563.7646,-126 560.7646,-122 438.2354,-122 438.2354,-86 587.7646,-86 587.7646,-122"/>
<text text-anchor="middle" x="513" y="-99.8" font-family="Times,serif" font-size="14.00" fill="#000000">ConstraintRulesModule</text>
</g>
<!-- ConstraintRulesModule&#45;&gt;ProductListModule -->
<g id="edge8" class="edge">
<title>ConstraintRulesModule&#45;&gt;ProductListModule</title>
<path fill="none" stroke="#000000" d="M513,-122.0225C513,-139.3734 513,-163 513,-163 513,-163 736.5877,-163 736.5877,-163"/>
<polygon fill="#000000" stroke="#000000" points="736.5877,-166.5001 746.5877,-163 736.5877,-159.5001 736.5877,-166.5001"/>
</g>
<!-- PricingModule -->
<g id="node10" class="node">
<title>PricingModule</title>
<polygon fill="#8dd3c7" stroke="#000000" points="419.9888,-122 416.9888,-126 395.9888,-126 392.9888,-122 320.0112,-122 320.0112,-86 419.9888,-86 419.9888,-122"/>
<text text-anchor="middle" x="370" y="-99.8" font-family="Times,serif" font-size="14.00" fill="#000000">PricingModule</text>
</g>
<!-- PricingModule&#45;&gt;ProductListModule -->
<g id="edge9" class="edge">
<title>PricingModule&#45;&gt;ProductListModule</title>
<path fill="none" stroke="#000000" d="M370,-122.1061C370,-141.3391 370,-169 370,-169 370,-169 736.5682,-169 736.5682,-169"/>
<polygon fill="#000000" stroke="#000000" points="736.5683,-172.5001 746.5682,-169 736.5682,-165.5001 736.5683,-172.5001"/>
</g>
<!-- ProductListRoutingModule -->
<g id="node11" class="node">
<title>ProductListRoutingModule</title>
<polygon fill="#8dd3c7" stroke="#000000" points="301.9944,-122 298.9944,-126 277.9944,-126 274.9944,-122 132.0056,-122 132.0056,-86 301.9944,-86 301.9944,-122"/>
<text text-anchor="middle" x="217" y="-99.8" font-family="Times,serif" font-size="14.00" fill="#000000">ProductListRoutingModule</text>
</g>
<!-- ProductListRoutingModule&#45;&gt;ProductListModule -->
<g id="edge10" class="edge">
<title>ProductListRoutingModule&#45;&gt;ProductListModule</title>
<path fill="none" stroke="#000000" d="M217,-122.2843C217,-143.3211 217,-175 217,-175 217,-175 736.4856,-175 736.4856,-175"/>
<polygon fill="#000000" stroke="#000000" points="736.4856,-178.5001 746.4856,-175 736.4855,-171.5001 736.4856,-178.5001"/>
</g>
<!-- StoreModule -->
<g id="node12" class="node">
<title>StoreModule</title>
<polygon fill="#8dd3c7" stroke="#000000" points="113.5983,-122 110.5983,-126 89.5983,-126 86.5983,-122 24.4017,-122 24.4017,-86 113.5983,-86 113.5983,-122"/>
<text text-anchor="middle" x="69" y="-99.8" font-family="Times,serif" font-size="14.00" fill="#000000">StoreModule</text>
</g>
<!-- StoreModule&#45;&gt;ProductListModule -->
<g id="edge11" class="edge">
<title>StoreModule&#45;&gt;ProductListModule</title>
<path fill="none" stroke="#000000" d="M69,-122.0908C69,-145.1328 69,-182 69,-182 69,-182 736.5458,-182 736.5458,-182"/>
<polygon fill="#000000" stroke="#000000" points="736.5458,-185.5001 746.5458,-182 736.5457,-178.5001 736.5458,-185.5001"/>
</g>
</g>
</svg>
