<?xml version="1.0" encoding="UTF-8" standalone="no"?>
<!DOCTYPE svg PUBLIC "-//W3C//DTD SVG 1.1//EN"
 "http://www.w3.org/Graphics/SVG/1.1/DTD/svg11.dtd">
<!-- Generated by graphviz version 2.40.1 (20161225.0304)
 -->
<!-- Title: dependencies Pages: 1 -->
<svg width="2089pt" height="211pt"
 viewBox="0.00 0.00 2089.00 211.00" xmlns="http://www.w3.org/2000/svg" xmlns:xlink="http://www.w3.org/1999/xlink">
<g id="graph0" class="graph" transform="scale(1 1) rotate(0) translate(4 207)">
<title>dependencies</title>
<polygon fill="#ffffff" stroke="transparent" points="-4,4 -4,-207 2085,-207 2085,4 -4,4"/>
<text text-anchor="start" x="1019.5091" y="-42.4" font-family="sans-serif" font-weight="bold" font-size="14.00" fill="#000000">Legend</text>
<polygon fill="#ffffb3" stroke="transparent" points="806.5,-10 806.5,-30 826.5,-30 826.5,-10 806.5,-10"/>
<text text-anchor="start" x="830.129" y="-15.4" font-family="sans-serif" font-size="14.00" fill="#000000"> &#160;Declarations</text>
<polygon fill="#8dd3c7" stroke="transparent" points="919.5,-10 919.5,-30 939.5,-30 939.5,-10 919.5,-10"/>
<text text-anchor="start" x="943.2251" y="-15.4" font-family="sans-serif" font-size="14.00" fill="#000000"> &#160;Module</text>
<polygon fill="#80b1d3" stroke="transparent" points="1005.5,-10 1005.5,-30 1025.5,-30 1025.5,-10 1005.5,-10"/>
<text text-anchor="start" x="1029.2812" y="-15.4" font-family="sans-serif" font-size="14.00" fill="#000000"> &#160;Bootstrap</text>
<polygon fill="#fdb462" stroke="transparent" points="1102.5,-10 1102.5,-30 1122.5,-30 1122.5,-10 1102.5,-10"/>
<text text-anchor="start" x="1126.1732" y="-15.4" font-family="sans-serif" font-size="14.00" fill="#000000"> &#160;Providers</text>
<polygon fill="#fb8072" stroke="transparent" points="1198.5,-10 1198.5,-30 1218.5,-30 1218.5,-10 1198.5,-10"/>
<text text-anchor="start" x="1222.2258" y="-15.4" font-family="sans-serif" font-size="14.00" fill="#000000"> &#160;Exports</text>
<g id="clust1" class="cluster">
<title>cluster_ProductListModule</title>
<polygon fill="none" stroke="#000000" stroke-dasharray="1,5" points="8,-70 8,-195 2073,-195 2073,-70 8,-70"/>
</g>
<g id="clust2" class="cluster">
<title>cluster_ProductListModule_declarations</title>
<polygon fill="none" stroke="#000000" points="1762,-78 1762,-130 2065,-130 2065,-78 1762,-78"/>
</g>
<g id="clust5" class="cluster">
<title>cluster_ProductListModule_imports</title>
<polygon fill="none" stroke="#000000" points="16,-78 16,-130 1754,-130 1754,-78 16,-78"/>
</g>
<!-- ProductListComponent -->
<g id="node1" class="node">
<title>ProductListComponent</title>
<polygon fill="#ffffb3" stroke="#000000" points="2057.1596,-122 1910.8404,-122 1910.8404,-86 2057.1596,-86 2057.1596,-122"/>
<text text-anchor="middle" x="1984" y="-99.8" font-family="Times,serif" font-size="14.00" fill="#000000">ProductListComponent</text>
</g>
<!-- ProductListModule -->
<g id="node3" class="node">
<title>ProductListModule</title>
<polygon fill="#8dd3c7" stroke="#000000" points="1111.3767,-187 1108.3767,-191 1087.3767,-191 1084.3767,-187 986.6233,-187 986.6233,-151 1111.3767,-151 1111.3767,-187"/>
<text text-anchor="middle" x="1049" y="-164.8" font-family="Times,serif" font-size="14.00" fill="#000000">ProductListModule</text>
</g>
<!-- ProductListComponent&#45;&gt;ProductListModule -->
<g id="edge1" class="edge">
<title>ProductListComponent&#45;&gt;ProductListModule</title>
<path fill="none" stroke="#000000" d="M1984,-122.0908C1984,-145.1328 1984,-182 1984,-182 1984,-182 1121.4355,-182 1121.4355,-182"/>
<polygon fill="#000000" stroke="#000000" points="1121.4355,-178.5001 1111.4355,-182 1121.4355,-185.5001 1121.4355,-178.5001"/>
</g>
<!-- ResultsComponent -->
<g id="node2" class="node">
<title>ResultsComponent</title>
<polygon fill="#ffffb3" stroke="#000000" points="1892.0548,-122 1769.9452,-122 1769.9452,-86 1892.0548,-86 1892.0548,-122"/>
<text text-anchor="middle" x="1831" y="-99.8" font-family="Times,serif" font-size="14.00" fill="#000000">ResultsComponent</text>
</g>
<!-- ResultsComponent&#45;&gt;ProductListModule -->
<g id="edge2" class="edge">
<title>ResultsComponent&#45;&gt;ProductListModule</title>
<path fill="none" stroke="#000000" d="M1831,-122.0449C1831,-143.6623 1831,-177 1831,-177 1831,-177 1121.6724,-177 1121.6724,-177"/>
<polygon fill="#000000" stroke="#000000" points="1121.6725,-173.5001 1111.6724,-177 1121.6724,-180.5001 1121.6725,-173.5001"/>
</g>
<!-- AboModule -->
<g id="node4" class="node">
<title>AboModule</title>
<polygon fill="#8dd3c7" stroke="#000000" points="1745.6571,-122 1742.6571,-126 1721.6571,-126 1718.6571,-122 1662.3429,-122 1662.3429,-86 1745.6571,-86 1745.6571,-122"/>
<text text-anchor="middle" x="1704" y="-99.8" font-family="Times,serif" font-size="14.00" fill="#000000">AboModule</text>
</g>
<!-- AboModule&#45;&gt;ProductListModule -->
<g id="edge3" class="edge">
<title>AboModule&#45;&gt;ProductListModule</title>
<path fill="none" stroke="#000000" d="M1704,-122.2228C1704,-142.3652 1704,-172 1704,-172 1704,-172 1121.5074,-172 1121.5074,-172"/>
<polygon fill="#000000" stroke="#000000" points="1121.5075,-168.5001 1111.5074,-172 1121.5074,-175.5001 1121.5075,-168.5001"/>
</g>
<!-- BreadcrumbModule -->
<g id="node5" class="node">
<title>BreadcrumbModule</title>
<polygon fill="#8dd3c7" stroke="#000000" points="1644.2423,-122 1641.2423,-126 1620.2423,-126 1617.2423,-122 1515.7577,-122 1515.7577,-86 1644.2423,-86 1644.2423,-122"/>
<text text-anchor="middle" x="1580" y="-99.8" font-family="Times,serif" font-size="14.00" fill="#000000">BreadcrumbModule</text>
</g>
<!-- BreadcrumbModule&#45;&gt;ProductListModule -->
<g id="edge4" class="edge">
<title>BreadcrumbModule&#45;&gt;ProductListModule</title>
<path fill="none" stroke="#000000" d="M1580,-122.2222C1580,-140.8285 1580,-167 1580,-167 1580,-167 1121.4739,-167 1121.4739,-167"/>
<polygon fill="#000000" stroke="#000000" points="1121.4739,-163.5001 1111.4739,-167 1121.4739,-170.5001 1121.4739,-163.5001"/>
</g>
<!-- ButtonModule -->
<g id="node6" class="node">
<title>ButtonModule</title>
<polygon fill="#8dd3c7" stroke="#000000" points="1497.6682,-122 1494.6682,-126 1473.6682,-126 1470.6682,-122 1400.3318,-122 1400.3318,-86 1497.6682,-86 1497.6682,-122"/>
<text text-anchor="middle" x="1449" y="-99.8" font-family="Times,serif" font-size="14.00" fill="#000000">ButtonModule</text>
</g>
<!-- ButtonModule&#45;&gt;ProductListModule -->
<g id="edge5" class="edge">
<title>ButtonModule&#45;&gt;ProductListModule</title>
<path fill="none" stroke="#000000" d="M1449,-122.0336C1449,-139.0597 1449,-162 1449,-162 1449,-162 1121.5,-162 1121.5,-162"/>
<polygon fill="#000000" stroke="#000000" points="1121.5,-158.5001 1111.5,-162 1121.5,-165.5001 1121.5,-158.5001"/>
</g>
<!-- CatalogModule -->
<g id="node7" class="node">
<title>CatalogModule</title>
<polygon fill="#8dd3c7" stroke="#000000" points="1382.5968,-122 1379.5968,-126 1358.5968,-126 1355.5968,-122 1279.4032,-122 1279.4032,-86 1382.5968,-86 1382.5968,-122"/>
<text text-anchor="middle" x="1331" y="-99.8" font-family="Times,serif" font-size="14.00" fill="#000000">CatalogModule</text>
</g>
<!-- CatalogModule&#45;&gt;ProductListModule -->
<g id="edge6" class="edge">
<title>CatalogModule&#45;&gt;ProductListModule</title>
<path fill="none" stroke="#000000" d="M1331,-122.2396C1331,-137.5706 1331,-157 1331,-157 1331,-157 1121.5849,-157 1121.5849,-157"/>
<polygon fill="#000000" stroke="#000000" points="1121.585,-153.5001 1111.5849,-157 1121.5849,-160.5001 1121.585,-153.5001"/>
</g>
<!-- ConstraintRulesModule -->
<g id="node8" class="node">
<title>ConstraintRulesModule</title>
<polygon fill="#8dd3c7" stroke="#000000" points="1261.7646,-122 1258.7646,-126 1237.7646,-126 1234.7646,-122 1112.2354,-122 1112.2354,-86 1261.7646,-86 1261.7646,-122"/>
<text text-anchor="middle" x="1187" y="-99.8" font-family="Times,serif" font-size="14.00" fill="#000000">ConstraintRulesModule</text>
</g>
<!-- ConstraintRulesModule&#45;&gt;ProductListModule -->
<g id="edge7" class="edge">
<title>ConstraintRulesModule&#45;&gt;ProductListModule</title>
<path fill="none" stroke="#000000" d="M1112.0339,-104C1106.3027,-104 1102.689,-104 1102.689,-104 1102.689,-104 1102.689,-140.8939 1102.689,-140.8939"/>
<polygon fill="#000000" stroke="#000000" points="1099.1891,-140.8938 1102.689,-150.8939 1106.1891,-140.8939 1099.1891,-140.8938"/>
</g>
<!-- FilterModule -->
<g id="node9" class="node">
<title>FilterModule</title>
<polygon fill="#8dd3c7" stroke="#000000" points="1093.8795,-122 1090.8795,-126 1069.8795,-126 1066.8795,-122 1004.1205,-122 1004.1205,-86 1093.8795,-86 1093.8795,-122"/>
<text text-anchor="middle" x="1049" y="-99.8" font-family="Times,serif" font-size="14.00" fill="#000000">FilterModule</text>
</g>
<!-- FilterModule&#45;&gt;ProductListModule -->
<g id="edge8" class="edge">
<title>FilterModule&#45;&gt;ProductListModule</title>
<path fill="none" stroke="#000000" d="M1049,-122.1061C1049,-122.1061 1049,-140.991 1049,-140.991"/>
<polygon fill="#000000" stroke="#000000" points="1045.5001,-140.9909 1049,-150.991 1052.5001,-140.991 1045.5001,-140.9909"/>
</g>
<!-- InputFieldModule -->
<g id="node10" class="node">
<title>InputFieldModule</title>
<polygon fill="#8dd3c7" stroke="#000000" points="985.8795,-122 982.8795,-126 961.8795,-126 958.8795,-122 868.1205,-122 868.1205,-86 985.8795,-86 985.8795,-122"/>
<text text-anchor="middle" x="927" y="-99.8" font-family="Times,serif" font-size="14.00" fill="#000000">InputFieldModule</text>
</g>
<!-- InputFieldModule&#45;&gt;ProductListModule -->
<g id="edge9" class="edge">
<title>InputFieldModule&#45;&gt;ProductListModule</title>
<path fill="none" stroke="#000000" d="M986.0983,-104C991.6826,-104 995.311,-104 995.311,-104 995.311,-104 995.311,-140.8939 995.311,-140.8939"/>
<polygon fill="#000000" stroke="#000000" points="991.8111,-140.8938 995.311,-150.8939 998.8111,-140.8939 991.8111,-140.8938"/>
</g>
<!-- InputSelectModule -->
<g id="node11" class="node">
<title>InputSelectModule</title>
<polygon fill="#8dd3c7" stroke="#000000" points="849.809,-122 846.809,-126 825.809,-126 822.809,-122 726.191,-122 726.191,-86 849.809,-86 849.809,-122"/>
<text text-anchor="middle" x="788" y="-99.8" font-family="Times,serif" font-size="14.00" fill="#000000">InputSelectModule</text>
</g>
<!-- InputSelectModule&#45;&gt;ProductListModule -->
<g id="edge10" class="edge">
<title>InputSelectModule&#45;&gt;ProductListModule</title>
<path fill="none" stroke="#000000" d="M788,-122.2396C788,-137.5706 788,-157 788,-157 788,-157 976.484,-157 976.484,-157"/>
<polygon fill="#000000" stroke="#000000" points="976.484,-160.5001 986.484,-157 976.484,-153.5001 976.484,-160.5001"/>
</g>
<!-- MdSpinnerModule -->
<g id="node12" class="node">
<title>MdSpinnerModule</title>
<polygon fill="#8dd3c7" stroke="#000000" points="708.0436,-122 705.0436,-126 684.0436,-126 681.0436,-122 585.9564,-122 585.9564,-86 708.0436,-86 708.0436,-122"/>
<text text-anchor="middle" x="647" y="-99.8" font-family="Times,serif" font-size="14.00" fill="#000000">MdSpinnerModule</text>
</g>
<!-- MdSpinnerModule&#45;&gt;ProductListModule -->
<g id="edge11" class="edge">
<title>MdSpinnerModule&#45;&gt;ProductListModule</title>
<path fill="none" stroke="#000000" d="M647,-122.0336C647,-139.0597 647,-162 647,-162 647,-162 976.1875,-162 976.1875,-162"/>
<polygon fill="#000000" stroke="#000000" points="976.1875,-165.5001 986.1875,-162 976.1875,-158.5001 976.1875,-165.5001"/>
</g>
<!-- PricingModule -->
<g id="node13" class="node">
<title>PricingModule</title>
<polygon fill="#8dd3c7" stroke="#000000" points="567.9888,-122 564.9888,-126 543.9888,-126 540.9888,-122 468.0112,-122 468.0112,-86 567.9888,-86 567.9888,-122"/>
<text text-anchor="middle" x="518" y="-99.8" font-family="Times,serif" font-size="14.00" fill="#000000">PricingModule</text>
</g>
<!-- PricingModule&#45;&gt;ProductListModule -->
<g id="edge12" class="edge">
<title>PricingModule&#45;&gt;ProductListModule</title>
<path fill="none" stroke="#000000" d="M518,-122.2222C518,-140.8285 518,-167 518,-167 518,-167 976.5261,-167 976.5261,-167"/>
<polygon fill="#000000" stroke="#000000" points="976.5261,-170.5001 986.5261,-167 976.5261,-163.5001 976.5261,-170.5001"/>
</g>
<!-- ProductCardModule -->
<g id="node14" class="node">
<title>ProductCardModule</title>
<polygon fill="#8dd3c7" stroke="#000000" points="450.3104,-122 447.3104,-126 426.3104,-126 423.3104,-122 319.6896,-122 319.6896,-86 450.3104,-86 450.3104,-122"/>
<text text-anchor="middle" x="385" y="-99.8" font-family="Times,serif" font-size="14.00" fill="#000000">ProductCardModule</text>
</g>
<!-- ProductCardModule&#45;&gt;ProductListModule -->
<g id="edge13" class="edge">
<title>ProductCardModule&#45;&gt;ProductListModule</title>
<path fill="none" stroke="#000000" d="M385,-122.2228C385,-142.3652 385,-172 385,-172 385,-172 976.5325,-172 976.5325,-172"/>
<polygon fill="#000000" stroke="#000000" points="976.5325,-175.5001 986.5325,-172 976.5325,-168.5001 976.5325,-175.5001"/>
</g>
<!-- ProductListRoutingModule -->
<g id="node15" class="node">
<title>ProductListRoutingModule</title>
<polygon fill="#8dd3c7" stroke="#000000" points="301.9944,-122 298.9944,-126 277.9944,-126 274.9944,-122 132.0056,-122 132.0056,-86 301.9944,-86 301.9944,-122"/>
<text text-anchor="middle" x="217" y="-99.8" font-family="Times,serif" font-size="14.00" fill="#000000">ProductListRoutingModule</text>
</g>
<!-- ProductListRoutingModule&#45;&gt;ProductListModule -->
<g id="edge14" class="edge">
<title>ProductListRoutingModule&#45;&gt;ProductListModule</title>
<path fill="none" stroke="#000000" d="M217,-122.0449C217,-143.6623 217,-177 217,-177 217,-177 976.4648,-177 976.4648,-177"/>
<polygon fill="#000000" stroke="#000000" points="976.4648,-180.5001 986.4648,-177 976.4647,-173.5001 976.4648,-180.5001"/>
</g>
<!-- StoreModule -->
<g id="node16" class="node">
<title>StoreModule</title>
<polygon fill="#8dd3c7" stroke="#000000" points="113.5983,-122 110.5983,-126 89.5983,-126 86.5983,-122 24.4017,-122 24.4017,-86 113.5983,-86 113.5983,-122"/>
<text text-anchor="middle" x="69" y="-99.8" font-family="Times,serif" font-size="14.00" fill="#000000">StoreModule</text>
</g>
<!-- StoreModule&#45;&gt;ProductListModule -->
<g id="edge15" class="edge">
<title>StoreModule&#45;&gt;ProductListModule</title>
<path fill="none" stroke="#000000" d="M69,-122.0908C69,-145.1328 69,-182 69,-182 69,-182 976.58,-182 976.58,-182"/>
<polygon fill="#000000" stroke="#000000" points="976.58,-185.5001 986.58,-182 976.5799,-178.5001 976.58,-185.5001"/>
</g>
</g>
</svg>
