<?xml version="1.0" encoding="UTF-8" standalone="no"?>
<!DOCTYPE svg PUBLIC "-//W3C//DTD SVG 1.1//EN"
 "http://www.w3.org/Graphics/SVG/1.1/DTD/svg11.dtd">
<!-- Generated by graphviz version 2.40.1 (20161225.0304)
 -->
<!-- Title: dependencies Pages: 1 -->
<svg width="530pt" height="284pt"
 viewBox="0.00 0.00 530.00 284.00" xmlns="http://www.w3.org/2000/svg" xmlns:xlink="http://www.w3.org/1999/xlink">
<g id="graph0" class="graph" transform="scale(1 1) rotate(0) translate(4 280)">
<title>dependencies</title>
<polygon fill="#ffffff" stroke="transparent" points="-4,4 -4,-280 526,-280 526,4 -4,4"/>
<text text-anchor="start" x="240.0091" y="-42.4" font-family="sans-serif" font-weight="bold" font-size="14.00" fill="#000000">Legend</text>
<polygon fill="#ffffb3" stroke="transparent" points="27,-10 27,-30 47,-30 47,-10 27,-10"/>
<text text-anchor="start" x="50.629" y="-15.4" font-family="sans-serif" font-size="14.00" fill="#000000"> &#160;Declarations</text>
<polygon fill="#8dd3c7" stroke="transparent" points="140,-10 140,-30 160,-30 160,-10 140,-10"/>
<text text-anchor="start" x="163.7251" y="-15.4" font-family="sans-serif" font-size="14.00" fill="#000000"> &#160;Module</text>
<polygon fill="#80b1d3" stroke="transparent" points="226,-10 226,-30 246,-30 246,-10 226,-10"/>
<text text-anchor="start" x="249.7812" y="-15.4" font-family="sans-serif" font-size="14.00" fill="#000000"> &#160;Bootstrap</text>
<polygon fill="#fdb462" stroke="transparent" points="323,-10 323,-30 343,-30 343,-10 323,-10"/>
<text text-anchor="start" x="346.6732" y="-15.4" font-family="sans-serif" font-size="14.00" fill="#000000"> &#160;Providers</text>
<polygon fill="#fb8072" stroke="transparent" points="419,-10 419,-30 439,-30 439,-10 419,-10"/>
<text text-anchor="start" x="442.7258" y="-15.4" font-family="sans-serif" font-size="14.00" fill="#000000"> &#160;Exports</text>
<g id="clust1" class="cluster">
<title>cluster_ApttusModalModule</title>
<polygon fill="none" stroke="#000000" stroke-dasharray="1,5" points="8,-70 8,-268 514,-268 514,-70 8,-70"/>
</g>
<g id="clust2" class="cluster">
<title>cluster_ApttusModalModule_declarations</title>
<polygon fill="none" stroke="#000000" points="140,-78 140,-130 506,-130 506,-78 140,-78"/>
</g>
<g id="clust5" class="cluster">
<title>cluster_ApttusModalModule_imports</title>
<polygon fill="none" stroke="#000000" points="16,-78 16,-130 132,-130 132,-78 16,-78"/>
</g>
<g id="clust6" class="cluster">
<title>cluster_ApttusModalModule_exports</title>
<polygon fill="none" stroke="#000000" points="75,-208 75,-260 448,-260 448,-208 75,-208"/>
</g>
<!-- RenewModalComponent -->
<g id="node1" class="node">
<title>RenewModalComponent</title>
<polygon fill="#ffffb3" stroke="#000000" points="498.2548,-122 341.7452,-122 341.7452,-86 498.2548,-86 498.2548,-122"/>
<text text-anchor="middle" x="420" y="-99.8" font-family="Times,serif" font-size="14.00" fill="#000000">RenewModalComponent</text>
</g>
<!-- ApttusModalModule -->
<g id="node3" class="node">
<title>ApttusModalModule</title>
<polygon fill="#8dd3c7" stroke="#000000" points="302.9327,-187 299.9327,-191 278.9327,-191 275.9327,-187 169.0673,-187 169.0673,-151 302.9327,-151 302.9327,-187"/>
<text text-anchor="middle" x="236" y="-164.8" font-family="Times,serif" font-size="14.00" fill="#000000">ApttusModalModule</text>
</g>
<!-- RenewModalComponent&#45;&gt;ApttusModalModule -->
<g id="edge1" class="edge">
<title>RenewModalComponent&#45;&gt;ApttusModalModule</title>
<path fill="none" stroke="#000000" d="M390.875,-122.1061C390.875,-141.3391 390.875,-169 390.875,-169 390.875,-169 313.0297,-169 313.0297,-169"/>
<polygon fill="#000000" stroke="#000000" points="313.0297,-165.5001 303.0297,-169 313.0296,-172.5001 313.0297,-165.5001"/>
</g>
<!-- TerminateModalComponent -->
<g id="node2" class="node">
<title>TerminateModalComponent</title>
<polygon fill="#ffffb3" stroke="#000000" points="323.9115,-122 148.0885,-122 148.0885,-86 323.9115,-86 323.9115,-122"/>
<text text-anchor="middle" x="236" y="-99.8" font-family="Times,serif" font-size="14.00" fill="#000000">TerminateModalComponent</text>
</g>
<!-- TerminateModalComponent&#45;&gt;ApttusModalModule -->
<g id="edge2" class="edge">
<title>TerminateModalComponent&#45;&gt;ApttusModalModule</title>
<path fill="none" stroke="#000000" d="M236,-122.1061C236,-122.1061 236,-140.991 236,-140.991"/>
<polygon fill="#000000" stroke="#000000" points="232.5001,-140.9909 236,-150.991 239.5001,-140.991 232.5001,-140.9909"/>
</g>
<!-- RenewModalComponent  -->
<g id="node5" class="node">
<title>RenewModalComponent </title>
<polygon fill="#fb8072" stroke="#000000" points="440.2548,-252 279.7452,-252 279.7452,-216 440.2548,-216 440.2548,-252"/>
<text text-anchor="middle" x="360" y="-229.8" font-family="Times,serif" font-size="14.00" fill="#000000">RenewModalComponent </text>
</g>
<!-- ApttusModalModule&#45;&gt;RenewModalComponent  -->
<g id="edge4" class="edge">
<title>ApttusModalModule&#45;&gt;RenewModalComponent </title>
<path fill="none" stroke="#000000" stroke-dasharray="5,2" d="M291.2944,-187.1061C291.2944,-187.1061 291.2944,-205.991 291.2944,-205.991"/>
<polygon fill="#000000" stroke="#000000" points="287.7944,-205.9909 291.2944,-215.991 294.7944,-205.991 287.7944,-205.9909"/>
</g>
<!-- TerminateModalComponent  -->
<g id="node6" class="node">
<title>TerminateModalComponent </title>
<polygon fill="#fb8072" stroke="#000000" points="261.411,-252 82.589,-252 82.589,-216 261.411,-216 261.411,-252"/>
<text text-anchor="middle" x="172" y="-229.8" font-family="Times,serif" font-size="14.00" fill="#000000">TerminateModalComponent </text>
</g>
<!-- ApttusModalModule&#45;&gt;TerminateModalComponent  -->
<g id="edge5" class="edge">
<title>ApttusModalModule&#45;&gt;TerminateModalComponent </title>
<path fill="none" stroke="#000000" stroke-dasharray="5,2" d="M215.3698,-187.1061C215.3698,-187.1061 215.3698,-205.991 215.3698,-205.991"/>
<polygon fill="#000000" stroke="#000000" points="211.8698,-205.9909 215.3698,-215.991 218.8698,-205.991 211.8698,-205.9909"/>
</g>
<!-- PricingModule -->
<g id="node4" class="node">
<title>PricingModule</title>
<polygon fill="#8dd3c7" stroke="#000000" points="123.9888,-122 120.9888,-126 99.9888,-126 96.9888,-122 24.0112,-122 24.0112,-86 123.9888,-86 123.9888,-122"/>
<text text-anchor="middle" x="74" y="-99.8" font-family="Times,serif" font-size="14.00" fill="#000000">PricingModule</text>
</g>
<!-- PricingModule&#45;&gt;ApttusModalModule -->
<g id="edge3" class="edge">
<title>PricingModule&#45;&gt;ApttusModalModule</title>
<path fill="none" stroke="#000000" d="M103.2695,-122.1061C103.2695,-141.3391 103.2695,-169 103.2695,-169 103.2695,-169 159.2459,-169 159.2459,-169"/>
<polygon fill="#000000" stroke="#000000" points="159.2459,-172.5001 169.2459,-169 159.2458,-165.5001 159.2459,-172.5001"/>
</g>
</g>
</svg>
