<?xml version="1.0" encoding="UTF-8" standalone="no"?>
<!DOCTYPE svg PUBLIC "-//W3C//DTD SVG 1.1//EN"
 "http://www.w3.org/Graphics/SVG/1.1/DTD/svg11.dtd">
<!-- Generated by graphviz version 2.40.1 (20161225.0304)
 -->
<!-- Title: dependencies Pages: 1 -->
<svg width="1005pt" height="211pt"
 viewBox="0.00 0.00 1005.00 211.00" xmlns="http://www.w3.org/2000/svg" xmlns:xlink="http://www.w3.org/1999/xlink">
<g id="graph0" class="graph" transform="scale(1 1) rotate(0) translate(4 207)">
<title>dependencies</title>
<polygon fill="#ffffff" stroke="transparent" points="-4,4 -4,-207 1001,-207 1001,4 -4,4"/>
<text text-anchor="start" x="477.5091" y="-42.4" font-family="sans-serif" font-weight="bold" font-size="14.00" fill="#000000">Legend</text>
<polygon fill="#ffffb3" stroke="transparent" points="264.5,-10 264.5,-30 284.5,-30 284.5,-10 264.5,-10"/>
<text text-anchor="start" x="288.129" y="-15.4" font-family="sans-serif" font-size="14.00" fill="#000000"> &#160;Declarations</text>
<polygon fill="#8dd3c7" stroke="transparent" points="377.5,-10 377.5,-30 397.5,-30 397.5,-10 377.5,-10"/>
<text text-anchor="start" x="401.2251" y="-15.4" font-family="sans-serif" font-size="14.00" fill="#000000"> &#160;Module</text>
<polygon fill="#80b1d3" stroke="transparent" points="463.5,-10 463.5,-30 483.5,-30 483.5,-10 463.5,-10"/>
<text text-anchor="start" x="487.2812" y="-15.4" font-family="sans-serif" font-size="14.00" fill="#000000"> &#160;Bootstrap</text>
<polygon fill="#fdb462" stroke="transparent" points="560.5,-10 560.5,-30 580.5,-30 580.5,-10 560.5,-10"/>
<text text-anchor="start" x="584.1732" y="-15.4" font-family="sans-serif" font-size="14.00" fill="#000000"> &#160;Providers</text>
<polygon fill="#fb8072" stroke="transparent" points="656.5,-10 656.5,-30 676.5,-30 676.5,-10 656.5,-10"/>
<text text-anchor="start" x="680.2258" y="-15.4" font-family="sans-serif" font-size="14.00" fill="#000000"> &#160;Exports</text>
<g id="clust1" class="cluster">
<title>cluster_ApttusModalModule</title>
<polygon fill="none" stroke="#000000" stroke-dasharray="1,5" points="8,-70 8,-195 989,-195 989,-70 8,-70"/>
</g>
<g id="clust2" class="cluster">
<title>cluster_ApttusModalModule_declarations</title>
<polygon fill="none" stroke="#000000" points="168,-78 168,-130 981,-130 981,-78 168,-78"/>
</g>
<g id="clust7" class="cluster">
<title>cluster_ApttusModalModule_imports</title>
<polygon fill="none" stroke="#000000" points="16,-78 16,-130 160,-130 160,-78 16,-78"/>
</g>
<!-- BuyMoreModalComponent -->
<g id="node1" class="node">
<title>BuyMoreModalComponent</title>
<polygon fill="#ffffb3" stroke="#000000" points="972.5392,-122 801.4608,-122 801.4608,-86 972.5392,-86 972.5392,-122"/>
<text text-anchor="middle" x="887" y="-99.8" font-family="Times,serif" font-size="14.00" fill="#000000">BuyMoreModalComponent</text>
</g>
<!-- ApttusModalModule -->
<g id="node5" class="node">
<title>ApttusModalModule</title>
<polygon fill="#8dd3c7" stroke="#000000" points="514.9327,-187 511.9327,-191 490.9327,-191 487.9327,-187 381.0673,-187 381.0673,-151 514.9327,-151 514.9327,-187"/>
<text text-anchor="middle" x="448" y="-164.8" font-family="Times,serif" font-size="14.00" fill="#000000">ApttusModalModule</text>
</g>
<!-- BuyMoreModalComponent&#45;&gt;ApttusModalModule -->
<g id="edge1" class="edge">
<title>BuyMoreModalComponent&#45;&gt;ApttusModalModule</title>
<path fill="none" stroke="#000000" d="M887,-122.2843C887,-143.3211 887,-175 887,-175 887,-175 525.1525,-175 525.1525,-175"/>
<polygon fill="#000000" stroke="#000000" points="525.1526,-171.5001 515.1525,-175 525.1525,-178.5001 525.1526,-171.5001"/>
</g>
<!-- ChangeConfigurationModalComponent -->
<g id="node2" class="node">
<title>ChangeConfigurationModalComponent</title>
<polygon fill="#ffffb3" stroke="#000000" points="783.6923,-122 544.3077,-122 544.3077,-86 783.6923,-86 783.6923,-122"/>
<text text-anchor="middle" x="664" y="-99.8" font-family="Times,serif" font-size="14.00" fill="#000000">ChangeConfigurationModalComponent</text>
</g>
<!-- ChangeConfigurationModalComponent&#45;&gt;ApttusModalModule -->
<g id="edge2" class="edge">
<title>ChangeConfigurationModalComponent&#45;&gt;ApttusModalModule</title>
<path fill="none" stroke="#000000" d="M664,-122.0225C664,-139.3734 664,-163 664,-163 664,-163 524.8645,-163 524.8645,-163"/>
<polygon fill="#000000" stroke="#000000" points="524.8645,-159.5001 514.8645,-163 524.8645,-166.5001 524.8645,-159.5001"/>
</g>
<!-- RenewModalComponent -->
<g id="node3" class="node">
<title>RenewModalComponent</title>
<polygon fill="#ffffb3" stroke="#000000" points="526.2548,-122 369.7452,-122 369.7452,-86 526.2548,-86 526.2548,-122"/>
<text text-anchor="middle" x="448" y="-99.8" font-family="Times,serif" font-size="14.00" fill="#000000">RenewModalComponent</text>
</g>
<!-- RenewModalComponent&#45;&gt;ApttusModalModule -->
<g id="edge3" class="edge">
<title>RenewModalComponent&#45;&gt;ApttusModalModule</title>
<path fill="none" stroke="#000000" d="M448,-122.1061C448,-122.1061 448,-140.991 448,-140.991"/>
<polygon fill="#000000" stroke="#000000" points="444.5001,-140.9909 448,-150.991 451.5001,-140.991 444.5001,-140.9909"/>
</g>
<!-- TerminateModalComponent -->
<g id="node4" class="node">
<title>TerminateModalComponent</title>
<polygon fill="#ffffb3" stroke="#000000" points="351.9115,-122 176.0885,-122 176.0885,-86 351.9115,-86 351.9115,-122"/>
<text text-anchor="middle" x="264" y="-99.8" font-family="Times,serif" font-size="14.00" fill="#000000">TerminateModalComponent</text>
</g>
<!-- TerminateModalComponent&#45;&gt;ApttusModalModule -->
<g id="edge4" class="edge">
<title>TerminateModalComponent&#45;&gt;ApttusModalModule</title>
<path fill="none" stroke="#000000" d="M264,-122.0225C264,-139.3734 264,-163 264,-163 264,-163 371.0513,-163 371.0513,-163"/>
<polygon fill="#000000" stroke="#000000" points="371.0513,-166.5001 381.0513,-163 371.0512,-159.5001 371.0513,-166.5001"/>
</g>
<!-- OutputFieldModule -->
<g id="node6" class="node">
<title>OutputFieldModule</title>
<polygon fill="#8dd3c7" stroke="#000000" points="151.7162,-122 148.7162,-126 127.7162,-126 124.7162,-122 24.2838,-122 24.2838,-86 151.7162,-86 151.7162,-122"/>
<text text-anchor="middle" x="88" y="-99.8" font-family="Times,serif" font-size="14.00" fill="#000000">OutputFieldModule</text>
</g>
<!-- OutputFieldModule&#45;&gt;ApttusModalModule -->
<g id="edge5" class="edge">
<title>OutputFieldModule&#45;&gt;ApttusModalModule</title>
<path fill="none" stroke="#000000" d="M88,-122.2843C88,-143.3211 88,-175 88,-175 88,-175 371.1305,-175 371.1305,-175"/>
<polygon fill="#000000" stroke="#000000" points="371.1305,-178.5001 381.1305,-175 371.1304,-171.5001 371.1305,-178.5001"/>
</g>
</g>
</svg>
