<?xml version="1.0" encoding="UTF-8" standalone="no"?>
<!DOCTYPE svg PUBLIC "-//W3C//DTD SVG 1.1//EN"
 "http://www.w3.org/Graphics/SVG/1.1/DTD/svg11.dtd">
<!-- Generated by graphviz version 2.40.1 (20161225.0304)
 -->
<!-- Title: dependencies Pages: 1 -->
<svg width="1039pt" height="211pt"
 viewBox="0.00 0.00 1039.00 211.00" xmlns="http://www.w3.org/2000/svg" xmlns:xlink="http://www.w3.org/1999/xlink">
<g id="graph0" class="graph" transform="scale(1 1) rotate(0) translate(4 207)">
<title>dependencies</title>
<polygon fill="#ffffff" stroke="transparent" points="-4,4 -4,-207 1035,-207 1035,4 -4,4"/>
<text text-anchor="start" x="494.5091" y="-42.4" font-family="sans-serif" font-weight="bold" font-size="14.00" fill="#000000">Legend</text>
<polygon fill="#ffffb3" stroke="transparent" points="281.5,-10 281.5,-30 301.5,-30 301.5,-10 281.5,-10"/>
<text text-anchor="start" x="305.129" y="-15.4" font-family="sans-serif" font-size="14.00" fill="#000000"> &#160;Declarations</text>
<polygon fill="#8dd3c7" stroke="transparent" points="394.5,-10 394.5,-30 414.5,-30 414.5,-10 394.5,-10"/>
<text text-anchor="start" x="418.2251" y="-15.4" font-family="sans-serif" font-size="14.00" fill="#000000"> &#160;Module</text>
<polygon fill="#80b1d3" stroke="transparent" points="480.5,-10 480.5,-30 500.5,-30 500.5,-10 480.5,-10"/>
<text text-anchor="start" x="504.2812" y="-15.4" font-family="sans-serif" font-size="14.00" fill="#000000"> &#160;Bootstrap</text>
<polygon fill="#fdb462" stroke="transparent" points="577.5,-10 577.5,-30 597.5,-30 597.5,-10 577.5,-10"/>
<text text-anchor="start" x="601.1732" y="-15.4" font-family="sans-serif" font-size="14.00" fill="#000000"> &#160;Providers</text>
<polygon fill="#fb8072" stroke="transparent" points="673.5,-10 673.5,-30 693.5,-30 693.5,-10 673.5,-10"/>
<text text-anchor="start" x="697.2258" y="-15.4" font-family="sans-serif" font-size="14.00" fill="#000000"> &#160;Exports</text>
<g id="clust1" class="cluster">
<title>cluster_HomeModule</title>
<polygon fill="none" stroke="#000000" stroke-dasharray="1,5" points="8,-70 8,-195 1023,-195 1023,-70 8,-70"/>
</g>
<g id="clust2" class="cluster">
<title>cluster_HomeModule_declarations</title>
<polygon fill="none" stroke="#000000" points="883,-78 883,-130 1015,-130 1015,-78 883,-78"/>
</g>
<g id="clust4" class="cluster">
<title>cluster_HomeModule_imports</title>
<polygon fill="none" stroke="#000000" points="16,-78 16,-130 875,-130 875,-78 16,-78"/>
</g>
<!-- HomeComponent -->
<g id="node1" class="node">
<title>HomeComponent</title>
<polygon fill="#ffffb3" stroke="#000000" points="1006.5451,-122 891.4549,-122 891.4549,-86 1006.5451,-86 1006.5451,-122"/>
<text text-anchor="middle" x="949" y="-99.8" font-family="Times,serif" font-size="14.00" fill="#000000">HomeComponent</text>
</g>
<!-- HomeModule -->
<g id="node2" class="node">
<title>HomeModule</title>
<polygon fill="#8dd3c7" stroke="#000000" points="555.7619,-187 552.7619,-191 531.7619,-191 528.7619,-187 462.2381,-187 462.2381,-151 555.7619,-151 555.7619,-187"/>
<text text-anchor="middle" x="509" y="-164.8" font-family="Times,serif" font-size="14.00" fill="#000000">HomeModule</text>
</g>
<!-- HomeComponent&#45;&gt;HomeModule -->
<g id="edge1" class="edge">
<title>HomeComponent&#45;&gt;HomeModule</title>
<path fill="none" stroke="#000000" d="M949,-122.2921C949,-144.2057 949,-178 949,-178 949,-178 566.0877,-178 566.0877,-178"/>
<polygon fill="#000000" stroke="#000000" points="566.0877,-174.5001 556.0877,-178 566.0877,-181.5001 566.0877,-174.5001"/>
</g>
<!-- CatalogModule -->
<g id="node3" class="node">
<title>CatalogModule</title>
<polygon fill="#8dd3c7" stroke="#000000" points="866.5968,-122 863.5968,-126 842.5968,-126 839.5968,-122 763.4032,-122 763.4032,-86 866.5968,-86 866.5968,-122"/>
<text text-anchor="middle" x="815" y="-99.8" font-family="Times,serif" font-size="14.00" fill="#000000">CatalogModule</text>
</g>
<!-- CatalogModule&#45;&gt;HomeModule -->
<g id="edge2" class="edge">
<title>CatalogModule&#45;&gt;HomeModule</title>
<path fill="none" stroke="#000000" d="M815,-122.1061C815,-141.3391 815,-169 815,-169 815,-169 565.8079,-169 565.8079,-169"/>
<polygon fill="#000000" stroke="#000000" points="565.8079,-165.5001 555.8079,-169 565.8079,-172.5001 565.8079,-165.5001"/>
</g>
<!-- ConstraintRulesModule -->
<g id="node4" class="node">
<title>ConstraintRulesModule</title>
<polygon fill="#8dd3c7" stroke="#000000" points="745.7646,-122 742.7646,-126 721.7646,-126 718.7646,-122 596.2354,-122 596.2354,-86 745.7646,-86 745.7646,-122"/>
<text text-anchor="middle" x="671" y="-99.8" font-family="Times,serif" font-size="14.00" fill="#000000">ConstraintRulesModule</text>
</g>
<!-- ConstraintRulesModule&#45;&gt;HomeModule -->
<g id="edge3" class="edge">
<title>ConstraintRulesModule&#45;&gt;HomeModule</title>
<path fill="none" stroke="#000000" d="M671,-122.027C671,-138.3976 671,-160 671,-160 671,-160 565.8571,-160 565.8571,-160"/>
<polygon fill="#000000" stroke="#000000" points="565.8571,-156.5001 555.8571,-160 565.8571,-163.5001 565.8571,-156.5001"/>
</g>
<!-- HomeRoutingModule -->
<g id="node5" class="node">
<title>HomeRoutingModule</title>
<polygon fill="#8dd3c7" stroke="#000000" points="578.3795,-122 575.3795,-126 554.3795,-126 551.3795,-122 439.6205,-122 439.6205,-86 578.3795,-86 578.3795,-122"/>
<text text-anchor="middle" x="509" y="-99.8" font-family="Times,serif" font-size="14.00" fill="#000000">HomeRoutingModule</text>
</g>
<!-- HomeRoutingModule&#45;&gt;HomeModule -->
<g id="edge4" class="edge">
<title>HomeRoutingModule&#45;&gt;HomeModule</title>
<path fill="none" stroke="#000000" d="M509,-122.1061C509,-122.1061 509,-140.991 509,-140.991"/>
<polygon fill="#000000" stroke="#000000" points="505.5001,-140.9909 509,-150.991 512.5001,-140.991 505.5001,-140.9909"/>
</g>
<!-- JumbotronModule -->
<g id="node6" class="node">
<title>JumbotronModule</title>
<polygon fill="#8dd3c7" stroke="#000000" points="421.937,-122 418.937,-126 397.937,-126 394.937,-122 302.063,-122 302.063,-86 421.937,-86 421.937,-122"/>
<text text-anchor="middle" x="362" y="-99.8" font-family="Times,serif" font-size="14.00" fill="#000000">JumbotronModule</text>
</g>
<!-- JumbotronModule&#45;&gt;HomeModule -->
<g id="edge5" class="edge">
<title>JumbotronModule&#45;&gt;HomeModule</title>
<path fill="none" stroke="#000000" d="M362,-122.027C362,-138.3976 362,-160 362,-160 362,-160 452.0841,-160 452.0841,-160"/>
<polygon fill="#000000" stroke="#000000" points="452.0842,-163.5001 462.0841,-160 452.0841,-156.5001 452.0842,-163.5001"/>
</g>
<!-- ProductCarouselModule -->
<g id="node7" class="node">
<title>ProductCarouselModule</title>
<polygon fill="#8dd3c7" stroke="#000000" points="284.3599,-122 281.3599,-126 260.3599,-126 257.3599,-122 131.6401,-122 131.6401,-86 284.3599,-86 284.3599,-122"/>
<text text-anchor="middle" x="208" y="-99.8" font-family="Times,serif" font-size="14.00" fill="#000000">ProductCarouselModule</text>
</g>
<!-- ProductCarouselModule&#45;&gt;HomeModule -->
<g id="edge6" class="edge">
<title>ProductCarouselModule&#45;&gt;HomeModule</title>
<path fill="none" stroke="#000000" d="M208,-122.1061C208,-141.3391 208,-169 208,-169 208,-169 451.9688,-169 451.9688,-169"/>
<polygon fill="#000000" stroke="#000000" points="451.9688,-172.5001 461.9688,-169 451.9687,-165.5001 451.9688,-172.5001"/>
</g>
<!-- StoreModule -->
<g id="node8" class="node">
<title>StoreModule</title>
<polygon fill="#8dd3c7" stroke="#000000" points="113.5983,-122 110.5983,-126 89.5983,-126 86.5983,-122 24.4017,-122 24.4017,-86 113.5983,-86 113.5983,-122"/>
<text text-anchor="middle" x="69" y="-99.8" font-family="Times,serif" font-size="14.00" fill="#000000">StoreModule</text>
</g>
<!-- StoreModule&#45;&gt;HomeModule -->
<g id="edge7" class="edge">
<title>StoreModule&#45;&gt;HomeModule</title>
<path fill="none" stroke="#000000" d="M69,-122.2921C69,-144.2057 69,-178 69,-178 69,-178 451.9123,-178 451.9123,-178"/>
<polygon fill="#000000" stroke="#000000" points="451.9123,-181.5001 461.9123,-178 451.9123,-174.5001 451.9123,-181.5001"/>
</g>
</g>
</svg>
