<?xml version="1.0" encoding="UTF-8" standalone="no"?>
<!DOCTYPE svg PUBLIC "-//W3C//DTD SVG 1.1//EN"
 "http://www.w3.org/Graphics/SVG/1.1/DTD/svg11.dtd">
<!-- Generated by graphviz version 2.40.1 (20161225.0304)
 -->
<!-- Title: dependencies Pages: 1 -->
<svg width="731pt" height="211pt"
 viewBox="0.00 0.00 731.00 211.00" xmlns="http://www.w3.org/2000/svg" xmlns:xlink="http://www.w3.org/1999/xlink">
<g id="graph0" class="graph" transform="scale(1 1) rotate(0) translate(4 207)">
<title>dependencies</title>
<polygon fill="#ffffff" stroke="transparent" points="-4,4 -4,-207 727,-207 727,4 -4,4"/>
<text text-anchor="start" x="340.5091" y="-42.4" font-family="sans-serif" font-weight="bold" font-size="14.00" fill="#000000">Legend</text>
<polygon fill="#ffffb3" stroke="transparent" points="127.5,-10 127.5,-30 147.5,-30 147.5,-10 127.5,-10"/>
<text text-anchor="start" x="151.129" y="-15.4" font-family="sans-serif" font-size="14.00" fill="#000000"> &#160;Declarations</text>
<polygon fill="#8dd3c7" stroke="transparent" points="240.5,-10 240.5,-30 260.5,-30 260.5,-10 240.5,-10"/>
<text text-anchor="start" x="264.2251" y="-15.4" font-family="sans-serif" font-size="14.00" fill="#000000"> &#160;Module</text>
<polygon fill="#80b1d3" stroke="transparent" points="326.5,-10 326.5,-30 346.5,-30 346.5,-10 326.5,-10"/>
<text text-anchor="start" x="350.2812" y="-15.4" font-family="sans-serif" font-size="14.00" fill="#000000"> &#160;Bootstrap</text>
<polygon fill="#fdb462" stroke="transparent" points="423.5,-10 423.5,-30 443.5,-30 443.5,-10 423.5,-10"/>
<text text-anchor="start" x="447.1732" y="-15.4" font-family="sans-serif" font-size="14.00" fill="#000000"> &#160;Providers</text>
<polygon fill="#fb8072" stroke="transparent" points="519.5,-10 519.5,-30 539.5,-30 539.5,-10 519.5,-10"/>
<text text-anchor="start" x="543.2258" y="-15.4" font-family="sans-serif" font-size="14.00" fill="#000000"> &#160;Exports</text>
<g id="clust1" class="cluster">
<title>cluster_HomeModule</title>
<polygon fill="none" stroke="#000000" stroke-dasharray="1,5" points="8,-70 8,-195 715,-195 715,-70 8,-70"/>
</g>
<g id="clust2" class="cluster">
<title>cluster_HomeModule_declarations</title>
<polygon fill="none" stroke="#000000" points="575,-78 575,-130 707,-130 707,-78 575,-78"/>
</g>
<g id="clust4" class="cluster">
<title>cluster_HomeModule_imports</title>
<polygon fill="none" stroke="#000000" points="16,-78 16,-130 567,-130 567,-78 16,-78"/>
</g>
<!-- HomeComponent -->
<g id="node1" class="node">
<title>HomeComponent</title>
<polygon fill="#ffffb3" stroke="#000000" points="698.5451,-122 583.4549,-122 583.4549,-86 698.5451,-86 698.5451,-122"/>
<text text-anchor="middle" x="641" y="-99.8" font-family="Times,serif" font-size="14.00" fill="#000000">HomeComponent</text>
</g>
<!-- HomeModule -->
<g id="node2" class="node">
<title>HomeModule</title>
<polygon fill="#8dd3c7" stroke="#000000" points="409.7619,-187 406.7619,-191 385.7619,-191 382.7619,-187 316.2381,-187 316.2381,-151 409.7619,-151 409.7619,-187"/>
<text text-anchor="middle" x="363" y="-164.8" font-family="Times,serif" font-size="14.00" fill="#000000">HomeModule</text>
</g>
<!-- HomeComponent&#45;&gt;HomeModule -->
<g id="edge1" class="edge">
<title>HomeComponent&#45;&gt;HomeModule</title>
<path fill="none" stroke="#000000" d="M641,-122.2843C641,-143.3211 641,-175 641,-175 641,-175 419.8445,-175 419.8445,-175"/>
<polygon fill="#000000" stroke="#000000" points="419.8446,-171.5001 409.8445,-175 419.8445,-178.5001 419.8446,-171.5001"/>
</g>
<!-- CatalogModule -->
<g id="node3" class="node">
<title>CatalogModule</title>
<polygon fill="#8dd3c7" stroke="#000000" points="558.5968,-122 555.5968,-126 534.5968,-126 531.5968,-122 455.4032,-122 455.4032,-86 558.5968,-86 558.5968,-122"/>
<text text-anchor="middle" x="507" y="-99.8" font-family="Times,serif" font-size="14.00" fill="#000000">CatalogModule</text>
</g>
<!-- CatalogModule&#45;&gt;HomeModule -->
<g id="edge2" class="edge">
<title>CatalogModule&#45;&gt;HomeModule</title>
<path fill="none" stroke="#000000" d="M507,-122.0225C507,-139.3734 507,-163 507,-163 507,-163 420.151,-163 420.151,-163"/>
<polygon fill="#000000" stroke="#000000" points="420.151,-159.5001 410.151,-163 420.151,-166.5001 420.151,-159.5001"/>
</g>
<!-- ConstraintRulesModule -->
<g id="node4" class="node">
<title>ConstraintRulesModule</title>
<polygon fill="#8dd3c7" stroke="#000000" points="437.7646,-122 434.7646,-126 413.7646,-126 410.7646,-122 288.2354,-122 288.2354,-86 437.7646,-86 437.7646,-122"/>
<text text-anchor="middle" x="363" y="-99.8" font-family="Times,serif" font-size="14.00" fill="#000000">ConstraintRulesModule</text>
</g>
<!-- ConstraintRulesModule&#45;&gt;HomeModule -->
<g id="edge3" class="edge">
<title>ConstraintRulesModule&#45;&gt;HomeModule</title>
<path fill="none" stroke="#000000" d="M363,-122.1061C363,-122.1061 363,-140.991 363,-140.991"/>
<polygon fill="#000000" stroke="#000000" points="359.5001,-140.9909 363,-150.991 366.5001,-140.991 359.5001,-140.9909"/>
</g>
<!-- HomeRoutingModule -->
<g id="node5" class="node">
<title>HomeRoutingModule</title>
<polygon fill="#8dd3c7" stroke="#000000" points="270.3795,-122 267.3795,-126 246.3795,-126 243.3795,-122 131.6205,-122 131.6205,-86 270.3795,-86 270.3795,-122"/>
<text text-anchor="middle" x="201" y="-99.8" font-family="Times,serif" font-size="14.00" fill="#000000">HomeRoutingModule</text>
</g>
<!-- HomeRoutingModule&#45;&gt;HomeModule -->
<g id="edge4" class="edge">
<title>HomeRoutingModule&#45;&gt;HomeModule</title>
<path fill="none" stroke="#000000" d="M201,-122.0225C201,-139.3734 201,-163 201,-163 201,-163 306.1429,-163 306.1429,-163"/>
<polygon fill="#000000" stroke="#000000" points="306.1429,-166.5001 316.1429,-163 306.1429,-159.5001 306.1429,-166.5001"/>
</g>
<!-- StoreModule -->
<g id="node6" class="node">
<title>StoreModule</title>
<polygon fill="#8dd3c7" stroke="#000000" points="113.5983,-122 110.5983,-126 89.5983,-126 86.5983,-122 24.4017,-122 24.4017,-86 113.5983,-86 113.5983,-122"/>
<text text-anchor="middle" x="69" y="-99.8" font-family="Times,serif" font-size="14.00" fill="#000000">StoreModule</text>
</g>
<!-- StoreModule&#45;&gt;HomeModule -->
<g id="edge5" class="edge">
<title>StoreModule&#45;&gt;HomeModule</title>
<path fill="none" stroke="#000000" d="M69,-122.2843C69,-143.3211 69,-175 69,-175 69,-175 306.0897,-175 306.0897,-175"/>
<polygon fill="#000000" stroke="#000000" points="306.0898,-178.5001 316.0897,-175 306.0897,-171.5001 306.0898,-178.5001"/>
</g>
</g>
</svg>
