<?xml version="1.0" encoding="UTF-8" standalone="no"?>
<!DOCTYPE svg PUBLIC "-//W3C//DTD SVG 1.1//EN"
 "http://www.w3.org/Graphics/SVG/1.1/DTD/svg11.dtd">
<!-- Generated by graphviz version 2.40.1 (20161225.0304)
 -->
<!-- Title: dependencies Pages: 1 -->
<svg width="2162pt" height="284pt"
 viewBox="0.00 0.00 2162.00 284.00" xmlns="http://www.w3.org/2000/svg" xmlns:xlink="http://www.w3.org/1999/xlink">
<g id="graph0" class="graph" transform="scale(1 1) rotate(0) translate(4 280)">
<title>dependencies</title>
<polygon fill="#ffffff" stroke="transparent" points="-4,4 -4,-280 2158,-280 2158,4 -4,4"/>
<text text-anchor="start" x="1056.0091" y="-42.4" font-family="sans-serif" font-weight="bold" font-size="14.00" fill="#000000">Legend</text>
<polygon fill="#ffffb3" stroke="transparent" points="843,-10 843,-30 863,-30 863,-10 843,-10"/>
<text text-anchor="start" x="866.629" y="-15.4" font-family="sans-serif" font-size="14.00" fill="#000000"> &#160;Declarations</text>
<polygon fill="#8dd3c7" stroke="transparent" points="956,-10 956,-30 976,-30 976,-10 956,-10"/>
<text text-anchor="start" x="979.7251" y="-15.4" font-family="sans-serif" font-size="14.00" fill="#000000"> &#160;Module</text>
<polygon fill="#80b1d3" stroke="transparent" points="1042,-10 1042,-30 1062,-30 1062,-10 1042,-10"/>
<text text-anchor="start" x="1065.7812" y="-15.4" font-family="sans-serif" font-size="14.00" fill="#000000"> &#160;Bootstrap</text>
<polygon fill="#fdb462" stroke="transparent" points="1139,-10 1139,-30 1159,-30 1159,-10 1139,-10"/>
<text text-anchor="start" x="1162.6732" y="-15.4" font-family="sans-serif" font-size="14.00" fill="#000000"> &#160;Providers</text>
<polygon fill="#fb8072" stroke="transparent" points="1235,-10 1235,-30 1255,-30 1255,-10 1235,-10"/>
<text text-anchor="start" x="1258.7258" y="-15.4" font-family="sans-serif" font-size="14.00" fill="#000000"> &#160;Exports</text>
<g id="clust1" class="cluster">
<title>cluster_ConstraintRulesModule</title>
<polygon fill="none" stroke="#000000" stroke-dasharray="1,5" points="8,-70 8,-268 2146,-268 2146,-70 8,-70"/>
</g>
<g id="clust2" class="cluster">
<title>cluster_ConstraintRulesModule_declarations</title>
<polygon fill="none" stroke="#000000" points="464,-78 464,-130 2138,-130 2138,-78 464,-78"/>
</g>
<g id="clust12" class="cluster">
<title>cluster_ConstraintRulesModule_imports</title>
<polygon fill="none" stroke="#000000" points="16,-78 16,-130 456,-130 456,-78 16,-78"/>
</g>
<g id="clust13" class="cluster">
<title>cluster_ConstraintRulesModule_exports</title>
<polygon fill="none" stroke="#000000" points="330,-208 330,-260 1613,-260 1613,-208 330,-208"/>
</g>
<!-- CRAddToCartComponent -->
<g id="node1" class="node">
<title>CRAddToCartComponent</title>
<polygon fill="#ffffb3" stroke="#000000" points="2129.7674,-122 1966.2326,-122 1966.2326,-86 2129.7674,-86 2129.7674,-122"/>
<text text-anchor="middle" x="2048" y="-99.8" font-family="Times,serif" font-size="14.00" fill="#000000">CRAddToCartComponent</text>
</g>
<!-- ConstraintRulesModule -->
<g id="node10" class="node">
<title>ConstraintRulesModule</title>
<polygon fill="#8dd3c7" stroke="#000000" points="1069.7646,-187 1066.7646,-191 1045.7646,-191 1042.7646,-187 920.2354,-187 920.2354,-151 1069.7646,-151 1069.7646,-187"/>
<text text-anchor="middle" x="995" y="-164.8" font-family="Times,serif" font-size="14.00" fill="#000000">ConstraintRulesModule</text>
</g>
<!-- CRAddToCartComponent&#45;&gt;ConstraintRulesModule -->
<g id="edge1" class="edge">
<title>CRAddToCartComponent&#45;&gt;ConstraintRulesModule</title>
<path fill="none" stroke="#000000" d="M2048,-122.1289C2048,-142.5724 2048,-173 2048,-173 2048,-173 1079.885,-173 1079.885,-173"/>
<polygon fill="#000000" stroke="#000000" points="1079.885,-169.5001 1069.885,-173 1079.885,-176.5001 1079.885,-169.5001"/>
</g>
<!-- CRConstraintAlertComponent -->
<g id="node2" class="node">
<title>CRConstraintAlertComponent</title>
<polygon fill="#ffffb3" stroke="#000000" points="1948.5968,-122 1761.4032,-122 1761.4032,-86 1948.5968,-86 1948.5968,-122"/>
<text text-anchor="middle" x="1855" y="-99.8" font-family="Times,serif" font-size="14.00" fill="#000000">CRConstraintAlertComponent</text>
</g>
<!-- CRConstraintAlertComponent&#45;&gt;ConstraintRulesModule -->
<g id="edge2" class="edge">
<title>CRConstraintAlertComponent&#45;&gt;ConstraintRulesModule</title>
<path fill="none" stroke="#000000" d="M1855,-122.1061C1855,-141.3391 1855,-169 1855,-169 1855,-169 1079.8149,-169 1079.8149,-169"/>
<polygon fill="#000000" stroke="#000000" points="1079.815,-165.5001 1069.8149,-169 1079.8149,-172.5001 1079.815,-165.5001"/>
</g>
<!-- CRIconComponent -->
<g id="node3" class="node">
<title>CRIconComponent</title>
<polygon fill="#ffffb3" stroke="#000000" points="1743.3809,-122 1618.6191,-122 1618.6191,-86 1743.3809,-86 1743.3809,-122"/>
<text text-anchor="middle" x="1681" y="-99.8" font-family="Times,serif" font-size="14.00" fill="#000000">CRIconComponent</text>
</g>
<!-- CRIconComponent&#45;&gt;ConstraintRulesModule -->
<g id="edge3" class="edge">
<title>CRIconComponent&#45;&gt;ConstraintRulesModule</title>
<path fill="none" stroke="#000000" d="M1681,-122.2667C1681,-140.5552 1681,-166 1681,-166 1681,-166 1080.0478,-166 1080.0478,-166"/>
<polygon fill="#000000" stroke="#000000" points="1080.0479,-162.5001 1070.0478,-166 1080.0478,-169.5001 1080.0479,-162.5001"/>
</g>
<!-- CRModalComponent -->
<g id="node4" class="node">
<title>CRModalComponent</title>
<polygon fill="#ffffb3" stroke="#000000" points="1600.0561,-122 1463.9439,-122 1463.9439,-86 1600.0561,-86 1600.0561,-122"/>
<text text-anchor="middle" x="1532" y="-99.8" font-family="Times,serif" font-size="14.00" fill="#000000">CRModalComponent</text>
</g>
<!-- CRModalComponent&#45;&gt;ConstraintRulesModule -->
<g id="edge4" class="edge">
<title>CRModalComponent&#45;&gt;ConstraintRulesModule</title>
<path fill="none" stroke="#000000" d="M1532,-122.0336C1532,-139.0597 1532,-162 1532,-162 1532,-162 1079.9501,-162 1079.9501,-162"/>
<polygon fill="#000000" stroke="#000000" points="1079.9501,-158.5001 1069.9501,-162 1079.95,-165.5001 1079.9501,-158.5001"/>
</g>
<!-- CRPopoverComponent -->
<g id="node5" class="node">
<title>CRPopoverComponent</title>
<polygon fill="#ffffb3" stroke="#000000" points="1445.1638,-122 1298.8362,-122 1298.8362,-86 1445.1638,-86 1445.1638,-122"/>
<text text-anchor="middle" x="1372" y="-99.8" font-family="Times,serif" font-size="14.00" fill="#000000">CRPopoverComponent</text>
</g>
<!-- CRPopoverComponent&#45;&gt;ConstraintRulesModule -->
<g id="edge5" class="edge">
<title>CRPopoverComponent&#45;&gt;ConstraintRulesModule</title>
<path fill="none" stroke="#000000" d="M1358.9834,-122.0091C1358.9834,-138.0494 1358.9834,-159 1358.9834,-159 1358.9834,-159 1079.9763,-159 1079.9763,-159"/>
<polygon fill="#000000" stroke="#000000" points="1079.9763,-155.5001 1069.9763,-159 1079.9762,-162.5001 1079.9763,-155.5001"/>
</g>
<!-- CRProductCardComponent -->
<g id="node6" class="node">
<title>CRProductCardComponent</title>
<polygon fill="#ffffb3" stroke="#000000" points="1280.266,-122 1109.734,-122 1109.734,-86 1280.266,-86 1280.266,-122"/>
<text text-anchor="middle" x="1195" y="-99.8" font-family="Times,serif" font-size="14.00" fill="#000000">CRProductCardComponent</text>
</g>
<!-- CRProductCardComponent&#45;&gt;ConstraintRulesModule -->
<g id="edge6" class="edge">
<title>CRProductCardComponent&#45;&gt;ConstraintRulesModule</title>
<path fill="none" stroke="#000000" d="M1160.4038,-122.1243C1160.4038,-136.7832 1160.4038,-155 1160.4038,-155 1160.4038,-155 1079.9587,-155 1079.9587,-155"/>
<polygon fill="#000000" stroke="#000000" points="1079.9587,-151.5001 1069.9587,-155 1079.9586,-158.5001 1079.9587,-151.5001"/>
</g>
<!-- CRProductCarouselComponent -->
<g id="node7" class="node">
<title>CRProductCarouselComponent</title>
<polygon fill="#ffffb3" stroke="#000000" points="1091.8159,-122 898.1841,-122 898.1841,-86 1091.8159,-86 1091.8159,-122"/>
<text text-anchor="middle" x="995" y="-99.8" font-family="Times,serif" font-size="14.00" fill="#000000">CRProductCarouselComponent</text>
</g>
<!-- CRProductCarouselComponent&#45;&gt;ConstraintRulesModule -->
<g id="edge7" class="edge">
<title>CRProductCarouselComponent&#45;&gt;ConstraintRulesModule</title>
<path fill="none" stroke="#000000" d="M995,-122.1061C995,-122.1061 995,-140.991 995,-140.991"/>
<polygon fill="#000000" stroke="#000000" points="991.5001,-140.9909 995,-150.991 998.5001,-140.991 991.5001,-140.9909"/>
</g>
<!-- CRRecommendedProductsComponent -->
<g id="node8" class="node">
<title>CRRecommendedProductsComponent</title>
<polygon fill="#ffffb3" stroke="#000000" points="880.4748,-122 647.5252,-122 647.5252,-86 880.4748,-86 880.4748,-122"/>
<text text-anchor="middle" x="764" y="-99.8" font-family="Times,serif" font-size="14.00" fill="#000000">CRRecommendedProductsComponent</text>
</g>
<!-- CRRecommendedProductsComponent&#45;&gt;ConstraintRulesModule -->
<g id="edge8" class="edge">
<title>CRRecommendedProductsComponent&#45;&gt;ConstraintRulesModule</title>
<path fill="none" stroke="#000000" d="M806.6773,-122.1243C806.6773,-136.7832 806.6773,-155 806.6773,-155 806.6773,-155 910.0287,-155 910.0287,-155"/>
<polygon fill="#000000" stroke="#000000" points="910.0288,-158.5001 920.0287,-155 910.0287,-151.5001 910.0288,-158.5001"/>
</g>
<!-- CRSideMenuComponent -->
<g id="node9" class="node">
<title>CRSideMenuComponent</title>
<polygon fill="#ffffb3" stroke="#000000" points="629.5532,-122 472.4468,-122 472.4468,-86 629.5532,-86 629.5532,-122"/>
<text text-anchor="middle" x="551" y="-99.8" font-family="Times,serif" font-size="14.00" fill="#000000">CRSideMenuComponent</text>
</g>
<!-- CRSideMenuComponent&#45;&gt;ConstraintRulesModule -->
<g id="edge9" class="edge">
<title>CRSideMenuComponent&#45;&gt;ConstraintRulesModule</title>
<path fill="none" stroke="#000000" d="M573.6843,-122.0091C573.6843,-138.0494 573.6843,-159 573.6843,-159 573.6843,-159 910.1627,-159 910.1627,-159"/>
<polygon fill="#000000" stroke="#000000" points="910.1627,-162.5001 920.1627,-159 910.1626,-155.5001 910.1627,-162.5001"/>
</g>
<!-- CRAddToCartComponent  -->
<g id="node15" class="node">
<title>CRAddToCartComponent </title>
<polygon fill="#fb8072" stroke="#000000" points="1604.7674,-252 1437.2326,-252 1437.2326,-216 1604.7674,-216 1604.7674,-252"/>
<text text-anchor="middle" x="1521" y="-229.8" font-family="Times,serif" font-size="14.00" fill="#000000">CRAddToCartComponent </text>
</g>
<!-- ConstraintRulesModule&#45;&gt;CRAddToCartComponent  -->
<g id="edge14" class="edge">
<title>ConstraintRulesModule&#45;&gt;CRAddToCartComponent </title>
<path fill="none" stroke="#000000" stroke-dasharray="5,2" d="M1069.9604,-177C1197.096,-177 1441.349,-177 1441.349,-177 1441.349,-177 1441.349,-205.9648 1441.349,-205.9648"/>
<polygon fill="#000000" stroke="#000000" points="1437.8491,-205.9648 1441.349,-215.9648 1444.8491,-205.9649 1437.8491,-205.9648"/>
</g>
<!-- CRConstraintAlertComponent  -->
<g id="node16" class="node">
<title>CRConstraintAlertComponent </title>
<polygon fill="#fb8072" stroke="#000000" points="1419.0972,-252 1228.9028,-252 1228.9028,-216 1419.0972,-216 1419.0972,-252"/>
<text text-anchor="middle" x="1324" y="-229.8" font-family="Times,serif" font-size="14.00" fill="#000000">CRConstraintAlertComponent </text>
</g>
<!-- ConstraintRulesModule&#45;&gt;CRConstraintAlertComponent  -->
<g id="edge15" class="edge">
<title>ConstraintRulesModule&#45;&gt;CRConstraintAlertComponent </title>
<path fill="none" stroke="#000000" stroke-dasharray="5,2" d="M1070.0704,-180C1146.7231,-180 1254.5423,-180 1254.5423,-180 1254.5423,-180 1254.5423,-205.7181 1254.5423,-205.7181"/>
<polygon fill="#000000" stroke="#000000" points="1251.0423,-205.718 1254.5423,-215.7181 1258.0423,-205.7181 1251.0423,-205.718"/>
</g>
<!-- CRIconComponent  -->
<g id="node17" class="node">
<title>CRIconComponent </title>
<polygon fill="#fb8072" stroke="#000000" points="1211.3814,-252 1082.6186,-252 1082.6186,-216 1211.3814,-216 1211.3814,-252"/>
<text text-anchor="middle" x="1147" y="-229.8" font-family="Times,serif" font-size="14.00" fill="#000000">CRIconComponent </text>
</g>
<!-- ConstraintRulesModule&#45;&gt;CRIconComponent  -->
<g id="edge16" class="edge">
<title>ConstraintRulesModule&#45;&gt;CRIconComponent </title>
<path fill="none" stroke="#000000" stroke-dasharray="5,2" d="M1069.8852,-184C1080.1391,-184 1087.2337,-184 1087.2337,-184 1087.2337,-184 1087.2337,-205.9489 1087.2337,-205.9489"/>
<polygon fill="#000000" stroke="#000000" points="1083.7338,-205.9488 1087.2337,-215.9489 1090.7338,-205.9489 1083.7338,-205.9488"/>
</g>
<!-- CRModalComponent  -->
<g id="node18" class="node">
<title>CRModalComponent </title>
<polygon fill="#fb8072" stroke="#000000" points="1065.0554,-252 924.9446,-252 924.9446,-216 1065.0554,-216 1065.0554,-252"/>
<text text-anchor="middle" x="995" y="-229.8" font-family="Times,serif" font-size="14.00" fill="#000000">CRModalComponent </text>
</g>
<!-- ConstraintRulesModule&#45;&gt;CRModalComponent  -->
<g id="edge17" class="edge">
<title>ConstraintRulesModule&#45;&gt;CRModalComponent </title>
<path fill="none" stroke="#000000" stroke-dasharray="5,2" d="M995,-187.1061C995,-187.1061 995,-205.991 995,-205.991"/>
<polygon fill="#000000" stroke="#000000" points="991.5001,-205.9909 995,-215.991 998.5001,-205.991 991.5001,-205.9909"/>
</g>
<!-- CRProductCardComponent  -->
<g id="node19" class="node">
<title>CRProductCardComponent </title>
<polygon fill="#fb8072" stroke="#000000" points="907.266,-252 732.734,-252 732.734,-216 907.266,-216 907.266,-252"/>
<text text-anchor="middle" x="820" y="-229.8" font-family="Times,serif" font-size="14.00" fill="#000000">CRProductCardComponent </text>
</g>
<!-- ConstraintRulesModule&#45;&gt;CRProductCardComponent  -->
<g id="edge18" class="edge">
<title>ConstraintRulesModule&#45;&gt;CRProductCardComponent </title>
<path fill="none" stroke="#000000" stroke-dasharray="5,2" d="M920.0914,-184C909.8343,-184 902.7376,-184 902.7376,-184 902.7376,-184 902.7376,-205.9489 902.7376,-205.9489"/>
<polygon fill="#000000" stroke="#000000" points="899.2376,-205.9488 902.7376,-215.9489 906.2376,-205.9489 899.2376,-205.9488"/>
</g>
<!-- CRProductCarouselComponent  -->
<g id="node20" class="node">
<title>CRProductCarouselComponent </title>
<polygon fill="#fb8072" stroke="#000000" points="714.3157,-252 517.6843,-252 517.6843,-216 714.3157,-216 714.3157,-252"/>
<text text-anchor="middle" x="616" y="-229.8" font-family="Times,serif" font-size="14.00" fill="#000000">CRProductCarouselComponent </text>
</g>
<!-- ConstraintRulesModule&#45;&gt;CRProductCarouselComponent  -->
<g id="edge19" class="edge">
<title>ConstraintRulesModule&#45;&gt;CRProductCarouselComponent </title>
<path fill="none" stroke="#000000" stroke-dasharray="5,2" d="M920.1786,-180C827.2921,-180 680.9602,-180 680.9602,-180 680.9602,-180 680.9602,-205.7181 680.9602,-205.7181"/>
<polygon fill="#000000" stroke="#000000" points="677.4603,-205.718 680.9602,-215.7181 684.4603,-205.7181 677.4603,-205.718"/>
</g>
<!-- CRSideMenuComponent  -->
<g id="node21" class="node">
<title>CRSideMenuComponent </title>
<polygon fill="#fb8072" stroke="#000000" points="499.5526,-252 338.4474,-252 338.4474,-216 499.5526,-216 499.5526,-252"/>
<text text-anchor="middle" x="419" y="-229.8" font-family="Times,serif" font-size="14.00" fill="#000000">CRSideMenuComponent </text>
</g>
<!-- ConstraintRulesModule&#45;&gt;CRSideMenuComponent  -->
<g id="edge20" class="edge">
<title>ConstraintRulesModule&#45;&gt;CRSideMenuComponent </title>
<path fill="none" stroke="#000000" stroke-dasharray="5,2" d="M920.1504,-177C778.6321,-177 485.875,-177 485.875,-177 485.875,-177 485.875,-205.9648 485.875,-205.9648"/>
<polygon fill="#000000" stroke="#000000" points="482.3751,-205.9648 485.875,-215.9648 489.3751,-205.9649 482.3751,-205.9648"/>
</g>
<!-- ApttusModule -->
<g id="node11" class="node">
<title>ApttusModule</title>
<polygon fill="#8dd3c7" stroke="#000000" points="448.3823,-122 445.3823,-126 424.3823,-126 421.3823,-122 351.6177,-122 351.6177,-86 448.3823,-86 448.3823,-122"/>
<text text-anchor="middle" x="400" y="-99.8" font-family="Times,serif" font-size="14.00" fill="#000000">ApttusModule</text>
</g>
<!-- ApttusModule&#45;&gt;ConstraintRulesModule -->
<g id="edge10" class="edge">
<title>ApttusModule&#45;&gt;ConstraintRulesModule</title>
<path fill="none" stroke="#000000" d="M400,-122.0336C400,-139.0597 400,-162 400,-162 400,-162 909.9443,-162 909.9443,-162"/>
<polygon fill="#000000" stroke="#000000" points="909.9443,-165.5001 919.9443,-162 909.9443,-158.5001 909.9443,-165.5001"/>
</g>
<!-- CartModule -->
<g id="node12" class="node">
<title>CartModule</title>
<polygon fill="#8dd3c7" stroke="#000000" points="333.6529,-122 330.6529,-126 309.6529,-126 306.6529,-122 250.3471,-122 250.3471,-86 333.6529,-86 333.6529,-122"/>
<text text-anchor="middle" x="292" y="-99.8" font-family="Times,serif" font-size="14.00" fill="#000000">CartModule</text>
</g>
<!-- CartModule&#45;&gt;ConstraintRulesModule -->
<g id="edge11" class="edge">
<title>CartModule&#45;&gt;ConstraintRulesModule</title>
<path fill="none" stroke="#000000" d="M292,-122.2667C292,-140.5552 292,-166 292,-166 292,-166 910.0998,-166 910.0998,-166"/>
<polygon fill="#000000" stroke="#000000" points="910.0998,-169.5001 920.0998,-166 910.0997,-162.5001 910.0998,-169.5001"/>
</g>
<!-- PricingModule -->
<g id="node13" class="node">
<title>PricingModule</title>
<polygon fill="#8dd3c7" stroke="#000000" points="231.9888,-122 228.9888,-126 207.9888,-126 204.9888,-122 132.0112,-122 132.0112,-86 231.9888,-86 231.9888,-122"/>
<text text-anchor="middle" x="182" y="-99.8" font-family="Times,serif" font-size="14.00" fill="#000000">PricingModule</text>
</g>
<!-- PricingModule&#45;&gt;ConstraintRulesModule -->
<g id="edge12" class="edge">
<title>PricingModule&#45;&gt;ConstraintRulesModule</title>
<path fill="none" stroke="#000000" d="M182,-122.1061C182,-141.3391 182,-169 182,-169 182,-169 909.9722,-169 909.9722,-169"/>
<polygon fill="#000000" stroke="#000000" points="909.9722,-172.5001 919.9722,-169 909.9721,-165.5001 909.9722,-172.5001"/>
</g>
<!-- StoreModule -->
<g id="node14" class="node">
<title>StoreModule</title>
<polygon fill="#8dd3c7" stroke="#000000" points="113.5983,-122 110.5983,-126 89.5983,-126 86.5983,-122 24.4017,-122 24.4017,-86 113.5983,-86 113.5983,-122"/>
<text text-anchor="middle" x="69" y="-99.8" font-family="Times,serif" font-size="14.00" fill="#000000">StoreModule</text>
</g>
<!-- StoreModule&#45;&gt;ConstraintRulesModule -->
<g id="edge13" class="edge">
<title>StoreModule&#45;&gt;ConstraintRulesModule</title>
<path fill="none" stroke="#000000" d="M69,-122.1289C69,-142.5724 69,-173 69,-173 69,-173 910.0059,-173 910.0059,-173"/>
<polygon fill="#000000" stroke="#000000" points="910.0059,-176.5001 920.0059,-173 910.0059,-169.5001 910.0059,-176.5001"/>
</g>
</g>
</svg>
