<?xml version="1.0" encoding="UTF-8" standalone="no"?>
<!DOCTYPE svg PUBLIC "-//W3C//DTD SVG 1.1//EN"
 "http://www.w3.org/Graphics/SVG/1.1/DTD/svg11.dtd">
<!-- Generated by graphviz version 2.40.1 (20161225.0304)
 -->
<!-- Title: dependencies Pages: 1 -->
<svg width="504pt" height="211pt"
 viewBox="0.00 0.00 504.00 211.00" xmlns="http://www.w3.org/2000/svg" xmlns:xlink="http://www.w3.org/1999/xlink">
<g id="graph0" class="graph" transform="scale(1 1) rotate(0) translate(4 207)">
<title>dependencies</title>
<polygon fill="#ffffff" stroke="transparent" points="-4,4 -4,-207 500,-207 500,4 -4,4"/>
<text text-anchor="start" x="227.0091" y="-42.4" font-family="sans-serif" font-weight="bold" font-size="14.00" fill="#000000">Legend</text>
<polygon fill="#ffffb3" stroke="transparent" points="14,-10 14,-30 34,-30 34,-10 14,-10"/>
<text text-anchor="start" x="37.629" y="-15.4" font-family="sans-serif" font-size="14.00" fill="#000000"> &#160;Declarations</text>
<polygon fill="#8dd3c7" stroke="transparent" points="127,-10 127,-30 147,-30 147,-10 127,-10"/>
<text text-anchor="start" x="150.7251" y="-15.4" font-family="sans-serif" font-size="14.00" fill="#000000"> &#160;Module</text>
<polygon fill="#80b1d3" stroke="transparent" points="213,-10 213,-30 233,-30 233,-10 213,-10"/>
<text text-anchor="start" x="236.7812" y="-15.4" font-family="sans-serif" font-size="14.00" fill="#000000"> &#160;Bootstrap</text>
<polygon fill="#fdb462" stroke="transparent" points="310,-10 310,-30 330,-30 330,-10 310,-10"/>
<text text-anchor="start" x="333.6732" y="-15.4" font-family="sans-serif" font-size="14.00" fill="#000000"> &#160;Providers</text>
<polygon fill="#fb8072" stroke="transparent" points="406,-10 406,-30 426,-30 426,-10 406,-10"/>
<text text-anchor="start" x="429.7258" y="-15.4" font-family="sans-serif" font-size="14.00" fill="#000000"> &#160;Exports</text>
<g id="clust1" class="cluster">
<title>cluster_ConstraintRulesModule</title>
<polygon fill="none" stroke="#000000" stroke-dasharray="1,5" points="16.5,-70 16.5,-195 479.5,-195 479.5,-70 16.5,-70"/>
</g>
<g id="clust3" class="cluster">
<title>cluster_ConstraintRulesModule_imports</title>
<polygon fill="none" stroke="#000000" points="24.5,-78 24.5,-130 471.5,-130 471.5,-78 24.5,-78"/>
</g>
<!-- CartModule -->
<g id="node1" class="node">
<title>CartModule</title>
<polygon fill="#8dd3c7" stroke="#000000" points="463.1529,-122 460.1529,-126 439.1529,-126 436.1529,-122 379.8471,-122 379.8471,-86 463.1529,-86 463.1529,-122"/>
<text text-anchor="middle" x="421.5" y="-99.8" font-family="Times,serif" font-size="14.00" fill="#000000">CartModule</text>
</g>
<!-- ConstraintRulesModule -->
<g id="node5" class="node">
<title>ConstraintRulesModule</title>
<polygon fill="#8dd3c7" stroke="#000000" points="325.2646,-187 322.2646,-191 301.2646,-191 298.2646,-187 175.7354,-187 175.7354,-151 325.2646,-151 325.2646,-187"/>
<text text-anchor="middle" x="250.5" y="-164.8" font-family="Times,serif" font-size="14.00" fill="#000000">ConstraintRulesModule</text>
</g>
<!-- CartModule&#45;&gt;ConstraintRulesModule -->
<g id="edge1" class="edge">
<title>CartModule&#45;&gt;ConstraintRulesModule</title>
<path fill="none" stroke="#000000" d="M421.5,-122.1061C421.5,-141.3391 421.5,-169 421.5,-169 421.5,-169 335.5031,-169 335.5031,-169"/>
<polygon fill="#000000" stroke="#000000" points="335.5031,-165.5001 325.5031,-169 335.5031,-172.5001 335.5031,-165.5001"/>
</g>
<!-- CatalogModule -->
<g id="node2" class="node">
<title>CatalogModule</title>
<polygon fill="#8dd3c7" stroke="#000000" points="362.0968,-122 359.0968,-126 338.0968,-126 335.0968,-122 258.9032,-122 258.9032,-86 362.0968,-86 362.0968,-122"/>
<text text-anchor="middle" x="310.5" y="-99.8" font-family="Times,serif" font-size="14.00" fill="#000000">CatalogModule</text>
</g>
<!-- CatalogModule&#45;&gt;ConstraintRulesModule -->
<g id="edge2" class="edge">
<title>CatalogModule&#45;&gt;ConstraintRulesModule</title>
<path fill="none" stroke="#000000" d="M292.1669,-122.1061C292.1669,-122.1061 292.1669,-140.991 292.1669,-140.991"/>
<polygon fill="#000000" stroke="#000000" points="288.667,-140.9909 292.1669,-150.991 295.667,-140.991 288.667,-140.9909"/>
</g>
<!-- PricingModule -->
<g id="node3" class="node">
<title>PricingModule</title>
<polygon fill="#8dd3c7" stroke="#000000" points="240.4888,-122 237.4888,-126 216.4888,-126 213.4888,-122 140.5112,-122 140.5112,-86 240.4888,-86 240.4888,-122"/>
<text text-anchor="middle" x="190.5" y="-99.8" font-family="Times,serif" font-size="14.00" fill="#000000">PricingModule</text>
</g>
<!-- PricingModule&#45;&gt;ConstraintRulesModule -->
<g id="edge3" class="edge">
<title>PricingModule&#45;&gt;ConstraintRulesModule</title>
<path fill="none" stroke="#000000" d="M208.0561,-122.1061C208.0561,-122.1061 208.0561,-140.991 208.0561,-140.991"/>
<polygon fill="#000000" stroke="#000000" points="204.5562,-140.9909 208.0561,-150.991 211.5562,-140.991 204.5562,-140.9909"/>
</g>
<!-- StoreModule -->
<g id="node4" class="node">
<title>StoreModule</title>
<polygon fill="#8dd3c7" stroke="#000000" points="122.0983,-122 119.0983,-126 98.0983,-126 95.0983,-122 32.9017,-122 32.9017,-86 122.0983,-86 122.0983,-122"/>
<text text-anchor="middle" x="77.5" y="-99.8" font-family="Times,serif" font-size="14.00" fill="#000000">StoreModule</text>
</g>
<!-- StoreModule&#45;&gt;ConstraintRulesModule -->
<g id="edge4" class="edge">
<title>StoreModule&#45;&gt;ConstraintRulesModule</title>
<path fill="none" stroke="#000000" d="M77.5,-122.1061C77.5,-141.3391 77.5,-169 77.5,-169 77.5,-169 165.6259,-169 165.6259,-169"/>
<polygon fill="#000000" stroke="#000000" points="165.6259,-172.5001 175.6259,-169 165.6258,-165.5001 165.6259,-172.5001"/>
</g>
</g>
</svg>
