<?xml version="1.0" encoding="UTF-8" standalone="no"?>
<!DOCTYPE svg PUBLIC "-//W3C//DTD SVG 1.1//EN"
 "http://www.w3.org/Graphics/SVG/1.1/DTD/svg11.dtd">
<!-- Generated by graphviz version 2.40.1 (20161225.0304)
 -->
<!-- Title: dependencies Pages: 1 -->
<svg width="568pt" height="284pt"
 viewBox="0.00 0.00 568.00 284.00" xmlns="http://www.w3.org/2000/svg" xmlns:xlink="http://www.w3.org/1999/xlink">
<g id="graph0" class="graph" transform="scale(1 1) rotate(0) translate(4 280)">
<title>dependencies</title>
<polygon fill="#ffffff" stroke="transparent" points="-4,4 -4,-280 564,-280 564,4 -4,4"/>
<text text-anchor="start" x="259.0091" y="-42.4" font-family="sans-serif" font-weight="bold" font-size="14.00" fill="#000000">Legend</text>
<polygon fill="#ffffb3" stroke="transparent" points="46,-10 46,-30 66,-30 66,-10 46,-10"/>
<text text-anchor="start" x="69.629" y="-15.4" font-family="sans-serif" font-size="14.00" fill="#000000"> &#160;Declarations</text>
<polygon fill="#8dd3c7" stroke="transparent" points="159,-10 159,-30 179,-30 179,-10 159,-10"/>
<text text-anchor="start" x="182.7251" y="-15.4" font-family="sans-serif" font-size="14.00" fill="#000000"> &#160;Module</text>
<polygon fill="#80b1d3" stroke="transparent" points="245,-10 245,-30 265,-30 265,-10 245,-10"/>
<text text-anchor="start" x="268.7812" y="-15.4" font-family="sans-serif" font-size="14.00" fill="#000000"> &#160;Bootstrap</text>
<polygon fill="#fdb462" stroke="transparent" points="342,-10 342,-30 362,-30 362,-10 342,-10"/>
<text text-anchor="start" x="365.6732" y="-15.4" font-family="sans-serif" font-size="14.00" fill="#000000"> &#160;Providers</text>
<polygon fill="#fb8072" stroke="transparent" points="438,-10 438,-30 458,-30 458,-10 438,-10"/>
<text text-anchor="start" x="461.7258" y="-15.4" font-family="sans-serif" font-size="14.00" fill="#000000"> &#160;Exports</text>
<g id="clust1" class="cluster">
<title>cluster_ProductCompareModule</title>
<polygon fill="none" stroke="#000000" stroke-dasharray="1,5" points="8,-70 8,-268 552,-268 552,-70 8,-70"/>
</g>
<g id="clust2" class="cluster">
<title>cluster_ProductCompareModule_declarations</title>
<polygon fill="none" stroke="#000000" points="170,-78 170,-130 544,-130 544,-78 170,-78"/>
</g>
<g id="clust5" class="cluster">
<title>cluster_ProductCompareModule_imports</title>
<polygon fill="none" stroke="#000000" points="16,-78 16,-130 162,-130 162,-78 16,-78"/>
</g>
<g id="clust6" class="cluster">
<title>cluster_ProductCompareModule_exports</title>
<polygon fill="none" stroke="#000000" points="168,-208 168,-260 364,-260 364,-208 168,-208"/>
</g>
<!-- CompareTableComponent -->
<g id="node1" class="node">
<title>CompareTableComponent</title>
<polygon fill="#ffffb3" stroke="#000000" points="536.0225,-122 371.9775,-122 371.9775,-86 536.0225,-86 536.0225,-122"/>
<text text-anchor="middle" x="454" y="-99.8" font-family="Times,serif" font-size="14.00" fill="#000000">CompareTableComponent</text>
</g>
<!-- ProductCompareModule -->
<g id="node3" class="node">
<title>ProductCompareModule</title>
<polygon fill="#8dd3c7" stroke="#000000" points="343.4158,-187 340.4158,-191 319.4158,-191 316.4158,-187 188.5842,-187 188.5842,-151 343.4158,-151 343.4158,-187"/>
<text text-anchor="middle" x="266" y="-164.8" font-family="Times,serif" font-size="14.00" fill="#000000">ProductCompareModule</text>
</g>
<!-- CompareTableComponent&#45;&gt;ProductCompareModule -->
<g id="edge1" class="edge">
<title>CompareTableComponent&#45;&gt;ProductCompareModule</title>
<path fill="none" stroke="#000000" d="M454,-122.1061C454,-141.3391 454,-169 454,-169 454,-169 353.2807,-169 353.2807,-169"/>
<polygon fill="#000000" stroke="#000000" points="353.2807,-165.5001 343.2807,-169 353.2806,-172.5001 353.2807,-165.5001"/>
</g>
<!-- ProductCompareComponent -->
<g id="node2" class="node">
<title>ProductCompareComponent</title>
<polygon fill="#ffffb3" stroke="#000000" points="354.1979,-122 177.8021,-122 177.8021,-86 354.1979,-86 354.1979,-122"/>
<text text-anchor="middle" x="266" y="-99.8" font-family="Times,serif" font-size="14.00" fill="#000000">ProductCompareComponent</text>
</g>
<!-- ProductCompareComponent&#45;&gt;ProductCompareModule -->
<g id="edge2" class="edge">
<title>ProductCompareComponent&#45;&gt;ProductCompareModule</title>
<path fill="none" stroke="#000000" d="M266,-122.1061C266,-122.1061 266,-140.991 266,-140.991"/>
<polygon fill="#000000" stroke="#000000" points="262.5001,-140.9909 266,-150.991 269.5001,-140.991 262.5001,-140.9909"/>
</g>
<!-- ProductCompareComponent  -->
<g id="node5" class="node">
<title>ProductCompareComponent </title>
<polygon fill="#fb8072" stroke="#000000" points="355.6981,-252 176.3019,-252 176.3019,-216 355.6981,-216 355.6981,-252"/>
<text text-anchor="middle" x="266" y="-229.8" font-family="Times,serif" font-size="14.00" fill="#000000">ProductCompareComponent </text>
</g>
<!-- ProductCompareModule&#45;&gt;ProductCompareComponent  -->
<g id="edge4" class="edge">
<title>ProductCompareModule&#45;&gt;ProductCompareComponent </title>
<path fill="none" stroke="#000000" stroke-dasharray="5,2" d="M266,-187.1061C266,-187.1061 266,-205.991 266,-205.991"/>
<polygon fill="#000000" stroke="#000000" points="262.5001,-205.9909 266,-215.991 269.5001,-205.991 262.5001,-205.9909"/>
</g>
<!-- ProductCardModule -->
<g id="node4" class="node">
<title>ProductCardModule</title>
<polygon fill="#8dd3c7" stroke="#000000" points="154.3104,-122 151.3104,-126 130.3104,-126 127.3104,-122 23.6896,-122 23.6896,-86 154.3104,-86 154.3104,-122"/>
<text text-anchor="middle" x="89" y="-99.8" font-family="Times,serif" font-size="14.00" fill="#000000">ProductCardModule</text>
</g>
<!-- ProductCardModule&#45;&gt;ProductCompareModule -->
<g id="edge3" class="edge">
<title>ProductCardModule&#45;&gt;ProductCompareModule</title>
<path fill="none" stroke="#000000" d="M89,-122.1061C89,-141.3391 89,-169 89,-169 89,-169 178.6227,-169 178.6227,-169"/>
<polygon fill="#000000" stroke="#000000" points="178.6227,-172.5001 188.6227,-169 178.6227,-165.5001 178.6227,-172.5001"/>
</g>
</g>
</svg>
