<?xml version="1.0" encoding="UTF-8" standalone="no"?>
<!DOCTYPE svg PUBLIC "-//W3C//DTD SVG 1.1//EN"
 "http://www.w3.org/Graphics/SVG/1.1/DTD/svg11.dtd">
<!-- Generated by graphviz version 2.40.1 (20161225.0304)
 -->
<!-- Title: dependencies Pages: 1 -->
<svg width="504pt" height="284pt"
 viewBox="0.00 0.00 504.00 284.00" xmlns="http://www.w3.org/2000/svg" xmlns:xlink="http://www.w3.org/1999/xlink">
<g id="graph0" class="graph" transform="scale(1 1) rotate(0) translate(4 280)">
<title>dependencies</title>
<polygon fill="#ffffff" stroke="transparent" points="-4,4 -4,-280 500,-280 500,4 -4,4"/>
<text text-anchor="start" x="227.0091" y="-42.4" font-family="sans-serif" font-weight="bold" font-size="14.00" fill="#000000">Legend</text>
<polygon fill="#ffffb3" stroke="transparent" points="14,-10 14,-30 34,-30 34,-10 14,-10"/>
<text text-anchor="start" x="37.629" y="-15.4" font-family="sans-serif" font-size="14.00" fill="#000000"> &#160;Declarations</text>
<polygon fill="#8dd3c7" stroke="transparent" points="127,-10 127,-30 147,-30 147,-10 127,-10"/>
<text text-anchor="start" x="150.7251" y="-15.4" font-family="sans-serif" font-size="14.00" fill="#000000"> &#160;Module</text>
<polygon fill="#80b1d3" stroke="transparent" points="213,-10 213,-30 233,-30 233,-10 213,-10"/>
<text text-anchor="start" x="236.7812" y="-15.4" font-family="sans-serif" font-size="14.00" fill="#000000"> &#160;Bootstrap</text>
<polygon fill="#fdb462" stroke="transparent" points="310,-10 310,-30 330,-30 330,-10 310,-10"/>
<text text-anchor="start" x="333.6732" y="-15.4" font-family="sans-serif" font-size="14.00" fill="#000000"> &#160;Providers</text>
<polygon fill="#fb8072" stroke="transparent" points="406,-10 406,-30 426,-30 426,-10 406,-10"/>
<text text-anchor="start" x="429.7258" y="-15.4" font-family="sans-serif" font-size="14.00" fill="#000000"> &#160;Exports</text>
<g id="clust1" class="cluster">
<title>cluster_IconModule</title>
<polygon fill="none" stroke="#000000" stroke-dasharray="1,5" points="84,-70 84,-268 412,-268 412,-70 84,-70"/>
</g>
<g id="clust2" class="cluster">
<title>cluster_IconModule_declarations</title>
<polygon fill="none" stroke="#000000" points="95,-78 95,-130 401,-130 401,-78 95,-78"/>
</g>
<g id="clust6" class="cluster">
<title>cluster_IconModule_exports</title>
<polygon fill="none" stroke="#000000" points="92,-208 92,-260 404,-260 404,-208 92,-208"/>
</g>
<!-- MdDotsComponent -->
<g id="node1" class="node">
<title>MdDotsComponent</title>
<polygon fill="#ffffb3" stroke="#000000" points="392.719,-122 265.281,-122 265.281,-86 392.719,-86 392.719,-122"/>
<text text-anchor="middle" x="329" y="-99.8" font-family="Times,serif" font-size="14.00" fill="#000000">MdDotsComponent</text>
</g>
<!-- IconModule -->
<g id="node3" class="node">
<title>IconModule</title>
<polygon fill="#8dd3c7" stroke="#000000" points="218.4261,-187 215.4261,-191 194.4261,-191 191.4261,-187 133.5739,-187 133.5739,-151 218.4261,-151 218.4261,-187"/>
<text text-anchor="middle" x="176" y="-164.8" font-family="Times,serif" font-size="14.00" fill="#000000">IconModule</text>
</g>
<!-- MdDotsComponent&#45;&gt;IconModule -->
<g id="edge1" class="edge">
<title>MdDotsComponent&#45;&gt;IconModule</title>
<path fill="none" stroke="#000000" d="M350.2865,-122.0225C350.2865,-139.3734 350.2865,-163 350.2865,-163 350.2865,-163 228.6353,-163 228.6353,-163"/>
<polygon fill="#000000" stroke="#000000" points="228.6353,-159.5001 218.6353,-163 228.6352,-166.5001 228.6353,-159.5001"/>
</g>
<!-- MdSpinnerComponent -->
<g id="node2" class="node">
<title>MdSpinnerComponent</title>
<polygon fill="#ffffb3" stroke="#000000" points="247.3258,-122 102.6742,-122 102.6742,-86 247.3258,-86 247.3258,-122"/>
<text text-anchor="middle" x="175" y="-99.8" font-family="Times,serif" font-size="14.00" fill="#000000">MdSpinnerComponent</text>
</g>
<!-- MdSpinnerComponent&#45;&gt;IconModule -->
<g id="edge2" class="edge">
<title>MdSpinnerComponent&#45;&gt;IconModule</title>
<path fill="none" stroke="#000000" d="M176,-122.1061C176,-122.1061 176,-140.991 176,-140.991"/>
<polygon fill="#000000" stroke="#000000" points="172.5001,-140.9909 176,-150.991 179.5001,-140.991 172.5001,-140.9909"/>
</g>
<!-- MdDotsComponent  -->
<g id="node4" class="node">
<title>MdDotsComponent </title>
<polygon fill="#fb8072" stroke="#000000" points="396.2191,-252 265.7809,-252 265.7809,-216 396.2191,-216 396.2191,-252"/>
<text text-anchor="middle" x="331" y="-229.8" font-family="Times,serif" font-size="14.00" fill="#000000">MdDotsComponent </text>
</g>
<!-- IconModule&#45;&gt;MdDotsComponent  -->
<g id="edge3" class="edge">
<title>IconModule&#45;&gt;MdDotsComponent </title>
<path fill="none" stroke="#000000" stroke-dasharray="5,2" d="M218.4805,-175C257.0576,-175 307.9635,-175 307.9635,-175 307.9635,-175 307.9635,-205.9775 307.9635,-205.9775"/>
<polygon fill="#000000" stroke="#000000" points="304.4636,-205.9774 307.9635,-215.9775 311.4636,-205.9775 304.4636,-205.9774"/>
</g>
<!-- MdSpinnerComponent  -->
<g id="node5" class="node">
<title>MdSpinnerComponent </title>
<polygon fill="#fb8072" stroke="#000000" points="247.8255,-252 100.1745,-252 100.1745,-216 247.8255,-216 247.8255,-252"/>
<text text-anchor="middle" x="174" y="-229.8" font-family="Times,serif" font-size="14.00" fill="#000000">MdSpinnerComponent </text>
</g>
<!-- IconModule&#45;&gt;MdSpinnerComponent  -->
<g id="edge4" class="edge">
<title>IconModule&#45;&gt;MdSpinnerComponent </title>
<path fill="none" stroke="#000000" stroke-dasharray="5,2" d="M176,-187.1061C176,-187.1061 176,-205.991 176,-205.991"/>
<polygon fill="#000000" stroke="#000000" points="172.5001,-205.9909 176,-215.991 179.5001,-205.991 172.5001,-205.9909"/>
</g>
</g>
</svg>
