<?xml version="1.0" encoding="UTF-8" standalone="no"?>
<!DOCTYPE svg PUBLIC "-//W3C//DTD SVG 1.1//EN"
 "http://www.w3.org/Graphics/SVG/1.1/DTD/svg11.dtd">
<!-- Generated by graphviz version 2.40.1 (20161225.0304)
 -->
<!-- Title: dependencies Pages: 1 -->
<svg width="711pt" height="284pt"
 viewBox="0.00 0.00 711.00 284.00" xmlns="http://www.w3.org/2000/svg" xmlns:xlink="http://www.w3.org/1999/xlink">
<g id="graph0" class="graph" transform="scale(1 1) rotate(0) translate(4 280)">
<title>dependencies</title>
<polygon fill="#ffffff" stroke="transparent" points="-4,4 -4,-280 707,-280 707,4 -4,4"/>
<text text-anchor="start" x="330.5091" y="-42.4" font-family="sans-serif" font-weight="bold" font-size="14.00" fill="#000000">Legend</text>
<polygon fill="#ffffb3" stroke="transparent" points="117.5,-10 117.5,-30 137.5,-30 137.5,-10 117.5,-10"/>
<text text-anchor="start" x="141.129" y="-15.4" font-family="sans-serif" font-size="14.00" fill="#000000"> &#160;Declarations</text>
<polygon fill="#8dd3c7" stroke="transparent" points="230.5,-10 230.5,-30 250.5,-30 250.5,-10 230.5,-10"/>
<text text-anchor="start" x="254.2251" y="-15.4" font-family="sans-serif" font-size="14.00" fill="#000000"> &#160;Module</text>
<polygon fill="#80b1d3" stroke="transparent" points="316.5,-10 316.5,-30 336.5,-30 336.5,-10 316.5,-10"/>
<text text-anchor="start" x="340.2812" y="-15.4" font-family="sans-serif" font-size="14.00" fill="#000000"> &#160;Bootstrap</text>
<polygon fill="#fdb462" stroke="transparent" points="413.5,-10 413.5,-30 433.5,-30 433.5,-10 413.5,-10"/>
<text text-anchor="start" x="437.1732" y="-15.4" font-family="sans-serif" font-size="14.00" fill="#000000"> &#160;Providers</text>
<polygon fill="#fb8072" stroke="transparent" points="509.5,-10 509.5,-30 529.5,-30 529.5,-10 509.5,-10"/>
<text text-anchor="start" x="533.2258" y="-15.4" font-family="sans-serif" font-size="14.00" fill="#000000"> &#160;Exports</text>
<g id="clust1" class="cluster">
<title>cluster_ProductDrawerModule</title>
<polygon fill="none" stroke="#000000" stroke-dasharray="1,5" points="8,-70 8,-268 695,-268 695,-70 8,-70"/>
</g>
<g id="clust2" class="cluster">
<title>cluster_ProductDrawerModule_declarations</title>
<polygon fill="none" stroke="#000000" points="324,-78 324,-130 687,-130 687,-78 324,-78"/>
</g>
<g id="clust5" class="cluster">
<title>cluster_ProductDrawerModule_imports</title>
<polygon fill="none" stroke="#000000" points="16,-78 16,-130 316,-130 316,-78 16,-78"/>
</g>
<g id="clust6" class="cluster">
<title>cluster_ProductDrawerModule_exports</title>
<polygon fill="none" stroke="#000000" points="233,-208 233,-260 419,-260 419,-208 233,-208"/>
</g>
<!-- ProductDrawerComponent -->
<g id="node1" class="node">
<title>ProductDrawerComponent</title>
<polygon fill="#ffffb3" stroke="#000000" points="679.3445,-122 512.6555,-122 512.6555,-86 679.3445,-86 679.3445,-122"/>
<text text-anchor="middle" x="596" y="-99.8" font-family="Times,serif" font-size="14.00" fill="#000000">ProductDrawerComponent</text>
</g>
<!-- ProductDrawerModule -->
<g id="node3" class="node">
<title>ProductDrawerModule</title>
<polygon fill="#8dd3c7" stroke="#000000" points="398.5618,-187 395.5618,-191 374.5618,-191 371.5618,-187 253.4382,-187 253.4382,-151 398.5618,-151 398.5618,-187"/>
<text text-anchor="middle" x="326" y="-164.8" font-family="Times,serif" font-size="14.00" fill="#000000">ProductDrawerModule</text>
</g>
<!-- ProductDrawerComponent&#45;&gt;ProductDrawerModule -->
<g id="edge1" class="edge">
<title>ProductDrawerComponent&#45;&gt;ProductDrawerModule</title>
<path fill="none" stroke="#000000" d="M596,-122.1061C596,-141.3391 596,-169 596,-169 596,-169 408.7102,-169 408.7102,-169"/>
<polygon fill="#000000" stroke="#000000" points="408.7103,-165.5001 398.7102,-169 408.7102,-172.5001 408.7103,-165.5001"/>
</g>
<!-- SuperChevronComponent -->
<g id="node2" class="node">
<title>SuperChevronComponent</title>
<polygon fill="#ffffb3" stroke="#000000" points="494.2021,-122 331.7979,-122 331.7979,-86 494.2021,-86 494.2021,-122"/>
<text text-anchor="middle" x="413" y="-99.8" font-family="Times,serif" font-size="14.00" fill="#000000">SuperChevronComponent</text>
</g>
<!-- SuperChevronComponent&#45;&gt;ProductDrawerModule -->
<g id="edge2" class="edge">
<title>SuperChevronComponent&#45;&gt;ProductDrawerModule</title>
<path fill="none" stroke="#000000" d="M365.215,-122.1061C365.215,-122.1061 365.215,-140.991 365.215,-140.991"/>
<polygon fill="#000000" stroke="#000000" points="361.715,-140.9909 365.215,-150.991 368.715,-140.991 361.715,-140.9909"/>
</g>
<!-- ProductDrawerComponent  -->
<g id="node6" class="node">
<title>ProductDrawerComponent </title>
<polygon fill="#fb8072" stroke="#000000" points="411.3447,-252 240.6553,-252 240.6553,-216 411.3447,-216 411.3447,-252"/>
<text text-anchor="middle" x="326" y="-229.8" font-family="Times,serif" font-size="14.00" fill="#000000">ProductDrawerComponent </text>
</g>
<!-- ProductDrawerModule&#45;&gt;ProductDrawerComponent  -->
<g id="edge5" class="edge">
<title>ProductDrawerModule&#45;&gt;ProductDrawerComponent </title>
<path fill="none" stroke="#000000" stroke-dasharray="5,2" d="M326,-187.1061C326,-187.1061 326,-205.991 326,-205.991"/>
<polygon fill="#000000" stroke="#000000" points="322.5001,-205.9909 326,-215.991 329.5001,-205.991 322.5001,-205.9909"/>
</g>
<!-- BatchActionsModule -->
<g id="node4" class="node">
<title>BatchActionsModule</title>
<polygon fill="#8dd3c7" stroke="#000000" points="307.7534,-122 304.7534,-126 283.7534,-126 280.7534,-122 172.2466,-122 172.2466,-86 307.7534,-86 307.7534,-122"/>
<text text-anchor="middle" x="240" y="-99.8" font-family="Times,serif" font-size="14.00" fill="#000000">BatchActionsModule</text>
</g>
<!-- BatchActionsModule&#45;&gt;ProductDrawerModule -->
<g id="edge3" class="edge">
<title>BatchActionsModule&#45;&gt;ProductDrawerModule</title>
<path fill="none" stroke="#000000" d="M280.6729,-122.1061C280.6729,-122.1061 280.6729,-140.991 280.6729,-140.991"/>
<polygon fill="#000000" stroke="#000000" points="277.1729,-140.9909 280.6729,-150.991 284.1729,-140.991 277.1729,-140.9909"/>
</g>
<!-- ProductCardModule -->
<g id="node5" class="node">
<title>ProductCardModule</title>
<polygon fill="#8dd3c7" stroke="#000000" points="154.3104,-122 151.3104,-126 130.3104,-126 127.3104,-122 23.6896,-122 23.6896,-86 154.3104,-86 154.3104,-122"/>
<text text-anchor="middle" x="89" y="-99.8" font-family="Times,serif" font-size="14.00" fill="#000000">ProductCardModule</text>
</g>
<!-- ProductCardModule&#45;&gt;ProductDrawerModule -->
<g id="edge4" class="edge">
<title>ProductCardModule&#45;&gt;ProductDrawerModule</title>
<path fill="none" stroke="#000000" d="M89,-122.1061C89,-141.3391 89,-169 89,-169 89,-169 243.2816,-169 243.2816,-169"/>
<polygon fill="#000000" stroke="#000000" points="243.2816,-172.5001 253.2816,-169 243.2815,-165.5001 243.2816,-172.5001"/>
</g>
</g>
</svg>
