<?xml version="1.0" encoding="UTF-8" standalone="no"?>
<!DOCTYPE svg PUBLIC "-//W3C//DTD SVG 1.1//EN"
 "http://www.w3.org/Graphics/SVG/1.1/DTD/svg11.dtd">
<!-- Generated by graphviz version 2.40.1 (20161225.0304)
 -->
<!-- Title: dependencies Pages: 1 -->
<svg width="530pt" height="284pt"
 viewBox="0.00 0.00 530.00 284.00" xmlns="http://www.w3.org/2000/svg" xmlns:xlink="http://www.w3.org/1999/xlink">
<g id="graph0" class="graph" transform="scale(1 1) rotate(0) translate(4 280)">
<title>dependencies</title>
<polygon fill="#ffffff" stroke="transparent" points="-4,4 -4,-280 526,-280 526,4 -4,4"/>
<text text-anchor="start" x="240.0091" y="-42.4" font-family="sans-serif" font-weight="bold" font-size="14.00" fill="#000000">Legend</text>
<polygon fill="#ffffb3" stroke="transparent" points="27,-10 27,-30 47,-30 47,-10 27,-10"/>
<text text-anchor="start" x="50.629" y="-15.4" font-family="sans-serif" font-size="14.00" fill="#000000"> &#160;Declarations</text>
<polygon fill="#8dd3c7" stroke="transparent" points="140,-10 140,-30 160,-30 160,-10 140,-10"/>
<text text-anchor="start" x="163.7251" y="-15.4" font-family="sans-serif" font-size="14.00" fill="#000000"> &#160;Module</text>
<polygon fill="#80b1d3" stroke="transparent" points="226,-10 226,-30 246,-30 246,-10 226,-10"/>
<text text-anchor="start" x="249.7812" y="-15.4" font-family="sans-serif" font-size="14.00" fill="#000000"> &#160;Bootstrap</text>
<polygon fill="#fdb462" stroke="transparent" points="323,-10 323,-30 343,-30 343,-10 323,-10"/>
<text text-anchor="start" x="346.6732" y="-15.4" font-family="sans-serif" font-size="14.00" fill="#000000"> &#160;Providers</text>
<polygon fill="#fb8072" stroke="transparent" points="419,-10 419,-30 439,-30 439,-10 419,-10"/>
<text text-anchor="start" x="442.7258" y="-15.4" font-family="sans-serif" font-size="14.00" fill="#000000"> &#160;Exports</text>
<g id="clust1" class="cluster">
<title>cluster_ProductDrawerModule</title>
<polygon fill="none" stroke="#000000" stroke-dasharray="1,5" points="8,-70 8,-268 514,-268 514,-70 8,-70"/>
</g>
<g id="clust2" class="cluster">
<title>cluster_ProductDrawerModule_declarations</title>
<polygon fill="none" stroke="#000000" points="324,-78 324,-130 506,-130 506,-78 324,-78"/>
</g>
<g id="clust4" class="cluster">
<title>cluster_ProductDrawerModule_imports</title>
<polygon fill="none" stroke="#000000" points="16,-78 16,-130 316,-130 316,-78 16,-78"/>
</g>
<g id="clust5" class="cluster">
<title>cluster_ProductDrawerModule_exports</title>
<polygon fill="none" stroke="#000000" points="147,-208 147,-260 333,-260 333,-208 147,-208"/>
</g>
<!-- ProductDrawerComponent -->
<g id="node1" class="node">
<title>ProductDrawerComponent</title>
<polygon fill="#ffffb3" stroke="#000000" points="498.3445,-122 331.6555,-122 331.6555,-86 498.3445,-86 498.3445,-122"/>
<text text-anchor="middle" x="415" y="-99.8" font-family="Times,serif" font-size="14.00" fill="#000000">ProductDrawerComponent</text>
</g>
<!-- ProductDrawerModule -->
<g id="node2" class="node">
<title>ProductDrawerModule</title>
<polygon fill="#8dd3c7" stroke="#000000" points="312.5618,-187 309.5618,-191 288.5618,-191 285.5618,-187 167.4382,-187 167.4382,-151 312.5618,-151 312.5618,-187"/>
<text text-anchor="middle" x="240" y="-164.8" font-family="Times,serif" font-size="14.00" fill="#000000">ProductDrawerModule</text>
</g>
<!-- ProductDrawerComponent&#45;&gt;ProductDrawerModule -->
<g id="edge1" class="edge">
<title>ProductDrawerComponent&#45;&gt;ProductDrawerModule</title>
<path fill="none" stroke="#000000" d="M415,-122.1061C415,-141.3391 415,-169 415,-169 415,-169 322.6954,-169 322.6954,-169"/>
<polygon fill="#000000" stroke="#000000" points="322.6955,-165.5001 312.6954,-169 322.6954,-172.5001 322.6955,-165.5001"/>
</g>
<!-- ProductDrawerComponent  -->
<g id="node5" class="node">
<title>ProductDrawerComponent </title>
<polygon fill="#fb8072" stroke="#000000" points="325.3447,-252 154.6553,-252 154.6553,-216 325.3447,-216 325.3447,-252"/>
<text text-anchor="middle" x="240" y="-229.8" font-family="Times,serif" font-size="14.00" fill="#000000">ProductDrawerComponent </text>
</g>
<!-- ProductDrawerModule&#45;&gt;ProductDrawerComponent  -->
<g id="edge4" class="edge">
<title>ProductDrawerModule&#45;&gt;ProductDrawerComponent </title>
<path fill="none" stroke="#000000" stroke-dasharray="5,2" d="M240,-187.1061C240,-187.1061 240,-205.991 240,-205.991"/>
<polygon fill="#000000" stroke="#000000" points="236.5001,-205.9909 240,-215.991 243.5001,-205.991 236.5001,-205.9909"/>
</g>
<!-- BatchActionsModule -->
<g id="node3" class="node">
<title>BatchActionsModule</title>
<polygon fill="#8dd3c7" stroke="#000000" points="307.7534,-122 304.7534,-126 283.7534,-126 280.7534,-122 172.2466,-122 172.2466,-86 307.7534,-86 307.7534,-122"/>
<text text-anchor="middle" x="240" y="-99.8" font-family="Times,serif" font-size="14.00" fill="#000000">BatchActionsModule</text>
</g>
<!-- BatchActionsModule&#45;&gt;ProductDrawerModule -->
<g id="edge2" class="edge">
<title>BatchActionsModule&#45;&gt;ProductDrawerModule</title>
<path fill="none" stroke="#000000" d="M240,-122.1061C240,-122.1061 240,-140.991 240,-140.991"/>
<polygon fill="#000000" stroke="#000000" points="236.5001,-140.9909 240,-150.991 243.5001,-140.991 236.5001,-140.9909"/>
</g>
<!-- ProductCardModule -->
<g id="node4" class="node">
<title>ProductCardModule</title>
<polygon fill="#8dd3c7" stroke="#000000" points="154.3104,-122 151.3104,-126 130.3104,-126 127.3104,-122 23.6896,-122 23.6896,-86 154.3104,-86 154.3104,-122"/>
<text text-anchor="middle" x="89" y="-99.8" font-family="Times,serif" font-size="14.00" fill="#000000">ProductCardModule</text>
</g>
<!-- ProductCardModule&#45;&gt;ProductDrawerModule -->
<g id="edge3" class="edge">
<title>ProductCardModule&#45;&gt;ProductDrawerModule</title>
<path fill="none" stroke="#000000" d="M89,-122.1061C89,-141.3391 89,-169 89,-169 89,-169 157.1538,-169 157.1538,-169"/>
<polygon fill="#000000" stroke="#000000" points="157.1538,-172.5001 167.1538,-169 157.1538,-165.5001 157.1538,-172.5001"/>
</g>
</g>
</svg>
