<?xml version="1.0" encoding="UTF-8" standalone="no"?>
<!DOCTYPE svg PUBLIC "-//W3C//DTD SVG 1.1//EN"
 "http://www.w3.org/Graphics/SVG/1.1/DTD/svg11.dtd">
<!-- Generated by graphviz version 2.40.1 (20161225.0304)
 -->
<!-- Title: dependencies Pages: 1 -->
<svg width="504pt" height="284pt"
 viewBox="0.00 0.00 504.00 284.00" xmlns="http://www.w3.org/2000/svg" xmlns:xlink="http://www.w3.org/1999/xlink">
<g id="graph0" class="graph" transform="scale(1 1) rotate(0) translate(4 280)">
<title>dependencies</title>
<polygon fill="#ffffff" stroke="transparent" points="-4,4 -4,-280 500,-280 500,4 -4,4"/>
<text text-anchor="start" x="227.0091" y="-42.4" font-family="sans-serif" font-weight="bold" font-size="14.00" fill="#000000">Legend</text>
<polygon fill="#ffffb3" stroke="transparent" points="14,-10 14,-30 34,-30 34,-10 14,-10"/>
<text text-anchor="start" x="37.629" y="-15.4" font-family="sans-serif" font-size="14.00" fill="#000000"> &#160;Declarations</text>
<polygon fill="#8dd3c7" stroke="transparent" points="127,-10 127,-30 147,-30 147,-10 127,-10"/>
<text text-anchor="start" x="150.7251" y="-15.4" font-family="sans-serif" font-size="14.00" fill="#000000"> &#160;Module</text>
<polygon fill="#80b1d3" stroke="transparent" points="213,-10 213,-30 233,-30 233,-10 213,-10"/>
<text text-anchor="start" x="236.7812" y="-15.4" font-family="sans-serif" font-size="14.00" fill="#000000"> &#160;Bootstrap</text>
<polygon fill="#fdb462" stroke="transparent" points="310,-10 310,-30 330,-30 330,-10 310,-10"/>
<text text-anchor="start" x="333.6732" y="-15.4" font-family="sans-serif" font-size="14.00" fill="#000000"> &#160;Providers</text>
<polygon fill="#fb8072" stroke="transparent" points="406,-10 406,-30 426,-30 426,-10 406,-10"/>
<text text-anchor="start" x="429.7258" y="-15.4" font-family="sans-serif" font-size="14.00" fill="#000000"> &#160;Exports</text>
<g id="clust1" class="cluster">
<title>cluster_ProductDrawerModule</title>
<polygon fill="none" stroke="#000000" stroke-dasharray="1,5" points="69,-70 69,-268 427,-268 427,-70 69,-70"/>
</g>
<g id="clust2" class="cluster">
<title>cluster_ProductDrawerModule_declarations</title>
<polygon fill="none" stroke="#000000" points="237,-78 237,-130 419,-130 419,-78 237,-78"/>
</g>
<g id="clust4" class="cluster">
<title>cluster_ProductDrawerModule_imports</title>
<polygon fill="none" stroke="#000000" points="77,-78 77,-130 229,-130 229,-78 77,-78"/>
</g>
<g id="clust5" class="cluster">
<title>cluster_ProductDrawerModule_exports</title>
<polygon fill="none" stroke="#000000" points="155,-208 155,-260 341,-260 341,-208 155,-208"/>
</g>
<!-- ProductDrawerComponent -->
<g id="node1" class="node">
<title>ProductDrawerComponent</title>
<polygon fill="#ffffb3" stroke="#000000" points="411.3445,-122 244.6555,-122 244.6555,-86 411.3445,-86 411.3445,-122"/>
<text text-anchor="middle" x="328" y="-99.8" font-family="Times,serif" font-size="14.00" fill="#000000">ProductDrawerComponent</text>
</g>
<!-- ProductDrawerModule -->
<g id="node2" class="node">
<title>ProductDrawerModule</title>
<polygon fill="#8dd3c7" stroke="#000000" points="320.5618,-187 317.5618,-191 296.5618,-191 293.5618,-187 175.4382,-187 175.4382,-151 320.5618,-151 320.5618,-187"/>
<text text-anchor="middle" x="248" y="-164.8" font-family="Times,serif" font-size="14.00" fill="#000000">ProductDrawerModule</text>
</g>
<!-- ProductDrawerComponent&#45;&gt;ProductDrawerModule -->
<g id="edge1" class="edge">
<title>ProductDrawerComponent&#45;&gt;ProductDrawerModule</title>
<path fill="none" stroke="#000000" d="M282.5544,-122.1061C282.5544,-122.1061 282.5544,-140.991 282.5544,-140.991"/>
<polygon fill="#000000" stroke="#000000" points="279.0544,-140.9909 282.5544,-150.991 286.0544,-140.991 279.0544,-140.9909"/>
</g>
<!-- ProductDrawerComponent  -->
<g id="node4" class="node">
<title>ProductDrawerComponent </title>
<polygon fill="#fb8072" stroke="#000000" points="333.3447,-252 162.6553,-252 162.6553,-216 333.3447,-216 333.3447,-252"/>
<text text-anchor="middle" x="248" y="-229.8" font-family="Times,serif" font-size="14.00" fill="#000000">ProductDrawerComponent </text>
</g>
<!-- ProductDrawerModule&#45;&gt;ProductDrawerComponent  -->
<g id="edge3" class="edge">
<title>ProductDrawerModule&#45;&gt;ProductDrawerComponent </title>
<path fill="none" stroke="#000000" stroke-dasharray="5,2" d="M248,-187.1061C248,-187.1061 248,-205.991 248,-205.991"/>
<polygon fill="#000000" stroke="#000000" points="244.5001,-205.9909 248,-215.991 251.5001,-205.991 244.5001,-205.9909"/>
</g>
<!-- BatchActionsModule -->
<g id="node3" class="node">
<title>BatchActionsModule</title>
<polygon fill="#8dd3c7" stroke="#000000" points="220.7534,-122 217.7534,-126 196.7534,-126 193.7534,-122 85.2466,-122 85.2466,-86 220.7534,-86 220.7534,-122"/>
<text text-anchor="middle" x="153" y="-99.8" font-family="Times,serif" font-size="14.00" fill="#000000">BatchActionsModule</text>
</g>
<!-- BatchActionsModule&#45;&gt;ProductDrawerModule -->
<g id="edge2" class="edge">
<title>BatchActionsModule&#45;&gt;ProductDrawerModule</title>
<path fill="none" stroke="#000000" d="M198.1728,-122.1061C198.1728,-122.1061 198.1728,-140.991 198.1728,-140.991"/>
<polygon fill="#000000" stroke="#000000" points="194.6729,-140.9909 198.1728,-150.991 201.6729,-140.991 194.6729,-140.9909"/>
</g>
</g>
</svg>
