<?xml version="1.0" encoding="UTF-8" standalone="no"?>
<!DOCTYPE svg PUBLIC "-//W3C//DTD SVG 1.1//EN"
 "http://www.w3.org/Graphics/SVG/1.1/DTD/svg11.dtd">
<!-- Generated by graphviz version 2.40.1 (20161225.0304)
 -->
<!-- Title: dependencies Pages: 1 -->
<svg width="876pt" height="284pt"
 viewBox="0.00 0.00 876.00 284.00" xmlns="http://www.w3.org/2000/svg" xmlns:xlink="http://www.w3.org/1999/xlink">
<g id="graph0" class="graph" transform="scale(1 1) rotate(0) translate(4 280)">
<title>dependencies</title>
<polygon fill="#ffffff" stroke="transparent" points="-4,4 -4,-280 872,-280 872,4 -4,4"/>
<text text-anchor="start" x="413.0091" y="-42.4" font-family="sans-serif" font-weight="bold" font-size="14.00" fill="#000000">Legend</text>
<polygon fill="#ffffb3" stroke="transparent" points="200,-10 200,-30 220,-30 220,-10 200,-10"/>
<text text-anchor="start" x="223.629" y="-15.4" font-family="sans-serif" font-size="14.00" fill="#000000"> &#160;Declarations</text>
<polygon fill="#8dd3c7" stroke="transparent" points="313,-10 313,-30 333,-30 333,-10 313,-10"/>
<text text-anchor="start" x="336.7251" y="-15.4" font-family="sans-serif" font-size="14.00" fill="#000000"> &#160;Module</text>
<polygon fill="#80b1d3" stroke="transparent" points="399,-10 399,-30 419,-30 419,-10 399,-10"/>
<text text-anchor="start" x="422.7812" y="-15.4" font-family="sans-serif" font-size="14.00" fill="#000000"> &#160;Bootstrap</text>
<polygon fill="#fdb462" stroke="transparent" points="496,-10 496,-30 516,-30 516,-10 496,-10"/>
<text text-anchor="start" x="519.6732" y="-15.4" font-family="sans-serif" font-size="14.00" fill="#000000"> &#160;Providers</text>
<polygon fill="#fb8072" stroke="transparent" points="592,-10 592,-30 612,-30 612,-10 592,-10"/>
<text text-anchor="start" x="615.7258" y="-15.4" font-family="sans-serif" font-size="14.00" fill="#000000"> &#160;Exports</text>
<g id="clust1" class="cluster">
<title>cluster_ProductCardModule</title>
<polygon fill="none" stroke="#000000" stroke-dasharray="1,5" points="8,-70 8,-268 860,-268 860,-70 8,-70"/>
</g>
<g id="clust2" class="cluster">
<title>cluster_ProductCardModule_declarations</title>
<polygon fill="none" stroke="#000000" points="244,-78 244,-130 852,-130 852,-78 244,-78"/>
</g>
<g id="clust6" class="cluster">
<title>cluster_ProductCardModule_imports</title>
<polygon fill="none" stroke="#000000" points="16,-78 16,-130 236,-130 236,-78 16,-78"/>
</g>
<g id="clust7" class="cluster">
<title>cluster_ProductCardModule_exports</title>
<polygon fill="none" stroke="#000000" points="45,-208 45,-260 662,-260 662,-208 45,-208"/>
</g>
<!-- CompareProductCardComponent -->
<g id="node1" class="node">
<title>CompareProductCardComponent</title>
<polygon fill="#ffffb3" stroke="#000000" points="843.91,-122 640.09,-122 640.09,-86 843.91,-86 843.91,-122"/>
<text text-anchor="middle" x="742" y="-99.8" font-family="Times,serif" font-size="14.00" fill="#000000">CompareProductCardComponent</text>
</g>
<!-- ProductCardModule -->
<g id="node4" class="node">
<title>ProductCardModule</title>
<polygon fill="#8dd3c7" stroke="#000000" points="417.3104,-187 414.3104,-191 393.3104,-191 390.3104,-187 286.6896,-187 286.6896,-151 417.3104,-151 417.3104,-187"/>
<text text-anchor="middle" x="352" y="-164.8" font-family="Times,serif" font-size="14.00" fill="#000000">ProductCardModule</text>
</g>
<!-- CompareProductCardComponent&#45;&gt;ProductCardModule -->
<g id="edge1" class="edge">
<title>CompareProductCardComponent&#45;&gt;ProductCardModule</title>
<path fill="none" stroke="#000000" d="M647.375,-122.1061C647.375,-141.3391 647.375,-169 647.375,-169 647.375,-169 427.187,-169 427.187,-169"/>
<polygon fill="#000000" stroke="#000000" points="427.187,-165.5001 417.187,-169 427.1869,-172.5001 427.187,-165.5001"/>
</g>
<!-- ProductCardComponent -->
<g id="node2" class="node">
<title>ProductCardComponent</title>
<polygon fill="#ffffb3" stroke="#000000" points="622.0926,-122 469.9074,-122 469.9074,-86 622.0926,-86 622.0926,-122"/>
<text text-anchor="middle" x="546" y="-99.8" font-family="Times,serif" font-size="14.00" fill="#000000">ProductCardComponent</text>
</g>
<!-- ProductCardComponent&#45;&gt;ProductCardModule -->
<g id="edge2" class="edge">
<title>ProductCardComponent&#45;&gt;ProductCardModule</title>
<path fill="none" stroke="#000000" d="M546,-122.027C546,-138.3976 546,-160 546,-160 546,-160 427.4091,-160 427.4091,-160"/>
<polygon fill="#000000" stroke="#000000" points="427.4091,-156.5001 417.4091,-160 427.4091,-163.5001 427.4091,-156.5001"/>
</g>
<!-- SelectedProductCardComponent -->
<g id="node3" class="node">
<title>SelectedProductCardComponent</title>
<polygon fill="#ffffb3" stroke="#000000" points="451.5154,-122 252.4846,-122 252.4846,-86 451.5154,-86 451.5154,-122"/>
<text text-anchor="middle" x="352" y="-99.8" font-family="Times,serif" font-size="14.00" fill="#000000">SelectedProductCardComponent</text>
</g>
<!-- SelectedProductCardComponent&#45;&gt;ProductCardModule -->
<g id="edge3" class="edge">
<title>SelectedProductCardComponent&#45;&gt;ProductCardModule</title>
<path fill="none" stroke="#000000" d="M352,-122.1061C352,-122.1061 352,-140.991 352,-140.991"/>
<polygon fill="#000000" stroke="#000000" points="348.5001,-140.9909 352,-150.991 355.5001,-140.991 348.5001,-140.9909"/>
</g>
<!-- CompareProductCardComponent  -->
<g id="node7" class="node">
<title>CompareProductCardComponent </title>
<polygon fill="#fb8072" stroke="#000000" points="654.4096,-252 447.5904,-252 447.5904,-216 654.4096,-216 654.4096,-252"/>
<text text-anchor="middle" x="551" y="-229.8" font-family="Times,serif" font-size="14.00" fill="#000000">CompareProductCardComponent </text>
</g>
<!-- ProductCardModule&#45;&gt;CompareProductCardComponent  -->
<g id="edge6" class="edge">
<title>ProductCardModule&#45;&gt;CompareProductCardComponent </title>
<path fill="none" stroke="#000000" stroke-dasharray="5,2" d="M417.2071,-178C440.3903,-178 460.8556,-178 460.8556,-178 460.8556,-178 460.8556,-205.973 460.8556,-205.973"/>
<polygon fill="#000000" stroke="#000000" points="457.3556,-205.973 460.8556,-215.973 464.3556,-205.973 457.3556,-205.973"/>
</g>
<!-- ProductCardComponent  -->
<g id="node8" class="node">
<title>ProductCardComponent </title>
<polygon fill="#fb8072" stroke="#000000" points="429.5931,-252 274.4069,-252 274.4069,-216 429.5931,-216 429.5931,-252"/>
<text text-anchor="middle" x="352" y="-229.8" font-family="Times,serif" font-size="14.00" fill="#000000">ProductCardComponent </text>
</g>
<!-- ProductCardModule&#45;&gt;ProductCardComponent  -->
<g id="edge7" class="edge">
<title>ProductCardModule&#45;&gt;ProductCardComponent </title>
<path fill="none" stroke="#000000" stroke-dasharray="5,2" d="M352,-187.1061C352,-187.1061 352,-205.991 352,-205.991"/>
<polygon fill="#000000" stroke="#000000" points="348.5001,-205.9909 352,-215.991 355.5001,-205.991 348.5001,-205.9909"/>
</g>
<!-- SelectedProductCardComponent  -->
<g id="node9" class="node">
<title>SelectedProductCardComponent </title>
<polygon fill="#fb8072" stroke="#000000" points="256.5148,-252 53.4852,-252 53.4852,-216 256.5148,-216 256.5148,-252"/>
<text text-anchor="middle" x="155" y="-229.8" font-family="Times,serif" font-size="14.00" fill="#000000">SelectedProductCardComponent </text>
</g>
<!-- ProductCardModule&#45;&gt;SelectedProductCardComponent  -->
<g id="edge8" class="edge">
<title>ProductCardModule&#45;&gt;SelectedProductCardComponent </title>
<path fill="none" stroke="#000000" stroke-dasharray="5,2" d="M286.5474,-178C262.0463,-178 240.0382,-178 240.0382,-178 240.0382,-178 240.0382,-205.973 240.0382,-205.973"/>
<polygon fill="#000000" stroke="#000000" points="236.5383,-205.973 240.0382,-215.973 243.5383,-205.973 236.5383,-205.973"/>
</g>
<!-- ButtonModule -->
<g id="node5" class="node">
<title>ButtonModule</title>
<polygon fill="#8dd3c7" stroke="#000000" points="227.6682,-122 224.6682,-126 203.6682,-126 200.6682,-122 130.3318,-122 130.3318,-86 227.6682,-86 227.6682,-122"/>
<text text-anchor="middle" x="179" y="-99.8" font-family="Times,serif" font-size="14.00" fill="#000000">ButtonModule</text>
</g>
<!-- ButtonModule&#45;&gt;ProductCardModule -->
<g id="edge4" class="edge">
<title>ButtonModule&#45;&gt;ProductCardModule</title>
<path fill="none" stroke="#000000" d="M179,-122.027C179,-138.3976 179,-160 179,-160 179,-160 276.5961,-160 276.5961,-160"/>
<polygon fill="#000000" stroke="#000000" points="276.5962,-163.5001 286.5961,-160 276.5961,-156.5001 276.5962,-163.5001"/>
</g>
<!-- PriceModule -->
<g id="node6" class="node">
<title>PriceModule</title>
<polygon fill="#8dd3c7" stroke="#000000" points="112.3134,-122 109.3134,-126 88.3134,-126 85.3134,-122 23.6866,-122 23.6866,-86 112.3134,-86 112.3134,-122"/>
<text text-anchor="middle" x="68" y="-99.8" font-family="Times,serif" font-size="14.00" fill="#000000">PriceModule</text>
</g>
<!-- PriceModule&#45;&gt;ProductCardModule -->
<g id="edge5" class="edge">
<title>PriceModule&#45;&gt;ProductCardModule</title>
<path fill="none" stroke="#000000" d="M82.8245,-122.1061C82.8245,-141.3391 82.8245,-169 82.8245,-169 82.8245,-169 276.8401,-169 276.8401,-169"/>
<polygon fill="#000000" stroke="#000000" points="276.8402,-172.5001 286.8401,-169 276.8401,-165.5001 276.8402,-172.5001"/>
</g>
</g>
</svg>
