<?xml version="1.0" encoding="UTF-8" standalone="no"?>
<!DOCTYPE svg PUBLIC "-//W3C//DTD SVG 1.1//EN"
 "http://www.w3.org/Graphics/SVG/1.1/DTD/svg11.dtd">
<!-- Generated by graphviz version 2.40.1 (20161225.0304)
 -->
<!-- Title: dependencies Pages: 1 -->
<svg width="6177pt" height="431pt"
 viewBox="0.00 0.00 6177.00 431.00" xmlns="http://www.w3.org/2000/svg" xmlns:xlink="http://www.w3.org/1999/xlink">
<g id="graph0" class="graph" transform="scale(1 1) rotate(0) translate(4 427)">
<title>dependencies</title>
<polygon fill="#ffffff" stroke="transparent" points="-4,4 -4,-427 6173,-427 6173,4 -4,4"/>
<text text-anchor="start" x="3063.5091" y="-42.4" font-family="sans-serif" font-weight="bold" font-size="14.00" fill="#000000">Legend</text>
<polygon fill="#ffffb3" stroke="transparent" points="2850.5,-10 2850.5,-30 2870.5,-30 2870.5,-10 2850.5,-10"/>
<text text-anchor="start" x="2874.129" y="-15.4" font-family="sans-serif" font-size="14.00" fill="#000000"> &#160;Declarations</text>
<polygon fill="#8dd3c7" stroke="transparent" points="2963.5,-10 2963.5,-30 2983.5,-30 2983.5,-10 2963.5,-10"/>
<text text-anchor="start" x="2987.2251" y="-15.4" font-family="sans-serif" font-size="14.00" fill="#000000"> &#160;Module</text>
<polygon fill="#80b1d3" stroke="transparent" points="3049.5,-10 3049.5,-30 3069.5,-30 3069.5,-10 3049.5,-10"/>
<text text-anchor="start" x="3073.2812" y="-15.4" font-family="sans-serif" font-size="14.00" fill="#000000"> &#160;Bootstrap</text>
<polygon fill="#fdb462" stroke="transparent" points="3146.5,-10 3146.5,-30 3166.5,-30 3166.5,-10 3146.5,-10"/>
<text text-anchor="start" x="3170.1732" y="-15.4" font-family="sans-serif" font-size="14.00" fill="#000000"> &#160;Providers</text>
<polygon fill="#fb8072" stroke="transparent" points="3242.5,-10 3242.5,-30 3262.5,-30 3262.5,-10 3242.5,-10"/>
<text text-anchor="start" x="3266.2258" y="-15.4" font-family="sans-serif" font-size="14.00" fill="#000000"> &#160;Exports</text>
<g id="clust1" class="cluster">
<title>cluster_CartModule</title>
<polygon fill="none" stroke="#000000" stroke-dasharray="1,5" points="2935,-70 2935,-347 3391,-347 3391,-70 2935,-70"/>
</g>
<g id="clust2" class="cluster">
<title>cluster_CartModule_declarations</title>
<polygon fill="none" stroke="#000000" points="3071,-143 3071,-195 3383,-195 3383,-143 3071,-143"/>
</g>
<g id="clust5" class="cluster">
<title>cluster_CartModule_imports</title>
<polygon fill="none" stroke="#000000" points="2943,-78 2943,-195 3059,-195 3059,-78 2943,-78"/>
</g>
<g id="clust6" class="cluster">
<title>cluster_CartModule_exports</title>
<polygon fill="none" stroke="#000000" points="2964,-287 2964,-339 3282,-339 3282,-287 2964,-287"/>
</g>
<g id="clust9" class="cluster">
<title>cluster_CatalogModule</title>
<polygon fill="none" stroke="#000000" stroke-dasharray="1,5" points="8,-211 8,-415 945,-415 945,-211 8,-211"/>
</g>
<g id="clust10" class="cluster">
<title>cluster_CatalogModule_declarations</title>
<polygon fill="none" stroke="#000000" points="34,-219 34,-271 937,-271 937,-219 34,-219"/>
</g>
<g id="clust17" class="cluster">
<title>cluster_CatalogModule_exports</title>
<polygon fill="none" stroke="#000000" points="16,-355 16,-407 937,-407 937,-355 16,-355"/>
</g>
<g id="clust26" class="cluster">
<title>cluster_PricingModule</title>
<polygon fill="none" stroke="#000000" stroke-dasharray="1,5" points="3399,-135 3399,-203 6161,-203 6161,-135 3399,-135"/>
</g>
<g id="clust27" class="cluster">
<title>cluster_PricingModule_declarations</title>
<polygon fill="none" stroke="#000000" points="4801,-143 4801,-195 6153,-195 6153,-143 4801,-143"/>
</g>
<g id="clust39" class="cluster">
<title>cluster_PricingModule_exports</title>
<polygon fill="none" stroke="#000000" points="3407,-143 3407,-195 4793,-195 4793,-143 3407,-143"/>
</g>
<g id="clust42" class="cluster">
<title>cluster_StoreModule</title>
<polygon fill="none" stroke="#000000" stroke-dasharray="1,5" points="953,-211 953,-279 2927,-279 2927,-211 953,-211"/>
</g>
<g id="clust43" class="cluster">
<title>cluster_StoreModule_declarations</title>
<polygon fill="none" stroke="#000000" points="1954,-219 1954,-271 2919,-271 2919,-219 1954,-219"/>
</g>
<g id="clust51" class="cluster">
<title>cluster_StoreModule_exports</title>
<polygon fill="none" stroke="#000000" points="961,-219 961,-271 1946,-271 1946,-219 961,-219"/>
</g>
<!-- AddToCartComponent -->
<g id="node1" class="node">
<title>AddToCartComponent</title>
<polygon fill="#ffffb3" stroke="#000000" points="3374.594,-187 3229.406,-187 3229.406,-151 3374.594,-151 3374.594,-187"/>
<text text-anchor="middle" x="3302" y="-164.8" font-family="Times,serif" font-size="14.00" fill="#000000">AddToCartComponent</text>
</g>
<!-- CartModule -->
<g id="node3" class="node">
<title>CartModule</title>
<polygon fill="#8dd3c7" stroke="#000000" points="3101.6529,-263 3098.6529,-267 3077.6529,-267 3074.6529,-263 3018.3471,-263 3018.3471,-227 3101.6529,-227 3101.6529,-263"/>
<text text-anchor="middle" x="3060" y="-240.8" font-family="Times,serif" font-size="14.00" fill="#000000">CartModule</text>
</g>
<!-- AddToCartComponent&#45;&gt;CartModule -->
<g id="edge1" class="edge">
<title>AddToCartComponent&#45;&gt;CartModule</title>
<path fill="none" stroke="#000000" d="M3251.875,-187.0267C3251.875,-207.7672 3251.875,-239 3251.875,-239 3251.875,-239 3112.1078,-239 3112.1078,-239"/>
<polygon fill="#000000" stroke="#000000" points="3112.1078,-235.5001 3102.1078,-239 3112.1077,-242.5001 3112.1078,-235.5001"/>
</g>
<!-- MiniCartComponent -->
<g id="node2" class="node">
<title>MiniCartComponent</title>
<polygon fill="#ffffb3" stroke="#000000" points="3211.161,-187 3078.839,-187 3078.839,-151 3211.161,-151 3211.161,-187"/>
<text text-anchor="middle" x="3145" y="-164.8" font-family="Times,serif" font-size="14.00" fill="#000000">MiniCartComponent</text>
</g>
<!-- MiniCartComponent&#45;&gt;CartModule -->
<g id="edge2" class="edge">
<title>MiniCartComponent&#45;&gt;CartModule</title>
<path fill="none" stroke="#000000" d="M3090.2479,-187.0109C3090.2479,-187.0109 3090.2479,-216.855 3090.2479,-216.855"/>
<polygon fill="#000000" stroke="#000000" points="3086.748,-216.8549 3090.2479,-226.855 3093.748,-216.855 3086.748,-216.8549"/>
</g>
<!-- AddToCartComponent  -->
<g id="node6" class="node">
<title>AddToCartComponent </title>
<polygon fill="#fb8072" stroke="#000000" points="3274.0946,-331 3125.9054,-331 3125.9054,-295 3274.0946,-295 3274.0946,-331"/>
<text text-anchor="middle" x="3200" y="-308.8" font-family="Times,serif" font-size="14.00" fill="#000000">AddToCartComponent </text>
</g>
<!-- CartModule&#45;&gt;AddToCartComponent  -->
<g id="edge5" class="edge">
<title>CartModule&#45;&gt;AddToCartComponent </title>
<path fill="none" stroke="#000000" stroke-dasharray="5,2" d="M3101.9554,-251C3132.4919,-251 3168.5167,-251 3168.5167,-251 3168.5167,-251 3168.5167,-284.7333 3168.5167,-284.7333"/>
<polygon fill="#000000" stroke="#000000" points="3165.0167,-284.7333 3168.5167,-294.7333 3172.0167,-284.7333 3165.0167,-284.7333"/>
</g>
<!-- MiniCartComponent  -->
<g id="node7" class="node">
<title>MiniCartComponent </title>
<polygon fill="#fb8072" stroke="#000000" points="3108.1607,-331 2971.8393,-331 2971.8393,-295 3108.1607,-295 3108.1607,-331"/>
<text text-anchor="middle" x="3040" y="-308.8" font-family="Times,serif" font-size="14.00" fill="#000000">MiniCartComponent </text>
</g>
<!-- CartModule&#45;&gt;MiniCartComponent  -->
<g id="edge6" class="edge">
<title>CartModule&#45;&gt;MiniCartComponent </title>
<path fill="none" stroke="#000000" stroke-dasharray="5,2" d="M3060,-263.2228C3060,-263.2228 3060,-284.7269 3060,-284.7269"/>
<polygon fill="#000000" stroke="#000000" points="3056.5001,-284.7269 3060,-294.7269 3063.5001,-284.727 3056.5001,-284.7269"/>
</g>
<!-- CatalogModule -->
<g id="node13" class="node">
<title>CatalogModule</title>
<polygon fill="#8dd3c7" stroke="#000000" points="550.5968,-331 547.5968,-335 526.5968,-335 523.5968,-331 447.4032,-331 447.4032,-295 550.5968,-295 550.5968,-331"/>
<text text-anchor="middle" x="499" y="-308.8" font-family="Times,serif" font-size="14.00" fill="#000000">CatalogModule</text>
</g>
<!-- CartModule&#45;&gt;CatalogModule -->
<g id="edge12" class="edge">
<title>CartModule&#45;&gt;CatalogModule</title>
<path fill="none" stroke="#000000" d="M3018.0978,-251C2992.6745,-251 2965.0968,-251 2965.0968,-251 2965.0968,-251 2965.0968,-316 2965.0968,-316 2965.0968,-316 560.7921,-316 560.7921,-316"/>
<polygon fill="#000000" stroke="#000000" points="560.7921,-312.5001 550.7921,-316 560.792,-319.5001 560.7921,-312.5001"/>
</g>
<!-- PricingModule -->
<g id="node4" class="node">
<title>PricingModule</title>
<polygon fill="#8dd3c7" stroke="#000000" points="3050.9888,-122 3047.9888,-126 3026.9888,-126 3023.9888,-122 2951.0112,-122 2951.0112,-86 3050.9888,-86 3050.9888,-122"/>
<text text-anchor="middle" x="3001" y="-99.8" font-family="Times,serif" font-size="14.00" fill="#000000">PricingModule</text>
</g>
<!-- PricingModule&#45;&gt;CartModule -->
<g id="edge3" class="edge">
<title>PricingModule&#45;&gt;CartModule</title>
<path fill="none" stroke="#000000" d="M3045.7718,-122.1446C3045.7718,-122.1446 3045.7718,-216.925 3045.7718,-216.925"/>
<polygon fill="#000000" stroke="#000000" points="3042.2718,-216.925 3045.7718,-226.925 3049.2718,-216.925 3042.2718,-216.925"/>
</g>
<!-- StoreModule -->
<g id="node5" class="node">
<title>StoreModule</title>
<polygon fill="#8dd3c7" stroke="#000000" points="3040.5983,-187 3037.5983,-191 3016.5983,-191 3013.5983,-187 2951.4017,-187 2951.4017,-151 3040.5983,-151 3040.5983,-187"/>
<text text-anchor="middle" x="2996" y="-164.8" font-family="Times,serif" font-size="14.00" fill="#000000">StoreModule</text>
</g>
<!-- PricingModule&#45;&gt;StoreModule -->
<g id="edge45" class="edge">
<title>PricingModule&#45;&gt;StoreModule</title>
<path fill="none" stroke="#000000" d="M2996,-122.1061C2996,-122.1061 2996,-140.991 2996,-140.991"/>
<polygon fill="#000000" stroke="#000000" points="2992.5001,-140.9909 2996,-150.991 2999.5001,-140.991 2992.5001,-140.9909"/>
</g>
<!-- PricingModule&#45;&gt;CatalogModule -->
<g id="edge13" class="edge">
<title>PricingModule&#45;&gt;CatalogModule</title>
<path fill="none" stroke="#000000" d="M2950.7578,-104C2884.0628,-104 2774.6147,-104 2774.6147,-104 2774.6147,-104 2774.6147,-311 2774.6147,-311 2774.6147,-311 560.805,-311 560.805,-311"/>
<polygon fill="#000000" stroke="#000000" points="560.805,-307.5001 550.805,-311 560.805,-314.5001 560.805,-307.5001"/>
</g>
<!-- AttributeValuePricePipe  -->
<g id="node29" class="node">
<title>AttributeValuePricePipe </title>
<polygon fill="#fb8072" stroke="#000000" points="4784.6214,-187 4627.3786,-187 4627.3786,-151 4784.6214,-151 4784.6214,-187"/>
<text text-anchor="middle" x="4706" y="-164.8" font-family="Times,serif" font-size="14.00" fill="#000000">AttributeValuePricePipe </text>
</g>
<!-- PricingModule&#45;&gt;AttributeValuePricePipe  -->
<g id="edge29" class="edge">
<title>PricingModule&#45;&gt;AttributeValuePricePipe </title>
<path fill="none" stroke="#000000" stroke-dasharray="5,2" d="M3051.104,-105C3332.7314,-105 4706,-105 4706,-105 4706,-105 4706,-140.8314 4706,-140.8314"/>
<polygon fill="#000000" stroke="#000000" points="4702.5001,-140.8313 4706,-150.8314 4709.5001,-140.8314 4702.5001,-140.8313"/>
</g>
<!-- CartItemPricePipe  -->
<g id="node30" class="node">
<title>CartItemPricePipe </title>
<polygon fill="#fb8072" stroke="#000000" points="4609.4096,-187 4486.5904,-187 4486.5904,-151 4609.4096,-151 4609.4096,-187"/>
<text text-anchor="middle" x="4548" y="-164.8" font-family="Times,serif" font-size="14.00" fill="#000000">CartItemPricePipe </text>
</g>
<!-- PricingModule&#45;&gt;CartItemPricePipe  -->
<g id="edge30" class="edge">
<title>PricingModule&#45;&gt;CartItemPricePipe </title>
<path fill="none" stroke="#000000" stroke-dasharray="5,2" d="M3051.1548,-107C3316.8598,-107 4548,-107 4548,-107 4548,-107 4548,-140.7333 4548,-140.7333"/>
<polygon fill="#000000" stroke="#000000" points="4544.5001,-140.7333 4548,-150.7333 4551.5001,-140.7333 4544.5001,-140.7333"/>
</g>
<!-- CartPricePipe  -->
<g id="node31" class="node">
<title>CartPricePipe </title>
<polygon fill="#fb8072" stroke="#000000" points="4468.7535,-187 4371.2465,-187 4371.2465,-151 4468.7535,-151 4468.7535,-187"/>
<text text-anchor="middle" x="4420" y="-164.8" font-family="Times,serif" font-size="14.00" fill="#000000">CartPricePipe </text>
</g>
<!-- PricingModule&#45;&gt;CartPricePipe  -->
<g id="edge31" class="edge">
<title>PricingModule&#45;&gt;CartPricePipe </title>
<path fill="none" stroke="#000000" stroke-dasharray="5,2" d="M3051.0862,-109C3303.0536,-109 4420,-109 4420,-109 4420,-109 4420,-140.998 4420,-140.998"/>
<polygon fill="#000000" stroke="#000000" points="4416.5001,-140.998 4420,-150.998 4423.5001,-140.9981 4416.5001,-140.998"/>
</g>
<!-- FormatCurrencyPipe  -->
<g id="node32" class="node">
<title>FormatCurrencyPipe </title>
<polygon fill="#fb8072" stroke="#000000" points="4353.4138,-187 4216.5862,-187 4216.5862,-151 4353.4138,-151 4353.4138,-187"/>
<text text-anchor="middle" x="4285" y="-164.8" font-family="Times,serif" font-size="14.00" fill="#000000">FormatCurrencyPipe </text>
</g>
<!-- PricingModule&#45;&gt;FormatCurrencyPipe  -->
<g id="edge32" class="edge">
<title>PricingModule&#45;&gt;FormatCurrencyPipe </title>
<path fill="none" stroke="#000000" stroke-dasharray="5,2" d="M3051.3343,-110C3288.7274,-110 4285,-110 4285,-110 4285,-110 4285,-140.9775 4285,-140.9775"/>
<polygon fill="#000000" stroke="#000000" points="4281.5001,-140.9774 4285,-150.9775 4288.5001,-140.9775 4281.5001,-140.9774"/>
</g>
<!-- LocalCurrencyPipe  -->
<g id="node33" class="node">
<title>LocalCurrencyPipe </title>
<polygon fill="#fb8072" stroke="#000000" points="4198.3477,-187 4069.6523,-187 4069.6523,-151 4198.3477,-151 4198.3477,-187"/>
<text text-anchor="middle" x="4134" y="-164.8" font-family="Times,serif" font-size="14.00" fill="#000000">LocalCurrencyPipe </text>
</g>
<!-- PricingModule&#45;&gt;LocalCurrencyPipe  -->
<g id="edge33" class="edge">
<title>PricingModule&#45;&gt;LocalCurrencyPipe </title>
<path fill="none" stroke="#000000" stroke-dasharray="5,2" d="M3051.1455,-112C3270.4151,-112 4134,-112 4134,-112 4134,-112 4134,-140.9648 4134,-140.9648"/>
<polygon fill="#000000" stroke="#000000" points="4130.5001,-140.9648 4134,-150.9648 4137.5001,-140.9649 4130.5001,-140.9648"/>
</g>
<!-- OptionPricePipe  -->
<g id="node34" class="node">
<title>OptionPricePipe </title>
<polygon fill="#fb8072" stroke="#000000" points="4052.0386,-187 3939.9614,-187 3939.9614,-151 4052.0386,-151 4052.0386,-187"/>
<text text-anchor="middle" x="3996" y="-164.8" font-family="Times,serif" font-size="14.00" fill="#000000">OptionPricePipe </text>
</g>
<!-- PricingModule&#45;&gt;OptionPricePipe  -->
<g id="edge34" class="edge">
<title>PricingModule&#45;&gt;OptionPricePipe </title>
<path fill="none" stroke="#000000" stroke-dasharray="5,2" d="M3051.0241,-114C3252.7931,-114 3996,-114 3996,-114 3996,-114 3996,-140.9909 3996,-140.9909"/>
<polygon fill="#000000" stroke="#000000" points="3992.5001,-140.9909 3996,-150.9909 3999.5001,-140.991 3992.5001,-140.9909"/>
</g>
<!-- OrderPricePipe  -->
<g id="node35" class="node">
<title>OrderPricePipe </title>
<polygon fill="#fb8072" stroke="#000000" points="3921.7934,-187 3816.2066,-187 3816.2066,-151 3921.7934,-151 3921.7934,-187"/>
<text text-anchor="middle" x="3869" y="-164.8" font-family="Times,serif" font-size="14.00" fill="#000000">OrderPricePipe </text>
</g>
<!-- PricingModule&#45;&gt;OrderPricePipe  -->
<g id="edge35" class="edge">
<title>PricingModule&#45;&gt;OrderPricePipe </title>
<path fill="none" stroke="#000000" stroke-dasharray="5,2" d="M3051.1017,-116C3235.9479,-116 3869,-116 3869,-116 3869,-116 3869,-140.7604 3869,-140.7604"/>
<polygon fill="#000000" stroke="#000000" points="3865.5001,-140.7604 3869,-150.7604 3872.5001,-140.7604 3865.5001,-140.7604"/>
</g>
<!-- PriceComponent  -->
<g id="node36" class="node">
<title>PriceComponent </title>
<polygon fill="#fb8072" stroke="#000000" points="3797.5961,-187 3684.4039,-187 3684.4039,-151 3797.5961,-151 3797.5961,-187"/>
<text text-anchor="middle" x="3741" y="-164.8" font-family="Times,serif" font-size="14.00" fill="#000000">PriceComponent </text>
</g>
<!-- PricingModule&#45;&gt;PriceComponent  -->
<g id="edge36" class="edge">
<title>PricingModule&#45;&gt;PriceComponent </title>
<path fill="none" stroke="#000000" stroke-dasharray="5,2" d="M3050.9916,-117C3217.2279,-117 3741,-117 3741,-117 3741,-117 3741,-140.8129 3741,-140.8129"/>
<polygon fill="#000000" stroke="#000000" points="3737.5001,-140.8129 3741,-150.8129 3744.5001,-140.813 3737.5001,-140.8129"/>
</g>
<!-- PriceMatrixFilter  -->
<g id="node37" class="node">
<title>PriceMatrixFilter </title>
<polygon fill="#fb8072" stroke="#000000" points="3666.194,-187 3549.806,-187 3549.806,-151 3666.194,-151 3666.194,-187"/>
<text text-anchor="middle" x="3608" y="-164.8" font-family="Times,serif" font-size="14.00" fill="#000000">PriceMatrixFilter </text>
</g>
<!-- PricingModule&#45;&gt;PriceMatrixFilter  -->
<g id="edge37" class="edge">
<title>PricingModule&#45;&gt;PriceMatrixFilter </title>
<path fill="none" stroke="#000000" stroke-dasharray="5,2" d="M3051.1898,-119C3196.6193,-119 3608,-119 3608,-119 3608,-119 3608,-140.9489 3608,-140.9489"/>
<polygon fill="#000000" stroke="#000000" points="3604.5001,-140.9488 3608,-150.9489 3611.5001,-140.9489 3604.5001,-140.9488"/>
</g>
<!-- ProductPricePipe  -->
<g id="node38" class="node">
<title>ProductPricePipe </title>
<polygon fill="#fb8072" stroke="#000000" points="3531.1996,-187 3414.8004,-187 3414.8004,-151 3531.1996,-151 3531.1996,-187"/>
<text text-anchor="middle" x="3473" y="-164.8" font-family="Times,serif" font-size="14.00" fill="#000000">ProductPricePipe </text>
</g>
<!-- PricingModule&#45;&gt;ProductPricePipe  -->
<g id="edge38" class="edge">
<title>PricingModule&#45;&gt;ProductPricePipe </title>
<path fill="none" stroke="#000000" stroke-dasharray="5,2" d="M3051.0654,-121C3172.5403,-121 3473,-121 3473,-121 3473,-121 3473,-140.8533 3473,-140.8533"/>
<polygon fill="#000000" stroke="#000000" points="3469.5001,-140.8532 3473,-150.8533 3476.5001,-140.8533 3469.5001,-140.8532"/>
</g>
<!-- StoreModule&#45;&gt;CartModule -->
<g id="edge4" class="edge">
<title>StoreModule&#45;&gt;CartModule</title>
<path fill="none" stroke="#000000" d="M3029.3615,-187.0109C3029.3615,-187.0109 3029.3615,-216.855 3029.3615,-216.855"/>
<polygon fill="#000000" stroke="#000000" points="3025.8616,-216.8549 3029.3615,-226.855 3032.8616,-216.855 3025.8616,-216.8549"/>
</g>
<!-- AddressComponent  -->
<g id="node45" class="node">
<title>AddressComponent </title>
<polygon fill="#fb8072" stroke="#000000" points="1938.2037,-263 1807.7963,-263 1807.7963,-227 1938.2037,-227 1938.2037,-263"/>
<text text-anchor="middle" x="1873" y="-240.8" font-family="Times,serif" font-size="14.00" fill="#000000">AddressComponent </text>
</g>
<!-- StoreModule&#45;&gt;AddressComponent  -->
<g id="edge46" class="edge">
<title>StoreModule&#45;&gt;AddressComponent </title>
<path fill="none" stroke="#000000" stroke-dasharray="5,2" d="M2951.2841,-169C2742.4196,-169 1873,-169 1873,-169 1873,-169 1873,-216.9891 1873,-216.9891"/>
<polygon fill="#000000" stroke="#000000" points="1869.5001,-216.989 1873,-226.9891 1876.5001,-216.9891 1869.5001,-216.989"/>
</g>
<!-- InputFieldComponent  -->
<g id="node46" class="node">
<title>InputFieldComponent </title>
<polygon fill="#fb8072" stroke="#000000" points="1789.6621,-263 1646.3379,-263 1646.3379,-227 1789.6621,-227 1789.6621,-263"/>
<text text-anchor="middle" x="1718" y="-240.8" font-family="Times,serif" font-size="14.00" fill="#000000">InputFieldComponent </text>
</g>
<!-- StoreModule&#45;&gt;InputFieldComponent  -->
<g id="edge47" class="edge">
<title>StoreModule&#45;&gt;InputFieldComponent </title>
<path fill="none" stroke="#000000" stroke-dasharray="5,2" d="M2951.2647,-166C2725.0678,-166 1718,-166 1718,-166 1718,-166 1718,-216.6772 1718,-216.6772"/>
<polygon fill="#000000" stroke="#000000" points="1714.5001,-216.6772 1718,-226.6772 1721.5001,-216.6773 1714.5001,-216.6772"/>
</g>
<!-- InputQuantityComponent  -->
<g id="node47" class="node">
<title>InputQuantityComponent </title>
<polygon fill="#fb8072" stroke="#000000" points="1628.877,-263 1465.123,-263 1465.123,-227 1628.877,-227 1628.877,-263"/>
<text text-anchor="middle" x="1547" y="-240.8" font-family="Times,serif" font-size="14.00" fill="#000000">InputQuantityComponent </text>
</g>
<!-- StoreModule&#45;&gt;InputQuantityComponent  -->
<g id="edge48" class="edge">
<title>StoreModule&#45;&gt;InputQuantityComponent </title>
<path fill="none" stroke="#000000" stroke-dasharray="5,2" d="M2951.4451,-163C2707.7359,-163 1547,-163 1547,-163 1547,-163 1547,-216.8015 1547,-216.8015"/>
<polygon fill="#000000" stroke="#000000" points="1543.5001,-216.8015 1547,-226.8015 1550.5001,-216.8016 1543.5001,-216.8015"/>
</g>
<!-- JumbotronComponent  -->
<g id="node48" class="node">
<title>JumbotronComponent </title>
<polygon fill="#fb8072" stroke="#000000" points="1447.2191,-263 1302.7809,-263 1302.7809,-227 1447.2191,-227 1447.2191,-263"/>
<text text-anchor="middle" x="1375" y="-240.8" font-family="Times,serif" font-size="14.00" fill="#000000">JumbotronComponent </text>
</g>
<!-- StoreModule&#45;&gt;JumbotronComponent  -->
<g id="edge49" class="edge">
<title>StoreModule&#45;&gt;JumbotronComponent </title>
<path fill="none" stroke="#000000" stroke-dasharray="5,2" d="M2951.3783,-160C2690.5757,-160 1375,-160 1375,-160 1375,-160 1375,-216.9737 1375,-216.9737"/>
<polygon fill="#000000" stroke="#000000" points="1371.5001,-216.9737 1375,-226.9737 1378.5001,-216.9737 1371.5001,-216.9737"/>
</g>
<!-- MdSpinnerComponent  -->
<g id="node49" class="node">
<title>MdSpinnerComponent </title>
<polygon fill="#fb8072" stroke="#000000" points="1284.8255,-263 1137.1745,-263 1137.1745,-227 1284.8255,-227 1284.8255,-263"/>
<text text-anchor="middle" x="1211" y="-240.8" font-family="Times,serif" font-size="14.00" fill="#000000">MdSpinnerComponent </text>
</g>
<!-- StoreModule&#45;&gt;MdSpinnerComponent  -->
<g id="edge50" class="edge">
<title>StoreModule&#45;&gt;MdSpinnerComponent </title>
<path fill="none" stroke="#000000" stroke-dasharray="5,2" d="M2951.4308,-157C2675.4217,-157 1211,-157 1211,-157 1211,-157 1211,-216.7663 1211,-216.7663"/>
<polygon fill="#000000" stroke="#000000" points="1207.5001,-216.7663 1211,-226.7663 1214.5001,-216.7664 1207.5001,-216.7663"/>
</g>
<!-- MiniProfileComponent  -->
<g id="node50" class="node">
<title>MiniProfileComponent </title>
<polygon fill="#fb8072" stroke="#000000" points="1119.1579,-263 968.8421,-263 968.8421,-227 1119.1579,-227 1119.1579,-263"/>
<text text-anchor="middle" x="1044" y="-240.8" font-family="Times,serif" font-size="14.00" fill="#000000">MiniProfileComponent </text>
</g>
<!-- StoreModule&#45;&gt;MiniProfileComponent  -->
<g id="edge51" class="edge">
<title>StoreModule&#45;&gt;MiniProfileComponent </title>
<path fill="none" stroke="#000000" stroke-dasharray="5,2" d="M2951.0934,-154C2659.2718,-154 1044,-154 1044,-154 1044,-154 1044,-216.5848 1044,-216.5848"/>
<polygon fill="#000000" stroke="#000000" points="1040.5001,-216.5848 1044,-226.5848 1047.5001,-216.5848 1040.5001,-216.5848"/>
</g>
<!-- BreadcrumbComponent -->
<g id="node8" class="node">
<title>BreadcrumbComponent</title>
<polygon fill="#ffffb3" stroke="#000000" points="929.0253,-263 778.9747,-263 778.9747,-227 929.0253,-227 929.0253,-263"/>
<text text-anchor="middle" x="854" y="-240.8" font-family="Times,serif" font-size="14.00" fill="#000000">BreadcrumbComponent</text>
</g>
<!-- BreadcrumbComponent&#45;&gt;CatalogModule -->
<g id="edge7" class="edge">
<title>BreadcrumbComponent&#45;&gt;CatalogModule</title>
<path fill="none" stroke="#000000" d="M828.8292,-263.302C828.8292,-281.2699 828.8292,-306 828.8292,-306 828.8292,-306 560.8987,-306 560.8987,-306"/>
<polygon fill="#000000" stroke="#000000" points="560.8987,-302.5001 550.8987,-306 560.8986,-309.5001 560.8987,-302.5001"/>
</g>
<!-- ProductCardComponent -->
<g id="node9" class="node">
<title>ProductCardComponent</title>
<polygon fill="#ffffb3" stroke="#000000" points="761.0926,-263 608.9074,-263 608.9074,-227 761.0926,-227 761.0926,-263"/>
<text text-anchor="middle" x="685" y="-240.8" font-family="Times,serif" font-size="14.00" fill="#000000">ProductCardComponent</text>
</g>
<!-- ProductCardComponent&#45;&gt;CatalogModule -->
<g id="edge8" class="edge">
<title>ProductCardComponent&#45;&gt;CatalogModule</title>
<path fill="none" stroke="#000000" d="M682.875,-263.027C682.875,-279.3976 682.875,-301 682.875,-301 682.875,-301 560.7088,-301 560.7088,-301"/>
<polygon fill="#000000" stroke="#000000" points="560.7088,-297.5001 550.7088,-301 560.7087,-304.5001 560.7088,-297.5001"/>
</g>
<!-- ProductCarouselComponent -->
<g id="node10" class="node">
<title>ProductCarouselComponent</title>
<polygon fill="#ffffb3" stroke="#000000" points="591.1428,-263 416.8572,-263 416.8572,-227 591.1428,-227 591.1428,-263"/>
<text text-anchor="middle" x="504" y="-240.8" font-family="Times,serif" font-size="14.00" fill="#000000">ProductCarouselComponent</text>
</g>
<!-- ProductCarouselComponent&#45;&gt;CatalogModule -->
<g id="edge9" class="edge">
<title>ProductCarouselComponent&#45;&gt;CatalogModule</title>
<path fill="none" stroke="#000000" d="M499,-263.2228C499,-263.2228 499,-284.7269 499,-284.7269"/>
<polygon fill="#000000" stroke="#000000" points="495.5001,-284.7269 499,-294.7269 502.5001,-284.727 495.5001,-284.7269"/>
</g>
<!-- ProductImagesComponent -->
<g id="node11" class="node">
<title>ProductImagesComponent</title>
<polygon fill="#ffffb3" stroke="#000000" points="398.8061,-263 233.1939,-263 233.1939,-227 398.8061,-227 398.8061,-263"/>
<text text-anchor="middle" x="316" y="-240.8" font-family="Times,serif" font-size="14.00" fill="#000000">ProductImagesComponent</text>
</g>
<!-- ProductImagesComponent&#45;&gt;CatalogModule -->
<g id="edge10" class="edge">
<title>ProductImagesComponent&#45;&gt;CatalogModule</title>
<path fill="none" stroke="#000000" d="M393.0279,-263.0336C393.0279,-280.0597 393.0279,-303 393.0279,-303 393.0279,-303 437.2557,-303 437.2557,-303"/>
<polygon fill="#000000" stroke="#000000" points="437.2557,-306.5001 447.2557,-303 437.2557,-299.5001 437.2557,-306.5001"/>
</g>
<!-- ProductReviewsComponent -->
<g id="node12" class="node">
<title>ProductReviewsComponent</title>
<polygon fill="#ffffb3" stroke="#000000" points="215.5884,-263 42.4116,-263 42.4116,-227 215.5884,-227 215.5884,-263"/>
<text text-anchor="middle" x="129" y="-240.8" font-family="Times,serif" font-size="14.00" fill="#000000">ProductReviewsComponent</text>
</g>
<!-- ProductReviewsComponent&#45;&gt;CatalogModule -->
<g id="edge11" class="edge">
<title>ProductReviewsComponent&#45;&gt;CatalogModule</title>
<path fill="none" stroke="#000000" d="M207.9192,-263.1061C207.9192,-282.3391 207.9192,-310 207.9192,-310 207.9192,-310 437.296,-310 437.296,-310"/>
<polygon fill="#000000" stroke="#000000" points="437.296,-313.5001 447.296,-310 437.296,-306.5001 437.296,-313.5001"/>
</g>
<!-- BreadcrumbComponent  -->
<g id="node14" class="node">
<title>BreadcrumbComponent </title>
<polygon fill="#fb8072" stroke="#000000" points="929.0246,-399 774.9754,-399 774.9754,-363 929.0246,-363 929.0246,-399"/>
<text text-anchor="middle" x="852" y="-376.8" font-family="Times,serif" font-size="14.00" fill="#000000">BreadcrumbComponent </text>
</g>
<!-- CatalogModule&#45;&gt;BreadcrumbComponent  -->
<g id="edge14" class="edge">
<title>CatalogModule&#45;&gt;BreadcrumbComponent </title>
<path fill="none" stroke="#000000" stroke-dasharray="5,2" d="M550.6332,-321C654.5106,-321 878.9208,-321 878.9208,-321 878.9208,-321 878.9208,-352.998 878.9208,-352.998"/>
<polygon fill="#000000" stroke="#000000" points="875.4209,-352.998 878.9208,-362.998 882.4209,-352.9981 875.4209,-352.998"/>
</g>
<!-- ProductCardComponent  -->
<g id="node15" class="node">
<title>ProductCardComponent </title>
<polygon fill="#fb8072" stroke="#000000" points="756.5931,-399 601.4069,-399 601.4069,-363 756.5931,-363 756.5931,-399"/>
<text text-anchor="middle" x="679" y="-376.8" font-family="Times,serif" font-size="14.00" fill="#000000">ProductCardComponent </text>
</g>
<!-- CatalogModule&#45;&gt;ProductCardComponent  -->
<g id="edge15" class="edge">
<title>CatalogModule&#45;&gt;ProductCardComponent </title>
<path fill="none" stroke="#000000" stroke-dasharray="5,2" d="M550.7963,-326C577.7238,-326 605.0787,-326 605.0787,-326 605.0787,-326 605.0787,-352.9909 605.0787,-352.9909"/>
<polygon fill="#000000" stroke="#000000" points="601.5788,-352.9909 605.0787,-362.9909 608.5788,-352.991 601.5788,-352.9909"/>
</g>
<!-- ProductCarouselComponent  -->
<g id="node16" class="node">
<title>ProductCarouselComponent </title>
<polygon fill="#fb8072" stroke="#000000" points="583.1425,-399 404.8575,-399 404.8575,-363 583.1425,-363 583.1425,-399"/>
<text text-anchor="middle" x="494" y="-376.8" font-family="Times,serif" font-size="14.00" fill="#000000">ProductCarouselComponent </text>
</g>
<!-- CatalogModule&#45;&gt;ProductCarouselComponent  -->
<g id="edge16" class="edge">
<title>CatalogModule&#45;&gt;ProductCarouselComponent </title>
<path fill="none" stroke="#000000" stroke-dasharray="5,2" d="M499,-331.2228C499,-331.2228 499,-352.7269 499,-352.7269"/>
<polygon fill="#000000" stroke="#000000" points="495.5001,-352.7269 499,-362.7269 502.5001,-352.727 495.5001,-352.7269"/>
</g>
<!-- ProductImagesComponent  -->
<g id="node17" class="node">
<title>ProductImagesComponent </title>
<polygon fill="#fb8072" stroke="#000000" points="387.3059,-399 218.6941,-399 218.6941,-363 387.3059,-363 387.3059,-399"/>
<text text-anchor="middle" x="303" y="-376.8" font-family="Times,serif" font-size="14.00" fill="#000000">ProductImagesComponent </text>
</g>
<!-- CatalogModule&#45;&gt;ProductImagesComponent  -->
<g id="edge17" class="edge">
<title>CatalogModule&#45;&gt;ProductImagesComponent </title>
<path fill="none" stroke="#000000" stroke-dasharray="5,2" d="M447.2079,-324C391.3674,-324 310.375,-324 310.375,-324 310.375,-324 310.375,-352.9648 310.375,-352.9648"/>
<polygon fill="#000000" stroke="#000000" points="306.8751,-352.9648 310.375,-362.9648 313.8751,-352.9649 306.8751,-352.9648"/>
</g>
<!-- ProductReviewsComponent  -->
<g id="node18" class="node">
<title>ProductReviewsComponent </title>
<polygon fill="#fb8072" stroke="#000000" points="200.0889,-399 23.9111,-399 23.9111,-363 200.0889,-363 200.0889,-399"/>
<text text-anchor="middle" x="112" y="-376.8" font-family="Times,serif" font-size="14.00" fill="#000000">ProductReviewsComponent </text>
</g>
<!-- CatalogModule&#45;&gt;ProductReviewsComponent  -->
<g id="edge18" class="edge">
<title>CatalogModule&#45;&gt;ProductReviewsComponent </title>
<path fill="none" stroke="#000000" stroke-dasharray="5,2" d="M447.2846,-317C343.8627,-317 121.375,-317 121.375,-317 121.375,-317 121.375,-352.8314 121.375,-352.8314"/>
<polygon fill="#000000" stroke="#000000" points="117.8751,-352.8313 121.375,-362.8314 124.8751,-352.8314 117.8751,-352.8313"/>
</g>
<!-- AttributeValuePricePipe -->
<g id="node19" class="node">
<title>AttributeValuePricePipe</title>
<polygon fill="#ffffb3" stroke="#000000" points="6144.6219,-187 5991.3781,-187 5991.3781,-151 6144.6219,-151 6144.6219,-187"/>
<text text-anchor="middle" x="6068" y="-164.8" font-family="Times,serif" font-size="14.00" fill="#000000">AttributeValuePricePipe</text>
</g>
<!-- AttributeValuePricePipe&#45;&gt;PricingModule -->
<g id="edge19" class="edge">
<title>AttributeValuePricePipe&#45;&gt;PricingModule</title>
<path fill="none" stroke="#000000" d="M6068,-150.6198C6068,-126.7215 6068,-88 6068,-88 6068,-88 3061.0442,-88 3061.0442,-88"/>
<polygon fill="#000000" stroke="#000000" points="3061.0442,-84.5001 3051.0442,-88 3061.0442,-91.5001 3061.0442,-84.5001"/>
</g>
<!-- CartItemPricePipe -->
<g id="node20" class="node">
<title>CartItemPricePipe</title>
<polygon fill="#ffffb3" stroke="#000000" points="5972.9103,-187 5853.0897,-187 5853.0897,-151 5972.9103,-151 5972.9103,-187"/>
<text text-anchor="middle" x="5913" y="-164.8" font-family="Times,serif" font-size="14.00" fill="#000000">CartItemPricePipe</text>
</g>
<!-- CartItemPricePipe&#45;&gt;PricingModule -->
<g id="edge20" class="edge">
<title>CartItemPricePipe&#45;&gt;PricingModule</title>
<path fill="none" stroke="#000000" d="M5913,-150.6772C5913,-127.3398 5913,-90 5913,-90 5913,-90 3061.2364,-90 3061.2364,-90"/>
<polygon fill="#000000" stroke="#000000" points="3061.2365,-86.5001 3051.2364,-90 3061.2364,-93.5001 3061.2365,-86.5001"/>
</g>
<!-- CartPricePipe -->
<g id="node21" class="node">
<title>CartPricePipe</title>
<polygon fill="#ffffb3" stroke="#000000" points="5834.7535,-187 5741.2465,-187 5741.2465,-151 5834.7535,-151 5834.7535,-187"/>
<text text-anchor="middle" x="5788" y="-164.8" font-family="Times,serif" font-size="14.00" fill="#000000">CartPricePipe</text>
</g>
<!-- CartPricePipe&#45;&gt;PricingModule -->
<g id="edge21" class="edge">
<title>CartPricePipe&#45;&gt;PricingModule</title>
<path fill="none" stroke="#000000" d="M5788,-150.7521C5788,-127.9821 5788,-92 5788,-92 5788,-92 3061.1529,-92 3061.1529,-92"/>
<polygon fill="#000000" stroke="#000000" points="3061.1529,-88.5001 3051.1529,-92 3061.1529,-95.5001 3061.1529,-88.5001"/>
</g>
<!-- FormatCurrencyPipe -->
<g id="node22" class="node">
<title>FormatCurrencyPipe</title>
<polygon fill="#ffffb3" stroke="#000000" points="5722.9144,-187 5589.0856,-187 5589.0856,-151 5722.9144,-151 5722.9144,-187"/>
<text text-anchor="middle" x="5656" y="-164.8" font-family="Times,serif" font-size="14.00" fill="#000000">FormatCurrencyPipe</text>
</g>
<!-- FormatCurrencyPipe&#45;&gt;PricingModule -->
<g id="edge22" class="edge">
<title>FormatCurrencyPipe&#45;&gt;PricingModule</title>
<path fill="none" stroke="#000000" d="M5656,-150.9891C5656,-128.5148 5656,-93 5656,-93 5656,-93 3061.0822,-93 3061.0822,-93"/>
<polygon fill="#000000" stroke="#000000" points="3061.0823,-89.5001 3051.0822,-93 3061.0822,-96.5001 3061.0823,-89.5001"/>
</g>
<!-- LocalCurrencyPipe -->
<g id="node23" class="node">
<title>LocalCurrencyPipe</title>
<polygon fill="#ffffb3" stroke="#000000" points="5571.3473,-187 5446.6527,-187 5446.6527,-151 5571.3473,-151 5571.3473,-187"/>
<text text-anchor="middle" x="5509" y="-164.8" font-family="Times,serif" font-size="14.00" fill="#000000">LocalCurrencyPipe</text>
</g>
<!-- LocalCurrencyPipe&#45;&gt;PricingModule -->
<g id="edge23" class="edge">
<title>LocalCurrencyPipe&#45;&gt;PricingModule</title>
<path fill="none" stroke="#000000" d="M5509,-150.7079C5509,-128.7943 5509,-95 5509,-95 5509,-95 3061.0983,-95 3061.0983,-95"/>
<polygon fill="#000000" stroke="#000000" points="3061.0983,-91.5001 3051.0983,-95 3061.0982,-98.5001 3061.0983,-91.5001"/>
</g>
<!-- OptionPricePipe -->
<g id="node24" class="node">
<title>OptionPricePipe</title>
<polygon fill="#ffffb3" stroke="#000000" points="5428.0396,-187 5319.9604,-187 5319.9604,-151 5428.0396,-151 5428.0396,-187"/>
<text text-anchor="middle" x="5374" y="-164.8" font-family="Times,serif" font-size="14.00" fill="#000000">OptionPricePipe</text>
</g>
<!-- OptionPricePipe&#45;&gt;PricingModule -->
<g id="edge24" class="edge">
<title>OptionPricePipe&#45;&gt;PricingModule</title>
<path fill="none" stroke="#000000" d="M5374,-150.8314C5374,-129.502 5374,-97 5374,-97 5374,-97 3061.111,-97 3061.111,-97"/>
<polygon fill="#000000" stroke="#000000" points="3061.111,-93.5001 3051.111,-97 3061.111,-100.5001 3061.111,-93.5001"/>
</g>
<!-- OrderPricePipe -->
<g id="node25" class="node">
<title>OrderPricePipe</title>
<polygon fill="#ffffb3" stroke="#000000" points="5302.2936,-187 5199.7064,-187 5199.7064,-151 5302.2936,-151 5302.2936,-187"/>
<text text-anchor="middle" x="5251" y="-164.8" font-family="Times,serif" font-size="14.00" fill="#000000">OrderPricePipe</text>
</g>
<!-- OrderPricePipe&#45;&gt;PricingModule -->
<g id="edge25" class="edge">
<title>OrderPricePipe&#45;&gt;PricingModule</title>
<path fill="none" stroke="#000000" d="M5251,-150.7157C5251,-129.6789 5251,-98 5251,-98 5251,-98 3061.1491,-98 3061.1491,-98"/>
<polygon fill="#000000" stroke="#000000" points="3061.1492,-94.5001 3051.1491,-98 3061.1491,-101.5001 3061.1492,-94.5001"/>
</g>
<!-- PriceComponent -->
<g id="node26" class="node">
<title>PriceComponent</title>
<polygon fill="#ffffb3" stroke="#000000" points="5182.0954,-187 5071.9046,-187 5071.9046,-151 5182.0954,-151 5182.0954,-187"/>
<text text-anchor="middle" x="5127" y="-164.8" font-family="Times,serif" font-size="14.00" fill="#000000">PriceComponent</text>
</g>
<!-- PriceComponent&#45;&gt;PricingModule -->
<g id="edge26" class="edge">
<title>PriceComponent&#45;&gt;PricingModule</title>
<path fill="none" stroke="#000000" d="M5127,-150.8711C5127,-130.4276 5127,-100 5127,-100 5127,-100 3061.1969,-100 3061.1969,-100"/>
<polygon fill="#000000" stroke="#000000" points="3061.1969,-96.5001 3051.1969,-100 3061.1968,-103.5001 3061.1969,-96.5001"/>
</g>
<!-- PriceMatrixFilter -->
<g id="node27" class="node">
<title>PriceMatrixFilter</title>
<polygon fill="#ffffb3" stroke="#000000" points="5053.6938,-187 4940.3062,-187 4940.3062,-151 5053.6938,-151 5053.6938,-187"/>
<text text-anchor="middle" x="4997" y="-164.8" font-family="Times,serif" font-size="14.00" fill="#000000">PriceMatrixFilter</text>
</g>
<!-- PriceMatrixFilter&#45;&gt;PricingModule -->
<g id="edge27" class="edge">
<title>PriceMatrixFilter&#45;&gt;PricingModule</title>
<path fill="none" stroke="#000000" d="M4997,-150.692C4997,-130.8545 4997,-102 4997,-102 4997,-102 3061.0874,-102 3061.0874,-102"/>
<polygon fill="#000000" stroke="#000000" points="3061.0875,-98.5001 3051.0874,-102 3061.0874,-105.5001 3061.0875,-98.5001"/>
</g>
<!-- ProductPricePipe -->
<g id="node28" class="node">
<title>ProductPricePipe</title>
<polygon fill="#ffffb3" stroke="#000000" points="4922.6994,-187 4809.3006,-187 4809.3006,-151 4922.6994,-151 4922.6994,-187"/>
<text text-anchor="middle" x="4866" y="-164.8" font-family="Times,serif" font-size="14.00" fill="#000000">ProductPricePipe</text>
</g>
<!-- ProductPricePipe&#45;&gt;PricingModule -->
<g id="edge28" class="edge">
<title>ProductPricePipe&#45;&gt;PricingModule</title>
<path fill="none" stroke="#000000" d="M4866,-150.8939C4866,-131.6609 4866,-104 4866,-104 4866,-104 3061.3668,-104 3061.3668,-104"/>
<polygon fill="#000000" stroke="#000000" points="3061.3668,-100.5001 3051.3668,-104 3061.3668,-107.5001 3061.3668,-100.5001"/>
</g>
<!-- AddressComponent -->
<g id="node39" class="node">
<title>AddressComponent</title>
<polygon fill="#ffffb3" stroke="#000000" points="2910.7036,-263 2783.2964,-263 2783.2964,-227 2910.7036,-227 2910.7036,-263"/>
<text text-anchor="middle" x="2847" y="-240.8" font-family="Times,serif" font-size="14.00" fill="#000000">AddressComponent</text>
</g>
<!-- AddressComponent&#45;&gt;StoreModule -->
<g id="edge39" class="edge">
<title>AddressComponent&#45;&gt;StoreModule</title>
<path fill="none" stroke="#000000" d="M2910.7609,-239C2935.6234,-239 2958.2738,-239 2958.2738,-239 2958.2738,-239 2958.2738,-197.0267 2958.2738,-197.0267"/>
<polygon fill="#000000" stroke="#000000" points="2961.7739,-197.0267 2958.2738,-187.0267 2954.7739,-197.0268 2961.7739,-197.0267"/>
</g>
<!-- InputFieldComponent -->
<g id="node40" class="node">
<title>InputFieldComponent</title>
<polygon fill="#ffffb3" stroke="#000000" points="2765.6624,-263 2626.3376,-263 2626.3376,-227 2765.6624,-227 2765.6624,-263"/>
<text text-anchor="middle" x="2696" y="-240.8" font-family="Times,serif" font-size="14.00" fill="#000000">InputFieldComponent</text>
</g>
<!-- InputFieldComponent&#45;&gt;StoreModule -->
<g id="edge40" class="edge">
<title>InputFieldComponent&#45;&gt;StoreModule</title>
<path fill="none" stroke="#000000" d="M2696,-226.698C2696,-208.7301 2696,-184 2696,-184 2696,-184 2941.4109,-184 2941.4109,-184"/>
<polygon fill="#000000" stroke="#000000" points="2941.4109,-187.5001 2951.4109,-184 2941.4109,-180.5001 2941.4109,-187.5001"/>
</g>
<!-- InputQuantityComponent -->
<g id="node41" class="node">
<title>InputQuantityComponent</title>
<polygon fill="#ffffb3" stroke="#000000" points="2607.8766,-263 2448.1234,-263 2448.1234,-227 2607.8766,-227 2607.8766,-263"/>
<text text-anchor="middle" x="2528" y="-240.8" font-family="Times,serif" font-size="14.00" fill="#000000">InputQuantityComponent</text>
</g>
<!-- InputQuantityComponent&#45;&gt;StoreModule -->
<g id="edge41" class="edge">
<title>InputQuantityComponent&#45;&gt;StoreModule</title>
<path fill="none" stroke="#000000" d="M2528,-226.8314C2528,-207.9102 2528,-181 2528,-181 2528,-181 2941.1262,-181 2941.1262,-181"/>
<polygon fill="#000000" stroke="#000000" points="2941.1262,-184.5001 2951.1262,-181 2941.1262,-177.5001 2941.1262,-184.5001"/>
</g>
<!-- JumbotronComponent -->
<g id="node42" class="node">
<title>JumbotronComponent</title>
<polygon fill="#ffffb3" stroke="#000000" points="2429.719,-263 2288.281,-263 2288.281,-227 2429.719,-227 2429.719,-263"/>
<text text-anchor="middle" x="2359" y="-240.8" font-family="Times,serif" font-size="14.00" fill="#000000">JumbotronComponent</text>
</g>
<!-- JumbotronComponent&#45;&gt;StoreModule -->
<g id="edge42" class="edge">
<title>JumbotronComponent&#45;&gt;StoreModule</title>
<path fill="none" stroke="#000000" d="M2359,-226.692C2359,-206.8545 2359,-178 2359,-178 2359,-178 2941.2074,-178 2941.2074,-178"/>
<polygon fill="#000000" stroke="#000000" points="2941.2074,-181.5001 2951.2074,-178 2941.2074,-174.5001 2941.2074,-181.5001"/>
</g>
<!-- MdSpinnerComponent -->
<g id="node43" class="node">
<title>MdSpinnerComponent</title>
<polygon fill="#ffffb3" stroke="#000000" points="2270.3258,-263 2125.6742,-263 2125.6742,-227 2270.3258,-227 2270.3258,-263"/>
<text text-anchor="middle" x="2198" y="-240.8" font-family="Times,serif" font-size="14.00" fill="#000000">MdSpinnerComponent</text>
</g>
<!-- MdSpinnerComponent&#45;&gt;StoreModule -->
<g id="edge43" class="edge">
<title>MdSpinnerComponent&#45;&gt;StoreModule</title>
<path fill="none" stroke="#000000" d="M2198,-226.9733C2198,-206.2328 2198,-175 2198,-175 2198,-175 2941.3861,-175 2941.3861,-175"/>
<polygon fill="#000000" stroke="#000000" points="2941.3862,-178.5001 2951.3861,-175 2941.3861,-171.5001 2941.3862,-178.5001"/>
</g>
<!-- MiniProfileComponent -->
<g id="node44" class="node">
<title>MiniProfileComponent</title>
<polygon fill="#ffffb3" stroke="#000000" points="2108.1582,-263 1961.8418,-263 1961.8418,-227 2108.1582,-227 2108.1582,-263"/>
<text text-anchor="middle" x="2035" y="-240.8" font-family="Times,serif" font-size="14.00" fill="#000000">MiniProfileComponent</text>
</g>
<!-- MiniProfileComponent&#45;&gt;StoreModule -->
<g id="edge44" class="edge">
<title>MiniProfileComponent&#45;&gt;StoreModule</title>
<path fill="none" stroke="#000000" d="M2035,-226.9551C2035,-205.3377 2035,-172 2035,-172 2035,-172 2941.2576,-172 2941.2576,-172"/>
<polygon fill="#000000" stroke="#000000" points="2941.2577,-175.5001 2951.2576,-172 2941.2576,-168.5001 2941.2577,-175.5001"/>
</g>
</g>
</svg>
