<?xml version="1.0" encoding="UTF-8" standalone="no"?>
<!DOCTYPE svg PUBLIC "-//W3C//DTD SVG 1.1//EN"
 "http://www.w3.org/Graphics/SVG/1.1/DTD/svg11.dtd">
<!-- Generated by graphviz version 2.40.1 (20161225.0304)
 -->
<!-- Title: dependencies Pages: 1 -->
<svg width="2831pt" height="290pt"
 viewBox="0.00 0.00 2831.00 290.00" xmlns="http://www.w3.org/2000/svg" xmlns:xlink="http://www.w3.org/1999/xlink">
<g id="graph0" class="graph" transform="scale(1 1) rotate(0) translate(4 286)">
<title>dependencies</title>
<polygon fill="#ffffff" stroke="transparent" points="-4,4 -4,-286 2827,-286 2827,4 -4,4"/>
<text text-anchor="start" x="1390.5091" y="-42.4" font-family="sans-serif" font-weight="bold" font-size="14.00" fill="#000000">Legend</text>
<polygon fill="#ffffb3" stroke="transparent" points="1177.5,-10 1177.5,-30 1197.5,-30 1197.5,-10 1177.5,-10"/>
<text text-anchor="start" x="1201.129" y="-15.4" font-family="sans-serif" font-size="14.00" fill="#000000"> &#160;Declarations</text>
<polygon fill="#8dd3c7" stroke="transparent" points="1290.5,-10 1290.5,-30 1310.5,-30 1310.5,-10 1290.5,-10"/>
<text text-anchor="start" x="1314.2251" y="-15.4" font-family="sans-serif" font-size="14.00" fill="#000000"> &#160;Module</text>
<polygon fill="#80b1d3" stroke="transparent" points="1376.5,-10 1376.5,-30 1396.5,-30 1396.5,-10 1376.5,-10"/>
<text text-anchor="start" x="1400.2812" y="-15.4" font-family="sans-serif" font-size="14.00" fill="#000000"> &#160;Bootstrap</text>
<polygon fill="#fdb462" stroke="transparent" points="1473.5,-10 1473.5,-30 1493.5,-30 1493.5,-10 1473.5,-10"/>
<text text-anchor="start" x="1497.1732" y="-15.4" font-family="sans-serif" font-size="14.00" fill="#000000"> &#160;Providers</text>
<polygon fill="#fb8072" stroke="transparent" points="1569.5,-10 1569.5,-30 1589.5,-30 1589.5,-10 1569.5,-10"/>
<text text-anchor="start" x="1593.2258" y="-15.4" font-family="sans-serif" font-size="14.00" fill="#000000"> &#160;Exports</text>
<g id="clust1" class="cluster">
<title>cluster_AccountModule</title>
<polygon fill="none" stroke="#000000" stroke-dasharray="1,5" points="8,-70 8,-198 160,-198 160,-70 8,-70"/>
</g>
<g id="clust3" class="cluster">
<title>cluster_AccountModule_imports</title>
<polygon fill="none" stroke="#000000" points="16,-78 16,-130 152,-130 152,-78 16,-78"/>
</g>
<g id="clust7" class="cluster">
<title>cluster_CartModule</title>
<polygon fill="none" stroke="#000000" stroke-dasharray="1,5" points="2481,-70 2481,-274 2815,-274 2815,-70 2481,-70"/>
</g>
<g id="clust8" class="cluster">
<title>cluster_CartModule_declarations</title>
<polygon fill="none" stroke="#000000" points="2490,-78 2490,-130 2802,-130 2802,-78 2490,-78"/>
</g>
<g id="clust12" class="cluster">
<title>cluster_CartModule_exports</title>
<polygon fill="none" stroke="#000000" points="2489,-214 2489,-266 2807,-266 2807,-214 2489,-214"/>
</g>
<g id="clust15" class="cluster">
<title>cluster_CatalogModule</title>
<polygon fill="none" stroke="#000000" stroke-dasharray="1,5" points="168,-146 168,-198 288,-198 288,-146 168,-146"/>
</g>
<g id="clust21" class="cluster">
<title>cluster_CommerceModule</title>
<polygon fill="none" stroke="#000000" stroke-dasharray="1,5" points="296,-138 296,-206 2357,-206 2357,-138 296,-138"/>
</g>
<g id="clust22" class="cluster">
<title>cluster_CommerceModule_declarations</title>
<polygon fill="none" stroke="#000000" points="1342,-146 1342,-198 2349,-198 2349,-146 1342,-146"/>
</g>
<g id="clust31" class="cluster">
<title>cluster_CommerceModule_exports</title>
<polygon fill="none" stroke="#000000" points="304,-146 304,-198 1334,-198 1334,-146 304,-146"/>
</g>
<g id="clust34" class="cluster">
<title>cluster_OrderModule</title>
<polygon fill="none" stroke="#000000" stroke-dasharray="1,5" points="2365,-146 2365,-198 2473,-198 2473,-146 2365,-146"/>
</g>
<!-- CommerceModule -->
<g id="node1" class="node">
<title>CommerceModule</title>
<polygon fill="#8dd3c7" stroke="#000000" points="144.472,-122 141.472,-126 120.472,-126 117.472,-122 23.528,-122 23.528,-86 144.472,-86 144.472,-122"/>
<text text-anchor="middle" x="84" y="-99.8" font-family="Times,serif" font-size="14.00" fill="#000000">CommerceModule</text>
</g>
<!-- AccountModule -->
<g id="node2" class="node">
<title>AccountModule</title>
<polygon fill="#8dd3c7" stroke="#000000" points="137.4762,-190 134.4762,-194 113.4762,-194 110.4762,-190 30.5238,-190 30.5238,-154 137.4762,-154 137.4762,-190"/>
<text text-anchor="middle" x="84" y="-167.8" font-family="Times,serif" font-size="14.00" fill="#000000">AccountModule</text>
</g>
<!-- CommerceModule&#45;&gt;AccountModule -->
<g id="edge1" class="edge">
<title>CommerceModule&#45;&gt;AccountModule</title>
<path fill="none" stroke="#000000" d="M84,-122.2228C84,-122.2228 84,-143.7269 84,-143.7269"/>
<polygon fill="#000000" stroke="#000000" points="80.5001,-143.7269 84,-153.7269 87.5001,-143.727 80.5001,-143.7269"/>
</g>
<!-- CartModule -->
<g id="node5" class="node">
<title>CartModule</title>
<polygon fill="#8dd3c7" stroke="#000000" points="2606.6529,-190 2603.6529,-194 2582.6529,-194 2579.6529,-190 2523.3471,-190 2523.3471,-154 2606.6529,-154 2606.6529,-190"/>
<text text-anchor="middle" x="2565" y="-167.8" font-family="Times,serif" font-size="14.00" fill="#000000">CartModule</text>
</g>
<!-- CommerceModule&#45;&gt;CartModule -->
<g id="edge4" class="edge">
<title>CommerceModule&#45;&gt;CartModule</title>
<path fill="none" stroke="#000000" d="M144.7525,-88C517.6714,-88 2481.0079,-88 2481.0079,-88 2481.0079,-88 2481.0079,-172 2481.0079,-172 2481.0079,-172 2513.004,-172 2513.004,-172"/>
<polygon fill="#000000" stroke="#000000" points="2513.004,-175.5001 2523.004,-172 2513.0039,-168.5001 2513.004,-175.5001"/>
</g>
<!-- CatalogModule -->
<g id="node8" class="node">
<title>CatalogModule</title>
<polygon fill="#8dd3c7" stroke="#000000" points="279.5968,-190 276.5968,-194 255.5968,-194 252.5968,-190 176.4032,-190 176.4032,-154 279.5968,-154 279.5968,-190"/>
<text text-anchor="middle" x="228" y="-167.8" font-family="Times,serif" font-size="14.00" fill="#000000">CatalogModule</text>
</g>
<!-- CommerceModule&#45;&gt;CatalogModule -->
<g id="edge7" class="edge">
<title>CommerceModule&#45;&gt;CatalogModule</title>
<path fill="none" stroke="#000000" d="M144.6516,-120C184.0058,-120 228,-120 228,-120 228,-120 228,-143.8129 228,-143.8129"/>
<polygon fill="#000000" stroke="#000000" points="224.5001,-143.8129 228,-153.8129 231.5001,-143.813 224.5001,-143.8129"/>
</g>
<!-- ConvertUnitsPipe  -->
<g id="node16" class="node">
<title>ConvertUnitsPipe </title>
<polygon fill="#fb8072" stroke="#000000" points="1325.8227,-190 1206.1773,-190 1206.1773,-154 1325.8227,-154 1325.8227,-190"/>
<text text-anchor="middle" x="1266" y="-167.8" font-family="Times,serif" font-size="14.00" fill="#000000">ConvertUnitsPipe </text>
</g>
<!-- CommerceModule&#45;&gt;ConvertUnitsPipe  -->
<g id="edge15" class="edge">
<title>CommerceModule&#45;&gt;ConvertUnitsPipe </title>
<path fill="none" stroke="#000000" stroke-dasharray="5,2" d="M144.6499,-106C386.1054,-106 1266,-106 1266,-106 1266,-106 1266,-143.9652 1266,-143.9652"/>
<polygon fill="#000000" stroke="#000000" points="1262.5001,-143.9652 1266,-153.9652 1269.5001,-143.9652 1262.5001,-143.9652"/>
</g>
<!-- FormatCurrencyPipe  -->
<g id="node17" class="node">
<title>FormatCurrencyPipe </title>
<polygon fill="#fb8072" stroke="#000000" points="1188.4138,-190 1051.5862,-190 1051.5862,-154 1188.4138,-154 1188.4138,-190"/>
<text text-anchor="middle" x="1120" y="-167.8" font-family="Times,serif" font-size="14.00" fill="#000000">FormatCurrencyPipe </text>
</g>
<!-- CommerceModule&#45;&gt;FormatCurrencyPipe  -->
<g id="edge16" class="edge">
<title>CommerceModule&#45;&gt;FormatCurrencyPipe </title>
<path fill="none" stroke="#000000" stroke-dasharray="5,2" d="M144.5577,-108C366.1487,-108 1120,-108 1120,-108 1120,-108 1120,-143.8314 1120,-143.8314"/>
<polygon fill="#000000" stroke="#000000" points="1116.5001,-143.8313 1120,-153.8314 1123.5001,-143.8314 1116.5001,-143.8313"/>
</g>
<!-- InputFieldComponent  -->
<g id="node18" class="node">
<title>InputFieldComponent </title>
<polygon fill="#fb8072" stroke="#000000" points="1033.6621,-190 890.3379,-190 890.3379,-154 1033.6621,-154 1033.6621,-190"/>
<text text-anchor="middle" x="962" y="-167.8" font-family="Times,serif" font-size="14.00" fill="#000000">InputFieldComponent </text>
</g>
<!-- CommerceModule&#45;&gt;InputFieldComponent  -->
<g id="edge17" class="edge">
<title>CommerceModule&#45;&gt;InputFieldComponent </title>
<path fill="none" stroke="#000000" stroke-dasharray="5,2" d="M144.6949,-110C343.4335,-110 962,-110 962,-110 962,-110 962,-143.7333 962,-143.7333"/>
<polygon fill="#000000" stroke="#000000" points="958.5001,-143.7333 962,-153.7333 965.5001,-143.7333 958.5001,-143.7333"/>
</g>
<!-- LocalCurrencyPipe  -->
<g id="node19" class="node">
<title>LocalCurrencyPipe </title>
<polygon fill="#fb8072" stroke="#000000" points="872.3477,-190 743.6523,-190 743.6523,-154 872.3477,-154 872.3477,-190"/>
<text text-anchor="middle" x="808" y="-167.8" font-family="Times,serif" font-size="14.00" fill="#000000">LocalCurrencyPipe </text>
</g>
<!-- CommerceModule&#45;&gt;LocalCurrencyPipe  -->
<g id="edge18" class="edge">
<title>CommerceModule&#45;&gt;LocalCurrencyPipe </title>
<path fill="none" stroke="#000000" stroke-dasharray="5,2" d="M144.4826,-112C318.4886,-112 808,-112 808,-112 808,-112 808,-143.998 808,-143.998"/>
<polygon fill="#000000" stroke="#000000" points="804.5001,-143.998 808,-153.998 811.5001,-143.9981 804.5001,-143.998"/>
</g>
<!-- MdSpinnerComponent  -->
<g id="node20" class="node">
<title>MdSpinnerComponent </title>
<polygon fill="#fb8072" stroke="#000000" points="725.8255,-190 578.1745,-190 578.1745,-154 725.8255,-154 725.8255,-190"/>
<text text-anchor="middle" x="652" y="-167.8" font-family="Times,serif" font-size="14.00" fill="#000000">MdSpinnerComponent </text>
</g>
<!-- CommerceModule&#45;&gt;MdSpinnerComponent  -->
<g id="edge19" class="edge">
<title>CommerceModule&#45;&gt;MdSpinnerComponent </title>
<path fill="none" stroke="#000000" stroke-dasharray="5,2" d="M144.5168,-114C290.8723,-114 652,-114 652,-114 652,-114 652,-143.9664 652,-143.9664"/>
<polygon fill="#000000" stroke="#000000" points="648.5001,-143.9663 652,-153.9664 655.5001,-143.9664 648.5001,-143.9663"/>
</g>
<!-- PriceComponent  -->
<g id="node21" class="node">
<title>PriceComponent </title>
<polygon fill="#fb8072" stroke="#000000" points="559.5961,-190 446.4039,-190 446.4039,-154 559.5961,-154 559.5961,-190"/>
<text text-anchor="middle" x="503" y="-167.8" font-family="Times,serif" font-size="14.00" fill="#000000">PriceComponent </text>
</g>
<!-- CommerceModule&#45;&gt;PriceComponent  -->
<g id="edge20" class="edge">
<title>CommerceModule&#45;&gt;PriceComponent </title>
<path fill="none" stroke="#000000" stroke-dasharray="5,2" d="M144.4787,-116C260.5127,-116 503,-116 503,-116 503,-116 503,-143.973 503,-143.973"/>
<polygon fill="#000000" stroke="#000000" points="499.5001,-143.973 503,-153.973 506.5001,-143.973 499.5001,-143.973"/>
</g>
<!-- PriceMatrixFilter  -->
<g id="node22" class="node">
<title>PriceMatrixFilter </title>
<polygon fill="#fb8072" stroke="#000000" points="428.194,-190 311.806,-190 311.806,-154 428.194,-154 428.194,-190"/>
<text text-anchor="middle" x="370" y="-167.8" font-family="Times,serif" font-size="14.00" fill="#000000">PriceMatrixFilter </text>
</g>
<!-- CommerceModule&#45;&gt;PriceMatrixFilter  -->
<g id="edge21" class="edge">
<title>CommerceModule&#45;&gt;PriceMatrixFilter </title>
<path fill="none" stroke="#000000" stroke-dasharray="5,2" d="M144.6532,-118C228.606,-118 370,-118 370,-118 370,-118 370,-143.7181 370,-143.7181"/>
<polygon fill="#000000" stroke="#000000" points="366.5001,-143.718 370,-153.7181 373.5001,-143.7181 366.5001,-143.718"/>
</g>
<!-- OrderModule -->
<g id="node23" class="node">
<title>OrderModule</title>
<polygon fill="#8dd3c7" stroke="#000000" points="2465.1924,-190 2462.1924,-194 2441.1924,-194 2438.1924,-190 2372.8076,-190 2372.8076,-154 2465.1924,-154 2465.1924,-190"/>
<text text-anchor="middle" x="2419" y="-167.8" font-family="Times,serif" font-size="14.00" fill="#000000">OrderModule</text>
</g>
<!-- CommerceModule&#45;&gt;OrderModule -->
<g id="edge22" class="edge">
<title>CommerceModule&#45;&gt;OrderModule</title>
<path fill="none" stroke="#000000" d="M144.6593,-90C511.6086,-90 2419,-90 2419,-90 2419,-90 2419,-143.8015 2419,-143.8015"/>
<polygon fill="#000000" stroke="#000000" points="2415.5001,-143.8015 2419,-153.8015 2422.5001,-143.8016 2415.5001,-143.8015"/>
</g>
<!-- AddToCartComponent -->
<g id="node3" class="node">
<title>AddToCartComponent</title>
<polygon fill="#ffffb3" stroke="#000000" points="2793.594,-122 2648.406,-122 2648.406,-86 2793.594,-86 2793.594,-122"/>
<text text-anchor="middle" x="2721" y="-99.8" font-family="Times,serif" font-size="14.00" fill="#000000">AddToCartComponent</text>
</g>
<!-- AddToCartComponent&#45;&gt;CartModule -->
<g id="edge2" class="edge">
<title>AddToCartComponent&#45;&gt;CartModule</title>
<path fill="none" stroke="#000000" d="M2745.9323,-122.2667C2745.9323,-140.5552 2745.9323,-166 2745.9323,-166 2745.9323,-166 2616.9643,-166 2616.9643,-166"/>
<polygon fill="#000000" stroke="#000000" points="2616.9643,-162.5001 2606.9643,-166 2616.9643,-169.5001 2616.9643,-162.5001"/>
</g>
<!-- MiniCartComponent -->
<g id="node4" class="node">
<title>MiniCartComponent</title>
<polygon fill="#ffffb3" stroke="#000000" points="2630.161,-122 2497.839,-122 2497.839,-86 2630.161,-86 2630.161,-122"/>
<text text-anchor="middle" x="2564" y="-99.8" font-family="Times,serif" font-size="14.00" fill="#000000">MiniCartComponent</text>
</g>
<!-- MiniCartComponent&#45;&gt;CartModule -->
<g id="edge3" class="edge">
<title>MiniCartComponent&#45;&gt;CartModule</title>
<path fill="none" stroke="#000000" d="M2565,-122.2228C2565,-122.2228 2565,-143.7269 2565,-143.7269"/>
<polygon fill="#000000" stroke="#000000" points="2561.5001,-143.7269 2565,-153.7269 2568.5001,-143.727 2561.5001,-143.7269"/>
</g>
<!-- AddToCartComponent  -->
<g id="node6" class="node">
<title>AddToCartComponent </title>
<polygon fill="#fb8072" stroke="#000000" points="2799.0946,-258 2650.9054,-258 2650.9054,-222 2799.0946,-222 2799.0946,-258"/>
<text text-anchor="middle" x="2725" y="-235.8" font-family="Times,serif" font-size="14.00" fill="#000000">AddToCartComponent </text>
</g>
<!-- CartModule&#45;&gt;AddToCartComponent  -->
<g id="edge5" class="edge">
<title>CartModule&#45;&gt;AddToCartComponent </title>
<path fill="none" stroke="#000000" stroke-dasharray="5,2" d="M2606.8168,-178C2645.9145,-178 2698.3177,-178 2698.3177,-178 2698.3177,-178 2698.3177,-211.7333 2698.3177,-211.7333"/>
<polygon fill="#000000" stroke="#000000" points="2694.8178,-211.7333 2698.3177,-221.7333 2701.8178,-211.7333 2694.8178,-211.7333"/>
</g>
<!-- MiniCartComponent  -->
<g id="node7" class="node">
<title>MiniCartComponent </title>
<polygon fill="#fb8072" stroke="#000000" points="2633.1607,-258 2496.8393,-258 2496.8393,-222 2633.1607,-222 2633.1607,-258"/>
<text text-anchor="middle" x="2565" y="-235.8" font-family="Times,serif" font-size="14.00" fill="#000000">MiniCartComponent </text>
</g>
<!-- CartModule&#45;&gt;MiniCartComponent  -->
<g id="edge6" class="edge">
<title>CartModule&#45;&gt;MiniCartComponent </title>
<path fill="none" stroke="#000000" stroke-dasharray="5,2" d="M2565,-190.2228C2565,-190.2228 2565,-211.7269 2565,-211.7269"/>
<polygon fill="#000000" stroke="#000000" points="2561.5001,-211.7269 2565,-221.7269 2568.5001,-211.727 2561.5001,-211.7269"/>
</g>
<!-- ConvertUnitsPipe -->
<g id="node9" class="node">
<title>ConvertUnitsPipe</title>
<polygon fill="#ffffb3" stroke="#000000" points="2341.323,-190 2224.677,-190 2224.677,-154 2341.323,-154 2341.323,-190"/>
<text text-anchor="middle" x="2283" y="-167.8" font-family="Times,serif" font-size="14.00" fill="#000000">ConvertUnitsPipe</text>
</g>
<!-- ConvertUnitsPipe&#45;&gt;CommerceModule -->
<g id="edge8" class="edge">
<title>ConvertUnitsPipe&#45;&gt;CommerceModule</title>
<path fill="none" stroke="#000000" d="M2283,-153.8468C2283,-130.2434 2283,-92 2283,-92 2283,-92 154.5324,-92 154.5324,-92"/>
<polygon fill="#000000" stroke="#000000" points="154.5324,-88.5001 144.5324,-92 154.5324,-95.5001 154.5324,-88.5001"/>
</g>
<!-- FormatCurrencyPipe -->
<g id="node10" class="node">
<title>FormatCurrencyPipe</title>
<polygon fill="#ffffb3" stroke="#000000" points="2206.9144,-190 2073.0856,-190 2073.0856,-154 2206.9144,-154 2206.9144,-190"/>
<text text-anchor="middle" x="2140" y="-167.8" font-family="Times,serif" font-size="14.00" fill="#000000">FormatCurrencyPipe</text>
</g>
<!-- FormatCurrencyPipe&#45;&gt;CommerceModule -->
<g id="edge9" class="edge">
<title>FormatCurrencyPipe&#45;&gt;CommerceModule</title>
<path fill="none" stroke="#000000" d="M2140,-153.9092C2140,-130.8672 2140,-94 2140,-94 2140,-94 154.6962,-94 154.6962,-94"/>
<polygon fill="#000000" stroke="#000000" points="154.6962,-90.5001 144.6962,-94 154.6961,-97.5001 154.6962,-90.5001"/>
</g>
<!-- InputFieldComponent -->
<g id="node11" class="node">
<title>InputFieldComponent</title>
<polygon fill="#ffffb3" stroke="#000000" points="2054.6624,-190 1915.3376,-190 1915.3376,-154 2054.6624,-154 2054.6624,-190"/>
<text text-anchor="middle" x="1985" y="-167.8" font-family="Times,serif" font-size="14.00" fill="#000000">InputFieldComponent</text>
</g>
<!-- InputFieldComponent&#45;&gt;CommerceModule -->
<g id="edge10" class="edge">
<title>InputFieldComponent&#45;&gt;CommerceModule</title>
<path fill="none" stroke="#000000" d="M1985,-153.9891C1985,-131.5148 1985,-96 1985,-96 1985,-96 154.5637,-96 154.5637,-96"/>
<polygon fill="#000000" stroke="#000000" points="154.5637,-92.5001 144.5637,-96 154.5636,-99.5001 154.5637,-92.5001"/>
</g>
<!-- LocalCurrencyPipe -->
<g id="node12" class="node">
<title>LocalCurrencyPipe</title>
<polygon fill="#ffffb3" stroke="#000000" points="1897.3473,-190 1772.6527,-190 1772.6527,-154 1897.3473,-154 1897.3473,-190"/>
<text text-anchor="middle" x="1835" y="-167.8" font-family="Times,serif" font-size="14.00" fill="#000000">LocalCurrencyPipe</text>
</g>
<!-- LocalCurrencyPipe&#45;&gt;CommerceModule -->
<g id="edge11" class="edge">
<title>LocalCurrencyPipe&#45;&gt;CommerceModule</title>
<path fill="none" stroke="#000000" d="M1835,-153.7079C1835,-131.7943 1835,-98 1835,-98 1835,-98 154.5274,-98 154.5274,-98"/>
<polygon fill="#000000" stroke="#000000" points="154.5274,-94.5001 144.5274,-98 154.5274,-101.5001 154.5274,-94.5001"/>
</g>
<!-- MdSpinnerComponent -->
<g id="node13" class="node">
<title>MdSpinnerComponent</title>
<polygon fill="#ffffb3" stroke="#000000" points="1754.3258,-190 1609.6742,-190 1609.6742,-154 1754.3258,-154 1754.3258,-190"/>
<text text-anchor="middle" x="1682" y="-167.8" font-family="Times,serif" font-size="14.00" fill="#000000">MdSpinnerComponent</text>
</g>
<!-- MdSpinnerComponent&#45;&gt;CommerceModule -->
<g id="edge12" class="edge">
<title>MdSpinnerComponent&#45;&gt;CommerceModule</title>
<path fill="none" stroke="#000000" d="M1682,-153.8314C1682,-132.502 1682,-100 1682,-100 1682,-100 154.6922,-100 154.6922,-100"/>
<polygon fill="#000000" stroke="#000000" points="154.6922,-96.5001 144.6922,-100 154.6921,-103.5001 154.6922,-96.5001"/>
</g>
<!-- PriceComponent -->
<g id="node14" class="node">
<title>PriceComponent</title>
<polygon fill="#ffffb3" stroke="#000000" points="1592.0954,-190 1481.9046,-190 1481.9046,-154 1592.0954,-154 1592.0954,-190"/>
<text text-anchor="middle" x="1537" y="-167.8" font-family="Times,serif" font-size="14.00" fill="#000000">PriceComponent</text>
</g>
<!-- PriceComponent&#45;&gt;CommerceModule -->
<g id="edge13" class="edge">
<title>PriceComponent&#45;&gt;CommerceModule</title>
<path fill="none" stroke="#000000" d="M1537,-153.9733C1537,-133.2328 1537,-102 1537,-102 1537,-102 154.5837,-102 154.5837,-102"/>
<polygon fill="#000000" stroke="#000000" points="154.5838,-98.5001 144.5837,-102 154.5837,-105.5001 154.5838,-98.5001"/>
</g>
<!-- PriceMatrixFilter -->
<g id="node15" class="node">
<title>PriceMatrixFilter</title>
<polygon fill="#ffffb3" stroke="#000000" points="1463.6938,-190 1350.3062,-190 1350.3062,-154 1463.6938,-154 1463.6938,-190"/>
<text text-anchor="middle" x="1407" y="-167.8" font-family="Times,serif" font-size="14.00" fill="#000000">PriceMatrixFilter</text>
</g>
<!-- PriceMatrixFilter&#45;&gt;CommerceModule -->
<g id="edge14" class="edge">
<title>PriceMatrixFilter&#45;&gt;CommerceModule</title>
<path fill="none" stroke="#000000" d="M1407,-153.7772C1407,-133.6348 1407,-104 1407,-104 1407,-104 154.7203,-104 154.7203,-104"/>
<polygon fill="#000000" stroke="#000000" points="154.7204,-100.5001 144.7203,-104 154.7203,-107.5001 154.7204,-100.5001"/>
</g>
</g>
</svg>
