<?xml version="1.0" encoding="UTF-8" standalone="no"?>
<!DOCTYPE svg PUBLIC "-//W3C//DTD SVG 1.1//EN"
 "http://www.w3.org/Graphics/SVG/1.1/DTD/svg11.dtd">
<!-- Generated by graphviz version 2.40.1 (20161225.0304)
 -->
<!-- Title: dependencies Pages: 1 -->
<svg width="3039pt" height="290pt"
 viewBox="0.00 0.00 3039.00 290.00" xmlns="http://www.w3.org/2000/svg" xmlns:xlink="http://www.w3.org/1999/xlink">
<g id="graph0" class="graph" transform="scale(1 1) rotate(0) translate(4 286)">
<title>dependencies</title>
<polygon fill="#ffffff" stroke="transparent" points="-4,4 -4,-286 3035,-286 3035,4 -4,4"/>
<text text-anchor="start" x="1494.5091" y="-42.4" font-family="sans-serif" font-weight="bold" font-size="14.00" fill="#000000">Legend</text>
<polygon fill="#ffffb3" stroke="transparent" points="1281.5,-10 1281.5,-30 1301.5,-30 1301.5,-10 1281.5,-10"/>
<text text-anchor="start" x="1305.129" y="-15.4" font-family="sans-serif" font-size="14.00" fill="#000000"> &#160;Declarations</text>
<polygon fill="#8dd3c7" stroke="transparent" points="1394.5,-10 1394.5,-30 1414.5,-30 1414.5,-10 1394.5,-10"/>
<text text-anchor="start" x="1418.2251" y="-15.4" font-family="sans-serif" font-size="14.00" fill="#000000"> &#160;Module</text>
<polygon fill="#80b1d3" stroke="transparent" points="1480.5,-10 1480.5,-30 1500.5,-30 1500.5,-10 1480.5,-10"/>
<text text-anchor="start" x="1504.2812" y="-15.4" font-family="sans-serif" font-size="14.00" fill="#000000"> &#160;Bootstrap</text>
<polygon fill="#fdb462" stroke="transparent" points="1577.5,-10 1577.5,-30 1597.5,-30 1597.5,-10 1577.5,-10"/>
<text text-anchor="start" x="1601.1732" y="-15.4" font-family="sans-serif" font-size="14.00" fill="#000000"> &#160;Providers</text>
<polygon fill="#fb8072" stroke="transparent" points="1673.5,-10 1673.5,-30 1693.5,-30 1693.5,-10 1673.5,-10"/>
<text text-anchor="start" x="1697.2258" y="-15.4" font-family="sans-serif" font-size="14.00" fill="#000000"> &#160;Exports</text>
<g id="clust1" class="cluster">
<title>cluster_AptAccountModule</title>
<polygon fill="none" stroke="#000000" stroke-dasharray="1,5" points="8,-70 8,-198 182,-198 182,-70 8,-70"/>
</g>
<g id="clust3" class="cluster">
<title>cluster_AptAccountModule_imports</title>
<polygon fill="none" stroke="#000000" points="16,-78 16,-130 174,-130 174,-78 16,-78"/>
</g>
<g id="clust7" class="cluster">
<title>cluster_AptCartModule</title>
<polygon fill="none" stroke="#000000" stroke-dasharray="1,5" points="2689,-70 2689,-274 3023,-274 3023,-70 2689,-70"/>
</g>
<g id="clust8" class="cluster">
<title>cluster_AptCartModule_declarations</title>
<polygon fill="none" stroke="#000000" points="2698,-78 2698,-130 3010,-130 3010,-78 2698,-78"/>
</g>
<g id="clust12" class="cluster">
<title>cluster_AptCartModule_exports</title>
<polygon fill="none" stroke="#000000" points="2697,-214 2697,-266 3015,-266 3015,-214 2697,-214"/>
</g>
<g id="clust15" class="cluster">
<title>cluster_AptCatalogModule</title>
<polygon fill="none" stroke="#000000" stroke-dasharray="1,5" points="190,-146 190,-198 330,-198 330,-146 190,-146"/>
</g>
<g id="clust21" class="cluster">
<title>cluster_AptCommerceModule</title>
<polygon fill="none" stroke="#000000" stroke-dasharray="1,5" points="338,-138 338,-206 2399,-206 2399,-138 338,-138"/>
</g>
<g id="clust22" class="cluster">
<title>cluster_AptCommerceModule_declarations</title>
<polygon fill="none" stroke="#000000" points="1384,-146 1384,-198 2391,-198 2391,-146 1384,-146"/>
</g>
<g id="clust31" class="cluster">
<title>cluster_AptCommerceModule_exports</title>
<polygon fill="none" stroke="#000000" points="346,-146 346,-198 1376,-198 1376,-146 346,-146"/>
</g>
<g id="clust34" class="cluster">
<title>cluster_AptOrderModule</title>
<polygon fill="none" stroke="#000000" stroke-dasharray="1,5" points="2407,-146 2407,-198 2537,-198 2537,-146 2407,-146"/>
</g>
<g id="clust40" class="cluster">
<title>cluster_AptPricingModule</title>
<polygon fill="none" stroke="#000000" stroke-dasharray="1,5" points="2545,-146 2545,-198 2681,-198 2681,-146 2545,-146"/>
</g>
<!-- AptCommerceModule -->
<g id="node1" class="node">
<title>AptCommerceModule</title>
<polygon fill="#8dd3c7" stroke="#000000" points="165.9692,-122 162.9692,-126 141.9692,-126 138.9692,-122 24.0308,-122 24.0308,-86 165.9692,-86 165.9692,-122"/>
<text text-anchor="middle" x="95" y="-99.8" font-family="Times,serif" font-size="14.00" fill="#000000">AptCommerceModule</text>
</g>
<!-- AptAccountModule -->
<g id="node2" class="node">
<title>AptAccountModule</title>
<polygon fill="#8dd3c7" stroke="#000000" points="158.9734,-190 155.9734,-194 134.9734,-194 131.9734,-190 31.0266,-190 31.0266,-154 158.9734,-154 158.9734,-190"/>
<text text-anchor="middle" x="95" y="-167.8" font-family="Times,serif" font-size="14.00" fill="#000000">AptAccountModule</text>
</g>
<!-- AptCommerceModule&#45;&gt;AptAccountModule -->
<g id="edge1" class="edge">
<title>AptCommerceModule&#45;&gt;AptAccountModule</title>
<path fill="none" stroke="#000000" d="M95,-122.2228C95,-122.2228 95,-143.7269 95,-143.7269"/>
<polygon fill="#000000" stroke="#000000" points="91.5001,-143.7269 95,-153.7269 98.5001,-143.727 91.5001,-143.7269"/>
</g>
<!-- AptCartModule -->
<g id="node5" class="node">
<title>AptCartModule</title>
<polygon fill="#8dd3c7" stroke="#000000" points="2825.15,-190 2822.15,-194 2801.15,-194 2798.15,-190 2720.85,-190 2720.85,-154 2825.15,-154 2825.15,-190"/>
<text text-anchor="middle" x="2773" y="-167.8" font-family="Times,serif" font-size="14.00" fill="#000000">AptCartModule</text>
</g>
<!-- AptCommerceModule&#45;&gt;AptCartModule -->
<g id="edge4" class="edge">
<title>AptCommerceModule&#45;&gt;AptCartModule</title>
<path fill="none" stroke="#000000" d="M166.0724,-88C582.6518,-88 2689.2064,-88 2689.2064,-88 2689.2064,-88 2689.2064,-172 2689.2064,-172 2689.2064,-172 2710.408,-172 2710.408,-172"/>
<polygon fill="#000000" stroke="#000000" points="2710.408,-175.5001 2720.408,-172 2710.408,-168.5001 2710.408,-175.5001"/>
</g>
<!-- AptCatalogModule -->
<g id="node8" class="node">
<title>AptCatalogModule</title>
<polygon fill="#8dd3c7" stroke="#000000" points="322.094,-190 319.094,-194 298.094,-194 295.094,-190 197.906,-190 197.906,-154 322.094,-154 322.094,-190"/>
<text text-anchor="middle" x="260" y="-167.8" font-family="Times,serif" font-size="14.00" fill="#000000">AptCatalogModule</text>
</g>
<!-- AptCommerceModule&#45;&gt;AptCatalogModule -->
<g id="edge7" class="edge">
<title>AptCommerceModule&#45;&gt;AptCatalogModule</title>
<path fill="none" stroke="#000000" d="M166.4118,-121C211.0049,-121 260,-121 260,-121 260,-121 260,-143.8757 260,-143.8757"/>
<polygon fill="#000000" stroke="#000000" points="256.5001,-143.8757 260,-153.8757 263.5001,-143.8757 256.5001,-143.8757"/>
</g>
<!-- ConvertUnitsPipe  -->
<g id="node16" class="node">
<title>ConvertUnitsPipe </title>
<polygon fill="#fb8072" stroke="#000000" points="1367.8227,-190 1248.1773,-190 1248.1773,-154 1367.8227,-154 1367.8227,-190"/>
<text text-anchor="middle" x="1308" y="-167.8" font-family="Times,serif" font-size="14.00" fill="#000000">ConvertUnitsPipe </text>
</g>
<!-- AptCommerceModule&#45;&gt;ConvertUnitsPipe  -->
<g id="edge15" class="edge">
<title>AptCommerceModule&#45;&gt;ConvertUnitsPipe </title>
<path fill="none" stroke="#000000" stroke-dasharray="5,2" d="M166.3501,-107C426.3639,-107 1308,-107 1308,-107 1308,-107 1308,-143.8939 1308,-143.8939"/>
<polygon fill="#000000" stroke="#000000" points="1304.5001,-143.8938 1308,-153.8939 1311.5001,-143.8939 1304.5001,-143.8938"/>
</g>
<!-- FormatCurrencyPipe  -->
<g id="node17" class="node">
<title>FormatCurrencyPipe </title>
<polygon fill="#fb8072" stroke="#000000" points="1230.4138,-190 1093.5862,-190 1093.5862,-154 1230.4138,-154 1230.4138,-190"/>
<text text-anchor="middle" x="1162" y="-167.8" font-family="Times,serif" font-size="14.00" fill="#000000">FormatCurrencyPipe </text>
</g>
<!-- AptCommerceModule&#45;&gt;FormatCurrencyPipe  -->
<g id="edge16" class="edge">
<title>AptCommerceModule&#45;&gt;FormatCurrencyPipe </title>
<path fill="none" stroke="#000000" stroke-dasharray="5,2" d="M166.2499,-109C405.0229,-109 1162,-109 1162,-109 1162,-109 1162,-143.7778 1162,-143.7778"/>
<polygon fill="#000000" stroke="#000000" points="1158.5001,-143.7778 1162,-153.7778 1165.5001,-143.7778 1158.5001,-143.7778"/>
</g>
<!-- InputFieldComponent  -->
<g id="node18" class="node">
<title>InputFieldComponent </title>
<polygon fill="#fb8072" stroke="#000000" points="1075.6621,-190 932.3379,-190 932.3379,-154 1075.6621,-154 1075.6621,-190"/>
<text text-anchor="middle" x="1004" y="-167.8" font-family="Times,serif" font-size="14.00" fill="#000000">InputFieldComponent </text>
</g>
<!-- AptCommerceModule&#45;&gt;InputFieldComponent  -->
<g id="edge17" class="edge">
<title>AptCommerceModule&#45;&gt;InputFieldComponent </title>
<path fill="none" stroke="#000000" stroke-dasharray="5,2" d="M166.3277,-111C380.616,-111 1004,-111 1004,-111 1004,-111 1004,-143.698 1004,-143.698"/>
<polygon fill="#000000" stroke="#000000" points="1000.5001,-143.698 1004,-153.698 1007.5001,-143.698 1000.5001,-143.698"/>
</g>
<!-- LocalCurrencyPipe  -->
<g id="node19" class="node">
<title>LocalCurrencyPipe </title>
<polygon fill="#fb8072" stroke="#000000" points="914.3477,-190 785.6523,-190 785.6523,-154 914.3477,-154 914.3477,-190"/>
<text text-anchor="middle" x="850" y="-167.8" font-family="Times,serif" font-size="14.00" fill="#000000">LocalCurrencyPipe </text>
</g>
<!-- AptCommerceModule&#45;&gt;LocalCurrencyPipe  -->
<g id="edge18" class="edge">
<title>AptCommerceModule&#45;&gt;LocalCurrencyPipe </title>
<path fill="none" stroke="#000000" stroke-dasharray="5,2" d="M166.0286,-113C353.9754,-113 850,-113 850,-113 850,-113 850,-143.9775 850,-143.9775"/>
<polygon fill="#000000" stroke="#000000" points="846.5001,-143.9774 850,-153.9775 853.5001,-143.9775 846.5001,-143.9774"/>
</g>
<!-- MdSpinnerComponent  -->
<g id="node20" class="node">
<title>MdSpinnerComponent </title>
<polygon fill="#fb8072" stroke="#000000" points="767.8255,-190 620.1745,-190 620.1745,-154 767.8255,-154 767.8255,-190"/>
<text text-anchor="middle" x="694" y="-167.8" font-family="Times,serif" font-size="14.00" fill="#000000">MdSpinnerComponent </text>
</g>
<!-- AptCommerceModule&#45;&gt;MdSpinnerComponent  -->
<g id="edge19" class="edge">
<title>AptCommerceModule&#45;&gt;MdSpinnerComponent </title>
<path fill="none" stroke="#000000" stroke-dasharray="5,2" d="M166.0654,-115C324.7343,-115 694,-115 694,-115 694,-115 694,-143.9648 694,-143.9648"/>
<polygon fill="#000000" stroke="#000000" points="690.5001,-143.9648 694,-153.9648 697.5001,-143.9649 690.5001,-143.9648"/>
</g>
<!-- PriceComponent  -->
<g id="node21" class="node">
<title>PriceComponent </title>
<polygon fill="#fb8072" stroke="#000000" points="601.5961,-190 488.4039,-190 488.4039,-154 601.5961,-154 601.5961,-190"/>
<text text-anchor="middle" x="545" y="-167.8" font-family="Times,serif" font-size="14.00" fill="#000000">PriceComponent </text>
</g>
<!-- AptCommerceModule&#45;&gt;PriceComponent  -->
<g id="edge20" class="edge">
<title>AptCommerceModule&#45;&gt;PriceComponent </title>
<path fill="none" stroke="#000000" stroke-dasharray="5,2" d="M166.3038,-117C293.1916,-117 545,-117 545,-117 545,-117 545,-143.9909 545,-143.9909"/>
<polygon fill="#000000" stroke="#000000" points="541.5001,-143.9909 545,-153.9909 548.5001,-143.991 541.5001,-143.9909"/>
</g>
<!-- PriceMatrixFilter  -->
<g id="node22" class="node">
<title>PriceMatrixFilter </title>
<polygon fill="#fb8072" stroke="#000000" points="470.194,-190 353.806,-190 353.806,-154 470.194,-154 470.194,-190"/>
<text text-anchor="middle" x="412" y="-167.8" font-family="Times,serif" font-size="14.00" fill="#000000">PriceMatrixFilter </text>
</g>
<!-- AptCommerceModule&#45;&gt;PriceMatrixFilter  -->
<g id="edge21" class="edge">
<title>AptCommerceModule&#45;&gt;PriceMatrixFilter </title>
<path fill="none" stroke="#000000" stroke-dasharray="5,2" d="M166.141,-119C259.6031,-119 412,-119 412,-119 412,-119 412,-143.7604 412,-143.7604"/>
<polygon fill="#000000" stroke="#000000" points="408.5001,-143.7604 412,-153.7604 415.5001,-143.7604 408.5001,-143.7604"/>
</g>
<!-- AptOrderModule -->
<g id="node23" class="node">
<title>AptOrderModule</title>
<polygon fill="#8dd3c7" stroke="#000000" points="2528.6896,-190 2525.6896,-194 2504.6896,-194 2501.6896,-190 2415.3104,-190 2415.3104,-154 2528.6896,-154 2528.6896,-190"/>
<text text-anchor="middle" x="2472" y="-167.8" font-family="Times,serif" font-size="14.00" fill="#000000">AptOrderModule</text>
</g>
<!-- AptCommerceModule&#45;&gt;AptOrderModule -->
<g id="edge22" class="edge">
<title>AptCommerceModule&#45;&gt;AptOrderModule</title>
<path fill="none" stroke="#000000" d="M166.1389,-92C561.6426,-92 2472,-92 2472,-92 2472,-92 2472,-143.8468 2472,-143.8468"/>
<polygon fill="#000000" stroke="#000000" points="2468.5001,-143.8467 2472,-153.8468 2475.5001,-143.8468 2468.5001,-143.8467"/>
</g>
<!-- AptPricingModule -->
<g id="node24" class="node">
<title>AptPricingModule</title>
<polygon fill="#8dd3c7" stroke="#000000" points="2673.486,-190 2670.486,-194 2649.486,-194 2646.486,-190 2552.514,-190 2552.514,-154 2673.486,-154 2673.486,-190"/>
<text text-anchor="middle" x="2613" y="-167.8" font-family="Times,serif" font-size="14.00" fill="#000000">AptPricingModule</text>
</g>
<!-- AptCommerceModule&#45;&gt;AptPricingModule -->
<g id="edge23" class="edge">
<title>AptCommerceModule&#45;&gt;AptPricingModule</title>
<path fill="none" stroke="#000000" d="M165.9695,-90C574.9689,-90 2613,-90 2613,-90 2613,-90 2613,-143.8015 2613,-143.8015"/>
<polygon fill="#000000" stroke="#000000" points="2609.5001,-143.8015 2613,-153.8015 2616.5001,-143.8016 2609.5001,-143.8015"/>
</g>
<!-- AddToCartComponent -->
<g id="node3" class="node">
<title>AddToCartComponent</title>
<polygon fill="#ffffb3" stroke="#000000" points="3001.594,-122 2856.406,-122 2856.406,-86 3001.594,-86 3001.594,-122"/>
<text text-anchor="middle" x="2929" y="-99.8" font-family="Times,serif" font-size="14.00" fill="#000000">AddToCartComponent</text>
</g>
<!-- AddToCartComponent&#45;&gt;AptCartModule -->
<g id="edge2" class="edge">
<title>AddToCartComponent&#45;&gt;AptCartModule</title>
<path fill="none" stroke="#000000" d="M2953.9323,-122.2667C2953.9323,-140.5552 2953.9323,-166 2953.9323,-166 2953.9323,-166 2835.3331,-166 2835.3331,-166"/>
<polygon fill="#000000" stroke="#000000" points="2835.3332,-162.5001 2825.3331,-166 2835.3331,-169.5001 2835.3332,-162.5001"/>
</g>
<!-- MiniCartComponent -->
<g id="node4" class="node">
<title>MiniCartComponent</title>
<polygon fill="#ffffb3" stroke="#000000" points="2838.161,-122 2705.839,-122 2705.839,-86 2838.161,-86 2838.161,-122"/>
<text text-anchor="middle" x="2772" y="-99.8" font-family="Times,serif" font-size="14.00" fill="#000000">MiniCartComponent</text>
</g>
<!-- MiniCartComponent&#45;&gt;AptCartModule -->
<g id="edge3" class="edge">
<title>MiniCartComponent&#45;&gt;AptCartModule</title>
<path fill="none" stroke="#000000" d="M2773,-122.2228C2773,-122.2228 2773,-143.7269 2773,-143.7269"/>
<polygon fill="#000000" stroke="#000000" points="2769.5001,-143.7269 2773,-153.7269 2776.5001,-143.727 2769.5001,-143.7269"/>
</g>
<!-- AddToCartComponent  -->
<g id="node6" class="node">
<title>AddToCartComponent </title>
<polygon fill="#fb8072" stroke="#000000" points="3007.0946,-258 2858.9054,-258 2858.9054,-222 3007.0946,-222 3007.0946,-258"/>
<text text-anchor="middle" x="2933" y="-235.8" font-family="Times,serif" font-size="14.00" fill="#000000">AddToCartComponent </text>
</g>
<!-- AptCartModule&#45;&gt;AddToCartComponent  -->
<g id="edge5" class="edge">
<title>AptCartModule&#45;&gt;AddToCartComponent </title>
<path fill="none" stroke="#000000" stroke-dasharray="5,2" d="M2825.308,-178C2862.6577,-178 2906.3177,-178 2906.3177,-178 2906.3177,-178 2906.3177,-211.7333 2906.3177,-211.7333"/>
<polygon fill="#000000" stroke="#000000" points="2902.8178,-211.7333 2906.3177,-221.7333 2909.8178,-211.7333 2902.8178,-211.7333"/>
</g>
<!-- MiniCartComponent  -->
<g id="node7" class="node">
<title>MiniCartComponent </title>
<polygon fill="#fb8072" stroke="#000000" points="2841.1607,-258 2704.8393,-258 2704.8393,-222 2841.1607,-222 2841.1607,-258"/>
<text text-anchor="middle" x="2773" y="-235.8" font-family="Times,serif" font-size="14.00" fill="#000000">MiniCartComponent </text>
</g>
<!-- AptCartModule&#45;&gt;MiniCartComponent  -->
<g id="edge6" class="edge">
<title>AptCartModule&#45;&gt;MiniCartComponent </title>
<path fill="none" stroke="#000000" stroke-dasharray="5,2" d="M2773,-190.2228C2773,-190.2228 2773,-211.7269 2773,-211.7269"/>
<polygon fill="#000000" stroke="#000000" points="2769.5001,-211.7269 2773,-221.7269 2776.5001,-211.727 2769.5001,-211.7269"/>
</g>
<!-- ConvertUnitsPipe -->
<g id="node9" class="node">
<title>ConvertUnitsPipe</title>
<polygon fill="#ffffb3" stroke="#000000" points="2383.323,-190 2266.677,-190 2266.677,-154 2383.323,-154 2383.323,-190"/>
<text text-anchor="middle" x="2325" y="-167.8" font-family="Times,serif" font-size="14.00" fill="#000000">ConvertUnitsPipe</text>
</g>
<!-- ConvertUnitsPipe&#45;&gt;AptCommerceModule -->
<g id="edge8" class="edge">
<title>ConvertUnitsPipe&#45;&gt;AptCommerceModule</title>
<path fill="none" stroke="#000000" d="M2325,-153.9092C2325,-130.8672 2325,-94 2325,-94 2325,-94 176.0452,-94 176.0452,-94"/>
<polygon fill="#000000" stroke="#000000" points="176.0453,-90.5001 166.0452,-94 176.0452,-97.5001 176.0453,-90.5001"/>
</g>
<!-- FormatCurrencyPipe -->
<g id="node10" class="node">
<title>FormatCurrencyPipe</title>
<polygon fill="#ffffb3" stroke="#000000" points="2248.9144,-190 2115.0856,-190 2115.0856,-154 2248.9144,-154 2248.9144,-190"/>
<text text-anchor="middle" x="2182" y="-167.8" font-family="Times,serif" font-size="14.00" fill="#000000">FormatCurrencyPipe</text>
</g>
<!-- FormatCurrencyPipe&#45;&gt;AptCommerceModule -->
<g id="edge9" class="edge">
<title>FormatCurrencyPipe&#45;&gt;AptCommerceModule</title>
<path fill="none" stroke="#000000" d="M2182,-153.9891C2182,-131.5148 2182,-96 2182,-96 2182,-96 176.2355,-96 176.2355,-96"/>
<polygon fill="#000000" stroke="#000000" points="176.2356,-92.5001 166.2355,-96 176.2355,-99.5001 176.2356,-92.5001"/>
</g>
<!-- InputFieldComponent -->
<g id="node11" class="node">
<title>InputFieldComponent</title>
<polygon fill="#ffffb3" stroke="#000000" points="2096.6624,-190 1957.3376,-190 1957.3376,-154 2096.6624,-154 2096.6624,-190"/>
<text text-anchor="middle" x="2027" y="-167.8" font-family="Times,serif" font-size="14.00" fill="#000000">InputFieldComponent</text>
</g>
<!-- InputFieldComponent&#45;&gt;AptCommerceModule -->
<g id="edge10" class="edge">
<title>InputFieldComponent&#45;&gt;AptCommerceModule</title>
<path fill="none" stroke="#000000" d="M2027,-153.7079C2027,-131.7943 2027,-98 2027,-98 2027,-98 176.0522,-98 176.0522,-98"/>
<polygon fill="#000000" stroke="#000000" points="176.0522,-94.5001 166.0522,-98 176.0522,-101.5001 176.0522,-94.5001"/>
</g>
<!-- LocalCurrencyPipe -->
<g id="node12" class="node">
<title>LocalCurrencyPipe</title>
<polygon fill="#ffffb3" stroke="#000000" points="1939.3473,-190 1814.6527,-190 1814.6527,-154 1939.3473,-154 1939.3473,-190"/>
<text text-anchor="middle" x="1877" y="-167.8" font-family="Times,serif" font-size="14.00" fill="#000000">LocalCurrencyPipe</text>
</g>
<!-- LocalCurrencyPipe&#45;&gt;AptCommerceModule -->
<g id="edge11" class="edge">
<title>LocalCurrencyPipe&#45;&gt;AptCommerceModule</title>
<path fill="none" stroke="#000000" d="M1877,-153.8314C1877,-132.502 1877,-100 1877,-100 1877,-100 176.2323,-100 176.2323,-100"/>
<polygon fill="#000000" stroke="#000000" points="176.2323,-96.5001 166.2323,-100 176.2323,-103.5001 176.2323,-96.5001"/>
</g>
<!-- MdSpinnerComponent -->
<g id="node13" class="node">
<title>MdSpinnerComponent</title>
<polygon fill="#ffffb3" stroke="#000000" points="1796.3258,-190 1651.6742,-190 1651.6742,-154 1796.3258,-154 1796.3258,-190"/>
<text text-anchor="middle" x="1724" y="-167.8" font-family="Times,serif" font-size="14.00" fill="#000000">MdSpinnerComponent</text>
</g>
<!-- MdSpinnerComponent&#45;&gt;AptCommerceModule -->
<g id="edge12" class="edge">
<title>MdSpinnerComponent&#45;&gt;AptCommerceModule</title>
<path fill="none" stroke="#000000" d="M1724,-153.9733C1724,-133.2328 1724,-102 1724,-102 1724,-102 176.0436,-102 176.0436,-102"/>
<polygon fill="#000000" stroke="#000000" points="176.0436,-98.5001 166.0436,-102 176.0435,-105.5001 176.0436,-98.5001"/>
</g>
<!-- PriceComponent -->
<g id="node14" class="node">
<title>PriceComponent</title>
<polygon fill="#ffffb3" stroke="#000000" points="1634.0954,-190 1523.9046,-190 1523.9046,-154 1634.0954,-154 1634.0954,-190"/>
<text text-anchor="middle" x="1579" y="-167.8" font-family="Times,serif" font-size="14.00" fill="#000000">PriceComponent</text>
</g>
<!-- PriceComponent&#45;&gt;AptCommerceModule -->
<g id="edge13" class="edge">
<title>PriceComponent&#45;&gt;AptCommerceModule</title>
<path fill="none" stroke="#000000" d="M1579,-153.7772C1579,-133.6348 1579,-104 1579,-104 1579,-104 176.0765,-104 176.0765,-104"/>
<polygon fill="#000000" stroke="#000000" points="176.0765,-100.5001 166.0765,-104 176.0764,-107.5001 176.0765,-100.5001"/>
</g>
<!-- PriceMatrixFilter -->
<g id="node15" class="node">
<title>PriceMatrixFilter</title>
<polygon fill="#ffffb3" stroke="#000000" points="1505.6938,-190 1392.3062,-190 1392.3062,-154 1505.6938,-154 1505.6938,-190"/>
<text text-anchor="middle" x="1449" y="-167.8" font-family="Times,serif" font-size="14.00" fill="#000000">PriceMatrixFilter</text>
</g>
<!-- PriceMatrixFilter&#45;&gt;AptCommerceModule -->
<g id="edge14" class="edge">
<title>PriceMatrixFilter&#45;&gt;AptCommerceModule</title>
<path fill="none" stroke="#000000" d="M1449,-153.692C1449,-133.8545 1449,-105 1449,-105 1449,-105 176.365,-105 176.365,-105"/>
<polygon fill="#000000" stroke="#000000" points="176.3651,-101.5001 166.365,-105 176.365,-108.5001 176.3651,-101.5001"/>
</g>
</g>
</svg>
