<?xml version="1.0" encoding="UTF-8" standalone="no"?>
<!DOCTYPE svg PUBLIC "-//W3C//DTD SVG 1.1//EN"
 "http://www.w3.org/Graphics/SVG/1.1/DTD/svg11.dtd">
<!-- Generated by graphviz version 2.40.1 (20161225.0304)
 -->
<!-- Title: dependencies Pages: 1 -->
<svg width="4288pt" height="431pt"
 viewBox="0.00 0.00 4288.00 431.00" xmlns="http://www.w3.org/2000/svg" xmlns:xlink="http://www.w3.org/1999/xlink">
<g id="graph0" class="graph" transform="scale(1 1) rotate(0) translate(4 427)">
<title>dependencies</title>
<polygon fill="#ffffff" stroke="transparent" points="-4,4 -4,-427 4284,-427 4284,4 -4,4"/>
<text text-anchor="start" x="2119.0091" y="-42.4" font-family="sans-serif" font-weight="bold" font-size="14.00" fill="#000000">Legend</text>
<polygon fill="#ffffb3" stroke="transparent" points="1906,-10 1906,-30 1926,-30 1926,-10 1906,-10"/>
<text text-anchor="start" x="1929.629" y="-15.4" font-family="sans-serif" font-size="14.00" fill="#000000"> &#160;Declarations</text>
<polygon fill="#8dd3c7" stroke="transparent" points="2019,-10 2019,-30 2039,-30 2039,-10 2019,-10"/>
<text text-anchor="start" x="2042.7251" y="-15.4" font-family="sans-serif" font-size="14.00" fill="#000000"> &#160;Module</text>
<polygon fill="#80b1d3" stroke="transparent" points="2105,-10 2105,-30 2125,-30 2125,-10 2105,-10"/>
<text text-anchor="start" x="2128.7812" y="-15.4" font-family="sans-serif" font-size="14.00" fill="#000000"> &#160;Bootstrap</text>
<polygon fill="#fdb462" stroke="transparent" points="2202,-10 2202,-30 2222,-30 2222,-10 2202,-10"/>
<text text-anchor="start" x="2225.6732" y="-15.4" font-family="sans-serif" font-size="14.00" fill="#000000"> &#160;Providers</text>
<polygon fill="#fb8072" stroke="transparent" points="2298,-10 2298,-30 2318,-30 2318,-10 2298,-10"/>
<text text-anchor="start" x="2321.7258" y="-15.4" font-family="sans-serif" font-size="14.00" fill="#000000"> &#160;Exports</text>
<g id="clust1" class="cluster">
<title>cluster_CartModule</title>
<polygon fill="none" stroke="#000000" stroke-dasharray="1,5" points="2216,-70 2216,-347 2672,-347 2672,-70 2216,-70"/>
</g>
<g id="clust2" class="cluster">
<title>cluster_CartModule_declarations</title>
<polygon fill="none" stroke="#000000" points="2352,-143 2352,-195 2664,-195 2664,-143 2352,-143"/>
</g>
<g id="clust5" class="cluster">
<title>cluster_CartModule_imports</title>
<polygon fill="none" stroke="#000000" points="2224,-78 2224,-195 2340,-195 2340,-78 2224,-78"/>
</g>
<g id="clust6" class="cluster">
<title>cluster_CartModule_exports</title>
<polygon fill="none" stroke="#000000" points="2245,-287 2245,-339 2563,-339 2563,-287 2245,-287"/>
</g>
<g id="clust9" class="cluster">
<title>cluster_CatalogModule</title>
<polygon fill="none" stroke="#000000" stroke-dasharray="1,5" points="8,-211 8,-415 586,-415 586,-211 8,-211"/>
</g>
<g id="clust10" class="cluster">
<title>cluster_CatalogModule_declarations</title>
<polygon fill="none" stroke="#000000" points="26,-219 26,-271 578,-271 578,-219 26,-219"/>
</g>
<g id="clust15" class="cluster">
<title>cluster_CatalogModule_exports</title>
<polygon fill="none" stroke="#000000" points="16,-355 16,-407 578,-407 578,-355 16,-355"/>
</g>
<g id="clust24" class="cluster">
<title>cluster_PricingModule</title>
<polygon fill="none" stroke="#000000" stroke-dasharray="1,5" points="2680,-135 2680,-203 4272,-203 4272,-135 2680,-135"/>
</g>
<g id="clust25" class="cluster">
<title>cluster_PricingModule_declarations</title>
<polygon fill="none" stroke="#000000" points="3491,-143 3491,-195 4264,-195 4264,-143 3491,-143"/>
</g>
<g id="clust33" class="cluster">
<title>cluster_PricingModule_exports</title>
<polygon fill="none" stroke="#000000" points="2688,-143 2688,-195 3483,-195 3483,-143 2688,-143"/>
</g>
<g id="clust36" class="cluster">
<title>cluster_StoreModule</title>
<polygon fill="none" stroke="#000000" stroke-dasharray="1,5" points="594,-211 594,-279 2208,-279 2208,-211 594,-211"/>
</g>
<g id="clust37" class="cluster">
<title>cluster_StoreModule_declarations</title>
<polygon fill="none" stroke="#000000" points="1414,-219 1414,-271 2200,-271 2200,-219 1414,-219"/>
</g>
<g id="clust44" class="cluster">
<title>cluster_StoreModule_exports</title>
<polygon fill="none" stroke="#000000" points="602,-219 602,-271 1406,-271 1406,-219 602,-219"/>
</g>
<!-- AddToCartComponent -->
<g id="node1" class="node">
<title>AddToCartComponent</title>
<polygon fill="#ffffb3" stroke="#000000" points="2655.594,-187 2510.406,-187 2510.406,-151 2655.594,-151 2655.594,-187"/>
<text text-anchor="middle" x="2583" y="-164.8" font-family="Times,serif" font-size="14.00" fill="#000000">AddToCartComponent</text>
</g>
<!-- CartModule -->
<g id="node3" class="node">
<title>CartModule</title>
<polygon fill="#8dd3c7" stroke="#000000" points="2382.6529,-263 2379.6529,-267 2358.6529,-267 2355.6529,-263 2299.3471,-263 2299.3471,-227 2382.6529,-227 2382.6529,-263"/>
<text text-anchor="middle" x="2341" y="-240.8" font-family="Times,serif" font-size="14.00" fill="#000000">CartModule</text>
</g>
<!-- AddToCartComponent&#45;&gt;CartModule -->
<g id="edge1" class="edge">
<title>AddToCartComponent&#45;&gt;CartModule</title>
<path fill="none" stroke="#000000" d="M2532.875,-187.0267C2532.875,-207.7672 2532.875,-239 2532.875,-239 2532.875,-239 2393.1078,-239 2393.1078,-239"/>
<polygon fill="#000000" stroke="#000000" points="2393.1078,-235.5001 2383.1078,-239 2393.1077,-242.5001 2393.1078,-235.5001"/>
</g>
<!-- MiniCartComponent -->
<g id="node2" class="node">
<title>MiniCartComponent</title>
<polygon fill="#ffffb3" stroke="#000000" points="2492.161,-187 2359.839,-187 2359.839,-151 2492.161,-151 2492.161,-187"/>
<text text-anchor="middle" x="2426" y="-164.8" font-family="Times,serif" font-size="14.00" fill="#000000">MiniCartComponent</text>
</g>
<!-- MiniCartComponent&#45;&gt;CartModule -->
<g id="edge2" class="edge">
<title>MiniCartComponent&#45;&gt;CartModule</title>
<path fill="none" stroke="#000000" d="M2371.2479,-187.0109C2371.2479,-187.0109 2371.2479,-216.855 2371.2479,-216.855"/>
<polygon fill="#000000" stroke="#000000" points="2367.748,-216.8549 2371.2479,-226.855 2374.748,-216.855 2367.748,-216.8549"/>
</g>
<!-- AddToCartComponent  -->
<g id="node6" class="node">
<title>AddToCartComponent </title>
<polygon fill="#fb8072" stroke="#000000" points="2555.0946,-331 2406.9054,-331 2406.9054,-295 2555.0946,-295 2555.0946,-331"/>
<text text-anchor="middle" x="2481" y="-308.8" font-family="Times,serif" font-size="14.00" fill="#000000">AddToCartComponent </text>
</g>
<!-- CartModule&#45;&gt;AddToCartComponent  -->
<g id="edge5" class="edge">
<title>CartModule&#45;&gt;AddToCartComponent </title>
<path fill="none" stroke="#000000" stroke-dasharray="5,2" d="M2382.9554,-251C2413.4919,-251 2449.5167,-251 2449.5167,-251 2449.5167,-251 2449.5167,-284.7333 2449.5167,-284.7333"/>
<polygon fill="#000000" stroke="#000000" points="2446.0167,-284.7333 2449.5167,-294.7333 2453.0167,-284.7333 2446.0167,-284.7333"/>
</g>
<!-- MiniCartComponent  -->
<g id="node7" class="node">
<title>MiniCartComponent </title>
<polygon fill="#fb8072" stroke="#000000" points="2389.1607,-331 2252.8393,-331 2252.8393,-295 2389.1607,-295 2389.1607,-331"/>
<text text-anchor="middle" x="2321" y="-308.8" font-family="Times,serif" font-size="14.00" fill="#000000">MiniCartComponent </text>
</g>
<!-- CartModule&#45;&gt;MiniCartComponent  -->
<g id="edge6" class="edge">
<title>CartModule&#45;&gt;MiniCartComponent </title>
<path fill="none" stroke="#000000" stroke-dasharray="5,2" d="M2341,-263.2228C2341,-263.2228 2341,-284.7269 2341,-284.7269"/>
<polygon fill="#000000" stroke="#000000" points="2337.5001,-284.7269 2341,-294.7269 2344.5001,-284.727 2337.5001,-284.7269"/>
</g>
<!-- CatalogModule -->
<g id="node11" class="node">
<title>CatalogModule</title>
<polygon fill="#8dd3c7" stroke="#000000" points="361.5968,-331 358.5968,-335 337.5968,-335 334.5968,-331 258.4032,-331 258.4032,-295 361.5968,-295 361.5968,-331"/>
<text text-anchor="middle" x="310" y="-308.8" font-family="Times,serif" font-size="14.00" fill="#000000">CatalogModule</text>
</g>
<!-- CartModule&#45;&gt;CatalogModule -->
<g id="edge10" class="edge">
<title>CartModule&#45;&gt;CatalogModule</title>
<path fill="none" stroke="#000000" d="M2299.0978,-251C2273.6745,-251 2246.0968,-251 2246.0968,-251 2246.0968,-251 2246.0968,-317 2246.0968,-317 2246.0968,-317 371.7859,-317 371.7859,-317"/>
<polygon fill="#000000" stroke="#000000" points="371.7859,-313.5001 361.7859,-317 371.7859,-320.5001 371.7859,-313.5001"/>
</g>
<!-- PricingModule -->
<g id="node4" class="node">
<title>PricingModule</title>
<polygon fill="#8dd3c7" stroke="#000000" points="2331.9888,-122 2328.9888,-126 2307.9888,-126 2304.9888,-122 2232.0112,-122 2232.0112,-86 2331.9888,-86 2331.9888,-122"/>
<text text-anchor="middle" x="2282" y="-99.8" font-family="Times,serif" font-size="14.00" fill="#000000">PricingModule</text>
</g>
<!-- PricingModule&#45;&gt;CartModule -->
<g id="edge3" class="edge">
<title>PricingModule&#45;&gt;CartModule</title>
<path fill="none" stroke="#000000" d="M2326.7718,-122.1446C2326.7718,-122.1446 2326.7718,-216.925 2326.7718,-216.925"/>
<polygon fill="#000000" stroke="#000000" points="2323.2718,-216.925 2326.7718,-226.925 2330.2718,-216.925 2323.2718,-216.925"/>
</g>
<!-- StoreModule -->
<g id="node5" class="node">
<title>StoreModule</title>
<polygon fill="#8dd3c7" stroke="#000000" points="2321.5983,-187 2318.5983,-191 2297.5983,-191 2294.5983,-187 2232.4017,-187 2232.4017,-151 2321.5983,-151 2321.5983,-187"/>
<text text-anchor="middle" x="2277" y="-164.8" font-family="Times,serif" font-size="14.00" fill="#000000">StoreModule</text>
</g>
<!-- PricingModule&#45;&gt;StoreModule -->
<g id="edge32" class="edge">
<title>PricingModule&#45;&gt;StoreModule</title>
<path fill="none" stroke="#000000" d="M2277,-122.1061C2277,-122.1061 2277,-140.991 2277,-140.991"/>
<polygon fill="#000000" stroke="#000000" points="2273.5001,-140.9909 2277,-150.991 2280.5001,-140.991 2273.5001,-140.9909"/>
</g>
<!-- PricingModule&#45;&gt;CatalogModule -->
<g id="edge11" class="edge">
<title>PricingModule&#45;&gt;CatalogModule</title>
<path fill="none" stroke="#000000" d="M2231.7578,-104C2165.0628,-104 2055.6147,-104 2055.6147,-104 2055.6147,-104 2055.6147,-310 2055.6147,-310 2055.6147,-310 371.7692,-310 371.7692,-310"/>
<polygon fill="#000000" stroke="#000000" points="371.7692,-306.5001 361.7692,-310 371.7691,-313.5001 371.7692,-306.5001"/>
</g>
<!-- ConvertUnitsPipe  -->
<g id="node21" class="node">
<title>ConvertUnitsPipe </title>
<polygon fill="#fb8072" stroke="#000000" points="3474.8227,-187 3355.1773,-187 3355.1773,-151 3474.8227,-151 3474.8227,-187"/>
<text text-anchor="middle" x="3415" y="-164.8" font-family="Times,serif" font-size="14.00" fill="#000000">ConvertUnitsPipe </text>
</g>
<!-- PricingModule&#45;&gt;ConvertUnitsPipe  -->
<g id="edge21" class="edge">
<title>PricingModule&#45;&gt;ConvertUnitsPipe </title>
<path fill="none" stroke="#000000" stroke-dasharray="5,2" d="M2332.1455,-106C2551.4151,-106 3415,-106 3415,-106 3415,-106 3415,-140.7778 3415,-140.7778"/>
<polygon fill="#000000" stroke="#000000" points="3411.5001,-140.7778 3415,-150.7778 3418.5001,-140.7778 3411.5001,-140.7778"/>
</g>
<!-- FormatCurrencyPipe  -->
<g id="node22" class="node">
<title>FormatCurrencyPipe </title>
<polygon fill="#fb8072" stroke="#000000" points="3337.4138,-187 3200.5862,-187 3200.5862,-151 3337.4138,-151 3337.4138,-187"/>
<text text-anchor="middle" x="3269" y="-164.8" font-family="Times,serif" font-size="14.00" fill="#000000">FormatCurrencyPipe </text>
</g>
<!-- PricingModule&#45;&gt;FormatCurrencyPipe  -->
<g id="edge22" class="edge">
<title>PricingModule&#45;&gt;FormatCurrencyPipe </title>
<path fill="none" stroke="#000000" stroke-dasharray="5,2" d="M2332.3024,-109C2533.4338,-109 3269,-109 3269,-109 3269,-109 3269,-140.998 3269,-140.998"/>
<polygon fill="#000000" stroke="#000000" points="3265.5001,-140.998 3269,-150.998 3272.5001,-140.9981 3265.5001,-140.998"/>
</g>
<!-- LocalCurrencyPipe  -->
<g id="node23" class="node">
<title>LocalCurrencyPipe </title>
<polygon fill="#fb8072" stroke="#000000" points="3182.3477,-187 3053.6523,-187 3053.6523,-151 3182.3477,-151 3182.3477,-187"/>
<text text-anchor="middle" x="3118" y="-164.8" font-family="Times,serif" font-size="14.00" fill="#000000">LocalCurrencyPipe </text>
</g>
<!-- PricingModule&#45;&gt;LocalCurrencyPipe  -->
<g id="edge23" class="edge">
<title>PricingModule&#45;&gt;LocalCurrencyPipe </title>
<path fill="none" stroke="#000000" stroke-dasharray="5,2" d="M2332.102,-111C2512.4624,-111 3118,-111 3118,-111 3118,-111 3118,-140.9664 3118,-140.9664"/>
<polygon fill="#000000" stroke="#000000" points="3114.5001,-140.9663 3118,-150.9664 3121.5001,-140.9664 3114.5001,-140.9663"/>
</g>
<!-- PriceComponent  -->
<g id="node24" class="node">
<title>PriceComponent </title>
<polygon fill="#fb8072" stroke="#000000" points="3035.5961,-187 2922.4039,-187 2922.4039,-151 3035.5961,-151 3035.5961,-187"/>
<text text-anchor="middle" x="2979" y="-164.8" font-family="Times,serif" font-size="14.00" fill="#000000">PriceComponent </text>
</g>
<!-- PricingModule&#45;&gt;PriceComponent  -->
<g id="edge24" class="edge">
<title>PricingModule&#45;&gt;PriceComponent </title>
<path fill="none" stroke="#000000" stroke-dasharray="5,2" d="M2332.1265,-114C2491.9423,-114 2979,-114 2979,-114 2979,-114 2979,-140.9909 2979,-140.9909"/>
<polygon fill="#000000" stroke="#000000" points="2975.5001,-140.9909 2979,-150.9909 2982.5001,-140.991 2975.5001,-140.9909"/>
</g>
<!-- PriceMatrixFilter  -->
<g id="node25" class="node">
<title>PriceMatrixFilter </title>
<polygon fill="#fb8072" stroke="#000000" points="2904.194,-187 2787.806,-187 2787.806,-151 2904.194,-151 2904.194,-187"/>
<text text-anchor="middle" x="2846" y="-164.8" font-family="Times,serif" font-size="14.00" fill="#000000">PriceMatrixFilter </text>
</g>
<!-- PricingModule&#45;&gt;PriceMatrixFilter  -->
<g id="edge25" class="edge">
<title>PricingModule&#45;&gt;PriceMatrixFilter </title>
<path fill="none" stroke="#000000" stroke-dasharray="5,2" d="M2332.0512,-117C2470.0832,-117 2846,-117 2846,-117 2846,-117 2846,-140.8129 2846,-140.8129"/>
<polygon fill="#000000" stroke="#000000" points="2842.5001,-140.8129 2846,-150.8129 2849.5001,-140.813 2842.5001,-140.8129"/>
</g>
<!-- PricePipe  -->
<g id="node26" class="node">
<title>PricePipe </title>
<polygon fill="#fb8072" stroke="#000000" points="2769.651,-187 2696.349,-187 2696.349,-151 2769.651,-151 2769.651,-187"/>
<text text-anchor="middle" x="2733" y="-164.8" font-family="Times,serif" font-size="14.00" fill="#000000">PricePipe </text>
</g>
<!-- PricingModule&#45;&gt;PricePipe  -->
<g id="edge26" class="edge">
<title>PricingModule&#45;&gt;PricePipe </title>
<path fill="none" stroke="#000000" stroke-dasharray="5,2" d="M2332.4227,-120C2450.1095,-120 2733,-120 2733,-120 2733,-120 2733,-140.7542 2733,-140.7542"/>
<polygon fill="#000000" stroke="#000000" points="2729.5001,-140.7542 2733,-150.7542 2736.5001,-140.7542 2729.5001,-140.7542"/>
</g>
<!-- StoreModule&#45;&gt;CartModule -->
<g id="edge4" class="edge">
<title>StoreModule&#45;&gt;CartModule</title>
<path fill="none" stroke="#000000" d="M2310.3615,-187.0109C2310.3615,-187.0109 2310.3615,-216.855 2310.3615,-216.855"/>
<polygon fill="#000000" stroke="#000000" points="2306.8616,-216.8549 2310.3615,-226.855 2313.8616,-216.855 2306.8616,-216.8549"/>
</g>
<!-- AddressComponent  -->
<g id="node32" class="node">
<title>AddressComponent </title>
<polygon fill="#fb8072" stroke="#000000" points="1398.2037,-263 1267.7963,-263 1267.7963,-227 1398.2037,-227 1398.2037,-263"/>
<text text-anchor="middle" x="1333" y="-240.8" font-family="Times,serif" font-size="14.00" fill="#000000">AddressComponent </text>
</g>
<!-- StoreModule&#45;&gt;AddressComponent  -->
<g id="edge33" class="edge">
<title>StoreModule&#45;&gt;AddressComponent </title>
<path fill="none" stroke="#000000" stroke-dasharray="5,2" d="M2232.42,-169C2045.3017,-169 1333,-169 1333,-169 1333,-169 1333,-216.9891 1333,-216.9891"/>
<polygon fill="#000000" stroke="#000000" points="1329.5001,-216.989 1333,-226.9891 1336.5001,-216.9891 1329.5001,-216.989"/>
</g>
<!-- InputFieldComponent  -->
<g id="node33" class="node">
<title>InputFieldComponent </title>
<polygon fill="#fb8072" stroke="#000000" points="1249.6621,-263 1106.3379,-263 1106.3379,-227 1249.6621,-227 1249.6621,-263"/>
<text text-anchor="middle" x="1178" y="-240.8" font-family="Times,serif" font-size="14.00" fill="#000000">InputFieldComponent </text>
</g>
<!-- StoreModule&#45;&gt;InputFieldComponent  -->
<g id="edge34" class="edge">
<title>StoreModule&#45;&gt;InputFieldComponent </title>
<path fill="none" stroke="#000000" stroke-dasharray="5,2" d="M2232.2135,-166C2026.0083,-166 1178,-166 1178,-166 1178,-166 1178,-216.6772 1178,-216.6772"/>
<polygon fill="#000000" stroke="#000000" points="1174.5001,-216.6772 1178,-226.6772 1181.5001,-216.6773 1174.5001,-216.6772"/>
</g>
<!-- JumbotronComponent  -->
<g id="node34" class="node">
<title>JumbotronComponent </title>
<polygon fill="#fb8072" stroke="#000000" points="1088.2191,-263 943.7809,-263 943.7809,-227 1088.2191,-227 1088.2191,-263"/>
<text text-anchor="middle" x="1016" y="-240.8" font-family="Times,serif" font-size="14.00" fill="#000000">JumbotronComponent </text>
</g>
<!-- StoreModule&#45;&gt;JumbotronComponent  -->
<g id="edge35" class="edge">
<title>StoreModule&#45;&gt;JumbotronComponent </title>
<path fill="none" stroke="#000000" stroke-dasharray="5,2" d="M2232.1203,-162C2007.4866,-162 1016,-162 1016,-162 1016,-162 1016,-216.9902 1016,-216.9902"/>
<polygon fill="#000000" stroke="#000000" points="1012.5001,-216.9902 1016,-226.9902 1019.5001,-216.9903 1012.5001,-216.9902"/>
</g>
<!-- MdSpinnerComponent  -->
<g id="node35" class="node">
<title>MdSpinnerComponent </title>
<polygon fill="#fb8072" stroke="#000000" points="925.8255,-263 778.1745,-263 778.1745,-227 925.8255,-227 925.8255,-263"/>
<text text-anchor="middle" x="852" y="-240.8" font-family="Times,serif" font-size="14.00" fill="#000000">MdSpinnerComponent </text>
</g>
<!-- StoreModule&#45;&gt;MdSpinnerComponent  -->
<g id="edge36" class="edge">
<title>StoreModule&#45;&gt;MdSpinnerComponent </title>
<path fill="none" stroke="#000000" stroke-dasharray="5,2" d="M2232.3953,-159C1991.0208,-159 852,-159 852,-159 852,-159 852,-216.7616 852,-216.7616"/>
<polygon fill="#000000" stroke="#000000" points="848.5001,-216.7616 852,-226.7616 855.5001,-216.7616 848.5001,-216.7616"/>
</g>
<!-- MiniProfileComponent  -->
<g id="node36" class="node">
<title>MiniProfileComponent </title>
<polygon fill="#fb8072" stroke="#000000" points="760.1579,-263 609.8421,-263 609.8421,-227 760.1579,-227 760.1579,-263"/>
<text text-anchor="middle" x="685" y="-240.8" font-family="Times,serif" font-size="14.00" fill="#000000">MiniProfileComponent </text>
</g>
<!-- StoreModule&#45;&gt;MiniProfileComponent  -->
<g id="edge37" class="edge">
<title>StoreModule&#45;&gt;MiniProfileComponent </title>
<path fill="none" stroke="#000000" stroke-dasharray="5,2" d="M2232.34,-155C1974.2402,-155 685,-155 685,-155 685,-155 685,-216.7872 685,-216.7872"/>
<polygon fill="#000000" stroke="#000000" points="681.5001,-216.7871 685,-226.7872 688.5001,-216.7872 681.5001,-216.7871"/>
</g>
<!-- ProductCardComponent -->
<g id="node8" class="node">
<title>ProductCardComponent</title>
<polygon fill="#ffffb3" stroke="#000000" points="570.0926,-263 417.9074,-263 417.9074,-227 570.0926,-227 570.0926,-263"/>
<text text-anchor="middle" x="494" y="-240.8" font-family="Times,serif" font-size="14.00" fill="#000000">ProductCardComponent</text>
</g>
<!-- ProductCardComponent&#45;&gt;CatalogModule -->
<g id="edge7" class="edge">
<title>ProductCardComponent&#45;&gt;CatalogModule</title>
<path fill="none" stroke="#000000" d="M468.5679,-263.0336C468.5679,-280.0597 468.5679,-303 468.5679,-303 468.5679,-303 371.9211,-303 371.9211,-303"/>
<polygon fill="#000000" stroke="#000000" points="371.9211,-299.5001 361.9211,-303 371.921,-306.5001 371.9211,-299.5001"/>
</g>
<!-- ProductCarouselComponent -->
<g id="node9" class="node">
<title>ProductCarouselComponent</title>
<polygon fill="#ffffb3" stroke="#000000" points="400.1428,-263 225.8572,-263 225.8572,-227 400.1428,-227 400.1428,-263"/>
<text text-anchor="middle" x="313" y="-240.8" font-family="Times,serif" font-size="14.00" fill="#000000">ProductCarouselComponent</text>
</g>
<!-- ProductCarouselComponent&#45;&gt;CatalogModule -->
<g id="edge8" class="edge">
<title>ProductCarouselComponent&#45;&gt;CatalogModule</title>
<path fill="none" stroke="#000000" d="M310,-263.2228C310,-263.2228 310,-284.7269 310,-284.7269"/>
<polygon fill="#000000" stroke="#000000" points="306.5001,-284.7269 310,-294.7269 313.5001,-284.727 306.5001,-284.7269"/>
</g>
<!-- ProductReviewsComponent -->
<g id="node10" class="node">
<title>ProductReviewsComponent</title>
<polygon fill="#ffffb3" stroke="#000000" points="207.5884,-263 34.4116,-263 34.4116,-227 207.5884,-227 207.5884,-263"/>
<text text-anchor="middle" x="121" y="-240.8" font-family="Times,serif" font-size="14.00" fill="#000000">ProductReviewsComponent</text>
</g>
<!-- ProductReviewsComponent&#45;&gt;CatalogModule -->
<g id="edge9" class="edge">
<title>ProductReviewsComponent&#45;&gt;CatalogModule</title>
<path fill="none" stroke="#000000" d="M203.9192,-263.2667C203.9192,-281.5552 203.9192,-307 203.9192,-307 203.9192,-307 248.2026,-307 248.2026,-307"/>
<polygon fill="#000000" stroke="#000000" points="248.2027,-310.5001 258.2026,-307 248.2026,-303.5001 248.2027,-310.5001"/>
</g>
<!-- ProductCardComponent  -->
<g id="node12" class="node">
<title>ProductCardComponent </title>
<polygon fill="#fb8072" stroke="#000000" points="569.5931,-399 414.4069,-399 414.4069,-363 569.5931,-363 569.5931,-399"/>
<text text-anchor="middle" x="492" y="-376.8" font-family="Times,serif" font-size="14.00" fill="#000000">ProductCardComponent </text>
</g>
<!-- CatalogModule&#45;&gt;ProductCardComponent  -->
<g id="edge12" class="edge">
<title>CatalogModule&#45;&gt;ProductCardComponent </title>
<path fill="none" stroke="#000000" stroke-dasharray="5,2" d="M361.7079,-324C423.6528,-324 519.1821,-324 519.1821,-324 519.1821,-324 519.1821,-352.9648 519.1821,-352.9648"/>
<polygon fill="#000000" stroke="#000000" points="515.6822,-352.9648 519.1821,-362.9648 522.6822,-352.9649 515.6822,-352.9648"/>
</g>
<!-- ProductCarouselComponent  -->
<g id="node13" class="node">
<title>ProductCarouselComponent </title>
<polygon fill="#fb8072" stroke="#000000" points="396.1425,-399 217.8575,-399 217.8575,-363 396.1425,-363 396.1425,-399"/>
<text text-anchor="middle" x="307" y="-376.8" font-family="Times,serif" font-size="14.00" fill="#000000">ProductCarouselComponent </text>
</g>
<!-- CatalogModule&#45;&gt;ProductCarouselComponent  -->
<g id="edge13" class="edge">
<title>CatalogModule&#45;&gt;ProductCarouselComponent </title>
<path fill="none" stroke="#000000" stroke-dasharray="5,2" d="M310,-331.2228C310,-331.2228 310,-352.7269 310,-352.7269"/>
<polygon fill="#000000" stroke="#000000" points="306.5001,-352.7269 310,-362.7269 313.5001,-352.727 306.5001,-352.7269"/>
</g>
<!-- ProductReviewsComponent  -->
<g id="node14" class="node">
<title>ProductReviewsComponent </title>
<polygon fill="#fb8072" stroke="#000000" points="200.0889,-399 23.9111,-399 23.9111,-363 200.0889,-363 200.0889,-399"/>
<text text-anchor="middle" x="112" y="-376.8" font-family="Times,serif" font-size="14.00" fill="#000000">ProductReviewsComponent </text>
</g>
<!-- CatalogModule&#45;&gt;ProductReviewsComponent  -->
<g id="edge14" class="edge">
<title>CatalogModule&#45;&gt;ProductReviewsComponent </title>
<path fill="none" stroke="#000000" stroke-dasharray="5,2" d="M258.38,-319C201.3222,-319 117.375,-319 117.375,-319 117.375,-319 117.375,-352.7333 117.375,-352.7333"/>
<polygon fill="#000000" stroke="#000000" points="113.8751,-352.7333 117.375,-362.7333 120.8751,-352.7333 113.8751,-352.7333"/>
</g>
<!-- ConvertUnitsPipe -->
<g id="node15" class="node">
<title>ConvertUnitsPipe</title>
<polygon fill="#ffffb3" stroke="#000000" points="4256.323,-187 4139.677,-187 4139.677,-151 4256.323,-151 4256.323,-187"/>
<text text-anchor="middle" x="4198" y="-164.8" font-family="Times,serif" font-size="14.00" fill="#000000">ConvertUnitsPipe</text>
</g>
<!-- ConvertUnitsPipe&#45;&gt;PricingModule -->
<g id="edge15" class="edge">
<title>ConvertUnitsPipe&#45;&gt;PricingModule</title>
<path fill="none" stroke="#000000" d="M4198,-150.8468C4198,-127.2434 4198,-89 4198,-89 4198,-89 2342.2635,-89 2342.2635,-89"/>
<polygon fill="#000000" stroke="#000000" points="2342.2635,-85.5001 2332.2635,-89 2342.2635,-92.5001 2342.2635,-85.5001"/>
</g>
<!-- FormatCurrencyPipe -->
<g id="node16" class="node">
<title>FormatCurrencyPipe</title>
<polygon fill="#ffffb3" stroke="#000000" points="4121.9144,-187 3988.0856,-187 3988.0856,-151 4121.9144,-151 4121.9144,-187"/>
<text text-anchor="middle" x="4055" y="-164.8" font-family="Times,serif" font-size="14.00" fill="#000000">FormatCurrencyPipe</text>
</g>
<!-- FormatCurrencyPipe&#45;&gt;PricingModule -->
<g id="edge16" class="edge">
<title>FormatCurrencyPipe&#45;&gt;PricingModule</title>
<path fill="none" stroke="#000000" d="M4055,-150.7521C4055,-127.9821 4055,-92 4055,-92 4055,-92 2342.2064,-92 2342.2064,-92"/>
<polygon fill="#000000" stroke="#000000" points="2342.2065,-88.5001 2332.2064,-92 2342.2064,-95.5001 2342.2065,-88.5001"/>
</g>
<!-- LocalCurrencyPipe -->
<g id="node17" class="node">
<title>LocalCurrencyPipe</title>
<polygon fill="#ffffb3" stroke="#000000" points="3970.3473,-187 3845.6527,-187 3845.6527,-151 3970.3473,-151 3970.3473,-187"/>
<text text-anchor="middle" x="3908" y="-164.8" font-family="Times,serif" font-size="14.00" fill="#000000">LocalCurrencyPipe</text>
</g>
<!-- LocalCurrencyPipe&#45;&gt;PricingModule -->
<g id="edge17" class="edge">
<title>LocalCurrencyPipe&#45;&gt;PricingModule</title>
<path fill="none" stroke="#000000" d="M3908,-150.7079C3908,-128.7943 3908,-95 3908,-95 3908,-95 2341.9974,-95 2341.9974,-95"/>
<polygon fill="#000000" stroke="#000000" points="2341.9975,-91.5001 2331.9974,-95 2341.9974,-98.5001 2341.9975,-91.5001"/>
</g>
<!-- PriceComponent -->
<g id="node18" class="node">
<title>PriceComponent</title>
<polygon fill="#ffffb3" stroke="#000000" points="3828.0954,-187 3717.9046,-187 3717.9046,-151 3828.0954,-151 3828.0954,-187"/>
<text text-anchor="middle" x="3773" y="-164.8" font-family="Times,serif" font-size="14.00" fill="#000000">PriceComponent</text>
</g>
<!-- PriceComponent&#45;&gt;PricingModule -->
<g id="edge18" class="edge">
<title>PriceComponent&#45;&gt;PricingModule</title>
<path fill="none" stroke="#000000" d="M3773,-150.7157C3773,-129.6789 3773,-98 3773,-98 3773,-98 2342.0346,-98 2342.0346,-98"/>
<polygon fill="#000000" stroke="#000000" points="2342.0346,-94.5001 2332.0346,-98 2342.0345,-101.5001 2342.0346,-94.5001"/>
</g>
<!-- PriceMatrixFilter -->
<g id="node19" class="node">
<title>PriceMatrixFilter</title>
<polygon fill="#ffffb3" stroke="#000000" points="3699.6938,-187 3586.3062,-187 3586.3062,-151 3699.6938,-151 3699.6938,-187"/>
<text text-anchor="middle" x="3643" y="-164.8" font-family="Times,serif" font-size="14.00" fill="#000000">PriceMatrixFilter</text>
</g>
<!-- PriceMatrixFilter&#45;&gt;PricingModule -->
<g id="edge19" class="edge">
<title>PriceMatrixFilter&#45;&gt;PricingModule</title>
<path fill="none" stroke="#000000" d="M3643,-150.8711C3643,-130.4276 3643,-100 3643,-100 3643,-100 2342.0528,-100 2342.0528,-100"/>
<polygon fill="#000000" stroke="#000000" points="2342.0528,-96.5001 2332.0528,-100 2342.0528,-103.5001 2342.0528,-96.5001"/>
</g>
<!-- PricePipe -->
<g id="node20" class="node">
<title>PricePipe</title>
<polygon fill="#ffffb3" stroke="#000000" points="3568.6517,-187 3499.3483,-187 3499.3483,-151 3568.6517,-151 3568.6517,-187"/>
<text text-anchor="middle" x="3534" y="-164.8" font-family="Times,serif" font-size="14.00" fill="#000000">PricePipe</text>
</g>
<!-- PricePipe&#45;&gt;PricingModule -->
<g id="edge20" class="edge">
<title>PricePipe&#45;&gt;PricingModule</title>
<path fill="none" stroke="#000000" d="M3534,-150.9652C3534,-131.4238 3534,-103 3534,-103 3534,-103 2342.2408,-103 2342.2408,-103"/>
<polygon fill="#000000" stroke="#000000" points="2342.2409,-99.5001 2332.2408,-103 2342.2408,-106.5001 2342.2409,-99.5001"/>
</g>
<!-- AddressComponent -->
<g id="node27" class="node">
<title>AddressComponent</title>
<polygon fill="#ffffb3" stroke="#000000" points="2191.7036,-263 2064.2964,-263 2064.2964,-227 2191.7036,-227 2191.7036,-263"/>
<text text-anchor="middle" x="2128" y="-240.8" font-family="Times,serif" font-size="14.00" fill="#000000">AddressComponent</text>
</g>
<!-- AddressComponent&#45;&gt;StoreModule -->
<g id="edge27" class="edge">
<title>AddressComponent&#45;&gt;StoreModule</title>
<path fill="none" stroke="#000000" d="M2191.7609,-239C2216.6234,-239 2239.2738,-239 2239.2738,-239 2239.2738,-239 2239.2738,-197.0267 2239.2738,-197.0267"/>
<polygon fill="#000000" stroke="#000000" points="2242.7739,-197.0267 2239.2738,-187.0267 2235.7739,-197.0268 2242.7739,-197.0267"/>
</g>
<!-- InputFieldComponent -->
<g id="node28" class="node">
<title>InputFieldComponent</title>
<polygon fill="#ffffb3" stroke="#000000" points="2046.6624,-263 1907.3376,-263 1907.3376,-227 2046.6624,-227 2046.6624,-263"/>
<text text-anchor="middle" x="1977" y="-240.8" font-family="Times,serif" font-size="14.00" fill="#000000">InputFieldComponent</text>
</g>
<!-- InputFieldComponent&#45;&gt;StoreModule -->
<g id="edge28" class="edge">
<title>InputFieldComponent&#45;&gt;StoreModule</title>
<path fill="none" stroke="#000000" d="M1977,-226.698C1977,-208.7301 1977,-184 1977,-184 1977,-184 2222.4109,-184 2222.4109,-184"/>
<polygon fill="#000000" stroke="#000000" points="2222.4109,-187.5001 2232.4109,-184 2222.4109,-180.5001 2222.4109,-187.5001"/>
</g>
<!-- JumbotronComponent -->
<g id="node29" class="node">
<title>JumbotronComponent</title>
<polygon fill="#ffffb3" stroke="#000000" points="1889.719,-263 1748.281,-263 1748.281,-227 1889.719,-227 1889.719,-263"/>
<text text-anchor="middle" x="1819" y="-240.8" font-family="Times,serif" font-size="14.00" fill="#000000">JumbotronComponent</text>
</g>
<!-- JumbotronComponent&#45;&gt;StoreModule -->
<g id="edge29" class="edge">
<title>JumbotronComponent&#45;&gt;StoreModule</title>
<path fill="none" stroke="#000000" d="M1819,-226.8939C1819,-207.6609 1819,-180 1819,-180 1819,-180 2222.2511,-180 2222.2511,-180"/>
<polygon fill="#000000" stroke="#000000" points="2222.2512,-183.5001 2232.2511,-180 2222.2511,-176.5001 2222.2512,-183.5001"/>
</g>
<!-- MdSpinnerComponent -->
<g id="node30" class="node">
<title>MdSpinnerComponent</title>
<polygon fill="#ffffb3" stroke="#000000" points="1730.3258,-263 1585.6742,-263 1585.6742,-227 1730.3258,-227 1730.3258,-263"/>
<text text-anchor="middle" x="1658" y="-240.8" font-family="Times,serif" font-size="14.00" fill="#000000">MdSpinnerComponent</text>
</g>
<!-- MdSpinnerComponent&#45;&gt;StoreModule -->
<g id="edge30" class="edge">
<title>MdSpinnerComponent&#45;&gt;StoreModule</title>
<path fill="none" stroke="#000000" d="M1658,-226.7772C1658,-206.6348 1658,-177 1658,-177 1658,-177 2222.234,-177 2222.234,-177"/>
<polygon fill="#000000" stroke="#000000" points="2222.2341,-180.5001 2232.234,-177 2222.234,-173.5001 2222.2341,-180.5001"/>
</g>
<!-- MiniProfileComponent -->
<g id="node31" class="node">
<title>MiniProfileComponent</title>
<polygon fill="#ffffb3" stroke="#000000" points="1568.1582,-263 1421.8418,-263 1421.8418,-227 1568.1582,-227 1568.1582,-263"/>
<text text-anchor="middle" x="1495" y="-240.8" font-family="Times,serif" font-size="14.00" fill="#000000">MiniProfileComponent</text>
</g>
<!-- MiniProfileComponent&#45;&gt;StoreModule -->
<g id="edge31" class="edge">
<title>MiniProfileComponent&#45;&gt;StoreModule</title>
<path fill="none" stroke="#000000" d="M1495,-226.8314C1495,-205.502 1495,-173 1495,-173 1495,-173 2222.432,-173 2222.432,-173"/>
<polygon fill="#000000" stroke="#000000" points="2222.4321,-176.5001 2232.432,-173 2222.432,-169.5001 2222.4321,-176.5001"/>
</g>
</g>
</svg>
