<?xml version="1.0" encoding="UTF-8" standalone="no"?>
<!DOCTYPE svg PUBLIC "-//W3C//DTD SVG 1.1//EN"
 "http://www.w3.org/Graphics/SVG/1.1/DTD/svg11.dtd">
<!-- Generated by graphviz version 2.40.1 (20161225.0304)
 -->
<!-- Title: dependencies Pages: 1 -->
<svg width="631pt" height="284pt"
 viewBox="0.00 0.00 631.00 284.00" xmlns="http://www.w3.org/2000/svg" xmlns:xlink="http://www.w3.org/1999/xlink">
<g id="graph0" class="graph" transform="scale(1 1) rotate(0) translate(4 280)">
<title>dependencies</title>
<polygon fill="#ffffff" stroke="transparent" points="-4,4 -4,-280 627,-280 627,4 -4,4"/>
<text text-anchor="start" x="290.5091" y="-42.4" font-family="sans-serif" font-weight="bold" font-size="14.00" fill="#000000">Legend</text>
<polygon fill="#ffffb3" stroke="transparent" points="77.5,-10 77.5,-30 97.5,-30 97.5,-10 77.5,-10"/>
<text text-anchor="start" x="101.129" y="-15.4" font-family="sans-serif" font-size="14.00" fill="#000000"> &#160;Declarations</text>
<polygon fill="#8dd3c7" stroke="transparent" points="190.5,-10 190.5,-30 210.5,-30 210.5,-10 190.5,-10"/>
<text text-anchor="start" x="214.2251" y="-15.4" font-family="sans-serif" font-size="14.00" fill="#000000"> &#160;Module</text>
<polygon fill="#80b1d3" stroke="transparent" points="276.5,-10 276.5,-30 296.5,-30 296.5,-10 276.5,-10"/>
<text text-anchor="start" x="300.2812" y="-15.4" font-family="sans-serif" font-size="14.00" fill="#000000"> &#160;Bootstrap</text>
<polygon fill="#fdb462" stroke="transparent" points="373.5,-10 373.5,-30 393.5,-30 393.5,-10 373.5,-10"/>
<text text-anchor="start" x="397.1732" y="-15.4" font-family="sans-serif" font-size="14.00" fill="#000000"> &#160;Providers</text>
<polygon fill="#fb8072" stroke="transparent" points="469.5,-10 469.5,-30 489.5,-30 489.5,-10 469.5,-10"/>
<text text-anchor="start" x="493.2258" y="-15.4" font-family="sans-serif" font-size="14.00" fill="#000000"> &#160;Exports</text>
<g id="clust1" class="cluster">
<title>cluster_CommerceModule</title>
<polygon fill="none" stroke="#000000" stroke-dasharray="1,5" points="8,-70 8,-268 615,-268 615,-70 8,-70"/>
</g>
<g id="clust2" class="cluster">
<title>cluster_CommerceModule_declarations</title>
<polygon fill="none" stroke="#000000" points="24,-78 24,-130 601,-130 601,-78 24,-78"/>
</g>
<g id="clust8" class="cluster">
<title>cluster_CommerceModule_exports</title>
<polygon fill="none" stroke="#000000" points="16,-208 16,-260 607,-260 607,-208 16,-208"/>
</g>
<!-- ConvertUnitsPipe -->
<g id="node1" class="node">
<title>ConvertUnitsPipe</title>
<polygon fill="#ffffb3" stroke="#000000" points="593.323,-122 476.677,-122 476.677,-86 593.323,-86 593.323,-122"/>
<text text-anchor="middle" x="535" y="-99.8" font-family="Times,serif" font-size="14.00" fill="#000000">ConvertUnitsPipe</text>
</g>
<!-- CommerceModule -->
<g id="node5" class="node">
<title>CommerceModule</title>
<polygon fill="#8dd3c7" stroke="#000000" points="307.472,-187 304.472,-191 283.472,-191 280.472,-187 186.528,-187 186.528,-151 307.472,-151 307.472,-187"/>
<text text-anchor="middle" x="247" y="-164.8" font-family="Times,serif" font-size="14.00" fill="#000000">CommerceModule</text>
</g>
<!-- ConvertUnitsPipe&#45;&gt;CommerceModule -->
<g id="edge1" class="edge">
<title>ConvertUnitsPipe&#45;&gt;CommerceModule</title>
<path fill="none" stroke="#000000" d="M555.1371,-122.2667C555.1371,-140.5552 555.1371,-166 555.1371,-166 555.1371,-166 317.5103,-166 317.5103,-166"/>
<polygon fill="#000000" stroke="#000000" points="317.5104,-162.5001 307.5103,-166 317.5103,-169.5001 317.5104,-162.5001"/>
</g>
<!-- FormatCurrencyPipe -->
<g id="node2" class="node">
<title>FormatCurrencyPipe</title>
<polygon fill="#ffffb3" stroke="#000000" points="458.9144,-122 325.0856,-122 325.0856,-86 458.9144,-86 458.9144,-122"/>
<text text-anchor="middle" x="392" y="-99.8" font-family="Times,serif" font-size="14.00" fill="#000000">FormatCurrencyPipe</text>
</g>
<!-- FormatCurrencyPipe&#45;&gt;CommerceModule -->
<g id="edge2" class="edge">
<title>FormatCurrencyPipe&#45;&gt;CommerceModule</title>
<path fill="none" stroke="#000000" d="M414.2356,-122.0091C414.2356,-138.0494 414.2356,-159 414.2356,-159 414.2356,-159 317.849,-159 317.849,-159"/>
<polygon fill="#000000" stroke="#000000" points="317.849,-155.5001 307.849,-159 317.8489,-162.5001 317.849,-155.5001"/>
</g>
<!-- LocalCurrencyPipe -->
<g id="node3" class="node">
<title>LocalCurrencyPipe</title>
<polygon fill="#ffffb3" stroke="#000000" points="307.3473,-122 182.6527,-122 182.6527,-86 307.3473,-86 307.3473,-122"/>
<text text-anchor="middle" x="245" y="-99.8" font-family="Times,serif" font-size="14.00" fill="#000000">LocalCurrencyPipe</text>
</g>
<!-- LocalCurrencyPipe&#45;&gt;CommerceModule -->
<g id="edge3" class="edge">
<title>LocalCurrencyPipe&#45;&gt;CommerceModule</title>
<path fill="none" stroke="#000000" d="M246.9688,-122.1061C246.9688,-122.1061 246.9688,-140.991 246.9688,-140.991"/>
<polygon fill="#000000" stroke="#000000" points="243.4689,-140.9909 246.9688,-150.991 250.4689,-140.991 243.4689,-140.9909"/>
</g>
<!-- MiniCartComponent -->
<g id="node4" class="node">
<title>MiniCartComponent</title>
<polygon fill="#ffffb3" stroke="#000000" points="164.161,-122 31.839,-122 31.839,-86 164.161,-86 164.161,-122"/>
<text text-anchor="middle" x="98" y="-99.8" font-family="Times,serif" font-size="14.00" fill="#000000">MiniCartComponent</text>
</g>
<!-- MiniCartComponent&#45;&gt;CommerceModule -->
<g id="edge4" class="edge">
<title>MiniCartComponent&#45;&gt;CommerceModule</title>
<path fill="none" stroke="#000000" d="M117.2768,-122.0225C117.2768,-139.3734 117.2768,-163 117.2768,-163 117.2768,-163 176.3163,-163 176.3163,-163"/>
<polygon fill="#000000" stroke="#000000" points="176.3164,-166.5001 186.3163,-163 176.3163,-159.5001 176.3164,-166.5001"/>
</g>
<!-- ConvertUnitsPipe  -->
<g id="node6" class="node">
<title>ConvertUnitsPipe </title>
<polygon fill="#fb8072" stroke="#000000" points="598.8227,-252 479.1773,-252 479.1773,-216 598.8227,-216 598.8227,-252"/>
<text text-anchor="middle" x="539" y="-229.8" font-family="Times,serif" font-size="14.00" fill="#000000">ConvertUnitsPipe </text>
</g>
<!-- CommerceModule&#45;&gt;ConvertUnitsPipe  -->
<g id="edge5" class="edge">
<title>CommerceModule&#45;&gt;ConvertUnitsPipe </title>
<path fill="none" stroke="#000000" stroke-dasharray="5,2" d="M307.6186,-173C387.2569,-173 517.1129,-173 517.1129,-173 517.1129,-173 517.1129,-205.698 517.1129,-205.698"/>
<polygon fill="#000000" stroke="#000000" points="513.613,-205.698 517.1129,-215.698 520.613,-205.698 513.613,-205.698"/>
</g>
<!-- FormatCurrencyPipe  -->
<g id="node7" class="node">
<title>FormatCurrencyPipe </title>
<polygon fill="#fb8072" stroke="#000000" points="461.4138,-252 324.5862,-252 324.5862,-216 461.4138,-216 461.4138,-252"/>
<text text-anchor="middle" x="393" y="-229.8" font-family="Times,serif" font-size="14.00" fill="#000000">FormatCurrencyPipe </text>
</g>
<!-- CommerceModule&#45;&gt;FormatCurrencyPipe  -->
<g id="edge6" class="edge">
<title>CommerceModule&#45;&gt;FormatCurrencyPipe </title>
<path fill="none" stroke="#000000" stroke-dasharray="5,2" d="M307.6629,-180C338.5919,-180 369.7644,-180 369.7644,-180 369.7644,-180 369.7644,-205.7181 369.7644,-205.7181"/>
<polygon fill="#000000" stroke="#000000" points="366.2645,-205.718 369.7644,-215.7181 373.2645,-205.7181 366.2645,-205.718"/>
</g>
<!-- LocalCurrencyPipe  -->
<g id="node8" class="node">
<title>LocalCurrencyPipe </title>
<polygon fill="#fb8072" stroke="#000000" points="306.3477,-252 177.6523,-252 177.6523,-216 306.3477,-216 306.3477,-252"/>
<text text-anchor="middle" x="242" y="-229.8" font-family="Times,serif" font-size="14.00" fill="#000000">LocalCurrencyPipe </text>
</g>
<!-- CommerceModule&#45;&gt;LocalCurrencyPipe  -->
<g id="edge7" class="edge">
<title>CommerceModule&#45;&gt;LocalCurrencyPipe </title>
<path fill="none" stroke="#000000" stroke-dasharray="5,2" d="M246.3438,-187.1061C246.3438,-187.1061 246.3438,-205.991 246.3438,-205.991"/>
<polygon fill="#000000" stroke="#000000" points="242.8439,-205.9909 246.3438,-215.991 249.8439,-205.991 242.8439,-205.9909"/>
</g>
<!-- MiniCartComponent  -->
<g id="node9" class="node">
<title>MiniCartComponent </title>
<polygon fill="#fb8072" stroke="#000000" points="160.1607,-252 23.8393,-252 23.8393,-216 160.1607,-216 160.1607,-252"/>
<text text-anchor="middle" x="92" y="-229.8" font-family="Times,serif" font-size="14.00" fill="#000000">MiniCartComponent </text>
</g>
<!-- CommerceModule&#45;&gt;MiniCartComponent  -->
<g id="edge8" class="edge">
<title>CommerceModule&#45;&gt;MiniCartComponent </title>
<path fill="none" stroke="#000000" stroke-dasharray="5,2" d="M186.1735,-175C136.502,-175 74.4732,-175 74.4732,-175 74.4732,-175 74.4732,-205.9775 74.4732,-205.9775"/>
<polygon fill="#000000" stroke="#000000" points="70.9733,-205.9774 74.4732,-215.9775 77.9733,-205.9775 70.9733,-205.9774"/>
</g>
</g>
</svg>
