<?xml version="1.0" encoding="UTF-8" standalone="no"?>
<!DOCTYPE svg PUBLIC "-//W3C//DTD SVG 1.1//EN"
 "http://www.w3.org/Graphics/SVG/1.1/DTD/svg11.dtd">
<!-- Generated by graphviz version 2.40.1 (20161225.0304)
 -->
<!-- Title: dependencies Pages: 1 -->
<svg width="610pt" height="211pt"
 viewBox="0.00 0.00 610.00 211.00" xmlns="http://www.w3.org/2000/svg" xmlns:xlink="http://www.w3.org/1999/xlink">
<g id="graph0" class="graph" transform="scale(1 1) rotate(0) translate(4 207)">
<title>dependencies</title>
<polygon fill="#ffffff" stroke="transparent" points="-4,4 -4,-207 606,-207 606,4 -4,4"/>
<text text-anchor="start" x="280.0091" y="-42.4" font-family="sans-serif" font-weight="bold" font-size="14.00" fill="#000000">Legend</text>
<polygon fill="#ffffb3" stroke="transparent" points="67,-10 67,-30 87,-30 87,-10 67,-10"/>
<text text-anchor="start" x="90.629" y="-15.4" font-family="sans-serif" font-size="14.00" fill="#000000"> &#160;Declarations</text>
<polygon fill="#8dd3c7" stroke="transparent" points="180,-10 180,-30 200,-30 200,-10 180,-10"/>
<text text-anchor="start" x="203.7251" y="-15.4" font-family="sans-serif" font-size="14.00" fill="#000000"> &#160;Module</text>
<polygon fill="#80b1d3" stroke="transparent" points="266,-10 266,-30 286,-30 286,-10 266,-10"/>
<text text-anchor="start" x="289.7812" y="-15.4" font-family="sans-serif" font-size="14.00" fill="#000000"> &#160;Bootstrap</text>
<polygon fill="#fdb462" stroke="transparent" points="363,-10 363,-30 383,-30 383,-10 363,-10"/>
<text text-anchor="start" x="386.6732" y="-15.4" font-family="sans-serif" font-size="14.00" fill="#000000"> &#160;Providers</text>
<polygon fill="#fb8072" stroke="transparent" points="459,-10 459,-30 479,-30 479,-10 459,-10"/>
<text text-anchor="start" x="482.7258" y="-15.4" font-family="sans-serif" font-size="14.00" fill="#000000"> &#160;Exports</text>
<g id="clust1" class="cluster">
<title>cluster_ConstraintModalModule</title>
<polygon fill="none" stroke="#000000" stroke-dasharray="1,5" points="8,-70 8,-195 594,-195 594,-70 8,-70"/>
</g>
<g id="clust3" class="cluster">
<title>cluster_ConstraintModalModule_imports</title>
<polygon fill="none" stroke="#000000" points="16,-78 16,-130 586,-130 586,-78 16,-78"/>
</g>
<!-- ButtonModule -->
<g id="node1" class="node">
<title>ButtonModule</title>
<polygon fill="#8dd3c7" stroke="#000000" points="577.6682,-122 574.6682,-126 553.6682,-126 550.6682,-122 480.3318,-122 480.3318,-86 577.6682,-86 577.6682,-122"/>
<text text-anchor="middle" x="529" y="-99.8" font-family="Times,serif" font-size="14.00" fill="#000000">ButtonModule</text>
</g>
<!-- ConstraintModalModule -->
<g id="node5" class="node">
<title>ConstraintModalModule</title>
<polygon fill="#8dd3c7" stroke="#000000" points="416.4284,-187 413.4284,-191 392.4284,-191 389.4284,-187 261.5716,-187 261.5716,-151 416.4284,-151 416.4284,-187"/>
<text text-anchor="middle" x="339" y="-164.8" font-family="Times,serif" font-size="14.00" fill="#000000">ConstraintModalModule</text>
</g>
<!-- ButtonModule&#45;&gt;ConstraintModalModule -->
<g id="edge1" class="edge">
<title>ButtonModule&#45;&gt;ConstraintModalModule</title>
<path fill="none" stroke="#000000" d="M529,-122.1061C529,-141.3391 529,-169 529,-169 529,-169 426.2803,-169 426.2803,-169"/>
<polygon fill="#000000" stroke="#000000" points="426.2803,-165.5001 416.2803,-169 426.2802,-172.5001 426.2803,-165.5001"/>
</g>
<!-- MdSpinnerModule -->
<g id="node2" class="node">
<title>MdSpinnerModule</title>
<polygon fill="#8dd3c7" stroke="#000000" points="462.0436,-122 459.0436,-126 438.0436,-126 435.0436,-122 339.9564,-122 339.9564,-86 462.0436,-86 462.0436,-122"/>
<text text-anchor="middle" x="401" y="-99.8" font-family="Times,serif" font-size="14.00" fill="#000000">MdSpinnerModule</text>
</g>
<!-- MdSpinnerModule&#45;&gt;ConstraintModalModule -->
<g id="edge2" class="edge">
<title>MdSpinnerModule&#45;&gt;ConstraintModalModule</title>
<path fill="none" stroke="#000000" d="M377.9713,-122.1061C377.9713,-122.1061 377.9713,-140.991 377.9713,-140.991"/>
<polygon fill="#000000" stroke="#000000" points="374.4713,-140.9909 377.9713,-150.991 381.4713,-140.991 374.4713,-140.9909"/>
</g>
<!-- PriceModule -->
<g id="node3" class="node">
<title>PriceModule</title>
<polygon fill="#8dd3c7" stroke="#000000" points="322.3134,-122 319.3134,-126 298.3134,-126 295.3134,-122 233.6866,-122 233.6866,-86 322.3134,-86 322.3134,-122"/>
<text text-anchor="middle" x="278" y="-99.8" font-family="Times,serif" font-size="14.00" fill="#000000">PriceModule</text>
</g>
<!-- PriceModule&#45;&gt;ConstraintModalModule -->
<g id="edge3" class="edge">
<title>PriceModule&#45;&gt;ConstraintModalModule</title>
<path fill="none" stroke="#000000" d="M291.9713,-122.1061C291.9713,-122.1061 291.9713,-140.991 291.9713,-140.991"/>
<polygon fill="#000000" stroke="#000000" points="288.4713,-140.9909 291.9713,-150.991 295.4713,-140.991 288.4713,-140.9909"/>
</g>
<!-- RecommendedProductsModule -->
<g id="node4" class="node">
<title>RecommendedProductsModule</title>
<polygon fill="#8dd3c7" stroke="#000000" points="216.0196,-122 213.0196,-126 192.0196,-126 189.0196,-122 23.9804,-122 23.9804,-86 216.0196,-86 216.0196,-122"/>
<text text-anchor="middle" x="120" y="-99.8" font-family="Times,serif" font-size="14.00" fill="#000000">RecommendedProductsModule</text>
</g>
<!-- RecommendedProductsModule&#45;&gt;ConstraintModalModule -->
<g id="edge4" class="edge">
<title>RecommendedProductsModule&#45;&gt;ConstraintModalModule</title>
<path fill="none" stroke="#000000" d="M120,-122.1061C120,-141.3391 120,-169 120,-169 120,-169 251.4806,-169 251.4806,-169"/>
<polygon fill="#000000" stroke="#000000" points="251.4806,-172.5001 261.4806,-169 251.4806,-165.5001 251.4806,-172.5001"/>
</g>
</g>
</svg>
