<?xml version="1.0" encoding="UTF-8" standalone="no"?>
<!DOCTYPE svg PUBLIC "-//W3C//DTD SVG 1.1//EN"
 "http://www.w3.org/Graphics/SVG/1.1/DTD/svg11.dtd">
<!-- Generated by graphviz version 2.40.1 (20161225.0304)
 -->
<!-- Title: dependencies Pages: 1 -->
<svg width="732pt" height="284pt"
 viewBox="0.00 0.00 732.00 284.00" xmlns="http://www.w3.org/2000/svg" xmlns:xlink="http://www.w3.org/1999/xlink">
<g id="graph0" class="graph" transform="scale(1 1) rotate(0) translate(4 280)">
<title>dependencies</title>
<polygon fill="#ffffff" stroke="transparent" points="-4,4 -4,-280 728,-280 728,4 -4,4"/>
<text text-anchor="start" x="341.0091" y="-42.4" font-family="sans-serif" font-weight="bold" font-size="14.00" fill="#000000">Legend</text>
<polygon fill="#ffffb3" stroke="transparent" points="128,-10 128,-30 148,-30 148,-10 128,-10"/>
<text text-anchor="start" x="151.629" y="-15.4" font-family="sans-serif" font-size="14.00" fill="#000000"> &#160;Declarations</text>
<polygon fill="#8dd3c7" stroke="transparent" points="241,-10 241,-30 261,-30 261,-10 241,-10"/>
<text text-anchor="start" x="264.7251" y="-15.4" font-family="sans-serif" font-size="14.00" fill="#000000"> &#160;Module</text>
<polygon fill="#80b1d3" stroke="transparent" points="327,-10 327,-30 347,-30 347,-10 327,-10"/>
<text text-anchor="start" x="350.7812" y="-15.4" font-family="sans-serif" font-size="14.00" fill="#000000"> &#160;Bootstrap</text>
<polygon fill="#fdb462" stroke="transparent" points="424,-10 424,-30 444,-30 444,-10 424,-10"/>
<text text-anchor="start" x="447.6732" y="-15.4" font-family="sans-serif" font-size="14.00" fill="#000000"> &#160;Providers</text>
<polygon fill="#fb8072" stroke="transparent" points="520,-10 520,-30 540,-30 540,-10 520,-10"/>
<text text-anchor="start" x="543.7258" y="-15.4" font-family="sans-serif" font-size="14.00" fill="#000000"> &#160;Exports</text>
<g id="clust1" class="cluster">
<title>cluster_ConstraintModalModule</title>
<polygon fill="none" stroke="#000000" stroke-dasharray="1,5" points="8,-70 8,-268 716,-268 716,-70 8,-70"/>
</g>
<g id="clust2" class="cluster">
<title>cluster_ConstraintModalModule_declarations</title>
<polygon fill="none" stroke="#000000" points="556,-78 556,-130 708,-130 708,-78 556,-78"/>
</g>
<g id="clust4" class="cluster">
<title>cluster_ConstraintModalModule_imports</title>
<polygon fill="none" stroke="#000000" points="16,-78 16,-130 548,-130 548,-78 16,-78"/>
</g>
<g id="clust5" class="cluster">
<title>cluster_ConstraintModalModule_exports</title>
<polygon fill="none" stroke="#000000" points="304,-208 304,-260 460,-260 460,-208 304,-208"/>
</g>
<!-- CRModalComponent -->
<g id="node1" class="node">
<title>CRModalComponent</title>
<polygon fill="#ffffb3" stroke="#000000" points="700.0561,-122 563.9439,-122 563.9439,-86 700.0561,-86 700.0561,-122"/>
<text text-anchor="middle" x="632" y="-99.8" font-family="Times,serif" font-size="14.00" fill="#000000">CRModalComponent</text>
</g>
<!-- ConstraintModalModule -->
<g id="node2" class="node">
<title>ConstraintModalModule</title>
<polygon fill="#8dd3c7" stroke="#000000" points="459.4284,-187 456.4284,-191 435.4284,-191 432.4284,-187 304.5716,-187 304.5716,-151 459.4284,-151 459.4284,-187"/>
<text text-anchor="middle" x="382" y="-164.8" font-family="Times,serif" font-size="14.00" fill="#000000">ConstraintModalModule</text>
</g>
<!-- CRModalComponent&#45;&gt;ConstraintModalModule -->
<g id="edge1" class="edge">
<title>CRModalComponent&#45;&gt;ConstraintModalModule</title>
<path fill="none" stroke="#000000" d="M632,-122.1061C632,-141.3391 632,-169 632,-169 632,-169 469.3895,-169 469.3895,-169"/>
<polygon fill="#000000" stroke="#000000" points="469.3895,-165.5001 459.3895,-169 469.3894,-172.5001 469.3895,-165.5001"/>
</g>
<!-- CRModalComponent  -->
<g id="node7" class="node">
<title>CRModalComponent </title>
<polygon fill="#fb8072" stroke="#000000" points="452.0554,-252 311.9446,-252 311.9446,-216 452.0554,-216 452.0554,-252"/>
<text text-anchor="middle" x="382" y="-229.8" font-family="Times,serif" font-size="14.00" fill="#000000">CRModalComponent </text>
</g>
<!-- ConstraintModalModule&#45;&gt;CRModalComponent  -->
<g id="edge6" class="edge">
<title>ConstraintModalModule&#45;&gt;CRModalComponent </title>
<path fill="none" stroke="#000000" stroke-dasharray="5,2" d="M382,-187.1061C382,-187.1061 382,-205.991 382,-205.991"/>
<polygon fill="#000000" stroke="#000000" points="378.5001,-205.9909 382,-215.991 385.5001,-205.991 378.5001,-205.9909"/>
</g>
<!-- ButtonModule -->
<g id="node3" class="node">
<title>ButtonModule</title>
<polygon fill="#8dd3c7" stroke="#000000" points="539.6682,-122 536.6682,-126 515.6682,-126 512.6682,-122 442.3318,-122 442.3318,-86 539.6682,-86 539.6682,-122"/>
<text text-anchor="middle" x="491" y="-99.8" font-family="Times,serif" font-size="14.00" fill="#000000">ButtonModule</text>
</g>
<!-- ButtonModule&#45;&gt;ConstraintModalModule -->
<g id="edge2" class="edge">
<title>ButtonModule&#45;&gt;ConstraintModalModule</title>
<path fill="none" stroke="#000000" d="M450.6901,-122.1061C450.6901,-122.1061 450.6901,-140.991 450.6901,-140.991"/>
<polygon fill="#000000" stroke="#000000" points="447.1901,-140.9909 450.6901,-150.991 454.1901,-140.991 447.1901,-140.9909"/>
</g>
<!-- IconModule -->
<g id="node4" class="node">
<title>IconModule</title>
<polygon fill="#8dd3c7" stroke="#000000" points="424.4261,-122 421.4261,-126 400.4261,-126 397.4261,-122 339.5739,-122 339.5739,-86 424.4261,-86 424.4261,-122"/>
<text text-anchor="middle" x="382" y="-99.8" font-family="Times,serif" font-size="14.00" fill="#000000">IconModule</text>
</g>
<!-- IconModule&#45;&gt;ConstraintModalModule -->
<g id="edge3" class="edge">
<title>IconModule&#45;&gt;ConstraintModalModule</title>
<path fill="none" stroke="#000000" d="M382,-122.1061C382,-122.1061 382,-140.991 382,-140.991"/>
<polygon fill="#000000" stroke="#000000" points="378.5001,-140.9909 382,-150.991 385.5001,-140.991 378.5001,-140.9909"/>
</g>
<!-- PriceModule -->
<g id="node5" class="node">
<title>PriceModule</title>
<polygon fill="#8dd3c7" stroke="#000000" points="322.3134,-122 319.3134,-126 298.3134,-126 295.3134,-122 233.6866,-122 233.6866,-86 322.3134,-86 322.3134,-122"/>
<text text-anchor="middle" x="278" y="-99.8" font-family="Times,serif" font-size="14.00" fill="#000000">PriceModule</text>
</g>
<!-- PriceModule&#45;&gt;ConstraintModalModule -->
<g id="edge4" class="edge">
<title>PriceModule&#45;&gt;ConstraintModalModule</title>
<path fill="none" stroke="#000000" d="M313.4713,-122.1061C313.4713,-122.1061 313.4713,-140.991 313.4713,-140.991"/>
<polygon fill="#000000" stroke="#000000" points="309.9713,-140.9909 313.4713,-150.991 316.9713,-140.991 309.9713,-140.9909"/>
</g>
<!-- RecommendedProductsModule -->
<g id="node6" class="node">
<title>RecommendedProductsModule</title>
<polygon fill="#8dd3c7" stroke="#000000" points="216.0196,-122 213.0196,-126 192.0196,-126 189.0196,-122 23.9804,-122 23.9804,-86 216.0196,-86 216.0196,-122"/>
<text text-anchor="middle" x="120" y="-99.8" font-family="Times,serif" font-size="14.00" fill="#000000">RecommendedProductsModule</text>
</g>
<!-- RecommendedProductsModule&#45;&gt;ConstraintModalModule -->
<g id="edge5" class="edge">
<title>RecommendedProductsModule&#45;&gt;ConstraintModalModule</title>
<path fill="none" stroke="#000000" d="M120,-122.1061C120,-141.3391 120,-169 120,-169 120,-169 294.4548,-169 294.4548,-169"/>
<polygon fill="#000000" stroke="#000000" points="294.4548,-172.5001 304.4548,-169 294.4547,-165.5001 294.4548,-172.5001"/>
</g>
</g>
</svg>
