<?xml version="1.0" encoding="UTF-8" standalone="no"?>
<!DOCTYPE svg PUBLIC "-//W3C//DTD SVG 1.1//EN"
 "http://www.w3.org/Graphics/SVG/1.1/DTD/svg11.dtd">
<!-- Generated by graphviz version 2.40.1 (20161225.0304)
 -->
<!-- Title: dependencies Pages: 1 -->
<svg width="770pt" height="284pt"
 viewBox="0.00 0.00 770.00 284.00" xmlns="http://www.w3.org/2000/svg" xmlns:xlink="http://www.w3.org/1999/xlink">
<g id="graph0" class="graph" transform="scale(1 1) rotate(0) translate(4 280)">
<title>dependencies</title>
<polygon fill="#ffffff" stroke="transparent" points="-4,4 -4,-280 766,-280 766,4 -4,4"/>
<text text-anchor="start" x="360.0091" y="-42.4" font-family="sans-serif" font-weight="bold" font-size="14.00" fill="#000000">Legend</text>
<polygon fill="#ffffb3" stroke="transparent" points="147,-10 147,-30 167,-30 167,-10 147,-10"/>
<text text-anchor="start" x="170.629" y="-15.4" font-family="sans-serif" font-size="14.00" fill="#000000"> &#160;Declarations</text>
<polygon fill="#8dd3c7" stroke="transparent" points="260,-10 260,-30 280,-30 280,-10 260,-10"/>
<text text-anchor="start" x="283.7251" y="-15.4" font-family="sans-serif" font-size="14.00" fill="#000000"> &#160;Module</text>
<polygon fill="#80b1d3" stroke="transparent" points="346,-10 346,-30 366,-30 366,-10 346,-10"/>
<text text-anchor="start" x="369.7812" y="-15.4" font-family="sans-serif" font-size="14.00" fill="#000000"> &#160;Bootstrap</text>
<polygon fill="#fdb462" stroke="transparent" points="443,-10 443,-30 463,-30 463,-10 443,-10"/>
<text text-anchor="start" x="466.6732" y="-15.4" font-family="sans-serif" font-size="14.00" fill="#000000"> &#160;Providers</text>
<polygon fill="#fb8072" stroke="transparent" points="539,-10 539,-30 559,-30 559,-10 539,-10"/>
<text text-anchor="start" x="562.7258" y="-15.4" font-family="sans-serif" font-size="14.00" fill="#000000"> &#160;Exports</text>
<g id="clust1" class="cluster">
<title>cluster_ConstraintModalModule</title>
<polygon fill="none" stroke="#000000" stroke-dasharray="1,5" points="8,-70 8,-268 754,-268 754,-70 8,-70"/>
</g>
<g id="clust2" class="cluster">
<title>cluster_ConstraintModalModule_declarations</title>
<polygon fill="none" stroke="#000000" points="594,-78 594,-130 746,-130 746,-78 594,-78"/>
</g>
<g id="clust4" class="cluster">
<title>cluster_ConstraintModalModule_imports</title>
<polygon fill="none" stroke="#000000" points="16,-78 16,-130 586,-130 586,-78 16,-78"/>
</g>
<g id="clust5" class="cluster">
<title>cluster_ConstraintModalModule_exports</title>
<polygon fill="none" stroke="#000000" points="323,-208 323,-260 479,-260 479,-208 323,-208"/>
</g>
<!-- CRModalComponent -->
<g id="node1" class="node">
<title>CRModalComponent</title>
<polygon fill="#ffffb3" stroke="#000000" points="738.0561,-122 601.9439,-122 601.9439,-86 738.0561,-86 738.0561,-122"/>
<text text-anchor="middle" x="670" y="-99.8" font-family="Times,serif" font-size="14.00" fill="#000000">CRModalComponent</text>
</g>
<!-- ConstraintModalModule -->
<g id="node2" class="node">
<title>ConstraintModalModule</title>
<polygon fill="#8dd3c7" stroke="#000000" points="478.4284,-187 475.4284,-191 454.4284,-191 451.4284,-187 323.5716,-187 323.5716,-151 478.4284,-151 478.4284,-187"/>
<text text-anchor="middle" x="401" y="-164.8" font-family="Times,serif" font-size="14.00" fill="#000000">ConstraintModalModule</text>
</g>
<!-- CRModalComponent&#45;&gt;ConstraintModalModule -->
<g id="edge1" class="edge">
<title>CRModalComponent&#45;&gt;ConstraintModalModule</title>
<path fill="none" stroke="#000000" d="M670,-122.1061C670,-141.3391 670,-169 670,-169 670,-169 488.4451,-169 488.4451,-169"/>
<polygon fill="#000000" stroke="#000000" points="488.4451,-165.5001 478.4451,-169 488.445,-172.5001 488.4451,-165.5001"/>
</g>
<!-- CRModalComponent  -->
<g id="node7" class="node">
<title>CRModalComponent </title>
<polygon fill="#fb8072" stroke="#000000" points="471.0554,-252 330.9446,-252 330.9446,-216 471.0554,-216 471.0554,-252"/>
<text text-anchor="middle" x="401" y="-229.8" font-family="Times,serif" font-size="14.00" fill="#000000">CRModalComponent </text>
</g>
<!-- ConstraintModalModule&#45;&gt;CRModalComponent  -->
<g id="edge6" class="edge">
<title>ConstraintModalModule&#45;&gt;CRModalComponent </title>
<path fill="none" stroke="#000000" stroke-dasharray="5,2" d="M401,-187.1061C401,-187.1061 401,-205.991 401,-205.991"/>
<polygon fill="#000000" stroke="#000000" points="397.5001,-205.9909 401,-215.991 404.5001,-205.991 397.5001,-205.9909"/>
</g>
<!-- ButtonModule -->
<g id="node3" class="node">
<title>ButtonModule</title>
<polygon fill="#8dd3c7" stroke="#000000" points="577.6682,-122 574.6682,-126 553.6682,-126 550.6682,-122 480.3318,-122 480.3318,-86 577.6682,-86 577.6682,-122"/>
<text text-anchor="middle" x="529" y="-99.8" font-family="Times,serif" font-size="14.00" fill="#000000">ButtonModule</text>
</g>
<!-- ButtonModule&#45;&gt;ConstraintModalModule -->
<g id="edge2" class="edge">
<title>ButtonModule&#45;&gt;ConstraintModalModule</title>
<path fill="none" stroke="#000000" d="M480.21,-104C474.2673,-104 470.2427,-104 470.2427,-104 470.2427,-104 470.2427,-140.8939 470.2427,-140.8939"/>
<polygon fill="#000000" stroke="#000000" points="466.7427,-140.8938 470.2427,-150.8939 473.7427,-140.8939 466.7427,-140.8938"/>
</g>
<!-- MdSpinnerModule -->
<g id="node4" class="node">
<title>MdSpinnerModule</title>
<polygon fill="#8dd3c7" stroke="#000000" points="462.0436,-122 459.0436,-126 438.0436,-126 435.0436,-122 339.9564,-122 339.9564,-86 462.0436,-86 462.0436,-122"/>
<text text-anchor="middle" x="401" y="-99.8" font-family="Times,serif" font-size="14.00" fill="#000000">MdSpinnerModule</text>
</g>
<!-- MdSpinnerModule&#45;&gt;ConstraintModalModule -->
<g id="edge3" class="edge">
<title>MdSpinnerModule&#45;&gt;ConstraintModalModule</title>
<path fill="none" stroke="#000000" d="M401,-122.1061C401,-122.1061 401,-140.991 401,-140.991"/>
<polygon fill="#000000" stroke="#000000" points="397.5001,-140.9909 401,-150.991 404.5001,-140.991 397.5001,-140.9909"/>
</g>
<!-- PriceModule -->
<g id="node5" class="node">
<title>PriceModule</title>
<polygon fill="#8dd3c7" stroke="#000000" points="322.3134,-122 319.3134,-126 298.3134,-126 295.3134,-122 233.6866,-122 233.6866,-86 322.3134,-86 322.3134,-122"/>
<text text-anchor="middle" x="278" y="-99.8" font-family="Times,serif" font-size="14.00" fill="#000000">PriceModule</text>
</g>
<!-- PriceModule&#45;&gt;ConstraintModalModule -->
<g id="edge4" class="edge">
<title>PriceModule&#45;&gt;ConstraintModalModule</title>
<path fill="none" stroke="#000000" d="M322.3935,-104C327.9644,-104 331.7574,-104 331.7574,-104 331.7574,-104 331.7574,-140.8939 331.7574,-140.8939"/>
<polygon fill="#000000" stroke="#000000" points="328.2574,-140.8938 331.7574,-150.8939 335.2574,-140.8939 328.2574,-140.8938"/>
</g>
<!-- RecommendedProductsModule -->
<g id="node6" class="node">
<title>RecommendedProductsModule</title>
<polygon fill="#8dd3c7" stroke="#000000" points="216.0196,-122 213.0196,-126 192.0196,-126 189.0196,-122 23.9804,-122 23.9804,-86 216.0196,-86 216.0196,-122"/>
<text text-anchor="middle" x="120" y="-99.8" font-family="Times,serif" font-size="14.00" fill="#000000">RecommendedProductsModule</text>
</g>
<!-- RecommendedProductsModule&#45;&gt;ConstraintModalModule -->
<g id="edge5" class="edge">
<title>RecommendedProductsModule&#45;&gt;ConstraintModalModule</title>
<path fill="none" stroke="#000000" d="M120,-122.1061C120,-141.3391 120,-169 120,-169 120,-169 313.4717,-169 313.4717,-169"/>
<polygon fill="#000000" stroke="#000000" points="313.4717,-172.5001 323.4717,-169 313.4716,-165.5001 313.4717,-172.5001"/>
</g>
</g>
</svg>
