<?xml version="1.0" encoding="UTF-8" standalone="no"?>
<!DOCTYPE svg PUBLIC "-//W3C//DTD SVG 1.1//EN"
 "http://www.w3.org/Graphics/SVG/1.1/DTD/svg11.dtd">
<!-- Generated by graphviz version 2.40.1 (20161225.0304)
 -->
<!-- Title: dependencies Pages: 1 -->
<svg width="504pt" height="211pt"
 viewBox="0.00 0.00 504.00 211.00" xmlns="http://www.w3.org/2000/svg" xmlns:xlink="http://www.w3.org/1999/xlink">
<g id="graph0" class="graph" transform="scale(1 1) rotate(0) translate(4 207)">
<title>dependencies</title>
<polygon fill="#ffffff" stroke="transparent" points="-4,4 -4,-207 500,-207 500,4 -4,4"/>
<text text-anchor="start" x="227.0091" y="-42.4" font-family="sans-serif" font-weight="bold" font-size="14.00" fill="#000000">Legend</text>
<polygon fill="#ffffb3" stroke="transparent" points="14,-10 14,-30 34,-30 34,-10 14,-10"/>
<text text-anchor="start" x="37.629" y="-15.4" font-family="sans-serif" font-size="14.00" fill="#000000"> &#160;Declarations</text>
<polygon fill="#8dd3c7" stroke="transparent" points="127,-10 127,-30 147,-30 147,-10 127,-10"/>
<text text-anchor="start" x="150.7251" y="-15.4" font-family="sans-serif" font-size="14.00" fill="#000000"> &#160;Module</text>
<polygon fill="#80b1d3" stroke="transparent" points="213,-10 213,-30 233,-30 233,-10 213,-10"/>
<text text-anchor="start" x="236.7812" y="-15.4" font-family="sans-serif" font-size="14.00" fill="#000000"> &#160;Bootstrap</text>
<polygon fill="#fdb462" stroke="transparent" points="310,-10 310,-30 330,-30 330,-10 310,-10"/>
<text text-anchor="start" x="333.6732" y="-15.4" font-family="sans-serif" font-size="14.00" fill="#000000"> &#160;Providers</text>
<polygon fill="#fb8072" stroke="transparent" points="406,-10 406,-30 426,-30 426,-10 406,-10"/>
<text text-anchor="start" x="429.7258" y="-15.4" font-family="sans-serif" font-size="14.00" fill="#000000"> &#160;Exports</text>
<g id="clust1" class="cluster">
<title>cluster_ChangePasswordModule</title>
<polygon fill="none" stroke="#000000" stroke-dasharray="1,5" points="10,-70 10,-195 486,-195 486,-70 10,-70"/>
</g>
<g id="clust2" class="cluster">
<title>cluster_ChangePasswordModule_declarations</title>
<polygon fill="none" stroke="#000000" points="244,-78 244,-130 478,-130 478,-78 244,-78"/>
</g>
<g id="clust4" class="cluster">
<title>cluster_ChangePasswordModule_imports</title>
<polygon fill="none" stroke="#000000" points="18,-78 18,-130 236,-130 236,-78 18,-78"/>
</g>
<!-- ChangePasswordLayoutComponent -->
<g id="node1" class="node">
<title>ChangePasswordLayoutComponent</title>
<polygon fill="#ffffb3" stroke="#000000" points="469.91,-122 252.09,-122 252.09,-86 469.91,-86 469.91,-122"/>
<text text-anchor="middle" x="361" y="-99.8" font-family="Times,serif" font-size="14.00" fill="#000000">ChangePasswordLayoutComponent</text>
</g>
<!-- ChangePasswordModule -->
<g id="node2" class="node">
<title>ChangePasswordModule</title>
<polygon fill="#8dd3c7" stroke="#000000" points="321.9692,-187 318.9692,-191 297.9692,-191 294.9692,-187 166.0308,-187 166.0308,-151 321.9692,-151 321.9692,-187"/>
<text text-anchor="middle" x="244" y="-164.8" font-family="Times,serif" font-size="14.00" fill="#000000">ChangePasswordModule</text>
</g>
<!-- ChangePasswordLayoutComponent&#45;&gt;ChangePasswordModule -->
<g id="edge1" class="edge">
<title>ChangePasswordLayoutComponent&#45;&gt;ChangePasswordModule</title>
<path fill="none" stroke="#000000" d="M287.1399,-122.1061C287.1399,-122.1061 287.1399,-140.991 287.1399,-140.991"/>
<polygon fill="#000000" stroke="#000000" points="283.64,-140.9909 287.1399,-150.991 290.64,-140.991 283.64,-140.9909"/>
</g>
<!-- ChangePasswordRoutingModule -->
<g id="node3" class="node">
<title>ChangePasswordRoutingModule</title>
<polygon fill="#8dd3c7" stroke="#000000" points="227.587,-122 224.587,-126 203.587,-126 200.587,-122 26.413,-122 26.413,-86 227.587,-86 227.587,-122"/>
<text text-anchor="middle" x="127" y="-99.8" font-family="Times,serif" font-size="14.00" fill="#000000">ChangePasswordRoutingModule</text>
</g>
<!-- ChangePasswordRoutingModule&#45;&gt;ChangePasswordModule -->
<g id="edge2" class="edge">
<title>ChangePasswordRoutingModule&#45;&gt;ChangePasswordModule</title>
<path fill="none" stroke="#000000" d="M196.7795,-122.1061C196.7795,-122.1061 196.7795,-140.991 196.7795,-140.991"/>
<polygon fill="#000000" stroke="#000000" points="193.2795,-140.9909 196.7795,-150.991 200.2795,-140.991 193.2795,-140.9909"/>
</g>
</g>
</svg>
