<?xml version="1.0" encoding="UTF-8" standalone="no"?>
<!DOCTYPE svg PUBLIC "-//W3C//DTD SVG 1.1//EN"
 "http://www.w3.org/Graphics/SVG/1.1/DTD/svg11.dtd">
<!-- Generated by graphviz version 2.40.1 (20161225.0304)
 -->
<!-- Title: dependencies Pages: 1 -->
<svg width="521pt" height="284pt"
 viewBox="0.00 0.00 521.00 284.00" xmlns="http://www.w3.org/2000/svg" xmlns:xlink="http://www.w3.org/1999/xlink">
<g id="graph0" class="graph" transform="scale(1 1) rotate(0) translate(4 280)">
<title>dependencies</title>
<polygon fill="#ffffff" stroke="transparent" points="-4,4 -4,-280 517,-280 517,4 -4,4"/>
<text text-anchor="start" x="235.5091" y="-42.4" font-family="sans-serif" font-weight="bold" font-size="14.00" fill="#000000">Legend</text>
<polygon fill="#ffffb3" stroke="transparent" points="22.5,-10 22.5,-30 42.5,-30 42.5,-10 22.5,-10"/>
<text text-anchor="start" x="46.129" y="-15.4" font-family="sans-serif" font-size="14.00" fill="#000000"> &#160;Declarations</text>
<polygon fill="#8dd3c7" stroke="transparent" points="135.5,-10 135.5,-30 155.5,-30 155.5,-10 135.5,-10"/>
<text text-anchor="start" x="159.2251" y="-15.4" font-family="sans-serif" font-size="14.00" fill="#000000"> &#160;Module</text>
<polygon fill="#80b1d3" stroke="transparent" points="221.5,-10 221.5,-30 241.5,-30 241.5,-10 221.5,-10"/>
<text text-anchor="start" x="245.2812" y="-15.4" font-family="sans-serif" font-size="14.00" fill="#000000"> &#160;Bootstrap</text>
<polygon fill="#fdb462" stroke="transparent" points="318.5,-10 318.5,-30 338.5,-30 338.5,-10 318.5,-10"/>
<text text-anchor="start" x="342.1732" y="-15.4" font-family="sans-serif" font-size="14.00" fill="#000000"> &#160;Providers</text>
<polygon fill="#fb8072" stroke="transparent" points="414.5,-10 414.5,-30 434.5,-30 434.5,-10 414.5,-10"/>
<text text-anchor="start" x="438.2258" y="-15.4" font-family="sans-serif" font-size="14.00" fill="#000000"> &#160;Exports</text>
<g id="clust1" class="cluster">
<title>cluster_PromotionModule</title>
<polygon fill="none" stroke="#000000" stroke-dasharray="1,5" points="8,-70 8,-268 505,-268 505,-70 8,-70"/>
</g>
<g id="clust2" class="cluster">
<title>cluster_PromotionModule_declarations</title>
<polygon fill="none" stroke="#000000" points="341,-78 341,-130 497,-130 497,-78 341,-78"/>
</g>
<g id="clust4" class="cluster">
<title>cluster_PromotionModule_imports</title>
<polygon fill="none" stroke="#000000" points="16,-78 16,-130 333,-130 333,-78 16,-78"/>
</g>
<g id="clust5" class="cluster">
<title>cluster_PromotionModule_exports</title>
<polygon fill="none" stroke="#000000" points="181,-208 181,-260 341,-260 341,-208 181,-208"/>
</g>
<!-- PromotionComponent -->
<g id="node1" class="node">
<title>PromotionComponent</title>
<polygon fill="#ffffb3" stroke="#000000" points="489.4481,-122 348.5519,-122 348.5519,-86 489.4481,-86 489.4481,-122"/>
<text text-anchor="middle" x="419" y="-99.8" font-family="Times,serif" font-size="14.00" fill="#000000">PromotionComponent</text>
</g>
<!-- PromotionModule -->
<g id="node2" class="node">
<title>PromotionModule</title>
<polygon fill="#8dd3c7" stroke="#000000" points="320.1653,-187 317.1653,-191 296.1653,-191 293.1653,-187 201.8347,-187 201.8347,-151 320.1653,-151 320.1653,-187"/>
<text text-anchor="middle" x="261" y="-164.8" font-family="Times,serif" font-size="14.00" fill="#000000">PromotionModule</text>
</g>
<!-- PromotionComponent&#45;&gt;PromotionModule -->
<g id="edge1" class="edge">
<title>PromotionComponent&#45;&gt;PromotionModule</title>
<path fill="none" stroke="#000000" d="M419,-122.1061C419,-141.3391 419,-169 419,-169 419,-169 330.2829,-169 330.2829,-169"/>
<polygon fill="#000000" stroke="#000000" points="330.2829,-165.5001 320.2829,-169 330.2829,-172.5001 330.2829,-165.5001"/>
</g>
<!-- PromotionComponent  -->
<g id="node5" class="node">
<title>PromotionComponent </title>
<polygon fill="#fb8072" stroke="#000000" points="332.9474,-252 189.0526,-252 189.0526,-216 332.9474,-216 332.9474,-252"/>
<text text-anchor="middle" x="261" y="-229.8" font-family="Times,serif" font-size="14.00" fill="#000000">PromotionComponent </text>
</g>
<!-- PromotionModule&#45;&gt;PromotionComponent  -->
<g id="edge4" class="edge">
<title>PromotionModule&#45;&gt;PromotionComponent </title>
<path fill="none" stroke="#000000" stroke-dasharray="5,2" d="M261,-187.1061C261,-187.1061 261,-205.991 261,-205.991"/>
<polygon fill="#000000" stroke="#000000" points="257.5001,-205.9909 261,-215.991 264.5001,-205.991 257.5001,-205.9909"/>
</g>
<!-- OutputFieldModule -->
<g id="node3" class="node">
<title>OutputFieldModule</title>
<polygon fill="#8dd3c7" stroke="#000000" points="324.7162,-122 321.7162,-126 300.7162,-126 297.7162,-122 197.2838,-122 197.2838,-86 324.7162,-86 324.7162,-122"/>
<text text-anchor="middle" x="261" y="-99.8" font-family="Times,serif" font-size="14.00" fill="#000000">OutputFieldModule</text>
</g>
<!-- OutputFieldModule&#45;&gt;PromotionModule -->
<g id="edge2" class="edge">
<title>OutputFieldModule&#45;&gt;PromotionModule</title>
<path fill="none" stroke="#000000" d="M261,-122.1061C261,-122.1061 261,-140.991 261,-140.991"/>
<polygon fill="#000000" stroke="#000000" points="257.5001,-140.9909 261,-150.991 264.5001,-140.991 257.5001,-140.9909"/>
</g>
<!-- PromotionModalModule -->
<g id="node4" class="node">
<title>PromotionModalModule</title>
<polygon fill="#8dd3c7" stroke="#000000" points="179.7147,-122 176.7147,-126 155.7147,-126 152.7147,-122 24.2853,-122 24.2853,-86 179.7147,-86 179.7147,-122"/>
<text text-anchor="middle" x="102" y="-99.8" font-family="Times,serif" font-size="14.00" fill="#000000">PromotionModalModule</text>
</g>
<!-- PromotionModalModule&#45;&gt;PromotionModule -->
<g id="edge3" class="edge">
<title>PromotionModalModule&#45;&gt;PromotionModule</title>
<path fill="none" stroke="#000000" d="M102,-122.1061C102,-141.3391 102,-169 102,-169 102,-169 191.7943,-169 191.7943,-169"/>
<polygon fill="#000000" stroke="#000000" points="191.7943,-172.5001 201.7943,-169 191.7942,-165.5001 191.7943,-172.5001"/>
</g>
</g>
</svg>
