<?xml version="1.0" encoding="UTF-8" standalone="no"?>
<!DOCTYPE svg PUBLIC "-//W3C//DTD SVG 1.1//EN"
 "http://www.w3.org/Graphics/SVG/1.1/DTD/svg11.dtd">
<!-- Generated by graphviz version 2.40.1 (20161225.0304)
 -->
<!-- Title: dependencies Pages: 1 -->
<svg width="552pt" height="284pt"
 viewBox="0.00 0.00 552.00 284.00" xmlns="http://www.w3.org/2000/svg" xmlns:xlink="http://www.w3.org/1999/xlink">
<g id="graph0" class="graph" transform="scale(1 1) rotate(0) translate(4 280)">
<title>dependencies</title>
<polygon fill="#ffffff" stroke="transparent" points="-4,4 -4,-280 548,-280 548,4 -4,4"/>
<text text-anchor="start" x="251.0091" y="-42.4" font-family="sans-serif" font-weight="bold" font-size="14.00" fill="#000000">Legend</text>
<polygon fill="#ffffb3" stroke="transparent" points="38,-10 38,-30 58,-30 58,-10 38,-10"/>
<text text-anchor="start" x="61.629" y="-15.4" font-family="sans-serif" font-size="14.00" fill="#000000"> &#160;Declarations</text>
<polygon fill="#8dd3c7" stroke="transparent" points="151,-10 151,-30 171,-30 171,-10 151,-10"/>
<text text-anchor="start" x="174.7251" y="-15.4" font-family="sans-serif" font-size="14.00" fill="#000000"> &#160;Module</text>
<polygon fill="#80b1d3" stroke="transparent" points="237,-10 237,-30 257,-30 257,-10 237,-10"/>
<text text-anchor="start" x="260.7812" y="-15.4" font-family="sans-serif" font-size="14.00" fill="#000000"> &#160;Bootstrap</text>
<polygon fill="#fdb462" stroke="transparent" points="334,-10 334,-30 354,-30 354,-10 334,-10"/>
<text text-anchor="start" x="357.6732" y="-15.4" font-family="sans-serif" font-size="14.00" fill="#000000"> &#160;Providers</text>
<polygon fill="#fb8072" stroke="transparent" points="430,-10 430,-30 450,-30 450,-10 430,-10"/>
<text text-anchor="start" x="453.7258" y="-15.4" font-family="sans-serif" font-size="14.00" fill="#000000"> &#160;Exports</text>
<g id="clust1" class="cluster">
<title>cluster_DetailsModule</title>
<polygon fill="none" stroke="#000000" stroke-dasharray="1,5" points="8,-70 8,-268 536,-268 536,-70 8,-70"/>
</g>
<g id="clust2" class="cluster">
<title>cluster_DetailsModule_declarations</title>
<polygon fill="none" stroke="#000000" points="16,-78 16,-130 528,-130 528,-78 16,-78"/>
</g>
<g id="clust7" class="cluster">
<title>cluster_DetailsModule_exports</title>
<polygon fill="none" stroke="#000000" points="92,-208 92,-260 452,-260 452,-208 92,-208"/>
</g>
<!-- CommentsComponent -->
<g id="node1" class="node">
<title>CommentsComponent</title>
<polygon fill="#ffffb3" stroke="#000000" points="520,-122 378,-122 378,-86 520,-86 520,-122"/>
<text text-anchor="middle" x="449" y="-99.8" font-family="Times,serif" font-size="14.00" fill="#000000">CommentsComponent</text>
</g>
<!-- DetailsModule -->
<g id="node4" class="node">
<title>DetailsModule</title>
<polygon fill="#8dd3c7" stroke="#000000" points="330.7022,-187 327.7022,-191 306.7022,-191 303.7022,-187 231.2978,-187 231.2978,-151 330.7022,-151 330.7022,-187"/>
<text text-anchor="middle" x="281" y="-164.8" font-family="Times,serif" font-size="14.00" fill="#000000">DetailsModule</text>
</g>
<!-- CommentsComponent&#45;&gt;DetailsModule -->
<g id="edge1" class="edge">
<title>CommentsComponent&#45;&gt;DetailsModule</title>
<path fill="none" stroke="#000000" d="M410.7582,-122.1061C410.7582,-141.3391 410.7582,-169 410.7582,-169 410.7582,-169 340.7968,-169 340.7968,-169"/>
<polygon fill="#000000" stroke="#000000" points="340.7969,-165.5001 330.7968,-169 340.7968,-172.5001 340.7969,-165.5001"/>
</g>
<!-- DetailSectionComponent -->
<g id="node2" class="node">
<title>DetailSectionComponent</title>
<polygon fill="#ffffb3" stroke="#000000" points="359.5337,-122 202.4663,-122 202.4663,-86 359.5337,-86 359.5337,-122"/>
<text text-anchor="middle" x="281" y="-99.8" font-family="Times,serif" font-size="14.00" fill="#000000">DetailSectionComponent</text>
</g>
<!-- DetailSectionComponent&#45;&gt;DetailsModule -->
<g id="edge2" class="edge">
<title>DetailSectionComponent&#45;&gt;DetailsModule</title>
<path fill="none" stroke="#000000" d="M281,-122.1061C281,-122.1061 281,-140.991 281,-140.991"/>
<polygon fill="#000000" stroke="#000000" points="277.5001,-140.9909 281,-150.991 284.5001,-140.991 277.5001,-140.9909"/>
</g>
<!-- DetailsLayoutComponent -->
<g id="node3" class="node">
<title>DetailsLayoutComponent</title>
<polygon fill="#ffffb3" stroke="#000000" points="184.1428,-122 23.8572,-122 23.8572,-86 184.1428,-86 184.1428,-122"/>
<text text-anchor="middle" x="104" y="-99.8" font-family="Times,serif" font-size="14.00" fill="#000000">DetailsLayoutComponent</text>
</g>
<!-- DetailsLayoutComponent&#45;&gt;DetailsModule -->
<g id="edge3" class="edge">
<title>DetailsLayoutComponent&#45;&gt;DetailsModule</title>
<path fill="none" stroke="#000000" d="M142.125,-122.1061C142.125,-141.3391 142.125,-169 142.125,-169 142.125,-169 221.2552,-169 221.2552,-169"/>
<polygon fill="#000000" stroke="#000000" points="221.2552,-172.5001 231.2552,-169 221.2552,-165.5001 221.2552,-172.5001"/>
</g>
<!-- DetailSectionComponent  -->
<g id="node5" class="node">
<title>DetailSectionComponent </title>
<polygon fill="#fb8072" stroke="#000000" points="443.533,-252 282.467,-252 282.467,-216 443.533,-216 443.533,-252"/>
<text text-anchor="middle" x="363" y="-229.8" font-family="Times,serif" font-size="14.00" fill="#000000">DetailSectionComponent </text>
</g>
<!-- DetailsModule&#45;&gt;DetailSectionComponent  -->
<g id="edge4" class="edge">
<title>DetailsModule&#45;&gt;DetailSectionComponent </title>
<path fill="none" stroke="#000000" stroke-dasharray="5,2" d="M306.5422,-187.1061C306.5422,-187.1061 306.5422,-205.991 306.5422,-205.991"/>
<polygon fill="#000000" stroke="#000000" points="303.0423,-205.9909 306.5422,-215.991 310.0423,-205.991 303.0423,-205.9909"/>
</g>
<!-- DetailsLayoutComponent  -->
<g id="node6" class="node">
<title>DetailsLayoutComponent </title>
<polygon fill="#fb8072" stroke="#000000" points="264.1425,-252 99.8575,-252 99.8575,-216 264.1425,-216 264.1425,-252"/>
<text text-anchor="middle" x="182" y="-229.8" font-family="Times,serif" font-size="14.00" fill="#000000">DetailsLayoutComponent </text>
</g>
<!-- DetailsModule&#45;&gt;DetailsLayoutComponent  -->
<g id="edge5" class="edge">
<title>DetailsModule&#45;&gt;DetailsLayoutComponent </title>
<path fill="none" stroke="#000000" stroke-dasharray="5,2" d="M247.7351,-187.1061C247.7351,-187.1061 247.7351,-205.991 247.7351,-205.991"/>
<polygon fill="#000000" stroke="#000000" points="244.2352,-205.9909 247.7351,-215.991 251.2352,-205.991 244.2352,-205.9909"/>
</g>
</g>
</svg>
