<?xml version="1.0" encoding="UTF-8" standalone="no"?>
<!DOCTYPE svg PUBLIC "-//W3C//DTD SVG 1.1//EN"
 "http://www.w3.org/Graphics/SVG/1.1/DTD/svg11.dtd">
<!-- Generated by graphviz version 2.40.1 (20161225.0304)
 -->
<!-- Title: dependencies Pages: 1 -->
<svg width="966pt" height="284pt"
 viewBox="0.00 0.00 966.00 284.00" xmlns="http://www.w3.org/2000/svg" xmlns:xlink="http://www.w3.org/1999/xlink">
<g id="graph0" class="graph" transform="scale(1 1) rotate(0) translate(4 280)">
<title>dependencies</title>
<polygon fill="#ffffff" stroke="transparent" points="-4,4 -4,-280 962,-280 962,4 -4,4"/>
<text text-anchor="start" x="458.0091" y="-42.4" font-family="sans-serif" font-weight="bold" font-size="14.00" fill="#000000">Legend</text>
<polygon fill="#ffffb3" stroke="transparent" points="245,-10 245,-30 265,-30 265,-10 245,-10"/>
<text text-anchor="start" x="268.629" y="-15.4" font-family="sans-serif" font-size="14.00" fill="#000000"> &#160;Declarations</text>
<polygon fill="#8dd3c7" stroke="transparent" points="358,-10 358,-30 378,-30 378,-10 358,-10"/>
<text text-anchor="start" x="381.7251" y="-15.4" font-family="sans-serif" font-size="14.00" fill="#000000"> &#160;Module</text>
<polygon fill="#80b1d3" stroke="transparent" points="444,-10 444,-30 464,-30 464,-10 444,-10"/>
<text text-anchor="start" x="467.7812" y="-15.4" font-family="sans-serif" font-size="14.00" fill="#000000"> &#160;Bootstrap</text>
<polygon fill="#fdb462" stroke="transparent" points="541,-10 541,-30 561,-30 561,-10 541,-10"/>
<text text-anchor="start" x="564.6732" y="-15.4" font-family="sans-serif" font-size="14.00" fill="#000000"> &#160;Providers</text>
<polygon fill="#fb8072" stroke="transparent" points="637,-10 637,-30 657,-30 657,-10 637,-10"/>
<text text-anchor="start" x="660.7258" y="-15.4" font-family="sans-serif" font-size="14.00" fill="#000000"> &#160;Exports</text>
<g id="clust1" class="cluster">
<title>cluster_AssetListModule</title>
<polygon fill="none" stroke="#000000" stroke-dasharray="1,5" points="8,-70 8,-268 950,-268 950,-70 8,-70"/>
</g>
<g id="clust2" class="cluster">
<title>cluster_AssetListModule_declarations</title>
<polygon fill="none" stroke="#000000" points="792,-78 792,-130 942,-130 942,-78 792,-78"/>
</g>
<g id="clust4" class="cluster">
<title>cluster_AssetListModule_imports</title>
<polygon fill="none" stroke="#000000" points="16,-78 16,-130 784,-130 784,-78 16,-78"/>
</g>
<g id="clust5" class="cluster">
<title>cluster_AssetListModule_exports</title>
<polygon fill="none" stroke="#000000" points="443,-208 443,-260 597,-260 597,-208 443,-208"/>
</g>
<!-- AssetListComponent -->
<g id="node1" class="node">
<title>AssetListComponent</title>
<polygon fill="#ffffb3" stroke="#000000" points="934.212,-122 799.788,-122 799.788,-86 934.212,-86 934.212,-122"/>
<text text-anchor="middle" x="867" y="-99.8" font-family="Times,serif" font-size="14.00" fill="#000000">AssetListComponent</text>
</g>
<!-- AssetListModule -->
<g id="node2" class="node">
<title>AssetListModule</title>
<polygon fill="#8dd3c7" stroke="#000000" points="576.43,-187 573.43,-191 552.43,-191 549.43,-187 463.57,-187 463.57,-151 576.43,-151 576.43,-187"/>
<text text-anchor="middle" x="520" y="-164.8" font-family="Times,serif" font-size="14.00" fill="#000000">AssetListModule</text>
</g>
<!-- AssetListComponent&#45;&gt;AssetListModule -->
<g id="edge1" class="edge">
<title>AssetListComponent&#45;&gt;AssetListModule</title>
<path fill="none" stroke="#000000" d="M867,-122.2843C867,-143.3211 867,-175 867,-175 867,-175 586.5238,-175 586.5238,-175"/>
<polygon fill="#000000" stroke="#000000" points="586.5239,-171.5001 576.5238,-175 586.5238,-178.5001 586.5239,-171.5001"/>
</g>
<!-- AssetListComponent  -->
<g id="node8" class="node">
<title>AssetListComponent </title>
<polygon fill="#fb8072" stroke="#000000" points="588.7121,-252 451.2879,-252 451.2879,-216 588.7121,-216 588.7121,-252"/>
<text text-anchor="middle" x="520" y="-229.8" font-family="Times,serif" font-size="14.00" fill="#000000">AssetListComponent </text>
</g>
<!-- AssetListModule&#45;&gt;AssetListComponent  -->
<g id="edge7" class="edge">
<title>AssetListModule&#45;&gt;AssetListComponent </title>
<path fill="none" stroke="#000000" stroke-dasharray="5,2" d="M520,-187.1061C520,-187.1061 520,-205.991 520,-205.991"/>
<polygon fill="#000000" stroke="#000000" points="516.5001,-205.9909 520,-215.991 523.5001,-205.991 516.5001,-205.9909"/>
</g>
<!-- ApttusModalModule -->
<g id="node3" class="node">
<title>ApttusModalModule</title>
<polygon fill="#8dd3c7" stroke="#000000" points="775.9327,-122 772.9327,-126 751.9327,-126 748.9327,-122 642.0673,-122 642.0673,-86 775.9327,-86 775.9327,-122"/>
<text text-anchor="middle" x="709" y="-99.8" font-family="Times,serif" font-size="14.00" fill="#000000">ApttusModalModule</text>
</g>
<!-- ApttusModalModule&#45;&gt;AssetListModule -->
<g id="edge2" class="edge">
<title>ApttusModalModule&#45;&gt;AssetListModule</title>
<path fill="none" stroke="#000000" d="M709,-122.0225C709,-139.3734 709,-163 709,-163 709,-163 586.4502,-163 586.4502,-163"/>
<polygon fill="#000000" stroke="#000000" points="586.4503,-159.5001 576.4502,-163 586.4502,-166.5001 586.4503,-159.5001"/>
</g>
<!-- ButtonModule -->
<g id="node4" class="node">
<title>ButtonModule</title>
<polygon fill="#8dd3c7" stroke="#000000" points="623.6682,-122 620.6682,-126 599.6682,-126 596.6682,-122 526.3318,-122 526.3318,-86 623.6682,-86 623.6682,-122"/>
<text text-anchor="middle" x="575" y="-99.8" font-family="Times,serif" font-size="14.00" fill="#000000">ButtonModule</text>
</g>
<!-- ButtonModule&#45;&gt;AssetListModule -->
<g id="edge3" class="edge">
<title>ButtonModule&#45;&gt;AssetListModule</title>
<path fill="none" stroke="#000000" d="M551.1904,-122.1061C551.1904,-122.1061 551.1904,-140.991 551.1904,-140.991"/>
<polygon fill="#000000" stroke="#000000" points="547.6905,-140.9909 551.1904,-150.991 554.6905,-140.991 547.6905,-140.9909"/>
</g>
<!-- IconModule -->
<g id="node5" class="node">
<title>IconModule</title>
<polygon fill="#8dd3c7" stroke="#000000" points="508.4261,-122 505.4261,-126 484.4261,-126 481.4261,-122 423.5739,-122 423.5739,-86 508.4261,-86 508.4261,-122"/>
<text text-anchor="middle" x="466" y="-99.8" font-family="Times,serif" font-size="14.00" fill="#000000">IconModule</text>
</g>
<!-- IconModule&#45;&gt;AssetListModule -->
<g id="edge4" class="edge">
<title>IconModule&#45;&gt;AssetListModule</title>
<path fill="none" stroke="#000000" d="M485.999,-122.1061C485.999,-122.1061 485.999,-140.991 485.999,-140.991"/>
<polygon fill="#000000" stroke="#000000" points="482.499,-140.9909 485.999,-150.991 489.499,-140.991 482.499,-140.9909"/>
</g>
<!-- OutputFieldModule -->
<g id="node6" class="node">
<title>OutputFieldModule</title>
<polygon fill="#8dd3c7" stroke="#000000" points="405.7162,-122 402.7162,-126 381.7162,-126 378.7162,-122 278.2838,-122 278.2838,-86 405.7162,-86 405.7162,-122"/>
<text text-anchor="middle" x="342" y="-99.8" font-family="Times,serif" font-size="14.00" fill="#000000">OutputFieldModule</text>
</g>
<!-- OutputFieldModule&#45;&gt;AssetListModule -->
<g id="edge5" class="edge">
<title>OutputFieldModule&#45;&gt;AssetListModule</title>
<path fill="none" stroke="#000000" d="M342,-122.0225C342,-139.3734 342,-163 342,-163 342,-163 453.6797,-163 453.6797,-163"/>
<polygon fill="#000000" stroke="#000000" points="453.6797,-166.5001 463.6797,-163 453.6797,-159.5001 453.6797,-166.5001"/>
</g>
<!-- ProductConfigurationSummaryModule -->
<g id="node7" class="node">
<title>ProductConfigurationSummaryModule</title>
<polygon fill="#8dd3c7" stroke="#000000" points="260.0814,-122 257.0814,-126 236.0814,-126 233.0814,-122 23.9186,-122 23.9186,-86 260.0814,-86 260.0814,-122"/>
<text text-anchor="middle" x="142" y="-99.8" font-family="Times,serif" font-size="14.00" fill="#000000">ProductConfigurationSummaryModule</text>
</g>
<!-- ProductConfigurationSummaryModule&#45;&gt;AssetListModule -->
<g id="edge6" class="edge">
<title>ProductConfigurationSummaryModule&#45;&gt;AssetListModule</title>
<path fill="none" stroke="#000000" d="M142,-122.2843C142,-143.3211 142,-175 142,-175 142,-175 453.4096,-175 453.4096,-175"/>
<polygon fill="#000000" stroke="#000000" points="453.4096,-178.5001 463.4096,-175 453.4095,-171.5001 453.4096,-178.5001"/>
</g>
</g>
</svg>
