<?xml version="1.0" encoding="UTF-8" standalone="no"?>
<!DOCTYPE svg PUBLIC "-//W3C//DTD SVG 1.1//EN"
 "http://www.w3.org/Graphics/SVG/1.1/DTD/svg11.dtd">
<!-- Generated by graphviz version 2.40.1 (20161225.0304)
 -->
<!-- Title: dependencies Pages: 1 -->
<svg width="722pt" height="284pt"
 viewBox="0.00 0.00 722.00 284.00" xmlns="http://www.w3.org/2000/svg" xmlns:xlink="http://www.w3.org/1999/xlink">
<g id="graph0" class="graph" transform="scale(1 1) rotate(0) translate(4 280)">
<title>dependencies</title>
<polygon fill="#ffffff" stroke="transparent" points="-4,4 -4,-280 718,-280 718,4 -4,4"/>
<text text-anchor="start" x="336.0091" y="-42.4" font-family="sans-serif" font-weight="bold" font-size="14.00" fill="#000000">Legend</text>
<polygon fill="#ffffb3" stroke="transparent" points="123,-10 123,-30 143,-30 143,-10 123,-10"/>
<text text-anchor="start" x="146.629" y="-15.4" font-family="sans-serif" font-size="14.00" fill="#000000"> &#160;Declarations</text>
<polygon fill="#8dd3c7" stroke="transparent" points="236,-10 236,-30 256,-30 256,-10 236,-10"/>
<text text-anchor="start" x="259.7251" y="-15.4" font-family="sans-serif" font-size="14.00" fill="#000000"> &#160;Module</text>
<polygon fill="#80b1d3" stroke="transparent" points="322,-10 322,-30 342,-30 342,-10 322,-10"/>
<text text-anchor="start" x="345.7812" y="-15.4" font-family="sans-serif" font-size="14.00" fill="#000000"> &#160;Bootstrap</text>
<polygon fill="#fdb462" stroke="transparent" points="419,-10 419,-30 439,-30 439,-10 419,-10"/>
<text text-anchor="start" x="442.6732" y="-15.4" font-family="sans-serif" font-size="14.00" fill="#000000"> &#160;Providers</text>
<polygon fill="#fb8072" stroke="transparent" points="515,-10 515,-30 535,-30 535,-10 515,-10"/>
<text text-anchor="start" x="538.7258" y="-15.4" font-family="sans-serif" font-size="14.00" fill="#000000"> &#160;Exports</text>
<g id="clust1" class="cluster">
<title>cluster_AssetListModule</title>
<polygon fill="none" stroke="#000000" stroke-dasharray="1,5" points="8,-70 8,-268 706,-268 706,-70 8,-70"/>
</g>
<g id="clust2" class="cluster">
<title>cluster_AssetListModule_declarations</title>
<polygon fill="none" stroke="#000000" points="548,-78 548,-130 698,-130 698,-78 548,-78"/>
</g>
<g id="clust4" class="cluster">
<title>cluster_AssetListModule_imports</title>
<polygon fill="none" stroke="#000000" points="16,-78 16,-130 540,-130 540,-78 16,-78"/>
</g>
<g id="clust5" class="cluster">
<title>cluster_AssetListModule_exports</title>
<polygon fill="none" stroke="#000000" points="254,-208 254,-260 408,-260 408,-208 254,-208"/>
</g>
<!-- AssetListComponent -->
<g id="node1" class="node">
<title>AssetListComponent</title>
<polygon fill="#ffffb3" stroke="#000000" points="690.212,-122 555.788,-122 555.788,-86 690.212,-86 690.212,-122"/>
<text text-anchor="middle" x="623" y="-99.8" font-family="Times,serif" font-size="14.00" fill="#000000">AssetListComponent</text>
</g>
<!-- AssetListModule -->
<g id="node2" class="node">
<title>AssetListModule</title>
<polygon fill="#8dd3c7" stroke="#000000" points="387.43,-187 384.43,-191 363.43,-191 360.43,-187 274.57,-187 274.57,-151 387.43,-151 387.43,-187"/>
<text text-anchor="middle" x="331" y="-164.8" font-family="Times,serif" font-size="14.00" fill="#000000">AssetListModule</text>
</g>
<!-- AssetListComponent&#45;&gt;AssetListModule -->
<g id="edge1" class="edge">
<title>AssetListComponent&#45;&gt;AssetListModule</title>
<path fill="none" stroke="#000000" d="M623,-122.1061C623,-141.3391 623,-169 623,-169 623,-169 397.3005,-169 397.3005,-169"/>
<polygon fill="#000000" stroke="#000000" points="397.3006,-165.5001 387.3005,-169 397.3005,-172.5001 397.3006,-165.5001"/>
</g>
<!-- AssetListComponent  -->
<g id="node7" class="node">
<title>AssetListComponent </title>
<polygon fill="#fb8072" stroke="#000000" points="399.7121,-252 262.2879,-252 262.2879,-216 399.7121,-216 399.7121,-252"/>
<text text-anchor="middle" x="331" y="-229.8" font-family="Times,serif" font-size="14.00" fill="#000000">AssetListComponent </text>
</g>
<!-- AssetListModule&#45;&gt;AssetListComponent  -->
<g id="edge6" class="edge">
<title>AssetListModule&#45;&gt;AssetListComponent </title>
<path fill="none" stroke="#000000" stroke-dasharray="5,2" d="M331,-187.1061C331,-187.1061 331,-205.991 331,-205.991"/>
<polygon fill="#000000" stroke="#000000" points="327.5001,-205.9909 331,-215.991 334.5001,-205.991 327.5001,-205.9909"/>
</g>
<!-- ApttusModalModule -->
<g id="node3" class="node">
<title>ApttusModalModule</title>
<polygon fill="#8dd3c7" stroke="#000000" points="531.9327,-122 528.9327,-126 507.9327,-126 504.9327,-122 398.0673,-122 398.0673,-86 531.9327,-86 531.9327,-122"/>
<text text-anchor="middle" x="465" y="-99.8" font-family="Times,serif" font-size="14.00" fill="#000000">ApttusModalModule</text>
</g>
<!-- ApttusModalModule&#45;&gt;AssetListModule -->
<g id="edge2" class="edge">
<title>ApttusModalModule&#45;&gt;AssetListModule</title>
<path fill="none" stroke="#000000" d="M398.0904,-104C389.4432,-104 383.5242,-104 383.5242,-104 383.5242,-104 383.5242,-140.8939 383.5242,-140.8939"/>
<polygon fill="#000000" stroke="#000000" points="380.0243,-140.8938 383.5242,-150.8939 387.0243,-140.8939 380.0243,-140.8938"/>
</g>
<!-- ButtonModule -->
<g id="node4" class="node">
<title>ButtonModule</title>
<polygon fill="#8dd3c7" stroke="#000000" points="379.6682,-122 376.6682,-126 355.6682,-126 352.6682,-122 282.3318,-122 282.3318,-86 379.6682,-86 379.6682,-122"/>
<text text-anchor="middle" x="331" y="-99.8" font-family="Times,serif" font-size="14.00" fill="#000000">ButtonModule</text>
</g>
<!-- ButtonModule&#45;&gt;AssetListModule -->
<g id="edge3" class="edge">
<title>ButtonModule&#45;&gt;AssetListModule</title>
<path fill="none" stroke="#000000" d="M331,-122.1061C331,-122.1061 331,-140.991 331,-140.991"/>
<polygon fill="#000000" stroke="#000000" points="327.5001,-140.9909 331,-150.991 334.5001,-140.991 327.5001,-140.9909"/>
</g>
<!-- MdSpinnerModule -->
<g id="node5" class="node">
<title>MdSpinnerModule</title>
<polygon fill="#8dd3c7" stroke="#000000" points="264.0436,-122 261.0436,-126 240.0436,-126 237.0436,-122 141.9564,-122 141.9564,-86 264.0436,-86 264.0436,-122"/>
<text text-anchor="middle" x="203" y="-99.8" font-family="Times,serif" font-size="14.00" fill="#000000">MdSpinnerModule</text>
</g>
<!-- MdSpinnerModule&#45;&gt;AssetListModule -->
<g id="edge4" class="edge">
<title>MdSpinnerModule&#45;&gt;AssetListModule</title>
<path fill="none" stroke="#000000" d="M264.2794,-104C272.6702,-104 278.4758,-104 278.4758,-104 278.4758,-104 278.4758,-140.8939 278.4758,-140.8939"/>
<polygon fill="#000000" stroke="#000000" points="274.9759,-140.8938 278.4758,-150.8939 281.9759,-140.8939 274.9759,-140.8938"/>
</g>
<!-- PricingModule -->
<g id="node6" class="node">
<title>PricingModule</title>
<polygon fill="#8dd3c7" stroke="#000000" points="123.9888,-122 120.9888,-126 99.9888,-126 96.9888,-122 24.0112,-122 24.0112,-86 123.9888,-86 123.9888,-122"/>
<text text-anchor="middle" x="74" y="-99.8" font-family="Times,serif" font-size="14.00" fill="#000000">PricingModule</text>
</g>
<!-- PricingModule&#45;&gt;AssetListModule -->
<g id="edge5" class="edge">
<title>PricingModule&#45;&gt;AssetListModule</title>
<path fill="none" stroke="#000000" d="M74,-122.1061C74,-141.3391 74,-169 74,-169 74,-169 264.6003,-169 264.6003,-169"/>
<polygon fill="#000000" stroke="#000000" points="264.6003,-172.5001 274.6003,-169 264.6002,-165.5001 264.6003,-172.5001"/>
</g>
</g>
</svg>
