<?xml version="1.0" encoding="UTF-8" standalone="no"?>
<!DOCTYPE svg PUBLIC "-//W3C//DTD SVG 1.1//EN"
 "http://www.w3.org/Graphics/SVG/1.1/DTD/svg11.dtd">
<!-- Generated by graphviz version 2.40.1 (20161225.0304)
 -->
<!-- Title: dependencies Pages: 1 -->
<svg width="1591pt" height="211pt"
 viewBox="0.00 0.00 1591.00 211.00" xmlns="http://www.w3.org/2000/svg" xmlns:xlink="http://www.w3.org/1999/xlink">
<g id="graph0" class="graph" transform="scale(1 1) rotate(0) translate(4 207)">
<title>dependencies</title>
<polygon fill="#ffffff" stroke="transparent" points="-4,4 -4,-207 1587,-207 1587,4 -4,4"/>
<text text-anchor="start" x="770.5091" y="-42.4" font-family="sans-serif" font-weight="bold" font-size="14.00" fill="#000000">Legend</text>
<polygon fill="#ffffb3" stroke="transparent" points="557.5,-10 557.5,-30 577.5,-30 577.5,-10 557.5,-10"/>
<text text-anchor="start" x="581.129" y="-15.4" font-family="sans-serif" font-size="14.00" fill="#000000"> &#160;Declarations</text>
<polygon fill="#8dd3c7" stroke="transparent" points="670.5,-10 670.5,-30 690.5,-30 690.5,-10 670.5,-10"/>
<text text-anchor="start" x="694.2251" y="-15.4" font-family="sans-serif" font-size="14.00" fill="#000000"> &#160;Module</text>
<polygon fill="#80b1d3" stroke="transparent" points="756.5,-10 756.5,-30 776.5,-30 776.5,-10 756.5,-10"/>
<text text-anchor="start" x="780.2812" y="-15.4" font-family="sans-serif" font-size="14.00" fill="#000000"> &#160;Bootstrap</text>
<polygon fill="#fdb462" stroke="transparent" points="853.5,-10 853.5,-30 873.5,-30 873.5,-10 853.5,-10"/>
<text text-anchor="start" x="877.1732" y="-15.4" font-family="sans-serif" font-size="14.00" fill="#000000"> &#160;Providers</text>
<polygon fill="#fb8072" stroke="transparent" points="949.5,-10 949.5,-30 969.5,-30 969.5,-10 949.5,-10"/>
<text text-anchor="start" x="973.2258" y="-15.4" font-family="sans-serif" font-size="14.00" fill="#000000"> &#160;Exports</text>
<g id="clust1" class="cluster">
<title>cluster_ConfigureModule</title>
<polygon fill="none" stroke="#000000" stroke-dasharray="1,5" points="8,-70 8,-195 1575,-195 1575,-70 8,-70"/>
</g>
<g id="clust2" class="cluster">
<title>cluster_ConfigureModule_declarations</title>
<polygon fill="none" stroke="#000000" points="764,-78 764,-130 1567,-130 1567,-78 764,-78"/>
</g>
<g id="clust7" class="cluster">
<title>cluster_ConfigureModule_imports</title>
<polygon fill="none" stroke="#000000" points="16,-78 16,-130 756,-130 756,-78 16,-78"/>
</g>
<!-- AttributeAccordionComponent -->
<g id="node1" class="node">
<title>AttributeAccordionComponent</title>
<polygon fill="#ffffb3" stroke="#000000" points="1559.4636,-122 1368.5364,-122 1368.5364,-86 1559.4636,-86 1559.4636,-122"/>
<text text-anchor="middle" x="1464" y="-99.8" font-family="Times,serif" font-size="14.00" fill="#000000">AttributeAccordionComponent</text>
</g>
<!-- ConfigureModule -->
<g id="node5" class="node">
<title>ConfigureModule</title>
<polygon fill="#8dd3c7" stroke="#000000" points="704.3132,-187 701.3132,-191 680.3132,-191 677.3132,-187 587.6868,-187 587.6868,-151 704.3132,-151 704.3132,-187"/>
<text text-anchor="middle" x="646" y="-164.8" font-family="Times,serif" font-size="14.00" fill="#000000">ConfigureModule</text>
</g>
<!-- AttributeAccordionComponent&#45;&gt;ConfigureModule -->
<g id="edge1" class="edge">
<title>AttributeAccordionComponent&#45;&gt;ConfigureModule</title>
<path fill="none" stroke="#000000" d="M1464,-122.0109C1464,-144.4852 1464,-180 1464,-180 1464,-180 714.1728,-180 714.1728,-180"/>
<polygon fill="#000000" stroke="#000000" points="714.1728,-176.5001 704.1728,-180 714.1727,-183.5001 714.1728,-176.5001"/>
</g>
<!-- ConfigureLayoutComponent -->
<g id="node2" class="node">
<title>ConfigureLayoutComponent</title>
<polygon fill="#ffffb3" stroke="#000000" points="1350.7534,-122 1173.2466,-122 1173.2466,-86 1350.7534,-86 1350.7534,-122"/>
<text text-anchor="middle" x="1262" y="-99.8" font-family="Times,serif" font-size="14.00" fill="#000000">ConfigureLayoutComponent</text>
</g>
<!-- ConfigureLayoutComponent&#45;&gt;ConfigureModule -->
<g id="edge2" class="edge">
<title>ConfigureLayoutComponent&#45;&gt;ConfigureModule</title>
<path fill="none" stroke="#000000" d="M1262,-122.1289C1262,-142.5724 1262,-173 1262,-173 1262,-173 714.2292,-173 714.2292,-173"/>
<polygon fill="#000000" stroke="#000000" points="714.2292,-169.5001 704.2292,-173 714.2292,-176.5001 714.2292,-169.5001"/>
</g>
<!-- OptionAccordionComponent -->
<g id="node3" class="node">
<title>OptionAccordionComponent</title>
<polygon fill="#ffffb3" stroke="#000000" points="1154.8075,-122 975.1925,-122 975.1925,-86 1154.8075,-86 1154.8075,-122"/>
<text text-anchor="middle" x="1065" y="-99.8" font-family="Times,serif" font-size="14.00" fill="#000000">OptionAccordionComponent</text>
</g>
<!-- OptionAccordionComponent&#45;&gt;ConfigureModule -->
<g id="edge3" class="edge">
<title>OptionAccordionComponent&#45;&gt;ConfigureModule</title>
<path fill="none" stroke="#000000" d="M1065,-122.2667C1065,-140.5552 1065,-166 1065,-166 1065,-166 714.2602,-166 714.2602,-166"/>
<polygon fill="#000000" stroke="#000000" points="714.2602,-162.5001 704.2602,-166 714.2601,-169.5001 714.2602,-162.5001"/>
</g>
<!-- RecommendationsComponent -->
<g id="node4" class="node">
<title>RecommendationsComponent</title>
<polygon fill="#ffffb3" stroke="#000000" points="957.535,-122 772.465,-122 772.465,-86 957.535,-86 957.535,-122"/>
<text text-anchor="middle" x="865" y="-99.8" font-family="Times,serif" font-size="14.00" fill="#000000">RecommendationsComponent</text>
</g>
<!-- RecommendationsComponent&#45;&gt;ConfigureModule -->
<g id="edge4" class="edge">
<title>RecommendationsComponent&#45;&gt;ConfigureModule</title>
<path fill="none" stroke="#000000" d="M865,-122.0091C865,-138.0494 865,-159 865,-159 865,-159 714.4003,-159 714.4003,-159"/>
<polygon fill="#000000" stroke="#000000" points="714.4003,-155.5001 704.4003,-159 714.4003,-162.5001 714.4003,-155.5001"/>
</g>
<!-- ApttusModule -->
<g id="node6" class="node">
<title>ApttusModule</title>
<polygon fill="#8dd3c7" stroke="#000000" points="748.3823,-122 745.3823,-126 724.3823,-126 721.3823,-122 651.6177,-122 651.6177,-86 748.3823,-86 748.3823,-122"/>
<text text-anchor="middle" x="700" y="-99.8" font-family="Times,serif" font-size="14.00" fill="#000000">ApttusModule</text>
</g>
<!-- ApttusModule&#45;&gt;ConfigureModule -->
<g id="edge5" class="edge">
<title>ApttusModule&#45;&gt;ConfigureModule</title>
<path fill="none" stroke="#000000" d="M677.8576,-122.1061C677.8576,-122.1061 677.8576,-140.991 677.8576,-140.991"/>
<polygon fill="#000000" stroke="#000000" points="674.3577,-140.9909 677.8576,-150.991 681.3577,-140.991 674.3577,-140.9909"/>
</g>
<!-- CartModule -->
<g id="node7" class="node">
<title>CartModule</title>
<polygon fill="#8dd3c7" stroke="#000000" points="633.6529,-122 630.6529,-126 609.6529,-126 606.6529,-122 550.3471,-122 550.3471,-86 633.6529,-86 633.6529,-122"/>
<text text-anchor="middle" x="592" y="-99.8" font-family="Times,serif" font-size="14.00" fill="#000000">CartModule</text>
</g>
<!-- CartModule&#45;&gt;ConfigureModule -->
<g id="edge6" class="edge">
<title>CartModule&#45;&gt;ConfigureModule</title>
<path fill="none" stroke="#000000" d="M610.8349,-122.1061C610.8349,-122.1061 610.8349,-140.991 610.8349,-140.991"/>
<polygon fill="#000000" stroke="#000000" points="607.3349,-140.9909 610.8349,-150.991 614.3349,-140.991 607.3349,-140.9909"/>
</g>
<!-- CatalogModule -->
<g id="node8" class="node">
<title>CatalogModule</title>
<polygon fill="#8dd3c7" stroke="#000000" points="532.5968,-122 529.5968,-126 508.5968,-126 505.5968,-122 429.4032,-122 429.4032,-86 532.5968,-86 532.5968,-122"/>
<text text-anchor="middle" x="481" y="-99.8" font-family="Times,serif" font-size="14.00" fill="#000000">CatalogModule</text>
</g>
<!-- CatalogModule&#45;&gt;ConfigureModule -->
<g id="edge7" class="edge">
<title>CatalogModule&#45;&gt;ConfigureModule</title>
<path fill="none" stroke="#000000" d="M481,-122.0091C481,-138.0494 481,-159 481,-159 481,-159 577.8272,-159 577.8272,-159"/>
<polygon fill="#000000" stroke="#000000" points="577.8272,-162.5001 587.8272,-159 577.8271,-155.5001 577.8272,-162.5001"/>
</g>
<!-- ConfigureRoutingModule -->
<g id="node9" class="node">
<title>ConfigureRoutingModule</title>
<polygon fill="#8dd3c7" stroke="#000000" points="411.9312,-122 408.9312,-126 387.9312,-126 384.9312,-122 250.0688,-122 250.0688,-86 411.9312,-86 411.9312,-122"/>
<text text-anchor="middle" x="331" y="-99.8" font-family="Times,serif" font-size="14.00" fill="#000000">ConfigureRoutingModule</text>
</g>
<!-- ConfigureRoutingModule&#45;&gt;ConfigureModule -->
<g id="edge8" class="edge">
<title>ConfigureRoutingModule&#45;&gt;ConfigureModule</title>
<path fill="none" stroke="#000000" d="M331,-122.2667C331,-140.5552 331,-166 331,-166 331,-166 577.4891,-166 577.4891,-166"/>
<polygon fill="#000000" stroke="#000000" points="577.4892,-169.5001 587.4891,-166 577.4891,-162.5001 577.4892,-169.5001"/>
</g>
<!-- PricingModule -->
<g id="node10" class="node">
<title>PricingModule</title>
<polygon fill="#8dd3c7" stroke="#000000" points="231.9888,-122 228.9888,-126 207.9888,-126 204.9888,-122 132.0112,-122 132.0112,-86 231.9888,-86 231.9888,-122"/>
<text text-anchor="middle" x="182" y="-99.8" font-family="Times,serif" font-size="14.00" fill="#000000">PricingModule</text>
</g>
<!-- PricingModule&#45;&gt;ConfigureModule -->
<g id="edge9" class="edge">
<title>PricingModule&#45;&gt;ConfigureModule</title>
<path fill="none" stroke="#000000" d="M182,-122.1289C182,-142.5724 182,-173 182,-173 182,-173 577.7039,-173 577.7039,-173"/>
<polygon fill="#000000" stroke="#000000" points="577.7039,-176.5001 587.7039,-173 577.7039,-169.5001 577.7039,-176.5001"/>
</g>
<!-- StoreModule -->
<g id="node11" class="node">
<title>StoreModule</title>
<polygon fill="#8dd3c7" stroke="#000000" points="113.5983,-122 110.5983,-126 89.5983,-126 86.5983,-122 24.4017,-122 24.4017,-86 113.5983,-86 113.5983,-122"/>
<text text-anchor="middle" x="69" y="-99.8" font-family="Times,serif" font-size="14.00" fill="#000000">StoreModule</text>
</g>
<!-- StoreModule&#45;&gt;ConfigureModule -->
<g id="edge10" class="edge">
<title>StoreModule&#45;&gt;ConfigureModule</title>
<path fill="none" stroke="#000000" d="M69,-122.0109C69,-144.4852 69,-180 69,-180 69,-180 577.7663,-180 577.7663,-180"/>
<polygon fill="#000000" stroke="#000000" points="577.7663,-183.5001 587.7663,-180 577.7662,-176.5001 577.7663,-183.5001"/>
</g>
</g>
</svg>
