<?xml version="1.0" encoding="UTF-8" standalone="no"?>
<!DOCTYPE svg PUBLIC "-//W3C//DTD SVG 1.1//EN"
 "http://www.w3.org/Graphics/SVG/1.1/DTD/svg11.dtd">
<!-- Generated by graphviz version 2.40.1 (20161225.0304)
 -->
<!-- Title: dependencies Pages: 1 -->
<svg width="582pt" height="284pt"
 viewBox="0.00 0.00 582.00 284.00" xmlns="http://www.w3.org/2000/svg" xmlns:xlink="http://www.w3.org/1999/xlink">
<g id="graph0" class="graph" transform="scale(1 1) rotate(0) translate(4 280)">
<title>dependencies</title>
<polygon fill="#ffffff" stroke="transparent" points="-4,4 -4,-280 578,-280 578,4 -4,4"/>
<text text-anchor="start" x="266.0091" y="-42.4" font-family="sans-serif" font-weight="bold" font-size="14.00" fill="#000000">Legend</text>
<polygon fill="#ffffb3" stroke="transparent" points="53,-10 53,-30 73,-30 73,-10 53,-10"/>
<text text-anchor="start" x="76.629" y="-15.4" font-family="sans-serif" font-size="14.00" fill="#000000"> &#160;Declarations</text>
<polygon fill="#8dd3c7" stroke="transparent" points="166,-10 166,-30 186,-30 186,-10 166,-10"/>
<text text-anchor="start" x="189.7251" y="-15.4" font-family="sans-serif" font-size="14.00" fill="#000000"> &#160;Module</text>
<polygon fill="#80b1d3" stroke="transparent" points="252,-10 252,-30 272,-30 272,-10 252,-10"/>
<text text-anchor="start" x="275.7812" y="-15.4" font-family="sans-serif" font-size="14.00" fill="#000000"> &#160;Bootstrap</text>
<polygon fill="#fdb462" stroke="transparent" points="349,-10 349,-30 369,-30 369,-10 349,-10"/>
<text text-anchor="start" x="372.6732" y="-15.4" font-family="sans-serif" font-size="14.00" fill="#000000"> &#160;Providers</text>
<polygon fill="#fb8072" stroke="transparent" points="445,-10 445,-30 465,-30 465,-10 445,-10"/>
<text text-anchor="start" x="468.7258" y="-15.4" font-family="sans-serif" font-size="14.00" fill="#000000"> &#160;Exports</text>
<g id="clust1" class="cluster">
<title>cluster_ConstraintSideMenuModule</title>
<polygon fill="none" stroke="#000000" stroke-dasharray="1,5" points="8,-70 8,-268 566,-268 566,-70 8,-70"/>
</g>
<g id="clust2" class="cluster">
<title>cluster_ConstraintSideMenuModule_declarations</title>
<polygon fill="none" stroke="#000000" points="384,-78 384,-130 558,-130 558,-78 384,-78"/>
</g>
<g id="clust4" class="cluster">
<title>cluster_ConstraintSideMenuModule_imports</title>
<polygon fill="none" stroke="#000000" points="16,-78 16,-130 376,-130 376,-78 16,-78"/>
</g>
<g id="clust5" class="cluster">
<title>cluster_ConstraintSideMenuModule_exports</title>
<polygon fill="none" stroke="#000000" points="166,-208 166,-260 344,-260 344,-208 166,-208"/>
</g>
<!-- CRSideMenuComponent -->
<g id="node1" class="node">
<title>CRSideMenuComponent</title>
<polygon fill="#ffffb3" stroke="#000000" points="549.5532,-122 392.4468,-122 392.4468,-86 549.5532,-86 549.5532,-122"/>
<text text-anchor="middle" x="471" y="-99.8" font-family="Times,serif" font-size="14.00" fill="#000000">CRSideMenuComponent</text>
</g>
<!-- ConstraintSideMenuModule -->
<g id="node2" class="node">
<title>ConstraintSideMenuModule</title>
<polygon fill="#8dd3c7" stroke="#000000" points="342.9255,-187 339.9255,-191 318.9255,-191 315.9255,-187 167.0745,-187 167.0745,-151 342.9255,-151 342.9255,-187"/>
<text text-anchor="middle" x="255" y="-164.8" font-family="Times,serif" font-size="14.00" fill="#000000">ConstraintSideMenuModule</text>
</g>
<!-- CRSideMenuComponent&#45;&gt;ConstraintSideMenuModule -->
<g id="edge1" class="edge">
<title>CRSideMenuComponent&#45;&gt;ConstraintSideMenuModule</title>
<path fill="none" stroke="#000000" d="M471,-122.1061C471,-141.3391 471,-169 471,-169 471,-169 352.8555,-169 352.8555,-169"/>
<polygon fill="#000000" stroke="#000000" points="352.8555,-165.5001 342.8555,-169 352.8554,-172.5001 352.8555,-165.5001"/>
</g>
<!-- CRSideMenuComponent  -->
<g id="node6" class="node">
<title>CRSideMenuComponent </title>
<polygon fill="#fb8072" stroke="#000000" points="335.5526,-252 174.4474,-252 174.4474,-216 335.5526,-216 335.5526,-252"/>
<text text-anchor="middle" x="255" y="-229.8" font-family="Times,serif" font-size="14.00" fill="#000000">CRSideMenuComponent </text>
</g>
<!-- ConstraintSideMenuModule&#45;&gt;CRSideMenuComponent  -->
<g id="edge5" class="edge">
<title>ConstraintSideMenuModule&#45;&gt;CRSideMenuComponent </title>
<path fill="none" stroke="#000000" stroke-dasharray="5,2" d="M255,-187.1061C255,-187.1061 255,-205.991 255,-205.991"/>
<polygon fill="#000000" stroke="#000000" points="251.5001,-205.9909 255,-215.991 258.5001,-205.991 251.5001,-205.9909"/>
</g>
<!-- ButtonModule -->
<g id="node3" class="node">
<title>ButtonModule</title>
<polygon fill="#8dd3c7" stroke="#000000" points="367.6682,-122 364.6682,-126 343.6682,-126 340.6682,-122 270.3318,-122 270.3318,-86 367.6682,-86 367.6682,-122"/>
<text text-anchor="middle" x="319" y="-99.8" font-family="Times,serif" font-size="14.00" fill="#000000">ButtonModule</text>
</g>
<!-- ButtonModule&#45;&gt;ConstraintSideMenuModule -->
<g id="edge2" class="edge">
<title>ButtonModule&#45;&gt;ConstraintSideMenuModule</title>
<path fill="none" stroke="#000000" d="M306.4394,-122.1061C306.4394,-122.1061 306.4394,-140.991 306.4394,-140.991"/>
<polygon fill="#000000" stroke="#000000" points="302.9394,-140.9909 306.4394,-150.991 309.9394,-140.991 302.9394,-140.9909"/>
</g>
<!-- MdSpinnerModule -->
<g id="node4" class="node">
<title>MdSpinnerModule</title>
<polygon fill="#8dd3c7" stroke="#000000" points="252.0436,-122 249.0436,-126 228.0436,-126 225.0436,-122 129.9564,-122 129.9564,-86 252.0436,-86 252.0436,-122"/>
<text text-anchor="middle" x="191" y="-99.8" font-family="Times,serif" font-size="14.00" fill="#000000">MdSpinnerModule</text>
</g>
<!-- MdSpinnerModule&#45;&gt;ConstraintSideMenuModule -->
<g id="edge3" class="edge">
<title>MdSpinnerModule&#45;&gt;ConstraintSideMenuModule</title>
<path fill="none" stroke="#000000" d="M209.7795,-122.1061C209.7795,-122.1061 209.7795,-140.991 209.7795,-140.991"/>
<polygon fill="#000000" stroke="#000000" points="206.2795,-140.9909 209.7795,-150.991 213.2795,-140.991 206.2795,-140.9909"/>
</g>
<!-- PriceModule -->
<g id="node5" class="node">
<title>PriceModule</title>
<polygon fill="#8dd3c7" stroke="#000000" points="112.3134,-122 109.3134,-126 88.3134,-126 85.3134,-122 23.6866,-122 23.6866,-86 112.3134,-86 112.3134,-122"/>
<text text-anchor="middle" x="68" y="-99.8" font-family="Times,serif" font-size="14.00" fill="#000000">PriceModule</text>
</g>
<!-- PriceModule&#45;&gt;ConstraintSideMenuModule -->
<g id="edge4" class="edge">
<title>PriceModule&#45;&gt;ConstraintSideMenuModule</title>
<path fill="none" stroke="#000000" d="M68,-122.1061C68,-141.3391 68,-169 68,-169 68,-169 157.2492,-169 157.2492,-169"/>
<polygon fill="#000000" stroke="#000000" points="157.2493,-172.5001 167.2492,-169 157.2492,-165.5001 157.2493,-172.5001"/>
</g>
</g>
</svg>
