<?xml version="1.0" encoding="UTF-8" standalone="no"?>
<!DOCTYPE svg PUBLIC "-//W3C//DTD SVG 1.1//EN"
 "http://www.w3.org/Graphics/SVG/1.1/DTD/svg11.dtd">
<!-- Generated by graphviz version 2.40.1 (20161225.0304)
 -->
<!-- Title: dependencies Pages: 1 -->
<svg width="544pt" height="284pt"
 viewBox="0.00 0.00 544.00 284.00" xmlns="http://www.w3.org/2000/svg" xmlns:xlink="http://www.w3.org/1999/xlink">
<g id="graph0" class="graph" transform="scale(1 1) rotate(0) translate(4 280)">
<title>dependencies</title>
<polygon fill="#ffffff" stroke="transparent" points="-4,4 -4,-280 540,-280 540,4 -4,4"/>
<text text-anchor="start" x="247.0091" y="-42.4" font-family="sans-serif" font-weight="bold" font-size="14.00" fill="#000000">Legend</text>
<polygon fill="#ffffb3" stroke="transparent" points="34,-10 34,-30 54,-30 54,-10 34,-10"/>
<text text-anchor="start" x="57.629" y="-15.4" font-family="sans-serif" font-size="14.00" fill="#000000"> &#160;Declarations</text>
<polygon fill="#8dd3c7" stroke="transparent" points="147,-10 147,-30 167,-30 167,-10 147,-10"/>
<text text-anchor="start" x="170.7251" y="-15.4" font-family="sans-serif" font-size="14.00" fill="#000000"> &#160;Module</text>
<polygon fill="#80b1d3" stroke="transparent" points="233,-10 233,-30 253,-30 253,-10 233,-10"/>
<text text-anchor="start" x="256.7812" y="-15.4" font-family="sans-serif" font-size="14.00" fill="#000000"> &#160;Bootstrap</text>
<polygon fill="#fdb462" stroke="transparent" points="330,-10 330,-30 350,-30 350,-10 330,-10"/>
<text text-anchor="start" x="353.6732" y="-15.4" font-family="sans-serif" font-size="14.00" fill="#000000"> &#160;Providers</text>
<polygon fill="#fb8072" stroke="transparent" points="426,-10 426,-30 446,-30 446,-10 426,-10"/>
<text text-anchor="start" x="449.7258" y="-15.4" font-family="sans-serif" font-size="14.00" fill="#000000"> &#160;Exports</text>
<g id="clust1" class="cluster">
<title>cluster_ConstraintSideMenuModule</title>
<polygon fill="none" stroke="#000000" stroke-dasharray="1,5" points="8,-70 8,-268 528,-268 528,-70 8,-70"/>
</g>
<g id="clust2" class="cluster">
<title>cluster_ConstraintSideMenuModule_declarations</title>
<polygon fill="none" stroke="#000000" points="346,-78 346,-130 520,-130 520,-78 346,-78"/>
</g>
<g id="clust4" class="cluster">
<title>cluster_ConstraintSideMenuModule_imports</title>
<polygon fill="none" stroke="#000000" points="16,-78 16,-130 338,-130 338,-78 16,-78"/>
</g>
<g id="clust5" class="cluster">
<title>cluster_ConstraintSideMenuModule_exports</title>
<polygon fill="none" stroke="#000000" points="137,-208 137,-260 315,-260 315,-208 137,-208"/>
</g>
<!-- CRSideMenuComponent -->
<g id="node1" class="node">
<title>CRSideMenuComponent</title>
<polygon fill="#ffffb3" stroke="#000000" points="511.5532,-122 354.4468,-122 354.4468,-86 511.5532,-86 511.5532,-122"/>
<text text-anchor="middle" x="433" y="-99.8" font-family="Times,serif" font-size="14.00" fill="#000000">CRSideMenuComponent</text>
</g>
<!-- ConstraintSideMenuModule -->
<g id="node2" class="node">
<title>ConstraintSideMenuModule</title>
<polygon fill="#8dd3c7" stroke="#000000" points="313.9255,-187 310.9255,-191 289.9255,-191 286.9255,-187 138.0745,-187 138.0745,-151 313.9255,-151 313.9255,-187"/>
<text text-anchor="middle" x="226" y="-164.8" font-family="Times,serif" font-size="14.00" fill="#000000">ConstraintSideMenuModule</text>
</g>
<!-- CRSideMenuComponent&#45;&gt;ConstraintSideMenuModule -->
<g id="edge1" class="edge">
<title>CRSideMenuComponent&#45;&gt;ConstraintSideMenuModule</title>
<path fill="none" stroke="#000000" d="M433,-122.1061C433,-141.3391 433,-169 433,-169 433,-169 323.7866,-169 323.7866,-169"/>
<polygon fill="#000000" stroke="#000000" points="323.7867,-165.5001 313.7866,-169 323.7866,-172.5001 323.7867,-165.5001"/>
</g>
<!-- CRSideMenuComponent  -->
<g id="node6" class="node">
<title>CRSideMenuComponent </title>
<polygon fill="#fb8072" stroke="#000000" points="306.5526,-252 145.4474,-252 145.4474,-216 306.5526,-216 306.5526,-252"/>
<text text-anchor="middle" x="226" y="-229.8" font-family="Times,serif" font-size="14.00" fill="#000000">CRSideMenuComponent </text>
</g>
<!-- ConstraintSideMenuModule&#45;&gt;CRSideMenuComponent  -->
<g id="edge5" class="edge">
<title>ConstraintSideMenuModule&#45;&gt;CRSideMenuComponent </title>
<path fill="none" stroke="#000000" stroke-dasharray="5,2" d="M226,-187.1061C226,-187.1061 226,-205.991 226,-205.991"/>
<polygon fill="#000000" stroke="#000000" points="222.5001,-205.9909 226,-215.991 229.5001,-205.991 222.5001,-205.9909"/>
</g>
<!-- ButtonModule -->
<g id="node3" class="node">
<title>ButtonModule</title>
<polygon fill="#8dd3c7" stroke="#000000" points="329.6682,-122 326.6682,-126 305.6682,-126 302.6682,-122 232.3318,-122 232.3318,-86 329.6682,-86 329.6682,-122"/>
<text text-anchor="middle" x="281" y="-99.8" font-family="Times,serif" font-size="14.00" fill="#000000">ButtonModule</text>
</g>
<!-- ButtonModule&#45;&gt;ConstraintSideMenuModule -->
<g id="edge2" class="edge">
<title>ButtonModule&#45;&gt;ConstraintSideMenuModule</title>
<path fill="none" stroke="#000000" d="M272.9394,-122.1061C272.9394,-122.1061 272.9394,-140.991 272.9394,-140.991"/>
<polygon fill="#000000" stroke="#000000" points="269.4394,-140.9909 272.9394,-150.991 276.4394,-140.991 269.4394,-140.9909"/>
</g>
<!-- IconModule -->
<g id="node4" class="node">
<title>IconModule</title>
<polygon fill="#8dd3c7" stroke="#000000" points="214.4261,-122 211.4261,-126 190.4261,-126 187.4261,-122 129.5739,-122 129.5739,-86 214.4261,-86 214.4261,-122"/>
<text text-anchor="middle" x="172" y="-99.8" font-family="Times,serif" font-size="14.00" fill="#000000">IconModule</text>
</g>
<!-- IconModule&#45;&gt;ConstraintSideMenuModule -->
<g id="edge3" class="edge">
<title>IconModule&#45;&gt;ConstraintSideMenuModule</title>
<path fill="none" stroke="#000000" d="M176.25,-122.1061C176.25,-122.1061 176.25,-140.991 176.25,-140.991"/>
<polygon fill="#000000" stroke="#000000" points="172.7501,-140.9909 176.25,-150.991 179.7501,-140.991 172.7501,-140.9909"/>
</g>
<!-- PriceModule -->
<g id="node5" class="node">
<title>PriceModule</title>
<polygon fill="#8dd3c7" stroke="#000000" points="112.3134,-122 109.3134,-126 88.3134,-126 85.3134,-122 23.6866,-122 23.6866,-86 112.3134,-86 112.3134,-122"/>
<text text-anchor="middle" x="68" y="-99.8" font-family="Times,serif" font-size="14.00" fill="#000000">PriceModule</text>
</g>
<!-- PriceModule&#45;&gt;ConstraintSideMenuModule -->
<g id="edge4" class="edge">
<title>PriceModule&#45;&gt;ConstraintSideMenuModule</title>
<path fill="none" stroke="#000000" d="M68,-122.1061C68,-141.3391 68,-169 68,-169 68,-169 128.2212,-169 128.2212,-169"/>
<polygon fill="#000000" stroke="#000000" points="128.2213,-172.5001 138.2212,-169 128.2212,-165.5001 128.2213,-172.5001"/>
</g>
</g>
</svg>
