<?xml version="1.0" encoding="UTF-8" standalone="no"?>
<!DOCTYPE svg PUBLIC "-//W3C//DTD SVG 1.1//EN"
 "http://www.w3.org/Graphics/SVG/1.1/DTD/svg11.dtd">
<!-- Generated by graphviz version 2.40.1 (20161225.0304)
 -->
<!-- Title: dependencies Pages: 1 -->
<svg width="504pt" height="284pt"
 viewBox="0.00 0.00 504.00 284.00" xmlns="http://www.w3.org/2000/svg" xmlns:xlink="http://www.w3.org/1999/xlink">
<g id="graph0" class="graph" transform="scale(1 1) rotate(0) translate(4 280)">
<title>dependencies</title>
<polygon fill="#ffffff" stroke="transparent" points="-4,4 -4,-280 500,-280 500,4 -4,4"/>
<text text-anchor="start" x="227.0091" y="-42.4" font-family="sans-serif" font-weight="bold" font-size="14.00" fill="#000000">Legend</text>
<polygon fill="#ffffb3" stroke="transparent" points="14,-10 14,-30 34,-30 34,-10 14,-10"/>
<text text-anchor="start" x="37.629" y="-15.4" font-family="sans-serif" font-size="14.00" fill="#000000"> &#160;Declarations</text>
<polygon fill="#8dd3c7" stroke="transparent" points="127,-10 127,-30 147,-30 147,-10 127,-10"/>
<text text-anchor="start" x="150.7251" y="-15.4" font-family="sans-serif" font-size="14.00" fill="#000000"> &#160;Module</text>
<polygon fill="#80b1d3" stroke="transparent" points="213,-10 213,-30 233,-30 233,-10 213,-10"/>
<text text-anchor="start" x="236.7812" y="-15.4" font-family="sans-serif" font-size="14.00" fill="#000000"> &#160;Bootstrap</text>
<polygon fill="#fdb462" stroke="transparent" points="310,-10 310,-30 330,-30 330,-10 310,-10"/>
<text text-anchor="start" x="333.6732" y="-15.4" font-family="sans-serif" font-size="14.00" fill="#000000"> &#160;Providers</text>
<polygon fill="#fb8072" stroke="transparent" points="406,-10 406,-30 426,-30 426,-10 406,-10"/>
<text text-anchor="start" x="429.7258" y="-15.4" font-family="sans-serif" font-size="14.00" fill="#000000"> &#160;Exports</text>
<g id="clust1" class="cluster">
<title>cluster_PriceSummaryModule</title>
<polygon fill="none" stroke="#000000" stroke-dasharray="1,5" points="16,-70 16,-268 480,-268 480,-70 16,-70"/>
</g>
<g id="clust2" class="cluster">
<title>cluster_PriceSummaryModule_declarations</title>
<polygon fill="none" stroke="#000000" points="292,-78 292,-130 472,-130 472,-78 292,-78"/>
</g>
<g id="clust4" class="cluster">
<title>cluster_PriceSummaryModule_imports</title>
<polygon fill="none" stroke="#000000" points="24,-78 24,-130 284,-130 284,-78 24,-78"/>
</g>
<g id="clust5" class="cluster">
<title>cluster_PriceSummaryModule_exports</title>
<polygon fill="none" stroke="#000000" points="140,-208 140,-260 324,-260 324,-208 140,-208"/>
</g>
<!-- PriceSummaryComponent -->
<g id="node1" class="node">
<title>PriceSummaryComponent</title>
<polygon fill="#ffffb3" stroke="#000000" points="464.0351,-122 299.9649,-122 299.9649,-86 464.0351,-86 464.0351,-122"/>
<text text-anchor="middle" x="382" y="-99.8" font-family="Times,serif" font-size="14.00" fill="#000000">PriceSummaryComponent</text>
</g>
<!-- PriceSummaryModule -->
<g id="node2" class="node">
<title>PriceSummaryModule</title>
<polygon fill="#8dd3c7" stroke="#000000" points="303.252,-187 300.252,-191 279.252,-191 276.252,-187 160.748,-187 160.748,-151 303.252,-151 303.252,-187"/>
<text text-anchor="middle" x="232" y="-164.8" font-family="Times,serif" font-size="14.00" fill="#000000">PriceSummaryModule</text>
</g>
<!-- PriceSummaryComponent&#45;&gt;PriceSummaryModule -->
<g id="edge1" class="edge">
<title>PriceSummaryComponent&#45;&gt;PriceSummaryModule</title>
<path fill="none" stroke="#000000" d="M309.6966,-122.1061C309.6966,-141.3391 309.6966,-169 309.6966,-169 309.6966,-169 309.0607,-169 309.0607,-169"/>
<polygon fill="#000000" stroke="#000000" points="313.3384,-165.5002 303.3383,-169 313.3383,-172.5002 313.3384,-165.5002"/>
</g>
<!-- PriceSummaryComponent  -->
<g id="node5" class="node">
<title>PriceSummaryComponent </title>
<polygon fill="#fb8072" stroke="#000000" points="316.0344,-252 147.9656,-252 147.9656,-216 316.0344,-216 316.0344,-252"/>
<text text-anchor="middle" x="232" y="-229.8" font-family="Times,serif" font-size="14.00" fill="#000000">PriceSummaryComponent </text>
</g>
<!-- PriceSummaryModule&#45;&gt;PriceSummaryComponent  -->
<g id="edge4" class="edge">
<title>PriceSummaryModule&#45;&gt;PriceSummaryComponent </title>
<path fill="none" stroke="#000000" stroke-dasharray="5,2" d="M232,-187.1061C232,-187.1061 232,-205.991 232,-205.991"/>
<polygon fill="#000000" stroke="#000000" points="228.5001,-205.9909 232,-215.991 235.5001,-205.991 228.5001,-205.9909"/>
</g>
<!-- PriceModule -->
<g id="node3" class="node">
<title>PriceModule</title>
<polygon fill="#8dd3c7" stroke="#000000" points="276.3134,-122 273.3134,-126 252.3134,-126 249.3134,-122 187.6866,-122 187.6866,-86 276.3134,-86 276.3134,-122"/>
<text text-anchor="middle" x="232" y="-99.8" font-family="Times,serif" font-size="14.00" fill="#000000">PriceModule</text>
</g>
<!-- PriceModule&#45;&gt;PriceSummaryModule -->
<g id="edge2" class="edge">
<title>PriceModule&#45;&gt;PriceSummaryModule</title>
<path fill="none" stroke="#000000" d="M232,-122.1061C232,-122.1061 232,-140.991 232,-140.991"/>
<polygon fill="#000000" stroke="#000000" points="228.5001,-140.9909 232,-150.991 235.5001,-140.991 228.5001,-140.9909"/>
</g>
<!-- TaxPopHoverModule -->
<g id="node4" class="node">
<title>TaxPopHoverModule</title>
<polygon fill="#8dd3c7" stroke="#000000" points="170.0814,-122 167.0814,-126 146.0814,-126 143.0814,-122 31.9186,-122 31.9186,-86 170.0814,-86 170.0814,-122"/>
<text text-anchor="middle" x="101" y="-99.8" font-family="Times,serif" font-size="14.00" fill="#000000">TaxPopHoverModule</text>
</g>
<!-- TaxPopHoverModule&#45;&gt;PriceSummaryModule -->
<g id="edge3" class="edge">
<title>TaxPopHoverModule&#45;&gt;PriceSummaryModule</title>
<path fill="none" stroke="#000000" d="M165.3324,-122.1061C165.3324,-122.1061 165.3324,-140.991 165.3324,-140.991"/>
<polygon fill="#000000" stroke="#000000" points="161.8325,-140.9909 165.3324,-150.991 168.8325,-140.991 161.8325,-140.9909"/>
</g>
</g>
</svg>
