<?xml version="1.0" encoding="UTF-8" standalone="no"?>
<!DOCTYPE svg PUBLIC "-//W3C//DTD SVG 1.1//EN"
 "http://www.w3.org/Graphics/SVG/1.1/DTD/svg11.dtd">
<!-- Generated by graphviz version 2.40.1 (20161225.0304)
 -->
<!-- Title: dependencies Pages: 1 -->
<svg width="1426pt" height="284pt"
 viewBox="0.00 0.00 1426.00 284.00" xmlns="http://www.w3.org/2000/svg" xmlns:xlink="http://www.w3.org/1999/xlink">
<g id="graph0" class="graph" transform="scale(1 1) rotate(0) translate(4 280)">
<title>dependencies</title>
<polygon fill="#ffffff" stroke="transparent" points="-4,4 -4,-280 1422,-280 1422,4 -4,4"/>
<text text-anchor="start" x="688.0091" y="-42.4" font-family="sans-serif" font-weight="bold" font-size="14.00" fill="#000000">Legend</text>
<polygon fill="#ffffb3" stroke="transparent" points="475,-10 475,-30 495,-30 495,-10 475,-10"/>
<text text-anchor="start" x="498.629" y="-15.4" font-family="sans-serif" font-size="14.00" fill="#000000"> &#160;Declarations</text>
<polygon fill="#8dd3c7" stroke="transparent" points="588,-10 588,-30 608,-30 608,-10 588,-10"/>
<text text-anchor="start" x="611.7251" y="-15.4" font-family="sans-serif" font-size="14.00" fill="#000000"> &#160;Module</text>
<polygon fill="#80b1d3" stroke="transparent" points="674,-10 674,-30 694,-30 694,-10 674,-10"/>
<text text-anchor="start" x="697.7812" y="-15.4" font-family="sans-serif" font-size="14.00" fill="#000000"> &#160;Bootstrap</text>
<polygon fill="#fdb462" stroke="transparent" points="771,-10 771,-30 791,-30 791,-10 771,-10"/>
<text text-anchor="start" x="794.6732" y="-15.4" font-family="sans-serif" font-size="14.00" fill="#000000"> &#160;Providers</text>
<polygon fill="#fb8072" stroke="transparent" points="867,-10 867,-30 887,-30 887,-10 867,-10"/>
<text text-anchor="start" x="890.7258" y="-15.4" font-family="sans-serif" font-size="14.00" fill="#000000"> &#160;Exports</text>
<g id="clust1" class="cluster">
<title>cluster_PricingModule</title>
<polygon fill="none" stroke="#000000" stroke-dasharray="1,5" points="8,-70 8,-268 1410,-268 1410,-70 8,-70"/>
</g>
<g id="clust2" class="cluster">
<title>cluster_PricingModule_declarations</title>
<polygon fill="none" stroke="#000000" points="37,-78 37,-130 1389,-130 1389,-78 37,-78"/>
</g>
<g id="clust14" class="cluster">
<title>cluster_PricingModule_exports</title>
<polygon fill="none" stroke="#000000" points="16,-208 16,-260 1402,-260 1402,-208 16,-208"/>
</g>
<!-- AttributeValuePricePipe -->
<g id="node1" class="node">
<title>AttributeValuePricePipe</title>
<polygon fill="#ffffb3" stroke="#000000" points="1380.6219,-122 1227.3781,-122 1227.3781,-86 1380.6219,-86 1380.6219,-122"/>
<text text-anchor="middle" x="1304" y="-99.8" font-family="Times,serif" font-size="14.00" fill="#000000">AttributeValuePricePipe</text>
</g>
<!-- PricingModule -->
<g id="node11" class="node">
<title>PricingModule</title>
<polygon fill="#8dd3c7" stroke="#000000" points="667.9888,-187 664.9888,-191 643.9888,-191 640.9888,-187 568.0112,-187 568.0112,-151 667.9888,-151 667.9888,-187"/>
<text text-anchor="middle" x="618" y="-164.8" font-family="Times,serif" font-size="14.00" fill="#000000">PricingModule</text>
</g>
<!-- AttributeValuePricePipe&#45;&gt;PricingModule -->
<g id="edge1" class="edge">
<title>AttributeValuePricePipe&#45;&gt;PricingModule</title>
<path fill="none" stroke="#000000" d="M1231.8143,-122.1686C1231.8143,-141.0898 1231.8143,-168 1231.8143,-168 1231.8143,-168 678.231,-168 678.231,-168"/>
<polygon fill="#000000" stroke="#000000" points="678.231,-164.5001 668.231,-168 678.231,-171.5001 678.231,-164.5001"/>
</g>
<!-- CartItemPricePipe -->
<g id="node2" class="node">
<title>CartItemPricePipe</title>
<polygon fill="#ffffb3" stroke="#000000" points="1208.9103,-122 1089.0897,-122 1089.0897,-86 1208.9103,-86 1208.9103,-122"/>
<text text-anchor="middle" x="1149" y="-99.8" font-family="Times,serif" font-size="14.00" fill="#000000">CartItemPricePipe</text>
</g>
<!-- CartItemPricePipe&#45;&gt;PricingModule -->
<g id="edge2" class="edge">
<title>CartItemPricePipe&#45;&gt;PricingModule</title>
<path fill="none" stroke="#000000" d="M1170.9849,-122.302C1170.9849,-140.2699 1170.9849,-165 1170.9849,-165 1170.9849,-165 678.049,-165 678.049,-165"/>
<polygon fill="#000000" stroke="#000000" points="678.0491,-161.5001 668.049,-165 678.049,-168.5001 678.0491,-161.5001"/>
</g>
<!-- CartPricePipe -->
<g id="node3" class="node">
<title>CartPricePipe</title>
<polygon fill="#ffffb3" stroke="#000000" points="1070.7535,-122 977.2465,-122 977.2465,-86 1070.7535,-86 1070.7535,-122"/>
<text text-anchor="middle" x="1024" y="-99.8" font-family="Times,serif" font-size="14.00" fill="#000000">CartPricePipe</text>
</g>
<!-- CartPricePipe&#45;&gt;PricingModule -->
<g id="edge3" class="edge">
<title>CartPricePipe&#45;&gt;PricingModule</title>
<path fill="none" stroke="#000000" d="M1040.7089,-122.0352C1040.7089,-138.7344 1040.7089,-161 1040.7089,-161 1040.7089,-161 678.1502,-161 678.1502,-161"/>
<polygon fill="#000000" stroke="#000000" points="678.1502,-157.5001 668.1502,-161 678.1502,-164.5001 678.1502,-157.5001"/>
</g>
<!-- FormatCurrencyPipe -->
<g id="node4" class="node">
<title>FormatCurrencyPipe</title>
<polygon fill="#ffffb3" stroke="#000000" points="958.9144,-122 825.0856,-122 825.0856,-86 958.9144,-86 958.9144,-122"/>
<text text-anchor="middle" x="892" y="-99.8" font-family="Times,serif" font-size="14.00" fill="#000000">FormatCurrencyPipe</text>
</g>
<!-- FormatCurrencyPipe&#45;&gt;PricingModule -->
<g id="edge4" class="edge">
<title>FormatCurrencyPipe&#45;&gt;PricingModule</title>
<path fill="none" stroke="#000000" d="M914.319,-122.2819C914.319,-137.9478 914.319,-158 914.319,-158 914.319,-158 678.2665,-158 678.2665,-158"/>
<polygon fill="#000000" stroke="#000000" points="678.2665,-154.5001 668.2665,-158 678.2664,-161.5001 678.2665,-154.5001"/>
</g>
<!-- LocalCurrencyPipe -->
<g id="node5" class="node">
<title>LocalCurrencyPipe</title>
<polygon fill="#ffffb3" stroke="#000000" points="807.3473,-122 682.6527,-122 682.6527,-86 807.3473,-86 807.3473,-122"/>
<text text-anchor="middle" x="745" y="-99.8" font-family="Times,serif" font-size="14.00" fill="#000000">LocalCurrencyPipe</text>
</g>
<!-- LocalCurrencyPipe&#45;&gt;PricingModule -->
<g id="edge5" class="edge">
<title>LocalCurrencyPipe&#45;&gt;PricingModule</title>
<path fill="none" stroke="#000000" d="M724.1088,-122.1243C724.1088,-136.7832 724.1088,-155 724.1088,-155 724.1088,-155 678.2578,-155 678.2578,-155"/>
<polygon fill="#000000" stroke="#000000" points="678.2578,-151.5001 668.2578,-155 678.2577,-158.5001 678.2578,-151.5001"/>
</g>
<!-- OptionPricePipe -->
<g id="node6" class="node">
<title>OptionPricePipe</title>
<polygon fill="#ffffb3" stroke="#000000" points="664.0396,-122 555.9604,-122 555.9604,-86 664.0396,-86 664.0396,-122"/>
<text text-anchor="middle" x="610" y="-99.8" font-family="Times,serif" font-size="14.00" fill="#000000">OptionPricePipe</text>
</g>
<!-- OptionPricePipe&#45;&gt;PricingModule -->
<g id="edge6" class="edge">
<title>OptionPricePipe&#45;&gt;PricingModule</title>
<path fill="none" stroke="#000000" d="M616.1375,-122.1061C616.1375,-122.1061 616.1375,-140.991 616.1375,-140.991"/>
<polygon fill="#000000" stroke="#000000" points="612.6375,-140.9909 616.1375,-150.991 619.6375,-140.991 612.6375,-140.9909"/>
</g>
<!-- OrderPricePipe -->
<g id="node7" class="node">
<title>OrderPricePipe</title>
<polygon fill="#ffffb3" stroke="#000000" points="538.2936,-122 435.7064,-122 435.7064,-86 538.2936,-86 538.2936,-122"/>
<text text-anchor="middle" x="487" y="-99.8" font-family="Times,serif" font-size="14.00" fill="#000000">OrderPricePipe</text>
</g>
<!-- OrderPricePipe&#45;&gt;PricingModule -->
<g id="edge7" class="edge">
<title>OrderPricePipe&#45;&gt;PricingModule</title>
<path fill="none" stroke="#000000" d="M534.5216,-122.1243C534.5216,-136.7832 534.5216,-155 534.5216,-155 534.5216,-155 557.9945,-155 557.9945,-155"/>
<polygon fill="#000000" stroke="#000000" points="557.9945,-158.5001 567.9945,-155 557.9944,-151.5001 557.9945,-158.5001"/>
</g>
<!-- PriceComponent -->
<g id="node8" class="node">
<title>PriceComponent</title>
<polygon fill="#ffffb3" stroke="#000000" points="418.0954,-122 307.9046,-122 307.9046,-86 418.0954,-86 418.0954,-122"/>
<text text-anchor="middle" x="363" y="-99.8" font-family="Times,serif" font-size="14.00" fill="#000000">PriceComponent</text>
</g>
<!-- PriceComponent&#45;&gt;PricingModule -->
<g id="edge8" class="edge">
<title>PriceComponent&#45;&gt;PricingModule</title>
<path fill="none" stroke="#000000" d="M412.4227,-122.0091C412.4227,-138.0494 412.4227,-159 412.4227,-159 412.4227,-159 557.973,-159 557.973,-159"/>
<polygon fill="#000000" stroke="#000000" points="557.973,-162.5001 567.973,-159 557.973,-155.5001 557.973,-162.5001"/>
</g>
<!-- PriceMatrixFilter -->
<g id="node9" class="node">
<title>PriceMatrixFilter</title>
<polygon fill="#ffffb3" stroke="#000000" points="289.6938,-122 176.3062,-122 176.3062,-86 289.6938,-86 289.6938,-122"/>
<text text-anchor="middle" x="233" y="-99.8" font-family="Times,serif" font-size="14.00" fill="#000000">PriceMatrixFilter</text>
</g>
<!-- PriceMatrixFilter&#45;&gt;PricingModule -->
<g id="edge9" class="edge">
<title>PriceMatrixFilter&#45;&gt;PricingModule</title>
<path fill="none" stroke="#000000" d="M282.4718,-122.0225C282.4718,-139.3734 282.4718,-163 282.4718,-163 282.4718,-163 557.768,-163 557.768,-163"/>
<polygon fill="#000000" stroke="#000000" points="557.7681,-166.5001 567.768,-163 557.768,-159.5001 557.7681,-166.5001"/>
</g>
<!-- ProductPricePipe -->
<g id="node10" class="node">
<title>ProductPricePipe</title>
<polygon fill="#ffffb3" stroke="#000000" points="158.6994,-122 45.3006,-122 45.3006,-86 158.6994,-86 158.6994,-122"/>
<text text-anchor="middle" x="102" y="-99.8" font-family="Times,serif" font-size="14.00" fill="#000000">ProductPricePipe</text>
</g>
<!-- ProductPricePipe&#45;&gt;PricingModule -->
<g id="edge10" class="edge">
<title>ProductPricePipe&#45;&gt;PricingModule</title>
<path fill="none" stroke="#000000" d="M149.4746,-122.2222C149.4746,-140.8285 149.4746,-167 149.4746,-167 149.4746,-167 557.8596,-167 557.8596,-167"/>
<polygon fill="#000000" stroke="#000000" points="557.8596,-170.5001 567.8596,-167 557.8595,-163.5001 557.8596,-170.5001"/>
</g>
<!-- AttributeValuePricePipe  -->
<g id="node12" class="node">
<title>AttributeValuePricePipe </title>
<polygon fill="#fb8072" stroke="#000000" points="1393.6214,-252 1236.3786,-252 1236.3786,-216 1393.6214,-216 1393.6214,-252"/>
<text text-anchor="middle" x="1315" y="-229.8" font-family="Times,serif" font-size="14.00" fill="#000000">AttributeValuePricePipe </text>
</g>
<!-- PricingModule&#45;&gt;AttributeValuePricePipe  -->
<g id="edge11" class="edge">
<title>PricingModule&#45;&gt;AttributeValuePricePipe </title>
<path fill="none" stroke="#000000" stroke-dasharray="5,2" d="M668.2244,-171C827.149,-171 1308.625,-171 1308.625,-171 1308.625,-171 1308.625,-205.7778 1308.625,-205.7778"/>
<polygon fill="#000000" stroke="#000000" points="1305.1251,-205.7778 1308.625,-215.7778 1312.1251,-205.7778 1305.1251,-205.7778"/>
</g>
<!-- CartItemPricePipe  -->
<g id="node13" class="node">
<title>CartItemPricePipe </title>
<polygon fill="#fb8072" stroke="#000000" points="1218.4096,-252 1095.5904,-252 1095.5904,-216 1218.4096,-216 1218.4096,-252"/>
<text text-anchor="middle" x="1157" y="-229.8" font-family="Times,serif" font-size="14.00" fill="#000000">CartItemPricePipe </text>
</g>
<!-- PricingModule&#45;&gt;CartItemPricePipe  -->
<g id="edge12" class="edge">
<title>PricingModule&#45;&gt;CartItemPricePipe </title>
<path fill="none" stroke="#000000" stroke-dasharray="5,2" d="M668.344,-174C797.998,-174 1133.2651,-174 1133.2651,-174 1133.2651,-174 1133.2651,-205.998 1133.2651,-205.998"/>
<polygon fill="#000000" stroke="#000000" points="1129.7652,-205.998 1133.2651,-215.998 1136.7652,-205.9981 1129.7652,-205.998"/>
</g>
<!-- CartPricePipe  -->
<g id="node14" class="node">
<title>CartPricePipe </title>
<polygon fill="#fb8072" stroke="#000000" points="1077.7535,-252 980.2465,-252 980.2465,-216 1077.7535,-216 1077.7535,-252"/>
<text text-anchor="middle" x="1029" y="-229.8" font-family="Times,serif" font-size="14.00" fill="#000000">CartPricePipe </text>
</g>
<!-- PricingModule&#45;&gt;CartPricePipe  -->
<g id="edge13" class="edge">
<title>PricingModule&#45;&gt;CartPricePipe </title>
<path fill="none" stroke="#000000" stroke-dasharray="5,2" d="M668.1143,-178C773.9385,-178 1010.5411,-178 1010.5411,-178 1010.5411,-178 1010.5411,-205.973 1010.5411,-205.973"/>
<polygon fill="#000000" stroke="#000000" points="1007.0412,-205.973 1010.5411,-215.973 1014.0412,-205.973 1007.0412,-205.973"/>
</g>
<!-- FormatCurrencyPipe  -->
<g id="node15" class="node">
<title>FormatCurrencyPipe </title>
<polygon fill="#fb8072" stroke="#000000" points="962.4138,-252 825.5862,-252 825.5862,-216 962.4138,-216 962.4138,-252"/>
<text text-anchor="middle" x="894" y="-229.8" font-family="Times,serif" font-size="14.00" fill="#000000">FormatCurrencyPipe </text>
</g>
<!-- PricingModule&#45;&gt;FormatCurrencyPipe  -->
<g id="edge14" class="edge">
<title>PricingModule&#45;&gt;FormatCurrencyPipe </title>
<path fill="none" stroke="#000000" stroke-dasharray="5,2" d="M668.0747,-181C741.5454,-181 869.931,-181 869.931,-181 869.931,-181 869.931,-205.7604 869.931,-205.7604"/>
<polygon fill="#000000" stroke="#000000" points="866.4311,-205.7604 869.931,-215.7604 873.4311,-205.7604 866.4311,-205.7604"/>
</g>
<!-- LocalCurrencyPipe  -->
<g id="node16" class="node">
<title>LocalCurrencyPipe </title>
<polygon fill="#fb8072" stroke="#000000" points="807.3477,-252 678.6523,-252 678.6523,-216 807.3477,-216 807.3477,-252"/>
<text text-anchor="middle" x="743" y="-229.8" font-family="Times,serif" font-size="14.00" fill="#000000">LocalCurrencyPipe </text>
</g>
<!-- PricingModule&#45;&gt;LocalCurrencyPipe  -->
<g id="edge15" class="edge">
<title>PricingModule&#45;&gt;LocalCurrencyPipe </title>
<path fill="none" stroke="#000000" stroke-dasharray="5,2" d="M668.3968,-184C711.1673,-184 765.6412,-184 765.6412,-184 765.6412,-184 765.6412,-205.9489 765.6412,-205.9489"/>
<polygon fill="#000000" stroke="#000000" points="762.1413,-205.9488 765.6412,-215.9489 769.1413,-205.9489 762.1413,-205.9488"/>
</g>
<!-- OptionPricePipe  -->
<g id="node17" class="node">
<title>OptionPricePipe </title>
<polygon fill="#fb8072" stroke="#000000" points="661.0386,-252 548.9614,-252 548.9614,-216 661.0386,-216 661.0386,-252"/>
<text text-anchor="middle" x="605" y="-229.8" font-family="Times,serif" font-size="14.00" fill="#000000">OptionPricePipe </text>
</g>
<!-- PricingModule&#45;&gt;OptionPricePipe  -->
<g id="edge16" class="edge">
<title>PricingModule&#45;&gt;OptionPricePipe </title>
<path fill="none" stroke="#000000" stroke-dasharray="5,2" d="M614.5125,-187.1061C614.5125,-187.1061 614.5125,-205.991 614.5125,-205.991"/>
<polygon fill="#000000" stroke="#000000" points="611.0125,-205.9909 614.5125,-215.991 618.0125,-205.991 611.0125,-205.9909"/>
</g>
<!-- OrderPricePipe  -->
<g id="node18" class="node">
<title>OrderPricePipe </title>
<polygon fill="#fb8072" stroke="#000000" points="530.7934,-252 425.2066,-252 425.2066,-216 530.7934,-216 530.7934,-252"/>
<text text-anchor="middle" x="478" y="-229.8" font-family="Times,serif" font-size="14.00" fill="#000000">OrderPricePipe </text>
</g>
<!-- PricingModule&#45;&gt;OrderPricePipe  -->
<g id="edge17" class="edge">
<title>PricingModule&#45;&gt;OrderPricePipe </title>
<path fill="none" stroke="#000000" stroke-dasharray="5,2" d="M567.8706,-183C529.5948,-183 483.375,-183 483.375,-183 483.375,-183 483.375,-205.8757 483.375,-205.8757"/>
<polygon fill="#000000" stroke="#000000" points="479.8751,-205.8757 483.375,-215.8757 486.8751,-205.8757 479.8751,-205.8757"/>
</g>
<!-- PriceComponent  -->
<g id="node19" class="node">
<title>PriceComponent </title>
<polygon fill="#fb8072" stroke="#000000" points="406.5961,-252 293.4039,-252 293.4039,-216 406.5961,-216 406.5961,-252"/>
<text text-anchor="middle" x="350" y="-229.8" font-family="Times,serif" font-size="14.00" fill="#000000">PriceComponent </text>
</g>
<!-- PricingModule&#45;&gt;PriceComponent  -->
<g id="edge18" class="edge">
<title>PricingModule&#45;&gt;PriceComponent </title>
<path fill="none" stroke="#000000" stroke-dasharray="5,2" d="M567.7489,-179C492.0143,-179 357.375,-179 357.375,-179 357.375,-179 357.375,-205.9909 357.375,-205.9909"/>
<polygon fill="#000000" stroke="#000000" points="353.8751,-205.9909 357.375,-215.9909 360.8751,-205.991 353.8751,-205.9909"/>
</g>
<!-- PriceMatrixFilter  -->
<g id="node20" class="node">
<title>PriceMatrixFilter </title>
<polygon fill="#fb8072" stroke="#000000" points="275.194,-252 158.806,-252 158.806,-216 275.194,-216 275.194,-252"/>
<text text-anchor="middle" x="217" y="-229.8" font-family="Times,serif" font-size="14.00" fill="#000000">PriceMatrixFilter </text>
</g>
<!-- PricingModule&#45;&gt;PriceMatrixFilter  -->
<g id="edge19" class="edge">
<title>PricingModule&#45;&gt;PriceMatrixFilter </title>
<path fill="none" stroke="#000000" stroke-dasharray="5,2" d="M567.9388,-175C462.2268,-175 225.875,-175 225.875,-175 225.875,-175 225.875,-205.9775 225.875,-205.9775"/>
<polygon fill="#000000" stroke="#000000" points="222.3751,-205.9774 225.875,-215.9775 229.3751,-205.9775 222.3751,-205.9774"/>
</g>
<!-- ProductPricePipe  -->
<g id="node21" class="node">
<title>ProductPricePipe </title>
<polygon fill="#fb8072" stroke="#000000" points="140.1996,-252 23.8004,-252 23.8004,-216 140.1996,-216 140.1996,-252"/>
<text text-anchor="middle" x="82" y="-229.8" font-family="Times,serif" font-size="14.00" fill="#000000">ProductPricePipe </text>
</g>
<!-- PricingModule&#45;&gt;ProductPricePipe  -->
<g id="edge20" class="edge">
<title>PricingModule&#45;&gt;ProductPricePipe </title>
<path fill="none" stroke="#000000" stroke-dasharray="5,2" d="M567.6488,-171C436.2143,-171 92.875,-171 92.875,-171 92.875,-171 92.875,-205.7778 92.875,-205.7778"/>
<polygon fill="#000000" stroke="#000000" points="89.3751,-205.7778 92.875,-215.7778 96.3751,-205.7778 89.3751,-205.7778"/>
</g>
</g>
</svg>
