<?xml version="1.0" encoding="UTF-8" standalone="no"?>
<!DOCTYPE svg PUBLIC "-//W3C//DTD SVG 1.1//EN"
 "http://www.w3.org/Graphics/SVG/1.1/DTD/svg11.dtd">
<!-- Generated by graphviz version 2.40.1 (20161225.0304)
 -->
<!-- Title: dependencies Pages: 1 -->
<svg width="1172pt" height="284pt"
 viewBox="0.00 0.00 1172.00 284.00" xmlns="http://www.w3.org/2000/svg" xmlns:xlink="http://www.w3.org/1999/xlink">
<g id="graph0" class="graph" transform="scale(1 1) rotate(0) translate(4 280)">
<title>dependencies</title>
<polygon fill="#ffffff" stroke="transparent" points="-4,4 -4,-280 1168,-280 1168,4 -4,4"/>
<text text-anchor="start" x="561.0091" y="-42.4" font-family="sans-serif" font-weight="bold" font-size="14.00" fill="#000000">Legend</text>
<polygon fill="#ffffb3" stroke="transparent" points="348,-10 348,-30 368,-30 368,-10 348,-10"/>
<text text-anchor="start" x="371.629" y="-15.4" font-family="sans-serif" font-size="14.00" fill="#000000"> &#160;Declarations</text>
<polygon fill="#8dd3c7" stroke="transparent" points="461,-10 461,-30 481,-30 481,-10 461,-10"/>
<text text-anchor="start" x="484.7251" y="-15.4" font-family="sans-serif" font-size="14.00" fill="#000000"> &#160;Module</text>
<polygon fill="#80b1d3" stroke="transparent" points="547,-10 547,-30 567,-30 567,-10 547,-10"/>
<text text-anchor="start" x="570.7812" y="-15.4" font-family="sans-serif" font-size="14.00" fill="#000000"> &#160;Bootstrap</text>
<polygon fill="#fdb462" stroke="transparent" points="644,-10 644,-30 664,-30 664,-10 644,-10"/>
<text text-anchor="start" x="667.6732" y="-15.4" font-family="sans-serif" font-size="14.00" fill="#000000"> &#160;Providers</text>
<polygon fill="#fb8072" stroke="transparent" points="740,-10 740,-30 760,-30 760,-10 740,-10"/>
<text text-anchor="start" x="763.7258" y="-15.4" font-family="sans-serif" font-size="14.00" fill="#000000"> &#160;Exports</text>
<g id="clust1" class="cluster">
<title>cluster_PricingModule</title>
<polygon fill="none" stroke="#000000" stroke-dasharray="1,5" points="8,-70 8,-268 1156,-268 1156,-70 8,-70"/>
</g>
<g id="clust2" class="cluster">
<title>cluster_PricingModule_declarations</title>
<polygon fill="none" stroke="#000000" points="32,-78 32,-130 1137,-130 1137,-78 32,-78"/>
</g>
<g id="clust12" class="cluster">
<title>cluster_PricingModule_exports</title>
<polygon fill="none" stroke="#000000" points="16,-208 16,-260 1148,-260 1148,-208 16,-208"/>
</g>
<!-- AttributeValuePricePipe -->
<g id="node1" class="node">
<title>AttributeValuePricePipe</title>
<polygon fill="#ffffb3" stroke="#000000" points="1128.6219,-122 975.3781,-122 975.3781,-86 1128.6219,-86 1128.6219,-122"/>
<text text-anchor="middle" x="1052" y="-99.8" font-family="Times,serif" font-size="14.00" fill="#000000">AttributeValuePricePipe</text>
</g>
<!-- PricingModule -->
<g id="node9" class="node">
<title>PricingModule</title>
<polygon fill="#8dd3c7" stroke="#000000" points="548.9888,-187 545.9888,-191 524.9888,-191 521.9888,-187 449.0112,-187 449.0112,-151 548.9888,-151 548.9888,-187"/>
<text text-anchor="middle" x="499" y="-164.8" font-family="Times,serif" font-size="14.00" fill="#000000">PricingModule</text>
</g>
<!-- AttributeValuePricePipe&#45;&gt;PricingModule -->
<g id="edge1" class="edge">
<title>AttributeValuePricePipe&#45;&gt;PricingModule</title>
<path fill="none" stroke="#000000" d="M978.8143,-122.2222C978.8143,-140.8285 978.8143,-167 978.8143,-167 978.8143,-167 558.9907,-167 558.9907,-167"/>
<polygon fill="#000000" stroke="#000000" points="558.9907,-163.5001 548.9907,-167 558.9907,-170.5001 558.9907,-163.5001"/>
</g>
<!-- CartItemPricePipe -->
<g id="node2" class="node">
<title>CartItemPricePipe</title>
<polygon fill="#ffffb3" stroke="#000000" points="956.9103,-122 837.0897,-122 837.0897,-86 956.9103,-86 956.9103,-122"/>
<text text-anchor="middle" x="897" y="-99.8" font-family="Times,serif" font-size="14.00" fill="#000000">CartItemPricePipe</text>
</g>
<!-- CartItemPricePipe&#45;&gt;PricingModule -->
<g id="edge2" class="edge">
<title>CartItemPricePipe&#45;&gt;PricingModule</title>
<path fill="none" stroke="#000000" d="M918.3183,-122.0225C918.3183,-139.3734 918.3183,-163 918.3183,-163 918.3183,-163 559.1631,-163 559.1631,-163"/>
<polygon fill="#000000" stroke="#000000" points="559.1631,-159.5001 549.1631,-163 559.163,-166.5001 559.1631,-159.5001"/>
</g>
<!-- CartPricePipe -->
<g id="node3" class="node">
<title>CartPricePipe</title>
<polygon fill="#ffffb3" stroke="#000000" points="818.7535,-122 725.2465,-122 725.2465,-86 818.7535,-86 818.7535,-122"/>
<text text-anchor="middle" x="772" y="-99.8" font-family="Times,serif" font-size="14.00" fill="#000000">CartPricePipe</text>
</g>
<!-- CartPricePipe&#45;&gt;PricingModule -->
<g id="edge3" class="edge">
<title>CartPricePipe&#45;&gt;PricingModule</title>
<path fill="none" stroke="#000000" d="M788.0422,-122.0091C788.0422,-138.0494 788.0422,-159 788.0422,-159 788.0422,-159 559.0173,-159 559.0173,-159"/>
<polygon fill="#000000" stroke="#000000" points="559.0174,-155.5001 549.0173,-159 559.0173,-162.5001 559.0174,-155.5001"/>
</g>
<!-- FormatCurrencyPipe -->
<g id="node4" class="node">
<title>FormatCurrencyPipe</title>
<polygon fill="#ffffb3" stroke="#000000" points="706.9144,-122 573.0856,-122 573.0856,-86 706.9144,-86 706.9144,-122"/>
<text text-anchor="middle" x="640" y="-99.8" font-family="Times,serif" font-size="14.00" fill="#000000">FormatCurrencyPipe</text>
</g>
<!-- FormatCurrencyPipe&#45;&gt;PricingModule -->
<g id="edge4" class="edge">
<title>FormatCurrencyPipe&#45;&gt;PricingModule</title>
<path fill="none" stroke="#000000" d="M617.7644,-122.1243C617.7644,-136.7832 617.7644,-155 617.7644,-155 617.7644,-155 559.0226,-155 559.0226,-155"/>
<polygon fill="#000000" stroke="#000000" points="559.0226,-151.5001 549.0226,-155 559.0225,-158.5001 559.0226,-151.5001"/>
</g>
<!-- LocalCurrencyPipe -->
<g id="node5" class="node">
<title>LocalCurrencyPipe</title>
<polygon fill="#ffffb3" stroke="#000000" points="555.3473,-122 430.6527,-122 430.6527,-86 555.3473,-86 555.3473,-122"/>
<text text-anchor="middle" x="493" y="-99.8" font-family="Times,serif" font-size="14.00" fill="#000000">LocalCurrencyPipe</text>
</g>
<!-- LocalCurrencyPipe&#45;&gt;PricingModule -->
<g id="edge5" class="edge">
<title>LocalCurrencyPipe&#45;&gt;PricingModule</title>
<path fill="none" stroke="#000000" d="M499,-122.1061C499,-122.1061 499,-140.991 499,-140.991"/>
<polygon fill="#000000" stroke="#000000" points="495.5001,-140.9909 499,-150.991 502.5001,-140.991 495.5001,-140.9909"/>
</g>
<!-- PriceComponent -->
<g id="node6" class="node">
<title>PriceComponent</title>
<polygon fill="#ffffb3" stroke="#000000" points="413.0954,-122 302.9046,-122 302.9046,-86 413.0954,-86 413.0954,-122"/>
<text text-anchor="middle" x="358" y="-99.8" font-family="Times,serif" font-size="14.00" fill="#000000">PriceComponent</text>
</g>
<!-- PriceComponent&#45;&gt;PricingModule -->
<g id="edge6" class="edge">
<title>PriceComponent&#45;&gt;PricingModule</title>
<path fill="none" stroke="#000000" d="M372.1826,-122.2396C372.1826,-137.5706 372.1826,-157 372.1826,-157 372.1826,-157 438.8784,-157 438.8784,-157"/>
<polygon fill="#000000" stroke="#000000" points="438.8784,-160.5001 448.8784,-157 438.8784,-153.5001 438.8784,-160.5001"/>
</g>
<!-- PriceMatrixFilter -->
<g id="node7" class="node">
<title>PriceMatrixFilter</title>
<polygon fill="#ffffb3" stroke="#000000" points="284.6938,-122 171.3062,-122 171.3062,-86 284.6938,-86 284.6938,-122"/>
<text text-anchor="middle" x="228" y="-99.8" font-family="Times,serif" font-size="14.00" fill="#000000">PriceMatrixFilter</text>
</g>
<!-- PriceMatrixFilter&#45;&gt;PricingModule -->
<g id="edge7" class="edge">
<title>PriceMatrixFilter&#45;&gt;PricingModule</title>
<path fill="none" stroke="#000000" d="M279.9718,-122.0336C279.9718,-139.0597 279.9718,-162 279.9718,-162 279.9718,-162 438.7505,-162 438.7505,-162"/>
<polygon fill="#000000" stroke="#000000" points="438.7505,-165.5001 448.7505,-162 438.7505,-158.5001 438.7505,-165.5001"/>
</g>
<!-- ProductPricePipe -->
<g id="node8" class="node">
<title>ProductPricePipe</title>
<polygon fill="#ffffb3" stroke="#000000" points="153.6994,-122 40.3006,-122 40.3006,-86 153.6994,-86 153.6994,-122"/>
<text text-anchor="middle" x="97" y="-99.8" font-family="Times,serif" font-size="14.00" fill="#000000">ProductPricePipe</text>
</g>
<!-- ProductPricePipe&#45;&gt;PricingModule -->
<g id="edge8" class="edge">
<title>ProductPricePipe&#45;&gt;PricingModule</title>
<path fill="none" stroke="#000000" d="M146.9746,-122.2222C146.9746,-140.8285 146.9746,-167 146.9746,-167 146.9746,-167 438.9372,-167 438.9372,-167"/>
<polygon fill="#000000" stroke="#000000" points="438.9372,-170.5001 448.9372,-167 438.9372,-163.5001 438.9372,-170.5001"/>
</g>
<!-- AttributeValuePricePipe  -->
<g id="node10" class="node">
<title>AttributeValuePricePipe </title>
<polygon fill="#fb8072" stroke="#000000" points="1139.6214,-252 982.3786,-252 982.3786,-216 1139.6214,-216 1139.6214,-252"/>
<text text-anchor="middle" x="1061" y="-229.8" font-family="Times,serif" font-size="14.00" fill="#000000">AttributeValuePricePipe </text>
</g>
<!-- PricingModule&#45;&gt;AttributeValuePricePipe  -->
<g id="edge9" class="edge">
<title>PricingModule&#45;&gt;AttributeValuePricePipe </title>
<path fill="none" stroke="#000000" stroke-dasharray="5,2" d="M549.3785,-171C686.3968,-171 1055.625,-171 1055.625,-171 1055.625,-171 1055.625,-205.7778 1055.625,-205.7778"/>
<polygon fill="#000000" stroke="#000000" points="1052.1251,-205.7778 1055.625,-215.7778 1059.1251,-205.7778 1052.1251,-205.7778"/>
</g>
<!-- CartItemPricePipe  -->
<g id="node11" class="node">
<title>CartItemPricePipe </title>
<polygon fill="#fb8072" stroke="#000000" points="964.4096,-252 841.5904,-252 841.5904,-216 964.4096,-216 964.4096,-252"/>
<text text-anchor="middle" x="903" y="-229.8" font-family="Times,serif" font-size="14.00" fill="#000000">CartItemPricePipe </text>
</g>
<!-- PricingModule&#45;&gt;CartItemPricePipe  -->
<g id="edge10" class="edge">
<title>PricingModule&#45;&gt;CartItemPricePipe </title>
<path fill="none" stroke="#000000" stroke-dasharray="5,2" d="M549.1919,-175C652.6313,-175 879.9317,-175 879.9317,-175 879.9317,-175 879.9317,-205.9775 879.9317,-205.9775"/>
<polygon fill="#000000" stroke="#000000" points="876.4318,-205.9774 879.9317,-215.9775 883.4318,-205.9775 876.4318,-205.9774"/>
</g>
<!-- CartPricePipe  -->
<g id="node12" class="node">
<title>CartPricePipe </title>
<polygon fill="#fb8072" stroke="#000000" points="823.7535,-252 726.2465,-252 726.2465,-216 823.7535,-216 823.7535,-252"/>
<text text-anchor="middle" x="775" y="-229.8" font-family="Times,serif" font-size="14.00" fill="#000000">CartPricePipe </text>
</g>
<!-- PricingModule&#45;&gt;CartPricePipe  -->
<g id="edge11" class="edge">
<title>PricingModule&#45;&gt;CartPricePipe </title>
<path fill="none" stroke="#000000" stroke-dasharray="5,2" d="M549.0912,-179C624.1795,-179 757.2078,-179 757.2078,-179 757.2078,-179 757.2078,-205.9909 757.2078,-205.9909"/>
<polygon fill="#000000" stroke="#000000" points="753.7079,-205.9909 757.2078,-215.9909 760.7079,-205.991 753.7079,-205.9909"/>
</g>
<!-- FormatCurrencyPipe  -->
<g id="node13" class="node">
<title>FormatCurrencyPipe </title>
<polygon fill="#fb8072" stroke="#000000" points="708.4138,-252 571.5862,-252 571.5862,-216 708.4138,-216 708.4138,-252"/>
<text text-anchor="middle" x="640" y="-229.8" font-family="Times,serif" font-size="14.00" fill="#000000">FormatCurrencyPipe </text>
</g>
<!-- PricingModule&#45;&gt;FormatCurrencyPipe  -->
<g id="edge12" class="edge">
<title>PricingModule&#45;&gt;FormatCurrencyPipe </title>
<path fill="none" stroke="#000000" stroke-dasharray="5,2" d="M549.308,-183C597.2705,-183 662.2356,-183 662.2356,-183 662.2356,-183 662.2356,-205.8757 662.2356,-205.8757"/>
<polygon fill="#000000" stroke="#000000" points="658.7357,-205.8757 662.2356,-215.8757 665.7357,-205.8757 658.7357,-205.8757"/>
</g>
<!-- LocalCurrencyPipe  -->
<g id="node14" class="node">
<title>LocalCurrencyPipe </title>
<polygon fill="#fb8072" stroke="#000000" points="553.3477,-252 424.6523,-252 424.6523,-216 553.3477,-216 553.3477,-252"/>
<text text-anchor="middle" x="489" y="-229.8" font-family="Times,serif" font-size="14.00" fill="#000000">LocalCurrencyPipe </text>
</g>
<!-- PricingModule&#45;&gt;LocalCurrencyPipe  -->
<g id="edge13" class="edge">
<title>PricingModule&#45;&gt;LocalCurrencyPipe </title>
<path fill="none" stroke="#000000" stroke-dasharray="5,2" d="M499,-187.1061C499,-187.1061 499,-205.991 499,-205.991"/>
<polygon fill="#000000" stroke="#000000" points="495.5001,-205.9909 499,-215.991 502.5001,-205.991 495.5001,-205.9909"/>
</g>
<!-- PriceComponent  -->
<g id="node15" class="node">
<title>PriceComponent </title>
<polygon fill="#fb8072" stroke="#000000" points="406.5961,-252 293.4039,-252 293.4039,-216 406.5961,-216 406.5961,-252"/>
<text text-anchor="middle" x="350" y="-229.8" font-family="Times,serif" font-size="14.00" fill="#000000">PriceComponent </text>
</g>
<!-- PricingModule&#45;&gt;PriceComponent  -->
<g id="edge14" class="edge">
<title>PricingModule&#45;&gt;PriceComponent </title>
<path fill="none" stroke="#000000" stroke-dasharray="5,2" d="M448.8066,-182C401.4177,-182 337.5674,-182 337.5674,-182 337.5674,-182 337.5674,-205.8129 337.5674,-205.8129"/>
<polygon fill="#000000" stroke="#000000" points="334.0675,-205.8129 337.5674,-215.8129 341.0675,-205.813 334.0675,-205.8129"/>
</g>
<!-- PriceMatrixFilter  -->
<g id="node16" class="node">
<title>PriceMatrixFilter </title>
<polygon fill="#fb8072" stroke="#000000" points="275.194,-252 158.806,-252 158.806,-216 275.194,-216 275.194,-252"/>
<text text-anchor="middle" x="217" y="-229.8" font-family="Times,serif" font-size="14.00" fill="#000000">PriceMatrixFilter </text>
</g>
<!-- PricingModule&#45;&gt;PriceMatrixFilter  -->
<g id="edge15" class="edge">
<title>PricingModule&#45;&gt;PriceMatrixFilter </title>
<path fill="none" stroke="#000000" stroke-dasharray="5,2" d="M448.7666,-177C369.2669,-177 223.375,-177 223.375,-177 223.375,-177 223.375,-205.9648 223.375,-205.9648"/>
<polygon fill="#000000" stroke="#000000" points="219.8751,-205.9648 223.375,-215.9648 226.8751,-205.9649 219.8751,-205.9648"/>
</g>
<!-- ProductPricePipe  -->
<g id="node17" class="node">
<title>ProductPricePipe </title>
<polygon fill="#fb8072" stroke="#000000" points="140.1996,-252 23.8004,-252 23.8004,-216 140.1996,-216 140.1996,-252"/>
<text text-anchor="middle" x="82" y="-229.8" font-family="Times,serif" font-size="14.00" fill="#000000">ProductPricePipe </text>
</g>
<!-- PricingModule&#45;&gt;ProductPricePipe  -->
<g id="edge16" class="edge">
<title>PricingModule&#45;&gt;ProductPricePipe </title>
<path fill="none" stroke="#000000" stroke-dasharray="5,2" d="M448.8946,-172C339.7799,-172 90.375,-172 90.375,-172 90.375,-172 90.375,-205.7333 90.375,-205.7333"/>
<polygon fill="#000000" stroke="#000000" points="86.8751,-205.7333 90.375,-215.7333 93.8751,-205.7333 86.8751,-205.7333"/>
</g>
</g>
</svg>
