<?xml version="1.0" encoding="UTF-8" standalone="no"?>
<!DOCTYPE svg PUBLIC "-//W3C//DTD SVG 1.1//EN"
 "http://www.w3.org/Graphics/SVG/1.1/DTD/svg11.dtd">
<!-- Generated by graphviz version 2.40.1 (20161225.0304)
 -->
<!-- Title: dependencies Pages: 1 -->
<svg width="835pt" height="284pt"
 viewBox="0.00 0.00 835.00 284.00" xmlns="http://www.w3.org/2000/svg" xmlns:xlink="http://www.w3.org/1999/xlink">
<g id="graph0" class="graph" transform="scale(1 1) rotate(0) translate(4 280)">
<title>dependencies</title>
<polygon fill="#ffffff" stroke="transparent" points="-4,4 -4,-280 831,-280 831,4 -4,4"/>
<text text-anchor="start" x="392.5091" y="-42.4" font-family="sans-serif" font-weight="bold" font-size="14.00" fill="#000000">Legend</text>
<polygon fill="#ffffb3" stroke="transparent" points="179.5,-10 179.5,-30 199.5,-30 199.5,-10 179.5,-10"/>
<text text-anchor="start" x="203.129" y="-15.4" font-family="sans-serif" font-size="14.00" fill="#000000"> &#160;Declarations</text>
<polygon fill="#8dd3c7" stroke="transparent" points="292.5,-10 292.5,-30 312.5,-30 312.5,-10 292.5,-10"/>
<text text-anchor="start" x="316.2251" y="-15.4" font-family="sans-serif" font-size="14.00" fill="#000000"> &#160;Module</text>
<polygon fill="#80b1d3" stroke="transparent" points="378.5,-10 378.5,-30 398.5,-30 398.5,-10 378.5,-10"/>
<text text-anchor="start" x="402.2812" y="-15.4" font-family="sans-serif" font-size="14.00" fill="#000000"> &#160;Bootstrap</text>
<polygon fill="#fdb462" stroke="transparent" points="475.5,-10 475.5,-30 495.5,-30 495.5,-10 475.5,-10"/>
<text text-anchor="start" x="499.1732" y="-15.4" font-family="sans-serif" font-size="14.00" fill="#000000"> &#160;Providers</text>
<polygon fill="#fb8072" stroke="transparent" points="571.5,-10 571.5,-30 591.5,-30 591.5,-10 571.5,-10"/>
<text text-anchor="start" x="595.2258" y="-15.4" font-family="sans-serif" font-size="14.00" fill="#000000"> &#160;Exports</text>
<g id="clust1" class="cluster">
<title>cluster_PricingModule</title>
<polygon fill="none" stroke="#000000" stroke-dasharray="1,5" points="8,-70 8,-268 819,-268 819,-70 8,-70"/>
</g>
<g id="clust2" class="cluster">
<title>cluster_PricingModule_declarations</title>
<polygon fill="none" stroke="#000000" points="29,-78 29,-130 802,-130 802,-78 29,-78"/>
</g>
<g id="clust10" class="cluster">
<title>cluster_PricingModule_exports</title>
<polygon fill="none" stroke="#000000" points="16,-208 16,-260 811,-260 811,-208 16,-208"/>
</g>
<!-- ConvertUnitsPipe -->
<g id="node1" class="node">
<title>ConvertUnitsPipe</title>
<polygon fill="#ffffb3" stroke="#000000" points="794.323,-122 677.677,-122 677.677,-86 794.323,-86 794.323,-122"/>
<text text-anchor="middle" x="736" y="-99.8" font-family="Times,serif" font-size="14.00" fill="#000000">ConvertUnitsPipe</text>
</g>
<!-- PricingModule -->
<g id="node7" class="node">
<title>PricingModule</title>
<polygon fill="#8dd3c7" stroke="#000000" points="364.9888,-187 361.9888,-191 340.9888,-191 337.9888,-187 265.0112,-187 265.0112,-151 364.9888,-151 364.9888,-187"/>
<text text-anchor="middle" x="315" y="-164.8" font-family="Times,serif" font-size="14.00" fill="#000000">PricingModule</text>
</g>
<!-- ConvertUnitsPipe&#45;&gt;PricingModule -->
<g id="edge1" class="edge">
<title>ConvertUnitsPipe&#45;&gt;PricingModule</title>
<path fill="none" stroke="#000000" d="M757.1371,-122.2222C757.1371,-140.8285 757.1371,-167 757.1371,-167 757.1371,-167 375.2883,-167 375.2883,-167"/>
<polygon fill="#000000" stroke="#000000" points="375.2883,-163.5001 365.2883,-167 375.2882,-170.5001 375.2883,-163.5001"/>
</g>
<!-- FormatCurrencyPipe -->
<g id="node2" class="node">
<title>FormatCurrencyPipe</title>
<polygon fill="#ffffb3" stroke="#000000" points="659.9144,-122 526.0856,-122 526.0856,-86 659.9144,-86 659.9144,-122"/>
<text text-anchor="middle" x="593" y="-99.8" font-family="Times,serif" font-size="14.00" fill="#000000">FormatCurrencyPipe</text>
</g>
<!-- FormatCurrencyPipe&#45;&gt;PricingModule -->
<g id="edge2" class="edge">
<title>FormatCurrencyPipe&#45;&gt;PricingModule</title>
<path fill="none" stroke="#000000" d="M615.9856,-122.0336C615.9856,-139.0597 615.9856,-162 615.9856,-162 615.9856,-162 375.0395,-162 375.0395,-162"/>
<polygon fill="#000000" stroke="#000000" points="375.0396,-158.5001 365.0395,-162 375.0395,-165.5001 375.0396,-158.5001"/>
</g>
<!-- LocalCurrencyPipe -->
<g id="node3" class="node">
<title>LocalCurrencyPipe</title>
<polygon fill="#ffffb3" stroke="#000000" points="508.3473,-122 383.6527,-122 383.6527,-86 508.3473,-86 508.3473,-122"/>
<text text-anchor="middle" x="446" y="-99.8" font-family="Times,serif" font-size="14.00" fill="#000000">LocalCurrencyPipe</text>
</g>
<!-- LocalCurrencyPipe&#45;&gt;PricingModule -->
<g id="edge3" class="edge">
<title>LocalCurrencyPipe&#45;&gt;PricingModule</title>
<path fill="none" stroke="#000000" d="M466.8079,-122.2396C466.8079,-137.5706 466.8079,-157 466.8079,-157 466.8079,-157 375.1283,-157 375.1283,-157"/>
<polygon fill="#000000" stroke="#000000" points="375.1283,-153.5001 365.1283,-157 375.1283,-160.5001 375.1283,-153.5001"/>
</g>
<!-- PriceComponent -->
<g id="node4" class="node">
<title>PriceComponent</title>
<polygon fill="#ffffb3" stroke="#000000" points="366.0954,-122 255.9046,-122 255.9046,-86 366.0954,-86 366.0954,-122"/>
<text text-anchor="middle" x="311" y="-99.8" font-family="Times,serif" font-size="14.00" fill="#000000">PriceComponent</text>
</g>
<!-- PriceComponent&#45;&gt;PricingModule -->
<g id="edge4" class="edge">
<title>PriceComponent&#45;&gt;PricingModule</title>
<path fill="none" stroke="#000000" d="M315,-122.1061C315,-122.1061 315,-140.991 315,-140.991"/>
<polygon fill="#000000" stroke="#000000" points="311.5001,-140.9909 315,-150.991 318.5001,-140.991 311.5001,-140.9909"/>
</g>
<!-- PriceMatrixFilter -->
<g id="node5" class="node">
<title>PriceMatrixFilter</title>
<polygon fill="#ffffb3" stroke="#000000" points="237.6938,-122 124.3062,-122 124.3062,-86 237.6938,-86 237.6938,-122"/>
<text text-anchor="middle" x="181" y="-99.8" font-family="Times,serif" font-size="14.00" fill="#000000">PriceMatrixFilter</text>
</g>
<!-- PriceMatrixFilter&#45;&gt;PricingModule -->
<g id="edge5" class="edge">
<title>PriceMatrixFilter&#45;&gt;PricingModule</title>
<path fill="none" stroke="#000000" d="M196.3656,-122.0091C196.3656,-138.0494 196.3656,-159 196.3656,-159 196.3656,-159 254.6883,-159 254.6883,-159"/>
<polygon fill="#000000" stroke="#000000" points="254.6884,-162.5001 264.6883,-159 254.6883,-155.5001 254.6884,-162.5001"/>
</g>
<!-- PricePipe -->
<g id="node6" class="node">
<title>PricePipe</title>
<polygon fill="#ffffb3" stroke="#000000" points="106.6517,-122 37.3483,-122 37.3483,-86 106.6517,-86 106.6517,-122"/>
<text text-anchor="middle" x="72" y="-99.8" font-family="Times,serif" font-size="14.00" fill="#000000">PricePipe</text>
</g>
<!-- PricePipe&#45;&gt;PricingModule -->
<g id="edge6" class="edge">
<title>PricePipe&#45;&gt;PricingModule</title>
<path fill="none" stroke="#000000" d="M102.2004,-122.2667C102.2004,-140.5552 102.2004,-166 102.2004,-166 102.2004,-166 254.8389,-166 254.8389,-166"/>
<polygon fill="#000000" stroke="#000000" points="254.839,-169.5001 264.8389,-166 254.8389,-162.5001 254.839,-169.5001"/>
</g>
<!-- ConvertUnitsPipe  -->
<g id="node8" class="node">
<title>ConvertUnitsPipe </title>
<polygon fill="#fb8072" stroke="#000000" points="802.8227,-252 683.1773,-252 683.1773,-216 802.8227,-216 802.8227,-252"/>
<text text-anchor="middle" x="743" y="-229.8" font-family="Times,serif" font-size="14.00" fill="#000000">ConvertUnitsPipe </text>
</g>
<!-- PricingModule&#45;&gt;ConvertUnitsPipe  -->
<g id="edge7" class="edge">
<title>PricingModule&#45;&gt;ConvertUnitsPipe </title>
<path fill="none" stroke="#000000" stroke-dasharray="5,2" d="M365.0811,-172C473.4694,-172 720.1129,-172 720.1129,-172 720.1129,-172 720.1129,-205.7333 720.1129,-205.7333"/>
<polygon fill="#000000" stroke="#000000" points="716.613,-205.7333 720.1129,-215.7333 723.613,-205.7333 716.613,-205.7333"/>
</g>
<!-- FormatCurrencyPipe  -->
<g id="node9" class="node">
<title>FormatCurrencyPipe </title>
<polygon fill="#fb8072" stroke="#000000" points="665.4138,-252 528.5862,-252 528.5862,-216 665.4138,-216 665.4138,-252"/>
<text text-anchor="middle" x="597" y="-229.8" font-family="Times,serif" font-size="14.00" fill="#000000">FormatCurrencyPipe </text>
</g>
<!-- PricingModule&#45;&gt;FormatCurrencyPipe  -->
<g id="edge8" class="edge">
<title>PricingModule&#45;&gt;FormatCurrencyPipe </title>
<path fill="none" stroke="#000000" stroke-dasharray="5,2" d="M365.2139,-177C440.0825,-177 572.2644,-177 572.2644,-177 572.2644,-177 572.2644,-205.9648 572.2644,-205.9648"/>
<polygon fill="#000000" stroke="#000000" points="568.7645,-205.9648 572.2644,-215.9648 575.7645,-205.9649 568.7645,-205.9648"/>
</g>
<!-- LocalCurrencyPipe  -->
<g id="node10" class="node">
<title>LocalCurrencyPipe </title>
<polygon fill="#fb8072" stroke="#000000" points="510.3477,-252 381.6523,-252 381.6523,-216 510.3477,-216 510.3477,-252"/>
<text text-anchor="middle" x="446" y="-229.8" font-family="Times,serif" font-size="14.00" fill="#000000">LocalCurrencyPipe </text>
</g>
<!-- PricingModule&#45;&gt;LocalCurrencyPipe  -->
<g id="edge9" class="edge">
<title>PricingModule&#45;&gt;LocalCurrencyPipe </title>
<path fill="none" stroke="#000000" stroke-dasharray="5,2" d="M365.2592,-182C394.3212,-182 425.1921,-182 425.1921,-182 425.1921,-182 425.1921,-205.8129 425.1921,-205.8129"/>
<polygon fill="#000000" stroke="#000000" points="421.6922,-205.8129 425.1921,-215.8129 428.6922,-205.813 421.6922,-205.8129"/>
</g>
<!-- PriceComponent  -->
<g id="node11" class="node">
<title>PriceComponent </title>
<polygon fill="#fb8072" stroke="#000000" points="363.5961,-252 250.4039,-252 250.4039,-216 363.5961,-216 363.5961,-252"/>
<text text-anchor="middle" x="307" y="-229.8" font-family="Times,serif" font-size="14.00" fill="#000000">PriceComponent </text>
</g>
<!-- PricingModule&#45;&gt;PriceComponent  -->
<g id="edge10" class="edge">
<title>PricingModule&#45;&gt;PriceComponent </title>
<path fill="none" stroke="#000000" stroke-dasharray="5,2" d="M314.4017,-187.1061C314.4017,-187.1061 314.4017,-205.991 314.4017,-205.991"/>
<polygon fill="#000000" stroke="#000000" points="310.9017,-205.9909 314.4017,-215.991 317.9017,-205.991 310.9017,-205.9909"/>
</g>
<!-- PriceMatrixFilter  -->
<g id="node12" class="node">
<title>PriceMatrixFilter </title>
<polygon fill="#fb8072" stroke="#000000" points="232.194,-252 115.806,-252 115.806,-216 232.194,-216 232.194,-252"/>
<text text-anchor="middle" x="174" y="-229.8" font-family="Times,serif" font-size="14.00" fill="#000000">PriceMatrixFilter </text>
</g>
<!-- PricingModule&#45;&gt;PriceMatrixFilter  -->
<g id="edge11" class="edge">
<title>PricingModule&#45;&gt;PriceMatrixFilter </title>
<path fill="none" stroke="#000000" stroke-dasharray="5,2" d="M264.8007,-180C219.654,-180 160.3844,-180 160.3844,-180 160.3844,-180 160.3844,-205.7181 160.3844,-205.7181"/>
<polygon fill="#000000" stroke="#000000" points="156.8845,-205.718 160.3844,-215.7181 163.8845,-205.7181 156.8845,-205.718"/>
</g>
<!-- PricePipe  -->
<g id="node13" class="node">
<title>PricePipe </title>
<polygon fill="#fb8072" stroke="#000000" points="97.651,-252 24.349,-252 24.349,-216 97.651,-216 97.651,-252"/>
<text text-anchor="middle" x="61" y="-229.8" font-family="Times,serif" font-size="14.00" fill="#000000">PricePipe </text>
</g>
<!-- PricingModule&#45;&gt;PricePipe  -->
<g id="edge12" class="edge">
<title>PricingModule&#45;&gt;PricePipe </title>
<path fill="none" stroke="#000000" stroke-dasharray="5,2" d="M264.8894,-173C192.5326,-173 67.375,-173 67.375,-173 67.375,-173 67.375,-205.698 67.375,-205.698"/>
<polygon fill="#000000" stroke="#000000" points="63.8751,-205.698 67.375,-215.698 70.8751,-205.698 63.8751,-205.698"/>
</g>
</g>
</svg>
