<?xml version="1.0" encoding="UTF-8" standalone="no"?>
<!DOCTYPE svg PUBLIC "-//W3C//DTD SVG 1.1//EN"
 "http://www.w3.org/Graphics/SVG/1.1/DTD/svg11.dtd">
<!-- Generated by graphviz version 2.40.1 (20161225.0304)
 -->
<!-- Title: dependencies Pages: 1 -->
<svg width="1580pt" height="284pt"
 viewBox="0.00 0.00 1580.00 284.00" xmlns="http://www.w3.org/2000/svg" xmlns:xlink="http://www.w3.org/1999/xlink">
<g id="graph0" class="graph" transform="scale(1 1) rotate(0) translate(4 280)">
<title>dependencies</title>
<polygon fill="#ffffff" stroke="transparent" points="-4,4 -4,-280 1576,-280 1576,4 -4,4"/>
<text text-anchor="start" x="765.0091" y="-42.4" font-family="sans-serif" font-weight="bold" font-size="14.00" fill="#000000">Legend</text>
<polygon fill="#ffffb3" stroke="transparent" points="552,-10 552,-30 572,-30 572,-10 552,-10"/>
<text text-anchor="start" x="575.629" y="-15.4" font-family="sans-serif" font-size="14.00" fill="#000000"> &#160;Declarations</text>
<polygon fill="#8dd3c7" stroke="transparent" points="665,-10 665,-30 685,-30 685,-10 665,-10"/>
<text text-anchor="start" x="688.7251" y="-15.4" font-family="sans-serif" font-size="14.00" fill="#000000"> &#160;Module</text>
<polygon fill="#80b1d3" stroke="transparent" points="751,-10 751,-30 771,-30 771,-10 751,-10"/>
<text text-anchor="start" x="774.7812" y="-15.4" font-family="sans-serif" font-size="14.00" fill="#000000"> &#160;Bootstrap</text>
<polygon fill="#fdb462" stroke="transparent" points="848,-10 848,-30 868,-30 868,-10 848,-10"/>
<text text-anchor="start" x="871.6732" y="-15.4" font-family="sans-serif" font-size="14.00" fill="#000000"> &#160;Providers</text>
<polygon fill="#fb8072" stroke="transparent" points="944,-10 944,-30 964,-30 964,-10 944,-10"/>
<text text-anchor="start" x="967.7258" y="-15.4" font-family="sans-serif" font-size="14.00" fill="#000000"> &#160;Exports</text>
<g id="clust1" class="cluster">
<title>cluster_PricingModule</title>
<polygon fill="none" stroke="#000000" stroke-dasharray="1,5" points="8,-70 8,-268 1564,-268 1564,-70 8,-70"/>
</g>
<g id="clust2" class="cluster">
<title>cluster_PricingModule_declarations</title>
<polygon fill="none" stroke="#000000" points="160,-78 160,-130 1556,-130 1556,-78 160,-78"/>
</g>
<g id="clust14" class="cluster">
<title>cluster_PricingModule_exports</title>
<polygon fill="none" stroke="#000000" points="72,-208 72,-260 1501,-260 1501,-208 72,-208"/>
</g>
<g id="clust16" class="cluster">
<title>cluster_PricingModule_providers</title>
<polygon fill="none" stroke="#000000" points="16,-78 16,-130 152,-130 152,-78 16,-78"/>
</g>
<!-- AttributeValuePricePipe -->
<g id="node1" class="node">
<title>AttributeValuePricePipe</title>
<polygon fill="#ffffb3" stroke="#000000" points="1547.6219,-122 1394.3781,-122 1394.3781,-86 1547.6219,-86 1547.6219,-122"/>
<text text-anchor="middle" x="1471" y="-99.8" font-family="Times,serif" font-size="14.00" fill="#000000">AttributeValuePricePipe</text>
</g>
<!-- PricingModule -->
<g id="node11" class="node">
<title>PricingModule</title>
<polygon fill="#8dd3c7" stroke="#000000" points="826.9888,-187 823.9888,-191 802.9888,-191 799.9888,-187 727.0112,-187 727.0112,-151 826.9888,-151 826.9888,-187"/>
<text text-anchor="middle" x="777" y="-164.8" font-family="Times,serif" font-size="14.00" fill="#000000">PricingModule</text>
</g>
<!-- AttributeValuePricePipe&#45;&gt;PricingModule -->
<g id="edge1" class="edge">
<title>AttributeValuePricePipe&#45;&gt;PricingModule</title>
<path fill="none" stroke="#000000" d="M1443.375,-122.1061C1443.375,-141.3391 1443.375,-169 1443.375,-169 1443.375,-169 837.0864,-169 837.0864,-169"/>
<polygon fill="#000000" stroke="#000000" points="837.0865,-165.5001 827.0864,-169 837.0864,-172.5001 837.0865,-165.5001"/>
</g>
<!-- CartItemPricePipe -->
<g id="node2" class="node">
<title>CartItemPricePipe</title>
<polygon fill="#ffffb3" stroke="#000000" points="1375.9103,-122 1256.0897,-122 1256.0897,-86 1375.9103,-86 1375.9103,-122"/>
<text text-anchor="middle" x="1316" y="-99.8" font-family="Times,serif" font-size="14.00" fill="#000000">CartItemPricePipe</text>
</g>
<!-- CartItemPricePipe&#45;&gt;PricingModule -->
<g id="edge2" class="edge">
<title>CartItemPricePipe&#45;&gt;PricingModule</title>
<path fill="none" stroke="#000000" d="M1286.875,-122.2667C1286.875,-140.5552 1286.875,-166 1286.875,-166 1286.875,-166 837.2842,-166 837.2842,-166"/>
<polygon fill="#000000" stroke="#000000" points="837.2842,-162.5001 827.2842,-166 837.2841,-169.5001 837.2842,-162.5001"/>
</g>
<!-- CartPricePipe -->
<g id="node3" class="node">
<title>CartPricePipe</title>
<polygon fill="#ffffb3" stroke="#000000" points="1237.7535,-122 1144.2465,-122 1144.2465,-86 1237.7535,-86 1237.7535,-122"/>
<text text-anchor="middle" x="1191" y="-99.8" font-family="Times,serif" font-size="14.00" fill="#000000">CartPricePipe</text>
</g>
<!-- CartPricePipe&#45;&gt;PricingModule -->
<g id="edge3" class="edge">
<title>CartPricePipe&#45;&gt;PricingModule</title>
<path fill="none" stroke="#000000" d="M1160.375,-122.0336C1160.375,-139.0597 1160.375,-162 1160.375,-162 1160.375,-162 837.1196,-162 837.1196,-162"/>
<polygon fill="#000000" stroke="#000000" points="837.1196,-158.5001 827.1196,-162 837.1196,-165.5001 837.1196,-158.5001"/>
</g>
<!-- FormatCurrencyPipe -->
<g id="node4" class="node">
<title>FormatCurrencyPipe</title>
<polygon fill="#ffffb3" stroke="#000000" points="1125.9144,-122 992.0856,-122 992.0856,-86 1125.9144,-86 1125.9144,-122"/>
<text text-anchor="middle" x="1059" y="-99.8" font-family="Times,serif" font-size="14.00" fill="#000000">FormatCurrencyPipe</text>
</g>
<!-- FormatCurrencyPipe&#45;&gt;PricingModule -->
<g id="edge4" class="edge">
<title>FormatCurrencyPipe&#45;&gt;PricingModule</title>
<path fill="none" stroke="#000000" d="M1026.875,-122.0091C1026.875,-138.0494 1026.875,-159 1026.875,-159 1026.875,-159 837.2654,-159 837.2654,-159"/>
<polygon fill="#000000" stroke="#000000" points="837.2654,-155.5001 827.2654,-159 837.2653,-162.5001 837.2654,-155.5001"/>
</g>
<!-- LocalCurrencyPipe -->
<g id="node5" class="node">
<title>LocalCurrencyPipe</title>
<polygon fill="#ffffb3" stroke="#000000" points="974.3473,-122 849.6527,-122 849.6527,-86 974.3473,-86 974.3473,-122"/>
<text text-anchor="middle" x="912" y="-99.8" font-family="Times,serif" font-size="14.00" fill="#000000">LocalCurrencyPipe</text>
</g>
<!-- LocalCurrencyPipe&#45;&gt;PricingModule -->
<g id="edge5" class="edge">
<title>LocalCurrencyPipe&#45;&gt;PricingModule</title>
<path fill="none" stroke="#000000" d="M877.875,-122.1243C877.875,-136.7832 877.875,-155 877.875,-155 877.875,-155 837.142,-155 837.142,-155"/>
<polygon fill="#000000" stroke="#000000" points="837.142,-151.5001 827.142,-155 837.1419,-158.5001 837.142,-151.5001"/>
</g>
<!-- OptionPricePipe -->
<g id="node6" class="node">
<title>OptionPricePipe</title>
<polygon fill="#ffffb3" stroke="#000000" points="831.0396,-122 722.9604,-122 722.9604,-86 831.0396,-86 831.0396,-122"/>
<text text-anchor="middle" x="777" y="-99.8" font-family="Times,serif" font-size="14.00" fill="#000000">OptionPricePipe</text>
</g>
<!-- OptionPricePipe&#45;&gt;PricingModule -->
<g id="edge6" class="edge">
<title>OptionPricePipe&#45;&gt;PricingModule</title>
<path fill="none" stroke="#000000" d="M777,-122.1061C777,-122.1061 777,-140.991 777,-140.991"/>
<polygon fill="#000000" stroke="#000000" points="773.5001,-140.9909 777,-150.991 780.5001,-140.991 773.5001,-140.9909"/>
</g>
<!-- OrderLineItemPricePipe -->
<g id="node7" class="node">
<title>OrderLineItemPricePipe</title>
<polygon fill="#ffffb3" stroke="#000000" points="704.6079,-122 551.3921,-122 551.3921,-86 704.6079,-86 704.6079,-122"/>
<text text-anchor="middle" x="628" y="-99.8" font-family="Times,serif" font-size="14.00" fill="#000000">OrderLineItemPricePipe</text>
</g>
<!-- OrderLineItemPricePipe&#45;&gt;PricingModule -->
<g id="edge7" class="edge">
<title>OrderLineItemPricePipe&#45;&gt;PricingModule</title>
<path fill="none" stroke="#000000" d="M676.3922,-122.1243C676.3922,-136.7832 676.3922,-155 676.3922,-155 676.3922,-155 716.9908,-155 716.9908,-155"/>
<polygon fill="#000000" stroke="#000000" points="716.9909,-158.5001 726.9908,-155 716.9908,-151.5001 716.9909,-158.5001"/>
</g>
<!-- OrderPricePipe -->
<g id="node8" class="node">
<title>OrderPricePipe</title>
<polygon fill="#ffffb3" stroke="#000000" points="533.2936,-122 430.7064,-122 430.7064,-86 533.2936,-86 533.2936,-122"/>
<text text-anchor="middle" x="482" y="-99.8" font-family="Times,serif" font-size="14.00" fill="#000000">OrderPricePipe</text>
</g>
<!-- OrderPricePipe&#45;&gt;PricingModule -->
<g id="edge8" class="edge">
<title>OrderPricePipe&#45;&gt;PricingModule</title>
<path fill="none" stroke="#000000" d="M502.7965,-122.0091C502.7965,-138.0494 502.7965,-159 502.7965,-159 502.7965,-159 716.7068,-159 716.7068,-159"/>
<polygon fill="#000000" stroke="#000000" points="716.7069,-162.5001 726.7068,-159 716.7068,-155.5001 716.7069,-162.5001"/>
</g>
<!-- PriceMatrixFilter -->
<g id="node9" class="node">
<title>PriceMatrixFilter</title>
<polygon fill="#ffffb3" stroke="#000000" points="412.6938,-122 299.3062,-122 299.3062,-86 412.6938,-86 412.6938,-122"/>
<text text-anchor="middle" x="356" y="-99.8" font-family="Times,serif" font-size="14.00" fill="#000000">PriceMatrixFilter</text>
</g>
<!-- PriceMatrixFilter&#45;&gt;PricingModule -->
<g id="edge9" class="edge">
<title>PriceMatrixFilter&#45;&gt;PricingModule</title>
<path fill="none" stroke="#000000" d="M380.8501,-122.0336C380.8501,-139.0597 380.8501,-162 380.8501,-162 380.8501,-162 716.8273,-162 716.8273,-162"/>
<polygon fill="#000000" stroke="#000000" points="716.8274,-165.5001 726.8273,-162 716.8273,-158.5001 716.8274,-165.5001"/>
</g>
<!-- ProductPricePipe -->
<g id="node10" class="node">
<title>ProductPricePipe</title>
<polygon fill="#ffffb3" stroke="#000000" points="281.6994,-122 168.3006,-122 168.3006,-86 281.6994,-86 281.6994,-122"/>
<text text-anchor="middle" x="225" y="-99.8" font-family="Times,serif" font-size="14.00" fill="#000000">ProductPricePipe</text>
</g>
<!-- ProductPricePipe&#45;&gt;PricingModule -->
<g id="edge10" class="edge">
<title>ProductPricePipe&#45;&gt;PricingModule</title>
<path fill="none" stroke="#000000" d="M248.1264,-122.2667C248.1264,-140.5552 248.1264,-166 248.1264,-166 248.1264,-166 716.7681,-166 716.7681,-166"/>
<polygon fill="#000000" stroke="#000000" points="716.7681,-169.5001 726.7681,-166 716.768,-162.5001 716.7681,-169.5001"/>
</g>
<!-- AttributeValuePricePipe  -->
<g id="node12" class="node">
<title>AttributeValuePricePipe </title>
<polygon fill="#fb8072" stroke="#000000" points="1492.6214,-252 1335.3786,-252 1335.3786,-216 1492.6214,-216 1492.6214,-252"/>
<text text-anchor="middle" x="1414" y="-229.8" font-family="Times,serif" font-size="14.00" fill="#000000">AttributeValuePricePipe </text>
</g>
<!-- PricingModule&#45;&gt;AttributeValuePricePipe  -->
<g id="edge11" class="edge">
<title>PricingModule&#45;&gt;AttributeValuePricePipe </title>
<path fill="none" stroke="#000000" stroke-dasharray="5,2" d="M827.0807,-173C967.6328,-173 1355.5721,-173 1355.5721,-173 1355.5721,-173 1355.5721,-205.698 1355.5721,-205.698"/>
<polygon fill="#000000" stroke="#000000" points="1352.0721,-205.698 1355.5721,-215.698 1359.0721,-205.698 1352.0721,-205.698"/>
</g>
<!-- CartItemPricePipe  -->
<g id="node13" class="node">
<title>CartItemPricePipe </title>
<polygon fill="#fb8072" stroke="#000000" points="1317.4096,-252 1194.5904,-252 1194.5904,-216 1317.4096,-216 1317.4096,-252"/>
<text text-anchor="middle" x="1256" y="-229.8" font-family="Times,serif" font-size="14.00" fill="#000000">CartItemPricePipe </text>
</g>
<!-- PricingModule&#45;&gt;CartItemPricePipe  -->
<g id="edge12" class="edge">
<title>PricingModule&#45;&gt;CartItemPricePipe </title>
<path fill="none" stroke="#000000" stroke-dasharray="5,2" d="M827.3831,-177C942.7496,-177 1216.2109,-177 1216.2109,-177 1216.2109,-177 1216.2109,-205.9648 1216.2109,-205.9648"/>
<polygon fill="#000000" stroke="#000000" points="1212.711,-205.9648 1216.2109,-215.9648 1219.711,-205.9649 1212.711,-205.9648"/>
</g>
<!-- CartPricePipe  -->
<g id="node14" class="node">
<title>CartPricePipe </title>
<polygon fill="#fb8072" stroke="#000000" points="1176.7535,-252 1079.2465,-252 1079.2465,-216 1176.7535,-216 1176.7535,-252"/>
<text text-anchor="middle" x="1128" y="-229.8" font-family="Times,serif" font-size="14.00" fill="#000000">CartPricePipe </text>
</g>
<!-- PricingModule&#45;&gt;CartPricePipe  -->
<g id="edge13" class="edge">
<title>PricingModule&#45;&gt;CartPricePipe </title>
<path fill="none" stroke="#000000" stroke-dasharray="5,2" d="M827.1522,-180C918.4688,-180 1102.5401,-180 1102.5401,-180 1102.5401,-180 1102.5401,-205.7181 1102.5401,-205.7181"/>
<polygon fill="#000000" stroke="#000000" points="1099.0402,-205.718 1102.5401,-215.7181 1106.0402,-205.7181 1099.0402,-205.718"/>
</g>
<!-- FormatCurrencyPipe  -->
<g id="node15" class="node">
<title>FormatCurrencyPipe </title>
<polygon fill="#fb8072" stroke="#000000" points="1061.4138,-252 924.5862,-252 924.5862,-216 1061.4138,-216 1061.4138,-252"/>
<text text-anchor="middle" x="993" y="-229.8" font-family="Times,serif" font-size="14.00" fill="#000000">FormatCurrencyPipe </text>
</g>
<!-- PricingModule&#45;&gt;FormatCurrencyPipe  -->
<g id="edge14" class="edge">
<title>PricingModule&#45;&gt;FormatCurrencyPipe </title>
<path fill="none" stroke="#000000" stroke-dasharray="5,2" d="M827.353,-184C878.2638,-184 949.4834,-184 949.4834,-184 949.4834,-184 949.4834,-205.9489 949.4834,-205.9489"/>
<polygon fill="#000000" stroke="#000000" points="945.9834,-205.9488 949.4834,-215.9489 952.9834,-205.9489 945.9834,-205.9488"/>
</g>
<!-- LocalCurrencyPipe  -->
<g id="node16" class="node">
<title>LocalCurrencyPipe </title>
<polygon fill="#fb8072" stroke="#000000" points="906.3477,-252 777.6523,-252 777.6523,-216 906.3477,-216 906.3477,-252"/>
<text text-anchor="middle" x="842" y="-229.8" font-family="Times,serif" font-size="14.00" fill="#000000">LocalCurrencyPipe </text>
</g>
<!-- PricingModule&#45;&gt;LocalCurrencyPipe  -->
<g id="edge15" class="edge">
<title>PricingModule&#45;&gt;LocalCurrencyPipe </title>
<path fill="none" stroke="#000000" stroke-dasharray="5,2" d="M802.4104,-187.1061C802.4104,-187.1061 802.4104,-205.991 802.4104,-205.991"/>
<polygon fill="#000000" stroke="#000000" points="798.9105,-205.9909 802.4104,-215.991 805.9105,-205.991 798.9105,-205.9909"/>
</g>
<!-- OptionPricePipe  -->
<g id="node17" class="node">
<title>OptionPricePipe </title>
<polygon fill="#fb8072" stroke="#000000" points="760.0386,-252 647.9614,-252 647.9614,-216 760.0386,-216 760.0386,-252"/>
<text text-anchor="middle" x="704" y="-229.8" font-family="Times,serif" font-size="14.00" fill="#000000">OptionPricePipe </text>
</g>
<!-- PricingModule&#45;&gt;OptionPricePipe  -->
<g id="edge16" class="edge">
<title>PricingModule&#45;&gt;OptionPricePipe </title>
<path fill="none" stroke="#000000" stroke-dasharray="5,2" d="M743.5124,-187.1061C743.5124,-187.1061 743.5124,-205.991 743.5124,-205.991"/>
<polygon fill="#000000" stroke="#000000" points="740.0125,-205.9909 743.5124,-215.991 747.0125,-205.991 740.0125,-205.9909"/>
</g>
<!-- OrderLineItemPricePipe  -->
<g id="node18" class="node">
<title>OrderLineItemPricePipe </title>
<polygon fill="#fb8072" stroke="#000000" points="629.6074,-252 472.3926,-252 472.3926,-216 629.6074,-216 629.6074,-252"/>
<text text-anchor="middle" x="551" y="-229.8" font-family="Times,serif" font-size="14.00" fill="#000000">OrderLineItemPricePipe </text>
</g>
<!-- PricingModule&#45;&gt;OrderLineItemPricePipe  -->
<g id="edge17" class="edge">
<title>PricingModule&#45;&gt;OrderLineItemPricePipe </title>
<path fill="none" stroke="#000000" stroke-dasharray="5,2" d="M726.9879,-184C671.7073,-184 590.375,-184 590.375,-184 590.375,-184 590.375,-205.9489 590.375,-205.9489"/>
<polygon fill="#000000" stroke="#000000" points="586.8751,-205.9488 590.375,-215.9489 593.8751,-205.9489 586.8751,-205.9488"/>
</g>
<!-- OrderPricePipe  -->
<g id="node19" class="node">
<title>OrderPricePipe </title>
<polygon fill="#fb8072" stroke="#000000" points="454.7934,-252 349.2066,-252 349.2066,-216 454.7934,-216 454.7934,-252"/>
<text text-anchor="middle" x="402" y="-229.8" font-family="Times,serif" font-size="14.00" fill="#000000">OrderPricePipe </text>
</g>
<!-- PricingModule&#45;&gt;OrderPricePipe  -->
<g id="edge18" class="edge">
<title>PricingModule&#45;&gt;OrderPricePipe </title>
<path fill="none" stroke="#000000" stroke-dasharray="5,2" d="M726.9781,-180C633.7684,-180 442.875,-180 442.875,-180 442.875,-180 442.875,-205.7181 442.875,-205.7181"/>
<polygon fill="#000000" stroke="#000000" points="439.3751,-205.718 442.875,-215.7181 446.3751,-205.7181 439.3751,-205.718"/>
</g>
<!-- PriceMatrixFilter  -->
<g id="node20" class="node">
<title>PriceMatrixFilter </title>
<polygon fill="#fb8072" stroke="#000000" points="331.194,-252 214.806,-252 214.806,-216 331.194,-216 331.194,-252"/>
<text text-anchor="middle" x="273" y="-229.8" font-family="Times,serif" font-size="14.00" fill="#000000">PriceMatrixFilter </text>
</g>
<!-- PricingModule&#45;&gt;PriceMatrixFilter  -->
<g id="edge19" class="edge">
<title>PricingModule&#45;&gt;PriceMatrixFilter </title>
<path fill="none" stroke="#000000" stroke-dasharray="5,2" d="M726.7193,-177C607.0762,-177 315.375,-177 315.375,-177 315.375,-177 315.375,-205.9648 315.375,-205.9648"/>
<polygon fill="#000000" stroke="#000000" points="311.8751,-205.9648 315.375,-215.9648 318.8751,-205.9649 311.8751,-205.9648"/>
</g>
<!-- ProductPricePipe  -->
<g id="node21" class="node">
<title>ProductPricePipe </title>
<polygon fill="#fb8072" stroke="#000000" points="196.1996,-252 79.8004,-252 79.8004,-216 196.1996,-216 196.1996,-252"/>
<text text-anchor="middle" x="138" y="-229.8" font-family="Times,serif" font-size="14.00" fill="#000000">ProductPricePipe </text>
</g>
<!-- PricingModule&#45;&gt;ProductPricePipe  -->
<g id="edge20" class="edge">
<title>PricingModule&#45;&gt;ProductPricePipe </title>
<path fill="none" stroke="#000000" stroke-dasharray="5,2" d="M726.8151,-173C583.4589,-173 182.375,-173 182.375,-173 182.375,-173 182.375,-205.698 182.375,-205.698"/>
<polygon fill="#000000" stroke="#000000" points="178.8751,-205.698 182.375,-215.698 185.8751,-205.698 178.8751,-205.698"/>
</g>
<!-- PriceService -->
<g id="node22" class="node">
<title>PriceService</title>
<ellipse fill="#fdb462" stroke="#000000" cx="84" cy="-104" rx="59.6646" ry="18"/>
<text text-anchor="middle" x="84" y="-99.8" font-family="Times,serif" font-size="14.00" fill="#000000">PriceService</text>
</g>
<!-- PriceService&#45;&gt;PricingModule -->
<g id="edge21" class="edge">
<title>PriceService&#45;&gt;PricingModule</title>
<path fill="none" stroke="#000000" d="M111.7412,-120.0674C111.7412,-139.3158 111.7412,-169 111.7412,-169 111.7412,-169 716.9975,-169 716.9975,-169"/>
<polygon fill="#000000" stroke="#000000" points="716.9975,-172.5001 726.9975,-169 716.9974,-165.5001 716.9975,-172.5001"/>
</g>
</g>
</svg>
