<?xml version="1.0" encoding="UTF-8" standalone="no"?>
<!DOCTYPE svg PUBLIC "-//W3C//DTD SVG 1.1//EN"
 "http://www.w3.org/Graphics/SVG/1.1/DTD/svg11.dtd">
<!-- Generated by graphviz version 2.40.1 (20161225.0304)
 -->
<!-- Title: dependencies Pages: 1 -->
<svg width="2458pt" height="284pt"
 viewBox="0.00 0.00 2458.00 284.00" xmlns="http://www.w3.org/2000/svg" xmlns:xlink="http://www.w3.org/1999/xlink">
<g id="graph0" class="graph" transform="scale(1 1) rotate(0) translate(4 280)">
<title>dependencies</title>
<polygon fill="#ffffff" stroke="transparent" points="-4,4 -4,-280 2454,-280 2454,4 -4,4"/>
<text text-anchor="start" x="1204.0091" y="-42.4" font-family="sans-serif" font-weight="bold" font-size="14.00" fill="#000000">Legend</text>
<polygon fill="#ffffb3" stroke="transparent" points="991,-10 991,-30 1011,-30 1011,-10 991,-10"/>
<text text-anchor="start" x="1014.629" y="-15.4" font-family="sans-serif" font-size="14.00" fill="#000000"> &#160;Declarations</text>
<polygon fill="#8dd3c7" stroke="transparent" points="1104,-10 1104,-30 1124,-30 1124,-10 1104,-10"/>
<text text-anchor="start" x="1127.7251" y="-15.4" font-family="sans-serif" font-size="14.00" fill="#000000"> &#160;Module</text>
<polygon fill="#80b1d3" stroke="transparent" points="1190,-10 1190,-30 1210,-30 1210,-10 1190,-10"/>
<text text-anchor="start" x="1213.7812" y="-15.4" font-family="sans-serif" font-size="14.00" fill="#000000"> &#160;Bootstrap</text>
<polygon fill="#fdb462" stroke="transparent" points="1287,-10 1287,-30 1307,-30 1307,-10 1287,-10"/>
<text text-anchor="start" x="1310.6732" y="-15.4" font-family="sans-serif" font-size="14.00" fill="#000000"> &#160;Providers</text>
<polygon fill="#fb8072" stroke="transparent" points="1383,-10 1383,-30 1403,-30 1403,-10 1383,-10"/>
<text text-anchor="start" x="1406.7258" y="-15.4" font-family="sans-serif" font-size="14.00" fill="#000000"> &#160;Exports</text>
<g id="clust1" class="cluster">
<title>cluster_PricingModule</title>
<polygon fill="none" stroke="#000000" stroke-dasharray="1,5" points="8,-70 8,-268 2442,-268 2442,-70 8,-70"/>
</g>
<g id="clust2" class="cluster">
<title>cluster_PricingModule_declarations</title>
<polygon fill="none" stroke="#000000" points="1082,-78 1082,-130 2434,-130 2434,-78 1082,-78"/>
</g>
<g id="clust14" class="cluster">
<title>cluster_PricingModule_exports</title>
<polygon fill="none" stroke="#000000" points="685,-208 685,-260 2071,-260 2071,-208 685,-208"/>
</g>
<g id="clust16" class="cluster">
<title>cluster_PricingModule_providers</title>
<polygon fill="none" stroke="#000000" points="16,-78 16,-130 1074,-130 1074,-78 16,-78"/>
</g>
<!-- AttributeValuePricePipe -->
<g id="node1" class="node">
<title>AttributeValuePricePipe</title>
<polygon fill="#ffffb3" stroke="#000000" points="2425.6219,-122 2272.3781,-122 2272.3781,-86 2425.6219,-86 2425.6219,-122"/>
<text text-anchor="middle" x="2349" y="-99.8" font-family="Times,serif" font-size="14.00" fill="#000000">AttributeValuePricePipe</text>
</g>
<!-- PricingModule -->
<g id="node11" class="node">
<title>PricingModule</title>
<polygon fill="#8dd3c7" stroke="#000000" points="1392.9888,-187 1389.9888,-191 1368.9888,-191 1365.9888,-187 1293.0112,-187 1293.0112,-151 1392.9888,-151 1392.9888,-187"/>
<text text-anchor="middle" x="1343" y="-164.8" font-family="Times,serif" font-size="14.00" fill="#000000">PricingModule</text>
</g>
<!-- AttributeValuePricePipe&#45;&gt;PricingModule -->
<g id="edge1" class="edge">
<title>AttributeValuePricePipe&#45;&gt;PricingModule</title>
<path fill="none" stroke="#000000" d="M2349,-122.2228C2349,-142.3652 2349,-172 2349,-172 2349,-172 1403.2319,-172 1403.2319,-172"/>
<polygon fill="#000000" stroke="#000000" points="1403.2319,-168.5001 1393.2319,-172 1403.2318,-175.5001 1403.2319,-168.5001"/>
</g>
<!-- CartItemPricePipe -->
<g id="node2" class="node">
<title>CartItemPricePipe</title>
<polygon fill="#ffffb3" stroke="#000000" points="2253.9103,-122 2134.0897,-122 2134.0897,-86 2253.9103,-86 2253.9103,-122"/>
<text text-anchor="middle" x="2194" y="-99.8" font-family="Times,serif" font-size="14.00" fill="#000000">CartItemPricePipe</text>
</g>
<!-- CartItemPricePipe&#45;&gt;PricingModule -->
<g id="edge2" class="edge">
<title>CartItemPricePipe&#45;&gt;PricingModule</title>
<path fill="none" stroke="#000000" d="M2194,-122.1061C2194,-141.3391 2194,-169 2194,-169 2194,-169 1403.0568,-169 1403.0568,-169"/>
<polygon fill="#000000" stroke="#000000" points="1403.0569,-165.5001 1393.0568,-169 1403.0568,-172.5001 1403.0569,-165.5001"/>
</g>
<!-- CartPricePipe -->
<g id="node3" class="node">
<title>CartPricePipe</title>
<polygon fill="#ffffb3" stroke="#000000" points="2115.7535,-122 2022.2465,-122 2022.2465,-86 2115.7535,-86 2115.7535,-122"/>
<text text-anchor="middle" x="2069" y="-99.8" font-family="Times,serif" font-size="14.00" fill="#000000">CartPricePipe</text>
</g>
<!-- CartPricePipe&#45;&gt;PricingModule -->
<g id="edge3" class="edge">
<title>CartPricePipe&#45;&gt;PricingModule</title>
<path fill="none" stroke="#000000" d="M2042.3421,-122.2667C2042.3421,-140.5552 2042.3421,-166 2042.3421,-166 2042.3421,-166 1403.0143,-166 1403.0143,-166"/>
<polygon fill="#000000" stroke="#000000" points="1403.0143,-162.5001 1393.0143,-166 1403.0143,-169.5001 1403.0143,-162.5001"/>
</g>
<!-- FormatCurrencyPipe -->
<g id="node4" class="node">
<title>FormatCurrencyPipe</title>
<polygon fill="#ffffb3" stroke="#000000" points="2003.9144,-122 1870.0856,-122 1870.0856,-86 2003.9144,-86 2003.9144,-122"/>
<text text-anchor="middle" x="1937" y="-99.8" font-family="Times,serif" font-size="14.00" fill="#000000">FormatCurrencyPipe</text>
</g>
<!-- FormatCurrencyPipe&#45;&gt;PricingModule -->
<g id="edge4" class="edge">
<title>FormatCurrencyPipe&#45;&gt;PricingModule</title>
<path fill="none" stroke="#000000" d="M1878.874,-122.0225C1878.874,-139.3734 1878.874,-163 1878.874,-163 1878.874,-163 1403.4137,-163 1403.4137,-163"/>
<polygon fill="#000000" stroke="#000000" points="1403.4138,-159.5001 1393.4137,-163 1403.4137,-166.5001 1403.4138,-159.5001"/>
</g>
<!-- LocalCurrencyPipe -->
<g id="node5" class="node">
<title>LocalCurrencyPipe</title>
<polygon fill="#ffffb3" stroke="#000000" points="1852.3473,-122 1727.6527,-122 1727.6527,-86 1852.3473,-86 1852.3473,-122"/>
<text text-anchor="middle" x="1790" y="-99.8" font-family="Times,serif" font-size="14.00" fill="#000000">LocalCurrencyPipe</text>
</g>
<!-- LocalCurrencyPipe&#45;&gt;PricingModule -->
<g id="edge5" class="edge">
<title>LocalCurrencyPipe&#45;&gt;PricingModule</title>
<path fill="none" stroke="#000000" d="M1737.1015,-122.027C1737.1015,-138.3976 1737.1015,-160 1737.1015,-160 1737.1015,-160 1403.3135,-160 1403.3135,-160"/>
<polygon fill="#000000" stroke="#000000" points="1403.3136,-156.5001 1393.3135,-160 1403.3135,-163.5001 1403.3136,-156.5001"/>
</g>
<!-- OptionPricePipe -->
<g id="node6" class="node">
<title>OptionPricePipe</title>
<polygon fill="#ffffb3" stroke="#000000" points="1709.0396,-122 1600.9604,-122 1600.9604,-86 1709.0396,-86 1709.0396,-122"/>
<text text-anchor="middle" x="1655" y="-99.8" font-family="Times,serif" font-size="14.00" fill="#000000">OptionPricePipe</text>
</g>
<!-- OptionPricePipe&#45;&gt;PricingModule -->
<g id="edge6" class="edge">
<title>OptionPricePipe&#45;&gt;PricingModule</title>
<path fill="none" stroke="#000000" d="M1616.0938,-122.2396C1616.0938,-137.5706 1616.0938,-157 1616.0938,-157 1616.0938,-157 1403.0896,-157 1403.0896,-157"/>
<polygon fill="#000000" stroke="#000000" points="1403.0896,-153.5001 1393.0896,-157 1403.0896,-160.5001 1403.0896,-153.5001"/>
</g>
<!-- OrderPricePipe -->
<g id="node7" class="node">
<title>OrderPricePipe</title>
<polygon fill="#ffffb3" stroke="#000000" points="1583.2936,-122 1480.7064,-122 1480.7064,-86 1583.2936,-86 1583.2936,-122"/>
<text text-anchor="middle" x="1532" y="-99.8" font-family="Times,serif" font-size="14.00" fill="#000000">OrderPricePipe</text>
</g>
<!-- OrderPricePipe&#45;&gt;PricingModule -->
<g id="edge7" class="edge">
<title>OrderPricePipe&#45;&gt;PricingModule</title>
<path fill="none" stroke="#000000" d="M1487.6983,-122.0511C1487.6983,-136.373 1487.6983,-154 1487.6983,-154 1487.6983,-154 1403.2023,-154 1403.2023,-154"/>
<polygon fill="#000000" stroke="#000000" points="1403.2024,-150.5001 1393.2023,-154 1403.2023,-157.5001 1403.2024,-150.5001"/>
</g>
<!-- PriceComponent -->
<g id="node8" class="node">
<title>PriceComponent</title>
<polygon fill="#ffffb3" stroke="#000000" points="1463.0954,-122 1352.9046,-122 1352.9046,-86 1463.0954,-86 1463.0954,-122"/>
<text text-anchor="middle" x="1408" y="-99.8" font-family="Times,serif" font-size="14.00" fill="#000000">PriceComponent</text>
</g>
<!-- PriceComponent&#45;&gt;PricingModule -->
<g id="edge8" class="edge">
<title>PriceComponent&#45;&gt;PricingModule</title>
<path fill="none" stroke="#000000" d="M1372.9734,-122.1061C1372.9734,-122.1061 1372.9734,-140.991 1372.9734,-140.991"/>
<polygon fill="#000000" stroke="#000000" points="1369.4734,-140.9909 1372.9734,-150.991 1376.4734,-140.991 1369.4734,-140.9909"/>
</g>
<!-- PriceMatrixFilter -->
<g id="node9" class="node">
<title>PriceMatrixFilter</title>
<polygon fill="#ffffb3" stroke="#000000" points="1334.6938,-122 1221.3062,-122 1221.3062,-86 1334.6938,-86 1334.6938,-122"/>
<text text-anchor="middle" x="1278" y="-99.8" font-family="Times,serif" font-size="14.00" fill="#000000">PriceMatrixFilter</text>
</g>
<!-- PriceMatrixFilter&#45;&gt;PricingModule -->
<g id="edge9" class="edge">
<title>PriceMatrixFilter&#45;&gt;PricingModule</title>
<path fill="none" stroke="#000000" d="M1313.8012,-122.1061C1313.8012,-122.1061 1313.8012,-140.991 1313.8012,-140.991"/>
<polygon fill="#000000" stroke="#000000" points="1310.3013,-140.9909 1313.8012,-150.991 1317.3013,-140.991 1310.3013,-140.9909"/>
</g>
<!-- ProductPricePipe -->
<g id="node10" class="node">
<title>ProductPricePipe</title>
<polygon fill="#ffffb3" stroke="#000000" points="1203.6994,-122 1090.3006,-122 1090.3006,-86 1203.6994,-86 1203.6994,-122"/>
<text text-anchor="middle" x="1147" y="-99.8" font-family="Times,serif" font-size="14.00" fill="#000000">ProductPricePipe</text>
</g>
<!-- ProductPricePipe&#45;&gt;PricingModule -->
<g id="edge10" class="edge">
<title>ProductPricePipe&#45;&gt;PricingModule</title>
<path fill="none" stroke="#000000" d="M1164.6322,-122.0511C1164.6322,-136.373 1164.6322,-154 1164.6322,-154 1164.6322,-154 1282.84,-154 1282.84,-154"/>
<polygon fill="#000000" stroke="#000000" points="1282.84,-157.5001 1292.84,-154 1282.8399,-150.5001 1282.84,-157.5001"/>
</g>
<!-- AttributeValuePricePipe  -->
<g id="node12" class="node">
<title>AttributeValuePricePipe </title>
<polygon fill="#fb8072" stroke="#000000" points="2062.6214,-252 1905.3786,-252 1905.3786,-216 2062.6214,-216 2062.6214,-252"/>
<text text-anchor="middle" x="1984" y="-229.8" font-family="Times,serif" font-size="14.00" fill="#000000">AttributeValuePricePipe </text>
</g>
<!-- PricingModule&#45;&gt;AttributeValuePricePipe  -->
<g id="edge11" class="edge">
<title>PricingModule&#45;&gt;AttributeValuePricePipe </title>
<path fill="none" stroke="#000000" stroke-dasharray="5,2" d="M1393.0476,-175C1539.1091,-175 1954.5731,-175 1954.5731,-175 1954.5731,-175 1954.5731,-205.9775 1954.5731,-205.9775"/>
<polygon fill="#000000" stroke="#000000" points="1951.0732,-205.9774 1954.5731,-215.9775 1958.0732,-205.9775 1951.0732,-205.9774"/>
</g>
<!-- CartItemPricePipe  -->
<g id="node13" class="node">
<title>CartItemPricePipe </title>
<polygon fill="#fb8072" stroke="#000000" points="1887.4096,-252 1764.5904,-252 1764.5904,-216 1887.4096,-216 1887.4096,-252"/>
<text text-anchor="middle" x="1826" y="-229.8" font-family="Times,serif" font-size="14.00" fill="#000000">CartItemPricePipe </text>
</g>
<!-- PricingModule&#45;&gt;CartItemPricePipe  -->
<g id="edge12" class="edge">
<title>PricingModule&#45;&gt;CartItemPricePipe </title>
<path fill="none" stroke="#000000" stroke-dasharray="5,2" d="M1393.2573,-178C1513.6213,-178 1808.4844,-178 1808.4844,-178 1808.4844,-178 1808.4844,-205.973 1808.4844,-205.973"/>
<polygon fill="#000000" stroke="#000000" points="1804.9845,-205.973 1808.4844,-215.973 1811.9845,-205.973 1804.9845,-205.973"/>
</g>
<!-- CartPricePipe  -->
<g id="node14" class="node">
<title>CartPricePipe </title>
<polygon fill="#fb8072" stroke="#000000" points="1746.7535,-252 1649.2465,-252 1649.2465,-216 1746.7535,-216 1746.7535,-252"/>
<text text-anchor="middle" x="1698" y="-229.8" font-family="Times,serif" font-size="14.00" fill="#000000">CartPricePipe </text>
</g>
<!-- PricingModule&#45;&gt;CartPricePipe  -->
<g id="edge13" class="edge">
<title>PricingModule&#45;&gt;CartPricePipe </title>
<path fill="none" stroke="#000000" stroke-dasharray="5,2" d="M1393.3507,-181C1487.1731,-181 1679.3214,-181 1679.3214,-181 1679.3214,-181 1679.3214,-205.7604 1679.3214,-205.7604"/>
<polygon fill="#000000" stroke="#000000" points="1675.8214,-205.7604 1679.3214,-215.7604 1682.8214,-205.7604 1675.8214,-205.7604"/>
</g>
<!-- FormatCurrencyPipe  -->
<g id="node15" class="node">
<title>FormatCurrencyPipe </title>
<polygon fill="#fb8072" stroke="#000000" points="1631.4138,-252 1494.5862,-252 1494.5862,-216 1631.4138,-216 1631.4138,-252"/>
<text text-anchor="middle" x="1563" y="-229.8" font-family="Times,serif" font-size="14.00" fill="#000000">FormatCurrencyPipe </text>
</g>
<!-- PricingModule&#45;&gt;FormatCurrencyPipe  -->
<g id="edge14" class="edge">
<title>PricingModule&#45;&gt;FormatCurrencyPipe </title>
<path fill="none" stroke="#000000" stroke-dasharray="5,2" d="M1393.1806,-184C1451.2067,-184 1538.8449,-184 1538.8449,-184 1538.8449,-184 1538.8449,-205.9489 1538.8449,-205.9489"/>
<polygon fill="#000000" stroke="#000000" points="1535.3449,-205.9488 1538.8449,-215.9489 1542.3449,-205.9489 1535.3449,-205.9488"/>
</g>
<!-- LocalCurrencyPipe  -->
<g id="node16" class="node">
<title>LocalCurrencyPipe </title>
<polygon fill="#fb8072" stroke="#000000" points="1476.3477,-252 1347.6523,-252 1347.6523,-216 1476.3477,-216 1476.3477,-252"/>
<text text-anchor="middle" x="1412" y="-229.8" font-family="Times,serif" font-size="14.00" fill="#000000">LocalCurrencyPipe </text>
</g>
<!-- PricingModule&#45;&gt;LocalCurrencyPipe  -->
<g id="edge15" class="edge">
<title>PricingModule&#45;&gt;LocalCurrencyPipe </title>
<path fill="none" stroke="#000000" stroke-dasharray="5,2" d="M1370.4104,-187.1061C1370.4104,-187.1061 1370.4104,-205.991 1370.4104,-205.991"/>
<polygon fill="#000000" stroke="#000000" points="1366.9105,-205.9909 1370.4104,-215.991 1373.9105,-205.991 1366.9105,-205.9909"/>
</g>
<!-- OptionPricePipe  -->
<g id="node17" class="node">
<title>OptionPricePipe </title>
<polygon fill="#fb8072" stroke="#000000" points="1330.0386,-252 1217.9614,-252 1217.9614,-216 1330.0386,-216 1330.0386,-252"/>
<text text-anchor="middle" x="1274" y="-229.8" font-family="Times,serif" font-size="14.00" fill="#000000">OptionPricePipe </text>
</g>
<!-- PricingModule&#45;&gt;OptionPricePipe  -->
<g id="edge16" class="edge">
<title>PricingModule&#45;&gt;OptionPricePipe </title>
<path fill="none" stroke="#000000" stroke-dasharray="5,2" d="M1311.5125,-187.1061C1311.5125,-187.1061 1311.5125,-205.991 1311.5125,-205.991"/>
<polygon fill="#000000" stroke="#000000" points="1308.0125,-205.9909 1311.5125,-215.991 1315.0125,-205.991 1308.0125,-205.9909"/>
</g>
<!-- OrderPricePipe  -->
<g id="node18" class="node">
<title>OrderPricePipe </title>
<polygon fill="#fb8072" stroke="#000000" points="1199.7934,-252 1094.2066,-252 1094.2066,-216 1199.7934,-216 1199.7934,-252"/>
<text text-anchor="middle" x="1147" y="-229.8" font-family="Times,serif" font-size="14.00" fill="#000000">OrderPricePipe </text>
</g>
<!-- PricingModule&#45;&gt;OrderPricePipe  -->
<g id="edge17" class="edge">
<title>PricingModule&#45;&gt;OrderPricePipe </title>
<path fill="none" stroke="#000000" stroke-dasharray="5,2" d="M1292.9127,-184C1229.7695,-184 1129.3678,-184 1129.3678,-184 1129.3678,-184 1129.3678,-205.9489 1129.3678,-205.9489"/>
<polygon fill="#000000" stroke="#000000" points="1125.8679,-205.9488 1129.3678,-215.9489 1132.8679,-205.9489 1125.8679,-205.9488"/>
</g>
<!-- PriceComponent  -->
<g id="node19" class="node">
<title>PriceComponent </title>
<polygon fill="#fb8072" stroke="#000000" points="1075.5961,-252 962.4039,-252 962.4039,-216 1075.5961,-216 1075.5961,-252"/>
<text text-anchor="middle" x="1019" y="-229.8" font-family="Times,serif" font-size="14.00" fill="#000000">PriceComponent </text>
</g>
<!-- PricingModule&#45;&gt;PriceComponent  -->
<g id="edge18" class="edge">
<title>PricingModule&#45;&gt;PriceComponent </title>
<path fill="none" stroke="#000000" stroke-dasharray="5,2" d="M1292.7306,-181C1214.0385,-181 1070.6565,-181 1070.6565,-181 1070.6565,-181 1070.6565,-205.7604 1070.6565,-205.7604"/>
<polygon fill="#000000" stroke="#000000" points="1067.1566,-205.7604 1070.6565,-215.7604 1074.1566,-205.7604 1067.1566,-205.7604"/>
</g>
<!-- PriceMatrixFilter  -->
<g id="node20" class="node">
<title>PriceMatrixFilter </title>
<polygon fill="#fb8072" stroke="#000000" points="944.194,-252 827.806,-252 827.806,-216 944.194,-216 944.194,-252"/>
<text text-anchor="middle" x="886" y="-229.8" font-family="Times,serif" font-size="14.00" fill="#000000">PriceMatrixFilter </text>
</g>
<!-- PricingModule&#45;&gt;PriceMatrixFilter  -->
<g id="edge19" class="edge">
<title>PricingModule&#45;&gt;PriceMatrixFilter </title>
<path fill="none" stroke="#000000" stroke-dasharray="5,2" d="M1292.8646,-178C1180.9264,-178 920.4158,-178 920.4158,-178 920.4158,-178 920.4158,-205.973 920.4158,-205.973"/>
<polygon fill="#000000" stroke="#000000" points="916.9159,-205.973 920.4158,-215.973 923.9159,-205.973 916.9159,-205.973"/>
</g>
<!-- ProductPricePipe  -->
<g id="node21" class="node">
<title>ProductPricePipe </title>
<polygon fill="#fb8072" stroke="#000000" points="809.1996,-252 692.8004,-252 692.8004,-216 809.1996,-216 809.1996,-252"/>
<text text-anchor="middle" x="751" y="-229.8" font-family="Times,serif" font-size="14.00" fill="#000000">ProductPricePipe </text>
</g>
<!-- PricingModule&#45;&gt;ProductPricePipe  -->
<g id="edge20" class="edge">
<title>PricingModule&#45;&gt;ProductPricePipe </title>
<path fill="none" stroke="#000000" stroke-dasharray="5,2" d="M1292.8156,-175C1149.9688,-175 751.3989,-175 751.3989,-175 751.3989,-175 751.3989,-205.9775 751.3989,-205.9775"/>
<polygon fill="#000000" stroke="#000000" points="747.899,-205.9774 751.3989,-215.9775 754.899,-205.9775 747.899,-205.9774"/>
</g>
<!-- ConversionService -->
<g id="node22" class="node">
<title>ConversionService</title>
<ellipse fill="#fdb462" stroke="#000000" cx="981" cy="-104" rx="84.5305" ry="18"/>
<text text-anchor="middle" x="981" y="-99.8" font-family="Times,serif" font-size="14.00" fill="#000000">ConversionService</text>
</g>
<!-- ConversionService&#45;&gt;PricingModule -->
<g id="edge21" class="edge">
<title>ConversionService&#45;&gt;PricingModule</title>
<path fill="none" stroke="#000000" d="M1013.8588,-120.7695C1013.8588,-136.2969 1013.8588,-157 1013.8588,-157 1013.8588,-157 1283.0105,-157 1283.0105,-157"/>
<polygon fill="#000000" stroke="#000000" points="1283.0106,-160.5001 1293.0105,-157 1283.0105,-153.5001 1283.0106,-160.5001"/>
</g>
<!-- PriceListItemService -->
<g id="node23" class="node">
<title>PriceListItemService</title>
<ellipse fill="#fdb462" stroke="#000000" cx="786" cy="-104" rx="92.6035" ry="18"/>
<text text-anchor="middle" x="786" y="-99.8" font-family="Times,serif" font-size="14.00" fill="#000000">PriceListItemService</text>
</g>
<!-- PriceListItemService&#45;&gt;PricingModule -->
<g id="edge22" class="edge">
<title>PriceListItemService&#45;&gt;PricingModule</title>
<path fill="none" stroke="#000000" d="M853.1025,-116.4282C853.1025,-132.9263 853.1025,-160 853.1025,-160 853.1025,-160 1282.8746,-160 1282.8746,-160"/>
<polygon fill="#000000" stroke="#000000" points="1282.8747,-163.5001 1292.8746,-160 1282.8746,-156.5001 1282.8747,-163.5001"/>
</g>
<!-- PriceListService -->
<g id="node24" class="node">
<title>PriceListService</title>
<ellipse fill="#fdb462" stroke="#000000" cx="601" cy="-104" rx="74.7091" ry="18"/>
<text text-anchor="middle" x="601" y="-99.8" font-family="Times,serif" font-size="14.00" fill="#000000">PriceListService</text>
</g>
<!-- PriceListService&#45;&gt;PricingModule -->
<g id="edge23" class="edge">
<title>PriceListService&#45;&gt;PricingModule</title>
<path fill="none" stroke="#000000" d="M601,-122.0225C601,-139.3734 601,-163 601,-163 601,-163 1282.8733,-163 1282.8733,-163"/>
<polygon fill="#000000" stroke="#000000" points="1282.8733,-166.5001 1292.8733,-163 1282.8732,-159.5001 1282.8733,-166.5001"/>
</g>
<!-- PriceMatrixService -->
<g id="node25" class="node">
<title>PriceMatrixService</title>
<ellipse fill="#fdb462" stroke="#000000" cx="422" cy="-104" rx="86.2271" ry="18"/>
<text text-anchor="middle" x="422" y="-99.8" font-family="Times,serif" font-size="14.00" fill="#000000">PriceMatrixService</text>
</g>
<!-- PriceMatrixService&#45;&gt;PricingModule -->
<g id="edge24" class="edge">
<title>PriceMatrixService&#45;&gt;PricingModule</title>
<path fill="none" stroke="#000000" d="M422,-122.2667C422,-140.5552 422,-166 422,-166 422,-166 1282.829,-166 1282.829,-166"/>
<polygon fill="#000000" stroke="#000000" points="1282.829,-169.5001 1292.829,-166 1282.8289,-162.5001 1282.829,-169.5001"/>
</g>
<!-- PriceRuleService -->
<g id="node26" class="node">
<title>PriceRuleService</title>
<ellipse fill="#fdb462" stroke="#000000" cx="240" cy="-104" rx="78.1424" ry="18"/>
<text text-anchor="middle" x="240" y="-99.8" font-family="Times,serif" font-size="14.00" fill="#000000">PriceRuleService</text>
</g>
<!-- PriceRuleService&#45;&gt;PricingModule -->
<g id="edge25" class="edge">
<title>PriceRuleService&#45;&gt;PricingModule</title>
<path fill="none" stroke="#000000" d="M240,-122.1061C240,-141.3391 240,-169 240,-169 240,-169 1282.7402,-169 1282.7402,-169"/>
<polygon fill="#000000" stroke="#000000" points="1282.7403,-172.5001 1292.7402,-169 1282.7402,-165.5001 1282.7403,-172.5001"/>
</g>
<!-- PriceService -->
<g id="node27" class="node">
<title>PriceService</title>
<ellipse fill="#fdb462" stroke="#000000" cx="84" cy="-104" rx="59.6646" ry="18"/>
<text text-anchor="middle" x="84" y="-99.8" font-family="Times,serif" font-size="14.00" fill="#000000">PriceService</text>
</g>
<!-- PriceService&#45;&gt;PricingModule -->
<g id="edge26" class="edge">
<title>PriceService&#45;&gt;PricingModule</title>
<path fill="none" stroke="#000000" d="M84,-122.2228C84,-142.3652 84,-172 84,-172 84,-172 1282.8688,-172 1282.8688,-172"/>
<polygon fill="#000000" stroke="#000000" points="1282.8688,-175.5001 1292.8688,-172 1282.8687,-168.5001 1282.8688,-175.5001"/>
</g>
</g>
</svg>
