<?xml version="1.0" encoding="UTF-8" standalone="no"?>
<!DOCTYPE svg PUBLIC "-//W3C//DTD SVG 1.1//EN"
 "http://www.w3.org/Graphics/SVG/1.1/DTD/svg11.dtd">
<!-- Generated by graphviz version 2.40.1 (20161225.0304)
 -->
<!-- Title: dependencies Pages: 1 -->
<svg width="1645pt" height="211pt"
 viewBox="0.00 0.00 1645.00 211.00" xmlns="http://www.w3.org/2000/svg" xmlns:xlink="http://www.w3.org/1999/xlink">
<g id="graph0" class="graph" transform="scale(1 1) rotate(0) translate(4 207)">
<title>dependencies</title>
<polygon fill="#ffffff" stroke="transparent" points="-4,4 -4,-207 1641,-207 1641,4 -4,4"/>
<text text-anchor="start" x="797.5091" y="-42.4" font-family="sans-serif" font-weight="bold" font-size="14.00" fill="#000000">Legend</text>
<polygon fill="#ffffb3" stroke="transparent" points="584.5,-10 584.5,-30 604.5,-30 604.5,-10 584.5,-10"/>
<text text-anchor="start" x="608.129" y="-15.4" font-family="sans-serif" font-size="14.00" fill="#000000"> &#160;Declarations</text>
<polygon fill="#8dd3c7" stroke="transparent" points="697.5,-10 697.5,-30 717.5,-30 717.5,-10 697.5,-10"/>
<text text-anchor="start" x="721.2251" y="-15.4" font-family="sans-serif" font-size="14.00" fill="#000000"> &#160;Module</text>
<polygon fill="#80b1d3" stroke="transparent" points="783.5,-10 783.5,-30 803.5,-30 803.5,-10 783.5,-10"/>
<text text-anchor="start" x="807.2812" y="-15.4" font-family="sans-serif" font-size="14.00" fill="#000000"> &#160;Bootstrap</text>
<polygon fill="#fdb462" stroke="transparent" points="880.5,-10 880.5,-30 900.5,-30 900.5,-10 880.5,-10"/>
<text text-anchor="start" x="904.1732" y="-15.4" font-family="sans-serif" font-size="14.00" fill="#000000"> &#160;Providers</text>
<polygon fill="#fb8072" stroke="transparent" points="976.5,-10 976.5,-30 996.5,-30 996.5,-10 976.5,-10"/>
<text text-anchor="start" x="1000.2258" y="-15.4" font-family="sans-serif" font-size="14.00" fill="#000000"> &#160;Exports</text>
<g id="clust1" class="cluster">
<title>cluster_CartModule</title>
<polygon fill="none" stroke="#000000" stroke-dasharray="1,5" points="8,-70 8,-195 1629,-195 1629,-70 8,-70"/>
</g>
<g id="clust2" class="cluster">
<title>cluster_CartModule_declarations</title>
<polygon fill="none" stroke="#000000" points="1019,-78 1019,-130 1621,-130 1621,-78 1019,-78"/>
</g>
<g id="clust7" class="cluster">
<title>cluster_CartModule_imports</title>
<polygon fill="none" stroke="#000000" points="16,-78 16,-130 1011,-130 1011,-78 16,-78"/>
</g>
<!-- CardFormComponent -->
<g id="node1" class="node">
<title>CardFormComponent</title>
<polygon fill="#ffffb3" stroke="#000000" points="1613.3781,-122 1474.6219,-122 1474.6219,-86 1613.3781,-86 1613.3781,-122"/>
<text text-anchor="middle" x="1544" y="-99.8" font-family="Times,serif" font-size="14.00" fill="#000000">CardFormComponent</text>
</g>
<!-- CartModule -->
<g id="node5" class="node">
<title>CartModule</title>
<polygon fill="#8dd3c7" stroke="#000000" points="856.6529,-187 853.6529,-191 832.6529,-191 829.6529,-187 773.3471,-187 773.3471,-151 856.6529,-151 856.6529,-187"/>
<text text-anchor="middle" x="815" y="-164.8" font-family="Times,serif" font-size="14.00" fill="#000000">CartModule</text>
</g>
<!-- CardFormComponent&#45;&gt;CartModule -->
<g id="edge1" class="edge">
<title>CardFormComponent&#45;&gt;CartModule</title>
<path fill="none" stroke="#000000" d="M1544,-122.0908C1544,-145.1328 1544,-182 1544,-182 1544,-182 866.8125,-182 866.8125,-182"/>
<polygon fill="#000000" stroke="#000000" points="866.8126,-178.5001 856.8125,-182 866.8125,-185.5001 866.8126,-178.5001"/>
</g>
<!-- CartComponent -->
<g id="node2" class="node">
<title>CartComponent</title>
<polygon fill="#ffffb3" stroke="#000000" points="1456.9357,-122 1351.0643,-122 1351.0643,-86 1456.9357,-86 1456.9357,-122"/>
<text text-anchor="middle" x="1404" y="-99.8" font-family="Times,serif" font-size="14.00" fill="#000000">CartComponent</text>
</g>
<!-- CartComponent&#45;&gt;CartModule -->
<g id="edge2" class="edge">
<title>CartComponent&#45;&gt;CartModule</title>
<path fill="none" stroke="#000000" d="M1404,-122.2843C1404,-143.3211 1404,-175 1404,-175 1404,-175 866.8872,-175 866.8872,-175"/>
<polygon fill="#000000" stroke="#000000" points="866.8873,-171.5001 856.8872,-175 866.8872,-178.5001 866.8873,-171.5001"/>
</g>
<!-- CybersourceComponent -->
<g id="node3" class="node">
<title>CybersourceComponent</title>
<polygon fill="#ffffb3" stroke="#000000" points="1333.0786,-122 1180.9214,-122 1180.9214,-86 1333.0786,-86 1333.0786,-122"/>
<text text-anchor="middle" x="1257" y="-99.8" font-family="Times,serif" font-size="14.00" fill="#000000">CybersourceComponent</text>
</g>
<!-- CybersourceComponent&#45;&gt;CartModule -->
<g id="edge3" class="edge">
<title>CybersourceComponent&#45;&gt;CartModule</title>
<path fill="none" stroke="#000000" d="M1257,-122.1061C1257,-141.3391 1257,-169 1257,-169 1257,-169 866.9808,-169 866.9808,-169"/>
<polygon fill="#000000" stroke="#000000" points="866.9808,-165.5001 856.9808,-169 866.9807,-172.5001 866.9808,-165.5001"/>
</g>
<!-- SummaryComponent -->
<g id="node4" class="node">
<title>SummaryComponent</title>
<polygon fill="#ffffb3" stroke="#000000" points="1162.7716,-122 1027.2284,-122 1027.2284,-86 1162.7716,-86 1162.7716,-122"/>
<text text-anchor="middle" x="1095" y="-99.8" font-family="Times,serif" font-size="14.00" fill="#000000">SummaryComponent</text>
</g>
<!-- SummaryComponent&#45;&gt;CartModule -->
<g id="edge4" class="edge">
<title>SummaryComponent&#45;&gt;CartModule</title>
<path fill="none" stroke="#000000" d="M1095,-122.0225C1095,-139.3734 1095,-163 1095,-163 1095,-163 866.9188,-163 866.9188,-163"/>
<polygon fill="#000000" stroke="#000000" points="866.9189,-159.5001 856.9188,-163 866.9188,-166.5001 866.9189,-159.5001"/>
</g>
<!-- AddressModule -->
<g id="node6" class="node">
<title>AddressModule</title>
<polygon fill="#8dd3c7" stroke="#000000" points="1002.9216,-122 999.9216,-126 978.9216,-126 975.9216,-122 897.0784,-122 897.0784,-86 1002.9216,-86 1002.9216,-122"/>
<text text-anchor="middle" x="950" y="-99.8" font-family="Times,serif" font-size="14.00" fill="#000000">AddressModule</text>
</g>
<!-- AddressModule&#45;&gt;CartModule -->
<g id="edge5" class="edge">
<title>AddressModule&#45;&gt;CartModule</title>
<path fill="none" stroke="#000000" d="M950,-122.2396C950,-137.5706 950,-157 950,-157 950,-157 866.9748,-157 866.9748,-157"/>
<polygon fill="#000000" stroke="#000000" points="866.9749,-153.5001 856.9748,-157 866.9748,-160.5001 866.9749,-153.5001"/>
</g>
<!-- CartRoutingModule -->
<g id="node7" class="node">
<title>CartRoutingModule</title>
<polygon fill="#8dd3c7" stroke="#000000" points="879.2702,-122 876.2702,-126 855.2702,-126 852.2702,-122 750.7298,-122 750.7298,-86 879.2702,-86 879.2702,-122"/>
<text text-anchor="middle" x="815" y="-99.8" font-family="Times,serif" font-size="14.00" fill="#000000">CartRoutingModule</text>
</g>
<!-- CartRoutingModule&#45;&gt;CartModule -->
<g id="edge6" class="edge">
<title>CartRoutingModule&#45;&gt;CartModule</title>
<path fill="none" stroke="#000000" d="M815,-122.1061C815,-122.1061 815,-140.991 815,-140.991"/>
<polygon fill="#000000" stroke="#000000" points="811.5001,-140.9909 815,-150.991 818.5001,-140.991 811.5001,-140.9909"/>
</g>
<!-- MdSpinnerModule -->
<g id="node8" class="node">
<title>MdSpinnerModule</title>
<polygon fill="#8dd3c7" stroke="#000000" points="732.0436,-122 729.0436,-126 708.0436,-126 705.0436,-122 609.9564,-122 609.9564,-86 732.0436,-86 732.0436,-122"/>
<text text-anchor="middle" x="671" y="-99.8" font-family="Times,serif" font-size="14.00" fill="#000000">MdSpinnerModule</text>
</g>
<!-- MdSpinnerModule&#45;&gt;CartModule -->
<g id="edge7" class="edge">
<title>MdSpinnerModule&#45;&gt;CartModule</title>
<path fill="none" stroke="#000000" d="M671,-122.2396C671,-137.5706 671,-157 671,-157 671,-157 762.9621,-157 762.9621,-157"/>
<polygon fill="#000000" stroke="#000000" points="762.9622,-160.5001 772.9621,-157 762.9621,-153.5001 762.9622,-160.5001"/>
</g>
<!-- PriceModule -->
<g id="node9" class="node">
<title>PriceModule</title>
<polygon fill="#8dd3c7" stroke="#000000" points="592.3134,-122 589.3134,-126 568.3134,-126 565.3134,-122 503.6866,-122 503.6866,-86 592.3134,-86 592.3134,-122"/>
<text text-anchor="middle" x="548" y="-99.8" font-family="Times,serif" font-size="14.00" fill="#000000">PriceModule</text>
</g>
<!-- PriceModule&#45;&gt;CartModule -->
<g id="edge8" class="edge">
<title>PriceModule&#45;&gt;CartModule</title>
<path fill="none" stroke="#000000" d="M548,-122.0225C548,-139.3734 548,-163 548,-163 548,-163 763.2813,-163 763.2813,-163"/>
<polygon fill="#000000" stroke="#000000" points="763.2813,-166.5001 773.2813,-163 763.2812,-159.5001 763.2813,-166.5001"/>
</g>
<!-- PricingModule -->
<g id="node10" class="node">
<title>PricingModule</title>
<polygon fill="#8dd3c7" stroke="#000000" points="485.9888,-122 482.9888,-126 461.9888,-126 458.9888,-122 386.0112,-122 386.0112,-86 485.9888,-86 485.9888,-122"/>
<text text-anchor="middle" x="436" y="-99.8" font-family="Times,serif" font-size="14.00" fill="#000000">PricingModule</text>
</g>
<!-- PricingModule&#45;&gt;CartModule -->
<g id="edge9" class="edge">
<title>PricingModule&#45;&gt;CartModule</title>
<path fill="none" stroke="#000000" d="M436,-122.1061C436,-141.3391 436,-169 436,-169 436,-169 762.9923,-169 762.9923,-169"/>
<polygon fill="#000000" stroke="#000000" points="762.9923,-172.5001 772.9923,-169 762.9923,-165.5001 762.9923,-172.5001"/>
</g>
<!-- ProductConfigurationSummaryModule -->
<g id="node11" class="node">
<title>ProductConfigurationSummaryModule</title>
<polygon fill="#8dd3c7" stroke="#000000" points="368.0814,-122 365.0814,-126 344.0814,-126 341.0814,-122 131.9186,-122 131.9186,-86 368.0814,-86 368.0814,-122"/>
<text text-anchor="middle" x="250" y="-99.8" font-family="Times,serif" font-size="14.00" fill="#000000">ProductConfigurationSummaryModule</text>
</g>
<!-- ProductConfigurationSummaryModule&#45;&gt;CartModule -->
<g id="edge10" class="edge">
<title>ProductConfigurationSummaryModule&#45;&gt;CartModule</title>
<path fill="none" stroke="#000000" d="M250,-122.2843C250,-143.3211 250,-175 250,-175 250,-175 762.9948,-175 762.9948,-175"/>
<polygon fill="#000000" stroke="#000000" points="762.9948,-178.5001 772.9948,-175 762.9947,-171.5001 762.9948,-178.5001"/>
</g>
<!-- StoreModule -->
<g id="node12" class="node">
<title>StoreModule</title>
<polygon fill="#8dd3c7" stroke="#000000" points="113.5983,-122 110.5983,-126 89.5983,-126 86.5983,-122 24.4017,-122 24.4017,-86 113.5983,-86 113.5983,-122"/>
<text text-anchor="middle" x="69" y="-99.8" font-family="Times,serif" font-size="14.00" fill="#000000">StoreModule</text>
</g>
<!-- StoreModule&#45;&gt;CartModule -->
<g id="edge11" class="edge">
<title>StoreModule&#45;&gt;CartModule</title>
<path fill="none" stroke="#000000" d="M69,-122.0908C69,-145.1328 69,-182 69,-182 69,-182 763.2933,-182 763.2933,-182"/>
<polygon fill="#000000" stroke="#000000" points="763.2933,-185.5001 773.2933,-182 763.2933,-178.5001 763.2933,-185.5001"/>
</g>
</g>
</svg>
