<?xml version="1.0" encoding="UTF-8" standalone="no"?>
<!DOCTYPE svg PUBLIC "-//W3C//DTD SVG 1.1//EN"
 "http://www.w3.org/Graphics/SVG/1.1/DTD/svg11.dtd">
<!-- Generated by graphviz version 2.40.1 (20161225.0304)
 -->
<!-- Title: dependencies Pages: 1 -->
<svg width="1020pt" height="211pt"
 viewBox="0.00 0.00 1020.00 211.00" xmlns="http://www.w3.org/2000/svg" xmlns:xlink="http://www.w3.org/1999/xlink">
<g id="graph0" class="graph" transform="scale(1 1) rotate(0) translate(4 207)">
<title>dependencies</title>
<polygon fill="#ffffff" stroke="transparent" points="-4,4 -4,-207 1016,-207 1016,4 -4,4"/>
<text text-anchor="start" x="485.0091" y="-42.4" font-family="sans-serif" font-weight="bold" font-size="14.00" fill="#000000">Legend</text>
<polygon fill="#ffffb3" stroke="transparent" points="272,-10 272,-30 292,-30 292,-10 272,-10"/>
<text text-anchor="start" x="295.629" y="-15.4" font-family="sans-serif" font-size="14.00" fill="#000000"> &#160;Declarations</text>
<polygon fill="#8dd3c7" stroke="transparent" points="385,-10 385,-30 405,-30 405,-10 385,-10"/>
<text text-anchor="start" x="408.7251" y="-15.4" font-family="sans-serif" font-size="14.00" fill="#000000"> &#160;Module</text>
<polygon fill="#80b1d3" stroke="transparent" points="471,-10 471,-30 491,-30 491,-10 471,-10"/>
<text text-anchor="start" x="494.7812" y="-15.4" font-family="sans-serif" font-size="14.00" fill="#000000"> &#160;Bootstrap</text>
<polygon fill="#fdb462" stroke="transparent" points="568,-10 568,-30 588,-30 588,-10 568,-10"/>
<text text-anchor="start" x="591.6732" y="-15.4" font-family="sans-serif" font-size="14.00" fill="#000000"> &#160;Providers</text>
<polygon fill="#fb8072" stroke="transparent" points="664,-10 664,-30 684,-30 684,-10 664,-10"/>
<text text-anchor="start" x="687.7258" y="-15.4" font-family="sans-serif" font-size="14.00" fill="#000000"> &#160;Exports</text>
<g id="clust1" class="cluster">
<title>cluster_CartModule</title>
<polygon fill="none" stroke="#000000" stroke-dasharray="1,5" points="8,-70 8,-195 1004,-195 1004,-70 8,-70"/>
</g>
<g id="clust2" class="cluster">
<title>cluster_CartModule_declarations</title>
<polygon fill="none" stroke="#000000" points="394,-78 394,-130 996,-130 996,-78 394,-78"/>
</g>
<g id="clust7" class="cluster">
<title>cluster_CartModule_imports</title>
<polygon fill="none" stroke="#000000" points="16,-78 16,-130 386,-130 386,-78 16,-78"/>
</g>
<!-- CardFormComponent -->
<g id="node1" class="node">
<title>CardFormComponent</title>
<polygon fill="#ffffb3" stroke="#000000" points="988.3781,-122 849.6219,-122 849.6219,-86 988.3781,-86 988.3781,-122"/>
<text text-anchor="middle" x="919" y="-99.8" font-family="Times,serif" font-size="14.00" fill="#000000">CardFormComponent</text>
</g>
<!-- CartModule -->
<g id="node5" class="node">
<title>CartModule</title>
<polygon fill="#8dd3c7" stroke="#000000" points="511.6529,-187 508.6529,-191 487.6529,-191 484.6529,-187 428.3471,-187 428.3471,-151 511.6529,-151 511.6529,-187"/>
<text text-anchor="middle" x="470" y="-164.8" font-family="Times,serif" font-size="14.00" fill="#000000">CartModule</text>
</g>
<!-- CardFormComponent&#45;&gt;CartModule -->
<g id="edge1" class="edge">
<title>CardFormComponent&#45;&gt;CartModule</title>
<path fill="none" stroke="#000000" d="M919,-122.2921C919,-144.2057 919,-178 919,-178 919,-178 521.8376,-178 521.8376,-178"/>
<polygon fill="#000000" stroke="#000000" points="521.8377,-174.5001 511.8376,-178 521.8376,-181.5001 521.8377,-174.5001"/>
</g>
<!-- CartComponent -->
<g id="node2" class="node">
<title>CartComponent</title>
<polygon fill="#ffffb3" stroke="#000000" points="831.9357,-122 726.0643,-122 726.0643,-86 831.9357,-86 831.9357,-122"/>
<text text-anchor="middle" x="779" y="-99.8" font-family="Times,serif" font-size="14.00" fill="#000000">CartComponent</text>
</g>
<!-- CartComponent&#45;&gt;CartModule -->
<g id="edge2" class="edge">
<title>CartComponent&#45;&gt;CartModule</title>
<path fill="none" stroke="#000000" d="M779,-122.1061C779,-141.3391 779,-169 779,-169 779,-169 521.6731,-169 521.6731,-169"/>
<polygon fill="#000000" stroke="#000000" points="521.6731,-165.5001 511.6731,-169 521.6731,-172.5001 521.6731,-165.5001"/>
</g>
<!-- CybersourceComponent -->
<g id="node3" class="node">
<title>CybersourceComponent</title>
<polygon fill="#ffffb3" stroke="#000000" points="708.0786,-122 555.9214,-122 555.9214,-86 708.0786,-86 708.0786,-122"/>
<text text-anchor="middle" x="632" y="-99.8" font-family="Times,serif" font-size="14.00" fill="#000000">CybersourceComponent</text>
</g>
<!-- CybersourceComponent&#45;&gt;CartModule -->
<g id="edge3" class="edge">
<title>CybersourceComponent&#45;&gt;CartModule</title>
<path fill="none" stroke="#000000" d="M632,-122.027C632,-138.3976 632,-160 632,-160 632,-160 521.719,-160 521.719,-160"/>
<polygon fill="#000000" stroke="#000000" points="521.7191,-156.5001 511.719,-160 521.719,-163.5001 521.7191,-156.5001"/>
</g>
<!-- SummaryComponent -->
<g id="node4" class="node">
<title>SummaryComponent</title>
<polygon fill="#ffffb3" stroke="#000000" points="537.7716,-122 402.2284,-122 402.2284,-86 537.7716,-86 537.7716,-122"/>
<text text-anchor="middle" x="470" y="-99.8" font-family="Times,serif" font-size="14.00" fill="#000000">SummaryComponent</text>
</g>
<!-- SummaryComponent&#45;&gt;CartModule -->
<g id="edge4" class="edge">
<title>SummaryComponent&#45;&gt;CartModule</title>
<path fill="none" stroke="#000000" d="M470,-122.1061C470,-122.1061 470,-140.991 470,-140.991"/>
<polygon fill="#000000" stroke="#000000" points="466.5001,-140.9909 470,-150.991 473.5001,-140.991 466.5001,-140.9909"/>
</g>
<!-- CartRoutingModule -->
<g id="node6" class="node">
<title>CartRoutingModule</title>
<polygon fill="#8dd3c7" stroke="#000000" points="378.2702,-122 375.2702,-126 354.2702,-126 351.2702,-122 249.7298,-122 249.7298,-86 378.2702,-86 378.2702,-122"/>
<text text-anchor="middle" x="314" y="-99.8" font-family="Times,serif" font-size="14.00" fill="#000000">CartRoutingModule</text>
</g>
<!-- CartRoutingModule&#45;&gt;CartModule -->
<g id="edge5" class="edge">
<title>CartRoutingModule&#45;&gt;CartModule</title>
<path fill="none" stroke="#000000" d="M314,-122.027C314,-138.3976 314,-160 314,-160 314,-160 418.1949,-160 418.1949,-160"/>
<polygon fill="#000000" stroke="#000000" points="418.1949,-163.5001 428.1949,-160 418.1948,-156.5001 418.1949,-163.5001"/>
</g>
<!-- PricingModule -->
<g id="node7" class="node">
<title>PricingModule</title>
<polygon fill="#8dd3c7" stroke="#000000" points="231.9888,-122 228.9888,-126 207.9888,-126 204.9888,-122 132.0112,-122 132.0112,-86 231.9888,-86 231.9888,-122"/>
<text text-anchor="middle" x="182" y="-99.8" font-family="Times,serif" font-size="14.00" fill="#000000">PricingModule</text>
</g>
<!-- PricingModule&#45;&gt;CartModule -->
<g id="edge6" class="edge">
<title>PricingModule&#45;&gt;CartModule</title>
<path fill="none" stroke="#000000" d="M182,-122.1061C182,-141.3391 182,-169 182,-169 182,-169 418.1223,-169 418.1223,-169"/>
<polygon fill="#000000" stroke="#000000" points="418.1224,-172.5001 428.1223,-169 418.1223,-165.5001 418.1224,-172.5001"/>
</g>
<!-- StoreModule -->
<g id="node8" class="node">
<title>StoreModule</title>
<polygon fill="#8dd3c7" stroke="#000000" points="113.5983,-122 110.5983,-126 89.5983,-126 86.5983,-122 24.4017,-122 24.4017,-86 113.5983,-86 113.5983,-122"/>
<text text-anchor="middle" x="69" y="-99.8" font-family="Times,serif" font-size="14.00" fill="#000000">StoreModule</text>
</g>
<!-- StoreModule&#45;&gt;CartModule -->
<g id="edge7" class="edge">
<title>StoreModule&#45;&gt;CartModule</title>
<path fill="none" stroke="#000000" d="M69,-122.2921C69,-144.2057 69,-178 69,-178 69,-178 418.2208,-178 418.2208,-178"/>
<polygon fill="#000000" stroke="#000000" points="418.2208,-181.5001 428.2208,-178 418.2207,-174.5001 418.2208,-181.5001"/>
</g>
</g>
</svg>
