<?xml version="1.0" encoding="UTF-8" standalone="no"?>
<!DOCTYPE svg PUBLIC "-//W3C//DTD SVG 1.1//EN"
 "http://www.w3.org/Graphics/SVG/1.1/DTD/svg11.dtd">
<!-- Generated by graphviz version 2.40.1 (20161225.0304)
 -->
<!-- Title: dependencies Pages: 1 -->
<svg width="504pt" height="284pt"
 viewBox="0.00 0.00 504.00 284.00" xmlns="http://www.w3.org/2000/svg" xmlns:xlink="http://www.w3.org/1999/xlink">
<g id="graph0" class="graph" transform="scale(1 1) rotate(0) translate(4 280)">
<title>dependencies</title>
<polygon fill="#ffffff" stroke="transparent" points="-4,4 -4,-280 500,-280 500,4 -4,4"/>
<text text-anchor="start" x="227.0091" y="-42.4" font-family="sans-serif" font-weight="bold" font-size="14.00" fill="#000000">Legend</text>
<polygon fill="#ffffb3" stroke="transparent" points="14,-10 14,-30 34,-30 34,-10 14,-10"/>
<text text-anchor="start" x="37.629" y="-15.4" font-family="sans-serif" font-size="14.00" fill="#000000"> &#160;Declarations</text>
<polygon fill="#8dd3c7" stroke="transparent" points="127,-10 127,-30 147,-30 147,-10 127,-10"/>
<text text-anchor="start" x="150.7251" y="-15.4" font-family="sans-serif" font-size="14.00" fill="#000000"> &#160;Module</text>
<polygon fill="#80b1d3" stroke="transparent" points="213,-10 213,-30 233,-30 233,-10 213,-10"/>
<text text-anchor="start" x="236.7812" y="-15.4" font-family="sans-serif" font-size="14.00" fill="#000000"> &#160;Bootstrap</text>
<polygon fill="#fdb462" stroke="transparent" points="310,-10 310,-30 330,-30 330,-10 310,-10"/>
<text text-anchor="start" x="333.6732" y="-15.4" font-family="sans-serif" font-size="14.00" fill="#000000"> &#160;Providers</text>
<polygon fill="#fb8072" stroke="transparent" points="406,-10 406,-30 426,-30 426,-10 406,-10"/>
<text text-anchor="start" x="429.7258" y="-15.4" font-family="sans-serif" font-size="14.00" fill="#000000"> &#160;Exports</text>
<g id="clust1" class="cluster">
<title>cluster_CartModule</title>
<polygon fill="none" stroke="#000000" stroke-dasharray="1,5" points="12,-70 12,-268 484,-268 484,-70 12,-70"/>
</g>
<g id="clust2" class="cluster">
<title>cluster_CartModule_declarations</title>
<polygon fill="none" stroke="#000000" points="164,-78 164,-130 476,-130 476,-78 164,-78"/>
</g>
<g id="clust5" class="cluster">
<title>cluster_CartModule_imports</title>
<polygon fill="none" stroke="#000000" points="20,-78 20,-130 156,-130 156,-78 20,-78"/>
</g>
<g id="clust6" class="cluster">
<title>cluster_CartModule_exports</title>
<polygon fill="none" stroke="#000000" points="89,-208 89,-260 407,-260 407,-208 89,-208"/>
</g>
<!-- AddToCartComponent -->
<g id="node1" class="node">
<title>AddToCartComponent</title>
<polygon fill="#ffffb3" stroke="#000000" points="467.594,-122 322.406,-122 322.406,-86 467.594,-86 467.594,-122"/>
<text text-anchor="middle" x="395" y="-99.8" font-family="Times,serif" font-size="14.00" fill="#000000">AddToCartComponent</text>
</g>
<!-- CartModule -->
<g id="node3" class="node">
<title>CartModule</title>
<polygon fill="#8dd3c7" stroke="#000000" points="279.6529,-187 276.6529,-191 255.6529,-191 252.6529,-187 196.3471,-187 196.3471,-151 279.6529,-151 279.6529,-187"/>
<text text-anchor="middle" x="238" y="-164.8" font-family="Times,serif" font-size="14.00" fill="#000000">CartModule</text>
</g>
<!-- AddToCartComponent&#45;&gt;CartModule -->
<g id="edge1" class="edge">
<title>AddToCartComponent&#45;&gt;CartModule</title>
<path fill="none" stroke="#000000" d="M360.875,-122.1061C360.875,-141.3391 360.875,-169 360.875,-169 360.875,-169 289.9429,-169 289.9429,-169"/>
<polygon fill="#000000" stroke="#000000" points="289.943,-165.5001 279.9429,-169 289.9429,-172.5001 289.943,-165.5001"/>
</g>
<!-- MiniCartComponent -->
<g id="node2" class="node">
<title>MiniCartComponent</title>
<polygon fill="#ffffb3" stroke="#000000" points="304.161,-122 171.839,-122 171.839,-86 304.161,-86 304.161,-122"/>
<text text-anchor="middle" x="238" y="-99.8" font-family="Times,serif" font-size="14.00" fill="#000000">MiniCartComponent</text>
</g>
<!-- MiniCartComponent&#45;&gt;CartModule -->
<g id="edge2" class="edge">
<title>MiniCartComponent&#45;&gt;CartModule</title>
<path fill="none" stroke="#000000" d="M238,-122.1061C238,-122.1061 238,-140.991 238,-140.991"/>
<polygon fill="#000000" stroke="#000000" points="234.5001,-140.9909 238,-150.991 241.5001,-140.991 234.5001,-140.9909"/>
</g>
<!-- AddToCartComponent  -->
<g id="node5" class="node">
<title>AddToCartComponent </title>
<polygon fill="#fb8072" stroke="#000000" points="399.0946,-252 250.9054,-252 250.9054,-216 399.0946,-216 399.0946,-252"/>
<text text-anchor="middle" x="325" y="-229.8" font-family="Times,serif" font-size="14.00" fill="#000000">AddToCartComponent </text>
</g>
<!-- CartModule&#45;&gt;AddToCartComponent  -->
<g id="edge4" class="edge">
<title>CartModule&#45;&gt;AddToCartComponent </title>
<path fill="none" stroke="#000000" stroke-dasharray="5,2" d="M265.2646,-187.1061C265.2646,-187.1061 265.2646,-205.991 265.2646,-205.991"/>
<polygon fill="#000000" stroke="#000000" points="261.7646,-205.9909 265.2646,-215.991 268.7646,-205.991 261.7646,-205.9909"/>
</g>
<!-- MiniCartComponent  -->
<g id="node6" class="node">
<title>MiniCartComponent </title>
<polygon fill="#fb8072" stroke="#000000" points="233.1607,-252 96.8393,-252 96.8393,-216 233.1607,-216 233.1607,-252"/>
<text text-anchor="middle" x="165" y="-229.8" font-family="Times,serif" font-size="14.00" fill="#000000">MiniCartComponent </text>
</g>
<!-- CartModule&#45;&gt;MiniCartComponent  -->
<g id="edge5" class="edge">
<title>CartModule&#45;&gt;MiniCartComponent </title>
<path fill="none" stroke="#000000" stroke-dasharray="5,2" d="M214.6271,-187.1061C214.6271,-187.1061 214.6271,-205.991 214.6271,-205.991"/>
<polygon fill="#000000" stroke="#000000" points="211.1272,-205.9909 214.6271,-215.991 218.1272,-205.991 211.1272,-205.9909"/>
</g>
<!-- CommerceModule -->
<g id="node4" class="node">
<title>CommerceModule</title>
<polygon fill="#8dd3c7" stroke="#000000" points="148.472,-122 145.472,-126 124.472,-126 121.472,-122 27.528,-122 27.528,-86 148.472,-86 148.472,-122"/>
<text text-anchor="middle" x="88" y="-99.8" font-family="Times,serif" font-size="14.00" fill="#000000">CommerceModule</text>
</g>
<!-- CommerceModule&#45;&gt;CartModule -->
<g id="edge3" class="edge">
<title>CommerceModule&#45;&gt;CartModule</title>
<path fill="none" stroke="#000000" d="M122.7029,-122.1061C122.7029,-141.3391 122.7029,-169 122.7029,-169 122.7029,-169 186.0489,-169 186.0489,-169"/>
<polygon fill="#000000" stroke="#000000" points="186.049,-172.5001 196.0489,-169 186.0489,-165.5001 186.049,-172.5001"/>
</g>
</g>
</svg>
