<?xml version="1.0" encoding="UTF-8" standalone="no"?>
<!DOCTYPE svg PUBLIC "-//W3C//DTD SVG 1.1//EN"
 "http://www.w3.org/Graphics/SVG/1.1/DTD/svg11.dtd">
<!-- Generated by graphviz version 2.40.1 (20161225.0304)
 -->
<!-- Title: dependencies Pages: 1 -->
<svg width="504pt" height="211pt"
 viewBox="0.00 0.00 504.00 211.00" xmlns="http://www.w3.org/2000/svg" xmlns:xlink="http://www.w3.org/1999/xlink">
<g id="graph0" class="graph" transform="scale(1 1) rotate(0) translate(4 207)">
<title>dependencies</title>
<polygon fill="#ffffff" stroke="transparent" points="-4,4 -4,-207 500,-207 500,4 -4,4"/>
<text text-anchor="start" x="227.0091" y="-42.4" font-family="sans-serif" font-weight="bold" font-size="14.00" fill="#000000">Legend</text>
<polygon fill="#ffffb3" stroke="transparent" points="14,-10 14,-30 34,-30 34,-10 14,-10"/>
<text text-anchor="start" x="37.629" y="-15.4" font-family="sans-serif" font-size="14.00" fill="#000000"> &#160;Declarations</text>
<polygon fill="#8dd3c7" stroke="transparent" points="127,-10 127,-30 147,-30 147,-10 127,-10"/>
<text text-anchor="start" x="150.7251" y="-15.4" font-family="sans-serif" font-size="14.00" fill="#000000"> &#160;Module</text>
<polygon fill="#80b1d3" stroke="transparent" points="213,-10 213,-30 233,-30 233,-10 213,-10"/>
<text text-anchor="start" x="236.7812" y="-15.4" font-family="sans-serif" font-size="14.00" fill="#000000"> &#160;Bootstrap</text>
<polygon fill="#fdb462" stroke="transparent" points="310,-10 310,-30 330,-30 330,-10 310,-10"/>
<text text-anchor="start" x="333.6732" y="-15.4" font-family="sans-serif" font-size="14.00" fill="#000000"> &#160;Providers</text>
<polygon fill="#fb8072" stroke="transparent" points="406,-10 406,-30 426,-30 426,-10 406,-10"/>
<text text-anchor="start" x="429.7258" y="-15.4" font-family="sans-serif" font-size="14.00" fill="#000000"> &#160;Exports</text>
<g id="clust1" class="cluster">
<title>cluster_CartModule</title>
<polygon fill="none" stroke="#000000" stroke-dasharray="1,5" points="128,-70 128,-195 368,-195 368,-70 128,-70"/>
</g>
<g id="clust3" class="cluster">
<title>cluster_CartModule_imports</title>
<polygon fill="none" stroke="#000000" points="136,-78 136,-130 360,-130 360,-78 136,-78"/>
</g>
<!-- PricingModule -->
<g id="node1" class="node">
<title>PricingModule</title>
<polygon fill="#8dd3c7" stroke="#000000" points="351.9888,-122 348.9888,-126 327.9888,-126 324.9888,-122 252.0112,-122 252.0112,-86 351.9888,-86 351.9888,-122"/>
<text text-anchor="middle" x="302" y="-99.8" font-family="Times,serif" font-size="14.00" fill="#000000">PricingModule</text>
</g>
<!-- CartModule -->
<g id="node3" class="node">
<title>CartModule</title>
<polygon fill="#8dd3c7" stroke="#000000" points="286.6529,-187 283.6529,-191 262.6529,-191 259.6529,-187 203.3471,-187 203.3471,-151 286.6529,-151 286.6529,-187"/>
<text text-anchor="middle" x="245" y="-164.8" font-family="Times,serif" font-size="14.00" fill="#000000">CartModule</text>
</g>
<!-- PricingModule&#45;&gt;CartModule -->
<g id="edge1" class="edge">
<title>PricingModule&#45;&gt;CartModule</title>
<path fill="none" stroke="#000000" d="M269.4159,-122.1061C269.4159,-122.1061 269.4159,-140.991 269.4159,-140.991"/>
<polygon fill="#000000" stroke="#000000" points="265.9159,-140.9909 269.4159,-150.991 272.9159,-140.991 265.9159,-140.9909"/>
</g>
<!-- StoreModule -->
<g id="node2" class="node">
<title>StoreModule</title>
<polygon fill="#8dd3c7" stroke="#000000" points="233.5983,-122 230.5983,-126 209.5983,-126 206.5983,-122 144.4017,-122 144.4017,-86 233.5983,-86 233.5983,-122"/>
<text text-anchor="middle" x="189" y="-99.8" font-family="Times,serif" font-size="14.00" fill="#000000">StoreModule</text>
</g>
<!-- StoreModule&#45;&gt;CartModule -->
<g id="edge2" class="edge">
<title>StoreModule&#45;&gt;CartModule</title>
<path fill="none" stroke="#000000" d="M218.3615,-122.1061C218.3615,-122.1061 218.3615,-140.991 218.3615,-140.991"/>
<polygon fill="#000000" stroke="#000000" points="214.8616,-140.9909 218.3615,-150.991 221.8616,-140.991 214.8616,-140.9909"/>
</g>
</g>
</svg>
