<?xml version="1.0" encoding="UTF-8" standalone="no"?>
<!DOCTYPE svg PUBLIC "-//W3C//DTD SVG 1.1//EN"
 "http://www.w3.org/Graphics/SVG/1.1/DTD/svg11.dtd">
<!-- Generated by graphviz version 2.40.1 (20161225.0304)
 -->
<!-- Title: dependencies Pages: 1 -->
<svg width="584pt" height="284pt"
 viewBox="0.00 0.00 584.00 284.00" xmlns="http://www.w3.org/2000/svg" xmlns:xlink="http://www.w3.org/1999/xlink">
<g id="graph0" class="graph" transform="scale(1 1) rotate(0) translate(4 280)">
<title>dependencies</title>
<polygon fill="#ffffff" stroke="transparent" points="-4,4 -4,-280 580,-280 580,4 -4,4"/>
<text text-anchor="start" x="267.0091" y="-42.4" font-family="sans-serif" font-weight="bold" font-size="14.00" fill="#000000">Legend</text>
<polygon fill="#ffffb3" stroke="transparent" points="54,-10 54,-30 74,-30 74,-10 54,-10"/>
<text text-anchor="start" x="77.629" y="-15.4" font-family="sans-serif" font-size="14.00" fill="#000000"> &#160;Declarations</text>
<polygon fill="#8dd3c7" stroke="transparent" points="167,-10 167,-30 187,-30 187,-10 167,-10"/>
<text text-anchor="start" x="190.7251" y="-15.4" font-family="sans-serif" font-size="14.00" fill="#000000"> &#160;Module</text>
<polygon fill="#80b1d3" stroke="transparent" points="253,-10 253,-30 273,-30 273,-10 253,-10"/>
<text text-anchor="start" x="276.7812" y="-15.4" font-family="sans-serif" font-size="14.00" fill="#000000"> &#160;Bootstrap</text>
<polygon fill="#fdb462" stroke="transparent" points="350,-10 350,-30 370,-30 370,-10 350,-10"/>
<text text-anchor="start" x="373.6732" y="-15.4" font-family="sans-serif" font-size="14.00" fill="#000000"> &#160;Providers</text>
<polygon fill="#fb8072" stroke="transparent" points="446,-10 446,-30 466,-30 466,-10 446,-10"/>
<text text-anchor="start" x="469.7258" y="-15.4" font-family="sans-serif" font-size="14.00" fill="#000000"> &#160;Exports</text>
<g id="clust1" class="cluster">
<title>cluster_CartModule</title>
<polygon fill="none" stroke="#000000" stroke-dasharray="1,5" points="8,-70 8,-268 568,-268 568,-70 8,-70"/>
</g>
<g id="clust2" class="cluster">
<title>cluster_CartModule_declarations</title>
<polygon fill="none" stroke="#000000" points="248,-78 248,-130 560,-130 560,-78 248,-78"/>
</g>
<g id="clust5" class="cluster">
<title>cluster_CartModule_imports</title>
<polygon fill="none" stroke="#000000" points="16,-78 16,-130 240,-130 240,-78 16,-78"/>
</g>
<g id="clust6" class="cluster">
<title>cluster_CartModule_exports</title>
<polygon fill="none" stroke="#000000" points="95,-208 95,-260 413,-260 413,-208 95,-208"/>
</g>
<!-- AddToCartComponent -->
<g id="node1" class="node">
<title>AddToCartComponent</title>
<polygon fill="#ffffb3" stroke="#000000" points="551.594,-122 406.406,-122 406.406,-86 551.594,-86 551.594,-122"/>
<text text-anchor="middle" x="479" y="-99.8" font-family="Times,serif" font-size="14.00" fill="#000000">AddToCartComponent</text>
</g>
<!-- CartModule -->
<g id="node3" class="node">
<title>CartModule</title>
<polygon fill="#8dd3c7" stroke="#000000" points="291.6529,-187 288.6529,-191 267.6529,-191 264.6529,-187 208.3471,-187 208.3471,-151 291.6529,-151 291.6529,-187"/>
<text text-anchor="middle" x="250" y="-164.8" font-family="Times,serif" font-size="14.00" fill="#000000">CartModule</text>
</g>
<!-- AddToCartComponent&#45;&gt;CartModule -->
<g id="edge1" class="edge">
<title>AddToCartComponent&#45;&gt;CartModule</title>
<path fill="none" stroke="#000000" d="M479,-122.1061C479,-141.3391 479,-169 479,-169 479,-169 301.7359,-169 301.7359,-169"/>
<polygon fill="#000000" stroke="#000000" points="301.7359,-165.5001 291.7359,-169 301.7358,-172.5001 301.7359,-165.5001"/>
</g>
<!-- MiniCartComponent -->
<g id="node2" class="node">
<title>MiniCartComponent</title>
<polygon fill="#ffffb3" stroke="#000000" points="388.161,-122 255.839,-122 255.839,-86 388.161,-86 388.161,-122"/>
<text text-anchor="middle" x="322" y="-99.8" font-family="Times,serif" font-size="14.00" fill="#000000">MiniCartComponent</text>
</g>
<!-- MiniCartComponent&#45;&gt;CartModule -->
<g id="edge2" class="edge">
<title>MiniCartComponent&#45;&gt;CartModule</title>
<path fill="none" stroke="#000000" d="M273.7479,-122.1061C273.7479,-122.1061 273.7479,-140.991 273.7479,-140.991"/>
<polygon fill="#000000" stroke="#000000" points="270.248,-140.9909 273.7479,-150.991 277.248,-140.991 270.248,-140.9909"/>
</g>
<!-- AddToCartComponent  -->
<g id="node6" class="node">
<title>AddToCartComponent </title>
<polygon fill="#fb8072" stroke="#000000" points="405.0946,-252 256.9054,-252 256.9054,-216 405.0946,-216 405.0946,-252"/>
<text text-anchor="middle" x="331" y="-229.8" font-family="Times,serif" font-size="14.00" fill="#000000">AddToCartComponent </text>
</g>
<!-- CartModule&#45;&gt;AddToCartComponent  -->
<g id="edge5" class="edge">
<title>CartModule&#45;&gt;AddToCartComponent </title>
<path fill="none" stroke="#000000" stroke-dasharray="5,2" d="M274.2646,-187.1061C274.2646,-187.1061 274.2646,-205.991 274.2646,-205.991"/>
<polygon fill="#000000" stroke="#000000" points="270.7646,-205.9909 274.2646,-215.991 277.7646,-205.991 270.7646,-205.9909"/>
</g>
<!-- MiniCartComponent  -->
<g id="node7" class="node">
<title>MiniCartComponent </title>
<polygon fill="#fb8072" stroke="#000000" points="239.1607,-252 102.8393,-252 102.8393,-216 239.1607,-216 239.1607,-252"/>
<text text-anchor="middle" x="171" y="-229.8" font-family="Times,serif" font-size="14.00" fill="#000000">MiniCartComponent </text>
</g>
<!-- CartModule&#45;&gt;MiniCartComponent  -->
<g id="edge6" class="edge">
<title>CartModule&#45;&gt;MiniCartComponent </title>
<path fill="none" stroke="#000000" stroke-dasharray="5,2" d="M223.6271,-187.1061C223.6271,-187.1061 223.6271,-205.991 223.6271,-205.991"/>
<polygon fill="#000000" stroke="#000000" points="220.1272,-205.9909 223.6271,-215.991 227.1272,-205.991 220.1272,-205.9909"/>
</g>
<!-- PricingModule -->
<g id="node4" class="node">
<title>PricingModule</title>
<polygon fill="#8dd3c7" stroke="#000000" points="231.9888,-122 228.9888,-126 207.9888,-126 204.9888,-122 132.0112,-122 132.0112,-86 231.9888,-86 231.9888,-122"/>
<text text-anchor="middle" x="182" y="-99.8" font-family="Times,serif" font-size="14.00" fill="#000000">PricingModule</text>
</g>
<!-- PricingModule&#45;&gt;CartModule -->
<g id="edge3" class="edge">
<title>PricingModule&#45;&gt;CartModule</title>
<path fill="none" stroke="#000000" d="M220.0842,-122.1061C220.0842,-122.1061 220.0842,-140.991 220.0842,-140.991"/>
<polygon fill="#000000" stroke="#000000" points="216.5842,-140.9909 220.0842,-150.991 223.5842,-140.991 216.5842,-140.9909"/>
</g>
<!-- StoreModule -->
<g id="node5" class="node">
<title>StoreModule</title>
<polygon fill="#8dd3c7" stroke="#000000" points="113.5983,-122 110.5983,-126 89.5983,-126 86.5983,-122 24.4017,-122 24.4017,-86 113.5983,-86 113.5983,-122"/>
<text text-anchor="middle" x="69" y="-99.8" font-family="Times,serif" font-size="14.00" fill="#000000">StoreModule</text>
</g>
<!-- StoreModule&#45;&gt;CartModule -->
<g id="edge4" class="edge">
<title>StoreModule&#45;&gt;CartModule</title>
<path fill="none" stroke="#000000" d="M108.2344,-122.1061C108.2344,-141.3391 108.2344,-169 108.2344,-169 108.2344,-169 198.2324,-169 198.2324,-169"/>
<polygon fill="#000000" stroke="#000000" points="198.2324,-172.5001 208.2324,-169 198.2324,-165.5001 198.2324,-172.5001"/>
</g>
</g>
</svg>
