<?xml version="1.0" encoding="UTF-8" standalone="no"?>
<!DOCTYPE svg PUBLIC "-//W3C//DTD SVG 1.1//EN"
 "http://www.w3.org/Graphics/SVG/1.1/DTD/svg11.dtd">
<!-- Generated by graphviz version 2.40.1 (20161225.0304)
 -->
<!-- Title: dependencies Pages: 1 -->
<svg width="722pt" height="284pt"
 viewBox="0.00 0.00 722.00 284.00" xmlns="http://www.w3.org/2000/svg" xmlns:xlink="http://www.w3.org/1999/xlink">
<g id="graph0" class="graph" transform="scale(1 1) rotate(0) translate(4 280)">
<title>dependencies</title>
<polygon fill="#ffffff" stroke="transparent" points="-4,4 -4,-280 718,-280 718,4 -4,4"/>
<text text-anchor="start" x="336.0091" y="-42.4" font-family="sans-serif" font-weight="bold" font-size="14.00" fill="#000000">Legend</text>
<polygon fill="#ffffb3" stroke="transparent" points="123,-10 123,-30 143,-30 143,-10 123,-10"/>
<text text-anchor="start" x="146.629" y="-15.4" font-family="sans-serif" font-size="14.00" fill="#000000"> &#160;Declarations</text>
<polygon fill="#8dd3c7" stroke="transparent" points="236,-10 236,-30 256,-30 256,-10 236,-10"/>
<text text-anchor="start" x="259.7251" y="-15.4" font-family="sans-serif" font-size="14.00" fill="#000000"> &#160;Module</text>
<polygon fill="#80b1d3" stroke="transparent" points="322,-10 322,-30 342,-30 342,-10 322,-10"/>
<text text-anchor="start" x="345.7812" y="-15.4" font-family="sans-serif" font-size="14.00" fill="#000000"> &#160;Bootstrap</text>
<polygon fill="#fdb462" stroke="transparent" points="419,-10 419,-30 439,-30 439,-10 419,-10"/>
<text text-anchor="start" x="442.6732" y="-15.4" font-family="sans-serif" font-size="14.00" fill="#000000"> &#160;Providers</text>
<polygon fill="#fb8072" stroke="transparent" points="515,-10 515,-30 535,-30 535,-10 515,-10"/>
<text text-anchor="start" x="538.7258" y="-15.4" font-family="sans-serif" font-size="14.00" fill="#000000"> &#160;Exports</text>
<g id="clust1" class="cluster">
<title>cluster_CartModule</title>
<polygon fill="none" stroke="#000000" stroke-dasharray="1,5" points="8,-70 8,-268 706,-268 706,-70 8,-70"/>
</g>
<g id="clust2" class="cluster">
<title>cluster_CartModule_declarations</title>
<polygon fill="none" stroke="#000000" points="386,-78 386,-130 698,-130 698,-78 386,-78"/>
</g>
<g id="clust5" class="cluster">
<title>cluster_CartModule_imports</title>
<polygon fill="none" stroke="#000000" points="154,-78 154,-130 378,-130 378,-78 154,-78"/>
</g>
<g id="clust6" class="cluster">
<title>cluster_CartModule_exports</title>
<polygon fill="none" stroke="#000000" points="164,-208 164,-260 482,-260 482,-208 164,-208"/>
</g>
<g id="clust8" class="cluster">
<title>cluster_CartModule_providers</title>
<polygon fill="none" stroke="#000000" points="16,-78 16,-130 146,-130 146,-78 16,-78"/>
</g>
<!-- AddToCartComponent -->
<g id="node1" class="node">
<title>AddToCartComponent</title>
<polygon fill="#ffffb3" stroke="#000000" points="689.594,-122 544.406,-122 544.406,-86 689.594,-86 689.594,-122"/>
<text text-anchor="middle" x="617" y="-99.8" font-family="Times,serif" font-size="14.00" fill="#000000">AddToCartComponent</text>
</g>
<!-- CartModule -->
<g id="node3" class="node">
<title>CartModule</title>
<polygon fill="#8dd3c7" stroke="#000000" points="361.6529,-187 358.6529,-191 337.6529,-191 334.6529,-187 278.3471,-187 278.3471,-151 361.6529,-151 361.6529,-187"/>
<text text-anchor="middle" x="320" y="-164.8" font-family="Times,serif" font-size="14.00" fill="#000000">CartModule</text>
</g>
<!-- AddToCartComponent&#45;&gt;CartModule -->
<g id="edge1" class="edge">
<title>AddToCartComponent&#45;&gt;CartModule</title>
<path fill="none" stroke="#000000" d="M617,-122.2843C617,-143.3211 617,-175 617,-175 617,-175 371.9229,-175 371.9229,-175"/>
<polygon fill="#000000" stroke="#000000" points="371.923,-171.5001 361.9229,-175 371.9229,-178.5001 371.923,-171.5001"/>
</g>
<!-- MiniCartComponent -->
<g id="node2" class="node">
<title>MiniCartComponent</title>
<polygon fill="#ffffb3" stroke="#000000" points="526.161,-122 393.839,-122 393.839,-86 526.161,-86 526.161,-122"/>
<text text-anchor="middle" x="460" y="-99.8" font-family="Times,serif" font-size="14.00" fill="#000000">MiniCartComponent</text>
</g>
<!-- MiniCartComponent&#45;&gt;CartModule -->
<g id="edge2" class="edge">
<title>MiniCartComponent&#45;&gt;CartModule</title>
<path fill="none" stroke="#000000" d="M433.9834,-122.0225C433.9834,-139.3734 433.9834,-163 433.9834,-163 433.9834,-163 371.796,-163 371.796,-163"/>
<polygon fill="#000000" stroke="#000000" points="371.796,-159.5001 361.796,-163 371.7959,-166.5001 371.796,-159.5001"/>
</g>
<!-- AddToCartComponent  -->
<g id="node6" class="node">
<title>AddToCartComponent </title>
<polygon fill="#fb8072" stroke="#000000" points="474.0946,-252 325.9054,-252 325.9054,-216 474.0946,-216 474.0946,-252"/>
<text text-anchor="middle" x="400" y="-229.8" font-family="Times,serif" font-size="14.00" fill="#000000">AddToCartComponent </text>
</g>
<!-- CartModule&#45;&gt;AddToCartComponent  -->
<g id="edge5" class="edge">
<title>CartModule&#45;&gt;AddToCartComponent </title>
<path fill="none" stroke="#000000" stroke-dasharray="5,2" d="M343.7646,-187.1061C343.7646,-187.1061 343.7646,-205.991 343.7646,-205.991"/>
<polygon fill="#000000" stroke="#000000" points="340.2646,-205.9909 343.7646,-215.991 347.2646,-205.991 340.2646,-205.9909"/>
</g>
<!-- MiniCartComponent  -->
<g id="node7" class="node">
<title>MiniCartComponent </title>
<polygon fill="#fb8072" stroke="#000000" points="308.1607,-252 171.8393,-252 171.8393,-216 308.1607,-216 308.1607,-252"/>
<text text-anchor="middle" x="240" y="-229.8" font-family="Times,serif" font-size="14.00" fill="#000000">MiniCartComponent </text>
</g>
<!-- CartModule&#45;&gt;MiniCartComponent  -->
<g id="edge6" class="edge">
<title>CartModule&#45;&gt;MiniCartComponent </title>
<path fill="none" stroke="#000000" stroke-dasharray="5,2" d="M293.1271,-187.1061C293.1271,-187.1061 293.1271,-205.991 293.1271,-205.991"/>
<polygon fill="#000000" stroke="#000000" points="289.6272,-205.9909 293.1271,-215.991 296.6272,-205.991 289.6272,-205.9909"/>
</g>
<!-- PricingModule -->
<g id="node4" class="node">
<title>PricingModule</title>
<polygon fill="#8dd3c7" stroke="#000000" points="369.9888,-122 366.9888,-126 345.9888,-126 342.9888,-122 270.0112,-122 270.0112,-86 369.9888,-86 369.9888,-122"/>
<text text-anchor="middle" x="320" y="-99.8" font-family="Times,serif" font-size="14.00" fill="#000000">PricingModule</text>
</g>
<!-- PricingModule&#45;&gt;CartModule -->
<g id="edge3" class="edge">
<title>PricingModule&#45;&gt;CartModule</title>
<path fill="none" stroke="#000000" d="M320,-122.1061C320,-122.1061 320,-140.991 320,-140.991"/>
<polygon fill="#000000" stroke="#000000" points="316.5001,-140.9909 320,-150.991 323.5001,-140.991 316.5001,-140.9909"/>
</g>
<!-- StoreModule -->
<g id="node5" class="node">
<title>StoreModule</title>
<polygon fill="#8dd3c7" stroke="#000000" points="251.5983,-122 248.5983,-126 227.5983,-126 224.5983,-122 162.4017,-122 162.4017,-86 251.5983,-86 251.5983,-122"/>
<text text-anchor="middle" x="207" y="-99.8" font-family="Times,serif" font-size="14.00" fill="#000000">StoreModule</text>
</g>
<!-- StoreModule&#45;&gt;CartModule -->
<g id="edge4" class="edge">
<title>StoreModule&#45;&gt;CartModule</title>
<path fill="none" stroke="#000000" d="M211.7344,-122.0225C211.7344,-139.3734 211.7344,-163 211.7344,-163 211.7344,-163 268.1417,-163 268.1417,-163"/>
<polygon fill="#000000" stroke="#000000" points="268.1417,-166.5001 278.1417,-163 268.1417,-159.5001 268.1417,-166.5001"/>
</g>
<!-- CartService -->
<g id="node8" class="node">
<title>CartService</title>
<ellipse fill="#fdb462" stroke="#000000" cx="81" cy="-104" rx="56.7348" ry="18"/>
<text text-anchor="middle" x="81" y="-99.8" font-family="Times,serif" font-size="14.00" fill="#000000">CartService</text>
</g>
<!-- CartService&#45;&gt;CartModule -->
<g id="edge7" class="edge">
<title>CartService&#45;&gt;CartModule</title>
<path fill="none" stroke="#000000" d="M81,-122.2843C81,-143.3211 81,-175 81,-175 81,-175 268.0959,-175 268.0959,-175"/>
<polygon fill="#000000" stroke="#000000" points="268.0959,-178.5001 278.0959,-175 268.0959,-171.5001 268.0959,-178.5001"/>
</g>
</g>
</svg>
