<?xml version="1.0" encoding="UTF-8" standalone="no"?>
<!DOCTYPE svg PUBLIC "-//W3C//DTD SVG 1.1//EN"
 "http://www.w3.org/Graphics/SVG/1.1/DTD/svg11.dtd">
<!-- Generated by graphviz version 2.40.1 (20161225.0304)
 -->
<!-- Title: dependencies Pages: 1 -->
<svg width="784pt" height="211pt"
 viewBox="0.00 0.00 784.00 211.00" xmlns="http://www.w3.org/2000/svg" xmlns:xlink="http://www.w3.org/1999/xlink">
<g id="graph0" class="graph" transform="scale(1 1) rotate(0) translate(4 207)">
<title>dependencies</title>
<polygon fill="#ffffff" stroke="transparent" points="-4,4 -4,-207 780,-207 780,4 -4,4"/>
<text text-anchor="start" x="367.0091" y="-42.4" font-family="sans-serif" font-weight="bold" font-size="14.00" fill="#000000">Legend</text>
<polygon fill="#ffffb3" stroke="transparent" points="154,-10 154,-30 174,-30 174,-10 154,-10"/>
<text text-anchor="start" x="177.629" y="-15.4" font-family="sans-serif" font-size="14.00" fill="#000000"> &#160;Declarations</text>
<polygon fill="#8dd3c7" stroke="transparent" points="267,-10 267,-30 287,-30 287,-10 267,-10"/>
<text text-anchor="start" x="290.7251" y="-15.4" font-family="sans-serif" font-size="14.00" fill="#000000"> &#160;Module</text>
<polygon fill="#80b1d3" stroke="transparent" points="353,-10 353,-30 373,-30 373,-10 353,-10"/>
<text text-anchor="start" x="376.7812" y="-15.4" font-family="sans-serif" font-size="14.00" fill="#000000"> &#160;Bootstrap</text>
<polygon fill="#fdb462" stroke="transparent" points="450,-10 450,-30 470,-30 470,-10 450,-10"/>
<text text-anchor="start" x="473.6732" y="-15.4" font-family="sans-serif" font-size="14.00" fill="#000000"> &#160;Providers</text>
<polygon fill="#fb8072" stroke="transparent" points="546,-10 546,-30 566,-30 566,-10 546,-10"/>
<text text-anchor="start" x="569.7258" y="-15.4" font-family="sans-serif" font-size="14.00" fill="#000000"> &#160;Exports</text>
<g id="clust1" class="cluster">
<title>cluster_QuoteModule</title>
<polygon fill="none" stroke="#000000" stroke-dasharray="1,5" points="8,-70 8,-195 768,-195 768,-70 8,-70"/>
</g>
<g id="clust2" class="cluster">
<title>cluster_QuoteModule_declarations</title>
<polygon fill="none" stroke="#000000" points="210,-78 210,-130 760,-130 760,-78 210,-78"/>
</g>
<g id="clust6" class="cluster">
<title>cluster_QuoteModule_imports</title>
<polygon fill="none" stroke="#000000" points="16,-78 16,-130 202,-130 202,-78 16,-78"/>
</g>
<!-- CreateQuoteComponent -->
<g id="node1" class="node">
<title>CreateQuoteComponent</title>
<polygon fill="#ffffb3" stroke="#000000" points="752.0758,-122 599.9242,-122 599.9242,-86 752.0758,-86 752.0758,-122"/>
<text text-anchor="middle" x="676" y="-99.8" font-family="Times,serif" font-size="14.00" fill="#000000">CreateQuoteComponent</text>
</g>
<!-- QuoteModule -->
<g id="node4" class="node">
<title>QuoteModule</title>
<polygon fill="#8dd3c7" stroke="#000000" points="454.7619,-187 451.7619,-191 430.7619,-191 427.7619,-187 361.2381,-187 361.2381,-151 454.7619,-151 454.7619,-187"/>
<text text-anchor="middle" x="408" y="-164.8" font-family="Times,serif" font-size="14.00" fill="#000000">QuoteModule</text>
</g>
<!-- CreateQuoteComponent&#45;&gt;QuoteModule -->
<g id="edge1" class="edge">
<title>CreateQuoteComponent&#45;&gt;QuoteModule</title>
<path fill="none" stroke="#000000" d="M676,-122.1061C676,-141.3391 676,-169 676,-169 676,-169 464.9887,-169 464.9887,-169"/>
<polygon fill="#000000" stroke="#000000" points="464.9887,-165.5001 454.9887,-169 464.9887,-172.5001 464.9887,-165.5001"/>
</g>
<!-- QuoteDetailsComponent -->
<g id="node2" class="node">
<title>QuoteDetailsComponent</title>
<polygon fill="#ffffb3" stroke="#000000" points="581.6965,-122 426.3035,-122 426.3035,-86 581.6965,-86 581.6965,-122"/>
<text text-anchor="middle" x="504" y="-99.8" font-family="Times,serif" font-size="14.00" fill="#000000">QuoteDetailsComponent</text>
</g>
<!-- QuoteDetailsComponent&#45;&gt;QuoteModule -->
<g id="edge2" class="edge">
<title>QuoteDetailsComponent&#45;&gt;QuoteModule</title>
<path fill="none" stroke="#000000" d="M440.6413,-122.1061C440.6413,-122.1061 440.6413,-140.991 440.6413,-140.991"/>
<polygon fill="#000000" stroke="#000000" points="437.1414,-140.9909 440.6413,-150.991 444.1414,-140.991 437.1414,-140.9909"/>
</g>
<!-- RequestQuoteFormComponent -->
<g id="node3" class="node">
<title>RequestQuoteFormComponent</title>
<polygon fill="#ffffb3" stroke="#000000" points="408.479,-122 217.521,-122 217.521,-86 408.479,-86 408.479,-122"/>
<text text-anchor="middle" x="313" y="-99.8" font-family="Times,serif" font-size="14.00" fill="#000000">RequestQuoteFormComponent</text>
</g>
<!-- RequestQuoteFormComponent&#45;&gt;QuoteModule -->
<g id="edge3" class="edge">
<title>RequestQuoteFormComponent&#45;&gt;QuoteModule</title>
<path fill="none" stroke="#000000" d="M384.8044,-122.1061C384.8044,-122.1061 384.8044,-140.991 384.8044,-140.991"/>
<polygon fill="#000000" stroke="#000000" points="381.3044,-140.9909 384.8044,-150.991 388.3044,-140.991 381.3044,-140.9909"/>
</g>
<!-- LineItemTableRowModule -->
<g id="node5" class="node">
<title>LineItemTableRowModule</title>
<polygon fill="#8dd3c7" stroke="#000000" points="193.6797,-122 190.6797,-126 169.6797,-126 166.6797,-122 24.3203,-122 24.3203,-86 193.6797,-86 193.6797,-122"/>
<text text-anchor="middle" x="109" y="-99.8" font-family="Times,serif" font-size="14.00" fill="#000000">LineItemTableRowModule</text>
</g>
<!-- LineItemTableRowModule&#45;&gt;QuoteModule -->
<g id="edge4" class="edge">
<title>LineItemTableRowModule&#45;&gt;QuoteModule</title>
<path fill="none" stroke="#000000" d="M109,-122.1061C109,-141.3391 109,-169 109,-169 109,-169 350.9523,-169 350.9523,-169"/>
<polygon fill="#000000" stroke="#000000" points="350.9524,-172.5001 360.9523,-169 350.9523,-165.5001 350.9524,-172.5001"/>
</g>
</g>
</svg>
