<?xml version="1.0" encoding="UTF-8" standalone="no"?>
<!DOCTYPE svg PUBLIC "-//W3C//DTD SVG 1.1//EN"
 "http://www.w3.org/Graphics/SVG/1.1/DTD/svg11.dtd">
<!-- Generated by graphviz version 2.40.1 (20161225.0304)
 -->
<!-- Title: dependencies Pages: 1 -->
<svg width="796pt" height="284pt"
 viewBox="0.00 0.00 796.00 284.00" xmlns="http://www.w3.org/2000/svg" xmlns:xlink="http://www.w3.org/1999/xlink">
<g id="graph0" class="graph" transform="scale(1 1) rotate(0) translate(4 280)">
<title>dependencies</title>
<polygon fill="#ffffff" stroke="transparent" points="-4,4 -4,-280 792,-280 792,4 -4,4"/>
<text text-anchor="start" x="373.0091" y="-42.4" font-family="sans-serif" font-weight="bold" font-size="14.00" fill="#000000">Legend</text>
<polygon fill="#ffffb3" stroke="transparent" points="160,-10 160,-30 180,-30 180,-10 160,-10"/>
<text text-anchor="start" x="183.629" y="-15.4" font-family="sans-serif" font-size="14.00" fill="#000000"> &#160;Declarations</text>
<polygon fill="#8dd3c7" stroke="transparent" points="273,-10 273,-30 293,-30 293,-10 273,-10"/>
<text text-anchor="start" x="296.7251" y="-15.4" font-family="sans-serif" font-size="14.00" fill="#000000"> &#160;Module</text>
<polygon fill="#80b1d3" stroke="transparent" points="359,-10 359,-30 379,-30 379,-10 359,-10"/>
<text text-anchor="start" x="382.7812" y="-15.4" font-family="sans-serif" font-size="14.00" fill="#000000"> &#160;Bootstrap</text>
<polygon fill="#fdb462" stroke="transparent" points="456,-10 456,-30 476,-30 476,-10 456,-10"/>
<text text-anchor="start" x="479.6732" y="-15.4" font-family="sans-serif" font-size="14.00" fill="#000000"> &#160;Providers</text>
<polygon fill="#fb8072" stroke="transparent" points="552,-10 552,-30 572,-30 572,-10 552,-10"/>
<text text-anchor="start" x="575.7258" y="-15.4" font-family="sans-serif" font-size="14.00" fill="#000000"> &#160;Exports</text>
<g id="clust1" class="cluster">
<title>cluster_ComponentModule</title>
<polygon fill="none" stroke="#000000" stroke-dasharray="1,5" points="8,-70 8,-268 780,-268 780,-70 8,-70"/>
</g>
<g id="clust2" class="cluster">
<title>cluster_ComponentModule_declarations</title>
<polygon fill="none" stroke="#000000" points="16,-78 16,-130 772,-130 772,-78 16,-78"/>
</g>
<g id="clust9" class="cluster">
<title>cluster_ComponentModule_exports</title>
<polygon fill="none" stroke="#000000" points="181,-208 181,-260 613,-260 613,-208 181,-208"/>
</g>
<!-- AttachmentComponent -->
<g id="node1" class="node">
<title>AttachmentComponent</title>
<polygon fill="#ffffb3" stroke="#000000" points="764.1456,-122 617.8544,-122 617.8544,-86 764.1456,-86 764.1456,-122"/>
<text text-anchor="middle" x="691" y="-99.8" font-family="Times,serif" font-size="14.00" fill="#000000">AttachmentComponent</text>
</g>
<!-- ComponentModule -->
<g id="node6" class="node">
<title>ComponentModule</title>
<polygon fill="#8dd3c7" stroke="#000000" points="455.3823,-187 452.3823,-191 431.3823,-191 428.3823,-187 330.6177,-187 330.6177,-151 455.3823,-151 455.3823,-187"/>
<text text-anchor="middle" x="393" y="-164.8" font-family="Times,serif" font-size="14.00" fill="#000000">ComponentModule</text>
</g>
<!-- AttachmentComponent&#45;&gt;ComponentModule -->
<g id="edge1" class="edge">
<title>AttachmentComponent&#45;&gt;ComponentModule</title>
<path fill="none" stroke="#000000" d="M691,-122.1061C691,-141.3391 691,-169 691,-169 691,-169 465.4706,-169 465.4706,-169"/>
<polygon fill="#000000" stroke="#000000" points="465.4706,-165.5001 455.4706,-169 465.4705,-172.5001 465.4706,-165.5001"/>
</g>
<!-- AutoFocusDirective -->
<g id="node2" class="node">
<title>AutoFocusDirective</title>
<polygon fill="#ffffb3" stroke="#000000" points="599.5227,-122 470.4773,-122 470.4773,-86 599.5227,-86 599.5227,-122"/>
<text text-anchor="middle" x="535" y="-99.8" font-family="Times,serif" font-size="14.00" fill="#000000">AutoFocusDirective</text>
</g>
<!-- AutoFocusDirective&#45;&gt;ComponentModule -->
<g id="edge2" class="edge">
<title>AutoFocusDirective&#45;&gt;ComponentModule</title>
<path fill="none" stroke="#000000" d="M557.0036,-122.027C557.0036,-138.3976 557.0036,-160 557.0036,-160 557.0036,-160 465.4706,-160 465.4706,-160"/>
<polygon fill="#000000" stroke="#000000" points="465.4706,-156.5001 455.4706,-160 465.4706,-163.5001 465.4706,-156.5001"/>
</g>
<!-- FooterComponent -->
<g id="node3" class="node">
<title>FooterComponent</title>
<polygon fill="#ffffb3" stroke="#000000" points="451.8809,-122 334.1191,-122 334.1191,-86 451.8809,-86 451.8809,-122"/>
<text text-anchor="middle" x="393" y="-99.8" font-family="Times,serif" font-size="14.00" fill="#000000">FooterComponent</text>
</g>
<!-- FooterComponent&#45;&gt;ComponentModule -->
<g id="edge3" class="edge">
<title>FooterComponent&#45;&gt;ComponentModule</title>
<path fill="none" stroke="#000000" d="M393,-122.1061C393,-122.1061 393,-140.991 393,-140.991"/>
<polygon fill="#000000" stroke="#000000" points="389.5001,-140.9909 393,-150.991 396.5001,-140.991 389.5001,-140.9909"/>
</g>
<!-- HeaderComponent -->
<g id="node4" class="node">
<title>HeaderComponent</title>
<polygon fill="#ffffb3" stroke="#000000" points="315.7437,-122 194.2563,-122 194.2563,-86 315.7437,-86 315.7437,-122"/>
<text text-anchor="middle" x="255" y="-99.8" font-family="Times,serif" font-size="14.00" fill="#000000">HeaderComponent</text>
</g>
<!-- HeaderComponent&#45;&gt;ComponentModule -->
<g id="edge4" class="edge">
<title>HeaderComponent&#45;&gt;ComponentModule</title>
<path fill="none" stroke="#000000" d="M274.4572,-122.027C274.4572,-138.3976 274.4572,-160 274.4572,-160 274.4572,-160 320.6043,-160 320.6043,-160"/>
<polygon fill="#000000" stroke="#000000" points="320.6043,-163.5001 330.6043,-160 320.6042,-156.5001 320.6043,-163.5001"/>
</g>
<!-- NavAccountComponent -->
<g id="node5" class="node">
<title>NavAccountComponent</title>
<polygon fill="#ffffb3" stroke="#000000" points="176.08,-122 23.92,-122 23.92,-86 176.08,-86 176.08,-122"/>
<text text-anchor="middle" x="100" y="-99.8" font-family="Times,serif" font-size="14.00" fill="#000000">NavAccountComponent</text>
</g>
<!-- NavAccountComponent&#45;&gt;ComponentModule -->
<g id="edge5" class="edge">
<title>NavAccountComponent&#45;&gt;ComponentModule</title>
<path fill="none" stroke="#000000" d="M100,-122.1061C100,-141.3391 100,-169 100,-169 100,-169 320.5035,-169 320.5035,-169"/>
<polygon fill="#000000" stroke="#000000" points="320.5036,-172.5001 330.5035,-169 320.5035,-165.5001 320.5036,-172.5001"/>
</g>
<!-- AutoFocusDirective  -->
<g id="node7" class="node">
<title>AutoFocusDirective </title>
<polygon fill="#fb8072" stroke="#000000" points="604.5218,-252 471.4782,-252 471.4782,-216 604.5218,-216 604.5218,-252"/>
<text text-anchor="middle" x="538" y="-229.8" font-family="Times,serif" font-size="14.00" fill="#000000">AutoFocusDirective </text>
</g>
<!-- ComponentModule&#45;&gt;AutoFocusDirective  -->
<g id="edge6" class="edge">
<title>ComponentModule&#45;&gt;AutoFocusDirective </title>
<path fill="none" stroke="#000000" stroke-dasharray="5,2" d="M455.399,-178C485.1073,-178 514.2464,-178 514.2464,-178 514.2464,-178 514.2464,-205.973 514.2464,-205.973"/>
<polygon fill="#000000" stroke="#000000" points="510.7465,-205.973 514.2464,-215.973 517.7465,-205.973 510.7465,-205.973"/>
</g>
<!-- FooterComponent  -->
<g id="node8" class="node">
<title>FooterComponent </title>
<polygon fill="#fb8072" stroke="#000000" points="453.8814,-252 332.1186,-252 332.1186,-216 453.8814,-216 453.8814,-252"/>
<text text-anchor="middle" x="393" y="-229.8" font-family="Times,serif" font-size="14.00" fill="#000000">FooterComponent </text>
</g>
<!-- ComponentModule&#45;&gt;FooterComponent  -->
<g id="edge7" class="edge">
<title>ComponentModule&#45;&gt;FooterComponent </title>
<path fill="none" stroke="#000000" stroke-dasharray="5,2" d="M393,-187.1061C393,-187.1061 393,-205.991 393,-205.991"/>
<polygon fill="#000000" stroke="#000000" points="389.5001,-205.9909 393,-215.991 396.5001,-205.991 389.5001,-205.9909"/>
</g>
<!-- HeaderComponent  -->
<g id="node9" class="node">
<title>HeaderComponent </title>
<polygon fill="#fb8072" stroke="#000000" points="314.7436,-252 189.2564,-252 189.2564,-216 314.7436,-216 314.7436,-252"/>
<text text-anchor="middle" x="252" y="-229.8" font-family="Times,serif" font-size="14.00" fill="#000000">HeaderComponent </text>
</g>
<!-- ComponentModule&#45;&gt;HeaderComponent  -->
<g id="edge8" class="edge">
<title>ComponentModule&#45;&gt;HeaderComponent </title>
<path fill="none" stroke="#000000" stroke-dasharray="5,2" d="M330.2747,-178C285.9133,-178 234.2928,-178 234.2928,-178 234.2928,-178 234.2928,-205.973 234.2928,-205.973"/>
<polygon fill="#000000" stroke="#000000" points="230.7929,-205.973 234.2928,-215.973 237.7929,-205.973 230.7929,-205.973"/>
</g>
</g>
</svg>
