<?xml version="1.0" encoding="UTF-8" standalone="no"?>
<!DOCTYPE svg PUBLIC "-//W3C//DTD SVG 1.1//EN"
 "http://www.w3.org/Graphics/SVG/1.1/DTD/svg11.dtd">
<!-- Generated by graphviz version 2.40.1 (20161225.0304)
 -->
<!-- Title: dependencies Pages: 1 -->
<svg width="1493pt" height="284pt"
 viewBox="0.00 0.00 1493.00 284.00" xmlns="http://www.w3.org/2000/svg" xmlns:xlink="http://www.w3.org/1999/xlink">
<g id="graph0" class="graph" transform="scale(1 1) rotate(0) translate(4 280)">
<title>dependencies</title>
<polygon fill="#ffffff" stroke="transparent" points="-4,4 -4,-280 1489,-280 1489,4 -4,4"/>
<text text-anchor="start" x="721.5091" y="-42.4" font-family="sans-serif" font-weight="bold" font-size="14.00" fill="#000000">Legend</text>
<polygon fill="#ffffb3" stroke="transparent" points="508.5,-10 508.5,-30 528.5,-30 528.5,-10 508.5,-10"/>
<text text-anchor="start" x="532.129" y="-15.4" font-family="sans-serif" font-size="14.00" fill="#000000"> &#160;Declarations</text>
<polygon fill="#8dd3c7" stroke="transparent" points="621.5,-10 621.5,-30 641.5,-30 641.5,-10 621.5,-10"/>
<text text-anchor="start" x="645.2251" y="-15.4" font-family="sans-serif" font-size="14.00" fill="#000000"> &#160;Module</text>
<polygon fill="#80b1d3" stroke="transparent" points="707.5,-10 707.5,-30 727.5,-30 727.5,-10 707.5,-10"/>
<text text-anchor="start" x="731.2812" y="-15.4" font-family="sans-serif" font-size="14.00" fill="#000000"> &#160;Bootstrap</text>
<polygon fill="#fdb462" stroke="transparent" points="804.5,-10 804.5,-30 824.5,-30 824.5,-10 804.5,-10"/>
<text text-anchor="start" x="828.1732" y="-15.4" font-family="sans-serif" font-size="14.00" fill="#000000"> &#160;Providers</text>
<polygon fill="#fb8072" stroke="transparent" points="900.5,-10 900.5,-30 920.5,-30 920.5,-10 900.5,-10"/>
<text text-anchor="start" x="924.2258" y="-15.4" font-family="sans-serif" font-size="14.00" fill="#000000"> &#160;Exports</text>
<g id="clust1" class="cluster">
<title>cluster_ComponentModule</title>
<polygon fill="none" stroke="#000000" stroke-dasharray="1,5" points="8,-70 8,-268 1477,-268 1477,-70 8,-70"/>
</g>
<g id="clust2" class="cluster">
<title>cluster_ComponentModule_declarations</title>
<polygon fill="none" stroke="#000000" points="767,-78 767,-130 1469,-130 1469,-78 767,-78"/>
</g>
<g id="clust7" class="cluster">
<title>cluster_ComponentModule_imports</title>
<polygon fill="none" stroke="#000000" points="16,-78 16,-130 759,-130 759,-78 16,-78"/>
</g>
<g id="clust8" class="cluster">
<title>cluster_ComponentModule_exports</title>
<polygon fill="none" stroke="#000000" points="317,-208 317,-260 859,-260 859,-208 317,-208"/>
</g>
<!-- FooterComponent -->
<g id="node1" class="node">
<title>FooterComponent</title>
<polygon fill="#ffffb3" stroke="#000000" points="1460.8809,-122 1343.1191,-122 1343.1191,-86 1460.8809,-86 1460.8809,-122"/>
<text text-anchor="middle" x="1402" y="-99.8" font-family="Times,serif" font-size="14.00" fill="#000000">FooterComponent</text>
</g>
<!-- ComponentModule -->
<g id="node5" class="node">
<title>ComponentModule</title>
<polygon fill="#8dd3c7" stroke="#000000" points="711.3823,-187 708.3823,-191 687.3823,-191 684.3823,-187 586.6177,-187 586.6177,-151 711.3823,-151 711.3823,-187"/>
<text text-anchor="middle" x="649" y="-164.8" font-family="Times,serif" font-size="14.00" fill="#000000">ComponentModule</text>
</g>
<!-- FooterComponent&#45;&gt;ComponentModule -->
<g id="edge1" class="edge">
<title>FooterComponent&#45;&gt;ComponentModule</title>
<path fill="none" stroke="#000000" d="M1402,-122.2843C1402,-143.3211 1402,-175 1402,-175 1402,-175 721.5831,-175 721.5831,-175"/>
<polygon fill="#000000" stroke="#000000" points="721.5832,-171.5001 711.5831,-175 721.5831,-178.5001 721.5832,-171.5001"/>
</g>
<!-- HeaderComponent -->
<g id="node2" class="node">
<title>HeaderComponent</title>
<polygon fill="#ffffb3" stroke="#000000" points="1324.7437,-122 1203.2563,-122 1203.2563,-86 1324.7437,-86 1324.7437,-122"/>
<text text-anchor="middle" x="1264" y="-99.8" font-family="Times,serif" font-size="14.00" fill="#000000">HeaderComponent</text>
</g>
<!-- HeaderComponent&#45;&gt;ComponentModule -->
<g id="edge2" class="edge">
<title>HeaderComponent&#45;&gt;ComponentModule</title>
<path fill="none" stroke="#000000" d="M1264,-122.1061C1264,-141.3391 1264,-169 1264,-169 1264,-169 721.6395,-169 721.6395,-169"/>
<polygon fill="#000000" stroke="#000000" points="721.6395,-165.5001 711.6395,-169 721.6395,-172.5001 721.6395,-165.5001"/>
</g>
<!-- ItemConfigurationSummaryComponent -->
<g id="node3" class="node">
<title>ItemConfigurationSummaryComponent</title>
<polygon fill="#ffffb3" stroke="#000000" points="1184.972,-122 945.028,-122 945.028,-86 1184.972,-86 1184.972,-122"/>
<text text-anchor="middle" x="1065" y="-99.8" font-family="Times,serif" font-size="14.00" fill="#000000">ItemConfigurationSummaryComponent</text>
</g>
<!-- ItemConfigurationSummaryComponent&#45;&gt;ComponentModule -->
<g id="edge3" class="edge">
<title>ItemConfigurationSummaryComponent&#45;&gt;ComponentModule</title>
<path fill="none" stroke="#000000" d="M1065,-122.0225C1065,-139.3734 1065,-163 1065,-163 1065,-163 721.7298,-163 721.7298,-163"/>
<polygon fill="#000000" stroke="#000000" points="721.7299,-159.5001 711.7298,-163 721.7298,-166.5001 721.7299,-159.5001"/>
</g>
<!-- NavAccountComponent -->
<g id="node4" class="node">
<title>NavAccountComponent</title>
<polygon fill="#ffffb3" stroke="#000000" points="927.08,-122 774.92,-122 774.92,-86 927.08,-86 927.08,-122"/>
<text text-anchor="middle" x="851" y="-99.8" font-family="Times,serif" font-size="14.00" fill="#000000">NavAccountComponent</text>
</g>
<!-- NavAccountComponent&#45;&gt;ComponentModule -->
<g id="edge4" class="edge">
<title>NavAccountComponent&#45;&gt;ComponentModule</title>
<path fill="none" stroke="#000000" d="M812.8252,-122.2396C812.8252,-137.5706 812.8252,-157 812.8252,-157 812.8252,-157 721.4026,-157 721.4026,-157"/>
<polygon fill="#000000" stroke="#000000" points="721.4027,-153.5001 711.4026,-157 721.4026,-160.5001 721.4027,-153.5001"/>
</g>
<!-- FooterComponent  -->
<g id="node12" class="node">
<title>FooterComponent </title>
<polygon fill="#fb8072" stroke="#000000" points="850.8814,-252 729.1186,-252 729.1186,-216 850.8814,-216 850.8814,-252"/>
<text text-anchor="middle" x="790" y="-229.8" font-family="Times,serif" font-size="14.00" fill="#000000">FooterComponent </text>
</g>
<!-- ComponentModule&#45;&gt;FooterComponent  -->
<g id="edge11" class="edge">
<title>ComponentModule&#45;&gt;FooterComponent </title>
<path fill="none" stroke="#000000" stroke-dasharray="5,2" d="M711.4636,-181C727.5257,-181 740.3754,-181 740.3754,-181 740.3754,-181 740.3754,-205.7604 740.3754,-205.7604"/>
<polygon fill="#000000" stroke="#000000" points="736.8754,-205.7604 740.3754,-215.7604 743.8754,-205.7604 736.8754,-205.7604"/>
</g>
<!-- HeaderComponent  -->
<g id="node13" class="node">
<title>HeaderComponent </title>
<polygon fill="#fb8072" stroke="#000000" points="711.7436,-252 586.2564,-252 586.2564,-216 711.7436,-216 711.7436,-252"/>
<text text-anchor="middle" x="649" y="-229.8" font-family="Times,serif" font-size="14.00" fill="#000000">HeaderComponent </text>
</g>
<!-- ComponentModule&#45;&gt;HeaderComponent  -->
<g id="edge12" class="edge">
<title>ComponentModule&#45;&gt;HeaderComponent </title>
<path fill="none" stroke="#000000" stroke-dasharray="5,2" d="M649,-187.1061C649,-187.1061 649,-205.991 649,-205.991"/>
<polygon fill="#000000" stroke="#000000" points="645.5001,-205.9909 649,-215.991 652.5001,-205.991 645.5001,-205.9909"/>
</g>
<!-- ItemConfigurationSummaryComponent  -->
<g id="node14" class="node">
<title>ItemConfigurationSummaryComponent </title>
<polygon fill="#fb8072" stroke="#000000" points="568.9725,-252 325.0275,-252 325.0275,-216 568.9725,-216 568.9725,-252"/>
<text text-anchor="middle" x="447" y="-229.8" font-family="Times,serif" font-size="14.00" fill="#000000">ItemConfigurationSummaryComponent </text>
</g>
<!-- ComponentModule&#45;&gt;ItemConfigurationSummaryComponent  -->
<g id="edge13" class="edge">
<title>ComponentModule&#45;&gt;ItemConfigurationSummaryComponent </title>
<path fill="none" stroke="#000000" stroke-dasharray="5,2" d="M586.4212,-181C572.0801,-181 560.955,-181 560.955,-181 560.955,-181 560.955,-205.7604 560.955,-205.7604"/>
<polygon fill="#000000" stroke="#000000" points="557.455,-205.7604 560.955,-215.7604 564.455,-205.7604 557.455,-205.7604"/>
</g>
<!-- ApttusModule -->
<g id="node6" class="node">
<title>ApttusModule</title>
<polygon fill="#8dd3c7" stroke="#000000" points="751.3823,-122 748.3823,-126 727.3823,-126 724.3823,-122 654.6177,-122 654.6177,-86 751.3823,-86 751.3823,-122"/>
<text text-anchor="middle" x="703" y="-99.8" font-family="Times,serif" font-size="14.00" fill="#000000">ApttusModule</text>
</g>
<!-- ApttusModule&#45;&gt;ComponentModule -->
<g id="edge5" class="edge">
<title>ApttusModule&#45;&gt;ComponentModule</title>
<path fill="none" stroke="#000000" d="M683,-122.1061C683,-122.1061 683,-140.991 683,-140.991"/>
<polygon fill="#000000" stroke="#000000" points="679.5001,-140.9909 683,-150.991 686.5001,-140.991 679.5001,-140.9909"/>
</g>
<!-- CartModule -->
<g id="node7" class="node">
<title>CartModule</title>
<polygon fill="#8dd3c7" stroke="#000000" points="636.6529,-122 633.6529,-126 612.6529,-126 609.6529,-122 553.3471,-122 553.3471,-86 636.6529,-86 636.6529,-122"/>
<text text-anchor="middle" x="595" y="-99.8" font-family="Times,serif" font-size="14.00" fill="#000000">CartModule</text>
</g>
<!-- CartModule&#45;&gt;ComponentModule -->
<g id="edge6" class="edge">
<title>CartModule&#45;&gt;ComponentModule</title>
<path fill="none" stroke="#000000" d="M611.6925,-122.1061C611.6925,-122.1061 611.6925,-140.991 611.6925,-140.991"/>
<polygon fill="#000000" stroke="#000000" points="608.1926,-140.9909 611.6925,-150.991 615.1926,-140.991 608.1926,-140.9909"/>
</g>
<!-- ConstraintRulesModule -->
<g id="node8" class="node">
<title>ConstraintRulesModule</title>
<polygon fill="#8dd3c7" stroke="#000000" points="534.7646,-122 531.7646,-126 510.7646,-126 507.7646,-122 385.2354,-122 385.2354,-86 534.7646,-86 534.7646,-122"/>
<text text-anchor="middle" x="460" y="-99.8" font-family="Times,serif" font-size="14.00" fill="#000000">ConstraintRulesModule</text>
</g>
<!-- ConstraintRulesModule&#45;&gt;ComponentModule -->
<g id="edge7" class="edge">
<title>ConstraintRulesModule&#45;&gt;ComponentModule</title>
<path fill="none" stroke="#000000" d="M460,-122.2396C460,-137.5706 460,-157 460,-157 460,-157 576.5905,-157 576.5905,-157"/>
<polygon fill="#000000" stroke="#000000" points="576.5906,-160.5001 586.5905,-157 576.5905,-153.5001 576.5906,-160.5001"/>
</g>
<!-- DirectivesModule -->
<g id="node9" class="node">
<title>DirectivesModule</title>
<polygon fill="#8dd3c7" stroke="#000000" points="367.5772,-122 364.5772,-126 343.5772,-126 340.5772,-122 250.4228,-122 250.4228,-86 367.5772,-86 367.5772,-122"/>
<text text-anchor="middle" x="309" y="-99.8" font-family="Times,serif" font-size="14.00" fill="#000000">DirectivesModule</text>
</g>
<!-- DirectivesModule&#45;&gt;ComponentModule -->
<g id="edge8" class="edge">
<title>DirectivesModule&#45;&gt;ComponentModule</title>
<path fill="none" stroke="#000000" d="M346.4013,-122.0225C346.4013,-139.3734 346.4013,-163 346.4013,-163 346.4013,-163 576.3014,-163 576.3014,-163"/>
<polygon fill="#000000" stroke="#000000" points="576.3014,-166.5001 586.3014,-163 576.3013,-159.5001 576.3014,-166.5001"/>
</g>
<!-- PricingModule -->
<g id="node10" class="node">
<title>PricingModule</title>
<polygon fill="#8dd3c7" stroke="#000000" points="231.9888,-122 228.9888,-126 207.9888,-126 204.9888,-122 132.0112,-122 132.0112,-86 231.9888,-86 231.9888,-122"/>
<text text-anchor="middle" x="182" y="-99.8" font-family="Times,serif" font-size="14.00" fill="#000000">PricingModule</text>
</g>
<!-- PricingModule&#45;&gt;ComponentModule -->
<g id="edge9" class="edge">
<title>PricingModule&#45;&gt;ComponentModule</title>
<path fill="none" stroke="#000000" d="M182,-122.1061C182,-141.3391 182,-169 182,-169 182,-169 576.5029,-169 576.5029,-169"/>
<polygon fill="#000000" stroke="#000000" points="576.5029,-172.5001 586.5029,-169 576.5028,-165.5001 576.5029,-172.5001"/>
</g>
<!-- StoreModule -->
<g id="node11" class="node">
<title>StoreModule</title>
<polygon fill="#8dd3c7" stroke="#000000" points="113.5983,-122 110.5983,-126 89.5983,-126 86.5983,-122 24.4017,-122 24.4017,-86 113.5983,-86 113.5983,-122"/>
<text text-anchor="middle" x="69" y="-99.8" font-family="Times,serif" font-size="14.00" fill="#000000">StoreModule</text>
</g>
<!-- StoreModule&#45;&gt;ComponentModule -->
<g id="edge10" class="edge">
<title>StoreModule&#45;&gt;ComponentModule</title>
<path fill="none" stroke="#000000" d="M69,-122.2843C69,-143.3211 69,-175 69,-175 69,-175 576.3788,-175 576.3788,-175"/>
<polygon fill="#000000" stroke="#000000" points="576.3788,-178.5001 586.3788,-175 576.3787,-171.5001 576.3788,-178.5001"/>
</g>
</g>
</svg>
