<?xml version="1.0" encoding="UTF-8" standalone="no"?>
<!DOCTYPE svg PUBLIC "-//W3C//DTD SVG 1.1//EN"
 "http://www.w3.org/Graphics/SVG/1.1/DTD/svg11.dtd">
<!-- Generated by graphviz version 2.40.1 (20161225.0304)
 -->
<!-- Title: dependencies Pages: 1 -->
<svg width="1129pt" height="284pt"
 viewBox="0.00 0.00 1129.00 284.00" xmlns="http://www.w3.org/2000/svg" xmlns:xlink="http://www.w3.org/1999/xlink">
<g id="graph0" class="graph" transform="scale(1 1) rotate(0) translate(4 280)">
<title>dependencies</title>
<polygon fill="#ffffff" stroke="transparent" points="-4,4 -4,-280 1125,-280 1125,4 -4,4"/>
<text text-anchor="start" x="539.5091" y="-42.4" font-family="sans-serif" font-weight="bold" font-size="14.00" fill="#000000">Legend</text>
<polygon fill="#ffffb3" stroke="transparent" points="326.5,-10 326.5,-30 346.5,-30 346.5,-10 326.5,-10"/>
<text text-anchor="start" x="350.129" y="-15.4" font-family="sans-serif" font-size="14.00" fill="#000000"> &#160;Declarations</text>
<polygon fill="#8dd3c7" stroke="transparent" points="439.5,-10 439.5,-30 459.5,-30 459.5,-10 439.5,-10"/>
<text text-anchor="start" x="463.2251" y="-15.4" font-family="sans-serif" font-size="14.00" fill="#000000"> &#160;Module</text>
<polygon fill="#80b1d3" stroke="transparent" points="525.5,-10 525.5,-30 545.5,-30 545.5,-10 525.5,-10"/>
<text text-anchor="start" x="549.2812" y="-15.4" font-family="sans-serif" font-size="14.00" fill="#000000"> &#160;Bootstrap</text>
<polygon fill="#fdb462" stroke="transparent" points="622.5,-10 622.5,-30 642.5,-30 642.5,-10 622.5,-10"/>
<text text-anchor="start" x="646.1732" y="-15.4" font-family="sans-serif" font-size="14.00" fill="#000000"> &#160;Providers</text>
<polygon fill="#fb8072" stroke="transparent" points="718.5,-10 718.5,-30 738.5,-30 738.5,-10 718.5,-10"/>
<text text-anchor="start" x="742.2258" y="-15.4" font-family="sans-serif" font-size="14.00" fill="#000000"> &#160;Exports</text>
<g id="clust1" class="cluster">
<title>cluster_StoreModule</title>
<polygon fill="none" stroke="#000000" stroke-dasharray="1,5" points="8,-70 8,-268 1113,-268 1113,-70 8,-70"/>
</g>
<g id="clust2" class="cluster">
<title>cluster_StoreModule_declarations</title>
<polygon fill="none" stroke="#000000" points="140,-78 140,-130 1105,-130 1105,-78 140,-78"/>
</g>
<g id="clust9" class="cluster">
<title>cluster_StoreModule_imports</title>
<polygon fill="none" stroke="#000000" points="16,-78 16,-130 132,-130 132,-78 16,-78"/>
</g>
<g id="clust10" class="cluster">
<title>cluster_StoreModule_exports</title>
<polygon fill="none" stroke="#000000" points="68,-208 68,-260 1053,-260 1053,-208 68,-208"/>
</g>
<!-- AddressComponent -->
<g id="node1" class="node">
<title>AddressComponent</title>
<polygon fill="#ffffb3" stroke="#000000" points="1096.7036,-122 969.2964,-122 969.2964,-86 1096.7036,-86 1096.7036,-122"/>
<text text-anchor="middle" x="1033" y="-99.8" font-family="Times,serif" font-size="14.00" fill="#000000">AddressComponent</text>
</g>
<!-- StoreModule -->
<g id="node7" class="node">
<title>StoreModule</title>
<polygon fill="#8dd3c7" stroke="#000000" points="589.5983,-187 586.5983,-191 565.5983,-191 562.5983,-187 500.4017,-187 500.4017,-151 589.5983,-151 589.5983,-187"/>
<text text-anchor="middle" x="545" y="-164.8" font-family="Times,serif" font-size="14.00" fill="#000000">StoreModule</text>
</g>
<!-- AddressComponent&#45;&gt;StoreModule -->
<g id="edge1" class="edge">
<title>AddressComponent&#45;&gt;StoreModule</title>
<path fill="none" stroke="#000000" d="M1007.375,-122.1061C1007.375,-141.3391 1007.375,-169 1007.375,-169 1007.375,-169 599.7546,-169 599.7546,-169"/>
<polygon fill="#000000" stroke="#000000" points="599.7546,-165.5001 589.7546,-169 599.7545,-172.5001 599.7546,-165.5001"/>
</g>
<!-- InputFieldComponent -->
<g id="node2" class="node">
<title>InputFieldComponent</title>
<polygon fill="#ffffb3" stroke="#000000" points="951.6624,-122 812.3376,-122 812.3376,-86 951.6624,-86 951.6624,-122"/>
<text text-anchor="middle" x="882" y="-99.8" font-family="Times,serif" font-size="14.00" fill="#000000">InputFieldComponent</text>
</g>
<!-- InputFieldComponent&#45;&gt;StoreModule -->
<g id="edge2" class="edge">
<title>InputFieldComponent&#45;&gt;StoreModule</title>
<path fill="none" stroke="#000000" d="M854.375,-122.0225C854.375,-139.3734 854.375,-163 854.375,-163 854.375,-163 599.6554,-163 599.6554,-163"/>
<polygon fill="#000000" stroke="#000000" points="599.6554,-159.5001 589.6554,-163 599.6553,-166.5001 599.6554,-159.5001"/>
</g>
<!-- InputQuantityComponent -->
<g id="node3" class="node">
<title>InputQuantityComponent</title>
<polygon fill="#ffffb3" stroke="#000000" points="793.8766,-122 634.1234,-122 634.1234,-86 793.8766,-86 793.8766,-122"/>
<text text-anchor="middle" x="714" y="-99.8" font-family="Times,serif" font-size="14.00" fill="#000000">InputQuantityComponent</text>
</g>
<!-- InputQuantityComponent&#45;&gt;StoreModule -->
<g id="edge3" class="edge">
<title>InputQuantityComponent&#45;&gt;StoreModule</title>
<path fill="none" stroke="#000000" d="M684.875,-122.2396C684.875,-137.5706 684.875,-157 684.875,-157 684.875,-157 599.6419,-157 599.6419,-157"/>
<polygon fill="#000000" stroke="#000000" points="599.6419,-153.5001 589.6419,-157 599.6419,-160.5001 599.6419,-153.5001"/>
</g>
<!-- JumbotronComponent -->
<g id="node4" class="node">
<title>JumbotronComponent</title>
<polygon fill="#ffffb3" stroke="#000000" points="615.719,-122 474.281,-122 474.281,-86 615.719,-86 615.719,-122"/>
<text text-anchor="middle" x="545" y="-99.8" font-family="Times,serif" font-size="14.00" fill="#000000">JumbotronComponent</text>
</g>
<!-- JumbotronComponent&#45;&gt;StoreModule -->
<g id="edge4" class="edge">
<title>JumbotronComponent&#45;&gt;StoreModule</title>
<path fill="none" stroke="#000000" d="M545,-122.1061C545,-122.1061 545,-140.991 545,-140.991"/>
<polygon fill="#000000" stroke="#000000" points="541.5001,-140.9909 545,-150.991 548.5001,-140.991 541.5001,-140.9909"/>
</g>
<!-- MdSpinnerComponent -->
<g id="node5" class="node">
<title>MdSpinnerComponent</title>
<polygon fill="#ffffb3" stroke="#000000" points="456.3258,-122 311.6742,-122 311.6742,-86 456.3258,-86 456.3258,-122"/>
<text text-anchor="middle" x="384" y="-99.8" font-family="Times,serif" font-size="14.00" fill="#000000">MdSpinnerComponent</text>
</g>
<!-- MdSpinnerComponent&#45;&gt;StoreModule -->
<g id="edge5" class="edge">
<title>MdSpinnerComponent&#45;&gt;StoreModule</title>
<path fill="none" stroke="#000000" d="M432.9017,-122.2396C432.9017,-137.5706 432.9017,-157 432.9017,-157 432.9017,-157 490.3737,-157 490.3737,-157"/>
<polygon fill="#000000" stroke="#000000" points="490.3737,-160.5001 500.3737,-157 490.3736,-153.5001 490.3737,-160.5001"/>
</g>
<!-- MiniProfileComponent -->
<g id="node6" class="node">
<title>MiniProfileComponent</title>
<polygon fill="#ffffb3" stroke="#000000" points="294.1582,-122 147.8418,-122 147.8418,-86 294.1582,-86 294.1582,-122"/>
<text text-anchor="middle" x="221" y="-99.8" font-family="Times,serif" font-size="14.00" fill="#000000">MiniProfileComponent</text>
</g>
<!-- MiniProfileComponent&#45;&gt;StoreModule -->
<g id="edge6" class="edge">
<title>MiniProfileComponent&#45;&gt;StoreModule</title>
<path fill="none" stroke="#000000" d="M269.2081,-122.0225C269.2081,-139.3734 269.2081,-163 269.2081,-163 269.2081,-163 490.3827,-163 490.3827,-163"/>
<polygon fill="#000000" stroke="#000000" points="490.3828,-166.5001 500.3827,-163 490.3827,-159.5001 490.3828,-166.5001"/>
</g>
<!-- AddressComponent  -->
<g id="node9" class="node">
<title>AddressComponent </title>
<polygon fill="#fb8072" stroke="#000000" points="1045.2037,-252 914.7963,-252 914.7963,-216 1045.2037,-216 1045.2037,-252"/>
<text text-anchor="middle" x="980" y="-229.8" font-family="Times,serif" font-size="14.00" fill="#000000">AddressComponent </text>
</g>
<!-- StoreModule&#45;&gt;AddressComponent  -->
<g id="edge8" class="edge">
<title>StoreModule&#45;&gt;AddressComponent </title>
<path fill="none" stroke="#000000" stroke-dasharray="5,2" d="M589.9153,-175C692.112,-175 933.2397,-175 933.2397,-175 933.2397,-175 933.2397,-205.9775 933.2397,-205.9775"/>
<polygon fill="#000000" stroke="#000000" points="929.7397,-205.9774 933.2397,-215.9775 936.7397,-205.9775 929.7397,-205.9774"/>
</g>
<!-- InputFieldComponent  -->
<g id="node10" class="node">
<title>InputFieldComponent </title>
<polygon fill="#fb8072" stroke="#000000" points="896.6621,-252 753.3379,-252 753.3379,-216 896.6621,-216 896.6621,-252"/>
<text text-anchor="middle" x="825" y="-229.8" font-family="Times,serif" font-size="14.00" fill="#000000">InputFieldComponent </text>
</g>
<!-- StoreModule&#45;&gt;InputFieldComponent  -->
<g id="edge9" class="edge">
<title>StoreModule&#45;&gt;InputFieldComponent </title>
<path fill="none" stroke="#000000" stroke-dasharray="5,2" d="M589.6344,-181C656.1841,-181 773.6787,-181 773.6787,-181 773.6787,-181 773.6787,-205.7604 773.6787,-205.7604"/>
<polygon fill="#000000" stroke="#000000" points="770.1787,-205.7604 773.6787,-215.7604 777.1787,-205.7604 770.1787,-205.7604"/>
</g>
<!-- InputQuantityComponent  -->
<g id="node11" class="node">
<title>InputQuantityComponent </title>
<polygon fill="#fb8072" stroke="#000000" points="735.877,-252 572.123,-252 572.123,-216 735.877,-216 735.877,-252"/>
<text text-anchor="middle" x="654" y="-229.8" font-family="Times,serif" font-size="14.00" fill="#000000">InputQuantityComponent </text>
</g>
<!-- StoreModule&#45;&gt;InputQuantityComponent  -->
<g id="edge10" class="edge">
<title>StoreModule&#45;&gt;InputQuantityComponent </title>
<path fill="none" stroke="#000000" stroke-dasharray="5,2" d="M580.9304,-187.1061C580.9304,-187.1061 580.9304,-205.991 580.9304,-205.991"/>
<polygon fill="#000000" stroke="#000000" points="577.4305,-205.9909 580.9304,-215.991 584.4305,-205.991 577.4305,-205.9909"/>
</g>
<!-- JumbotronComponent  -->
<g id="node12" class="node">
<title>JumbotronComponent </title>
<polygon fill="#fb8072" stroke="#000000" points="554.2191,-252 409.7809,-252 409.7809,-216 554.2191,-216 554.2191,-252"/>
<text text-anchor="middle" x="482" y="-229.8" font-family="Times,serif" font-size="14.00" fill="#000000">JumbotronComponent </text>
</g>
<!-- StoreModule&#45;&gt;JumbotronComponent  -->
<g id="edge11" class="edge">
<title>StoreModule&#45;&gt;JumbotronComponent </title>
<path fill="none" stroke="#000000" stroke-dasharray="5,2" d="M527.4052,-187.1061C527.4052,-187.1061 527.4052,-205.991 527.4052,-205.991"/>
<polygon fill="#000000" stroke="#000000" points="523.9052,-205.9909 527.4052,-215.991 530.9052,-205.991 523.9052,-205.9909"/>
</g>
<!-- MdSpinnerComponent  -->
<g id="node13" class="node">
<title>MdSpinnerComponent </title>
<polygon fill="#fb8072" stroke="#000000" points="391.8255,-252 244.1745,-252 244.1745,-216 391.8255,-216 391.8255,-252"/>
<text text-anchor="middle" x="318" y="-229.8" font-family="Times,serif" font-size="14.00" fill="#000000">MdSpinnerComponent </text>
</g>
<!-- StoreModule&#45;&gt;MdSpinnerComponent  -->
<g id="edge12" class="edge">
<title>StoreModule&#45;&gt;MdSpinnerComponent </title>
<path fill="none" stroke="#000000" stroke-dasharray="5,2" d="M500.2078,-181C443.1567,-181 351.875,-181 351.875,-181 351.875,-181 351.875,-205.7604 351.875,-205.7604"/>
<polygon fill="#000000" stroke="#000000" points="348.3751,-205.7604 351.875,-215.7604 355.3751,-205.7604 348.3751,-205.7604"/>
</g>
<!-- MiniProfileComponent  -->
<g id="node14" class="node">
<title>MiniProfileComponent </title>
<polygon fill="#fb8072" stroke="#000000" points="226.1579,-252 75.8421,-252 75.8421,-216 226.1579,-216 226.1579,-252"/>
<text text-anchor="middle" x="151" y="-229.8" font-family="Times,serif" font-size="14.00" fill="#000000">MiniProfileComponent </text>
</g>
<!-- StoreModule&#45;&gt;MiniProfileComponent  -->
<g id="edge13" class="edge">
<title>StoreModule&#45;&gt;MiniProfileComponent </title>
<path fill="none" stroke="#000000" stroke-dasharray="5,2" d="M500.3673,-175C404.3656,-175 186.875,-175 186.875,-175 186.875,-175 186.875,-205.9775 186.875,-205.9775"/>
<polygon fill="#000000" stroke="#000000" points="183.3751,-205.9774 186.875,-215.9775 190.3751,-205.9775 183.3751,-205.9774"/>
</g>
<!-- PricingModule -->
<g id="node8" class="node">
<title>PricingModule</title>
<polygon fill="#8dd3c7" stroke="#000000" points="123.9888,-122 120.9888,-126 99.9888,-126 96.9888,-122 24.0112,-122 24.0112,-86 123.9888,-86 123.9888,-122"/>
<text text-anchor="middle" x="74" y="-99.8" font-family="Times,serif" font-size="14.00" fill="#000000">PricingModule</text>
</g>
<!-- PricingModule&#45;&gt;StoreModule -->
<g id="edge7" class="edge">
<title>PricingModule&#45;&gt;StoreModule</title>
<path fill="none" stroke="#000000" d="M99.9577,-122.1061C99.9577,-141.3391 99.9577,-169 99.9577,-169 99.9577,-169 490.29,-169 490.29,-169"/>
<polygon fill="#000000" stroke="#000000" points="490.29,-172.5001 500.29,-169 490.29,-165.5001 490.29,-172.5001"/>
</g>
</g>
</svg>
