<?xml version="1.0" encoding="UTF-8" standalone="no"?>
<!DOCTYPE svg PUBLIC "-//W3C//DTD SVG 1.1//EN"
 "http://www.w3.org/Graphics/SVG/1.1/DTD/svg11.dtd">
<!-- Generated by graphviz version 2.40.1 (20161225.0304)
 -->
<!-- Title: dependencies Pages: 1 -->
<svg width="2346pt" height="284pt"
 viewBox="0.00 0.00 2346.00 284.00" xmlns="http://www.w3.org/2000/svg" xmlns:xlink="http://www.w3.org/1999/xlink">
<g id="graph0" class="graph" transform="scale(1 1) rotate(0) translate(4 280)">
<title>dependencies</title>
<polygon fill="#ffffff" stroke="transparent" points="-4,4 -4,-280 2342,-280 2342,4 -4,4"/>
<text text-anchor="start" x="1148.0091" y="-42.4" font-family="sans-serif" font-weight="bold" font-size="14.00" fill="#000000">Legend</text>
<polygon fill="#ffffb3" stroke="transparent" points="935,-10 935,-30 955,-30 955,-10 935,-10"/>
<text text-anchor="start" x="958.629" y="-15.4" font-family="sans-serif" font-size="14.00" fill="#000000"> &#160;Declarations</text>
<polygon fill="#8dd3c7" stroke="transparent" points="1048,-10 1048,-30 1068,-30 1068,-10 1048,-10"/>
<text text-anchor="start" x="1071.7251" y="-15.4" font-family="sans-serif" font-size="14.00" fill="#000000"> &#160;Module</text>
<polygon fill="#80b1d3" stroke="transparent" points="1134,-10 1134,-30 1154,-30 1154,-10 1134,-10"/>
<text text-anchor="start" x="1157.7812" y="-15.4" font-family="sans-serif" font-size="14.00" fill="#000000"> &#160;Bootstrap</text>
<polygon fill="#fdb462" stroke="transparent" points="1231,-10 1231,-30 1251,-30 1251,-10 1231,-10"/>
<text text-anchor="start" x="1254.6732" y="-15.4" font-family="sans-serif" font-size="14.00" fill="#000000"> &#160;Providers</text>
<polygon fill="#fb8072" stroke="transparent" points="1327,-10 1327,-30 1347,-30 1347,-10 1327,-10"/>
<text text-anchor="start" x="1350.7258" y="-15.4" font-family="sans-serif" font-size="14.00" fill="#000000"> &#160;Exports</text>
<g id="clust1" class="cluster">
<title>cluster_StoreModule</title>
<polygon fill="none" stroke="#000000" stroke-dasharray="1,5" points="8,-70 8,-268 2330,-268 2330,-70 8,-70"/>
</g>
<g id="clust2" class="cluster">
<title>cluster_StoreModule_declarations</title>
<polygon fill="none" stroke="#000000" points="1154,-78 1154,-130 2322,-130 2322,-78 1154,-78"/>
</g>
<g id="clust10" class="cluster">
<title>cluster_StoreModule_imports</title>
<polygon fill="none" stroke="#000000" points="1030,-78 1030,-130 1146,-130 1146,-78 1030,-78"/>
</g>
<g id="clust11" class="cluster">
<title>cluster_StoreModule_exports</title>
<polygon fill="none" stroke="#000000" points="575,-208 575,-260 1765,-260 1765,-208 575,-208"/>
</g>
<g id="clust13" class="cluster">
<title>cluster_StoreModule_providers</title>
<polygon fill="none" stroke="#000000" points="16,-78 16,-130 1022,-130 1022,-78 16,-78"/>
</g>
<!-- AddressComponent -->
<g id="node1" class="node">
<title>AddressComponent</title>
<polygon fill="#ffffb3" stroke="#000000" points="2313.7036,-122 2186.2964,-122 2186.2964,-86 2313.7036,-86 2313.7036,-122"/>
<text text-anchor="middle" x="2250" y="-99.8" font-family="Times,serif" font-size="14.00" fill="#000000">AddressComponent</text>
</g>
<!-- StoreModule -->
<g id="node8" class="node">
<title>StoreModule</title>
<polygon fill="#8dd3c7" stroke="#000000" points="1205.5983,-187 1202.5983,-191 1181.5983,-191 1178.5983,-187 1116.4017,-187 1116.4017,-151 1205.5983,-151 1205.5983,-187"/>
<text text-anchor="middle" x="1161" y="-164.8" font-family="Times,serif" font-size="14.00" fill="#000000">StoreModule</text>
</g>
<!-- AddressComponent&#45;&gt;StoreModule -->
<g id="edge1" class="edge">
<title>AddressComponent&#45;&gt;StoreModule</title>
<path fill="none" stroke="#000000" d="M2250,-122.1289C2250,-142.5724 2250,-173 2250,-173 2250,-173 1215.7203,-173 1215.7203,-173"/>
<polygon fill="#000000" stroke="#000000" points="1215.7204,-169.5001 1205.7203,-173 1215.7203,-176.5001 1215.7204,-169.5001"/>
</g>
<!-- DependentPicklistComponent -->
<g id="node2" class="node">
<title>DependentPicklistComponent</title>
<polygon fill="#ffffb3" stroke="#000000" points="2167.9776,-122 1984.0224,-122 1984.0224,-86 2167.9776,-86 2167.9776,-122"/>
<text text-anchor="middle" x="2076" y="-99.8" font-family="Times,serif" font-size="14.00" fill="#000000">DependentPicklistComponent</text>
</g>
<!-- DependentPicklistComponent&#45;&gt;StoreModule -->
<g id="edge2" class="edge">
<title>DependentPicklistComponent&#45;&gt;StoreModule</title>
<path fill="none" stroke="#000000" d="M2076,-122.1061C2076,-141.3391 2076,-169 2076,-169 2076,-169 1215.7518,-169 1215.7518,-169"/>
<polygon fill="#000000" stroke="#000000" points="1215.7518,-165.5001 1205.7518,-169 1215.7517,-172.5001 1215.7518,-165.5001"/>
</g>
<!-- InputFieldComponent -->
<g id="node3" class="node">
<title>InputFieldComponent</title>
<polygon fill="#ffffb3" stroke="#000000" points="1965.6624,-122 1826.3376,-122 1826.3376,-86 1965.6624,-86 1965.6624,-122"/>
<text text-anchor="middle" x="1896" y="-99.8" font-family="Times,serif" font-size="14.00" fill="#000000">InputFieldComponent</text>
</g>
<!-- InputFieldComponent&#45;&gt;StoreModule -->
<g id="edge3" class="edge">
<title>InputFieldComponent&#45;&gt;StoreModule</title>
<path fill="none" stroke="#000000" d="M1896,-122.2667C1896,-140.5552 1896,-166 1896,-166 1896,-166 1215.5964,-166 1215.5964,-166"/>
<polygon fill="#000000" stroke="#000000" points="1215.5964,-162.5001 1205.5964,-166 1215.5963,-169.5001 1215.5964,-162.5001"/>
</g>
<!-- InputQuantityComponent -->
<g id="node4" class="node">
<title>InputQuantityComponent</title>
<polygon fill="#ffffb3" stroke="#000000" points="1807.8766,-122 1648.1234,-122 1648.1234,-86 1807.8766,-86 1807.8766,-122"/>
<text text-anchor="middle" x="1728" y="-99.8" font-family="Times,serif" font-size="14.00" fill="#000000">InputQuantityComponent</text>
</g>
<!-- InputQuantityComponent&#45;&gt;StoreModule -->
<g id="edge4" class="edge">
<title>InputQuantityComponent&#45;&gt;StoreModule</title>
<path fill="none" stroke="#000000" d="M1702.7067,-122.0336C1702.7067,-139.0597 1702.7067,-162 1702.7067,-162 1702.7067,-162 1215.791,-162 1215.791,-162"/>
<polygon fill="#000000" stroke="#000000" points="1215.791,-158.5001 1205.791,-162 1215.791,-165.5001 1215.791,-158.5001"/>
</g>
<!-- JumbotronComponent -->
<g id="node5" class="node">
<title>JumbotronComponent</title>
<polygon fill="#ffffb3" stroke="#000000" points="1629.719,-122 1488.281,-122 1488.281,-86 1629.719,-86 1629.719,-122"/>
<text text-anchor="middle" x="1559" y="-99.8" font-family="Times,serif" font-size="14.00" fill="#000000">JumbotronComponent</text>
</g>
<!-- JumbotronComponent&#45;&gt;StoreModule -->
<g id="edge5" class="edge">
<title>JumbotronComponent&#45;&gt;StoreModule</title>
<path fill="none" stroke="#000000" d="M1548.5647,-122.0091C1548.5647,-138.0494 1548.5647,-159 1548.5647,-159 1548.5647,-159 1215.8372,-159 1215.8372,-159"/>
<polygon fill="#000000" stroke="#000000" points="1215.8372,-155.5001 1205.8372,-159 1215.8372,-162.5001 1215.8372,-155.5001"/>
</g>
<!-- MdSpinnerComponent -->
<g id="node6" class="node">
<title>MdSpinnerComponent</title>
<polygon fill="#ffffb3" stroke="#000000" points="1470.3258,-122 1325.6742,-122 1325.6742,-86 1470.3258,-86 1470.3258,-122"/>
<text text-anchor="middle" x="1398" y="-99.8" font-family="Times,serif" font-size="14.00" fill="#000000">MdSpinnerComponent</text>
</g>
<!-- MdSpinnerComponent&#45;&gt;StoreModule -->
<g id="edge6" class="edge">
<title>MdSpinnerComponent&#45;&gt;StoreModule</title>
<path fill="none" stroke="#000000" d="M1364.7092,-122.1243C1364.7092,-136.7832 1364.7092,-155 1364.7092,-155 1364.7092,-155 1215.7048,-155 1215.7048,-155"/>
<polygon fill="#000000" stroke="#000000" points="1215.7049,-151.5001 1205.7048,-155 1215.7048,-158.5001 1215.7049,-151.5001"/>
</g>
<!-- MiniProfileComponent -->
<g id="node7" class="node">
<title>MiniProfileComponent</title>
<polygon fill="#ffffb3" stroke="#000000" points="1308.1582,-122 1161.8418,-122 1161.8418,-86 1308.1582,-86 1308.1582,-122"/>
<text text-anchor="middle" x="1235" y="-99.8" font-family="Times,serif" font-size="14.00" fill="#000000">MiniProfileComponent</text>
</g>
<!-- MiniProfileComponent&#45;&gt;StoreModule -->
<g id="edge7" class="edge">
<title>MiniProfileComponent&#45;&gt;StoreModule</title>
<path fill="none" stroke="#000000" d="M1183.6101,-122.1061C1183.6101,-122.1061 1183.6101,-140.991 1183.6101,-140.991"/>
<polygon fill="#000000" stroke="#000000" points="1180.1102,-140.9909 1183.6101,-150.991 1187.1102,-140.991 1180.1102,-140.9909"/>
</g>
<!-- AddressComponent  -->
<g id="node10" class="node">
<title>AddressComponent </title>
<polygon fill="#fb8072" stroke="#000000" points="1757.2037,-252 1626.7963,-252 1626.7963,-216 1757.2037,-216 1757.2037,-252"/>
<text text-anchor="middle" x="1692" y="-229.8" font-family="Times,serif" font-size="14.00" fill="#000000">AddressComponent </text>
</g>
<!-- StoreModule&#45;&gt;AddressComponent  -->
<g id="edge9" class="edge">
<title>StoreModule&#45;&gt;AddressComponent </title>
<path fill="none" stroke="#000000" stroke-dasharray="5,2" d="M1205.9536,-177C1324.9042,-177 1638.8356,-177 1638.8356,-177 1638.8356,-177 1638.8356,-205.9648 1638.8356,-205.9648"/>
<polygon fill="#000000" stroke="#000000" points="1635.3356,-205.9648 1638.8356,-215.9648 1642.3356,-205.9649 1635.3356,-205.9648"/>
</g>
<!-- DependentPicklistComponent  -->
<g id="node11" class="node">
<title>DependentPicklistComponent </title>
<polygon fill="#fb8072" stroke="#000000" points="1608.9782,-252 1421.0218,-252 1421.0218,-216 1608.9782,-216 1608.9782,-252"/>
<text text-anchor="middle" x="1515" y="-229.8" font-family="Times,serif" font-size="14.00" fill="#000000">DependentPicklistComponent </text>
</g>
<!-- StoreModule&#45;&gt;DependentPicklistComponent  -->
<g id="edge10" class="edge">
<title>StoreModule&#45;&gt;DependentPicklistComponent </title>
<path fill="none" stroke="#000000" stroke-dasharray="5,2" d="M1205.7994,-180C1285.9783,-180 1445.7119,-180 1445.7119,-180 1445.7119,-180 1445.7119,-205.7181 1445.7119,-205.7181"/>
<polygon fill="#000000" stroke="#000000" points="1442.212,-205.718 1445.7119,-215.7181 1449.212,-205.7181 1442.212,-205.718"/>
</g>
<!-- InputFieldComponent  -->
<g id="node12" class="node">
<title>InputFieldComponent </title>
<polygon fill="#fb8072" stroke="#000000" points="1403.6621,-252 1260.3379,-252 1260.3379,-216 1403.6621,-216 1403.6621,-252"/>
<text text-anchor="middle" x="1332" y="-229.8" font-family="Times,serif" font-size="14.00" fill="#000000">InputFieldComponent </text>
</g>
<!-- StoreModule&#45;&gt;InputFieldComponent  -->
<g id="edge11" class="edge">
<title>StoreModule&#45;&gt;InputFieldComponent </title>
<path fill="none" stroke="#000000" stroke-dasharray="5,2" d="M1205.8898,-184C1241.1655,-184 1284.374,-184 1284.374,-184 1284.374,-184 1284.374,-205.9489 1284.374,-205.9489"/>
<polygon fill="#000000" stroke="#000000" points="1280.874,-205.9488 1284.374,-215.9489 1287.874,-205.9489 1280.874,-205.9488"/>
</g>
<!-- InputQuantityComponent  -->
<g id="node13" class="node">
<title>InputQuantityComponent </title>
<polygon fill="#fb8072" stroke="#000000" points="1242.877,-252 1079.123,-252 1079.123,-216 1242.877,-216 1242.877,-252"/>
<text text-anchor="middle" x="1161" y="-229.8" font-family="Times,serif" font-size="14.00" fill="#000000">InputQuantityComponent </text>
</g>
<!-- StoreModule&#45;&gt;InputQuantityComponent  -->
<g id="edge12" class="edge">
<title>StoreModule&#45;&gt;InputQuantityComponent </title>
<path fill="none" stroke="#000000" stroke-dasharray="5,2" d="M1161,-187.1061C1161,-187.1061 1161,-205.991 1161,-205.991"/>
<polygon fill="#000000" stroke="#000000" points="1157.5001,-205.9909 1161,-215.991 1164.5001,-205.991 1157.5001,-205.9909"/>
</g>
<!-- JumbotronComponent  -->
<g id="node14" class="node">
<title>JumbotronComponent </title>
<polygon fill="#fb8072" stroke="#000000" points="1061.2191,-252 916.7809,-252 916.7809,-216 1061.2191,-216 1061.2191,-252"/>
<text text-anchor="middle" x="989" y="-229.8" font-family="Times,serif" font-size="14.00" fill="#000000">JumbotronComponent </text>
</g>
<!-- StoreModule&#45;&gt;JumbotronComponent  -->
<g id="edge13" class="edge">
<title>StoreModule&#45;&gt;JumbotronComponent </title>
<path fill="none" stroke="#000000" stroke-dasharray="5,2" d="M1116.3643,-184C1085.3949,-184 1049.6825,-184 1049.6825,-184 1049.6825,-184 1049.6825,-205.9489 1049.6825,-205.9489"/>
<polygon fill="#000000" stroke="#000000" points="1046.1826,-205.9488 1049.6825,-215.9489 1053.1826,-205.9489 1046.1826,-205.9488"/>
</g>
<!-- MdSpinnerComponent  -->
<g id="node15" class="node">
<title>MdSpinnerComponent </title>
<polygon fill="#fb8072" stroke="#000000" points="898.8255,-252 751.1745,-252 751.1745,-216 898.8255,-216 898.8255,-252"/>
<text text-anchor="middle" x="825" y="-229.8" font-family="Times,serif" font-size="14.00" fill="#000000">MdSpinnerComponent </text>
</g>
<!-- StoreModule&#45;&gt;MdSpinnerComponent  -->
<g id="edge14" class="edge">
<title>StoreModule&#45;&gt;MdSpinnerComponent </title>
<path fill="none" stroke="#000000" stroke-dasharray="5,2" d="M1116.3611,-180C1030.2122,-180 849.4407,-180 849.4407,-180 849.4407,-180 849.4407,-205.7181 849.4407,-205.7181"/>
<polygon fill="#000000" stroke="#000000" points="845.9408,-205.718 849.4407,-215.7181 852.9408,-205.7181 845.9408,-205.718"/>
</g>
<!-- MiniProfileComponent  -->
<g id="node16" class="node">
<title>MiniProfileComponent </title>
<polygon fill="#fb8072" stroke="#000000" points="733.1579,-252 582.8421,-252 582.8421,-216 733.1579,-216 733.1579,-252"/>
<text text-anchor="middle" x="658" y="-229.8" font-family="Times,serif" font-size="14.00" fill="#000000">MiniProfileComponent </text>
</g>
<!-- StoreModule&#45;&gt;MiniProfileComponent  -->
<g id="edge15" class="edge">
<title>StoreModule&#45;&gt;MiniProfileComponent </title>
<path fill="none" stroke="#000000" stroke-dasharray="5,2" d="M1116.1896,-177C997.6179,-177 684.6866,-177 684.6866,-177 684.6866,-177 684.6866,-205.9648 684.6866,-205.9648"/>
<polygon fill="#000000" stroke="#000000" points="681.1867,-205.9648 684.6866,-215.9648 688.1867,-205.9649 681.1867,-205.9648"/>
</g>
<!-- PricingModule -->
<g id="node9" class="node">
<title>PricingModule</title>
<polygon fill="#8dd3c7" stroke="#000000" points="1137.9888,-122 1134.9888,-126 1113.9888,-126 1110.9888,-122 1038.0112,-122 1038.0112,-86 1137.9888,-86 1137.9888,-122"/>
<text text-anchor="middle" x="1088" y="-99.8" font-family="Times,serif" font-size="14.00" fill="#000000">PricingModule</text>
</g>
<!-- PricingModule&#45;&gt;StoreModule -->
<g id="edge8" class="edge">
<title>PricingModule&#45;&gt;StoreModule</title>
<path fill="none" stroke="#000000" d="M1127.2227,-122.1061C1127.2227,-122.1061 1127.2227,-140.991 1127.2227,-140.991"/>
<polygon fill="#000000" stroke="#000000" points="1123.7227,-140.9909 1127.2227,-150.991 1130.7227,-140.991 1123.7227,-140.9909"/>
</g>
<!-- AccountLocationService -->
<g id="node17" class="node">
<title>AccountLocationService</title>
<ellipse fill="#fdb462" stroke="#000000" cx="907" cy="-104" rx="107.0627" ry="18"/>
<text text-anchor="middle" x="907" y="-99.8" font-family="Times,serif" font-size="14.00" fill="#000000">AccountLocationService</text>
</g>
<!-- AccountLocationService&#45;&gt;StoreModule -->
<g id="edge16" class="edge">
<title>AccountLocationService&#45;&gt;StoreModule</title>
<path fill="none" stroke="#000000" d="M965.336,-119.3017C965.336,-134.3241 965.336,-155 965.336,-155 965.336,-155 1106.1107,-155 1106.1107,-155"/>
<polygon fill="#000000" stroke="#000000" points="1106.1108,-158.5001 1116.1107,-155 1106.1107,-151.5001 1106.1108,-158.5001"/>
</g>
<!-- AccountService -->
<g id="node18" class="node">
<title>AccountService</title>
<ellipse fill="#fdb462" stroke="#000000" cx="709" cy="-104" rx="72.9121" ry="18"/>
<text text-anchor="middle" x="709" y="-99.8" font-family="Times,serif" font-size="14.00" fill="#000000">AccountService</text>
</g>
<!-- AccountService&#45;&gt;StoreModule -->
<g id="edge17" class="edge">
<title>AccountService&#45;&gt;StoreModule</title>
<path fill="none" stroke="#000000" d="M766.3965,-115.1301C766.3965,-131.2012 766.3965,-159 766.3965,-159 766.3965,-159 1106.1181,-159 1106.1181,-159"/>
<polygon fill="#000000" stroke="#000000" points="1106.1182,-162.5001 1116.1181,-159 1106.1181,-155.5001 1106.1182,-162.5001"/>
</g>
<!-- ContactService -->
<g id="node19" class="node">
<title>ContactService</title>
<ellipse fill="#fdb462" stroke="#000000" cx="548" cy="-104" rx="70.0596" ry="18"/>
<text text-anchor="middle" x="548" y="-99.8" font-family="Times,serif" font-size="14.00" fill="#000000">ContactService</text>
</g>
<!-- ContactService&#45;&gt;StoreModule -->
<g id="edge18" class="edge">
<title>ContactService&#45;&gt;StoreModule</title>
<path fill="none" stroke="#000000" d="M600.4755,-116.0176C600.4755,-133.0062 600.4755,-162 600.4755,-162 600.4755,-162 1106.0774,-162 1106.0774,-162"/>
<polygon fill="#000000" stroke="#000000" points="1106.0775,-165.5001 1116.0774,-162 1106.0774,-158.5001 1106.0775,-165.5001"/>
</g>
<!-- EmailService -->
<g id="node20" class="node">
<title>EmailService</title>
<ellipse fill="#fdb462" stroke="#000000" cx="397" cy="-104" rx="63.1151" ry="18"/>
<text text-anchor="middle" x="397" y="-99.8" font-family="Times,serif" font-size="14.00" fill="#000000">EmailService</text>
</g>
<!-- EmailService&#45;&gt;StoreModule -->
<g id="edge19" class="edge">
<title>EmailService&#45;&gt;StoreModule</title>
<path fill="none" stroke="#000000" d="M397,-122.2667C397,-140.5552 397,-166 397,-166 397,-166 1106.3416,-166 1106.3416,-166"/>
<polygon fill="#000000" stroke="#000000" points="1106.3416,-169.5001 1116.3416,-166 1106.3416,-162.5001 1106.3416,-169.5001"/>
</g>
<!-- StorefrontService -->
<g id="node21" class="node">
<title>StorefrontService</title>
<ellipse fill="#fdb462" stroke="#000000" cx="237" cy="-104" rx="79.2883" ry="18"/>
<text text-anchor="middle" x="237" y="-99.8" font-family="Times,serif" font-size="14.00" fill="#000000">StorefrontService</text>
</g>
<!-- StorefrontService&#45;&gt;StoreModule -->
<g id="edge20" class="edge">
<title>StorefrontService&#45;&gt;StoreModule</title>
<path fill="none" stroke="#000000" d="M237,-122.1061C237,-141.3391 237,-169 237,-169 237,-169 1106.4336,-169 1106.4336,-169"/>
<polygon fill="#000000" stroke="#000000" points="1106.4336,-172.5001 1116.4336,-169 1106.4335,-165.5001 1106.4336,-172.5001"/>
</g>
<!-- UserService -->
<g id="node22" class="node">
<title>UserService</title>
<ellipse fill="#fdb462" stroke="#000000" cx="82" cy="-104" rx="58.4415" ry="18"/>
<text text-anchor="middle" x="82" y="-99.8" font-family="Times,serif" font-size="14.00" fill="#000000">UserService</text>
</g>
<!-- UserService&#45;&gt;StoreModule -->
<g id="edge21" class="edge">
<title>UserService&#45;&gt;StoreModule</title>
<path fill="none" stroke="#000000" d="M82,-122.1289C82,-142.5724 82,-173 82,-173 82,-173 1106.351,-173 1106.351,-173"/>
<polygon fill="#000000" stroke="#000000" points="1106.351,-176.5001 1116.351,-173 1106.3509,-169.5001 1106.351,-176.5001"/>
</g>
</g>
</svg>
