<?xml version="1.0" encoding="UTF-8" standalone="no"?>
<!DOCTYPE svg PUBLIC "-//W3C//DTD SVG 1.1//EN"
 "http://www.w3.org/Graphics/SVG/1.1/DTD/svg11.dtd">
<!-- Generated by graphviz version 2.40.1 (20161225.0304)
 -->
<!-- Title: dependencies Pages: 1 -->
<svg width="1446pt" height="284pt"
 viewBox="0.00 0.00 1446.00 284.00" xmlns="http://www.w3.org/2000/svg" xmlns:xlink="http://www.w3.org/1999/xlink">
<g id="graph0" class="graph" transform="scale(1 1) rotate(0) translate(4 280)">
<title>dependencies</title>
<polygon fill="#ffffff" stroke="transparent" points="-4,4 -4,-280 1442,-280 1442,4 -4,4"/>
<text text-anchor="start" x="698.0091" y="-42.4" font-family="sans-serif" font-weight="bold" font-size="14.00" fill="#000000">Legend</text>
<polygon fill="#ffffb3" stroke="transparent" points="485,-10 485,-30 505,-30 505,-10 485,-10"/>
<text text-anchor="start" x="508.629" y="-15.4" font-family="sans-serif" font-size="14.00" fill="#000000"> &#160;Declarations</text>
<polygon fill="#8dd3c7" stroke="transparent" points="598,-10 598,-30 618,-30 618,-10 598,-10"/>
<text text-anchor="start" x="621.7251" y="-15.4" font-family="sans-serif" font-size="14.00" fill="#000000"> &#160;Module</text>
<polygon fill="#80b1d3" stroke="transparent" points="684,-10 684,-30 704,-30 704,-10 684,-10"/>
<text text-anchor="start" x="707.7812" y="-15.4" font-family="sans-serif" font-size="14.00" fill="#000000"> &#160;Bootstrap</text>
<polygon fill="#fdb462" stroke="transparent" points="781,-10 781,-30 801,-30 801,-10 781,-10"/>
<text text-anchor="start" x="804.6732" y="-15.4" font-family="sans-serif" font-size="14.00" fill="#000000"> &#160;Providers</text>
<polygon fill="#fb8072" stroke="transparent" points="877,-10 877,-30 897,-30 897,-10 877,-10"/>
<text text-anchor="start" x="900.7258" y="-15.4" font-family="sans-serif" font-size="14.00" fill="#000000"> &#160;Exports</text>
<g id="clust1" class="cluster">
<title>cluster_StoreModule</title>
<polygon fill="none" stroke="#000000" stroke-dasharray="1,5" points="8,-70 8,-268 1430,-268 1430,-70 8,-70"/>
</g>
<g id="clust2" class="cluster">
<title>cluster_StoreModule_declarations</title>
<polygon fill="none" stroke="#000000" points="254,-78 254,-130 1422,-130 1422,-78 254,-78"/>
</g>
<g id="clust10" class="cluster">
<title>cluster_StoreModule_imports</title>
<polygon fill="none" stroke="#000000" points="16,-78 16,-130 246,-130 246,-78 16,-78"/>
</g>
<g id="clust11" class="cluster">
<title>cluster_StoreModule_exports</title>
<polygon fill="none" stroke="#000000" points="73,-208 73,-260 1263,-260 1263,-208 73,-208"/>
</g>
<!-- AddressComponent -->
<g id="node1" class="node">
<title>AddressComponent</title>
<polygon fill="#ffffb3" stroke="#000000" points="1413.7036,-122 1286.2964,-122 1286.2964,-86 1413.7036,-86 1413.7036,-122"/>
<text text-anchor="middle" x="1350" y="-99.8" font-family="Times,serif" font-size="14.00" fill="#000000">AddressComponent</text>
</g>
<!-- StoreModule -->
<g id="node8" class="node">
<title>StoreModule</title>
<polygon fill="#8dd3c7" stroke="#000000" points="703.5983,-187 700.5983,-191 679.5983,-191 676.5983,-187 614.4017,-187 614.4017,-151 703.5983,-151 703.5983,-187"/>
<text text-anchor="middle" x="659" y="-164.8" font-family="Times,serif" font-size="14.00" fill="#000000">StoreModule</text>
</g>
<!-- AddressComponent&#45;&gt;StoreModule -->
<g id="edge1" class="edge">
<title>AddressComponent&#45;&gt;StoreModule</title>
<path fill="none" stroke="#000000" d="M1350,-122.1061C1350,-141.3391 1350,-169 1350,-169 1350,-169 713.806,-169 713.806,-169"/>
<polygon fill="#000000" stroke="#000000" points="713.8061,-165.5001 703.806,-169 713.806,-172.5001 713.8061,-165.5001"/>
</g>
<!-- DependentPicklistComponent -->
<g id="node2" class="node">
<title>DependentPicklistComponent</title>
<polygon fill="#ffffb3" stroke="#000000" points="1267.9776,-122 1084.0224,-122 1084.0224,-86 1267.9776,-86 1267.9776,-122"/>
<text text-anchor="middle" x="1176" y="-99.8" font-family="Times,serif" font-size="14.00" fill="#000000">DependentPicklistComponent</text>
</g>
<!-- DependentPicklistComponent&#45;&gt;StoreModule -->
<g id="edge2" class="edge">
<title>DependentPicklistComponent&#45;&gt;StoreModule</title>
<path fill="none" stroke="#000000" d="M1095.375,-122.302C1095.375,-140.2699 1095.375,-165 1095.375,-165 1095.375,-165 713.649,-165 713.649,-165"/>
<polygon fill="#000000" stroke="#000000" points="713.6491,-161.5001 703.649,-165 713.649,-168.5001 713.6491,-161.5001"/>
</g>
<!-- InputFieldComponent -->
<g id="node3" class="node">
<title>InputFieldComponent</title>
<polygon fill="#ffffb3" stroke="#000000" points="1065.6624,-122 926.3376,-122 926.3376,-86 1065.6624,-86 1065.6624,-122"/>
<text text-anchor="middle" x="996" y="-99.8" font-family="Times,serif" font-size="14.00" fill="#000000">InputFieldComponent</text>
</g>
<!-- InputFieldComponent&#45;&gt;StoreModule -->
<g id="edge3" class="edge">
<title>InputFieldComponent&#45;&gt;StoreModule</title>
<path fill="none" stroke="#000000" d="M1019.277,-122.027C1019.277,-138.3976 1019.277,-160 1019.277,-160 1019.277,-160 713.9009,-160 713.9009,-160"/>
<polygon fill="#000000" stroke="#000000" points="713.9009,-156.5001 703.9009,-160 713.9008,-163.5001 713.9009,-156.5001"/>
</g>
<!-- InputQuantityComponent -->
<g id="node4" class="node">
<title>InputQuantityComponent</title>
<polygon fill="#ffffb3" stroke="#000000" points="907.8766,-122 748.1234,-122 748.1234,-86 907.8766,-86 907.8766,-122"/>
<text text-anchor="middle" x="828" y="-99.8" font-family="Times,serif" font-size="14.00" fill="#000000">InputQuantityComponent</text>
</g>
<!-- InputQuantityComponent&#45;&gt;StoreModule -->
<g id="edge4" class="edge">
<title>InputQuantityComponent&#45;&gt;StoreModule</title>
<path fill="none" stroke="#000000" d="M753.2404,-122.1871C753.2404,-137.1824 753.2404,-156 753.2404,-156 753.2404,-156 713.6363,-156 713.6363,-156"/>
<polygon fill="#000000" stroke="#000000" points="713.6364,-152.5001 703.6363,-156 713.6363,-159.5001 713.6364,-152.5001"/>
</g>
<!-- JumbotronComponent -->
<g id="node5" class="node">
<title>JumbotronComponent</title>
<polygon fill="#ffffb3" stroke="#000000" points="729.719,-122 588.281,-122 588.281,-86 729.719,-86 729.719,-122"/>
<text text-anchor="middle" x="659" y="-99.8" font-family="Times,serif" font-size="14.00" fill="#000000">JumbotronComponent</text>
</g>
<!-- JumbotronComponent&#45;&gt;StoreModule -->
<g id="edge5" class="edge">
<title>JumbotronComponent&#45;&gt;StoreModule</title>
<path fill="none" stroke="#000000" d="M659,-122.1061C659,-122.1061 659,-140.991 659,-140.991"/>
<polygon fill="#000000" stroke="#000000" points="655.5001,-140.9909 659,-150.991 662.5001,-140.991 655.5001,-140.9909"/>
</g>
<!-- MdSpinnerComponent -->
<g id="node6" class="node">
<title>MdSpinnerComponent</title>
<polygon fill="#ffffb3" stroke="#000000" points="570.3258,-122 425.6742,-122 425.6742,-86 570.3258,-86 570.3258,-122"/>
<text text-anchor="middle" x="498" y="-99.8" font-family="Times,serif" font-size="14.00" fill="#000000">MdSpinnerComponent</text>
</g>
<!-- MdSpinnerComponent&#45;&gt;StoreModule -->
<g id="edge6" class="edge">
<title>MdSpinnerComponent&#45;&gt;StoreModule</title>
<path fill="none" stroke="#000000" d="M564.7611,-122.1871C564.7611,-137.1824 564.7611,-156 564.7611,-156 564.7611,-156 604.3643,-156 604.3643,-156"/>
<polygon fill="#000000" stroke="#000000" points="604.3644,-159.5001 614.3643,-156 604.3643,-152.5001 604.3644,-159.5001"/>
</g>
<!-- MiniProfileComponent -->
<g id="node7" class="node">
<title>MiniProfileComponent</title>
<polygon fill="#ffffb3" stroke="#000000" points="408.1582,-122 261.8418,-122 261.8418,-86 408.1582,-86 408.1582,-122"/>
<text text-anchor="middle" x="335" y="-99.8" font-family="Times,serif" font-size="14.00" fill="#000000">MiniProfileComponent</text>
</g>
<!-- MiniProfileComponent&#45;&gt;StoreModule -->
<g id="edge7" class="edge">
<title>MiniProfileComponent&#45;&gt;StoreModule</title>
<path fill="none" stroke="#000000" d="M402.6208,-122.027C402.6208,-138.3976 402.6208,-160 402.6208,-160 402.6208,-160 604.3422,-160 604.3422,-160"/>
<polygon fill="#000000" stroke="#000000" points="604.3422,-163.5001 614.3422,-160 604.3421,-156.5001 604.3422,-163.5001"/>
</g>
<!-- AddressComponent  -->
<g id="node11" class="node">
<title>AddressComponent </title>
<polygon fill="#fb8072" stroke="#000000" points="1255.2037,-252 1124.7963,-252 1124.7963,-216 1255.2037,-216 1255.2037,-252"/>
<text text-anchor="middle" x="1190" y="-229.8" font-family="Times,serif" font-size="14.00" fill="#000000">AddressComponent </text>
</g>
<!-- StoreModule&#45;&gt;AddressComponent  -->
<g id="edge10" class="edge">
<title>StoreModule&#45;&gt;AddressComponent </title>
<path fill="none" stroke="#000000" stroke-dasharray="5,2" d="M703.8151,-174C831.8322,-174 1190,-174 1190,-174 1190,-174 1190,-205.998 1190,-205.998"/>
<polygon fill="#000000" stroke="#000000" points="1186.5001,-205.998 1190,-215.998 1193.5001,-205.9981 1186.5001,-205.998"/>
</g>
<!-- DependentPicklistComponent  -->
<g id="node12" class="node">
<title>DependentPicklistComponent </title>
<polygon fill="#fb8072" stroke="#000000" points="1106.9782,-252 919.0218,-252 919.0218,-216 1106.9782,-216 1106.9782,-252"/>
<text text-anchor="middle" x="1013" y="-229.8" font-family="Times,serif" font-size="14.00" fill="#000000">DependentPicklistComponent </text>
</g>
<!-- StoreModule&#45;&gt;DependentPicklistComponent  -->
<g id="edge11" class="edge">
<title>StoreModule&#45;&gt;DependentPicklistComponent </title>
<path fill="none" stroke="#000000" stroke-dasharray="5,2" d="M703.6157,-178C790.229,-178 972.723,-178 972.723,-178 972.723,-178 972.723,-205.973 972.723,-205.973"/>
<polygon fill="#000000" stroke="#000000" points="969.2231,-205.973 972.723,-215.973 976.2231,-205.973 969.2231,-205.973"/>
</g>
<!-- InputFieldComponent  -->
<g id="node13" class="node">
<title>InputFieldComponent </title>
<polygon fill="#fb8072" stroke="#000000" points="901.6621,-252 758.3379,-252 758.3379,-216 901.6621,-216 901.6621,-252"/>
<text text-anchor="middle" x="830" y="-229.8" font-family="Times,serif" font-size="14.00" fill="#000000">InputFieldComponent </text>
</g>
<!-- StoreModule&#45;&gt;InputFieldComponent  -->
<g id="edge12" class="edge">
<title>StoreModule&#45;&gt;InputFieldComponent </title>
<path fill="none" stroke="#000000" stroke-dasharray="5,2" d="M703.9282,-183C754.5926,-183 830,-183 830,-183 830,-183 830,-205.8757 830,-205.8757"/>
<polygon fill="#000000" stroke="#000000" points="826.5001,-205.8757 830,-215.8757 833.5001,-205.8757 826.5001,-205.8757"/>
</g>
<!-- InputQuantityComponent  -->
<g id="node14" class="node">
<title>InputQuantityComponent </title>
<polygon fill="#fb8072" stroke="#000000" points="740.877,-252 577.123,-252 577.123,-216 740.877,-216 740.877,-252"/>
<text text-anchor="middle" x="659" y="-229.8" font-family="Times,serif" font-size="14.00" fill="#000000">InputQuantityComponent </text>
</g>
<!-- StoreModule&#45;&gt;InputQuantityComponent  -->
<g id="edge13" class="edge">
<title>StoreModule&#45;&gt;InputQuantityComponent </title>
<path fill="none" stroke="#000000" stroke-dasharray="5,2" d="M659,-187.1061C659,-187.1061 659,-205.991 659,-205.991"/>
<polygon fill="#000000" stroke="#000000" points="655.5001,-205.9909 659,-215.991 662.5001,-205.991 655.5001,-205.9909"/>
</g>
<!-- JumbotronComponent  -->
<g id="node15" class="node">
<title>JumbotronComponent </title>
<polygon fill="#fb8072" stroke="#000000" points="559.2191,-252 414.7809,-252 414.7809,-216 559.2191,-216 559.2191,-252"/>
<text text-anchor="middle" x="487" y="-229.8" font-family="Times,serif" font-size="14.00" fill="#000000">JumbotronComponent </text>
</g>
<!-- StoreModule&#45;&gt;JumbotronComponent  -->
<g id="edge14" class="edge">
<title>StoreModule&#45;&gt;JumbotronComponent </title>
<path fill="none" stroke="#000000" stroke-dasharray="5,2" d="M614.4074,-183C565.1172,-183 492.5984,-183 492.5984,-183 492.5984,-183 492.5984,-205.8757 492.5984,-205.8757"/>
<polygon fill="#000000" stroke="#000000" points="489.0984,-205.8757 492.5984,-215.8757 496.0984,-205.8757 489.0984,-205.8757"/>
</g>
<!-- MdSpinnerComponent  -->
<g id="node16" class="node">
<title>MdSpinnerComponent </title>
<polygon fill="#fb8072" stroke="#000000" points="396.8255,-252 249.1745,-252 249.1745,-216 396.8255,-216 396.8255,-252"/>
<text text-anchor="middle" x="323" y="-229.8" font-family="Times,serif" font-size="14.00" fill="#000000">MdSpinnerComponent </text>
</g>
<!-- StoreModule&#45;&gt;MdSpinnerComponent  -->
<g id="edge15" class="edge">
<title>StoreModule&#45;&gt;MdSpinnerComponent </title>
<path fill="none" stroke="#000000" stroke-dasharray="5,2" d="M614.191,-178C524.0427,-178 329.2919,-178 329.2919,-178 329.2919,-178 329.2919,-205.973 329.2919,-205.973"/>
<polygon fill="#000000" stroke="#000000" points="325.792,-205.973 329.2919,-215.973 332.792,-205.973 325.792,-205.973"/>
</g>
<!-- MiniProfileComponent  -->
<g id="node17" class="node">
<title>MiniProfileComponent </title>
<polygon fill="#fb8072" stroke="#000000" points="231.1579,-252 80.8421,-252 80.8421,-216 231.1579,-216 231.1579,-252"/>
<text text-anchor="middle" x="156" y="-229.8" font-family="Times,serif" font-size="14.00" fill="#000000">MiniProfileComponent </text>
</g>
<!-- StoreModule&#45;&gt;MiniProfileComponent  -->
<g id="edge16" class="edge">
<title>StoreModule&#45;&gt;MiniProfileComponent </title>
<path fill="none" stroke="#000000" stroke-dasharray="5,2" d="M614.1052,-174C496.116,-174 186.3189,-174 186.3189,-174 186.3189,-174 186.3189,-205.998 186.3189,-205.998"/>
<polygon fill="#000000" stroke="#000000" points="182.819,-205.998 186.3189,-215.998 189.819,-205.9981 182.819,-205.998"/>
</g>
<!-- ApttusModule -->
<g id="node9" class="node">
<title>ApttusModule</title>
<polygon fill="#8dd3c7" stroke="#000000" points="238.3823,-122 235.3823,-126 214.3823,-126 211.3823,-122 141.6177,-122 141.6177,-86 238.3823,-86 238.3823,-122"/>
<text text-anchor="middle" x="190" y="-99.8" font-family="Times,serif" font-size="14.00" fill="#000000">ApttusModule</text>
</g>
<!-- ApttusModule&#45;&gt;StoreModule -->
<g id="edge8" class="edge">
<title>ApttusModule&#45;&gt;StoreModule</title>
<path fill="none" stroke="#000000" d="M234.76,-122.302C234.76,-140.2699 234.76,-165 234.76,-165 234.76,-165 604.4007,-165 604.4007,-165"/>
<polygon fill="#000000" stroke="#000000" points="604.4008,-168.5001 614.4007,-165 604.4007,-161.5001 604.4008,-168.5001"/>
</g>
<!-- PricingModule -->
<g id="node10" class="node">
<title>PricingModule</title>
<polygon fill="#8dd3c7" stroke="#000000" points="123.9888,-122 120.9888,-126 99.9888,-126 96.9888,-122 24.0112,-122 24.0112,-86 123.9888,-86 123.9888,-122"/>
<text text-anchor="middle" x="74" y="-99.8" font-family="Times,serif" font-size="14.00" fill="#000000">PricingModule</text>
</g>
<!-- PricingModule&#45;&gt;StoreModule -->
<g id="edge9" class="edge">
<title>PricingModule&#45;&gt;StoreModule</title>
<path fill="none" stroke="#000000" d="M102.4577,-122.1061C102.4577,-141.3391 102.4577,-169 102.4578,-169 102.4578,-169 604.3966,-169 604.3966,-169"/>
<polygon fill="#000000" stroke="#000000" points="604.3966,-172.5001 614.3966,-169 604.3966,-165.5001 604.3966,-172.5001"/>
</g>
</g>
</svg>
