<?xml version="1.0" encoding="UTF-8" standalone="no"?>
<!DOCTYPE svg PUBLIC "-//W3C//DTD SVG 1.1//EN"
 "http://www.w3.org/Graphics/SVG/1.1/DTD/svg11.dtd">
<!-- Generated by graphviz version 2.40.1 (20161225.0304)
 -->
<!-- Title: dependencies Pages: 1 -->
<svg width="950pt" height="284pt"
 viewBox="0.00 0.00 950.00 284.00" xmlns="http://www.w3.org/2000/svg" xmlns:xlink="http://www.w3.org/1999/xlink">
<g id="graph0" class="graph" transform="scale(1 1) rotate(0) translate(4 280)">
<title>dependencies</title>
<polygon fill="#ffffff" stroke="transparent" points="-4,4 -4,-280 946,-280 946,4 -4,4"/>
<text text-anchor="start" x="450.0091" y="-42.4" font-family="sans-serif" font-weight="bold" font-size="14.00" fill="#000000">Legend</text>
<polygon fill="#ffffb3" stroke="transparent" points="237,-10 237,-30 257,-30 257,-10 237,-10"/>
<text text-anchor="start" x="260.629" y="-15.4" font-family="sans-serif" font-size="14.00" fill="#000000"> &#160;Declarations</text>
<polygon fill="#8dd3c7" stroke="transparent" points="350,-10 350,-30 370,-30 370,-10 350,-10"/>
<text text-anchor="start" x="373.7251" y="-15.4" font-family="sans-serif" font-size="14.00" fill="#000000"> &#160;Module</text>
<polygon fill="#80b1d3" stroke="transparent" points="436,-10 436,-30 456,-30 456,-10 436,-10"/>
<text text-anchor="start" x="459.7812" y="-15.4" font-family="sans-serif" font-size="14.00" fill="#000000"> &#160;Bootstrap</text>
<polygon fill="#fdb462" stroke="transparent" points="533,-10 533,-30 553,-30 553,-10 533,-10"/>
<text text-anchor="start" x="556.6732" y="-15.4" font-family="sans-serif" font-size="14.00" fill="#000000"> &#160;Providers</text>
<polygon fill="#fb8072" stroke="transparent" points="629,-10 629,-30 649,-30 649,-10 629,-10"/>
<text text-anchor="start" x="652.7258" y="-15.4" font-family="sans-serif" font-size="14.00" fill="#000000"> &#160;Exports</text>
<g id="clust1" class="cluster">
<title>cluster_StoreModule</title>
<polygon fill="none" stroke="#000000" stroke-dasharray="1,5" points="8,-70 8,-268 934,-268 934,-70 8,-70"/>
</g>
<g id="clust2" class="cluster">
<title>cluster_StoreModule_declarations</title>
<polygon fill="none" stroke="#000000" points="140,-78 140,-130 926,-130 926,-78 140,-78"/>
</g>
<g id="clust8" class="cluster">
<title>cluster_StoreModule_imports</title>
<polygon fill="none" stroke="#000000" points="16,-78 16,-130 132,-130 132,-78 16,-78"/>
</g>
<g id="clust9" class="cluster">
<title>cluster_StoreModule_exports</title>
<polygon fill="none" stroke="#000000" points="69,-208 69,-260 873,-260 873,-208 69,-208"/>
</g>
<!-- AddressComponent -->
<g id="node1" class="node">
<title>AddressComponent</title>
<polygon fill="#ffffb3" stroke="#000000" points="917.7036,-122 790.2964,-122 790.2964,-86 917.7036,-86 917.7036,-122"/>
<text text-anchor="middle" x="854" y="-99.8" font-family="Times,serif" font-size="14.00" fill="#000000">AddressComponent</text>
</g>
<!-- StoreModule -->
<g id="node6" class="node">
<title>StoreModule</title>
<polygon fill="#8dd3c7" stroke="#000000" points="527.5983,-187 524.5983,-191 503.5983,-191 500.5983,-187 438.4017,-187 438.4017,-151 527.5983,-151 527.5983,-187"/>
<text text-anchor="middle" x="483" y="-164.8" font-family="Times,serif" font-size="14.00" fill="#000000">StoreModule</text>
</g>
<!-- AddressComponent&#45;&gt;StoreModule -->
<g id="edge1" class="edge">
<title>AddressComponent&#45;&gt;StoreModule</title>
<path fill="none" stroke="#000000" d="M827.875,-122.2667C827.875,-140.5552 827.875,-166 827.875,-166 827.875,-166 537.7328,-166 537.7328,-166"/>
<polygon fill="#000000" stroke="#000000" points="537.7329,-162.5001 527.7328,-166 537.7328,-169.5001 537.7329,-162.5001"/>
</g>
<!-- InputFieldComponent -->
<g id="node2" class="node">
<title>InputFieldComponent</title>
<polygon fill="#ffffb3" stroke="#000000" points="772.6624,-122 633.3376,-122 633.3376,-86 772.6624,-86 772.6624,-122"/>
<text text-anchor="middle" x="703" y="-99.8" font-family="Times,serif" font-size="14.00" fill="#000000">InputFieldComponent</text>
</g>
<!-- InputFieldComponent&#45;&gt;StoreModule -->
<g id="edge2" class="edge">
<title>InputFieldComponent&#45;&gt;StoreModule</title>
<path fill="none" stroke="#000000" d="M674.875,-122.0091C674.875,-138.0494 674.875,-159 674.875,-159 674.875,-159 537.9862,-159 537.9862,-159"/>
<polygon fill="#000000" stroke="#000000" points="537.9862,-155.5001 527.9862,-159 537.9861,-162.5001 537.9862,-155.5001"/>
</g>
<!-- JumbotronComponent -->
<g id="node3" class="node">
<title>JumbotronComponent</title>
<polygon fill="#ffffb3" stroke="#000000" points="615.719,-122 474.281,-122 474.281,-86 615.719,-86 615.719,-122"/>
<text text-anchor="middle" x="545" y="-99.8" font-family="Times,serif" font-size="14.00" fill="#000000">JumbotronComponent</text>
</g>
<!-- JumbotronComponent&#45;&gt;StoreModule -->
<g id="edge3" class="edge">
<title>JumbotronComponent&#45;&gt;StoreModule</title>
<path fill="none" stroke="#000000" d="M500.9699,-122.1061C500.9699,-122.1061 500.9699,-140.991 500.9699,-140.991"/>
<polygon fill="#000000" stroke="#000000" points="497.4699,-140.9909 500.9699,-150.991 504.4699,-140.991 497.4699,-140.9909"/>
</g>
<!-- MdSpinnerComponent -->
<g id="node4" class="node">
<title>MdSpinnerComponent</title>
<polygon fill="#ffffb3" stroke="#000000" points="456.3258,-122 311.6742,-122 311.6742,-86 456.3258,-86 456.3258,-122"/>
<text text-anchor="middle" x="384" y="-99.8" font-family="Times,serif" font-size="14.00" fill="#000000">MdSpinnerComponent</text>
</g>
<!-- MdSpinnerComponent&#45;&gt;StoreModule -->
<g id="edge4" class="edge">
<title>MdSpinnerComponent&#45;&gt;StoreModule</title>
<path fill="none" stroke="#000000" d="M447.3068,-122.1061C447.3068,-122.1061 447.3068,-140.991 447.3068,-140.991"/>
<polygon fill="#000000" stroke="#000000" points="443.8069,-140.9909 447.3068,-150.991 450.8069,-140.991 443.8069,-140.9909"/>
</g>
<!-- MiniProfileComponent -->
<g id="node5" class="node">
<title>MiniProfileComponent</title>
<polygon fill="#ffffb3" stroke="#000000" points="294.1582,-122 147.8418,-122 147.8418,-86 294.1582,-86 294.1582,-122"/>
<text text-anchor="middle" x="221" y="-99.8" font-family="Times,serif" font-size="14.00" fill="#000000">MiniProfileComponent</text>
</g>
<!-- MiniProfileComponent&#45;&gt;StoreModule -->
<g id="edge5" class="edge">
<title>MiniProfileComponent&#45;&gt;StoreModule</title>
<path fill="none" stroke="#000000" d="M269.7081,-122.0091C269.7081,-138.0494 269.7081,-159 269.7081,-159 269.7081,-159 428.287,-159 428.287,-159"/>
<polygon fill="#000000" stroke="#000000" points="428.2871,-162.5001 438.287,-159 428.287,-155.5001 428.2871,-162.5001"/>
</g>
<!-- AddressComponent  -->
<g id="node8" class="node">
<title>AddressComponent </title>
<polygon fill="#fb8072" stroke="#000000" points="865.2037,-252 734.7963,-252 734.7963,-216 865.2037,-216 865.2037,-252"/>
<text text-anchor="middle" x="800" y="-229.8" font-family="Times,serif" font-size="14.00" fill="#000000">AddressComponent </text>
</g>
<!-- StoreModule&#45;&gt;AddressComponent  -->
<g id="edge7" class="edge">
<title>StoreModule&#45;&gt;AddressComponent </title>
<path fill="none" stroke="#000000" stroke-dasharray="5,2" d="M527.7071,-173C604.6048,-173 753.7397,-173 753.7397,-173 753.7397,-173 753.7397,-205.698 753.7397,-205.698"/>
<polygon fill="#000000" stroke="#000000" points="750.2397,-205.698 753.7397,-215.698 757.2397,-205.698 750.2397,-205.698"/>
</g>
<!-- InputFieldComponent  -->
<g id="node9" class="node">
<title>InputFieldComponent </title>
<polygon fill="#fb8072" stroke="#000000" points="716.6621,-252 573.3379,-252 573.3379,-216 716.6621,-216 716.6621,-252"/>
<text text-anchor="middle" x="645" y="-229.8" font-family="Times,serif" font-size="14.00" fill="#000000">InputFieldComponent </text>
</g>
<!-- StoreModule&#45;&gt;InputFieldComponent  -->
<g id="edge8" class="edge">
<title>StoreModule&#45;&gt;InputFieldComponent </title>
<path fill="none" stroke="#000000" stroke-dasharray="5,2" d="M527.7146,-180C558.7387,-180 594.5142,-180 594.5142,-180 594.5142,-180 594.5142,-205.7181 594.5142,-205.7181"/>
<polygon fill="#000000" stroke="#000000" points="591.0143,-205.718 594.5142,-215.7181 598.0143,-205.7181 591.0143,-205.718"/>
</g>
<!-- JumbotronComponent  -->
<g id="node10" class="node">
<title>JumbotronComponent </title>
<polygon fill="#fb8072" stroke="#000000" points="555.2191,-252 410.7809,-252 410.7809,-216 555.2191,-216 555.2191,-252"/>
<text text-anchor="middle" x="483" y="-229.8" font-family="Times,serif" font-size="14.00" fill="#000000">JumbotronComponent </text>
</g>
<!-- StoreModule&#45;&gt;JumbotronComponent  -->
<g id="edge9" class="edge">
<title>StoreModule&#45;&gt;JumbotronComponent </title>
<path fill="none" stroke="#000000" stroke-dasharray="5,2" d="M483,-187.1061C483,-187.1061 483,-205.991 483,-205.991"/>
<polygon fill="#000000" stroke="#000000" points="479.5001,-205.9909 483,-215.991 486.5001,-205.991 479.5001,-205.9909"/>
</g>
<!-- MdSpinnerComponent  -->
<g id="node11" class="node">
<title>MdSpinnerComponent </title>
<polygon fill="#fb8072" stroke="#000000" points="392.8255,-252 245.1745,-252 245.1745,-216 392.8255,-216 392.8255,-252"/>
<text text-anchor="middle" x="319" y="-229.8" font-family="Times,serif" font-size="14.00" fill="#000000">MdSpinnerComponent </text>
</g>
<!-- StoreModule&#45;&gt;MdSpinnerComponent  -->
<g id="edge10" class="edge">
<title>StoreModule&#45;&gt;MdSpinnerComponent </title>
<path fill="none" stroke="#000000" stroke-dasharray="5,2" d="M438.4116,-180C400.5706,-180 352.375,-180 352.375,-180 352.375,-180 352.375,-205.7181 352.375,-205.7181"/>
<polygon fill="#000000" stroke="#000000" points="348.8751,-205.718 352.375,-215.7181 355.8751,-205.7181 348.8751,-205.718"/>
</g>
<!-- MiniProfileComponent  -->
<g id="node12" class="node">
<title>MiniProfileComponent </title>
<polygon fill="#fb8072" stroke="#000000" points="227.1579,-252 76.8421,-252 76.8421,-216 227.1579,-216 227.1579,-252"/>
<text text-anchor="middle" x="152" y="-229.8" font-family="Times,serif" font-size="14.00" fill="#000000">MiniProfileComponent </text>
</g>
<!-- StoreModule&#45;&gt;MiniProfileComponent  -->
<g id="edge11" class="edge">
<title>StoreModule&#45;&gt;MiniProfileComponent </title>
<path fill="none" stroke="#000000" stroke-dasharray="5,2" d="M438.4219,-173C355.8363,-173 187.375,-173 187.375,-173 187.375,-173 187.375,-205.698 187.375,-205.698"/>
<polygon fill="#000000" stroke="#000000" points="183.8751,-205.698 187.375,-215.698 190.8751,-205.698 183.8751,-205.698"/>
</g>
<!-- PricingModule -->
<g id="node7" class="node">
<title>PricingModule</title>
<polygon fill="#8dd3c7" stroke="#000000" points="123.9888,-122 120.9888,-126 99.9888,-126 96.9888,-122 24.0112,-122 24.0112,-86 123.9888,-86 123.9888,-122"/>
<text text-anchor="middle" x="74" y="-99.8" font-family="Times,serif" font-size="14.00" fill="#000000">PricingModule</text>
</g>
<!-- PricingModule&#45;&gt;StoreModule -->
<g id="edge6" class="edge">
<title>PricingModule&#45;&gt;StoreModule</title>
<path fill="none" stroke="#000000" d="M100.4577,-122.2667C100.4577,-140.5552 100.4577,-166 100.4577,-166 100.4577,-166 428.3689,-166 428.3689,-166"/>
<polygon fill="#000000" stroke="#000000" points="428.3689,-169.5001 438.3689,-166 428.3688,-162.5001 428.3689,-169.5001"/>
</g>
</g>
</svg>
