<?xml version="1.0" encoding="UTF-8" standalone="no"?>
<!DOCTYPE svg PUBLIC "-//W3C//DTD SVG 1.1//EN"
 "http://www.w3.org/Graphics/SVG/1.1/DTD/svg11.dtd">
<!-- Generated by graphviz version 2.40.1 (20161225.0304)
 -->
<!-- Title: dependencies Pages: 1 -->
<svg width="504pt" height="211pt"
 viewBox="0.00 0.00 504.00 211.00" xmlns="http://www.w3.org/2000/svg" xmlns:xlink="http://www.w3.org/1999/xlink">
<g id="graph0" class="graph" transform="scale(1 1) rotate(0) translate(4 207)">
<title>dependencies</title>
<polygon fill="#ffffff" stroke="transparent" points="-4,4 -4,-207 500,-207 500,4 -4,4"/>
<text text-anchor="start" x="227.0091" y="-42.4" font-family="sans-serif" font-weight="bold" font-size="14.00" fill="#000000">Legend</text>
<polygon fill="#ffffb3" stroke="transparent" points="14,-10 14,-30 34,-30 34,-10 14,-10"/>
<text text-anchor="start" x="37.629" y="-15.4" font-family="sans-serif" font-size="14.00" fill="#000000"> &#160;Declarations</text>
<polygon fill="#8dd3c7" stroke="transparent" points="127,-10 127,-30 147,-30 147,-10 127,-10"/>
<text text-anchor="start" x="150.7251" y="-15.4" font-family="sans-serif" font-size="14.00" fill="#000000"> &#160;Module</text>
<polygon fill="#80b1d3" stroke="transparent" points="213,-10 213,-30 233,-30 233,-10 213,-10"/>
<text text-anchor="start" x="236.7812" y="-15.4" font-family="sans-serif" font-size="14.00" fill="#000000"> &#160;Bootstrap</text>
<polygon fill="#fdb462" stroke="transparent" points="310,-10 310,-30 330,-30 330,-10 310,-10"/>
<text text-anchor="start" x="333.6732" y="-15.4" font-family="sans-serif" font-size="14.00" fill="#000000"> &#160;Providers</text>
<polygon fill="#fb8072" stroke="transparent" points="406,-10 406,-30 426,-30 426,-10 406,-10"/>
<text text-anchor="start" x="429.7258" y="-15.4" font-family="sans-serif" font-size="14.00" fill="#000000"> &#160;Exports</text>
<g id="clust1" class="cluster">
<title>cluster_AboModule</title>
<polygon fill="none" stroke="#000000" stroke-dasharray="1,5" points="131,-70 131,-195 365,-195 365,-70 131,-70"/>
</g>
<g id="clust3" class="cluster">
<title>cluster_AboModule_imports</title>
<polygon fill="none" stroke="#000000" points="139,-78 139,-130 357,-130 357,-78 139,-78"/>
</g>
<!-- CartModule -->
<g id="node1" class="node">
<title>CartModule</title>
<polygon fill="#8dd3c7" stroke="#000000" points="348.6529,-122 345.6529,-126 324.6529,-126 321.6529,-122 265.3471,-122 265.3471,-86 348.6529,-86 348.6529,-122"/>
<text text-anchor="middle" x="307" y="-99.8" font-family="Times,serif" font-size="14.00" fill="#000000">CartModule</text>
</g>
<!-- AboModule -->
<g id="node3" class="node">
<title>AboModule</title>
<polygon fill="#8dd3c7" stroke="#000000" points="293.6571,-187 290.6571,-191 269.6571,-191 266.6571,-187 210.3429,-187 210.3429,-151 293.6571,-151 293.6571,-187"/>
<text text-anchor="middle" x="252" y="-164.8" font-family="Times,serif" font-size="14.00" fill="#000000">AboModule</text>
</g>
<!-- CartModule&#45;&gt;AboModule -->
<g id="edge1" class="edge">
<title>CartModule&#45;&gt;AboModule</title>
<path fill="none" stroke="#000000" d="M279.501,-122.1061C279.501,-122.1061 279.501,-140.991 279.501,-140.991"/>
<polygon fill="#000000" stroke="#000000" points="276.0011,-140.9909 279.501,-150.991 283.0011,-140.991 276.0011,-140.9909"/>
</g>
<!-- PricingModule -->
<g id="node2" class="node">
<title>PricingModule</title>
<polygon fill="#8dd3c7" stroke="#000000" points="246.9888,-122 243.9888,-126 222.9888,-126 219.9888,-122 147.0112,-122 147.0112,-86 246.9888,-86 246.9888,-122"/>
<text text-anchor="middle" x="197" y="-99.8" font-family="Times,serif" font-size="14.00" fill="#000000">PricingModule</text>
</g>
<!-- PricingModule&#45;&gt;AboModule -->
<g id="edge2" class="edge">
<title>PricingModule&#45;&gt;AboModule</title>
<path fill="none" stroke="#000000" d="M228.5831,-122.1061C228.5831,-122.1061 228.5831,-140.991 228.5831,-140.991"/>
<polygon fill="#000000" stroke="#000000" points="225.0832,-140.9909 228.5831,-150.991 232.0832,-140.991 225.0832,-140.9909"/>
</g>
</g>
</svg>
