<?xml version="1.0" encoding="UTF-8" standalone="no"?>
<!DOCTYPE svg PUBLIC "-//W3C//DTD SVG 1.1//EN"
 "http://www.w3.org/Graphics/SVG/1.1/DTD/svg11.dtd">
<!-- Generated by graphviz version 2.40.1 (20161225.0304)
 -->
<!-- Title: dependencies Pages: 1 -->
<svg width="516pt" height="284pt"
 viewBox="0.00 0.00 516.00 284.00" xmlns="http://www.w3.org/2000/svg" xmlns:xlink="http://www.w3.org/1999/xlink">
<g id="graph0" class="graph" transform="scale(1 1) rotate(0) translate(4 280)">
<title>dependencies</title>
<polygon fill="#ffffff" stroke="transparent" points="-4,4 -4,-280 512,-280 512,4 -4,4"/>
<text text-anchor="start" x="233.0091" y="-42.4" font-family="sans-serif" font-weight="bold" font-size="14.00" fill="#000000">Legend</text>
<polygon fill="#ffffb3" stroke="transparent" points="20,-10 20,-30 40,-30 40,-10 20,-10"/>
<text text-anchor="start" x="43.629" y="-15.4" font-family="sans-serif" font-size="14.00" fill="#000000"> &#160;Declarations</text>
<polygon fill="#8dd3c7" stroke="transparent" points="133,-10 133,-30 153,-30 153,-10 133,-10"/>
<text text-anchor="start" x="156.7251" y="-15.4" font-family="sans-serif" font-size="14.00" fill="#000000"> &#160;Module</text>
<polygon fill="#80b1d3" stroke="transparent" points="219,-10 219,-30 239,-30 239,-10 219,-10"/>
<text text-anchor="start" x="242.7812" y="-15.4" font-family="sans-serif" font-size="14.00" fill="#000000"> &#160;Bootstrap</text>
<polygon fill="#fdb462" stroke="transparent" points="316,-10 316,-30 336,-30 336,-10 316,-10"/>
<text text-anchor="start" x="339.6732" y="-15.4" font-family="sans-serif" font-size="14.00" fill="#000000"> &#160;Providers</text>
<polygon fill="#fb8072" stroke="transparent" points="412,-10 412,-30 432,-30 432,-10 412,-10"/>
<text text-anchor="start" x="435.7258" y="-15.4" font-family="sans-serif" font-size="14.00" fill="#000000"> &#160;Exports</text>
<g id="clust1" class="cluster">
<title>cluster_RecommendedProductsModule</title>
<polygon fill="none" stroke="#000000" stroke-dasharray="1,5" points="8,-70 8,-268 500,-268 500,-70 8,-70"/>
</g>
<g id="clust2" class="cluster">
<title>cluster_RecommendedProductsModule_declarations</title>
<polygon fill="none" stroke="#000000" points="244,-78 244,-130 492,-130 492,-78 244,-78"/>
</g>
<g id="clust4" class="cluster">
<title>cluster_RecommendedProductsModule_imports</title>
<polygon fill="none" stroke="#000000" points="16,-78 16,-130 236,-130 236,-78 16,-78"/>
</g>
<g id="clust5" class="cluster">
<title>cluster_RecommendedProductsModule_exports</title>
<polygon fill="none" stroke="#000000" points="53,-208 53,-260 305,-260 305,-208 53,-208"/>
</g>
<!-- CRRecommendedProductsComponent -->
<g id="node1" class="node">
<title>CRRecommendedProductsComponent</title>
<polygon fill="#ffffb3" stroke="#000000" points="484.4748,-122 251.5252,-122 251.5252,-86 484.4748,-86 484.4748,-122"/>
<text text-anchor="middle" x="368" y="-99.8" font-family="Times,serif" font-size="14.00" fill="#000000">CRRecommendedProductsComponent</text>
</g>
<!-- RecommendedProductsModule -->
<g id="node2" class="node">
<title>RecommendedProductsModule</title>
<polygon fill="#8dd3c7" stroke="#000000" points="275.0196,-187 272.0196,-191 251.0196,-191 248.0196,-187 82.9804,-187 82.9804,-151 275.0196,-151 275.0196,-187"/>
<text text-anchor="middle" x="179" y="-164.8" font-family="Times,serif" font-size="14.00" fill="#000000">RecommendedProductsModule</text>
</g>
<!-- CRRecommendedProductsComponent&#45;&gt;RecommendedProductsModule -->
<g id="edge1" class="edge">
<title>CRRecommendedProductsComponent&#45;&gt;RecommendedProductsModule</title>
<path fill="none" stroke="#000000" d="M263.3861,-122.1061C263.3861,-122.1061 263.3861,-140.991 263.3861,-140.991"/>
<polygon fill="#000000" stroke="#000000" points="259.8861,-140.9909 263.3861,-150.991 266.8861,-140.991 259.8861,-140.9909"/>
</g>
<!-- CRRecommendedProductsComponent  -->
<g id="node5" class="node">
<title>CRRecommendedProductsComponent </title>
<polygon fill="#fb8072" stroke="#000000" points="297.4753,-252 60.5247,-252 60.5247,-216 297.4753,-216 297.4753,-252"/>
<text text-anchor="middle" x="179" y="-229.8" font-family="Times,serif" font-size="14.00" fill="#000000">CRRecommendedProductsComponent </text>
</g>
<!-- RecommendedProductsModule&#45;&gt;CRRecommendedProductsComponent  -->
<g id="edge4" class="edge">
<title>RecommendedProductsModule&#45;&gt;CRRecommendedProductsComponent </title>
<path fill="none" stroke="#000000" stroke-dasharray="5,2" d="M179,-187.1061C179,-187.1061 179,-205.991 179,-205.991"/>
<polygon fill="#000000" stroke="#000000" points="175.5001,-205.9909 179,-215.991 182.5001,-205.991 175.5001,-205.9909"/>
</g>
<!-- ButtonModule -->
<g id="node3" class="node">
<title>ButtonModule</title>
<polygon fill="#8dd3c7" stroke="#000000" points="227.6682,-122 224.6682,-126 203.6682,-126 200.6682,-122 130.3318,-122 130.3318,-86 227.6682,-86 227.6682,-122"/>
<text text-anchor="middle" x="179" y="-99.8" font-family="Times,serif" font-size="14.00" fill="#000000">ButtonModule</text>
</g>
<!-- ButtonModule&#45;&gt;RecommendedProductsModule -->
<g id="edge2" class="edge">
<title>ButtonModule&#45;&gt;RecommendedProductsModule</title>
<path fill="none" stroke="#000000" d="M179,-122.1061C179,-122.1061 179,-140.991 179,-140.991"/>
<polygon fill="#000000" stroke="#000000" points="175.5001,-140.9909 179,-150.991 182.5001,-140.991 175.5001,-140.9909"/>
</g>
<!-- PriceModule -->
<g id="node4" class="node">
<title>PriceModule</title>
<polygon fill="#8dd3c7" stroke="#000000" points="112.3134,-122 109.3134,-126 88.3134,-126 85.3134,-122 23.6866,-122 23.6866,-86 112.3134,-86 112.3134,-122"/>
<text text-anchor="middle" x="68" y="-99.8" font-family="Times,serif" font-size="14.00" fill="#000000">PriceModule</text>
</g>
<!-- PriceModule&#45;&gt;RecommendedProductsModule -->
<g id="edge3" class="edge">
<title>PriceModule&#45;&gt;RecommendedProductsModule</title>
<path fill="none" stroke="#000000" d="M97.4485,-122.1061C97.4485,-122.1061 97.4485,-140.991 97.4485,-140.991"/>
<polygon fill="#000000" stroke="#000000" points="93.9485,-140.9909 97.4485,-150.991 100.9485,-140.991 93.9485,-140.9909"/>
</g>
</g>
</svg>
