<?xml version="1.0" encoding="UTF-8" standalone="no"?>
<!DOCTYPE svg PUBLIC "-//W3C//DTD SVG 1.1//EN"
 "http://www.w3.org/Graphics/SVG/1.1/DTD/svg11.dtd">
<!-- Generated by graphviz version 2.40.1 (20161225.0304)
 -->
<!-- Title: dependencies Pages: 1 -->
<svg width="1035pt" height="284pt"
 viewBox="0.00 0.00 1035.00 284.00" xmlns="http://www.w3.org/2000/svg" xmlns:xlink="http://www.w3.org/1999/xlink">
<g id="graph0" class="graph" transform="scale(1 1) rotate(0) translate(4 280)">
<title>dependencies</title>
<polygon fill="#ffffff" stroke="transparent" points="-4,4 -4,-280 1031,-280 1031,4 -4,4"/>
<text text-anchor="start" x="492.5091" y="-42.4" font-family="sans-serif" font-weight="bold" font-size="14.00" fill="#000000">Legend</text>
<polygon fill="#ffffb3" stroke="transparent" points="279.5,-10 279.5,-30 299.5,-30 299.5,-10 279.5,-10"/>
<text text-anchor="start" x="303.129" y="-15.4" font-family="sans-serif" font-size="14.00" fill="#000000"> &#160;Declarations</text>
<polygon fill="#8dd3c7" stroke="transparent" points="392.5,-10 392.5,-30 412.5,-30 412.5,-10 392.5,-10"/>
<text text-anchor="start" x="416.2251" y="-15.4" font-family="sans-serif" font-size="14.00" fill="#000000"> &#160;Module</text>
<polygon fill="#80b1d3" stroke="transparent" points="478.5,-10 478.5,-30 498.5,-30 498.5,-10 478.5,-10"/>
<text text-anchor="start" x="502.2812" y="-15.4" font-family="sans-serif" font-size="14.00" fill="#000000"> &#160;Bootstrap</text>
<polygon fill="#fdb462" stroke="transparent" points="575.5,-10 575.5,-30 595.5,-30 595.5,-10 575.5,-10"/>
<text text-anchor="start" x="599.1732" y="-15.4" font-family="sans-serif" font-size="14.00" fill="#000000"> &#160;Providers</text>
<polygon fill="#fb8072" stroke="transparent" points="671.5,-10 671.5,-30 691.5,-30 691.5,-10 671.5,-10"/>
<text text-anchor="start" x="695.2258" y="-15.4" font-family="sans-serif" font-size="14.00" fill="#000000"> &#160;Exports</text>
<g id="clust1" class="cluster">
<title>cluster_AppModule</title>
<polygon fill="none" stroke="#000000" stroke-dasharray="1,5" points="8,-70 8,-268 1019,-268 1019,-70 8,-70"/>
</g>
<g id="clust2" class="cluster">
<title>cluster_AppModule_declarations</title>
<polygon fill="none" stroke="#000000" points="889,-78 889,-130 1011,-130 1011,-78 889,-78"/>
</g>
<g id="clust4" class="cluster">
<title>cluster_AppModule_imports</title>
<polygon fill="none" stroke="#000000" points="16,-78 16,-130 881,-130 881,-78 16,-78"/>
</g>
<g id="clust6" class="cluster">
<title>cluster_AppModule_bootstrap</title>
<polygon fill="none" stroke="#000000" points="496,-208 496,-260 620,-260 620,-208 496,-208"/>
</g>
<!-- AppComponent -->
<g id="node1" class="node">
<title>AppComponent</title>
<polygon fill="#ffffb3" stroke="#000000" points="1002.9399,-122 897.0601,-122 897.0601,-86 1002.9399,-86 1002.9399,-122"/>
<text text-anchor="middle" x="950" y="-99.8" font-family="Times,serif" font-size="14.00" fill="#000000">AppComponent</text>
</g>
<!-- AppModule -->
<g id="node2" class="node">
<title>AppModule</title>
<polygon fill="#8dd3c7" stroke="#000000" points="599.6571,-187 596.6571,-191 575.6571,-191 572.6571,-187 516.3429,-187 516.3429,-151 599.6571,-151 599.6571,-187"/>
<text text-anchor="middle" x="558" y="-164.8" font-family="Times,serif" font-size="14.00" fill="#000000">AppModule</text>
</g>
<!-- AppComponent&#45;&gt;AppModule -->
<g id="edge1" class="edge">
<title>AppComponent&#45;&gt;AppModule</title>
<path fill="none" stroke="#000000" d="M950,-122.2921C950,-144.2057 950,-178 950,-178 950,-178 609.9509,-178 609.9509,-178"/>
<polygon fill="#000000" stroke="#000000" points="609.9509,-174.5001 599.9509,-178 609.9508,-181.5001 609.9509,-174.5001"/>
</g>
<!-- AppComponent  -->
<g id="node9" class="node">
<title>AppComponent </title>
<polygon fill="#80b1d3" stroke="#000000" points="612.439,-252 503.561,-252 503.561,-216 612.439,-216 612.439,-252"/>
<text text-anchor="middle" x="558" y="-229.8" font-family="Times,serif" font-size="14.00" fill="#000000">AppComponent </text>
</g>
<!-- AppModule&#45;&gt;AppComponent  -->
<g id="edge8" class="edge">
<title>AppModule&#45;&gt;AppComponent </title>
<path fill="none" stroke="#000000" stroke-dasharray="1,5" d="M558,-187.1061C558,-187.1061 558,-205.991 558,-205.991"/>
<polygon fill="#000000" stroke="#000000" points="554.5001,-205.9909 558,-215.991 561.5001,-205.991 554.5001,-205.9909"/>
</g>
<!-- AboModule -->
<g id="node3" class="node">
<title>AboModule</title>
<polygon fill="#8dd3c7" stroke="#000000" points="872.6571,-122 869.6571,-126 848.6571,-126 845.6571,-122 789.3429,-122 789.3429,-86 872.6571,-86 872.6571,-122"/>
<text text-anchor="middle" x="831" y="-99.8" font-family="Times,serif" font-size="14.00" fill="#000000">AboModule</text>
</g>
<!-- AboModule&#45;&gt;AppModule -->
<g id="edge2" class="edge">
<title>AboModule&#45;&gt;AppModule</title>
<path fill="none" stroke="#000000" d="M831,-122.1061C831,-141.3391 831,-169 831,-169 831,-169 609.76,-169 609.76,-169"/>
<polygon fill="#000000" stroke="#000000" points="609.76,-165.5001 599.76,-169 609.76,-172.5001 609.76,-165.5001"/>
</g>
<!-- AppRoutingModule -->
<g id="node4" class="node">
<title>AppRoutingModule</title>
<polygon fill="#8dd3c7" stroke="#000000" points="771.2744,-122 768.2744,-126 747.2744,-126 744.2744,-122 642.7256,-122 642.7256,-86 771.2744,-86 771.2744,-122"/>
<text text-anchor="middle" x="707" y="-99.8" font-family="Times,serif" font-size="14.00" fill="#000000">AppRoutingModule</text>
</g>
<!-- AppRoutingModule&#45;&gt;AppModule -->
<g id="edge3" class="edge">
<title>AppRoutingModule&#45;&gt;AppModule</title>
<path fill="none" stroke="#000000" d="M707,-122.027C707,-138.3976 707,-160 707,-160 707,-160 609.9013,-160 609.9013,-160"/>
<polygon fill="#000000" stroke="#000000" points="609.9014,-156.5001 599.9013,-160 609.9013,-163.5001 609.9014,-156.5001"/>
</g>
<!-- ApttusModalModule -->
<g id="node5" class="node">
<title>ApttusModalModule</title>
<polygon fill="#8dd3c7" stroke="#000000" points="624.9327,-122 621.9327,-126 600.9327,-126 597.9327,-122 491.0673,-122 491.0673,-86 624.9327,-86 624.9327,-122"/>
<text text-anchor="middle" x="558" y="-99.8" font-family="Times,serif" font-size="14.00" fill="#000000">ApttusModalModule</text>
</g>
<!-- ApttusModalModule&#45;&gt;AppModule -->
<g id="edge4" class="edge">
<title>ApttusModalModule&#45;&gt;AppModule</title>
<path fill="none" stroke="#000000" d="M558,-122.1061C558,-122.1061 558,-140.991 558,-140.991"/>
<polygon fill="#000000" stroke="#000000" points="554.5001,-140.9909 558,-150.991 561.5001,-140.991 554.5001,-140.9909"/>
</g>
<!-- ConstraintRulesModule -->
<g id="node6" class="node">
<title>ConstraintRulesModule</title>
<polygon fill="#8dd3c7" stroke="#000000" points="472.7646,-122 469.7646,-126 448.7646,-126 445.7646,-122 323.2354,-122 323.2354,-86 472.7646,-86 472.7646,-122"/>
<text text-anchor="middle" x="398" y="-99.8" font-family="Times,serif" font-size="14.00" fill="#000000">ConstraintRulesModule</text>
</g>
<!-- ConstraintRulesModule&#45;&gt;AppModule -->
<g id="edge5" class="edge">
<title>ConstraintRulesModule&#45;&gt;AppModule</title>
<path fill="none" stroke="#000000" d="M398,-122.027C398,-138.3976 398,-160 398,-160 398,-160 505.9619,-160 505.9619,-160"/>
<polygon fill="#000000" stroke="#000000" points="505.9619,-163.5001 515.9619,-160 505.9618,-156.5001 505.9619,-163.5001"/>
</g>
<!-- ProductDrawerModule -->
<g id="node7" class="node">
<title>ProductDrawerModule</title>
<polygon fill="#8dd3c7" stroke="#000000" points="305.5618,-122 302.5618,-126 281.5618,-126 278.5618,-122 160.4382,-122 160.4382,-86 305.5618,-86 305.5618,-122"/>
<text text-anchor="middle" x="233" y="-99.8" font-family="Times,serif" font-size="14.00" fill="#000000">ProductDrawerModule</text>
</g>
<!-- ProductDrawerModule&#45;&gt;AppModule -->
<g id="edge6" class="edge">
<title>ProductDrawerModule&#45;&gt;AppModule</title>
<path fill="none" stroke="#000000" d="M233,-122.1061C233,-141.3391 233,-169 233,-169 233,-169 506.1773,-169 506.1773,-169"/>
<polygon fill="#000000" stroke="#000000" points="506.1773,-172.5001 516.1773,-169 506.1772,-165.5001 506.1773,-172.5001"/>
</g>
<!-- PromotionModule -->
<g id="node8" class="node">
<title>PromotionModule</title>
<polygon fill="#8dd3c7" stroke="#000000" points="142.1653,-122 139.1653,-126 118.1653,-126 115.1653,-122 23.8347,-122 23.8347,-86 142.1653,-86 142.1653,-122"/>
<text text-anchor="middle" x="83" y="-99.8" font-family="Times,serif" font-size="14.00" fill="#000000">PromotionModule</text>
</g>
<!-- PromotionModule&#45;&gt;AppModule -->
<g id="edge7" class="edge">
<title>PromotionModule&#45;&gt;AppModule</title>
<path fill="none" stroke="#000000" d="M83,-122.2921C83,-144.2057 83,-178 83,-178 83,-178 506.2632,-178 506.2632,-178"/>
<polygon fill="#000000" stroke="#000000" points="506.2633,-181.5001 516.2632,-178 506.2632,-174.5001 506.2633,-181.5001"/>
</g>
</g>
</svg>
