<?xml version="1.0" encoding="UTF-8" standalone="no"?>
<!DOCTYPE svg PUBLIC "-//W3C//DTD SVG 1.1//EN"
 "http://www.w3.org/Graphics/SVG/1.1/DTD/svg11.dtd">
<!-- Generated by graphviz version 2.40.1 (20161225.0304)
 -->
<!-- Title: dependencies Pages: 1 -->
<svg width="2563pt" height="211pt"
 viewBox="0.00 0.00 2563.00 211.00" xmlns="http://www.w3.org/2000/svg" xmlns:xlink="http://www.w3.org/1999/xlink">
<g id="graph0" class="graph" transform="scale(1 1) rotate(0) translate(4 207)">
<title>dependencies</title>
<polygon fill="#ffffff" stroke="transparent" points="-4,4 -4,-207 2559,-207 2559,4 -4,4"/>
<text text-anchor="start" x="1256.5091" y="-42.4" font-family="sans-serif" font-weight="bold" font-size="14.00" fill="#000000">Legend</text>
<polygon fill="#ffffb3" stroke="transparent" points="1043.5,-10 1043.5,-30 1063.5,-30 1063.5,-10 1043.5,-10"/>
<text text-anchor="start" x="1067.129" y="-15.4" font-family="sans-serif" font-size="14.00" fill="#000000"> &#160;Declarations</text>
<polygon fill="#8dd3c7" stroke="transparent" points="1156.5,-10 1156.5,-30 1176.5,-30 1176.5,-10 1156.5,-10"/>
<text text-anchor="start" x="1180.2251" y="-15.4" font-family="sans-serif" font-size="14.00" fill="#000000"> &#160;Module</text>
<polygon fill="#80b1d3" stroke="transparent" points="1242.5,-10 1242.5,-30 1262.5,-30 1262.5,-10 1242.5,-10"/>
<text text-anchor="start" x="1266.2812" y="-15.4" font-family="sans-serif" font-size="14.00" fill="#000000"> &#160;Bootstrap</text>
<polygon fill="#fdb462" stroke="transparent" points="1339.5,-10 1339.5,-30 1359.5,-30 1359.5,-10 1339.5,-10"/>
<text text-anchor="start" x="1363.1732" y="-15.4" font-family="sans-serif" font-size="14.00" fill="#000000"> &#160;Providers</text>
<polygon fill="#fb8072" stroke="transparent" points="1435.5,-10 1435.5,-30 1455.5,-30 1455.5,-10 1435.5,-10"/>
<text text-anchor="start" x="1459.2258" y="-15.4" font-family="sans-serif" font-size="14.00" fill="#000000"> &#160;Exports</text>
<g id="clust1" class="cluster">
<title>cluster_ManageCartModule</title>
<polygon fill="none" stroke="#000000" stroke-dasharray="1,5" points="8,-70 8,-195 2547,-195 2547,-70 8,-70"/>
</g>
<g id="clust2" class="cluster">
<title>cluster_ManageCartModule_declarations</title>
<polygon fill="none" stroke="#000000" points="2039,-78 2039,-130 2539,-130 2539,-78 2039,-78"/>
</g>
<g id="clust6" class="cluster">
<title>cluster_ManageCartModule_imports</title>
<polygon fill="none" stroke="#000000" points="16,-78 16,-130 2031,-130 2031,-78 16,-78"/>
</g>
<!-- CartSummaryComponent -->
<g id="node1" class="node">
<title>CartSummaryComponent</title>
<polygon fill="#ffffb3" stroke="#000000" points="2530.8738,-122 2371.1262,-122 2371.1262,-86 2530.8738,-86 2530.8738,-122"/>
<text text-anchor="middle" x="2451" y="-99.8" font-family="Times,serif" font-size="14.00" fill="#000000">CartSummaryComponent</text>
</g>
<!-- ManageCartModule -->
<g id="node4" class="node">
<title>ManageCartModule</title>
<polygon fill="#8dd3c7" stroke="#000000" points="1311.2409,-187 1308.2409,-191 1287.2409,-191 1284.2409,-187 1182.7591,-187 1182.7591,-151 1311.2409,-151 1311.2409,-187"/>
<text text-anchor="middle" x="1247" y="-164.8" font-family="Times,serif" font-size="14.00" fill="#000000">ManageCartModule</text>
</g>
<!-- CartSummaryComponent&#45;&gt;ManageCartModule -->
<g id="edge1" class="edge">
<title>CartSummaryComponent&#45;&gt;ManageCartModule</title>
<path fill="none" stroke="#000000" d="M2451,-122.3228C2451,-145.6602 2451,-183 2451,-183 2451,-183 1321.3066,-183 1321.3066,-183"/>
<polygon fill="#000000" stroke="#000000" points="1321.3066,-179.5001 1311.3066,-183 1321.3066,-186.5001 1321.3066,-179.5001"/>
</g>
<!-- CartTableComponent -->
<g id="node2" class="node">
<title>CartTableComponent</title>
<polygon fill="#ffffb3" stroke="#000000" points="2352.8075,-122 2215.1925,-122 2215.1925,-86 2352.8075,-86 2352.8075,-122"/>
<text text-anchor="middle" x="2284" y="-99.8" font-family="Times,serif" font-size="14.00" fill="#000000">CartTableComponent</text>
</g>
<!-- CartTableComponent&#45;&gt;ManageCartModule -->
<g id="edge2" class="edge">
<title>CartTableComponent&#45;&gt;ManageCartModule</title>
<path fill="none" stroke="#000000" d="M2284,-122.1554C2284,-144.3519 2284,-179 2284,-179 2284,-179 1321.4772,-179 1321.4772,-179"/>
<polygon fill="#000000" stroke="#000000" points="1321.4772,-175.5001 1311.4772,-179 1321.4772,-182.5001 1321.4772,-175.5001"/>
</g>
<!-- ManageCartComponent -->
<g id="node3" class="node">
<title>ManageCartComponent</title>
<polygon fill="#ffffb3" stroke="#000000" points="2197.024,-122 2046.976,-122 2046.976,-86 2197.024,-86 2197.024,-122"/>
<text text-anchor="middle" x="2122" y="-99.8" font-family="Times,serif" font-size="14.00" fill="#000000">ManageCartComponent</text>
</g>
<!-- ManageCartComponent&#45;&gt;ManageCartModule -->
<g id="edge3" class="edge">
<title>ManageCartComponent&#45;&gt;ManageCartModule</title>
<path fill="none" stroke="#000000" d="M2122,-122.2843C2122,-143.3211 2122,-175 2122,-175 2122,-175 1321.3408,-175 1321.3408,-175"/>
<polygon fill="#000000" stroke="#000000" points="1321.3409,-171.5001 1311.3408,-175 1321.3408,-178.5001 1321.3409,-171.5001"/>
</g>
<!-- AboModule -->
<g id="node5" class="node">
<title>AboModule</title>
<polygon fill="#8dd3c7" stroke="#000000" points="2022.6571,-122 2019.6571,-126 1998.6571,-126 1995.6571,-122 1939.3429,-122 1939.3429,-86 2022.6571,-86 2022.6571,-122"/>
<text text-anchor="middle" x="1981" y="-99.8" font-family="Times,serif" font-size="14.00" fill="#000000">AboModule</text>
</g>
<!-- AboModule&#45;&gt;ManageCartModule -->
<g id="edge4" class="edge">
<title>AboModule&#45;&gt;ManageCartModule</title>
<path fill="none" stroke="#000000" d="M1981,-122.308C1981,-142.1455 1981,-171 1981,-171 1981,-171 1321.4943,-171 1321.4943,-171"/>
<polygon fill="#000000" stroke="#000000" points="1321.4943,-167.5001 1311.4943,-171 1321.4943,-174.5001 1321.4943,-167.5001"/>
</g>
<!-- CatalogModule -->
<g id="node6" class="node">
<title>CatalogModule</title>
<polygon fill="#8dd3c7" stroke="#000000" points="1921.5968,-122 1918.5968,-126 1897.5968,-126 1894.5968,-122 1818.4032,-122 1818.4032,-86 1921.5968,-86 1921.5968,-122"/>
<text text-anchor="middle" x="1870" y="-99.8" font-family="Times,serif" font-size="14.00" fill="#000000">CatalogModule</text>
</g>
<!-- CatalogModule&#45;&gt;ManageCartModule -->
<g id="edge5" class="edge">
<title>CatalogModule&#45;&gt;ManageCartModule</title>
<path fill="none" stroke="#000000" d="M1870,-122.2222C1870,-140.8285 1870,-167 1870,-167 1870,-167 1321.3254,-167 1321.3254,-167"/>
<polygon fill="#000000" stroke="#000000" points="1321.3255,-163.5001 1311.3254,-167 1321.3254,-170.5001 1321.3255,-163.5001"/>
</g>
<!-- ConstraintAlertModule -->
<g id="node7" class="node">
<title>ConstraintAlertModule</title>
<polygon fill="#8dd3c7" stroke="#000000" points="1800.1414,-122 1797.1414,-126 1776.1414,-126 1773.1414,-122 1653.8586,-122 1653.8586,-86 1800.1414,-86 1800.1414,-122"/>
<text text-anchor="middle" x="1727" y="-99.8" font-family="Times,serif" font-size="14.00" fill="#000000">ConstraintAlertModule</text>
</g>
<!-- ConstraintAlertModule&#45;&gt;ManageCartModule -->
<g id="edge6" class="edge">
<title>ConstraintAlertModule&#45;&gt;ManageCartModule</title>
<path fill="none" stroke="#000000" d="M1727,-122.0225C1727,-139.3734 1727,-163 1727,-163 1727,-163 1321.7349,-163 1321.7349,-163"/>
<polygon fill="#000000" stroke="#000000" points="1321.735,-159.5001 1311.7349,-163 1321.7349,-166.5001 1321.735,-159.5001"/>
</g>
<!-- ConstraintRulesModule -->
<g id="node8" class="node">
<title>ConstraintRulesModule</title>
<polygon fill="#8dd3c7" stroke="#000000" points="1635.7646,-122 1632.7646,-126 1611.7646,-126 1608.7646,-122 1486.2354,-122 1486.2354,-86 1635.7646,-86 1635.7646,-122"/>
<text text-anchor="middle" x="1561" y="-99.8" font-family="Times,serif" font-size="14.00" fill="#000000">ConstraintRulesModule</text>
</g>
<!-- ConstraintRulesModule&#45;&gt;ManageCartModule -->
<g id="edge7" class="edge">
<title>ConstraintRulesModule&#45;&gt;ManageCartModule</title>
<path fill="none" stroke="#000000" d="M1561,-122.0091C1561,-138.0494 1561,-159 1561,-159 1561,-159 1321.3003,-159 1321.3003,-159"/>
<polygon fill="#000000" stroke="#000000" points="1321.3003,-155.5001 1311.3003,-159 1321.3003,-162.5001 1321.3003,-155.5001"/>
</g>
<!-- InputDateModule -->
<g id="node9" class="node">
<title>InputDateModule</title>
<polygon fill="#8dd3c7" stroke="#000000" points="1467.5284,-122 1464.5284,-126 1443.5284,-126 1440.5284,-122 1352.4716,-122 1352.4716,-86 1467.5284,-86 1467.5284,-122"/>
<text text-anchor="middle" x="1410" y="-99.8" font-family="Times,serif" font-size="14.00" fill="#000000">InputDateModule</text>
</g>
<!-- InputDateModule&#45;&gt;ManageCartModule -->
<g id="edge8" class="edge">
<title>InputDateModule&#45;&gt;ManageCartModule</title>
<path fill="none" stroke="#000000" d="M1410,-122.1243C1410,-136.7832 1410,-155 1410,-155 1410,-155 1321.4219,-155 1321.4219,-155"/>
<polygon fill="#000000" stroke="#000000" points="1321.422,-151.5001 1311.4219,-155 1321.4219,-158.5001 1321.422,-151.5001"/>
</g>
<!-- ManageCartRoutingModule -->
<g id="node10" class="node">
<title>ManageCartRoutingModule</title>
<polygon fill="#8dd3c7" stroke="#000000" points="1333.8585,-122 1330.8585,-126 1309.8585,-126 1306.8585,-122 1160.1415,-122 1160.1415,-86 1333.8585,-86 1333.8585,-122"/>
<text text-anchor="middle" x="1247" y="-99.8" font-family="Times,serif" font-size="14.00" fill="#000000">ManageCartRoutingModule</text>
</g>
<!-- ManageCartRoutingModule&#45;&gt;ManageCartModule -->
<g id="edge9" class="edge">
<title>ManageCartRoutingModule&#45;&gt;ManageCartModule</title>
<path fill="none" stroke="#000000" d="M1247,-122.1061C1247,-122.1061 1247,-140.991 1247,-140.991"/>
<polygon fill="#000000" stroke="#000000" points="1243.5001,-140.9909 1247,-150.991 1250.5001,-140.991 1243.5001,-140.9909"/>
</g>
<!-- PriceModule -->
<g id="node11" class="node">
<title>PriceModule</title>
<polygon fill="#8dd3c7" stroke="#000000" points="1142.3134,-122 1139.3134,-126 1118.3134,-126 1115.3134,-122 1053.6866,-122 1053.6866,-86 1142.3134,-86 1142.3134,-122"/>
<text text-anchor="middle" x="1098" y="-99.8" font-family="Times,serif" font-size="14.00" fill="#000000">PriceModule</text>
</g>
<!-- PriceModule&#45;&gt;ManageCartModule -->
<g id="edge10" class="edge">
<title>PriceModule&#45;&gt;ManageCartModule</title>
<path fill="none" stroke="#000000" d="M1098,-122.1243C1098,-136.7832 1098,-155 1098,-155 1098,-155 1172.513,-155 1172.513,-155"/>
<polygon fill="#000000" stroke="#000000" points="1172.5131,-158.5001 1182.513,-155 1172.513,-151.5001 1172.5131,-158.5001"/>
</g>
<!-- PricingModule -->
<g id="node12" class="node">
<title>PricingModule</title>
<polygon fill="#8dd3c7" stroke="#000000" points="1035.9888,-122 1032.9888,-126 1011.9888,-126 1008.9888,-122 936.0112,-122 936.0112,-86 1035.9888,-86 1035.9888,-122"/>
<text text-anchor="middle" x="986" y="-99.8" font-family="Times,serif" font-size="14.00" fill="#000000">PricingModule</text>
</g>
<!-- PricingModule&#45;&gt;ManageCartModule -->
<g id="edge11" class="edge">
<title>PricingModule&#45;&gt;ManageCartModule</title>
<path fill="none" stroke="#000000" d="M986,-122.0091C986,-138.0494 986,-159 986,-159 986,-159 1172.4831,-159 1172.4831,-159"/>
<polygon fill="#000000" stroke="#000000" points="1172.4832,-162.5001 1182.4831,-159 1172.4831,-155.5001 1172.4832,-162.5001"/>
</g>
<!-- ProductCarouselModule -->
<g id="node13" class="node">
<title>ProductCarouselModule</title>
<polygon fill="#8dd3c7" stroke="#000000" points="918.3599,-122 915.3599,-126 894.3599,-126 891.3599,-122 765.6401,-122 765.6401,-86 918.3599,-86 918.3599,-122"/>
<text text-anchor="middle" x="842" y="-99.8" font-family="Times,serif" font-size="14.00" fill="#000000">ProductCarouselModule</text>
</g>
<!-- ProductCarouselModule&#45;&gt;ManageCartModule -->
<g id="edge12" class="edge">
<title>ProductCarouselModule&#45;&gt;ManageCartModule</title>
<path fill="none" stroke="#000000" d="M842,-122.0225C842,-139.3734 842,-163 842,-163 842,-163 1172.3787,-163 1172.3787,-163"/>
<polygon fill="#000000" stroke="#000000" points="1172.3788,-166.5001 1182.3787,-163 1172.3787,-159.5001 1172.3788,-166.5001"/>
</g>
<!-- ProductConfigurationSummaryModule -->
<g id="node14" class="node">
<title>ProductConfigurationSummaryModule</title>
<polygon fill="#8dd3c7" stroke="#000000" points="748.0814,-122 745.0814,-126 724.0814,-126 721.0814,-122 511.9186,-122 511.9186,-86 748.0814,-86 748.0814,-122"/>
<text text-anchor="middle" x="630" y="-99.8" font-family="Times,serif" font-size="14.00" fill="#000000">ProductConfigurationSummaryModule</text>
</g>
<!-- ProductConfigurationSummaryModule&#45;&gt;ManageCartModule -->
<g id="edge13" class="edge">
<title>ProductConfigurationSummaryModule&#45;&gt;ManageCartModule</title>
<path fill="none" stroke="#000000" d="M630,-122.2222C630,-140.8285 630,-167 630,-167 630,-167 1172.7163,-167 1172.7163,-167"/>
<polygon fill="#000000" stroke="#000000" points="1172.7163,-170.5001 1182.7163,-167 1172.7162,-163.5001 1172.7163,-170.5001"/>
</g>
<!-- PromotionAppliedtoLineitemModule -->
<g id="node15" class="node">
<title>PromotionAppliedtoLineitemModule</title>
<polygon fill="#8dd3c7" stroke="#000000" points="493.7021,-122 490.7021,-126 469.7021,-126 466.7021,-122 268.2979,-122 268.2979,-86 493.7021,-86 493.7021,-122"/>
<text text-anchor="middle" x="381" y="-99.8" font-family="Times,serif" font-size="14.00" fill="#000000">PromotionAppliedtoLineitemModule</text>
</g>
<!-- PromotionAppliedtoLineitemModule&#45;&gt;ManageCartModule -->
<g id="edge14" class="edge">
<title>PromotionAppliedtoLineitemModule&#45;&gt;ManageCartModule</title>
<path fill="none" stroke="#000000" d="M381,-122.308C381,-142.1455 381,-171 381,-171 381,-171 1172.6168,-171 1172.6168,-171"/>
<polygon fill="#000000" stroke="#000000" points="1172.6168,-174.5001 1182.6168,-171 1172.6167,-167.5001 1172.6168,-174.5001"/>
</g>
<!-- PromotionModule -->
<g id="node16" class="node">
<title>PromotionModule</title>
<polygon fill="#8dd3c7" stroke="#000000" points="250.1653,-122 247.1653,-126 226.1653,-126 223.1653,-122 131.8347,-122 131.8347,-86 250.1653,-86 250.1653,-122"/>
<text text-anchor="middle" x="191" y="-99.8" font-family="Times,serif" font-size="14.00" fill="#000000">PromotionModule</text>
</g>
<!-- PromotionModule&#45;&gt;ManageCartModule -->
<g id="edge15" class="edge">
<title>PromotionModule&#45;&gt;ManageCartModule</title>
<path fill="none" stroke="#000000" d="M210.7775,-122.2843C210.7775,-143.3211 210.7775,-175 210.7775,-175 210.7775,-175 1172.5712,-175 1172.5712,-175"/>
<polygon fill="#000000" stroke="#000000" points="1172.5712,-178.5001 1182.5712,-175 1172.5711,-171.5001 1172.5712,-178.5001"/>
</g>
<!-- PromotionModule&#45;&gt;ManageCartModule -->
<g id="edge16" class="edge">
<title>PromotionModule&#45;&gt;ManageCartModule</title>
<path fill="none" stroke="#000000" d="M171.2225,-122.1554C171.2225,-144.3519 171.2225,-179 171.2225,-179 171.2225,-179 1172.528,-179 1172.528,-179"/>
<polygon fill="#000000" stroke="#000000" points="1172.528,-182.5001 1182.528,-179 1172.5279,-175.5001 1172.528,-182.5001"/>
</g>
<!-- StoreModule -->
<g id="node17" class="node">
<title>StoreModule</title>
<polygon fill="#8dd3c7" stroke="#000000" points="113.5983,-122 110.5983,-126 89.5983,-126 86.5983,-122 24.4017,-122 24.4017,-86 113.5983,-86 113.5983,-122"/>
<text text-anchor="middle" x="69" y="-99.8" font-family="Times,serif" font-size="14.00" fill="#000000">StoreModule</text>
</g>
<!-- StoreModule&#45;&gt;ManageCartModule -->
<g id="edge17" class="edge">
<title>StoreModule&#45;&gt;ManageCartModule</title>
<path fill="none" stroke="#000000" d="M69,-122.3228C69,-145.6602 69,-183 69,-183 69,-183 1172.4089,-183 1172.4089,-183"/>
<polygon fill="#000000" stroke="#000000" points="1172.409,-186.5001 1182.4089,-183 1172.4089,-179.5001 1172.409,-186.5001"/>
</g>
</g>
</svg>
