<?xml version="1.0" encoding="UTF-8" standalone="no"?>
<!DOCTYPE svg PUBLIC "-//W3C//DTD SVG 1.1//EN"
 "http://www.w3.org/Graphics/SVG/1.1/DTD/svg11.dtd">
<!-- Generated by graphviz version 2.40.1 (20161225.0304)
 -->
<!-- Title: dependencies Pages: 1 -->
<svg width="1558pt" height="211pt"
 viewBox="0.00 0.00 1558.00 211.00" xmlns="http://www.w3.org/2000/svg" xmlns:xlink="http://www.w3.org/1999/xlink">
<g id="graph0" class="graph" transform="scale(1 1) rotate(0) translate(4 207)">
<title>dependencies</title>
<polygon fill="#ffffff" stroke="transparent" points="-4,4 -4,-207 1554,-207 1554,4 -4,4"/>
<text text-anchor="start" x="754.0091" y="-42.4" font-family="sans-serif" font-weight="bold" font-size="14.00" fill="#000000">Legend</text>
<polygon fill="#ffffb3" stroke="transparent" points="541,-10 541,-30 561,-30 561,-10 541,-10"/>
<text text-anchor="start" x="564.629" y="-15.4" font-family="sans-serif" font-size="14.00" fill="#000000"> &#160;Declarations</text>
<polygon fill="#8dd3c7" stroke="transparent" points="654,-10 654,-30 674,-30 674,-10 654,-10"/>
<text text-anchor="start" x="677.7251" y="-15.4" font-family="sans-serif" font-size="14.00" fill="#000000"> &#160;Module</text>
<polygon fill="#80b1d3" stroke="transparent" points="740,-10 740,-30 760,-30 760,-10 740,-10"/>
<text text-anchor="start" x="763.7812" y="-15.4" font-family="sans-serif" font-size="14.00" fill="#000000"> &#160;Bootstrap</text>
<polygon fill="#fdb462" stroke="transparent" points="837,-10 837,-30 857,-30 857,-10 837,-10"/>
<text text-anchor="start" x="860.6732" y="-15.4" font-family="sans-serif" font-size="14.00" fill="#000000"> &#160;Providers</text>
<polygon fill="#fb8072" stroke="transparent" points="933,-10 933,-30 953,-30 953,-10 933,-10"/>
<text text-anchor="start" x="956.7258" y="-15.4" font-family="sans-serif" font-size="14.00" fill="#000000"> &#160;Exports</text>
<g id="clust1" class="cluster">
<title>cluster_ManageCartModule</title>
<polygon fill="none" stroke="#000000" stroke-dasharray="1,5" points="8,-70 8,-195 1542,-195 1542,-70 8,-70"/>
</g>
<g id="clust2" class="cluster">
<title>cluster_ManageCartModule_declarations</title>
<polygon fill="none" stroke="#000000" points="843,-78 843,-130 1534,-130 1534,-78 843,-78"/>
</g>
<g id="clust7" class="cluster">
<title>cluster_ManageCartModule_imports</title>
<polygon fill="none" stroke="#000000" points="16,-78 16,-130 835,-130 835,-78 16,-78"/>
</g>
<!-- CartSummaryComponent -->
<g id="node1" class="node">
<title>CartSummaryComponent</title>
<polygon fill="#ffffb3" stroke="#000000" points="1525.8738,-122 1366.1262,-122 1366.1262,-86 1525.8738,-86 1525.8738,-122"/>
<text text-anchor="middle" x="1446" y="-99.8" font-family="Times,serif" font-size="14.00" fill="#000000">CartSummaryComponent</text>
</g>
<!-- ManageCartModule -->
<g id="node5" class="node">
<title>ManageCartModule</title>
<polygon fill="#8dd3c7" stroke="#000000" points="784.2409,-187 781.2409,-191 760.2409,-191 757.2409,-187 655.7591,-187 655.7591,-151 784.2409,-151 784.2409,-187"/>
<text text-anchor="middle" x="720" y="-164.8" font-family="Times,serif" font-size="14.00" fill="#000000">ManageCartModule</text>
</g>
<!-- CartSummaryComponent&#45;&gt;ManageCartModule -->
<g id="edge1" class="edge">
<title>CartSummaryComponent&#45;&gt;ManageCartModule</title>
<path fill="none" stroke="#000000" d="M1446,-122.0109C1446,-144.4852 1446,-180 1446,-180 1446,-180 794.4277,-180 794.4277,-180"/>
<polygon fill="#000000" stroke="#000000" points="794.4277,-176.5001 784.4277,-180 794.4276,-183.5001 794.4277,-176.5001"/>
</g>
<!-- CartTableComponent -->
<g id="node2" class="node">
<title>CartTableComponent</title>
<polygon fill="#ffffb3" stroke="#000000" points="1347.8075,-122 1210.1925,-122 1210.1925,-86 1347.8075,-86 1347.8075,-122"/>
<text text-anchor="middle" x="1279" y="-99.8" font-family="Times,serif" font-size="14.00" fill="#000000">CartTableComponent</text>
</g>
<!-- CartTableComponent&#45;&gt;ManageCartModule -->
<g id="edge2" class="edge">
<title>CartTableComponent&#45;&gt;ManageCartModule</title>
<path fill="none" stroke="#000000" d="M1279,-122.1289C1279,-142.5724 1279,-173 1279,-173 1279,-173 794.3972,-173 794.3972,-173"/>
<polygon fill="#000000" stroke="#000000" points="794.3973,-169.5001 784.3972,-173 794.3972,-176.5001 794.3973,-169.5001"/>
</g>
<!-- DateRangeInputComponent -->
<g id="node3" class="node">
<title>DateRangeInputComponent</title>
<polygon fill="#ffffb3" stroke="#000000" points="1192.5758,-122 1019.4242,-122 1019.4242,-86 1192.5758,-86 1192.5758,-122"/>
<text text-anchor="middle" x="1106" y="-99.8" font-family="Times,serif" font-size="14.00" fill="#000000">DateRangeInputComponent</text>
</g>
<!-- DateRangeInputComponent&#45;&gt;ManageCartModule -->
<g id="edge3" class="edge">
<title>DateRangeInputComponent&#45;&gt;ManageCartModule</title>
<path fill="none" stroke="#000000" d="M1106,-122.2667C1106,-140.5552 1106,-166 1106,-166 1106,-166 794.6077,-166 794.6077,-166"/>
<polygon fill="#000000" stroke="#000000" points="794.6078,-162.5001 784.6077,-166 794.6077,-169.5001 794.6078,-162.5001"/>
</g>
<!-- ManageCartComponent -->
<g id="node4" class="node">
<title>ManageCartComponent</title>
<polygon fill="#ffffb3" stroke="#000000" points="1001.024,-122 850.976,-122 850.976,-86 1001.024,-86 1001.024,-122"/>
<text text-anchor="middle" x="926" y="-99.8" font-family="Times,serif" font-size="14.00" fill="#000000">ManageCartComponent</text>
</g>
<!-- ManageCartComponent&#45;&gt;ManageCartModule -->
<g id="edge4" class="edge">
<title>ManageCartComponent&#45;&gt;ManageCartModule</title>
<path fill="none" stroke="#000000" d="M926,-122.0091C926,-138.0494 926,-159 926,-159 926,-159 794.3323,-159 794.3323,-159"/>
<polygon fill="#000000" stroke="#000000" points="794.3324,-155.5001 784.3323,-159 794.3323,-162.5001 794.3324,-155.5001"/>
</g>
<!-- ApttusModule -->
<g id="node6" class="node">
<title>ApttusModule</title>
<polygon fill="#8dd3c7" stroke="#000000" points="827.3823,-122 824.3823,-126 803.3823,-126 800.3823,-122 730.6177,-122 730.6177,-86 827.3823,-86 827.3823,-122"/>
<text text-anchor="middle" x="779" y="-99.8" font-family="Times,serif" font-size="14.00" fill="#000000">ApttusModule</text>
</g>
<!-- ApttusModule&#45;&gt;ManageCartModule -->
<g id="edge5" class="edge">
<title>ApttusModule&#45;&gt;ManageCartModule</title>
<path fill="none" stroke="#000000" d="M757.4646,-122.1061C757.4646,-122.1061 757.4646,-140.991 757.4646,-140.991"/>
<polygon fill="#000000" stroke="#000000" points="753.9647,-140.9909 757.4646,-150.991 760.9647,-140.991 753.9647,-140.9909"/>
</g>
<!-- CatalogModule -->
<g id="node7" class="node">
<title>CatalogModule</title>
<polygon fill="#8dd3c7" stroke="#000000" points="712.5968,-122 709.5968,-126 688.5968,-126 685.5968,-122 609.4032,-122 609.4032,-86 712.5968,-86 712.5968,-122"/>
<text text-anchor="middle" x="661" y="-99.8" font-family="Times,serif" font-size="14.00" fill="#000000">CatalogModule</text>
</g>
<!-- CatalogModule&#45;&gt;ManageCartModule -->
<g id="edge6" class="edge">
<title>CatalogModule&#45;&gt;ManageCartModule</title>
<path fill="none" stroke="#000000" d="M684.0891,-122.1061C684.0891,-122.1061 684.0891,-140.991 684.0891,-140.991"/>
<polygon fill="#000000" stroke="#000000" points="680.5891,-140.9909 684.0891,-150.991 687.5891,-140.991 680.5891,-140.9909"/>
</g>
<!-- ConstraintRulesModule -->
<g id="node8" class="node">
<title>ConstraintRulesModule</title>
<polygon fill="#8dd3c7" stroke="#000000" points="591.7646,-122 588.7646,-126 567.7646,-126 564.7646,-122 442.2354,-122 442.2354,-86 591.7646,-86 591.7646,-122"/>
<text text-anchor="middle" x="517" y="-99.8" font-family="Times,serif" font-size="14.00" fill="#000000">ConstraintRulesModule</text>
</g>
<!-- ConstraintRulesModule&#45;&gt;ManageCartModule -->
<g id="edge7" class="edge">
<title>ConstraintRulesModule&#45;&gt;ManageCartModule</title>
<path fill="none" stroke="#000000" d="M517,-122.0091C517,-138.0494 517,-159 517,-159 517,-159 645.4906,-159 645.4906,-159"/>
<polygon fill="#000000" stroke="#000000" points="645.4906,-162.5001 655.4906,-159 645.4906,-155.5001 645.4906,-162.5001"/>
</g>
<!-- ManageCartRoutingModule -->
<g id="node9" class="node">
<title>ManageCartRoutingModule</title>
<polygon fill="#8dd3c7" stroke="#000000" points="423.8585,-122 420.8585,-126 399.8585,-126 396.8585,-122 250.1415,-122 250.1415,-86 423.8585,-86 423.8585,-122"/>
<text text-anchor="middle" x="337" y="-99.8" font-family="Times,serif" font-size="14.00" fill="#000000">ManageCartRoutingModule</text>
</g>
<!-- ManageCartRoutingModule&#45;&gt;ManageCartModule -->
<g id="edge8" class="edge">
<title>ManageCartRoutingModule&#45;&gt;ManageCartModule</title>
<path fill="none" stroke="#000000" d="M337,-122.2667C337,-140.5552 337,-166 337,-166 337,-166 645.4624,-166 645.4624,-166"/>
<polygon fill="#000000" stroke="#000000" points="645.4624,-169.5001 655.4624,-166 645.4623,-162.5001 645.4624,-169.5001"/>
</g>
<!-- PricingModule -->
<g id="node10" class="node">
<title>PricingModule</title>
<polygon fill="#8dd3c7" stroke="#000000" points="231.9888,-122 228.9888,-126 207.9888,-126 204.9888,-122 132.0112,-122 132.0112,-86 231.9888,-86 231.9888,-122"/>
<text text-anchor="middle" x="182" y="-99.8" font-family="Times,serif" font-size="14.00" fill="#000000">PricingModule</text>
</g>
<!-- PricingModule&#45;&gt;ManageCartModule -->
<g id="edge9" class="edge">
<title>PricingModule&#45;&gt;ManageCartModule</title>
<path fill="none" stroke="#000000" d="M182,-122.1289C182,-142.5724 182,-173 182,-173 182,-173 645.639,-173 645.639,-173"/>
<polygon fill="#000000" stroke="#000000" points="645.639,-176.5001 655.639,-173 645.639,-169.5001 645.639,-176.5001"/>
</g>
<!-- StoreModule -->
<g id="node11" class="node">
<title>StoreModule</title>
<polygon fill="#8dd3c7" stroke="#000000" points="113.5983,-122 110.5983,-126 89.5983,-126 86.5983,-122 24.4017,-122 24.4017,-86 113.5983,-86 113.5983,-122"/>
<text text-anchor="middle" x="69" y="-99.8" font-family="Times,serif" font-size="14.00" fill="#000000">StoreModule</text>
</g>
<!-- StoreModule&#45;&gt;ManageCartModule -->
<g id="edge10" class="edge">
<title>StoreModule&#45;&gt;ManageCartModule</title>
<path fill="none" stroke="#000000" d="M69,-122.0109C69,-144.4852 69,-180 69,-180 69,-180 645.4991,-180 645.4991,-180"/>
<polygon fill="#000000" stroke="#000000" points="645.4991,-183.5001 655.4991,-180 645.499,-176.5001 645.4991,-183.5001"/>
</g>
</g>
</svg>
