<?xml version="1.0" encoding="UTF-8" standalone="no"?>
<!DOCTYPE svg PUBLIC "-//W3C//DTD SVG 1.1//EN"
 "http://www.w3.org/Graphics/SVG/1.1/DTD/svg11.dtd">
<!-- Generated by graphviz version 2.40.1 (20161225.0304)
 -->
<!-- Title: dependencies Pages: 1 -->
<svg width="845pt" height="211pt"
 viewBox="0.00 0.00 845.00 211.00" xmlns="http://www.w3.org/2000/svg" xmlns:xlink="http://www.w3.org/1999/xlink">
<g id="graph0" class="graph" transform="scale(1 1) rotate(0) translate(4 207)">
<title>dependencies</title>
<polygon fill="#ffffff" stroke="transparent" points="-4,4 -4,-207 841,-207 841,4 -4,4"/>
<text text-anchor="start" x="397.5091" y="-42.4" font-family="sans-serif" font-weight="bold" font-size="14.00" fill="#000000">Legend</text>
<polygon fill="#ffffb3" stroke="transparent" points="184.5,-10 184.5,-30 204.5,-30 204.5,-10 184.5,-10"/>
<text text-anchor="start" x="208.129" y="-15.4" font-family="sans-serif" font-size="14.00" fill="#000000"> &#160;Declarations</text>
<polygon fill="#8dd3c7" stroke="transparent" points="297.5,-10 297.5,-30 317.5,-30 317.5,-10 297.5,-10"/>
<text text-anchor="start" x="321.2251" y="-15.4" font-family="sans-serif" font-size="14.00" fill="#000000"> &#160;Module</text>
<polygon fill="#80b1d3" stroke="transparent" points="383.5,-10 383.5,-30 403.5,-30 403.5,-10 383.5,-10"/>
<text text-anchor="start" x="407.2812" y="-15.4" font-family="sans-serif" font-size="14.00" fill="#000000"> &#160;Bootstrap</text>
<polygon fill="#fdb462" stroke="transparent" points="480.5,-10 480.5,-30 500.5,-30 500.5,-10 480.5,-10"/>
<text text-anchor="start" x="504.1732" y="-15.4" font-family="sans-serif" font-size="14.00" fill="#000000"> &#160;Providers</text>
<polygon fill="#fb8072" stroke="transparent" points="576.5,-10 576.5,-30 596.5,-30 596.5,-10 576.5,-10"/>
<text text-anchor="start" x="600.2258" y="-15.4" font-family="sans-serif" font-size="14.00" fill="#000000"> &#160;Exports</text>
<g id="clust1" class="cluster">
<title>cluster_ManageCartModule</title>
<polygon fill="none" stroke="#000000" stroke-dasharray="1,5" points="8,-70 8,-195 829,-195 829,-70 8,-70"/>
</g>
<g id="clust2" class="cluster">
<title>cluster_ManageCartModule_declarations</title>
<polygon fill="none" stroke="#000000" points="321,-78 321,-130 821,-130 821,-78 321,-78"/>
</g>
<g id="clust6" class="cluster">
<title>cluster_ManageCartModule_imports</title>
<polygon fill="none" stroke="#000000" points="16,-78 16,-130 313,-130 313,-78 16,-78"/>
</g>
<!-- CartSummaryComponent -->
<g id="node1" class="node">
<title>CartSummaryComponent</title>
<polygon fill="#ffffb3" stroke="#000000" points="812.8738,-122 653.1262,-122 653.1262,-86 812.8738,-86 812.8738,-122"/>
<text text-anchor="middle" x="733" y="-99.8" font-family="Times,serif" font-size="14.00" fill="#000000">CartSummaryComponent</text>
</g>
<!-- ManageCartModule -->
<g id="node4" class="node">
<title>ManageCartModule</title>
<polygon fill="#8dd3c7" stroke="#000000" points="468.2409,-187 465.2409,-191 444.2409,-191 441.2409,-187 339.7591,-187 339.7591,-151 468.2409,-151 468.2409,-187"/>
<text text-anchor="middle" x="404" y="-164.8" font-family="Times,serif" font-size="14.00" fill="#000000">ManageCartModule</text>
</g>
<!-- CartSummaryComponent&#45;&gt;ManageCartModule -->
<g id="edge1" class="edge">
<title>CartSummaryComponent&#45;&gt;ManageCartModule</title>
<path fill="none" stroke="#000000" d="M733,-122.2843C733,-143.3211 733,-175 733,-175 733,-175 478.6073,-175 478.6073,-175"/>
<polygon fill="#000000" stroke="#000000" points="478.6073,-171.5001 468.6073,-175 478.6072,-178.5001 478.6073,-171.5001"/>
</g>
<!-- CartTableComponent -->
<g id="node2" class="node">
<title>CartTableComponent</title>
<polygon fill="#ffffb3" stroke="#000000" points="634.8075,-122 497.1925,-122 497.1925,-86 634.8075,-86 634.8075,-122"/>
<text text-anchor="middle" x="566" y="-99.8" font-family="Times,serif" font-size="14.00" fill="#000000">CartTableComponent</text>
</g>
<!-- CartTableComponent&#45;&gt;ManageCartModule -->
<g id="edge2" class="edge">
<title>CartTableComponent&#45;&gt;ManageCartModule</title>
<path fill="none" stroke="#000000" d="M566,-122.0225C566,-139.3734 566,-163 566,-163 566,-163 478.4922,-163 478.4922,-163"/>
<polygon fill="#000000" stroke="#000000" points="478.4922,-159.5001 468.4922,-163 478.4921,-166.5001 478.4922,-159.5001"/>
</g>
<!-- ManageCartComponent -->
<g id="node3" class="node">
<title>ManageCartComponent</title>
<polygon fill="#ffffb3" stroke="#000000" points="479.024,-122 328.976,-122 328.976,-86 479.024,-86 479.024,-122"/>
<text text-anchor="middle" x="404" y="-99.8" font-family="Times,serif" font-size="14.00" fill="#000000">ManageCartComponent</text>
</g>
<!-- ManageCartComponent&#45;&gt;ManageCartModule -->
<g id="edge3" class="edge">
<title>ManageCartComponent&#45;&gt;ManageCartModule</title>
<path fill="none" stroke="#000000" d="M404,-122.1061C404,-122.1061 404,-140.991 404,-140.991"/>
<polygon fill="#000000" stroke="#000000" points="400.5001,-140.9909 404,-150.991 407.5001,-140.991 400.5001,-140.9909"/>
</g>
<!-- LineItemTableRowModule -->
<g id="node5" class="node">
<title>LineItemTableRowModule</title>
<polygon fill="#8dd3c7" stroke="#000000" points="304.6797,-122 301.6797,-126 280.6797,-126 277.6797,-122 135.3203,-122 135.3203,-86 304.6797,-86 304.6797,-122"/>
<text text-anchor="middle" x="220" y="-99.8" font-family="Times,serif" font-size="14.00" fill="#000000">LineItemTableRowModule</text>
</g>
<!-- LineItemTableRowModule&#45;&gt;ManageCartModule -->
<g id="edge4" class="edge">
<title>LineItemTableRowModule&#45;&gt;ManageCartModule</title>
<path fill="none" stroke="#000000" d="M220,-122.0225C220,-139.3734 220,-163 220,-163 220,-163 329.6457,-163 329.6457,-163"/>
<polygon fill="#000000" stroke="#000000" points="329.6458,-166.5001 339.6457,-163 329.6457,-159.5001 329.6458,-166.5001"/>
</g>
<!-- QuoteModule -->
<g id="node6" class="node">
<title>QuoteModule</title>
<polygon fill="#8dd3c7" stroke="#000000" points="117.7619,-122 114.7619,-126 93.7619,-126 90.7619,-122 24.2381,-122 24.2381,-86 117.7619,-86 117.7619,-122"/>
<text text-anchor="middle" x="71" y="-99.8" font-family="Times,serif" font-size="14.00" fill="#000000">QuoteModule</text>
</g>
<!-- QuoteModule&#45;&gt;ManageCartModule -->
<g id="edge5" class="edge">
<title>QuoteModule&#45;&gt;ManageCartModule</title>
<path fill="none" stroke="#000000" d="M71,-122.2843C71,-143.3211 71,-175 71,-175 71,-175 329.3994,-175 329.3994,-175"/>
<polygon fill="#000000" stroke="#000000" points="329.3994,-178.5001 339.3994,-175 329.3994,-171.5001 329.3994,-178.5001"/>
</g>
</g>
</svg>
