<?xml version="1.0" encoding="UTF-8" standalone="no"?>
<!DOCTYPE svg PUBLIC "-//W3C//DTD SVG 1.1//EN"
 "http://www.w3.org/Graphics/SVG/1.1/DTD/svg11.dtd">
<!-- Generated by graphviz version 2.40.1 (20161225.0304)
 -->
<!-- Title: dependencies Pages: 1 -->
<svg width="1070pt" height="284pt"
 viewBox="0.00 0.00 1070.00 284.00" xmlns="http://www.w3.org/2000/svg" xmlns:xlink="http://www.w3.org/1999/xlink">
<g id="graph0" class="graph" transform="scale(1 1) rotate(0) translate(4 280)">
<title>dependencies</title>
<polygon fill="#ffffff" stroke="transparent" points="-4,4 -4,-280 1066,-280 1066,4 -4,4"/>
<text text-anchor="start" x="510.0091" y="-42.4" font-family="sans-serif" font-weight="bold" font-size="14.00" fill="#000000">Legend</text>
<polygon fill="#ffffb3" stroke="transparent" points="297,-10 297,-30 317,-30 317,-10 297,-10"/>
<text text-anchor="start" x="320.629" y="-15.4" font-family="sans-serif" font-size="14.00" fill="#000000"> &#160;Declarations</text>
<polygon fill="#8dd3c7" stroke="transparent" points="410,-10 410,-30 430,-30 430,-10 410,-10"/>
<text text-anchor="start" x="433.7251" y="-15.4" font-family="sans-serif" font-size="14.00" fill="#000000"> &#160;Module</text>
<polygon fill="#80b1d3" stroke="transparent" points="496,-10 496,-30 516,-30 516,-10 496,-10"/>
<text text-anchor="start" x="519.7812" y="-15.4" font-family="sans-serif" font-size="14.00" fill="#000000"> &#160;Bootstrap</text>
<polygon fill="#fdb462" stroke="transparent" points="593,-10 593,-30 613,-30 613,-10 593,-10"/>
<text text-anchor="start" x="616.6732" y="-15.4" font-family="sans-serif" font-size="14.00" fill="#000000"> &#160;Providers</text>
<polygon fill="#fb8072" stroke="transparent" points="689,-10 689,-30 709,-30 709,-10 689,-10"/>
<text text-anchor="start" x="712.7258" y="-15.4" font-family="sans-serif" font-size="14.00" fill="#000000"> &#160;Exports</text>
<g id="clust1" class="cluster">
<title>cluster_CommerceModule</title>
<polygon fill="none" stroke="#000000" stroke-dasharray="1,5" points="8,-70 8,-268 1054,-268 1054,-70 8,-70"/>
</g>
<g id="clust2" class="cluster">
<title>cluster_CommerceModule_declarations</title>
<polygon fill="none" stroke="#000000" points="27,-78 27,-130 1034,-130 1034,-78 27,-78"/>
</g>
<g id="clust11" class="cluster">
<title>cluster_CommerceModule_exports</title>
<polygon fill="none" stroke="#000000" points="16,-208 16,-260 1046,-260 1046,-208 16,-208"/>
</g>
<!-- ConvertUnitsPipe -->
<g id="node1" class="node">
<title>ConvertUnitsPipe</title>
<polygon fill="#ffffb3" stroke="#000000" points="1026.323,-122 909.677,-122 909.677,-86 1026.323,-86 1026.323,-122"/>
<text text-anchor="middle" x="968" y="-99.8" font-family="Times,serif" font-size="14.00" fill="#000000">ConvertUnitsPipe</text>
</g>
<!-- CommerceModule -->
<g id="node8" class="node">
<title>CommerceModule</title>
<polygon fill="#8dd3c7" stroke="#000000" points="580.472,-187 577.472,-191 556.472,-191 553.472,-187 459.528,-187 459.528,-151 580.472,-151 580.472,-187"/>
<text text-anchor="middle" x="520" y="-164.8" font-family="Times,serif" font-size="14.00" fill="#000000">CommerceModule</text>
</g>
<!-- ConvertUnitsPipe&#45;&gt;CommerceModule -->
<g id="edge1" class="edge">
<title>ConvertUnitsPipe&#45;&gt;CommerceModule</title>
<path fill="none" stroke="#000000" d="M913.9637,-122.2222C913.9637,-140.8285 913.9637,-167 913.9637,-167 913.9637,-167 590.6934,-167 590.6934,-167"/>
<polygon fill="#000000" stroke="#000000" points="590.6935,-163.5001 580.6934,-167 590.6934,-170.5001 590.6935,-163.5001"/>
</g>
<!-- FormatCurrencyPipe -->
<g id="node2" class="node">
<title>FormatCurrencyPipe</title>
<polygon fill="#ffffb3" stroke="#000000" points="891.9144,-122 758.0856,-122 758.0856,-86 891.9144,-86 891.9144,-122"/>
<text text-anchor="middle" x="825" y="-99.8" font-family="Times,serif" font-size="14.00" fill="#000000">FormatCurrencyPipe</text>
</g>
<!-- FormatCurrencyPipe&#45;&gt;CommerceModule -->
<g id="edge2" class="edge">
<title>FormatCurrencyPipe&#45;&gt;CommerceModule</title>
<path fill="none" stroke="#000000" d="M848.9856,-122.0336C848.9856,-139.0597 848.9856,-162 848.9856,-162 848.9856,-162 590.7244,-162 590.7244,-162"/>
<polygon fill="#000000" stroke="#000000" points="590.7245,-158.5001 580.7244,-162 590.7244,-165.5001 590.7245,-158.5001"/>
</g>
<!-- InputFieldComponent -->
<g id="node3" class="node">
<title>InputFieldComponent</title>
<polygon fill="#ffffb3" stroke="#000000" points="739.6624,-122 600.3376,-122 600.3376,-86 739.6624,-86 739.6624,-122"/>
<text text-anchor="middle" x="670" y="-99.8" font-family="Times,serif" font-size="14.00" fill="#000000">InputFieldComponent</text>
</g>
<!-- InputFieldComponent&#45;&gt;CommerceModule -->
<g id="edge3" class="edge">
<title>InputFieldComponent&#45;&gt;CommerceModule</title>
<path fill="none" stroke="#000000" d="M694.027,-122.2396C694.027,-137.5706 694.027,-157 694.027,-157 694.027,-157 590.8662,-157 590.8662,-157"/>
<polygon fill="#000000" stroke="#000000" points="590.8662,-153.5001 580.8662,-157 590.8662,-160.5001 590.8662,-153.5001"/>
</g>
<!-- LocalCurrencyPipe -->
<g id="node4" class="node">
<title>LocalCurrencyPipe</title>
<polygon fill="#ffffb3" stroke="#000000" points="582.3473,-122 457.6527,-122 457.6527,-86 582.3473,-86 582.3473,-122"/>
<text text-anchor="middle" x="520" y="-99.8" font-family="Times,serif" font-size="14.00" fill="#000000">LocalCurrencyPipe</text>
</g>
<!-- LocalCurrencyPipe&#45;&gt;CommerceModule -->
<g id="edge4" class="edge">
<title>LocalCurrencyPipe&#45;&gt;CommerceModule</title>
<path fill="none" stroke="#000000" d="M520,-122.1061C520,-122.1061 520,-140.991 520,-140.991"/>
<polygon fill="#000000" stroke="#000000" points="516.5001,-140.9909 520,-150.991 523.5001,-140.991 516.5001,-140.9909"/>
</g>
<!-- MdSpinnerComponent -->
<g id="node5" class="node">
<title>MdSpinnerComponent</title>
<polygon fill="#ffffb3" stroke="#000000" points="439.3258,-122 294.6742,-122 294.6742,-86 439.3258,-86 439.3258,-122"/>
<text text-anchor="middle" x="367" y="-99.8" font-family="Times,serif" font-size="14.00" fill="#000000">MdSpinnerComponent</text>
</g>
<!-- MdSpinnerComponent&#45;&gt;CommerceModule -->
<g id="edge5" class="edge">
<title>MdSpinnerComponent&#45;&gt;CommerceModule</title>
<path fill="none" stroke="#000000" d="M390.2209,-122.2396C390.2209,-137.5706 390.2209,-157 390.2209,-157 390.2209,-157 449.2902,-157 449.2902,-157"/>
<polygon fill="#000000" stroke="#000000" points="449.2902,-160.5001 459.2902,-157 449.2902,-153.5001 449.2902,-160.5001"/>
</g>
<!-- PriceComponent -->
<g id="node6" class="node">
<title>PriceComponent</title>
<polygon fill="#ffffb3" stroke="#000000" points="277.0954,-122 166.9046,-122 166.9046,-86 277.0954,-86 277.0954,-122"/>
<text text-anchor="middle" x="222" y="-99.8" font-family="Times,serif" font-size="14.00" fill="#000000">PriceComponent</text>
</g>
<!-- PriceComponent&#45;&gt;CommerceModule -->
<g id="edge6" class="edge">
<title>PriceComponent&#45;&gt;CommerceModule</title>
<path fill="none" stroke="#000000" d="M236.8492,-122.0336C236.8492,-139.0597 236.8492,-162 236.8492,-162 236.8492,-162 449.2571,-162 449.2571,-162"/>
<polygon fill="#000000" stroke="#000000" points="449.2571,-165.5001 459.2571,-162 449.257,-158.5001 449.2571,-165.5001"/>
</g>
<!-- PriceMatrixFilter -->
<g id="node7" class="node">
<title>PriceMatrixFilter</title>
<polygon fill="#ffffb3" stroke="#000000" points="148.6938,-122 35.3062,-122 35.3062,-86 148.6938,-86 148.6938,-122"/>
<text text-anchor="middle" x="92" y="-99.8" font-family="Times,serif" font-size="14.00" fill="#000000">PriceMatrixFilter</text>
</g>
<!-- PriceMatrixFilter&#45;&gt;CommerceModule -->
<g id="edge7" class="edge">
<title>PriceMatrixFilter&#45;&gt;CommerceModule</title>
<path fill="none" stroke="#000000" d="M144.4718,-122.2222C144.4718,-140.8285 144.4718,-167 144.4718,-167 144.4718,-167 449.2475,-167 449.2475,-167"/>
<polygon fill="#000000" stroke="#000000" points="449.2476,-170.5001 459.2475,-167 449.2475,-163.5001 449.2476,-170.5001"/>
</g>
<!-- ConvertUnitsPipe  -->
<g id="node9" class="node">
<title>ConvertUnitsPipe </title>
<polygon fill="#fb8072" stroke="#000000" points="1037.8227,-252 918.1773,-252 918.1773,-216 1037.8227,-216 1037.8227,-252"/>
<text text-anchor="middle" x="978" y="-229.8" font-family="Times,serif" font-size="14.00" fill="#000000">ConvertUnitsPipe </text>
</g>
<!-- CommerceModule&#45;&gt;ConvertUnitsPipe  -->
<g id="edge8" class="edge">
<title>CommerceModule&#45;&gt;ConvertUnitsPipe </title>
<path fill="none" stroke="#000000" stroke-dasharray="5,2" d="M580.5064,-172C703.7064,-172 972.125,-172 972.125,-172 972.125,-172 972.125,-205.7333 972.125,-205.7333"/>
<polygon fill="#000000" stroke="#000000" points="968.6251,-205.7333 972.125,-215.7333 975.6251,-205.7333 968.6251,-205.7333"/>
</g>
<!-- FormatCurrencyPipe  -->
<g id="node10" class="node">
<title>FormatCurrencyPipe </title>
<polygon fill="#fb8072" stroke="#000000" points="900.4138,-252 763.5862,-252 763.5862,-216 900.4138,-216 900.4138,-252"/>
<text text-anchor="middle" x="832" y="-229.8" font-family="Times,serif" font-size="14.00" fill="#000000">FormatCurrencyPipe </text>
</g>
<!-- CommerceModule&#45;&gt;FormatCurrencyPipe  -->
<g id="edge9" class="edge">
<title>CommerceModule&#45;&gt;FormatCurrencyPipe </title>
<path fill="none" stroke="#000000" stroke-dasharray="5,2" d="M580.7093,-177C664.7396,-177 806.2644,-177 806.2644,-177 806.2644,-177 806.2644,-205.9648 806.2644,-205.9648"/>
<polygon fill="#000000" stroke="#000000" points="802.7645,-205.9648 806.2644,-215.9648 809.7645,-205.9649 802.7645,-205.9648"/>
</g>
<!-- InputFieldComponent  -->
<g id="node11" class="node">
<title>InputFieldComponent </title>
<polygon fill="#fb8072" stroke="#000000" points="745.6621,-252 602.3379,-252 602.3379,-216 745.6621,-216 745.6621,-252"/>
<text text-anchor="middle" x="674" y="-229.8" font-family="Times,serif" font-size="14.00" fill="#000000">InputFieldComponent </text>
</g>
<!-- CommerceModule&#45;&gt;InputFieldComponent  -->
<g id="edge10" class="edge">
<title>CommerceModule&#45;&gt;InputFieldComponent </title>
<path fill="none" stroke="#000000" stroke-dasharray="5,2" d="M580.732,-182C613.8737,-182 648.223,-182 648.223,-182 648.223,-182 648.223,-205.8129 648.223,-205.8129"/>
<polygon fill="#000000" stroke="#000000" points="644.7231,-205.8129 648.223,-215.8129 651.7231,-205.813 644.7231,-205.8129"/>
</g>
<!-- LocalCurrencyPipe  -->
<g id="node12" class="node">
<title>LocalCurrencyPipe </title>
<polygon fill="#fb8072" stroke="#000000" points="584.3477,-252 455.6523,-252 455.6523,-216 584.3477,-216 584.3477,-252"/>
<text text-anchor="middle" x="520" y="-229.8" font-family="Times,serif" font-size="14.00" fill="#000000">LocalCurrencyPipe </text>
</g>
<!-- CommerceModule&#45;&gt;LocalCurrencyPipe  -->
<g id="edge11" class="edge">
<title>CommerceModule&#45;&gt;LocalCurrencyPipe </title>
<path fill="none" stroke="#000000" stroke-dasharray="5,2" d="M520,-187.1061C520,-187.1061 520,-205.991 520,-205.991"/>
<polygon fill="#000000" stroke="#000000" points="516.5001,-205.9909 520,-215.991 523.5001,-205.991 516.5001,-205.9909"/>
</g>
<!-- MdSpinnerComponent  -->
<g id="node13" class="node">
<title>MdSpinnerComponent </title>
<polygon fill="#fb8072" stroke="#000000" points="437.8255,-252 290.1745,-252 290.1745,-216 437.8255,-216 437.8255,-252"/>
<text text-anchor="middle" x="364" y="-229.8" font-family="Times,serif" font-size="14.00" fill="#000000">MdSpinnerComponent </text>
</g>
<!-- CommerceModule&#45;&gt;MdSpinnerComponent  -->
<g id="edge12" class="edge">
<title>CommerceModule&#45;&gt;MdSpinnerComponent </title>
<path fill="none" stroke="#000000" stroke-dasharray="5,2" d="M459.421,-182C408.009,-182 342.5291,-182 342.5291,-182 342.5291,-182 342.5291,-205.8129 342.5291,-205.8129"/>
<polygon fill="#000000" stroke="#000000" points="339.0292,-205.8129 342.5291,-215.8129 346.0292,-205.813 339.0292,-205.8129"/>
</g>
<!-- PriceComponent  -->
<g id="node14" class="node">
<title>PriceComponent </title>
<polygon fill="#fb8072" stroke="#000000" points="271.5961,-252 158.4039,-252 158.4039,-216 271.5961,-216 271.5961,-252"/>
<text text-anchor="middle" x="215" y="-229.8" font-family="Times,serif" font-size="14.00" fill="#000000">PriceComponent </text>
</g>
<!-- CommerceModule&#45;&gt;PriceComponent  -->
<g id="edge13" class="edge">
<title>CommerceModule&#45;&gt;PriceComponent </title>
<path fill="none" stroke="#000000" stroke-dasharray="5,2" d="M459.4192,-177C367.1256,-177 201.9008,-177 201.9008,-177 201.9008,-177 201.9008,-205.9648 201.9008,-205.9648"/>
<polygon fill="#000000" stroke="#000000" points="198.4007,-205.9649 201.9008,-215.9648 205.4007,-205.9648 198.4007,-205.9649"/>
</g>
<!-- PriceMatrixFilter  -->
<g id="node15" class="node">
<title>PriceMatrixFilter </title>
<polygon fill="#fb8072" stroke="#000000" points="140.194,-252 23.806,-252 23.806,-216 140.194,-216 140.194,-252"/>
<text text-anchor="middle" x="82" y="-229.8" font-family="Times,serif" font-size="14.00" fill="#000000">PriceMatrixFilter </text>
</g>
<!-- CommerceModule&#45;&gt;PriceMatrixFilter  -->
<g id="edge14" class="edge">
<title>CommerceModule&#45;&gt;PriceMatrixFilter </title>
<path fill="none" stroke="#000000" stroke-dasharray="5,2" d="M459.4599,-172C340.533,-172 87.875,-172 87.875,-172 87.875,-172 87.875,-205.7333 87.875,-205.7333"/>
<polygon fill="#000000" stroke="#000000" points="84.3751,-205.7333 87.875,-215.7333 91.3751,-205.7333 84.3751,-205.7333"/>
</g>
</g>
</svg>
