<?xml version="1.0" encoding="UTF-8" standalone="no"?>
<!DOCTYPE svg PUBLIC "-//W3C//DTD SVG 1.1//EN"
 "http://www.w3.org/Graphics/SVG/1.1/DTD/svg11.dtd">
<!-- Generated by graphviz version 2.40.1 (20161225.0304)
 -->
<!-- Title: dependencies Pages: 1 -->
<svg width="504pt" height="284pt"
 viewBox="0.00 0.00 504.00 284.00" xmlns="http://www.w3.org/2000/svg" xmlns:xlink="http://www.w3.org/1999/xlink">
<g id="graph0" class="graph" transform="scale(1 1) rotate(0) translate(4 280)">
<title>dependencies</title>
<polygon fill="#ffffff" stroke="transparent" points="-4,4 -4,-280 500,-280 500,4 -4,4"/>
<text text-anchor="start" x="227.0091" y="-42.4" font-family="sans-serif" font-weight="bold" font-size="14.00" fill="#000000">Legend</text>
<polygon fill="#ffffb3" stroke="transparent" points="14,-10 14,-30 34,-30 34,-10 14,-10"/>
<text text-anchor="start" x="37.629" y="-15.4" font-family="sans-serif" font-size="14.00" fill="#000000"> &#160;Declarations</text>
<polygon fill="#8dd3c7" stroke="transparent" points="127,-10 127,-30 147,-30 147,-10 127,-10"/>
<text text-anchor="start" x="150.7251" y="-15.4" font-family="sans-serif" font-size="14.00" fill="#000000"> &#160;Module</text>
<polygon fill="#80b1d3" stroke="transparent" points="213,-10 213,-30 233,-30 233,-10 213,-10"/>
<text text-anchor="start" x="236.7812" y="-15.4" font-family="sans-serif" font-size="14.00" fill="#000000"> &#160;Bootstrap</text>
<polygon fill="#fdb462" stroke="transparent" points="310,-10 310,-30 330,-30 330,-10 310,-10"/>
<text text-anchor="start" x="333.6732" y="-15.4" font-family="sans-serif" font-size="14.00" fill="#000000"> &#160;Providers</text>
<polygon fill="#fb8072" stroke="transparent" points="406,-10 406,-30 426,-30 426,-10 406,-10"/>
<text text-anchor="start" x="429.7258" y="-15.4" font-family="sans-serif" font-size="14.00" fill="#000000"> &#160;Exports</text>
<g id="clust1" class="cluster">
<title>cluster_InputDateModule</title>
<polygon fill="none" stroke="#000000" stroke-dasharray="1,5" points="87,-70 87,-268 409,-268 409,-70 87,-70"/>
</g>
<g id="clust2" class="cluster">
<title>cluster_InputDateModule_declarations</title>
<polygon fill="none" stroke="#000000" points="247,-78 247,-130 401,-130 401,-78 247,-78"/>
</g>
<g id="clust4" class="cluster">
<title>cluster_InputDateModule_imports</title>
<polygon fill="none" stroke="#000000" points="95,-78 95,-130 239,-130 239,-78 95,-78"/>
</g>
<g id="clust5" class="cluster">
<title>cluster_InputDateModule_exports</title>
<polygon fill="none" stroke="#000000" points="170,-208 170,-260 326,-260 326,-208 170,-208"/>
</g>
<!-- InputDateComponent -->
<g id="node1" class="node">
<title>InputDateComponent</title>
<polygon fill="#ffffb3" stroke="#000000" points="392.8104,-122 255.1896,-122 255.1896,-86 392.8104,-86 392.8104,-122"/>
<text text-anchor="middle" x="324" y="-99.8" font-family="Times,serif" font-size="14.00" fill="#000000">InputDateComponent</text>
</g>
<!-- InputDateModule -->
<g id="node2" class="node">
<title>InputDateModule</title>
<polygon fill="#8dd3c7" stroke="#000000" points="305.5284,-187 302.5284,-191 281.5284,-191 278.5284,-187 190.4716,-187 190.4716,-151 305.5284,-151 305.5284,-187"/>
<text text-anchor="middle" x="248" y="-164.8" font-family="Times,serif" font-size="14.00" fill="#000000">InputDateModule</text>
</g>
<!-- InputDateComponent&#45;&gt;InputDateModule -->
<g id="edge1" class="edge">
<title>InputDateComponent&#45;&gt;InputDateModule</title>
<path fill="none" stroke="#000000" d="M280.5544,-122.1061C280.5544,-122.1061 280.5544,-140.991 280.5544,-140.991"/>
<polygon fill="#000000" stroke="#000000" points="277.0544,-140.9909 280.5544,-150.991 284.0544,-140.991 277.0544,-140.9909"/>
</g>
<!-- InputDateComponent  -->
<g id="node4" class="node">
<title>InputDateComponent </title>
<polygon fill="#fb8072" stroke="#000000" points="318.3101,-252 177.6899,-252 177.6899,-216 318.3101,-216 318.3101,-252"/>
<text text-anchor="middle" x="248" y="-229.8" font-family="Times,serif" font-size="14.00" fill="#000000">InputDateComponent </text>
</g>
<!-- InputDateModule&#45;&gt;InputDateComponent  -->
<g id="edge3" class="edge">
<title>InputDateModule&#45;&gt;InputDateComponent </title>
<path fill="none" stroke="#000000" stroke-dasharray="5,2" d="M248,-187.1061C248,-187.1061 248,-205.991 248,-205.991"/>
<polygon fill="#000000" stroke="#000000" points="244.5001,-205.9909 248,-215.991 251.5001,-205.991 244.5001,-205.9909"/>
</g>
<!-- OutputFieldModule -->
<g id="node3" class="node">
<title>OutputFieldModule</title>
<polygon fill="#8dd3c7" stroke="#000000" points="230.7162,-122 227.7162,-126 206.7162,-126 203.7162,-122 103.2838,-122 103.2838,-86 230.7162,-86 230.7162,-122"/>
<text text-anchor="middle" x="167" y="-99.8" font-family="Times,serif" font-size="14.00" fill="#000000">OutputFieldModule</text>
</g>
<!-- OutputFieldModule&#45;&gt;InputDateModule -->
<g id="edge2" class="edge">
<title>OutputFieldModule&#45;&gt;InputDateModule</title>
<path fill="none" stroke="#000000" d="M210.4222,-122.1061C210.4222,-122.1061 210.4222,-140.991 210.4222,-140.991"/>
<polygon fill="#000000" stroke="#000000" points="206.9222,-140.9909 210.4222,-150.991 213.9222,-140.991 206.9222,-140.9909"/>
</g>
</g>
</svg>
