<?xml version="1.0" encoding="UTF-8" standalone="no"?>
<!DOCTYPE svg PUBLIC "-//W3C//DTD SVG 1.1//EN"
 "http://www.w3.org/Graphics/SVG/1.1/DTD/svg11.dtd">
<!-- Generated by graphviz version 2.40.1 (20161225.0304)
 -->
<!-- Title: dependencies Pages: 1 -->
<svg width="504pt" height="211pt"
 viewBox="0.00 0.00 504.00 211.00" xmlns="http://www.w3.org/2000/svg" xmlns:xlink="http://www.w3.org/1999/xlink">
<g id="graph0" class="graph" transform="scale(1 1) rotate(0) translate(4 207)">
<title>dependencies</title>
<polygon fill="#ffffff" stroke="transparent" points="-4,4 -4,-207 500,-207 500,4 -4,4"/>
<text text-anchor="start" x="227.0091" y="-42.4" font-family="sans-serif" font-weight="bold" font-size="14.00" fill="#000000">Legend</text>
<polygon fill="#ffffb3" stroke="transparent" points="14,-10 14,-30 34,-30 34,-10 14,-10"/>
<text text-anchor="start" x="37.629" y="-15.4" font-family="sans-serif" font-size="14.00" fill="#000000"> &#160;Declarations</text>
<polygon fill="#8dd3c7" stroke="transparent" points="127,-10 127,-30 147,-30 147,-10 127,-10"/>
<text text-anchor="start" x="150.7251" y="-15.4" font-family="sans-serif" font-size="14.00" fill="#000000"> &#160;Module</text>
<polygon fill="#80b1d3" stroke="transparent" points="213,-10 213,-30 233,-30 233,-10 213,-10"/>
<text text-anchor="start" x="236.7812" y="-15.4" font-family="sans-serif" font-size="14.00" fill="#000000"> &#160;Bootstrap</text>
<polygon fill="#fdb462" stroke="transparent" points="310,-10 310,-30 330,-30 330,-10 310,-10"/>
<text text-anchor="start" x="333.6732" y="-15.4" font-family="sans-serif" font-size="14.00" fill="#000000"> &#160;Providers</text>
<polygon fill="#fb8072" stroke="transparent" points="406,-10 406,-30 426,-30 426,-10 406,-10"/>
<text text-anchor="start" x="429.7258" y="-15.4" font-family="sans-serif" font-size="14.00" fill="#000000"> &#160;Exports</text>
<g id="clust1" class="cluster">
<title>cluster_OrderModule</title>
<polygon fill="none" stroke="#000000" stroke-dasharray="1,5" points="58,-70 58,-195 438,-195 438,-70 58,-70"/>
</g>
<g id="clust2" class="cluster">
<title>cluster_OrderModule_declarations</title>
<polygon fill="none" stroke="#000000" points="260,-78 260,-130 430,-130 430,-78 260,-78"/>
</g>
<g id="clust4" class="cluster">
<title>cluster_OrderModule_imports</title>
<polygon fill="none" stroke="#000000" points="66,-78 66,-130 252,-130 252,-78 66,-78"/>
</g>
<!-- OrderDetailsComponent -->
<g id="node1" class="node">
<title>OrderDetailsComponent</title>
<polygon fill="#ffffb3" stroke="#000000" points="421.6275,-122 268.3725,-122 268.3725,-86 421.6275,-86 421.6275,-122"/>
<text text-anchor="middle" x="345" y="-99.8" font-family="Times,serif" font-size="14.00" fill="#000000">OrderDetailsComponent</text>
</g>
<!-- OrderModule -->
<g id="node2" class="node">
<title>OrderModule</title>
<polygon fill="#8dd3c7" stroke="#000000" points="298.1924,-187 295.1924,-191 274.1924,-191 271.1924,-187 205.8076,-187 205.8076,-151 298.1924,-151 298.1924,-187"/>
<text text-anchor="middle" x="252" y="-164.8" font-family="Times,serif" font-size="14.00" fill="#000000">OrderModule</text>
</g>
<!-- OrderDetailsComponent&#45;&gt;OrderModule -->
<g id="edge1" class="edge">
<title>OrderDetailsComponent&#45;&gt;OrderModule</title>
<path fill="none" stroke="#000000" d="M283.1413,-122.1061C283.1413,-122.1061 283.1413,-140.991 283.1413,-140.991"/>
<polygon fill="#000000" stroke="#000000" points="279.6414,-140.9909 283.1413,-150.991 286.6414,-140.991 279.6414,-140.9909"/>
</g>
<!-- LineItemTableRowModule -->
<g id="node3" class="node">
<title>LineItemTableRowModule</title>
<polygon fill="#8dd3c7" stroke="#000000" points="243.6797,-122 240.6797,-126 219.6797,-126 216.6797,-122 74.3203,-122 74.3203,-86 243.6797,-86 243.6797,-122"/>
<text text-anchor="middle" x="159" y="-99.8" font-family="Times,serif" font-size="14.00" fill="#000000">LineItemTableRowModule</text>
</g>
<!-- LineItemTableRowModule&#45;&gt;OrderModule -->
<g id="edge2" class="edge">
<title>LineItemTableRowModule&#45;&gt;OrderModule</title>
<path fill="none" stroke="#000000" d="M224.7469,-122.1061C224.7469,-122.1061 224.7469,-140.991 224.7469,-140.991"/>
<polygon fill="#000000" stroke="#000000" points="221.2469,-140.9909 224.7469,-150.991 228.2469,-140.991 221.2469,-140.9909"/>
</g>
</g>
</svg>
