<?xml version="1.0" encoding="UTF-8" standalone="no"?>
<!DOCTYPE svg PUBLIC "-//W3C//DTD SVG 1.1//EN"
 "http://www.w3.org/Graphics/SVG/1.1/DTD/svg11.dtd">
<!-- Generated by graphviz version 2.40.1 (20161225.0304)
 -->
<!-- Title: dependencies Pages: 1 -->
<svg width="504pt" height="284pt"
 viewBox="0.00 0.00 504.00 284.00" xmlns="http://www.w3.org/2000/svg" xmlns:xlink="http://www.w3.org/1999/xlink">
<g id="graph0" class="graph" transform="scale(1 1) rotate(0) translate(4 280)">
<title>dependencies</title>
<polygon fill="#ffffff" stroke="transparent" points="-4,4 -4,-280 500,-280 500,4 -4,4"/>
<text text-anchor="start" x="227.0091" y="-42.4" font-family="sans-serif" font-weight="bold" font-size="14.00" fill="#000000">Legend</text>
<polygon fill="#ffffb3" stroke="transparent" points="14,-10 14,-30 34,-30 34,-10 14,-10"/>
<text text-anchor="start" x="37.629" y="-15.4" font-family="sans-serif" font-size="14.00" fill="#000000"> &#160;Declarations</text>
<polygon fill="#8dd3c7" stroke="transparent" points="127,-10 127,-30 147,-30 147,-10 127,-10"/>
<text text-anchor="start" x="150.7251" y="-15.4" font-family="sans-serif" font-size="14.00" fill="#000000"> &#160;Module</text>
<polygon fill="#80b1d3" stroke="transparent" points="213,-10 213,-30 233,-30 233,-10 213,-10"/>
<text text-anchor="start" x="236.7812" y="-15.4" font-family="sans-serif" font-size="14.00" fill="#000000"> &#160;Bootstrap</text>
<polygon fill="#fdb462" stroke="transparent" points="310,-10 310,-30 330,-30 330,-10 310,-10"/>
<text text-anchor="start" x="333.6732" y="-15.4" font-family="sans-serif" font-size="14.00" fill="#000000"> &#160;Providers</text>
<polygon fill="#fb8072" stroke="transparent" points="406,-10 406,-30 426,-30 426,-10 406,-10"/>
<text text-anchor="start" x="429.7258" y="-15.4" font-family="sans-serif" font-size="14.00" fill="#000000"> &#160;Exports</text>
<g id="clust1" class="cluster">
<title>cluster_InputFieldModule</title>
<polygon fill="none" stroke="#000000" stroke-dasharray="1,5" points="46,-70 46,-268 450,-268 450,-70 46,-70"/>
</g>
<g id="clust2" class="cluster">
<title>cluster_InputFieldModule_declarations</title>
<polygon fill="none" stroke="#000000" points="286,-78 286,-130 442,-130 442,-78 286,-78"/>
</g>
<g id="clust4" class="cluster">
<title>cluster_InputFieldModule_imports</title>
<polygon fill="none" stroke="#000000" points="54,-78 54,-130 278,-130 278,-78 54,-78"/>
</g>
<g id="clust5" class="cluster">
<title>cluster_InputFieldModule_exports</title>
<polygon fill="none" stroke="#000000" points="137,-208 137,-260 297,-260 297,-208 137,-208"/>
</g>
<!-- InputFieldComponent -->
<g id="node1" class="node">
<title>InputFieldComponent</title>
<polygon fill="#ffffb3" stroke="#000000" points="433.6624,-122 294.3376,-122 294.3376,-86 433.6624,-86 433.6624,-122"/>
<text text-anchor="middle" x="364" y="-99.8" font-family="Times,serif" font-size="14.00" fill="#000000">InputFieldComponent</text>
</g>
<!-- InputFieldModule -->
<g id="node2" class="node">
<title>InputFieldModule</title>
<polygon fill="#8dd3c7" stroke="#000000" points="275.8795,-187 272.8795,-191 251.8795,-191 248.8795,-187 158.1205,-187 158.1205,-151 275.8795,-151 275.8795,-187"/>
<text text-anchor="middle" x="217" y="-164.8" font-family="Times,serif" font-size="14.00" fill="#000000">InputFieldModule</text>
</g>
<!-- InputFieldComponent&#45;&gt;InputFieldModule -->
<g id="edge1" class="edge">
<title>InputFieldComponent&#45;&gt;InputFieldModule</title>
<path fill="none" stroke="#000000" d="M364,-122.1061C364,-141.3391 364,-169 364,-169 364,-169 285.9435,-169 285.9435,-169"/>
<polygon fill="#000000" stroke="#000000" points="285.9436,-165.5001 275.9435,-169 285.9435,-172.5001 285.9436,-165.5001"/>
</g>
<!-- InputFieldComponent  -->
<g id="node5" class="node">
<title>InputFieldComponent </title>
<polygon fill="#fb8072" stroke="#000000" points="288.6621,-252 145.3379,-252 145.3379,-216 288.6621,-216 288.6621,-252"/>
<text text-anchor="middle" x="217" y="-229.8" font-family="Times,serif" font-size="14.00" fill="#000000">InputFieldComponent </text>
</g>
<!-- InputFieldModule&#45;&gt;InputFieldComponent  -->
<g id="edge4" class="edge">
<title>InputFieldModule&#45;&gt;InputFieldComponent </title>
<path fill="none" stroke="#000000" stroke-dasharray="5,2" d="M217,-187.1061C217,-187.1061 217,-205.991 217,-205.991"/>
<polygon fill="#000000" stroke="#000000" points="213.5001,-205.9909 217,-215.991 220.5001,-205.991 213.5001,-205.9909"/>
</g>
<!-- AddressModule -->
<g id="node3" class="node">
<title>AddressModule</title>
<polygon fill="#8dd3c7" stroke="#000000" points="269.9216,-122 266.9216,-126 245.9216,-126 242.9216,-122 164.0784,-122 164.0784,-86 269.9216,-86 269.9216,-122"/>
<text text-anchor="middle" x="217" y="-99.8" font-family="Times,serif" font-size="14.00" fill="#000000">AddressModule</text>
</g>
<!-- AddressModule&#45;&gt;InputFieldModule -->
<g id="edge2" class="edge">
<title>AddressModule&#45;&gt;InputFieldModule</title>
<path fill="none" stroke="#000000" d="M217,-122.1061C217,-122.1061 217,-140.991 217,-140.991"/>
<polygon fill="#000000" stroke="#000000" points="213.5001,-140.9909 217,-150.991 220.5001,-140.991 213.5001,-140.9909"/>
</g>
<!-- IconModule -->
<g id="node4" class="node">
<title>IconModule</title>
<polygon fill="#8dd3c7" stroke="#000000" points="146.4261,-122 143.4261,-126 122.4261,-126 119.4261,-122 61.5739,-122 61.5739,-86 146.4261,-86 146.4261,-122"/>
<text text-anchor="middle" x="104" y="-99.8" font-family="Times,serif" font-size="14.00" fill="#000000">IconModule</text>
</g>
<!-- IconModule&#45;&gt;InputFieldModule -->
<g id="edge3" class="edge">
<title>IconModule&#45;&gt;InputFieldModule</title>
<path fill="none" stroke="#000000" d="M103.6033,-122.1061C103.6033,-141.3391 103.6033,-169 103.6033,-169 103.6033,-169 147.9767,-169 147.9767,-169"/>
<polygon fill="#000000" stroke="#000000" points="147.9767,-172.5001 157.9767,-169 147.9767,-165.5001 147.9767,-172.5001"/>
</g>
</g>
</svg>
