<?xml version="1.0" encoding="UTF-8" standalone="no"?>
<!DOCTYPE svg PUBLIC "-//W3C//DTD SVG 1.1//EN"
 "http://www.w3.org/Graphics/SVG/1.1/DTD/svg11.dtd">
<!-- Generated by graphviz version 2.40.1 (20161225.0304)
 -->
<!-- Title: dependencies Pages: 1 -->
<svg width="918pt" height="396pt"
 viewBox="0.00 0.00 918.00 395.59" xmlns="http://www.w3.org/2000/svg" xmlns:xlink="http://www.w3.org/1999/xlink">
<g id="graph0" class="graph" transform="scale(1 1) rotate(0) translate(4 391.5901)">
<title>dependencies</title>
<polygon fill="#ffffff" stroke="transparent" points="-4,4 -4,-391.5901 914,-391.5901 914,4 -4,4"/>
<text text-anchor="start" x="434.0091" y="-42.4" font-family="sans-serif" font-weight="bold" font-size="14.00" fill="#000000">Legend</text>
<polygon fill="#ffffb3" stroke="transparent" points="221,-10 221,-30 241,-30 241,-10 221,-10"/>
<text text-anchor="start" x="244.629" y="-15.4" font-family="sans-serif" font-size="14.00" fill="#000000"> &#160;Declarations</text>
<polygon fill="#8dd3c7" stroke="transparent" points="334,-10 334,-30 354,-30 354,-10 334,-10"/>
<text text-anchor="start" x="357.7251" y="-15.4" font-family="sans-serif" font-size="14.00" fill="#000000"> &#160;Module</text>
<polygon fill="#80b1d3" stroke="transparent" points="420,-10 420,-30 440,-30 440,-10 420,-10"/>
<text text-anchor="start" x="443.7812" y="-15.4" font-family="sans-serif" font-size="14.00" fill="#000000"> &#160;Bootstrap</text>
<polygon fill="#fdb462" stroke="transparent" points="517,-10 517,-30 537,-30 537,-10 517,-10"/>
<text text-anchor="start" x="540.6732" y="-15.4" font-family="sans-serif" font-size="14.00" fill="#000000"> &#160;Providers</text>
<polygon fill="#fb8072" stroke="transparent" points="613,-10 613,-30 633,-30 633,-10 613,-10"/>
<text text-anchor="start" x="636.7258" y="-15.4" font-family="sans-serif" font-size="14.00" fill="#000000"> &#160;Exports</text>
<g id="clust1" class="cluster">
<title>cluster_InputFieldModule</title>
<polygon fill="none" stroke="#000000" stroke-dasharray="1,5" points="8,-70 8,-379.5901 902,-379.5901 902,-70 8,-70"/>
</g>
<g id="clust2" class="cluster">
<title>cluster_InputFieldModule_declarations</title>
<polygon fill="none" stroke="#000000" points="377,-189.5901 377,-241.5901 533,-241.5901 533,-189.5901 377,-189.5901"/>
</g>
<g id="clust3" class="cluster">
<title>cluster_InputFieldModule_InputFieldComponent_providers</title>
<polygon fill="none" stroke="#000000" points="16,-78 16,-176.5901 894,-176.5901 894,-78 16,-78"/>
</g>
<g id="clust5" class="cluster">
<title>cluster_InputFieldModule_exports</title>
<polygon fill="none" stroke="#000000" points="375,-319.5901 375,-371.5901 535,-371.5901 535,-319.5901 375,-319.5901"/>
</g>
<!-- InputFieldComponent -->
<g id="node1" class="node">
<title>InputFieldComponent</title>
<polygon fill="#ffffb3" stroke="#000000" points="524.6624,-233.5901 385.3376,-233.5901 385.3376,-197.5901 524.6624,-197.5901 524.6624,-233.5901"/>
<text text-anchor="middle" x="455" y="-211.3901" font-family="Times,serif" font-size="14.00" fill="#000000">InputFieldComponent</text>
</g>
<!-- InputFieldModule -->
<g id="node2" class="node">
<title>InputFieldModule</title>
<polygon fill="#8dd3c7" stroke="#000000" points="513.8795,-298.5901 510.8795,-302.5901 489.8795,-302.5901 486.8795,-298.5901 396.1205,-298.5901 396.1205,-262.5901 513.8795,-262.5901 513.8795,-298.5901"/>
<text text-anchor="middle" x="455" y="-276.3901" font-family="Times,serif" font-size="14.00" fill="#000000">InputFieldModule</text>
</g>
<!-- InputFieldComponent&#45;&gt;InputFieldModule -->
<g id="edge1" class="edge">
<title>InputFieldComponent&#45;&gt;InputFieldModule</title>
<path fill="none" stroke="#000000" d="M455,-233.6962C455,-233.6962 455,-252.581 455,-252.581"/>
<polygon fill="#000000" stroke="#000000" points="451.5001,-252.581 455,-262.581 458.5001,-252.5811 451.5001,-252.581"/>
</g>
<!-- InputFieldComponent  -->
<g id="node4" class="node">
<title>InputFieldComponent </title>
<polygon fill="#fb8072" stroke="#000000" points="526.6621,-363.5901 383.3379,-363.5901 383.3379,-327.5901 526.6621,-327.5901 526.6621,-363.5901"/>
<text text-anchor="middle" x="455" y="-341.3901" font-family="Times,serif" font-size="14.00" fill="#000000">InputFieldComponent </text>
</g>
<!-- InputFieldModule&#45;&gt;InputFieldComponent  -->
<g id="edge3" class="edge">
<title>InputFieldModule&#45;&gt;InputFieldComponent </title>
<path fill="none" stroke="#000000" stroke-dasharray="5,2" d="M455,-298.6962C455,-298.6962 455,-317.581 455,-317.581"/>
<polygon fill="#000000" stroke="#000000" points="451.5001,-317.581 455,-327.581 458.5001,-317.5811 451.5001,-317.581"/>
</g>
<!-- {
 &#160;&#160;&#160;provide: NG_VALUE_ACCESSOR, useExisting: forwardRef(() =&gt; InputFieldComponent), multi: true
} -->
<g id="node3" class="node">
<title>{
 &#160;&#160;&#160;provide: NG_VALUE_ACCESSOR, useExisting: forwardRef(() =&gt; InputFieldComponent), multi: true
}</title>
<ellipse fill="#fdb462" stroke="#000000" cx="455" cy="-127.295" rx="430.5127" ry="41.0911"/>
<text text-anchor="middle" x="455" y="-139.895" font-family="Times,serif" font-size="14.00" fill="#000000">{</text>
<text text-anchor="middle" x="455" y="-123.095" font-family="Times,serif" font-size="14.00" fill="#000000"> &#160;&#160;&#160;provide: NG_VALUE_ACCESSOR, useExisting: forwardRef(() =&gt; InputFieldComponent), multi: true</text>
<text text-anchor="middle" x="455" y="-106.295" font-family="Times,serif" font-size="14.00" fill="#000000">}</text>
</g>
<!-- {
 &#160;&#160;&#160;provide: NG_VALUE_ACCESSOR, useExisting: forwardRef(() =&gt; InputFieldComponent), multi: true
}&#45;&gt;InputFieldComponent -->
<g id="edge2" class="edge">
<title>{
 &#160;&#160;&#160;provide: NG_VALUE_ACCESSOR, useExisting: forwardRef(() =&gt; InputFieldComponent), multi: true
}&#45;&gt;InputFieldComponent</title>
<path fill="none" stroke="#000000" d="M455,-168.5989C455,-168.5989 455,-187.2551 455,-187.2551"/>
<polygon fill="#000000" stroke="#000000" points="451.5001,-187.255 455,-197.2551 458.5001,-187.2551 451.5001,-187.255"/>
</g>
</g>
</svg>
