<?xml version="1.0" encoding="UTF-8" standalone="no"?>
<!DOCTYPE svg PUBLIC "-//W3C//DTD SVG 1.1//EN"
 "http://www.w3.org/Graphics/SVG/1.1/DTD/svg11.dtd">
<!-- Generated by graphviz version 2.40.1 (20161225.0304)
 -->
<!-- Title: dependencies Pages: 1 -->
<svg width="1810pt" height="211pt"
 viewBox="0.00 0.00 1810.00 211.00" xmlns="http://www.w3.org/2000/svg" xmlns:xlink="http://www.w3.org/1999/xlink">
<g id="graph0" class="graph" transform="scale(1 1) rotate(0) translate(4 207)">
<title>dependencies</title>
<polygon fill="#ffffff" stroke="transparent" points="-4,4 -4,-207 1806,-207 1806,4 -4,4"/>
<text text-anchor="start" x="880.0091" y="-42.4" font-family="sans-serif" font-weight="bold" font-size="14.00" fill="#000000">Legend</text>
<polygon fill="#ffffb3" stroke="transparent" points="667,-10 667,-30 687,-30 687,-10 667,-10"/>
<text text-anchor="start" x="690.629" y="-15.4" font-family="sans-serif" font-size="14.00" fill="#000000"> &#160;Declarations</text>
<polygon fill="#8dd3c7" stroke="transparent" points="780,-10 780,-30 800,-30 800,-10 780,-10"/>
<text text-anchor="start" x="803.7251" y="-15.4" font-family="sans-serif" font-size="14.00" fill="#000000"> &#160;Module</text>
<polygon fill="#80b1d3" stroke="transparent" points="866,-10 866,-30 886,-30 886,-10 866,-10"/>
<text text-anchor="start" x="889.7812" y="-15.4" font-family="sans-serif" font-size="14.00" fill="#000000"> &#160;Bootstrap</text>
<polygon fill="#fdb462" stroke="transparent" points="963,-10 963,-30 983,-30 983,-10 963,-10"/>
<text text-anchor="start" x="986.6732" y="-15.4" font-family="sans-serif" font-size="14.00" fill="#000000"> &#160;Providers</text>
<polygon fill="#fb8072" stroke="transparent" points="1059,-10 1059,-30 1079,-30 1079,-10 1059,-10"/>
<text text-anchor="start" x="1082.7258" y="-15.4" font-family="sans-serif" font-size="14.00" fill="#000000"> &#160;Exports</text>
<g id="clust1" class="cluster">
<title>cluster_InstalledProductsModule</title>
<polygon fill="none" stroke="#000000" stroke-dasharray="1,5" points="8,-70 8,-195 1794,-195 1794,-70 8,-70"/>
</g>
<g id="clust2" class="cluster">
<title>cluster_InstalledProductsModule_declarations</title>
<polygon fill="none" stroke="#000000" points="1186,-78 1186,-130 1786,-130 1786,-78 1186,-78"/>
</g>
<g id="clust6" class="cluster">
<title>cluster_InstalledProductsModule_imports</title>
<polygon fill="none" stroke="#000000" points="16,-78 16,-130 1178,-130 1178,-78 16,-78"/>
</g>
<!-- InstalledProductsLayoutComponent -->
<g id="node1" class="node">
<title>InstalledProductsLayoutComponent</title>
<polygon fill="#ffffb3" stroke="#000000" points="1778.1895,-122 1559.8105,-122 1559.8105,-86 1778.1895,-86 1778.1895,-122"/>
<text text-anchor="middle" x="1669" y="-99.8" font-family="Times,serif" font-size="14.00" fill="#000000">InstalledProductsLayoutComponent</text>
</g>
<!-- InstalledProductsModule -->
<g id="node4" class="node">
<title>InstalledProductsModule</title>
<polygon fill="#8dd3c7" stroke="#000000" points="908.2492,-187 905.2492,-191 884.2492,-191 881.2492,-187 751.7508,-187 751.7508,-151 908.2492,-151 908.2492,-187"/>
<text text-anchor="middle" x="830" y="-164.8" font-family="Times,serif" font-size="14.00" fill="#000000">InstalledProductsModule</text>
</g>
<!-- InstalledProductsLayoutComponent&#45;&gt;InstalledProductsModule -->
<g id="edge1" class="edge">
<title>InstalledProductsLayoutComponent&#45;&gt;InstalledProductsModule</title>
<path fill="none" stroke="#000000" d="M1669,-122.0908C1669,-145.1328 1669,-182 1669,-182 1669,-182 918.554,-182 918.554,-182"/>
<polygon fill="#000000" stroke="#000000" points="918.554,-178.5001 908.554,-182 918.554,-185.5001 918.554,-178.5001"/>
</g>
<!-- PriceTypeFilterComponent -->
<g id="node2" class="node">
<title>PriceTypeFilterComponent</title>
<polygon fill="#ffffb3" stroke="#000000" points="1541.6923,-122 1372.3077,-122 1372.3077,-86 1541.6923,-86 1541.6923,-122"/>
<text text-anchor="middle" x="1457" y="-99.8" font-family="Times,serif" font-size="14.00" fill="#000000">PriceTypeFilterComponent</text>
</g>
<!-- PriceTypeFilterComponent&#45;&gt;InstalledProductsModule -->
<g id="edge2" class="edge">
<title>PriceTypeFilterComponent&#45;&gt;InstalledProductsModule</title>
<path fill="none" stroke="#000000" d="M1457,-122.2843C1457,-143.3211 1457,-175 1457,-175 1457,-175 918.4584,-175 918.4584,-175"/>
<polygon fill="#000000" stroke="#000000" points="918.4585,-171.5001 908.4584,-175 918.4584,-178.5001 918.4585,-171.5001"/>
</g>
<!-- RenewalFilterComponent -->
<g id="node3" class="node">
<title>RenewalFilterComponent</title>
<polygon fill="#ffffb3" stroke="#000000" points="1354.14,-122 1193.86,-122 1193.86,-86 1354.14,-86 1354.14,-122"/>
<text text-anchor="middle" x="1274" y="-99.8" font-family="Times,serif" font-size="14.00" fill="#000000">RenewalFilterComponent</text>
</g>
<!-- RenewalFilterComponent&#45;&gt;InstalledProductsModule -->
<g id="edge3" class="edge">
<title>RenewalFilterComponent&#45;&gt;InstalledProductsModule</title>
<path fill="none" stroke="#000000" d="M1274,-122.1061C1274,-141.3391 1274,-169 1274,-169 1274,-169 918.3562,-169 918.3562,-169"/>
<polygon fill="#000000" stroke="#000000" points="918.3563,-165.5001 908.3562,-169 918.3562,-172.5001 918.3563,-165.5001"/>
</g>
<!-- AboModule -->
<g id="node5" class="node">
<title>AboModule</title>
<polygon fill="#8dd3c7" stroke="#000000" points="1169.6571,-122 1166.6571,-126 1145.6571,-126 1142.6571,-122 1086.3429,-122 1086.3429,-86 1169.6571,-86 1169.6571,-122"/>
<text text-anchor="middle" x="1128" y="-99.8" font-family="Times,serif" font-size="14.00" fill="#000000">AboModule</text>
</g>
<!-- AboModule&#45;&gt;InstalledProductsModule -->
<g id="edge4" class="edge">
<title>AboModule&#45;&gt;InstalledProductsModule</title>
<path fill="none" stroke="#000000" d="M1128,-122.0225C1128,-139.3734 1128,-163 1128,-163 1128,-163 918.296,-163 918.296,-163"/>
<polygon fill="#000000" stroke="#000000" points="918.296,-159.5001 908.296,-163 918.296,-166.5001 918.296,-159.5001"/>
</g>
<!-- AssetListModule -->
<g id="node6" class="node">
<title>AssetListModule</title>
<polygon fill="#8dd3c7" stroke="#000000" points="1068.43,-122 1065.43,-126 1044.43,-126 1041.43,-122 955.57,-122 955.57,-86 1068.43,-86 1068.43,-122"/>
<text text-anchor="middle" x="1012" y="-99.8" font-family="Times,serif" font-size="14.00" fill="#000000">AssetListModule</text>
</g>
<!-- AssetListModule&#45;&gt;InstalledProductsModule -->
<g id="edge5" class="edge">
<title>AssetListModule&#45;&gt;InstalledProductsModule</title>
<path fill="none" stroke="#000000" d="M1012,-122.2396C1012,-137.5706 1012,-157 1012,-157 1012,-157 918.5049,-157 918.5049,-157"/>
<polygon fill="#000000" stroke="#000000" points="918.505,-153.5001 908.5049,-157 918.5049,-160.5001 918.505,-153.5001"/>
</g>
<!-- ButtonModule -->
<g id="node7" class="node">
<title>ButtonModule</title>
<polygon fill="#8dd3c7" stroke="#000000" points="937.6682,-122 934.6682,-126 913.6682,-126 910.6682,-122 840.3318,-122 840.3318,-86 937.6682,-86 937.6682,-122"/>
<text text-anchor="middle" x="889" y="-99.8" font-family="Times,serif" font-size="14.00" fill="#000000">ButtonModule</text>
</g>
<!-- ButtonModule&#45;&gt;InstalledProductsModule -->
<g id="edge6" class="edge">
<title>ButtonModule&#45;&gt;InstalledProductsModule</title>
<path fill="none" stroke="#000000" d="M874.2704,-122.1061C874.2704,-122.1061 874.2704,-140.991 874.2704,-140.991"/>
<polygon fill="#000000" stroke="#000000" points="870.7704,-140.9909 874.2704,-150.991 877.7704,-140.991 870.7704,-140.9909"/>
</g>
<!-- CatalogModule -->
<g id="node8" class="node">
<title>CatalogModule</title>
<polygon fill="#8dd3c7" stroke="#000000" points="822.5968,-122 819.5968,-126 798.5968,-126 795.5968,-122 719.4032,-122 719.4032,-86 822.5968,-86 822.5968,-122"/>
<text text-anchor="middle" x="771" y="-99.8" font-family="Times,serif" font-size="14.00" fill="#000000">CatalogModule</text>
</g>
<!-- CatalogModule&#45;&gt;InstalledProductsModule -->
<g id="edge7" class="edge">
<title>CatalogModule&#45;&gt;InstalledProductsModule</title>
<path fill="none" stroke="#000000" d="M787.087,-122.1061C787.087,-122.1061 787.087,-140.991 787.087,-140.991"/>
<polygon fill="#000000" stroke="#000000" points="783.587,-140.9909 787.087,-150.991 790.587,-140.991 783.587,-140.9909"/>
</g>
<!-- FilterModule -->
<g id="node9" class="node">
<title>FilterModule</title>
<polygon fill="#8dd3c7" stroke="#000000" points="701.8795,-122 698.8795,-126 677.8795,-126 674.8795,-122 612.1205,-122 612.1205,-86 701.8795,-86 701.8795,-122"/>
<text text-anchor="middle" x="657" y="-99.8" font-family="Times,serif" font-size="14.00" fill="#000000">FilterModule</text>
</g>
<!-- FilterModule&#45;&gt;InstalledProductsModule -->
<g id="edge8" class="edge">
<title>FilterModule&#45;&gt;InstalledProductsModule</title>
<path fill="none" stroke="#000000" d="M657,-122.2396C657,-137.5706 657,-157 657,-157 657,-157 741.5988,-157 741.5988,-157"/>
<polygon fill="#000000" stroke="#000000" points="741.5989,-160.5001 751.5988,-157 741.5988,-153.5001 741.5989,-160.5001"/>
</g>
<!-- InputSelectModule -->
<g id="node10" class="node">
<title>InputSelectModule</title>
<polygon fill="#8dd3c7" stroke="#000000" points="593.809,-122 590.809,-126 569.809,-126 566.809,-122 470.191,-122 470.191,-86 593.809,-86 593.809,-122"/>
<text text-anchor="middle" x="532" y="-99.8" font-family="Times,serif" font-size="14.00" fill="#000000">InputSelectModule</text>
</g>
<!-- InputSelectModule&#45;&gt;InstalledProductsModule -->
<g id="edge9" class="edge">
<title>InputSelectModule&#45;&gt;InstalledProductsModule</title>
<path fill="none" stroke="#000000" d="M532,-122.0225C532,-139.3734 532,-163 532,-163 532,-163 741.704,-163 741.704,-163"/>
<polygon fill="#000000" stroke="#000000" points="741.704,-166.5001 751.704,-163 741.704,-159.5001 741.704,-166.5001"/>
</g>
<!-- InstalledProductsRoutingModule -->
<g id="node11" class="node">
<title>InstalledProductsRoutingModule</title>
<polygon fill="#8dd3c7" stroke="#000000" points="451.8668,-122 448.8668,-126 427.8668,-126 424.8668,-122 250.1332,-122 250.1332,-86 451.8668,-86 451.8668,-122"/>
<text text-anchor="middle" x="351" y="-99.8" font-family="Times,serif" font-size="14.00" fill="#000000">InstalledProductsRoutingModule</text>
</g>
<!-- InstalledProductsRoutingModule&#45;&gt;InstalledProductsModule -->
<g id="edge10" class="edge">
<title>InstalledProductsRoutingModule&#45;&gt;InstalledProductsModule</title>
<path fill="none" stroke="#000000" d="M351,-122.1061C351,-141.3391 351,-169 351,-169 351,-169 741.707,-169 741.707,-169"/>
<polygon fill="#000000" stroke="#000000" points="741.707,-172.5001 751.707,-169 741.7069,-165.5001 741.707,-172.5001"/>
</g>
<!-- PricingModule -->
<g id="node12" class="node">
<title>PricingModule</title>
<polygon fill="#8dd3c7" stroke="#000000" points="231.9888,-122 228.9888,-126 207.9888,-126 204.9888,-122 132.0112,-122 132.0112,-86 231.9888,-86 231.9888,-122"/>
<text text-anchor="middle" x="182" y="-99.8" font-family="Times,serif" font-size="14.00" fill="#000000">PricingModule</text>
</g>
<!-- PricingModule&#45;&gt;InstalledProductsModule -->
<g id="edge11" class="edge">
<title>PricingModule&#45;&gt;InstalledProductsModule</title>
<path fill="none" stroke="#000000" d="M182,-122.2843C182,-143.3211 182,-175 182,-175 182,-175 741.5135,-175 741.5135,-175"/>
<polygon fill="#000000" stroke="#000000" points="741.5135,-178.5001 751.5135,-175 741.5134,-171.5001 741.5135,-178.5001"/>
</g>
<!-- StoreModule -->
<g id="node13" class="node">
<title>StoreModule</title>
<polygon fill="#8dd3c7" stroke="#000000" points="113.5983,-122 110.5983,-126 89.5983,-126 86.5983,-122 24.4017,-122 24.4017,-86 113.5983,-86 113.5983,-122"/>
<text text-anchor="middle" x="69" y="-99.8" font-family="Times,serif" font-size="14.00" fill="#000000">StoreModule</text>
</g>
<!-- StoreModule&#45;&gt;InstalledProductsModule -->
<g id="edge12" class="edge">
<title>StoreModule&#45;&gt;InstalledProductsModule</title>
<path fill="none" stroke="#000000" d="M69,-122.0908C69,-145.1328 69,-182 69,-182 69,-182 741.4259,-182 741.4259,-182"/>
<polygon fill="#000000" stroke="#000000" points="741.4259,-185.5001 751.4259,-182 741.4259,-178.5001 741.4259,-185.5001"/>
</g>
</g>
</svg>
