<?xml version="1.0" encoding="UTF-8" standalone="no"?>
<!DOCTYPE svg PUBLIC "-//W3C//DTD SVG 1.1//EN"
 "http://www.w3.org/Graphics/SVG/1.1/DTD/svg11.dtd">
<!-- Generated by graphviz version 2.40.1 (20161225.0304)
 -->
<!-- Title: dependencies Pages: 1 -->
<svg width="640pt" height="211pt"
 viewBox="0.00 0.00 640.00 211.00" xmlns="http://www.w3.org/2000/svg" xmlns:xlink="http://www.w3.org/1999/xlink">
<g id="graph0" class="graph" transform="scale(1 1) rotate(0) translate(4 207)">
<title>dependencies</title>
<polygon fill="#ffffff" stroke="transparent" points="-4,4 -4,-207 636,-207 636,4 -4,4"/>
<text text-anchor="start" x="295.0091" y="-42.4" font-family="sans-serif" font-weight="bold" font-size="14.00" fill="#000000">Legend</text>
<polygon fill="#ffffb3" stroke="transparent" points="82,-10 82,-30 102,-30 102,-10 82,-10"/>
<text text-anchor="start" x="105.629" y="-15.4" font-family="sans-serif" font-size="14.00" fill="#000000"> &#160;Declarations</text>
<polygon fill="#8dd3c7" stroke="transparent" points="195,-10 195,-30 215,-30 215,-10 195,-10"/>
<text text-anchor="start" x="218.7251" y="-15.4" font-family="sans-serif" font-size="14.00" fill="#000000"> &#160;Module</text>
<polygon fill="#80b1d3" stroke="transparent" points="281,-10 281,-30 301,-30 301,-10 281,-10"/>
<text text-anchor="start" x="304.7812" y="-15.4" font-family="sans-serif" font-size="14.00" fill="#000000"> &#160;Bootstrap</text>
<polygon fill="#fdb462" stroke="transparent" points="378,-10 378,-30 398,-30 398,-10 378,-10"/>
<text text-anchor="start" x="401.6732" y="-15.4" font-family="sans-serif" font-size="14.00" fill="#000000"> &#160;Providers</text>
<polygon fill="#fb8072" stroke="transparent" points="474,-10 474,-30 494,-30 494,-10 474,-10"/>
<text text-anchor="start" x="497.7258" y="-15.4" font-family="sans-serif" font-size="14.00" fill="#000000"> &#160;Exports</text>
<g id="clust1" class="cluster">
<title>cluster_InstalledProductsModule</title>
<polygon fill="none" stroke="#000000" stroke-dasharray="1,5" points="8,-70 8,-195 624,-195 624,-70 8,-70"/>
</g>
<g id="clust2" class="cluster">
<title>cluster_InstalledProductsModule_declarations</title>
<polygon fill="none" stroke="#000000" points="16,-78 16,-130 616,-130 616,-78 16,-78"/>
</g>
<!-- InstalledProductsLayoutComponent -->
<g id="node1" class="node">
<title>InstalledProductsLayoutComponent</title>
<polygon fill="#ffffb3" stroke="#000000" points="608.1895,-122 389.8105,-122 389.8105,-86 608.1895,-86 608.1895,-122"/>
<text text-anchor="middle" x="499" y="-99.8" font-family="Times,serif" font-size="14.00" fill="#000000">InstalledProductsLayoutComponent</text>
</g>
<!-- InstalledProductsModule -->
<g id="node4" class="node">
<title>InstalledProductsModule</title>
<polygon fill="#8dd3c7" stroke="#000000" points="365.2492,-187 362.2492,-191 341.2492,-191 338.2492,-187 208.7508,-187 208.7508,-151 365.2492,-151 365.2492,-187"/>
<text text-anchor="middle" x="287" y="-164.8" font-family="Times,serif" font-size="14.00" fill="#000000">InstalledProductsModule</text>
</g>
<!-- InstalledProductsLayoutComponent&#45;&gt;InstalledProductsModule -->
<g id="edge1" class="edge">
<title>InstalledProductsLayoutComponent&#45;&gt;InstalledProductsModule</title>
<path fill="none" stroke="#000000" d="M499,-122.1061C499,-141.3391 499,-169 499,-169 499,-169 375.3386,-169 375.3386,-169"/>
<polygon fill="#000000" stroke="#000000" points="375.3387,-165.5001 365.3386,-169 375.3386,-172.5001 375.3387,-165.5001"/>
</g>
<!-- PriceTypeFilterComponent -->
<g id="node2" class="node">
<title>PriceTypeFilterComponent</title>
<polygon fill="#ffffb3" stroke="#000000" points="371.6923,-122 202.3077,-122 202.3077,-86 371.6923,-86 371.6923,-122"/>
<text text-anchor="middle" x="287" y="-99.8" font-family="Times,serif" font-size="14.00" fill="#000000">PriceTypeFilterComponent</text>
</g>
<!-- PriceTypeFilterComponent&#45;&gt;InstalledProductsModule -->
<g id="edge2" class="edge">
<title>PriceTypeFilterComponent&#45;&gt;InstalledProductsModule</title>
<path fill="none" stroke="#000000" d="M287,-122.1061C287,-122.1061 287,-140.991 287,-140.991"/>
<polygon fill="#000000" stroke="#000000" points="283.5001,-140.9909 287,-150.991 290.5001,-140.991 283.5001,-140.9909"/>
</g>
<!-- RenewalFilterComponent -->
<g id="node3" class="node">
<title>RenewalFilterComponent</title>
<polygon fill="#ffffb3" stroke="#000000" points="184.14,-122 23.86,-122 23.86,-86 184.14,-86 184.14,-122"/>
<text text-anchor="middle" x="104" y="-99.8" font-family="Times,serif" font-size="14.00" fill="#000000">RenewalFilterComponent</text>
</g>
<!-- RenewalFilterComponent&#45;&gt;InstalledProductsModule -->
<g id="edge3" class="edge">
<title>RenewalFilterComponent&#45;&gt;InstalledProductsModule</title>
<path fill="none" stroke="#000000" d="M104,-122.1061C104,-141.3391 104,-169 104,-169 104,-169 198.5952,-169 198.5952,-169"/>
<polygon fill="#000000" stroke="#000000" points="198.5952,-172.5001 208.5952,-169 198.5951,-165.5001 198.5952,-172.5001"/>
</g>
</g>
</svg>
