<?xml version="1.0" encoding="UTF-8" standalone="no"?>
<!DOCTYPE svg PUBLIC "-//W3C//DTD SVG 1.1//EN"
 "http://www.w3.org/Graphics/SVG/1.1/DTD/svg11.dtd">
<!-- Generated by graphviz version 2.40.1 (20161225.0304)
 -->
<!-- Title: dependencies Pages: 1 -->
<svg width="504pt" height="284pt"
 viewBox="0.00 0.00 504.00 284.00" xmlns="http://www.w3.org/2000/svg" xmlns:xlink="http://www.w3.org/1999/xlink">
<g id="graph0" class="graph" transform="scale(1 1) rotate(0) translate(4 280)">
<title>dependencies</title>
<polygon fill="#ffffff" stroke="transparent" points="-4,4 -4,-280 500,-280 500,4 -4,4"/>
<text text-anchor="start" x="227.0091" y="-42.4" font-family="sans-serif" font-weight="bold" font-size="14.00" fill="#000000">Legend</text>
<polygon fill="#ffffb3" stroke="transparent" points="14,-10 14,-30 34,-30 34,-10 14,-10"/>
<text text-anchor="start" x="37.629" y="-15.4" font-family="sans-serif" font-size="14.00" fill="#000000"> &#160;Declarations</text>
<polygon fill="#8dd3c7" stroke="transparent" points="127,-10 127,-30 147,-30 147,-10 127,-10"/>
<text text-anchor="start" x="150.7251" y="-15.4" font-family="sans-serif" font-size="14.00" fill="#000000"> &#160;Module</text>
<polygon fill="#80b1d3" stroke="transparent" points="213,-10 213,-30 233,-30 233,-10 213,-10"/>
<text text-anchor="start" x="236.7812" y="-15.4" font-family="sans-serif" font-size="14.00" fill="#000000"> &#160;Bootstrap</text>
<polygon fill="#fdb462" stroke="transparent" points="310,-10 310,-30 330,-30 330,-10 310,-10"/>
<text text-anchor="start" x="333.6732" y="-15.4" font-family="sans-serif" font-size="14.00" fill="#000000"> &#160;Providers</text>
<polygon fill="#fb8072" stroke="transparent" points="406,-10 406,-30 426,-30 426,-10 406,-10"/>
<text text-anchor="start" x="429.7258" y="-15.4" font-family="sans-serif" font-size="14.00" fill="#000000"> &#160;Exports</text>
<g id="clust1" class="cluster">
<title>cluster_PromotionAppliedtoLineitemModule</title>
<polygon fill="none" stroke="#000000" stroke-dasharray="1,5" points="19,-70 19,-268 477,-268 477,-70 19,-70"/>
</g>
<g id="clust2" class="cluster">
<title>cluster_PromotionAppliedtoLineitemModule_declarations</title>
<polygon fill="none" stroke="#000000" points="207,-78 207,-130 469,-130 469,-78 207,-78"/>
</g>
<g id="clust4" class="cluster">
<title>cluster_PromotionAppliedtoLineitemModule_imports</title>
<polygon fill="none" stroke="#000000" points="27,-78 27,-130 199,-130 199,-78 27,-78"/>
</g>
<g id="clust5" class="cluster">
<title>cluster_PromotionAppliedtoLineitemModule_exports</title>
<polygon fill="none" stroke="#000000" points="115,-208 115,-260 381,-260 381,-208 115,-208"/>
</g>
<!-- PromotionAppliedtoLineitemComponent -->
<g id="node1" class="node">
<title>PromotionAppliedtoLineitemComponent</title>
<polygon fill="#ffffb3" stroke="#000000" points="461.4846,-122 214.5154,-122 214.5154,-86 461.4846,-86 461.4846,-122"/>
<text text-anchor="middle" x="338" y="-99.8" font-family="Times,serif" font-size="14.00" fill="#000000">PromotionAppliedtoLineitemComponent</text>
</g>
<!-- PromotionAppliedtoLineitemModule -->
<g id="node2" class="node">
<title>PromotionAppliedtoLineitemModule</title>
<polygon fill="#8dd3c7" stroke="#000000" points="360.7021,-187 357.7021,-191 336.7021,-191 333.7021,-187 135.2979,-187 135.2979,-151 360.7021,-151 360.7021,-187"/>
<text text-anchor="middle" x="248" y="-164.8" font-family="Times,serif" font-size="14.00" fill="#000000">PromotionAppliedtoLineitemModule</text>
</g>
<!-- PromotionAppliedtoLineitemComponent&#45;&gt;PromotionAppliedtoLineitemModule -->
<g id="edge1" class="edge">
<title>PromotionAppliedtoLineitemComponent&#45;&gt;PromotionAppliedtoLineitemModule</title>
<path fill="none" stroke="#000000" d="M287.5544,-122.1061C287.5544,-122.1061 287.5544,-140.991 287.5544,-140.991"/>
<polygon fill="#000000" stroke="#000000" points="284.0544,-140.9909 287.5544,-150.991 291.0544,-140.991 284.0544,-140.9909"/>
</g>
<!-- PromotionAppliedtoLineitemComponent  -->
<g id="node4" class="node">
<title>PromotionAppliedtoLineitemComponent </title>
<polygon fill="#fb8072" stroke="#000000" points="373.4851,-252 122.5149,-252 122.5149,-216 373.4851,-216 373.4851,-252"/>
<text text-anchor="middle" x="248" y="-229.8" font-family="Times,serif" font-size="14.00" fill="#000000">PromotionAppliedtoLineitemComponent </text>
</g>
<!-- PromotionAppliedtoLineitemModule&#45;&gt;PromotionAppliedtoLineitemComponent  -->
<g id="edge3" class="edge">
<title>PromotionAppliedtoLineitemModule&#45;&gt;PromotionAppliedtoLineitemComponent </title>
<path fill="none" stroke="#000000" stroke-dasharray="5,2" d="M248,-187.1061C248,-187.1061 248,-205.991 248,-205.991"/>
<polygon fill="#000000" stroke="#000000" points="244.5001,-205.9909 248,-215.991 251.5001,-205.991 244.5001,-205.9909"/>
</g>
<!-- PromotionModalModule -->
<g id="node3" class="node">
<title>PromotionModalModule</title>
<polygon fill="#8dd3c7" stroke="#000000" points="190.7147,-122 187.7147,-126 166.7147,-126 163.7147,-122 35.2853,-122 35.2853,-86 190.7147,-86 190.7147,-122"/>
<text text-anchor="middle" x="113" y="-99.8" font-family="Times,serif" font-size="14.00" fill="#000000">PromotionModalModule</text>
</g>
<!-- PromotionModalModule&#45;&gt;PromotionAppliedtoLineitemModule -->
<g id="edge2" class="edge">
<title>PromotionModalModule&#45;&gt;PromotionAppliedtoLineitemModule</title>
<path fill="none" stroke="#000000" d="M163.0032,-122.1061C163.0032,-122.1061 163.0032,-140.991 163.0032,-140.991"/>
<polygon fill="#000000" stroke="#000000" points="159.5032,-140.9909 163.0032,-150.991 166.5032,-140.991 159.5032,-140.9909"/>
</g>
</g>
</svg>
