<?xml version="1.0" encoding="UTF-8" standalone="no"?>
<!DOCTYPE svg PUBLIC "-//W3C//DTD SVG 1.1//EN"
 "http://www.w3.org/Graphics/SVG/1.1/DTD/svg11.dtd">
<!-- Generated by graphviz version 2.40.1 (20161225.0304)
 -->
<!-- Title: dependencies Pages: 1 -->
<svg width="1465pt" height="211pt"
 viewBox="0.00 0.00 1465.00 211.00" xmlns="http://www.w3.org/2000/svg" xmlns:xlink="http://www.w3.org/1999/xlink">
<g id="graph0" class="graph" transform="scale(1 1) rotate(0) translate(4 207)">
<title>dependencies</title>
<polygon fill="#ffffff" stroke="transparent" points="-4,4 -4,-207 1461,-207 1461,4 -4,4"/>
<text text-anchor="start" x="707.5091" y="-42.4" font-family="sans-serif" font-weight="bold" font-size="14.00" fill="#000000">Legend</text>
<polygon fill="#ffffb3" stroke="transparent" points="494.5,-10 494.5,-30 514.5,-30 514.5,-10 494.5,-10"/>
<text text-anchor="start" x="518.129" y="-15.4" font-family="sans-serif" font-size="14.00" fill="#000000"> &#160;Declarations</text>
<polygon fill="#8dd3c7" stroke="transparent" points="607.5,-10 607.5,-30 627.5,-30 627.5,-10 607.5,-10"/>
<text text-anchor="start" x="631.2251" y="-15.4" font-family="sans-serif" font-size="14.00" fill="#000000"> &#160;Module</text>
<polygon fill="#80b1d3" stroke="transparent" points="693.5,-10 693.5,-30 713.5,-30 713.5,-10 693.5,-10"/>
<text text-anchor="start" x="717.2812" y="-15.4" font-family="sans-serif" font-size="14.00" fill="#000000"> &#160;Bootstrap</text>
<polygon fill="#fdb462" stroke="transparent" points="790.5,-10 790.5,-30 810.5,-30 810.5,-10 790.5,-10"/>
<text text-anchor="start" x="814.1732" y="-15.4" font-family="sans-serif" font-size="14.00" fill="#000000"> &#160;Providers</text>
<polygon fill="#fb8072" stroke="transparent" points="886.5,-10 886.5,-30 906.5,-30 906.5,-10 886.5,-10"/>
<text text-anchor="start" x="910.2258" y="-15.4" font-family="sans-serif" font-size="14.00" fill="#000000"> &#160;Exports</text>
<g id="clust1" class="cluster">
<title>cluster_MyAccountModule</title>
<polygon fill="none" stroke="#000000" stroke-dasharray="1,5" points="8,-70 8,-195 1449,-195 1449,-70 8,-70"/>
</g>
<g id="clust2" class="cluster">
<title>cluster_MyAccountModule_declarations</title>
<polygon fill="none" stroke="#000000" points="140,-78 140,-130 1441,-130 1441,-78 140,-78"/>
</g>
<g id="clust11" class="cluster">
<title>cluster_MyAccountModule_imports</title>
<polygon fill="none" stroke="#000000" points="16,-78 16,-130 132,-130 132,-78 16,-78"/>
</g>
<!-- AddressBookComponent -->
<g id="node1" class="node">
<title>AddressBookComponent</title>
<polygon fill="#ffffb3" stroke="#000000" points="1432.5407,-122 1275.4593,-122 1275.4593,-86 1432.5407,-86 1432.5407,-122"/>
<text text-anchor="middle" x="1354" y="-99.8" font-family="Times,serif" font-size="14.00" fill="#000000">AddressBookComponent</text>
</g>
<!-- MyAccountModule -->
<g id="node9" class="node">
<title>MyAccountModule</title>
<polygon fill="#8dd3c7" stroke="#000000" points="735.4215,-187 732.4215,-191 711.4215,-191 708.4215,-187 608.5785,-187 608.5785,-151 735.4215,-151 735.4215,-187"/>
<text text-anchor="middle" x="672" y="-164.8" font-family="Times,serif" font-size="14.00" fill="#000000">MyAccountModule</text>
</g>
<!-- AddressBookComponent&#45;&gt;MyAccountModule -->
<g id="edge1" class="edge">
<title>AddressBookComponent&#45;&gt;MyAccountModule</title>
<path fill="none" stroke="#000000" d="M1354,-122.0109C1354,-144.4852 1354,-180 1354,-180 1354,-180 745.2432,-180 745.2432,-180"/>
<polygon fill="#000000" stroke="#000000" points="745.2432,-176.5001 735.2432,-180 745.2431,-183.5001 745.2432,-176.5001"/>
</g>
<!-- CartListComponent -->
<g id="node2" class="node">
<title>CartListComponent</title>
<polygon fill="#ffffb3" stroke="#000000" points="1257.7134,-122 1130.2866,-122 1130.2866,-86 1257.7134,-86 1257.7134,-122"/>
<text text-anchor="middle" x="1194" y="-99.8" font-family="Times,serif" font-size="14.00" fill="#000000">CartListComponent</text>
</g>
<!-- CartListComponent&#45;&gt;MyAccountModule -->
<g id="edge2" class="edge">
<title>CartListComponent&#45;&gt;MyAccountModule</title>
<path fill="none" stroke="#000000" d="M1194,-122.1289C1194,-142.5724 1194,-173 1194,-173 1194,-173 745.2253,-173 745.2253,-173"/>
<polygon fill="#000000" stroke="#000000" points="745.2253,-169.5001 735.2253,-173 745.2252,-176.5001 745.2253,-169.5001"/>
</g>
<!-- DashboardComponent -->
<g id="node3" class="node">
<title>DashboardComponent</title>
<polygon fill="#ffffb3" stroke="#000000" points="1111.9734,-122 970.0266,-122 970.0266,-86 1111.9734,-86 1111.9734,-122"/>
<text text-anchor="middle" x="1041" y="-99.8" font-family="Times,serif" font-size="14.00" fill="#000000">DashboardComponent</text>
</g>
<!-- DashboardComponent&#45;&gt;MyAccountModule -->
<g id="edge3" class="edge">
<title>DashboardComponent&#45;&gt;MyAccountModule</title>
<path fill="none" stroke="#000000" d="M1041,-122.2667C1041,-140.5552 1041,-166 1041,-166 1041,-166 745.4334,-166 745.4334,-166"/>
<polygon fill="#000000" stroke="#000000" points="745.4334,-162.5001 735.4334,-166 745.4333,-169.5001 745.4334,-162.5001"/>
</g>
<!-- MyAccountLayoutComponent -->
<g id="node4" class="node">
<title>MyAccountLayoutComponent</title>
<polygon fill="#ffffb3" stroke="#000000" points="951.8613,-122 764.1387,-122 764.1387,-86 951.8613,-86 951.8613,-122"/>
<text text-anchor="middle" x="858" y="-99.8" font-family="Times,serif" font-size="14.00" fill="#000000">MyAccountLayoutComponent</text>
</g>
<!-- MyAccountLayoutComponent&#45;&gt;MyAccountModule -->
<g id="edge4" class="edge">
<title>MyAccountLayoutComponent&#45;&gt;MyAccountModule</title>
<path fill="none" stroke="#000000" d="M858,-122.0091C858,-138.0494 858,-159 858,-159 858,-159 745.2307,-159 745.2307,-159"/>
<polygon fill="#000000" stroke="#000000" points="745.2307,-155.5001 735.2307,-159 745.2306,-162.5001 745.2307,-155.5001"/>
</g>
<!-- OrderDetailComponent -->
<g id="node5" class="node">
<title>OrderDetailComponent</title>
<polygon fill="#ffffb3" stroke="#000000" points="746.1825,-122 597.8175,-122 597.8175,-86 746.1825,-86 746.1825,-122"/>
<text text-anchor="middle" x="672" y="-99.8" font-family="Times,serif" font-size="14.00" fill="#000000">OrderDetailComponent</text>
</g>
<!-- OrderDetailComponent&#45;&gt;MyAccountModule -->
<g id="edge5" class="edge">
<title>OrderDetailComponent&#45;&gt;MyAccountModule</title>
<path fill="none" stroke="#000000" d="M672,-122.1061C672,-122.1061 672,-140.991 672,-140.991"/>
<polygon fill="#000000" stroke="#000000" points="668.5001,-140.9909 672,-150.991 675.5001,-140.991 668.5001,-140.9909"/>
</g>
<!-- OrderListComponent -->
<g id="node6" class="node">
<title>OrderListComponent</title>
<polygon fill="#ffffb3" stroke="#000000" points="579.7534,-122 444.2466,-122 444.2466,-86 579.7534,-86 579.7534,-122"/>
<text text-anchor="middle" x="512" y="-99.8" font-family="Times,serif" font-size="14.00" fill="#000000">OrderListComponent</text>
</g>
<!-- OrderListComponent&#45;&gt;MyAccountModule -->
<g id="edge6" class="edge">
<title>OrderListComponent&#45;&gt;MyAccountModule</title>
<path fill="none" stroke="#000000" d="M512,-122.0091C512,-138.0494 512,-159 512,-159 512,-159 598.7638,-159 598.7638,-159"/>
<polygon fill="#000000" stroke="#000000" points="598.7638,-162.5001 608.7638,-159 598.7637,-155.5001 598.7638,-162.5001"/>
</g>
<!-- SettingsComponent -->
<g id="node7" class="node">
<title>SettingsComponent</title>
<polygon fill="#ffffb3" stroke="#000000" points="426.4468,-122 299.5532,-122 299.5532,-86 426.4468,-86 426.4468,-122"/>
<text text-anchor="middle" x="363" y="-99.8" font-family="Times,serif" font-size="14.00" fill="#000000">SettingsComponent</text>
</g>
<!-- SettingsComponent&#45;&gt;MyAccountModule -->
<g id="edge7" class="edge">
<title>SettingsComponent&#45;&gt;MyAccountModule</title>
<path fill="none" stroke="#000000" d="M363,-122.2667C363,-140.5552 363,-166 363,-166 363,-166 598.7236,-166 598.7236,-166"/>
<polygon fill="#000000" stroke="#000000" points="598.7236,-169.5001 608.7236,-166 598.7236,-162.5001 598.7236,-169.5001"/>
</g>
<!-- WishlistsComponent -->
<g id="node8" class="node">
<title>WishlistsComponent</title>
<polygon fill="#ffffb3" stroke="#000000" points="281.9439,-122 148.0561,-122 148.0561,-86 281.9439,-86 281.9439,-122"/>
<text text-anchor="middle" x="215" y="-99.8" font-family="Times,serif" font-size="14.00" fill="#000000">WishlistsComponent</text>
</g>
<!-- WishlistsComponent&#45;&gt;MyAccountModule -->
<g id="edge8" class="edge">
<title>WishlistsComponent&#45;&gt;MyAccountModule</title>
<path fill="none" stroke="#000000" d="M215,-122.1289C215,-142.5724 215,-173 215,-173 215,-173 598.4561,-173 598.4561,-173"/>
<polygon fill="#000000" stroke="#000000" points="598.4561,-176.5001 608.4561,-173 598.4561,-169.5001 598.4561,-176.5001"/>
</g>
<!-- PricingModule -->
<g id="node10" class="node">
<title>PricingModule</title>
<polygon fill="#8dd3c7" stroke="#000000" points="123.9888,-122 120.9888,-126 99.9888,-126 96.9888,-122 24.0112,-122 24.0112,-86 123.9888,-86 123.9888,-122"/>
<text text-anchor="middle" x="74" y="-99.8" font-family="Times,serif" font-size="14.00" fill="#000000">PricingModule</text>
</g>
<!-- PricingModule&#45;&gt;MyAccountModule -->
<g id="edge9" class="edge">
<title>PricingModule&#45;&gt;MyAccountModule</title>
<path fill="none" stroke="#000000" d="M74,-122.0109C74,-144.4852 74,-180 74,-180 74,-180 598.5697,-180 598.5697,-180"/>
<polygon fill="#000000" stroke="#000000" points="598.5697,-183.5001 608.5697,-180 598.5696,-176.5001 598.5697,-183.5001"/>
</g>
</g>
</svg>
