<?xml version="1.0" encoding="UTF-8" standalone="no"?>
<!DOCTYPE svg PUBLIC "-//W3C//DTD SVG 1.1//EN"
 "http://www.w3.org/Graphics/SVG/1.1/DTD/svg11.dtd">
<!-- Generated by graphviz version 2.40.1 (20161225.0304)
 -->
<!-- Title: dependencies Pages: 1 -->
<svg width="1341pt" height="211pt"
 viewBox="0.00 0.00 1341.00 211.00" xmlns="http://www.w3.org/2000/svg" xmlns:xlink="http://www.w3.org/1999/xlink">
<g id="graph0" class="graph" transform="scale(1 1) rotate(0) translate(4 207)">
<title>dependencies</title>
<polygon fill="#ffffff" stroke="transparent" points="-4,4 -4,-207 1337,-207 1337,4 -4,4"/>
<text text-anchor="start" x="645.5091" y="-42.4" font-family="sans-serif" font-weight="bold" font-size="14.00" fill="#000000">Legend</text>
<polygon fill="#ffffb3" stroke="transparent" points="432.5,-10 432.5,-30 452.5,-30 452.5,-10 432.5,-10"/>
<text text-anchor="start" x="456.129" y="-15.4" font-family="sans-serif" font-size="14.00" fill="#000000"> &#160;Declarations</text>
<polygon fill="#8dd3c7" stroke="transparent" points="545.5,-10 545.5,-30 565.5,-30 565.5,-10 545.5,-10"/>
<text text-anchor="start" x="569.2251" y="-15.4" font-family="sans-serif" font-size="14.00" fill="#000000"> &#160;Module</text>
<polygon fill="#80b1d3" stroke="transparent" points="631.5,-10 631.5,-30 651.5,-30 651.5,-10 631.5,-10"/>
<text text-anchor="start" x="655.2812" y="-15.4" font-family="sans-serif" font-size="14.00" fill="#000000"> &#160;Bootstrap</text>
<polygon fill="#fdb462" stroke="transparent" points="728.5,-10 728.5,-30 748.5,-30 748.5,-10 728.5,-10"/>
<text text-anchor="start" x="752.1732" y="-15.4" font-family="sans-serif" font-size="14.00" fill="#000000"> &#160;Providers</text>
<polygon fill="#fb8072" stroke="transparent" points="824.5,-10 824.5,-30 844.5,-30 844.5,-10 824.5,-10"/>
<text text-anchor="start" x="848.2258" y="-15.4" font-family="sans-serif" font-size="14.00" fill="#000000"> &#160;Exports</text>
<g id="clust1" class="cluster">
<title>cluster_MyAccountModule</title>
<polygon fill="none" stroke="#000000" stroke-dasharray="1,5" points="8,-70 8,-195 1325,-195 1325,-70 8,-70"/>
</g>
<g id="clust2" class="cluster">
<title>cluster_MyAccountModule_declarations</title>
<polygon fill="none" stroke="#000000" points="16,-78 16,-130 1317,-130 1317,-78 16,-78"/>
</g>
<!-- AddressBookComponent -->
<g id="node1" class="node">
<title>AddressBookComponent</title>
<polygon fill="#ffffb3" stroke="#000000" points="1308.5407,-122 1151.4593,-122 1151.4593,-86 1308.5407,-86 1308.5407,-122"/>
<text text-anchor="middle" x="1230" y="-99.8" font-family="Times,serif" font-size="14.00" fill="#000000">AddressBookComponent</text>
</g>
<!-- MyAccountModule -->
<g id="node9" class="node">
<title>MyAccountModule</title>
<polygon fill="#8dd3c7" stroke="#000000" points="704.4215,-187 701.4215,-191 680.4215,-191 677.4215,-187 577.5785,-187 577.5785,-151 704.4215,-151 704.4215,-187"/>
<text text-anchor="middle" x="641" y="-164.8" font-family="Times,serif" font-size="14.00" fill="#000000">MyAccountModule</text>
</g>
<!-- AddressBookComponent&#45;&gt;MyAccountModule -->
<g id="edge1" class="edge">
<title>AddressBookComponent&#45;&gt;MyAccountModule</title>
<path fill="none" stroke="#000000" d="M1230,-122.2921C1230,-144.2057 1230,-178 1230,-178 1230,-178 714.3129,-178 714.3129,-178"/>
<polygon fill="#000000" stroke="#000000" points="714.3129,-174.5001 704.3129,-178 714.3128,-181.5001 714.3129,-174.5001"/>
</g>
<!-- CartListComponent -->
<g id="node2" class="node">
<title>CartListComponent</title>
<polygon fill="#ffffb3" stroke="#000000" points="1133.7134,-122 1006.2866,-122 1006.2866,-86 1133.7134,-86 1133.7134,-122"/>
<text text-anchor="middle" x="1070" y="-99.8" font-family="Times,serif" font-size="14.00" fill="#000000">CartListComponent</text>
</g>
<!-- CartListComponent&#45;&gt;MyAccountModule -->
<g id="edge2" class="edge">
<title>CartListComponent&#45;&gt;MyAccountModule</title>
<path fill="none" stroke="#000000" d="M1070,-122.1061C1070,-141.3391 1070,-169 1070,-169 1070,-169 714.3004,-169 714.3004,-169"/>
<polygon fill="#000000" stroke="#000000" points="714.3005,-165.5001 704.3004,-169 714.3004,-172.5001 714.3005,-165.5001"/>
</g>
<!-- DashboardComponent -->
<g id="node3" class="node">
<title>DashboardComponent</title>
<polygon fill="#ffffb3" stroke="#000000" points="987.9734,-122 846.0266,-122 846.0266,-86 987.9734,-86 987.9734,-122"/>
<text text-anchor="middle" x="917" y="-99.8" font-family="Times,serif" font-size="14.00" fill="#000000">DashboardComponent</text>
</g>
<!-- DashboardComponent&#45;&gt;MyAccountModule -->
<g id="edge3" class="edge">
<title>DashboardComponent&#45;&gt;MyAccountModule</title>
<path fill="none" stroke="#000000" d="M917,-122.027C917,-138.3976 917,-160 917,-160 917,-160 714.32,-160 714.32,-160"/>
<polygon fill="#000000" stroke="#000000" points="714.32,-156.5001 704.32,-160 714.3199,-163.5001 714.32,-156.5001"/>
</g>
<!-- MyAccountLayoutComponent -->
<g id="node4" class="node">
<title>MyAccountLayoutComponent</title>
<polygon fill="#ffffb3" stroke="#000000" points="827.8613,-122 640.1387,-122 640.1387,-86 827.8613,-86 827.8613,-122"/>
<text text-anchor="middle" x="734" y="-99.8" font-family="Times,serif" font-size="14.00" fill="#000000">MyAccountLayoutComponent</text>
</g>
<!-- MyAccountLayoutComponent&#45;&gt;MyAccountModule -->
<g id="edge4" class="edge">
<title>MyAccountLayoutComponent&#45;&gt;MyAccountModule</title>
<path fill="none" stroke="#000000" d="M672.1399,-122.1061C672.1399,-122.1061 672.1399,-140.991 672.1399,-140.991"/>
<polygon fill="#000000" stroke="#000000" points="668.64,-140.9909 672.1399,-150.991 675.64,-140.991 668.64,-140.9909"/>
</g>
<!-- OrderDetailComponent -->
<g id="node5" class="node">
<title>OrderDetailComponent</title>
<polygon fill="#ffffb3" stroke="#000000" points="622.1825,-122 473.8175,-122 473.8175,-86 622.1825,-86 622.1825,-122"/>
<text text-anchor="middle" x="548" y="-99.8" font-family="Times,serif" font-size="14.00" fill="#000000">OrderDetailComponent</text>
</g>
<!-- OrderDetailComponent&#45;&gt;MyAccountModule -->
<g id="edge5" class="edge">
<title>OrderDetailComponent&#45;&gt;MyAccountModule</title>
<path fill="none" stroke="#000000" d="M599.9404,-122.1061C599.9404,-122.1061 599.9404,-140.991 599.9404,-140.991"/>
<polygon fill="#000000" stroke="#000000" points="596.4405,-140.9909 599.9404,-150.991 603.4405,-140.991 596.4405,-140.9909"/>
</g>
<!-- OrderListComponent -->
<g id="node6" class="node">
<title>OrderListComponent</title>
<polygon fill="#ffffb3" stroke="#000000" points="455.7534,-122 320.2466,-122 320.2466,-86 455.7534,-86 455.7534,-122"/>
<text text-anchor="middle" x="388" y="-99.8" font-family="Times,serif" font-size="14.00" fill="#000000">OrderListComponent</text>
</g>
<!-- OrderListComponent&#45;&gt;MyAccountModule -->
<g id="edge6" class="edge">
<title>OrderListComponent&#45;&gt;MyAccountModule</title>
<path fill="none" stroke="#000000" d="M388,-122.027C388,-138.3976 388,-160 388,-160 388,-160 567.484,-160 567.484,-160"/>
<polygon fill="#000000" stroke="#000000" points="567.484,-163.5001 577.484,-160 567.4839,-156.5001 567.484,-163.5001"/>
</g>
<!-- SettingsComponent -->
<g id="node7" class="node">
<title>SettingsComponent</title>
<polygon fill="#ffffb3" stroke="#000000" points="302.4468,-122 175.5532,-122 175.5532,-86 302.4468,-86 302.4468,-122"/>
<text text-anchor="middle" x="239" y="-99.8" font-family="Times,serif" font-size="14.00" fill="#000000">SettingsComponent</text>
</g>
<!-- SettingsComponent&#45;&gt;MyAccountModule -->
<g id="edge7" class="edge">
<title>SettingsComponent&#45;&gt;MyAccountModule</title>
<path fill="none" stroke="#000000" d="M239,-122.1061C239,-141.3391 239,-169 239,-169 239,-169 567.7453,-169 567.7453,-169"/>
<polygon fill="#000000" stroke="#000000" points="567.7453,-172.5001 577.7453,-169 567.7452,-165.5001 567.7453,-172.5001"/>
</g>
<!-- WishlistsComponent -->
<g id="node8" class="node">
<title>WishlistsComponent</title>
<polygon fill="#ffffb3" stroke="#000000" points="157.9439,-122 24.0561,-122 24.0561,-86 157.9439,-86 157.9439,-122"/>
<text text-anchor="middle" x="91" y="-99.8" font-family="Times,serif" font-size="14.00" fill="#000000">WishlistsComponent</text>
</g>
<!-- WishlistsComponent&#45;&gt;MyAccountModule -->
<g id="edge8" class="edge">
<title>WishlistsComponent&#45;&gt;MyAccountModule</title>
<path fill="none" stroke="#000000" d="M91,-122.2921C91,-144.2057 91,-178 91,-178 91,-178 567.6396,-178 567.6396,-178"/>
<polygon fill="#000000" stroke="#000000" points="567.6396,-181.5001 577.6396,-178 567.6396,-174.5001 567.6396,-181.5001"/>
</g>
</g>
</svg>
