<?xml version="1.0" encoding="UTF-8" standalone="no"?>
<!DOCTYPE svg PUBLIC "-//W3C//DTD SVG 1.1//EN"
 "http://www.w3.org/Graphics/SVG/1.1/DTD/svg11.dtd">
<!-- Generated by graphviz version 2.40.1 (20161225.0304)
 -->
<!-- Title: dependencies Pages: 1 -->
<svg width="2531pt" height="211pt"
 viewBox="0.00 0.00 2531.00 211.00" xmlns="http://www.w3.org/2000/svg" xmlns:xlink="http://www.w3.org/1999/xlink">
<g id="graph0" class="graph" transform="scale(1 1) rotate(0) translate(4 207)">
<title>dependencies</title>
<polygon fill="#ffffff" stroke="transparent" points="-4,4 -4,-207 2527,-207 2527,4 -4,4"/>
<text text-anchor="start" x="1240.5091" y="-42.4" font-family="sans-serif" font-weight="bold" font-size="14.00" fill="#000000">Legend</text>
<polygon fill="#ffffb3" stroke="transparent" points="1027.5,-10 1027.5,-30 1047.5,-30 1047.5,-10 1027.5,-10"/>
<text text-anchor="start" x="1051.129" y="-15.4" font-family="sans-serif" font-size="14.00" fill="#000000"> &#160;Declarations</text>
<polygon fill="#8dd3c7" stroke="transparent" points="1140.5,-10 1140.5,-30 1160.5,-30 1160.5,-10 1140.5,-10"/>
<text text-anchor="start" x="1164.2251" y="-15.4" font-family="sans-serif" font-size="14.00" fill="#000000"> &#160;Module</text>
<polygon fill="#80b1d3" stroke="transparent" points="1226.5,-10 1226.5,-30 1246.5,-30 1246.5,-10 1226.5,-10"/>
<text text-anchor="start" x="1250.2812" y="-15.4" font-family="sans-serif" font-size="14.00" fill="#000000"> &#160;Bootstrap</text>
<polygon fill="#fdb462" stroke="transparent" points="1323.5,-10 1323.5,-30 1343.5,-30 1343.5,-10 1323.5,-10"/>
<text text-anchor="start" x="1347.1732" y="-15.4" font-family="sans-serif" font-size="14.00" fill="#000000"> &#160;Providers</text>
<polygon fill="#fb8072" stroke="transparent" points="1419.5,-10 1419.5,-30 1439.5,-30 1439.5,-10 1419.5,-10"/>
<text text-anchor="start" x="1443.2258" y="-15.4" font-family="sans-serif" font-size="14.00" fill="#000000"> &#160;Exports</text>
<g id="clust1" class="cluster">
<title>cluster_MyAccountModule</title>
<polygon fill="none" stroke="#000000" stroke-dasharray="1,5" points="8,-70 8,-195 2515,-195 2515,-70 8,-70"/>
</g>
<g id="clust2" class="cluster">
<title>cluster_MyAccountModule_declarations</title>
<polygon fill="none" stroke="#000000" points="552,-78 552,-130 2507,-130 2507,-78 552,-78"/>
</g>
<g id="clust15" class="cluster">
<title>cluster_MyAccountModule_imports</title>
<polygon fill="none" stroke="#000000" points="16,-78 16,-130 544,-130 544,-78 16,-78"/>
</g>
<!-- AddressBookComponent -->
<g id="node1" class="node">
<title>AddressBookComponent</title>
<polygon fill="#ffffb3" stroke="#000000" points="2498.5407,-122 2341.4593,-122 2341.4593,-86 2498.5407,-86 2498.5407,-122"/>
<text text-anchor="middle" x="2420" y="-99.8" font-family="Times,serif" font-size="14.00" fill="#000000">AddressBookComponent</text>
</g>
<!-- MyAccountModule -->
<g id="node13" class="node">
<title>MyAccountModule</title>
<polygon fill="#8dd3c7" stroke="#000000" points="1213.4215,-187 1210.4215,-191 1189.4215,-191 1186.4215,-187 1086.5785,-187 1086.5785,-151 1213.4215,-151 1213.4215,-187"/>
<text text-anchor="middle" x="1150" y="-164.8" font-family="Times,serif" font-size="14.00" fill="#000000">MyAccountModule</text>
</g>
<!-- AddressBookComponent&#45;&gt;MyAccountModule -->
<g id="edge1" class="edge">
<title>AddressBookComponent&#45;&gt;MyAccountModule</title>
<path fill="none" stroke="#000000" d="M2420,-122.3228C2420,-145.6602 2420,-183 2420,-183 2420,-183 1223.414,-183 1223.414,-183"/>
<polygon fill="#000000" stroke="#000000" points="1223.414,-179.5001 1213.414,-183 1223.414,-186.5001 1223.414,-179.5001"/>
</g>
<!-- CartListComponent -->
<g id="node2" class="node">
<title>CartListComponent</title>
<polygon fill="#ffffb3" stroke="#000000" points="2323.7134,-122 2196.2866,-122 2196.2866,-86 2323.7134,-86 2323.7134,-122"/>
<text text-anchor="middle" x="2260" y="-99.8" font-family="Times,serif" font-size="14.00" fill="#000000">CartListComponent</text>
</g>
<!-- CartListComponent&#45;&gt;MyAccountModule -->
<g id="edge2" class="edge">
<title>CartListComponent&#45;&gt;MyAccountModule</title>
<path fill="none" stroke="#000000" d="M2260,-122.2921C2260,-144.2057 2260,-178 2260,-178 2260,-178 1223.2614,-178 1223.2614,-178"/>
<polygon fill="#000000" stroke="#000000" points="1223.2615,-174.5001 1213.2614,-178 1223.2614,-181.5001 1223.2615,-174.5001"/>
</g>
<!-- DashboardComponent -->
<g id="node3" class="node">
<title>DashboardComponent</title>
<polygon fill="#ffffb3" stroke="#000000" points="2177.9734,-122 2036.0266,-122 2036.0266,-86 2177.9734,-86 2177.9734,-122"/>
<text text-anchor="middle" x="2107" y="-99.8" font-family="Times,serif" font-size="14.00" fill="#000000">DashboardComponent</text>
</g>
<!-- DashboardComponent&#45;&gt;MyAccountModule -->
<g id="edge3" class="edge">
<title>DashboardComponent&#45;&gt;MyAccountModule</title>
<path fill="none" stroke="#000000" d="M2107,-122.0267C2107,-142.7672 2107,-174 2107,-174 2107,-174 1223.5326,-174 1223.5326,-174"/>
<polygon fill="#000000" stroke="#000000" points="1223.5326,-170.5001 1213.5326,-174 1223.5325,-177.5001 1223.5326,-170.5001"/>
</g>
<!-- MyAccountLayoutComponent -->
<g id="node4" class="node">
<title>MyAccountLayoutComponent</title>
<polygon fill="#ffffb3" stroke="#000000" points="2017.8613,-122 1830.1387,-122 1830.1387,-86 2017.8613,-86 2017.8613,-122"/>
<text text-anchor="middle" x="1924" y="-99.8" font-family="Times,serif" font-size="14.00" fill="#000000">MyAccountLayoutComponent</text>
</g>
<!-- MyAccountLayoutComponent&#45;&gt;MyAccountModule -->
<g id="edge4" class="edge">
<title>MyAccountLayoutComponent&#45;&gt;MyAccountModule</title>
<path fill="none" stroke="#000000" d="M1924,-122.1061C1924,-141.3391 1924,-169 1924,-169 1924,-169 1223.3397,-169 1223.3397,-169"/>
<polygon fill="#000000" stroke="#000000" points="1223.3397,-165.5001 1213.3397,-169 1223.3396,-172.5001 1223.3397,-165.5001"/>
</g>
<!-- OrderDetailComponent -->
<g id="node5" class="node">
<title>OrderDetailComponent</title>
<polygon fill="#ffffb3" stroke="#000000" points="1812.1825,-122 1663.8175,-122 1663.8175,-86 1812.1825,-86 1812.1825,-122"/>
<text text-anchor="middle" x="1738" y="-99.8" font-family="Times,serif" font-size="14.00" fill="#000000">OrderDetailComponent</text>
</g>
<!-- OrderDetailComponent&#45;&gt;MyAccountModule -->
<g id="edge5" class="edge">
<title>OrderDetailComponent&#45;&gt;MyAccountModule</title>
<path fill="none" stroke="#000000" d="M1738,-122.302C1738,-140.2699 1738,-165 1738,-165 1738,-165 1223.485,-165 1223.485,-165"/>
<polygon fill="#000000" stroke="#000000" points="1223.485,-161.5001 1213.485,-165 1223.4849,-168.5001 1223.485,-161.5001"/>
</g>
<!-- OrderListComponent -->
<g id="node6" class="node">
<title>OrderListComponent</title>
<polygon fill="#ffffb3" stroke="#000000" points="1645.7534,-122 1510.2466,-122 1510.2466,-86 1645.7534,-86 1645.7534,-122"/>
<text text-anchor="middle" x="1578" y="-99.8" font-family="Times,serif" font-size="14.00" fill="#000000">OrderListComponent</text>
</g>
<!-- OrderListComponent&#45;&gt;MyAccountModule -->
<g id="edge6" class="edge">
<title>OrderListComponent&#45;&gt;MyAccountModule</title>
<path fill="none" stroke="#000000" d="M1578,-122.027C1578,-138.3976 1578,-160 1578,-160 1578,-160 1223.6138,-160 1223.6138,-160"/>
<polygon fill="#000000" stroke="#000000" points="1223.6138,-156.5001 1213.6138,-160 1223.6137,-163.5001 1223.6138,-156.5001"/>
</g>
<!-- ProductCatalogComponent -->
<g id="node7" class="node">
<title>ProductCatalogComponent</title>
<polygon fill="#ffffb3" stroke="#000000" points="1492.4283,-122 1323.5717,-122 1323.5717,-86 1492.4283,-86 1492.4283,-122"/>
<text text-anchor="middle" x="1408" y="-99.8" font-family="Times,serif" font-size="14.00" fill="#000000">ProductCatalogComponent</text>
</g>
<!-- ProductCatalogComponent&#45;&gt;MyAccountModule -->
<g id="edge7" class="edge">
<title>ProductCatalogComponent&#45;&gt;MyAccountModule</title>
<path fill="none" stroke="#000000" d="M1408,-122.1871C1408,-137.1824 1408,-156 1408,-156 1408,-156 1223.4443,-156 1223.4443,-156"/>
<polygon fill="#000000" stroke="#000000" points="1223.4444,-152.5001 1213.4443,-156 1223.4443,-159.5001 1223.4444,-152.5001"/>
</g>
<!-- QuoteDetailComponent -->
<g id="node8" class="node">
<title>QuoteDetailComponent</title>
<polygon fill="#ffffb3" stroke="#000000" points="1305.752,-122 1156.248,-122 1156.248,-86 1305.752,-86 1305.752,-122"/>
<text text-anchor="middle" x="1231" y="-99.8" font-family="Times,serif" font-size="14.00" fill="#000000">QuoteDetailComponent</text>
</g>
<!-- QuoteDetailComponent&#45;&gt;MyAccountModule -->
<g id="edge8" class="edge">
<title>QuoteDetailComponent&#45;&gt;MyAccountModule</title>
<path fill="none" stroke="#000000" d="M1184.6673,-122.1061C1184.6673,-122.1061 1184.6673,-140.991 1184.6673,-140.991"/>
<polygon fill="#000000" stroke="#000000" points="1181.1673,-140.9909 1184.6673,-150.991 1188.1673,-140.991 1181.1673,-140.9909"/>
</g>
<!-- QuoteListComponent -->
<g id="node9" class="node">
<title>QuoteListComponent</title>
<polygon fill="#ffffb3" stroke="#000000" points="1137.823,-122 1000.177,-122 1000.177,-86 1137.823,-86 1137.823,-122"/>
<text text-anchor="middle" x="1069" y="-99.8" font-family="Times,serif" font-size="14.00" fill="#000000">QuoteListComponent</text>
</g>
<!-- QuoteListComponent&#45;&gt;MyAccountModule -->
<g id="edge9" class="edge">
<title>QuoteListComponent&#45;&gt;MyAccountModule</title>
<path fill="none" stroke="#000000" d="M1112.2255,-122.1061C1112.2255,-122.1061 1112.2255,-140.991 1112.2255,-140.991"/>
<polygon fill="#000000" stroke="#000000" points="1108.7255,-140.9909 1112.2255,-150.991 1115.7255,-140.991 1108.7255,-140.9909"/>
</g>
<!-- ReorderComponent -->
<g id="node10" class="node">
<title>ReorderComponent</title>
<polygon fill="#ffffb3" stroke="#000000" points="982.4201,-122 855.5799,-122 855.5799,-86 982.4201,-86 982.4201,-122"/>
<text text-anchor="middle" x="919" y="-99.8" font-family="Times,serif" font-size="14.00" fill="#000000">ReorderComponent</text>
</g>
<!-- ReorderComponent&#45;&gt;MyAccountModule -->
<g id="edge10" class="edge">
<title>ReorderComponent&#45;&gt;MyAccountModule</title>
<path fill="none" stroke="#000000" d="M919,-122.1871C919,-137.1824 919,-156 919,-156 919,-156 1076.5727,-156 1076.5727,-156"/>
<polygon fill="#000000" stroke="#000000" points="1076.5727,-159.5001 1086.5727,-156 1076.5727,-152.5001 1076.5727,-159.5001"/>
</g>
<!-- SettingsComponent -->
<g id="node11" class="node">
<title>SettingsComponent</title>
<polygon fill="#ffffb3" stroke="#000000" points="838.4468,-122 711.5532,-122 711.5532,-86 838.4468,-86 838.4468,-122"/>
<text text-anchor="middle" x="775" y="-99.8" font-family="Times,serif" font-size="14.00" fill="#000000">SettingsComponent</text>
</g>
<!-- SettingsComponent&#45;&gt;MyAccountModule -->
<g id="edge11" class="edge">
<title>SettingsComponent&#45;&gt;MyAccountModule</title>
<path fill="none" stroke="#000000" d="M775,-122.027C775,-138.3976 775,-160 775,-160 775,-160 1076.3864,-160 1076.3864,-160"/>
<polygon fill="#000000" stroke="#000000" points="1076.3864,-163.5001 1086.3864,-160 1076.3863,-156.5001 1076.3864,-163.5001"/>
</g>
<!-- WishlistsComponent -->
<g id="node12" class="node">
<title>WishlistsComponent</title>
<polygon fill="#ffffb3" stroke="#000000" points="693.9439,-122 560.0561,-122 560.0561,-86 693.9439,-86 693.9439,-122"/>
<text text-anchor="middle" x="627" y="-99.8" font-family="Times,serif" font-size="14.00" fill="#000000">WishlistsComponent</text>
</g>
<!-- WishlistsComponent&#45;&gt;MyAccountModule -->
<g id="edge12" class="edge">
<title>WishlistsComponent&#45;&gt;MyAccountModule</title>
<path fill="none" stroke="#000000" d="M627,-122.302C627,-140.2699 627,-165 627,-165 627,-165 1076.6536,-165 1076.6536,-165"/>
<polygon fill="#000000" stroke="#000000" points="1076.6536,-168.5001 1086.6536,-165 1076.6536,-161.5001 1076.6536,-168.5001"/>
</g>
<!-- ApttusModule -->
<g id="node14" class="node">
<title>ApttusModule</title>
<polygon fill="#8dd3c7" stroke="#000000" points="536.3823,-122 533.3823,-126 512.3823,-126 509.3823,-122 439.6177,-122 439.6177,-86 536.3823,-86 536.3823,-122"/>
<text text-anchor="middle" x="488" y="-99.8" font-family="Times,serif" font-size="14.00" fill="#000000">ApttusModule</text>
</g>
<!-- ApttusModule&#45;&gt;MyAccountModule -->
<g id="edge13" class="edge">
<title>ApttusModule&#45;&gt;MyAccountModule</title>
<path fill="none" stroke="#000000" d="M488,-122.1061C488,-141.3391 488,-169 488,-169 488,-169 1076.5247,-169 1076.5247,-169"/>
<polygon fill="#000000" stroke="#000000" points="1076.5247,-172.5001 1086.5247,-169 1076.5246,-165.5001 1076.5247,-172.5001"/>
</g>
<!-- MyAccountRoutingModule -->
<g id="node15" class="node">
<title>MyAccountRoutingModule</title>
<polygon fill="#8dd3c7" stroke="#000000" points="421.5392,-122 418.5392,-126 397.5392,-126 394.5392,-122 250.4608,-122 250.4608,-86 421.5392,-86 421.5392,-122"/>
<text text-anchor="middle" x="336" y="-99.8" font-family="Times,serif" font-size="14.00" fill="#000000">MyAccountRoutingModule</text>
</g>
<!-- MyAccountRoutingModule&#45;&gt;MyAccountModule -->
<g id="edge14" class="edge">
<title>MyAccountRoutingModule&#45;&gt;MyAccountModule</title>
<path fill="none" stroke="#000000" d="M336,-122.0267C336,-142.7672 336,-174 336,-174 336,-174 1076.4658,-174 1076.4658,-174"/>
<polygon fill="#000000" stroke="#000000" points="1076.4659,-177.5001 1086.4658,-174 1076.4658,-170.5001 1076.4659,-177.5001"/>
</g>
<!-- PricingModule -->
<g id="node16" class="node">
<title>PricingModule</title>
<polygon fill="#8dd3c7" stroke="#000000" points="231.9888,-122 228.9888,-126 207.9888,-126 204.9888,-122 132.0112,-122 132.0112,-86 231.9888,-86 231.9888,-122"/>
<text text-anchor="middle" x="182" y="-99.8" font-family="Times,serif" font-size="14.00" fill="#000000">PricingModule</text>
</g>
<!-- PricingModule&#45;&gt;MyAccountModule -->
<g id="edge15" class="edge">
<title>PricingModule&#45;&gt;MyAccountModule</title>
<path fill="none" stroke="#000000" d="M182,-122.2921C182,-144.2057 182,-178 182,-178 182,-178 1076.4868,-178 1076.4868,-178"/>
<polygon fill="#000000" stroke="#000000" points="1076.4869,-181.5001 1086.4868,-178 1076.4868,-174.5001 1076.4869,-181.5001"/>
</g>
<!-- StoreModule -->
<g id="node17" class="node">
<title>StoreModule</title>
<polygon fill="#8dd3c7" stroke="#000000" points="113.5983,-122 110.5983,-126 89.5983,-126 86.5983,-122 24.4017,-122 24.4017,-86 113.5983,-86 113.5983,-122"/>
<text text-anchor="middle" x="69" y="-99.8" font-family="Times,serif" font-size="14.00" fill="#000000">StoreModule</text>
</g>
<!-- StoreModule&#45;&gt;MyAccountModule -->
<g id="edge16" class="edge">
<title>StoreModule&#45;&gt;MyAccountModule</title>
<path fill="none" stroke="#000000" d="M69,-122.3228C69,-145.6602 69,-183 69,-183 69,-183 1076.4143,-183 1076.4143,-183"/>
<polygon fill="#000000" stroke="#000000" points="1076.4143,-186.5001 1086.4143,-183 1076.4143,-179.5001 1076.4143,-186.5001"/>
</g>
</g>
</svg>
