<?xml version="1.0" encoding="UTF-8" standalone="no"?>
<!DOCTYPE svg PUBLIC "-//W3C//DTD SVG 1.1//EN"
 "http://www.w3.org/Graphics/SVG/1.1/DTD/svg11.dtd">
<!-- Generated by graphviz version 2.40.1 (20161225.0304)
 -->
<!-- Title: dependencies Pages: 1 -->
<svg width="808pt" height="284pt"
 viewBox="0.00 0.00 808.00 284.00" xmlns="http://www.w3.org/2000/svg" xmlns:xlink="http://www.w3.org/1999/xlink">
<g id="graph0" class="graph" transform="scale(1 1) rotate(0) translate(4 280)">
<title>dependencies</title>
<polygon fill="#ffffff" stroke="transparent" points="-4,4 -4,-280 804,-280 804,4 -4,4"/>
<text text-anchor="start" x="379.0091" y="-42.4" font-family="sans-serif" font-weight="bold" font-size="14.00" fill="#000000">Legend</text>
<polygon fill="#ffffb3" stroke="transparent" points="166,-10 166,-30 186,-30 186,-10 166,-10"/>
<text text-anchor="start" x="189.629" y="-15.4" font-family="sans-serif" font-size="14.00" fill="#000000"> &#160;Declarations</text>
<polygon fill="#8dd3c7" stroke="transparent" points="279,-10 279,-30 299,-30 299,-10 279,-10"/>
<text text-anchor="start" x="302.7251" y="-15.4" font-family="sans-serif" font-size="14.00" fill="#000000"> &#160;Module</text>
<polygon fill="#80b1d3" stroke="transparent" points="365,-10 365,-30 385,-30 385,-10 365,-10"/>
<text text-anchor="start" x="388.7812" y="-15.4" font-family="sans-serif" font-size="14.00" fill="#000000"> &#160;Bootstrap</text>
<polygon fill="#fdb462" stroke="transparent" points="462,-10 462,-30 482,-30 482,-10 462,-10"/>
<text text-anchor="start" x="485.6732" y="-15.4" font-family="sans-serif" font-size="14.00" fill="#000000"> &#160;Providers</text>
<polygon fill="#fb8072" stroke="transparent" points="558,-10 558,-30 578,-30 578,-10 558,-10"/>
<text text-anchor="start" x="581.7258" y="-15.4" font-family="sans-serif" font-size="14.00" fill="#000000"> &#160;Exports</text>
<g id="clust1" class="cluster">
<title>cluster_ProductConfigurationSummaryModule</title>
<polygon fill="none" stroke="#000000" stroke-dasharray="1,5" points="8,-70 8,-268 792,-268 792,-70 8,-70"/>
</g>
<g id="clust2" class="cluster">
<title>cluster_ProductConfigurationSummaryModule_declarations</title>
<polygon fill="none" stroke="#000000" points="510,-78 510,-130 784,-130 784,-78 510,-78"/>
</g>
<g id="clust4" class="cluster">
<title>cluster_ProductConfigurationSummaryModule_imports</title>
<polygon fill="none" stroke="#000000" points="16,-78 16,-130 502,-130 502,-78 16,-78"/>
</g>
<g id="clust5" class="cluster">
<title>cluster_ProductConfigurationSummaryModule_exports</title>
<polygon fill="none" stroke="#000000" points="170,-208 170,-260 448,-260 448,-208 170,-208"/>
</g>
<!-- ProductConfigurationSummaryComponent -->
<g id="node1" class="node">
<title>ProductConfigurationSummaryComponent</title>
<polygon fill="#ffffb3" stroke="#000000" points="775.864,-122 518.136,-122 518.136,-86 775.864,-86 775.864,-122"/>
<text text-anchor="middle" x="647" y="-99.8" font-family="Times,serif" font-size="14.00" fill="#000000">ProductConfigurationSummaryComponent</text>
</g>
<!-- ProductConfigurationSummaryModule -->
<g id="node2" class="node">
<title>ProductConfigurationSummaryModule</title>
<polygon fill="#8dd3c7" stroke="#000000" points="427.0814,-187 424.0814,-191 403.0814,-191 400.0814,-187 190.9186,-187 190.9186,-151 427.0814,-151 427.0814,-187"/>
<text text-anchor="middle" x="309" y="-164.8" font-family="Times,serif" font-size="14.00" fill="#000000">ProductConfigurationSummaryModule</text>
</g>
<!-- ProductConfigurationSummaryComponent&#45;&gt;ProductConfigurationSummaryModule -->
<g id="edge1" class="edge">
<title>ProductConfigurationSummaryComponent&#45;&gt;ProductConfigurationSummaryModule</title>
<path fill="none" stroke="#000000" d="M647,-122.1061C647,-141.3391 647,-169 647,-169 647,-169 437.216,-169 437.216,-169"/>
<polygon fill="#000000" stroke="#000000" points="437.216,-165.5001 427.216,-169 437.216,-172.5001 437.216,-165.5001"/>
</g>
<!-- ProductConfigurationSummaryComponent  -->
<g id="node7" class="node">
<title>ProductConfigurationSummaryComponent </title>
<polygon fill="#fb8072" stroke="#000000" points="439.8643,-252 178.1357,-252 178.1357,-216 439.8643,-216 439.8643,-252"/>
<text text-anchor="middle" x="309" y="-229.8" font-family="Times,serif" font-size="14.00" fill="#000000">ProductConfigurationSummaryComponent </text>
</g>
<!-- ProductConfigurationSummaryModule&#45;&gt;ProductConfigurationSummaryComponent  -->
<g id="edge6" class="edge">
<title>ProductConfigurationSummaryModule&#45;&gt;ProductConfigurationSummaryComponent </title>
<path fill="none" stroke="#000000" stroke-dasharray="5,2" d="M309,-187.1061C309,-187.1061 309,-205.991 309,-205.991"/>
<polygon fill="#000000" stroke="#000000" points="305.5001,-205.9909 309,-215.991 312.5001,-205.991 305.5001,-205.9909"/>
</g>
<!-- MdDotsModule -->
<g id="node3" class="node">
<title>MdDotsModule</title>
<polygon fill="#8dd3c7" stroke="#000000" points="493.9371,-122 490.9371,-126 469.9371,-126 466.9371,-122 388.0629,-122 388.0629,-86 493.9371,-86 493.9371,-122"/>
<text text-anchor="middle" x="441" y="-99.8" font-family="Times,serif" font-size="14.00" fill="#000000">MdDotsModule</text>
</g>
<!-- MdDotsModule&#45;&gt;ProductConfigurationSummaryModule -->
<g id="edge2" class="edge">
<title>MdDotsModule&#45;&gt;ProductConfigurationSummaryModule</title>
<path fill="none" stroke="#000000" d="M407.6613,-122.1061C407.6613,-122.1061 407.6613,-140.991 407.6613,-140.991"/>
<polygon fill="#000000" stroke="#000000" points="404.1614,-140.9909 407.6613,-150.991 411.1614,-140.991 404.1614,-140.9909"/>
</g>
<!-- MdSpinnerModule -->
<g id="node4" class="node">
<title>MdSpinnerModule</title>
<polygon fill="#8dd3c7" stroke="#000000" points="370.0436,-122 367.0436,-126 346.0436,-126 343.0436,-122 247.9564,-122 247.9564,-86 370.0436,-86 370.0436,-122"/>
<text text-anchor="middle" x="309" y="-99.8" font-family="Times,serif" font-size="14.00" fill="#000000">MdSpinnerModule</text>
</g>
<!-- MdSpinnerModule&#45;&gt;ProductConfigurationSummaryModule -->
<g id="edge3" class="edge">
<title>MdSpinnerModule&#45;&gt;ProductConfigurationSummaryModule</title>
<path fill="none" stroke="#000000" d="M309,-122.1061C309,-122.1061 309,-140.991 309,-140.991"/>
<polygon fill="#000000" stroke="#000000" points="305.5001,-140.9909 309,-150.991 312.5001,-140.991 305.5001,-140.9909"/>
</g>
<!-- PriceModule -->
<g id="node5" class="node">
<title>PriceModule</title>
<polygon fill="#8dd3c7" stroke="#000000" points="230.3134,-122 227.3134,-126 206.3134,-126 203.3134,-122 141.6866,-122 141.6866,-86 230.3134,-86 230.3134,-122"/>
<text text-anchor="middle" x="186" y="-99.8" font-family="Times,serif" font-size="14.00" fill="#000000">PriceModule</text>
</g>
<!-- PriceModule&#45;&gt;ProductConfigurationSummaryModule -->
<g id="edge4" class="edge">
<title>PriceModule&#45;&gt;ProductConfigurationSummaryModule</title>
<path fill="none" stroke="#000000" d="M210.5579,-122.1061C210.5579,-122.1061 210.5579,-140.991 210.5579,-140.991"/>
<polygon fill="#000000" stroke="#000000" points="207.0579,-140.9909 210.5579,-150.991 214.0579,-140.991 207.0579,-140.9909"/>
</g>
<!-- PricingModule -->
<g id="node6" class="node">
<title>PricingModule</title>
<polygon fill="#8dd3c7" stroke="#000000" points="123.9888,-122 120.9888,-126 99.9888,-126 96.9888,-122 24.0112,-122 24.0112,-86 123.9888,-86 123.9888,-122"/>
<text text-anchor="middle" x="74" y="-99.8" font-family="Times,serif" font-size="14.00" fill="#000000">PricingModule</text>
</g>
<!-- PricingModule&#45;&gt;ProductConfigurationSummaryModule -->
<g id="edge5" class="edge">
<title>PricingModule&#45;&gt;ProductConfigurationSummaryModule</title>
<path fill="none" stroke="#000000" d="M74,-122.1061C74,-141.3391 74,-169 74,-169 74,-169 180.8115,-169 180.8115,-169"/>
<polygon fill="#000000" stroke="#000000" points="180.8116,-172.5001 190.8115,-169 180.8115,-165.5001 180.8116,-172.5001"/>
</g>
</g>
</svg>
