<?xml version="1.0" encoding="UTF-8" standalone="no"?>
<!DOCTYPE svg PUBLIC "-//W3C//DTD SVG 1.1//EN"
 "http://www.w3.org/Graphics/SVG/1.1/DTD/svg11.dtd">
<!-- Generated by graphviz version 2.40.1 (20161225.0304)
 -->
<!-- Title: dependencies Pages: 1 -->
<svg width="674pt" height="284pt"
 viewBox="0.00 0.00 674.00 284.00" xmlns="http://www.w3.org/2000/svg" xmlns:xlink="http://www.w3.org/1999/xlink">
<g id="graph0" class="graph" transform="scale(1 1) rotate(0) translate(4 280)">
<title>dependencies</title>
<polygon fill="#ffffff" stroke="transparent" points="-4,4 -4,-280 670,-280 670,4 -4,4"/>
<text text-anchor="start" x="312.0091" y="-42.4" font-family="sans-serif" font-weight="bold" font-size="14.00" fill="#000000">Legend</text>
<polygon fill="#ffffb3" stroke="transparent" points="99,-10 99,-30 119,-30 119,-10 99,-10"/>
<text text-anchor="start" x="122.629" y="-15.4" font-family="sans-serif" font-size="14.00" fill="#000000"> &#160;Declarations</text>
<polygon fill="#8dd3c7" stroke="transparent" points="212,-10 212,-30 232,-30 232,-10 212,-10"/>
<text text-anchor="start" x="235.7251" y="-15.4" font-family="sans-serif" font-size="14.00" fill="#000000"> &#160;Module</text>
<polygon fill="#80b1d3" stroke="transparent" points="298,-10 298,-30 318,-30 318,-10 298,-10"/>
<text text-anchor="start" x="321.7812" y="-15.4" font-family="sans-serif" font-size="14.00" fill="#000000"> &#160;Bootstrap</text>
<polygon fill="#fdb462" stroke="transparent" points="395,-10 395,-30 415,-30 415,-10 395,-10"/>
<text text-anchor="start" x="418.6732" y="-15.4" font-family="sans-serif" font-size="14.00" fill="#000000"> &#160;Providers</text>
<polygon fill="#fb8072" stroke="transparent" points="491,-10 491,-30 511,-30 511,-10 491,-10"/>
<text text-anchor="start" x="514.7258" y="-15.4" font-family="sans-serif" font-size="14.00" fill="#000000"> &#160;Exports</text>
<g id="clust1" class="cluster">
<title>cluster_ProductConfigurationSummaryModule</title>
<polygon fill="none" stroke="#000000" stroke-dasharray="1,5" points="8,-70 8,-268 658,-268 658,-70 8,-70"/>
</g>
<g id="clust2" class="cluster">
<title>cluster_ProductConfigurationSummaryModule_declarations</title>
<polygon fill="none" stroke="#000000" points="376,-78 376,-130 650,-130 650,-78 376,-78"/>
</g>
<g id="clust4" class="cluster">
<title>cluster_ProductConfigurationSummaryModule_imports</title>
<polygon fill="none" stroke="#000000" points="16,-78 16,-130 368,-130 368,-78 16,-78"/>
</g>
<g id="clust5" class="cluster">
<title>cluster_ProductConfigurationSummaryModule_exports</title>
<polygon fill="none" stroke="#000000" points="117,-208 117,-260 395,-260 395,-208 117,-208"/>
</g>
<!-- ProductConfigurationSummaryComponent -->
<g id="node1" class="node">
<title>ProductConfigurationSummaryComponent</title>
<polygon fill="#ffffb3" stroke="#000000" points="641.864,-122 384.136,-122 384.136,-86 641.864,-86 641.864,-122"/>
<text text-anchor="middle" x="513" y="-99.8" font-family="Times,serif" font-size="14.00" fill="#000000">ProductConfigurationSummaryComponent</text>
</g>
<!-- ProductConfigurationSummaryModule -->
<g id="node2" class="node">
<title>ProductConfigurationSummaryModule</title>
<polygon fill="#8dd3c7" stroke="#000000" points="374.0814,-187 371.0814,-191 350.0814,-191 347.0814,-187 137.9186,-187 137.9186,-151 374.0814,-151 374.0814,-187"/>
<text text-anchor="middle" x="256" y="-164.8" font-family="Times,serif" font-size="14.00" fill="#000000">ProductConfigurationSummaryModule</text>
</g>
<!-- ProductConfigurationSummaryComponent&#45;&gt;ProductConfigurationSummaryModule -->
<g id="edge1" class="edge">
<title>ProductConfigurationSummaryComponent&#45;&gt;ProductConfigurationSummaryModule</title>
<path fill="none" stroke="#000000" d="M383.8601,-104C373.6172,-104 367.1266,-104 367.1266,-104 367.1266,-104 367.1266,-140.8939 367.1266,-140.8939"/>
<polygon fill="#000000" stroke="#000000" points="363.6267,-140.8938 367.1266,-150.8939 370.6267,-140.8939 363.6267,-140.8938"/>
</g>
<!-- ProductConfigurationSummaryComponent  -->
<g id="node6" class="node">
<title>ProductConfigurationSummaryComponent </title>
<polygon fill="#fb8072" stroke="#000000" points="386.8643,-252 125.1357,-252 125.1357,-216 386.8643,-216 386.8643,-252"/>
<text text-anchor="middle" x="256" y="-229.8" font-family="Times,serif" font-size="14.00" fill="#000000">ProductConfigurationSummaryComponent </text>
</g>
<!-- ProductConfigurationSummaryModule&#45;&gt;ProductConfigurationSummaryComponent  -->
<g id="edge5" class="edge">
<title>ProductConfigurationSummaryModule&#45;&gt;ProductConfigurationSummaryComponent </title>
<path fill="none" stroke="#000000" stroke-dasharray="5,2" d="M256,-187.1061C256,-187.1061 256,-205.991 256,-205.991"/>
<polygon fill="#000000" stroke="#000000" points="252.5001,-205.9909 256,-215.991 259.5001,-205.991 252.5001,-205.9909"/>
</g>
<!-- IconModule -->
<g id="node3" class="node">
<title>IconModule</title>
<polygon fill="#8dd3c7" stroke="#000000" points="360.4261,-122 357.4261,-126 336.4261,-126 333.4261,-122 275.5739,-122 275.5739,-86 360.4261,-86 360.4261,-122"/>
<text text-anchor="middle" x="318" y="-99.8" font-family="Times,serif" font-size="14.00" fill="#000000">IconModule</text>
</g>
<!-- IconModule&#45;&gt;ProductConfigurationSummaryModule -->
<g id="edge2" class="edge">
<title>IconModule&#45;&gt;ProductConfigurationSummaryModule</title>
<path fill="none" stroke="#000000" d="M318,-122.1061C318,-122.1061 318,-140.991 318,-140.991"/>
<polygon fill="#000000" stroke="#000000" points="314.5001,-140.9909 318,-150.991 321.5001,-140.991 314.5001,-140.9909"/>
</g>
<!-- OutputFieldModule -->
<g id="node4" class="node">
<title>OutputFieldModule</title>
<polygon fill="#8dd3c7" stroke="#000000" points="257.7162,-122 254.7162,-126 233.7162,-126 230.7162,-122 130.2838,-122 130.2838,-86 257.7162,-86 257.7162,-122"/>
<text text-anchor="middle" x="194" y="-99.8" font-family="Times,serif" font-size="14.00" fill="#000000">OutputFieldModule</text>
</g>
<!-- OutputFieldModule&#45;&gt;ProductConfigurationSummaryModule -->
<g id="edge3" class="edge">
<title>OutputFieldModule&#45;&gt;ProductConfigurationSummaryModule</title>
<path fill="none" stroke="#000000" d="M197.7837,-122.1061C197.7837,-122.1061 197.7837,-140.991 197.7837,-140.991"/>
<polygon fill="#000000" stroke="#000000" points="194.2837,-140.9909 197.7837,-150.991 201.2837,-140.991 194.2837,-140.9909"/>
</g>
<!-- PriceModule -->
<g id="node5" class="node">
<title>PriceModule</title>
<polygon fill="#8dd3c7" stroke="#000000" points="112.3134,-122 109.3134,-126 88.3134,-126 85.3134,-122 23.6866,-122 23.6866,-86 112.3134,-86 112.3134,-122"/>
<text text-anchor="middle" x="68" y="-99.8" font-family="Times,serif" font-size="14.00" fill="#000000">PriceModule</text>
</g>
<!-- PriceModule&#45;&gt;ProductConfigurationSummaryModule -->
<g id="edge4" class="edge">
<title>PriceModule&#45;&gt;ProductConfigurationSummaryModule</title>
<path fill="none" stroke="#000000" d="M68,-122.1061C68,-141.3391 68,-169 68,-169 68,-169 127.7371,-169 127.7371,-169"/>
<polygon fill="#000000" stroke="#000000" points="127.7371,-172.5001 137.7371,-169 127.7371,-165.5001 127.7371,-172.5001"/>
</g>
</g>
</svg>
