<?xml version="1.0" encoding="UTF-8" standalone="no"?>
<!DOCTYPE svg PUBLIC "-//W3C//DTD SVG 1.1//EN"
 "http://www.w3.org/Graphics/SVG/1.1/DTD/svg11.dtd">
<!-- Generated by graphviz version 2.40.1 (20161225.0304)
 -->
<!-- Title: dependencies Pages: 1 -->
<svg width="741pt" height="284pt"
 viewBox="0.00 0.00 741.00 284.00" xmlns="http://www.w3.org/2000/svg" xmlns:xlink="http://www.w3.org/1999/xlink">
<g id="graph0" class="graph" transform="scale(1 1) rotate(0) translate(4 280)">
<title>dependencies</title>
<polygon fill="#ffffff" stroke="transparent" points="-4,4 -4,-280 737,-280 737,4 -4,4"/>
<text text-anchor="start" x="345.5091" y="-42.4" font-family="sans-serif" font-weight="bold" font-size="14.00" fill="#000000">Legend</text>
<polygon fill="#ffffb3" stroke="transparent" points="132.5,-10 132.5,-30 152.5,-30 152.5,-10 132.5,-10"/>
<text text-anchor="start" x="156.129" y="-15.4" font-family="sans-serif" font-size="14.00" fill="#000000"> &#160;Declarations</text>
<polygon fill="#8dd3c7" stroke="transparent" points="245.5,-10 245.5,-30 265.5,-30 265.5,-10 245.5,-10"/>
<text text-anchor="start" x="269.2251" y="-15.4" font-family="sans-serif" font-size="14.00" fill="#000000"> &#160;Module</text>
<polygon fill="#80b1d3" stroke="transparent" points="331.5,-10 331.5,-30 351.5,-30 351.5,-10 331.5,-10"/>
<text text-anchor="start" x="355.2812" y="-15.4" font-family="sans-serif" font-size="14.00" fill="#000000"> &#160;Bootstrap</text>
<polygon fill="#fdb462" stroke="transparent" points="428.5,-10 428.5,-30 448.5,-30 448.5,-10 428.5,-10"/>
<text text-anchor="start" x="452.1732" y="-15.4" font-family="sans-serif" font-size="14.00" fill="#000000"> &#160;Providers</text>
<polygon fill="#fb8072" stroke="transparent" points="524.5,-10 524.5,-30 544.5,-30 544.5,-10 524.5,-10"/>
<text text-anchor="start" x="548.2258" y="-15.4" font-family="sans-serif" font-size="14.00" fill="#000000"> &#160;Exports</text>
<g id="clust1" class="cluster">
<title>cluster_PaymentComponentModule</title>
<polygon fill="none" stroke="#000000" stroke-dasharray="1,5" points="8,-70 8,-268 725,-268 725,-70 8,-70"/>
</g>
<g id="clust2" class="cluster">
<title>cluster_PaymentComponentModule_declarations</title>
<polygon fill="none" stroke="#000000" points="16,-78 16,-130 717,-130 717,-78 16,-78"/>
</g>
<g id="clust8" class="cluster">
<title>cluster_PaymentComponentModule_exports</title>
<polygon fill="none" stroke="#000000" points="116,-208 116,-260 634,-260 634,-208 116,-208"/>
</g>
<!-- CreditCardExtractorPipe -->
<g id="node1" class="node">
<title>CreditCardExtractorPipe</title>
<polygon fill="#ffffb3" stroke="#000000" points="708.6769,-122 553.3231,-122 553.3231,-86 708.6769,-86 708.6769,-122"/>
<text text-anchor="middle" x="631" y="-99.8" font-family="Times,serif" font-size="14.00" fill="#000000">CreditCardExtractorPipe</text>
</g>
<!-- PaymentComponentModule -->
<g id="node5" class="node">
<title>PaymentComponentModule</title>
<polygon fill="#8dd3c7" stroke="#000000" points="469.8752,-187 466.8752,-191 445.8752,-191 442.8752,-187 296.1248,-187 296.1248,-151 469.8752,-151 469.8752,-187"/>
<text text-anchor="middle" x="383" y="-164.8" font-family="Times,serif" font-size="14.00" fill="#000000">PaymentComponentModule</text>
</g>
<!-- CreditCardExtractorPipe&#45;&gt;PaymentComponentModule -->
<g id="edge1" class="edge">
<title>CreditCardExtractorPipe&#45;&gt;PaymentComponentModule</title>
<path fill="none" stroke="#000000" d="M589.875,-122.1061C589.875,-141.3391 589.875,-169 589.875,-169 589.875,-169 480.134,-169 480.134,-169"/>
<polygon fill="#000000" stroke="#000000" points="480.1341,-165.5001 470.134,-169 480.134,-172.5001 480.1341,-165.5001"/>
</g>
<!-- PaymentComponent -->
<g id="node2" class="node">
<title>PaymentComponent</title>
<polygon fill="#ffffb3" stroke="#000000" points="535.3258,-122 404.6742,-122 404.6742,-86 535.3258,-86 535.3258,-122"/>
<text text-anchor="middle" x="470" y="-99.8" font-family="Times,serif" font-size="14.00" fill="#000000">PaymentComponent</text>
</g>
<!-- PaymentComponent&#45;&gt;PaymentComponentModule -->
<g id="edge2" class="edge">
<title>PaymentComponent&#45;&gt;PaymentComponentModule</title>
<path fill="none" stroke="#000000" d="M437.3875,-122.1061C437.3875,-122.1061 437.3875,-140.991 437.3875,-140.991"/>
<polygon fill="#000000" stroke="#000000" points="433.8875,-140.9909 437.3875,-150.991 440.8875,-140.991 433.8875,-140.9909"/>
</g>
<!-- PaymentIFrameComponent -->
<g id="node3" class="node">
<title>PaymentIFrameComponent</title>
<polygon fill="#ffffb3" stroke="#000000" points="386.2492,-122 215.7508,-122 215.7508,-86 386.2492,-86 386.2492,-122"/>
<text text-anchor="middle" x="301" y="-99.8" font-family="Times,serif" font-size="14.00" fill="#000000">PaymentIFrameComponent</text>
</g>
<!-- PaymentIFrameComponent&#45;&gt;PaymentComponentModule -->
<g id="edge3" class="edge">
<title>PaymentIFrameComponent&#45;&gt;PaymentComponentModule</title>
<path fill="none" stroke="#000000" d="M341.2185,-122.1061C341.2185,-122.1061 341.2185,-140.991 341.2185,-140.991"/>
<polygon fill="#000000" stroke="#000000" points="337.7185,-140.9909 341.2185,-150.991 344.7185,-140.991 337.7185,-140.9909"/>
</g>
<!-- PaymentMethodComponent -->
<g id="node4" class="node">
<title>PaymentMethodComponent</title>
<polygon fill="#ffffb3" stroke="#000000" points="197.8752,-122 24.1248,-122 24.1248,-86 197.8752,-86 197.8752,-122"/>
<text text-anchor="middle" x="111" y="-99.8" font-family="Times,serif" font-size="14.00" fill="#000000">PaymentMethodComponent</text>
</g>
<!-- PaymentMethodComponent&#45;&gt;PaymentComponentModule -->
<g id="edge4" class="edge">
<title>PaymentMethodComponent&#45;&gt;PaymentComponentModule</title>
<path fill="none" stroke="#000000" d="M160.9066,-122.1061C160.9066,-141.3391 160.9066,-169 160.9066,-169 160.9066,-169 285.8602,-169 285.8602,-169"/>
<polygon fill="#000000" stroke="#000000" points="285.8603,-172.5001 295.8602,-169 285.8602,-165.5001 285.8603,-172.5001"/>
</g>
<!-- CreditCardExtractorPipe  -->
<g id="node6" class="node">
<title>CreditCardExtractorPipe </title>
<polygon fill="#fb8072" stroke="#000000" points="626.1771,-252 467.8229,-252 467.8229,-216 626.1771,-216 626.1771,-252"/>
<text text-anchor="middle" x="547" y="-229.8" font-family="Times,serif" font-size="14.00" fill="#000000">CreditCardExtractorPipe </text>
</g>
<!-- PaymentComponentModule&#45;&gt;CreditCardExtractorPipe  -->
<g id="edge5" class="edge">
<title>PaymentComponentModule&#45;&gt;CreditCardExtractorPipe </title>
<path fill="none" stroke="#000000" stroke-dasharray="5,2" d="M458.7872,-187.1061C458.7872,-206.3391 458.7872,-234 458.7872,-234 458.7872,-234 459.6652,-234 459.6652,-234"/>
<polygon fill="#000000" stroke="#000000" points="457.5679,-237.5001 467.5678,-234 457.5678,-230.5001 457.5679,-237.5001"/>
</g>
<!-- PaymentComponent  -->
<g id="node7" class="node">
<title>PaymentComponent </title>
<polygon fill="#fb8072" stroke="#000000" points="449.8255,-252 316.1745,-252 316.1745,-216 449.8255,-216 449.8255,-252"/>
<text text-anchor="middle" x="383" y="-229.8" font-family="Times,serif" font-size="14.00" fill="#000000">PaymentComponent </text>
</g>
<!-- PaymentComponentModule&#45;&gt;PaymentComponent  -->
<g id="edge6" class="edge">
<title>PaymentComponentModule&#45;&gt;PaymentComponent </title>
<path fill="none" stroke="#000000" stroke-dasharray="5,2" d="M405.3042,-187.1061C405.3042,-187.1061 405.3042,-205.991 405.3042,-205.991"/>
<polygon fill="#000000" stroke="#000000" points="401.8043,-205.9909 405.3042,-215.991 408.8043,-205.991 401.8043,-205.9909"/>
</g>
<!-- PaymentComponentModule&#45;&gt;PaymentComponent  -->
<g id="edge7" class="edge">
<title>PaymentComponentModule&#45;&gt;PaymentComponent </title>
<path fill="none" stroke="#000000" stroke-dasharray="5,2" d="M360.6958,-187.1061C360.6958,-187.1061 360.6958,-205.991 360.6958,-205.991"/>
<polygon fill="#000000" stroke="#000000" points="357.1959,-205.9909 360.6958,-215.991 364.1959,-205.991 357.1959,-205.9909"/>
</g>
<!-- PaymentIFrameComponent  -->
<g id="node8" class="node">
<title>PaymentIFrameComponent </title>
<polygon fill="#fb8072" stroke="#000000" points="298.2492,-252 123.7508,-252 123.7508,-216 298.2492,-216 298.2492,-252"/>
<text text-anchor="middle" x="211" y="-229.8" font-family="Times,serif" font-size="14.00" fill="#000000">PaymentIFrameComponent </text>
</g>
<!-- PaymentComponentModule&#45;&gt;PaymentIFrameComponent  -->
<g id="edge8" class="edge">
<title>PaymentComponentModule&#45;&gt;PaymentIFrameComponent </title>
<path fill="none" stroke="#000000" stroke-dasharray="5,2" d="M307.1059,-187.1061C307.1059,-206.3391 307.1059,-234 307.1059,-234 307.1059,-234 306.219,-234 306.219,-234"/>
<polygon fill="#000000" stroke="#000000" points="308.2368,-230.5001 298.2368,-234 308.2367,-237.5001 308.2368,-230.5001"/>
</g>
</g>
</svg>
