<?xml version="1.0" encoding="UTF-8" standalone="no"?>
<!DOCTYPE svg PUBLIC "-//W3C//DTD SVG 1.1//EN"
 "http://www.w3.org/Graphics/SVG/1.1/DTD/svg11.dtd">
<!-- Generated by graphviz version 2.40.1 (20161225.0304)
 -->
<!-- Title: dependencies Pages: 1 -->
<svg width="504pt" height="284pt"
 viewBox="0.00 0.00 504.00 284.00" xmlns="http://www.w3.org/2000/svg" xmlns:xlink="http://www.w3.org/1999/xlink">
<g id="graph0" class="graph" transform="scale(1 1) rotate(0) translate(4 280)">
<title>dependencies</title>
<polygon fill="#ffffff" stroke="transparent" points="-4,4 -4,-280 500,-280 500,4 -4,4"/>
<text text-anchor="start" x="227.0091" y="-42.4" font-family="sans-serif" font-weight="bold" font-size="14.00" fill="#000000">Legend</text>
<polygon fill="#ffffb3" stroke="transparent" points="14,-10 14,-30 34,-30 34,-10 14,-10"/>
<text text-anchor="start" x="37.629" y="-15.4" font-family="sans-serif" font-size="14.00" fill="#000000"> &#160;Declarations</text>
<polygon fill="#8dd3c7" stroke="transparent" points="127,-10 127,-30 147,-30 147,-10 127,-10"/>
<text text-anchor="start" x="150.7251" y="-15.4" font-family="sans-serif" font-size="14.00" fill="#000000"> &#160;Module</text>
<polygon fill="#80b1d3" stroke="transparent" points="213,-10 213,-30 233,-30 233,-10 213,-10"/>
<text text-anchor="start" x="236.7812" y="-15.4" font-family="sans-serif" font-size="14.00" fill="#000000"> &#160;Bootstrap</text>
<polygon fill="#fdb462" stroke="transparent" points="310,-10 310,-30 330,-30 330,-10 310,-10"/>
<text text-anchor="start" x="333.6732" y="-15.4" font-family="sans-serif" font-size="14.00" fill="#000000"> &#160;Providers</text>
<polygon fill="#fb8072" stroke="transparent" points="406,-10 406,-30 426,-30 426,-10 406,-10"/>
<text text-anchor="start" x="429.7258" y="-15.4" font-family="sans-serif" font-size="14.00" fill="#000000"> &#160;Exports</text>
<g id="clust1" class="cluster">
<title>cluster_SalesforceModule</title>
<polygon fill="none" stroke="#000000" stroke-dasharray="1,5" points="120,-70 120,-268 376,-268 376,-70 120,-70"/>
</g>
<g id="clust2" class="cluster">
<title>cluster_SalesforceModule_declarations</title>
<polygon fill="none" stroke="#000000" points="276,-78 276,-130 368,-130 368,-78 276,-78"/>
</g>
<g id="clust5" class="cluster">
<title>cluster_SalesforceModule_exports</title>
<polygon fill="none" stroke="#000000" points="205,-208 205,-260 301,-260 301,-208 205,-208"/>
</g>
<g id="clust7" class="cluster">
<title>cluster_SalesforceModule_providers</title>
<polygon fill="none" stroke="#000000" points="128,-78 128,-130 268,-130 268,-78 128,-78"/>
</g>
<!-- ImagePipe -->
<g id="node1" class="node">
<title>ImagePipe</title>
<polygon fill="#ffffb3" stroke="#000000" points="359.8683,-122 284.1317,-122 284.1317,-86 359.8683,-86 359.8683,-122"/>
<text text-anchor="middle" x="322" y="-99.8" font-family="Times,serif" font-size="14.00" fill="#000000">ImagePipe</text>
</g>
<!-- SalesforceModule -->
<g id="node2" class="node">
<title>SalesforceModule</title>
<polygon fill="#8dd3c7" stroke="#000000" points="311.8473,-187 308.8473,-191 287.8473,-191 284.8473,-187 194.1527,-187 194.1527,-151 311.8473,-151 311.8473,-187"/>
<text text-anchor="middle" x="253" y="-164.8" font-family="Times,serif" font-size="14.00" fill="#000000">SalesforceModule</text>
</g>
<!-- ImagePipe&#45;&gt;SalesforceModule -->
<g id="edge1" class="edge">
<title>ImagePipe&#45;&gt;SalesforceModule</title>
<path fill="none" stroke="#000000" d="M297.9948,-122.1061C297.9948,-122.1061 297.9948,-140.991 297.9948,-140.991"/>
<polygon fill="#000000" stroke="#000000" points="294.4948,-140.9909 297.9948,-150.991 301.4948,-140.991 294.4948,-140.9909"/>
</g>
<!-- ImagePipe  -->
<g id="node3" class="node">
<title>ImagePipe </title>
<polygon fill="#fb8072" stroke="#000000" points="292.8691,-252 213.1309,-252 213.1309,-216 292.8691,-216 292.8691,-252"/>
<text text-anchor="middle" x="253" y="-229.8" font-family="Times,serif" font-size="14.00" fill="#000000">ImagePipe </text>
</g>
<!-- SalesforceModule&#45;&gt;ImagePipe  -->
<g id="edge2" class="edge">
<title>SalesforceModule&#45;&gt;ImagePipe </title>
<path fill="none" stroke="#000000" stroke-dasharray="5,2" d="M253,-187.1061C253,-187.1061 253,-205.991 253,-205.991"/>
<polygon fill="#000000" stroke="#000000" points="249.5001,-205.9909 253,-215.991 256.5001,-205.991 249.5001,-205.9909"/>
</g>
<!-- ForceService -->
<g id="node4" class="node">
<title>ForceService</title>
<ellipse fill="#fdb462" stroke="#000000" cx="198" cy="-104" rx="61.9538" ry="18"/>
<text text-anchor="middle" x="198" y="-99.8" font-family="Times,serif" font-size="14.00" fill="#000000">ForceService</text>
</g>
<!-- ForceService&#45;&gt;SalesforceModule -->
<g id="edge3" class="edge">
<title>ForceService&#45;&gt;SalesforceModule</title>
<path fill="none" stroke="#000000" d="M227.0266,-120.0674C227.0266,-120.0674 227.0266,-140.8237 227.0266,-140.8237"/>
<polygon fill="#000000" stroke="#000000" points="223.5267,-140.8236 227.0266,-150.8237 230.5267,-140.8237 223.5267,-140.8236"/>
</g>
</g>
</svg>
