<?xml version="1.0" encoding="UTF-8" standalone="no"?>
<!DOCTYPE svg PUBLIC "-//W3C//DTD SVG 1.1//EN"
 "http://www.w3.org/Graphics/SVG/1.1/DTD/svg11.dtd">
<!-- Generated by graphviz version 2.40.1 (20161225.0304)
 -->
<!-- Title: dependencies Pages: 1 -->
<svg width="796pt" height="396pt"
 viewBox="0.00 0.00 796.00 395.59" xmlns="http://www.w3.org/2000/svg" xmlns:xlink="http://www.w3.org/1999/xlink">
<g id="graph0" class="graph" transform="scale(1 1) rotate(0) translate(4 391.5901)">
<title>dependencies</title>
<polygon fill="#ffffff" stroke="transparent" points="-4,4 -4,-391.5901 792,-391.5901 792,4 -4,4"/>
<text text-anchor="start" x="373.0091" y="-42.4" font-family="sans-serif" font-weight="bold" font-size="14.00" fill="#000000">Legend</text>
<polygon fill="#ffffb3" stroke="transparent" points="160,-10 160,-30 180,-30 180,-10 160,-10"/>
<text text-anchor="start" x="183.629" y="-15.4" font-family="sans-serif" font-size="14.00" fill="#000000"> &#160;Declarations</text>
<polygon fill="#8dd3c7" stroke="transparent" points="273,-10 273,-30 293,-30 293,-10 273,-10"/>
<text text-anchor="start" x="296.7251" y="-15.4" font-family="sans-serif" font-size="14.00" fill="#000000"> &#160;Module</text>
<polygon fill="#80b1d3" stroke="transparent" points="359,-10 359,-30 379,-30 379,-10 359,-10"/>
<text text-anchor="start" x="382.7812" y="-15.4" font-family="sans-serif" font-size="14.00" fill="#000000"> &#160;Bootstrap</text>
<polygon fill="#fdb462" stroke="transparent" points="456,-10 456,-30 476,-30 476,-10 456,-10"/>
<text text-anchor="start" x="479.6732" y="-15.4" font-family="sans-serif" font-size="14.00" fill="#000000"> &#160;Providers</text>
<polygon fill="#fb8072" stroke="transparent" points="552,-10 552,-30 572,-30 572,-10 552,-10"/>
<text text-anchor="start" x="575.7258" y="-15.4" font-family="sans-serif" font-size="14.00" fill="#000000"> &#160;Exports</text>
<g id="clust1" class="cluster">
<title>cluster_InputQuantityModule</title>
<polygon fill="none" stroke="#000000" stroke-dasharray="1,5" points="8,-70 8,-379.5901 780,-379.5901 780,-70 8,-70"/>
</g>
<g id="clust2" class="cluster">
<title>cluster_InputQuantityModule_declarations</title>
<polygon fill="none" stroke="#000000" points="306,-189.5901 306,-241.5901 482,-241.5901 482,-189.5901 306,-189.5901"/>
</g>
<g id="clust3" class="cluster">
<title>cluster_InputQuantityModule_InputQuantityComponent_providers</title>
<polygon fill="none" stroke="#000000" points="16,-78 16,-176.5901 772,-176.5901 772,-78 16,-78"/>
</g>
<g id="clust5" class="cluster">
<title>cluster_InputQuantityModule_exports</title>
<polygon fill="none" stroke="#000000" points="304,-319.5901 304,-371.5901 484,-371.5901 484,-319.5901 304,-319.5901"/>
</g>
<!-- InputQuantityComponent -->
<g id="node1" class="node">
<title>InputQuantityComponent</title>
<polygon fill="#ffffb3" stroke="#000000" points="473.8766,-233.5901 314.1234,-233.5901 314.1234,-197.5901 473.8766,-197.5901 473.8766,-233.5901"/>
<text text-anchor="middle" x="394" y="-211.3901" font-family="Times,serif" font-size="14.00" fill="#000000">InputQuantityComponent</text>
</g>
<!-- InputQuantityModule -->
<g id="node2" class="node">
<title>InputQuantityModule</title>
<polygon fill="#8dd3c7" stroke="#000000" points="463.094,-298.5901 460.094,-302.5901 439.094,-302.5901 436.094,-298.5901 324.906,-298.5901 324.906,-262.5901 463.094,-262.5901 463.094,-298.5901"/>
<text text-anchor="middle" x="394" y="-276.3901" font-family="Times,serif" font-size="14.00" fill="#000000">InputQuantityModule</text>
</g>
<!-- InputQuantityComponent&#45;&gt;InputQuantityModule -->
<g id="edge1" class="edge">
<title>InputQuantityComponent&#45;&gt;InputQuantityModule</title>
<path fill="none" stroke="#000000" d="M394,-233.6962C394,-233.6962 394,-252.581 394,-252.581"/>
<polygon fill="#000000" stroke="#000000" points="390.5001,-252.581 394,-262.581 397.5001,-252.5811 390.5001,-252.581"/>
</g>
<!-- InputQuantityComponent  -->
<g id="node4" class="node">
<title>InputQuantityComponent </title>
<polygon fill="#fb8072" stroke="#000000" points="475.877,-363.5901 312.123,-363.5901 312.123,-327.5901 475.877,-327.5901 475.877,-363.5901"/>
<text text-anchor="middle" x="394" y="-341.3901" font-family="Times,serif" font-size="14.00" fill="#000000">InputQuantityComponent </text>
</g>
<!-- InputQuantityModule&#45;&gt;InputQuantityComponent  -->
<g id="edge3" class="edge">
<title>InputQuantityModule&#45;&gt;InputQuantityComponent </title>
<path fill="none" stroke="#000000" stroke-dasharray="5,2" d="M394,-298.6962C394,-298.6962 394,-317.581 394,-317.581"/>
<polygon fill="#000000" stroke="#000000" points="390.5001,-317.581 394,-327.581 397.5001,-317.5811 390.5001,-317.581"/>
</g>
<!-- {
 &#160;&#160;&#160;provide: NG_VALUE_ACCESSOR, useExisting: InputQuantityComponent, multi: true
} -->
<g id="node3" class="node">
<title>{
 &#160;&#160;&#160;provide: NG_VALUE_ACCESSOR, useExisting: InputQuantityComponent, multi: true
}</title>
<ellipse fill="#fdb462" stroke="#000000" cx="394" cy="-127.295" rx="370.2696" ry="41.0911"/>
<text text-anchor="middle" x="394" y="-139.895" font-family="Times,serif" font-size="14.00" fill="#000000">{</text>
<text text-anchor="middle" x="394" y="-123.095" font-family="Times,serif" font-size="14.00" fill="#000000"> &#160;&#160;&#160;provide: NG_VALUE_ACCESSOR, useExisting: InputQuantityComponent, multi: true</text>
<text text-anchor="middle" x="394" y="-106.295" font-family="Times,serif" font-size="14.00" fill="#000000">}</text>
</g>
<!-- {
 &#160;&#160;&#160;provide: NG_VALUE_ACCESSOR, useExisting: InputQuantityComponent, multi: true
}&#45;&gt;InputQuantityComponent -->
<g id="edge2" class="edge">
<title>{
 &#160;&#160;&#160;provide: NG_VALUE_ACCESSOR, useExisting: InputQuantityComponent, multi: true
}&#45;&gt;InputQuantityComponent</title>
<path fill="none" stroke="#000000" d="M394,-168.5989C394,-168.5989 394,-187.2551 394,-187.2551"/>
<polygon fill="#000000" stroke="#000000" points="390.5001,-187.255 394,-197.2551 397.5001,-187.2551 390.5001,-187.255"/>
</g>
</g>
</svg>
