<?xml version="1.0" encoding="UTF-8" standalone="no"?>
<!DOCTYPE svg PUBLIC "-//W3C//DTD SVG 1.1//EN"
 "http://www.w3.org/Graphics/SVG/1.1/DTD/svg11.dtd">
<!-- Generated by graphviz version 2.40.1 (20161225.0304)
 -->
<!-- Title: dependencies Pages: 1 -->
<svg width="750pt" height="396pt"
 viewBox="0.00 0.00 750.00 395.59" xmlns="http://www.w3.org/2000/svg" xmlns:xlink="http://www.w3.org/1999/xlink">
<g id="graph0" class="graph" transform="scale(1 1) rotate(0) translate(4 391.5901)">
<title>dependencies</title>
<polygon fill="#ffffff" stroke="transparent" points="-4,4 -4,-391.5901 746,-391.5901 746,4 -4,4"/>
<text text-anchor="start" x="350.0091" y="-42.4" font-family="sans-serif" font-weight="bold" font-size="14.00" fill="#000000">Legend</text>
<polygon fill="#ffffb3" stroke="transparent" points="137,-10 137,-30 157,-30 157,-10 137,-10"/>
<text text-anchor="start" x="160.629" y="-15.4" font-family="sans-serif" font-size="14.00" fill="#000000"> &#160;Declarations</text>
<polygon fill="#8dd3c7" stroke="transparent" points="250,-10 250,-30 270,-30 270,-10 250,-10"/>
<text text-anchor="start" x="273.7251" y="-15.4" font-family="sans-serif" font-size="14.00" fill="#000000"> &#160;Module</text>
<polygon fill="#80b1d3" stroke="transparent" points="336,-10 336,-30 356,-30 356,-10 336,-10"/>
<text text-anchor="start" x="359.7812" y="-15.4" font-family="sans-serif" font-size="14.00" fill="#000000"> &#160;Bootstrap</text>
<polygon fill="#fdb462" stroke="transparent" points="433,-10 433,-30 453,-30 453,-10 433,-10"/>
<text text-anchor="start" x="456.6732" y="-15.4" font-family="sans-serif" font-size="14.00" fill="#000000"> &#160;Providers</text>
<polygon fill="#fb8072" stroke="transparent" points="529,-10 529,-30 549,-30 549,-10 529,-10"/>
<text text-anchor="start" x="552.7258" y="-15.4" font-family="sans-serif" font-size="14.00" fill="#000000"> &#160;Exports</text>
<g id="clust1" class="cluster">
<title>cluster_AddressModule</title>
<polygon fill="none" stroke="#000000" stroke-dasharray="1,5" points="8,-70 8,-379.5901 734,-379.5901 734,-70 8,-70"/>
</g>
<g id="clust2" class="cluster">
<title>cluster_AddressModule_declarations</title>
<polygon fill="none" stroke="#000000" points="299,-189.5901 299,-241.5901 443,-241.5901 443,-189.5901 299,-189.5901"/>
</g>
<g id="clust3" class="cluster">
<title>cluster_AddressModule_AddressComponent_providers</title>
<polygon fill="none" stroke="#000000" points="16,-78 16,-176.5901 726,-176.5901 726,-78 16,-78"/>
</g>
<g id="clust5" class="cluster">
<title>cluster_AddressModule_exports</title>
<polygon fill="none" stroke="#000000" points="298,-319.5901 298,-371.5901 444,-371.5901 444,-319.5901 298,-319.5901"/>
</g>
<!-- AddressComponent -->
<g id="node1" class="node">
<title>AddressComponent</title>
<polygon fill="#ffffb3" stroke="#000000" points="434.7036,-233.5901 307.2964,-233.5901 307.2964,-197.5901 434.7036,-197.5901 434.7036,-233.5901"/>
<text text-anchor="middle" x="371" y="-211.3901" font-family="Times,serif" font-size="14.00" fill="#000000">AddressComponent</text>
</g>
<!-- AddressModule -->
<g id="node2" class="node">
<title>AddressModule</title>
<polygon fill="#8dd3c7" stroke="#000000" points="423.9216,-298.5901 420.9216,-302.5901 399.9216,-302.5901 396.9216,-298.5901 318.0784,-298.5901 318.0784,-262.5901 423.9216,-262.5901 423.9216,-298.5901"/>
<text text-anchor="middle" x="371" y="-276.3901" font-family="Times,serif" font-size="14.00" fill="#000000">AddressModule</text>
</g>
<!-- AddressComponent&#45;&gt;AddressModule -->
<g id="edge1" class="edge">
<title>AddressComponent&#45;&gt;AddressModule</title>
<path fill="none" stroke="#000000" d="M371,-233.6962C371,-233.6962 371,-252.581 371,-252.581"/>
<polygon fill="#000000" stroke="#000000" points="367.5001,-252.581 371,-262.581 374.5001,-252.5811 367.5001,-252.581"/>
</g>
<!-- AddressComponent  -->
<g id="node4" class="node">
<title>AddressComponent </title>
<polygon fill="#fb8072" stroke="#000000" points="436.2037,-363.5901 305.7963,-363.5901 305.7963,-327.5901 436.2037,-327.5901 436.2037,-363.5901"/>
<text text-anchor="middle" x="371" y="-341.3901" font-family="Times,serif" font-size="14.00" fill="#000000">AddressComponent </text>
</g>
<!-- AddressModule&#45;&gt;AddressComponent  -->
<g id="edge3" class="edge">
<title>AddressModule&#45;&gt;AddressComponent </title>
<path fill="none" stroke="#000000" stroke-dasharray="5,2" d="M371,-298.6962C371,-298.6962 371,-317.581 371,-317.581"/>
<polygon fill="#000000" stroke="#000000" points="367.5001,-317.581 371,-327.581 374.5001,-317.5811 367.5001,-317.581"/>
</g>
<!-- {
 &#160;&#160;&#160;provide: NG_VALUE_ACCESSOR, useExisting: AddressComponent, multi: true
} -->
<g id="node3" class="node">
<title>{
 &#160;&#160;&#160;provide: NG_VALUE_ACCESSOR, useExisting: AddressComponent, multi: true
}</title>
<ellipse fill="#fdb462" stroke="#000000" cx="371" cy="-127.295" rx="347.0626" ry="41.0911"/>
<text text-anchor="middle" x="371" y="-139.895" font-family="Times,serif" font-size="14.00" fill="#000000">{</text>
<text text-anchor="middle" x="371" y="-123.095" font-family="Times,serif" font-size="14.00" fill="#000000"> &#160;&#160;&#160;provide: NG_VALUE_ACCESSOR, useExisting: AddressComponent, multi: true</text>
<text text-anchor="middle" x="371" y="-106.295" font-family="Times,serif" font-size="14.00" fill="#000000">}</text>
</g>
<!-- {
 &#160;&#160;&#160;provide: NG_VALUE_ACCESSOR, useExisting: AddressComponent, multi: true
}&#45;&gt;AddressComponent -->
<g id="edge2" class="edge">
<title>{
 &#160;&#160;&#160;provide: NG_VALUE_ACCESSOR, useExisting: AddressComponent, multi: true
}&#45;&gt;AddressComponent</title>
<path fill="none" stroke="#000000" d="M371,-168.5989C371,-168.5989 371,-187.2551 371,-187.2551"/>
<polygon fill="#000000" stroke="#000000" points="367.5001,-187.255 371,-197.2551 374.5001,-187.2551 367.5001,-187.255"/>
</g>
</g>
</svg>
