<?xml version="1.0" encoding="UTF-8" standalone="no"?>
<!DOCTYPE svg PUBLIC "-//W3C//DTD SVG 1.1//EN"
 "http://www.w3.org/Graphics/SVG/1.1/DTD/svg11.dtd">
<!-- Generated by graphviz version 2.40.1 (20161225.0304)
 -->
<!-- Title: dependencies Pages: 1 -->
<svg width="580pt" height="211pt"
 viewBox="0.00 0.00 580.00 211.00" xmlns="http://www.w3.org/2000/svg" xmlns:xlink="http://www.w3.org/1999/xlink">
<g id="graph0" class="graph" transform="scale(1 1) rotate(0) translate(4 207)">
<title>dependencies</title>
<polygon fill="#ffffff" stroke="transparent" points="-4,4 -4,-207 576,-207 576,4 -4,4"/>
<text text-anchor="start" x="265.0091" y="-42.4" font-family="sans-serif" font-weight="bold" font-size="14.00" fill="#000000">Legend</text>
<polygon fill="#ffffb3" stroke="transparent" points="52,-10 52,-30 72,-30 72,-10 52,-10"/>
<text text-anchor="start" x="75.629" y="-15.4" font-family="sans-serif" font-size="14.00" fill="#000000"> &#160;Declarations</text>
<polygon fill="#8dd3c7" stroke="transparent" points="165,-10 165,-30 185,-30 185,-10 165,-10"/>
<text text-anchor="start" x="188.7251" y="-15.4" font-family="sans-serif" font-size="14.00" fill="#000000"> &#160;Module</text>
<polygon fill="#80b1d3" stroke="transparent" points="251,-10 251,-30 271,-30 271,-10 251,-10"/>
<text text-anchor="start" x="274.7812" y="-15.4" font-family="sans-serif" font-size="14.00" fill="#000000"> &#160;Bootstrap</text>
<polygon fill="#fdb462" stroke="transparent" points="348,-10 348,-30 368,-30 368,-10 348,-10"/>
<text text-anchor="start" x="371.6732" y="-15.4" font-family="sans-serif" font-size="14.00" fill="#000000"> &#160;Providers</text>
<polygon fill="#fb8072" stroke="transparent" points="444,-10 444,-30 464,-30 464,-10 444,-10"/>
<text text-anchor="start" x="467.7258" y="-15.4" font-family="sans-serif" font-size="14.00" fill="#000000"> &#160;Exports</text>
<g id="clust1" class="cluster">
<title>cluster_ProductDetailsModule</title>
<polygon fill="none" stroke="#000000" stroke-dasharray="1,5" points="8,-70 8,-195 564,-195 564,-70 8,-70"/>
</g>
<g id="clust2" class="cluster">
<title>cluster_ProductDetailsModule_declarations</title>
<polygon fill="none" stroke="#000000" points="16,-78 16,-130 556,-130 556,-78 16,-78"/>
</g>
<!-- ProductDetailsComponent -->
<g id="node1" class="node">
<title>ProductDetailsComponent</title>
<polygon fill="#ffffb3" stroke="#000000" points="548.0337,-122 383.9663,-122 383.9663,-86 548.0337,-86 548.0337,-122"/>
<text text-anchor="middle" x="466" y="-99.8" font-family="Times,serif" font-size="14.00" fill="#000000">ProductDetailsComponent</text>
</g>
<!-- ProductDetailsModule -->
<g id="node4" class="node">
<title>ProductDetailsModule</title>
<polygon fill="#8dd3c7" stroke="#000000" points="350.2506,-187 347.2506,-191 326.2506,-191 323.2506,-187 207.7494,-187 207.7494,-151 350.2506,-151 350.2506,-187"/>
<text text-anchor="middle" x="279" y="-164.8" font-family="Times,serif" font-size="14.00" fill="#000000">ProductDetailsModule</text>
</g>
<!-- ProductDetailsComponent&#45;&gt;ProductDetailsModule -->
<g id="edge1" class="edge">
<title>ProductDetailsComponent&#45;&gt;ProductDetailsModule</title>
<path fill="none" stroke="#000000" d="M466,-122.1061C466,-141.3391 466,-169 466,-169 466,-169 360.4971,-169 360.4971,-169"/>
<polygon fill="#000000" stroke="#000000" points="360.4972,-165.5001 350.4971,-169 360.4971,-172.5001 360.4972,-165.5001"/>
</g>
<!-- TabAttachmentsComponent -->
<g id="node2" class="node">
<title>TabAttachmentsComponent</title>
<polygon fill="#ffffb3" stroke="#000000" points="365.8571,-122 192.1429,-122 192.1429,-86 365.8571,-86 365.8571,-122"/>
<text text-anchor="middle" x="279" y="-99.8" font-family="Times,serif" font-size="14.00" fill="#000000">TabAttachmentsComponent</text>
</g>
<!-- TabAttachmentsComponent&#45;&gt;ProductDetailsModule -->
<g id="edge2" class="edge">
<title>TabAttachmentsComponent&#45;&gt;ProductDetailsModule</title>
<path fill="none" stroke="#000000" d="M279,-122.1061C279,-122.1061 279,-140.991 279,-140.991"/>
<polygon fill="#000000" stroke="#000000" points="275.5001,-140.9909 279,-150.991 282.5001,-140.991 275.5001,-140.9909"/>
</g>
<!-- TabFeaturesComponent -->
<g id="node3" class="node">
<title>TabFeaturesComponent</title>
<polygon fill="#ffffb3" stroke="#000000" points="174.0226,-122 23.9774,-122 23.9774,-86 174.0226,-86 174.0226,-122"/>
<text text-anchor="middle" x="99" y="-99.8" font-family="Times,serif" font-size="14.00" fill="#000000">TabFeaturesComponent</text>
</g>
<!-- TabFeaturesComponent&#45;&gt;ProductDetailsModule -->
<g id="edge3" class="edge">
<title>TabFeaturesComponent&#45;&gt;ProductDetailsModule</title>
<path fill="none" stroke="#000000" d="M99,-122.1061C99,-141.3391 99,-169 99,-169 99,-169 197.6007,-169 197.6007,-169"/>
<polygon fill="#000000" stroke="#000000" points="197.6007,-172.5001 207.6007,-169 197.6007,-165.5001 197.6007,-172.5001"/>
</g>
</g>
</svg>
