<?xml version="1.0" encoding="UTF-8" standalone="no"?>
<!DOCTYPE svg PUBLIC "-//W3C//DTD SVG 1.1//EN"
 "http://www.w3.org/Graphics/SVG/1.1/DTD/svg11.dtd">
<!-- Generated by graphviz version 2.40.1 (20161225.0304)
 -->
<!-- Title: dependencies Pages: 1 -->
<svg width="2581pt" height="211pt"
 viewBox="0.00 0.00 2581.00 211.00" xmlns="http://www.w3.org/2000/svg" xmlns:xlink="http://www.w3.org/1999/xlink">
<g id="graph0" class="graph" transform="scale(1 1) rotate(0) translate(4 207)">
<title>dependencies</title>
<polygon fill="#ffffff" stroke="transparent" points="-4,4 -4,-207 2577,-207 2577,4 -4,4"/>
<text text-anchor="start" x="1265.5091" y="-42.4" font-family="sans-serif" font-weight="bold" font-size="14.00" fill="#000000">Legend</text>
<polygon fill="#ffffb3" stroke="transparent" points="1052.5,-10 1052.5,-30 1072.5,-30 1072.5,-10 1052.5,-10"/>
<text text-anchor="start" x="1076.129" y="-15.4" font-family="sans-serif" font-size="14.00" fill="#000000"> &#160;Declarations</text>
<polygon fill="#8dd3c7" stroke="transparent" points="1165.5,-10 1165.5,-30 1185.5,-30 1185.5,-10 1165.5,-10"/>
<text text-anchor="start" x="1189.2251" y="-15.4" font-family="sans-serif" font-size="14.00" fill="#000000"> &#160;Module</text>
<polygon fill="#80b1d3" stroke="transparent" points="1251.5,-10 1251.5,-30 1271.5,-30 1271.5,-10 1251.5,-10"/>
<text text-anchor="start" x="1275.2812" y="-15.4" font-family="sans-serif" font-size="14.00" fill="#000000"> &#160;Bootstrap</text>
<polygon fill="#fdb462" stroke="transparent" points="1348.5,-10 1348.5,-30 1368.5,-30 1368.5,-10 1348.5,-10"/>
<text text-anchor="start" x="1372.1732" y="-15.4" font-family="sans-serif" font-size="14.00" fill="#000000"> &#160;Providers</text>
<polygon fill="#fb8072" stroke="transparent" points="1444.5,-10 1444.5,-30 1464.5,-30 1464.5,-10 1444.5,-10"/>
<text text-anchor="start" x="1468.2258" y="-15.4" font-family="sans-serif" font-size="14.00" fill="#000000"> &#160;Exports</text>
<g id="clust1" class="cluster">
<title>cluster_ProductDetailsModule</title>
<polygon fill="none" stroke="#000000" stroke-dasharray="1,5" points="8,-70 8,-195 2565,-195 2565,-70 8,-70"/>
</g>
<g id="clust2" class="cluster">
<title>cluster_ProductDetailsModule_declarations</title>
<polygon fill="none" stroke="#000000" points="2017,-78 2017,-130 2557,-130 2557,-78 2017,-78"/>
</g>
<g id="clust6" class="cluster">
<title>cluster_ProductDetailsModule_imports</title>
<polygon fill="none" stroke="#000000" points="16,-78 16,-130 2009,-130 2009,-78 16,-78"/>
</g>
<!-- ProductDetailsComponent -->
<g id="node1" class="node">
<title>ProductDetailsComponent</title>
<polygon fill="#ffffb3" stroke="#000000" points="2549.0337,-122 2384.9663,-122 2384.9663,-86 2549.0337,-86 2549.0337,-122"/>
<text text-anchor="middle" x="2467" y="-99.8" font-family="Times,serif" font-size="14.00" fill="#000000">ProductDetailsComponent</text>
</g>
<!-- ProductDetailsModule -->
<g id="node4" class="node">
<title>ProductDetailsModule</title>
<polygon fill="#8dd3c7" stroke="#000000" points="1362.2506,-187 1359.2506,-191 1338.2506,-191 1335.2506,-187 1219.7494,-187 1219.7494,-151 1362.2506,-151 1362.2506,-187"/>
<text text-anchor="middle" x="1291" y="-164.8" font-family="Times,serif" font-size="14.00" fill="#000000">ProductDetailsModule</text>
</g>
<!-- ProductDetailsComponent&#45;&gt;ProductDetailsModule -->
<g id="edge1" class="edge">
<title>ProductDetailsComponent&#45;&gt;ProductDetailsModule</title>
<path fill="none" stroke="#000000" d="M2467,-122.3228C2467,-145.6602 2467,-183 2467,-183 2467,-183 1372.3542,-183 1372.3542,-183"/>
<polygon fill="#000000" stroke="#000000" points="1372.3542,-179.5001 1362.3542,-183 1372.3541,-186.5001 1372.3542,-179.5001"/>
</g>
<!-- TabAttachmentsComponent -->
<g id="node2" class="node">
<title>TabAttachmentsComponent</title>
<polygon fill="#ffffb3" stroke="#000000" points="2366.8571,-122 2193.1429,-122 2193.1429,-86 2366.8571,-86 2366.8571,-122"/>
<text text-anchor="middle" x="2280" y="-99.8" font-family="Times,serif" font-size="14.00" fill="#000000">TabAttachmentsComponent</text>
</g>
<!-- TabAttachmentsComponent&#45;&gt;ProductDetailsModule -->
<g id="edge2" class="edge">
<title>TabAttachmentsComponent&#45;&gt;ProductDetailsModule</title>
<path fill="none" stroke="#000000" d="M2280,-122.2921C2280,-144.2057 2280,-178 2280,-178 2280,-178 1372.5243,-178 1372.5243,-178"/>
<polygon fill="#000000" stroke="#000000" points="1372.5243,-174.5001 1362.5243,-178 1372.5243,-181.5001 1372.5243,-174.5001"/>
</g>
<!-- TabFeaturesComponent -->
<g id="node3" class="node">
<title>TabFeaturesComponent</title>
<polygon fill="#ffffb3" stroke="#000000" points="2175.0226,-122 2024.9774,-122 2024.9774,-86 2175.0226,-86 2175.0226,-122"/>
<text text-anchor="middle" x="2100" y="-99.8" font-family="Times,serif" font-size="14.00" fill="#000000">TabFeaturesComponent</text>
</g>
<!-- TabFeaturesComponent&#45;&gt;ProductDetailsModule -->
<g id="edge3" class="edge">
<title>TabFeaturesComponent&#45;&gt;ProductDetailsModule</title>
<path fill="none" stroke="#000000" d="M2100,-122.0267C2100,-142.7672 2100,-174 2100,-174 2100,-174 1372.4385,-174 1372.4385,-174"/>
<polygon fill="#000000" stroke="#000000" points="1372.4385,-170.5001 1362.4385,-174 1372.4384,-177.5001 1372.4385,-170.5001"/>
</g>
<!-- BreadcrumbModule -->
<g id="node5" class="node">
<title>BreadcrumbModule</title>
<polygon fill="#8dd3c7" stroke="#000000" points="2001.2423,-122 1998.2423,-126 1977.2423,-126 1974.2423,-122 1872.7577,-122 1872.7577,-86 2001.2423,-86 2001.2423,-122"/>
<text text-anchor="middle" x="1937" y="-99.8" font-family="Times,serif" font-size="14.00" fill="#000000">BreadcrumbModule</text>
</g>
<!-- BreadcrumbModule&#45;&gt;ProductDetailsModule -->
<g id="edge4" class="edge">
<title>BreadcrumbModule&#45;&gt;ProductDetailsModule</title>
<path fill="none" stroke="#000000" d="M1937,-122.1061C1937,-141.3391 1937,-169 1937,-169 1937,-169 1372.2911,-169 1372.2911,-169"/>
<polygon fill="#000000" stroke="#000000" points="1372.2911,-165.5001 1362.2911,-169 1372.2911,-172.5001 1372.2911,-165.5001"/>
</g>
<!-- ButtonModule -->
<g id="node6" class="node">
<title>ButtonModule</title>
<polygon fill="#8dd3c7" stroke="#000000" points="1854.6682,-122 1851.6682,-126 1830.6682,-126 1827.6682,-122 1757.3318,-122 1757.3318,-86 1854.6682,-86 1854.6682,-122"/>
<text text-anchor="middle" x="1806" y="-99.8" font-family="Times,serif" font-size="14.00" fill="#000000">ButtonModule</text>
</g>
<!-- ButtonModule&#45;&gt;ProductDetailsModule -->
<g id="edge5" class="edge">
<title>ButtonModule&#45;&gt;ProductDetailsModule</title>
<path fill="none" stroke="#000000" d="M1806,-122.302C1806,-140.2699 1806,-165 1806,-165 1806,-165 1372.338,-165 1372.338,-165"/>
<polygon fill="#000000" stroke="#000000" points="1372.338,-161.5001 1362.338,-165 1372.338,-168.5001 1372.338,-161.5001"/>
</g>
<!-- CartModule -->
<g id="node7" class="node">
<title>CartModule</title>
<polygon fill="#8dd3c7" stroke="#000000" points="1738.6529,-122 1735.6529,-126 1714.6529,-126 1711.6529,-122 1655.3471,-122 1655.3471,-86 1738.6529,-86 1738.6529,-122"/>
<text text-anchor="middle" x="1697" y="-99.8" font-family="Times,serif" font-size="14.00" fill="#000000">CartModule</text>
</g>
<!-- CartModule&#45;&gt;ProductDetailsModule -->
<g id="edge6" class="edge">
<title>CartModule&#45;&gt;ProductDetailsModule</title>
<path fill="none" stroke="#000000" d="M1697,-122.027C1697,-138.3976 1697,-160 1697,-160 1697,-160 1372.6501,-160 1372.6501,-160"/>
<polygon fill="#000000" stroke="#000000" points="1372.6501,-156.5001 1362.6501,-160 1372.65,-163.5001 1372.6501,-156.5001"/>
</g>
<!-- CatalogModule -->
<g id="node8" class="node">
<title>CatalogModule</title>
<polygon fill="#8dd3c7" stroke="#000000" points="1637.5968,-122 1634.5968,-126 1613.5968,-126 1610.5968,-122 1534.4032,-122 1534.4032,-86 1637.5968,-86 1637.5968,-122"/>
<text text-anchor="middle" x="1586" y="-99.8" font-family="Times,serif" font-size="14.00" fill="#000000">CatalogModule</text>
</g>
<!-- CatalogModule&#45;&gt;ProductDetailsModule -->
<g id="edge7" class="edge">
<title>CatalogModule&#45;&gt;ProductDetailsModule</title>
<path fill="none" stroke="#000000" d="M1586,-122.1871C1586,-137.1824 1586,-156 1586,-156 1586,-156 1372.4113,-156 1372.4113,-156"/>
<polygon fill="#000000" stroke="#000000" points="1372.4113,-152.5001 1362.4113,-156 1372.4112,-159.5001 1372.4113,-152.5001"/>
</g>
<!-- ConstraintRulesModule -->
<g id="node9" class="node">
<title>ConstraintRulesModule</title>
<polygon fill="#8dd3c7" stroke="#000000" points="1516.7646,-122 1513.7646,-126 1492.7646,-126 1489.7646,-122 1367.2354,-122 1367.2354,-86 1516.7646,-86 1516.7646,-122"/>
<text text-anchor="middle" x="1442" y="-99.8" font-family="Times,serif" font-size="14.00" fill="#000000">ConstraintRulesModule</text>
</g>
<!-- ConstraintRulesModule&#45;&gt;ProductDetailsModule -->
<g id="edge8" class="edge">
<title>ConstraintRulesModule&#45;&gt;ProductDetailsModule</title>
<path fill="none" stroke="#000000" d="M1367.2259,-104C1360.1603,-104 1355.5695,-104 1355.5695,-104 1355.5695,-104 1355.5695,-140.8939 1355.5695,-140.8939"/>
<polygon fill="#000000" stroke="#000000" points="1352.0695,-140.8938 1355.5695,-150.8939 1359.0695,-140.8939 1352.0695,-140.8938"/>
</g>
<!-- InputDateModule -->
<g id="node10" class="node">
<title>InputDateModule</title>
<polygon fill="#8dd3c7" stroke="#000000" points="1348.5284,-122 1345.5284,-126 1324.5284,-126 1321.5284,-122 1233.4716,-122 1233.4716,-86 1348.5284,-86 1348.5284,-122"/>
<text text-anchor="middle" x="1291" y="-99.8" font-family="Times,serif" font-size="14.00" fill="#000000">InputDateModule</text>
</g>
<!-- InputDateModule&#45;&gt;ProductDetailsModule -->
<g id="edge9" class="edge">
<title>InputDateModule&#45;&gt;ProductDetailsModule</title>
<path fill="none" stroke="#000000" d="M1291,-122.1061C1291,-122.1061 1291,-140.991 1291,-140.991"/>
<polygon fill="#000000" stroke="#000000" points="1287.5001,-140.9909 1291,-150.991 1294.5001,-140.991 1287.5001,-140.9909"/>
</g>
<!-- MdSpinnerModule -->
<g id="node11" class="node">
<title>MdSpinnerModule</title>
<polygon fill="#8dd3c7" stroke="#000000" points="1215.0436,-122 1212.0436,-126 1191.0436,-126 1188.0436,-122 1092.9564,-122 1092.9564,-86 1215.0436,-86 1215.0436,-122"/>
<text text-anchor="middle" x="1154" y="-99.8" font-family="Times,serif" font-size="14.00" fill="#000000">MdSpinnerModule</text>
</g>
<!-- MdSpinnerModule&#45;&gt;ProductDetailsModule -->
<g id="edge10" class="edge">
<title>MdSpinnerModule&#45;&gt;ProductDetailsModule</title>
<path fill="none" stroke="#000000" d="M1215.1133,-104C1221.9036,-104 1226.4306,-104 1226.4306,-104 1226.4306,-104 1226.4306,-140.8939 1226.4306,-140.8939"/>
<polygon fill="#000000" stroke="#000000" points="1222.9306,-140.8938 1226.4306,-150.8939 1229.9306,-140.8939 1222.9306,-140.8938"/>
</g>
<!-- PriceModule -->
<g id="node12" class="node">
<title>PriceModule</title>
<polygon fill="#8dd3c7" stroke="#000000" points="1075.3134,-122 1072.3134,-126 1051.3134,-126 1048.3134,-122 986.6866,-122 986.6866,-86 1075.3134,-86 1075.3134,-122"/>
<text text-anchor="middle" x="1031" y="-99.8" font-family="Times,serif" font-size="14.00" fill="#000000">PriceModule</text>
</g>
<!-- PriceModule&#45;&gt;ProductDetailsModule -->
<g id="edge11" class="edge">
<title>PriceModule&#45;&gt;ProductDetailsModule</title>
<path fill="none" stroke="#000000" d="M1031,-122.1871C1031,-137.1824 1031,-156 1031,-156 1031,-156 1209.61,-156 1209.61,-156"/>
<polygon fill="#000000" stroke="#000000" points="1209.61,-159.5001 1219.61,-156 1209.6099,-152.5001 1209.61,-159.5001"/>
</g>
<!-- PricingModule -->
<g id="node13" class="node">
<title>PricingModule</title>
<polygon fill="#8dd3c7" stroke="#000000" points="968.9888,-122 965.9888,-126 944.9888,-126 941.9888,-122 869.0112,-122 869.0112,-86 968.9888,-86 968.9888,-122"/>
<text text-anchor="middle" x="919" y="-99.8" font-family="Times,serif" font-size="14.00" fill="#000000">PricingModule</text>
</g>
<!-- PricingModule&#45;&gt;ProductDetailsModule -->
<g id="edge12" class="edge">
<title>PricingModule&#45;&gt;ProductDetailsModule</title>
<path fill="none" stroke="#000000" d="M919,-122.027C919,-138.3976 919,-160 919,-160 919,-160 1209.7148,-160 1209.7148,-160"/>
<polygon fill="#000000" stroke="#000000" points="1209.7148,-163.5001 1219.7148,-160 1209.7148,-156.5001 1209.7148,-163.5001"/>
</g>
<!-- ProductCarouselModule -->
<g id="node14" class="node">
<title>ProductCarouselModule</title>
<polygon fill="#8dd3c7" stroke="#000000" points="851.3599,-122 848.3599,-126 827.3599,-126 824.3599,-122 698.6401,-122 698.6401,-86 851.3599,-86 851.3599,-122"/>
<text text-anchor="middle" x="775" y="-99.8" font-family="Times,serif" font-size="14.00" fill="#000000">ProductCarouselModule</text>
</g>
<!-- ProductCarouselModule&#45;&gt;ProductDetailsModule -->
<g id="edge13" class="edge">
<title>ProductCarouselModule&#45;&gt;ProductDetailsModule</title>
<path fill="none" stroke="#000000" d="M775,-122.302C775,-140.2699 775,-165 775,-165 775,-165 1209.5235,-165 1209.5235,-165"/>
<polygon fill="#000000" stroke="#000000" points="1209.5235,-168.5001 1219.5235,-165 1209.5234,-161.5001 1209.5235,-168.5001"/>
</g>
<!-- ProductConfigurationModule -->
<g id="node15" class="node">
<title>ProductConfigurationModule</title>
<polygon fill="#8dd3c7" stroke="#000000" points="680.6428,-122 677.6428,-126 656.6428,-126 653.6428,-122 499.3572,-122 499.3572,-86 680.6428,-86 680.6428,-122"/>
<text text-anchor="middle" x="590" y="-99.8" font-family="Times,serif" font-size="14.00" fill="#000000">ProductConfigurationModule</text>
</g>
<!-- ProductConfigurationModule&#45;&gt;ProductDetailsModule -->
<g id="edge14" class="edge">
<title>ProductConfigurationModule&#45;&gt;ProductDetailsModule</title>
<path fill="none" stroke="#000000" d="M590,-122.1061C590,-141.3391 590,-169 590,-169 590,-169 1209.6011,-169 1209.6011,-169"/>
<polygon fill="#000000" stroke="#000000" points="1209.6012,-172.5001 1219.6011,-169 1209.6011,-165.5001 1209.6012,-172.5001"/>
</g>
<!-- ProductDetailsRoutingModule -->
<g id="node16" class="node">
<title>ProductDetailsRoutingModule</title>
<polygon fill="#8dd3c7" stroke="#000000" points="480.8682,-122 477.8682,-126 456.8682,-126 453.8682,-122 293.1318,-122 293.1318,-86 480.8682,-86 480.8682,-122"/>
<text text-anchor="middle" x="387" y="-99.8" font-family="Times,serif" font-size="14.00" fill="#000000">ProductDetailsRoutingModule</text>
</g>
<!-- ProductDetailsRoutingModule&#45;&gt;ProductDetailsModule -->
<g id="edge15" class="edge">
<title>ProductDetailsRoutingModule&#45;&gt;ProductDetailsModule</title>
<path fill="none" stroke="#000000" d="M387,-122.0267C387,-142.7672 387,-174 387,-174 387,-174 1209.6872,-174 1209.6872,-174"/>
<polygon fill="#000000" stroke="#000000" points="1209.6873,-177.5001 1219.6872,-174 1209.6872,-170.5001 1209.6873,-177.5001"/>
</g>
<!-- ProductImagesModule -->
<g id="node17" class="node">
<title>ProductImagesModule</title>
<polygon fill="#8dd3c7" stroke="#000000" points="274.524,-122 271.524,-126 250.524,-126 247.524,-122 131.476,-122 131.476,-86 274.524,-86 274.524,-122"/>
<text text-anchor="middle" x="203" y="-99.8" font-family="Times,serif" font-size="14.00" fill="#000000">ProductImagesModule</text>
</g>
<!-- ProductImagesModule&#45;&gt;ProductDetailsModule -->
<g id="edge16" class="edge">
<title>ProductImagesModule&#45;&gt;ProductDetailsModule</title>
<path fill="none" stroke="#000000" d="M203,-122.2921C203,-144.2057 203,-178 203,-178 203,-178 1209.6133,-178 1209.6133,-178"/>
<polygon fill="#000000" stroke="#000000" points="1209.6133,-181.5001 1219.6133,-178 1209.6132,-174.5001 1209.6133,-181.5001"/>
</g>
<!-- StoreModule -->
<g id="node18" class="node">
<title>StoreModule</title>
<polygon fill="#8dd3c7" stroke="#000000" points="113.5983,-122 110.5983,-126 89.5983,-126 86.5983,-122 24.4017,-122 24.4017,-86 113.5983,-86 113.5983,-122"/>
<text text-anchor="middle" x="69" y="-99.8" font-family="Times,serif" font-size="14.00" fill="#000000">StoreModule</text>
</g>
<!-- StoreModule&#45;&gt;ProductDetailsModule -->
<g id="edge17" class="edge">
<title>StoreModule&#45;&gt;ProductDetailsModule</title>
<path fill="none" stroke="#000000" d="M69,-122.3228C69,-145.6602 69,-183 69,-183 69,-183 1209.57,-183 1209.57,-183"/>
<polygon fill="#000000" stroke="#000000" points="1209.57,-186.5001 1219.57,-183 1209.5699,-179.5001 1209.57,-186.5001"/>
</g>
</g>
</svg>
