<?xml version="1.0" encoding="UTF-8" standalone="no"?>
<!DOCTYPE svg PUBLIC "-//W3C//DTD SVG 1.1//EN"
 "http://www.w3.org/Graphics/SVG/1.1/DTD/svg11.dtd">
<!-- Generated by graphviz version 2.40.1 (20161225.0304)
 -->
<!-- Title: dependencies Pages: 1 -->
<svg width="704pt" height="211pt"
 viewBox="0.00 0.00 704.00 211.00" xmlns="http://www.w3.org/2000/svg" xmlns:xlink="http://www.w3.org/1999/xlink">
<g id="graph0" class="graph" transform="scale(1 1) rotate(0) translate(4 207)">
<title>dependencies</title>
<polygon fill="#ffffff" stroke="transparent" points="-4,4 -4,-207 700,-207 700,4 -4,4"/>
<text text-anchor="start" x="327.0091" y="-42.4" font-family="sans-serif" font-weight="bold" font-size="14.00" fill="#000000">Legend</text>
<polygon fill="#ffffb3" stroke="transparent" points="114,-10 114,-30 134,-30 134,-10 114,-10"/>
<text text-anchor="start" x="137.629" y="-15.4" font-family="sans-serif" font-size="14.00" fill="#000000"> &#160;Declarations</text>
<polygon fill="#8dd3c7" stroke="transparent" points="227,-10 227,-30 247,-30 247,-10 227,-10"/>
<text text-anchor="start" x="250.7251" y="-15.4" font-family="sans-serif" font-size="14.00" fill="#000000"> &#160;Module</text>
<polygon fill="#80b1d3" stroke="transparent" points="313,-10 313,-30 333,-30 333,-10 313,-10"/>
<text text-anchor="start" x="336.7812" y="-15.4" font-family="sans-serif" font-size="14.00" fill="#000000"> &#160;Bootstrap</text>
<polygon fill="#fdb462" stroke="transparent" points="410,-10 410,-30 430,-30 430,-10 410,-10"/>
<text text-anchor="start" x="433.6732" y="-15.4" font-family="sans-serif" font-size="14.00" fill="#000000"> &#160;Providers</text>
<polygon fill="#fb8072" stroke="transparent" points="506,-10 506,-30 526,-30 526,-10 506,-10"/>
<text text-anchor="start" x="529.7258" y="-15.4" font-family="sans-serif" font-size="14.00" fill="#000000"> &#160;Exports</text>
<g id="clust1" class="cluster">
<title>cluster_ProductDetailsModule</title>
<polygon fill="none" stroke="#000000" stroke-dasharray="1,5" points="8,-70 8,-195 688,-195 688,-70 8,-70"/>
</g>
<g id="clust2" class="cluster">
<title>cluster_ProductDetailsModule_declarations</title>
<polygon fill="none" stroke="#000000" points="140,-78 140,-130 680,-130 680,-78 140,-78"/>
</g>
<g id="clust6" class="cluster">
<title>cluster_ProductDetailsModule_imports</title>
<polygon fill="none" stroke="#000000" points="16,-78 16,-130 132,-130 132,-78 16,-78"/>
</g>
<!-- ProductDetailsComponent -->
<g id="node1" class="node">
<title>ProductDetailsComponent</title>
<polygon fill="#ffffb3" stroke="#000000" points="672.0337,-122 507.9663,-122 507.9663,-86 672.0337,-86 672.0337,-122"/>
<text text-anchor="middle" x="590" y="-99.8" font-family="Times,serif" font-size="14.00" fill="#000000">ProductDetailsComponent</text>
</g>
<!-- ProductDetailsModule -->
<g id="node4" class="node">
<title>ProductDetailsModule</title>
<polygon fill="#8dd3c7" stroke="#000000" points="384.2506,-187 381.2506,-191 360.2506,-191 357.2506,-187 241.7494,-187 241.7494,-151 384.2506,-151 384.2506,-187"/>
<text text-anchor="middle" x="313" y="-164.8" font-family="Times,serif" font-size="14.00" fill="#000000">ProductDetailsModule</text>
</g>
<!-- ProductDetailsComponent&#45;&gt;ProductDetailsModule -->
<g id="edge1" class="edge">
<title>ProductDetailsComponent&#45;&gt;ProductDetailsModule</title>
<path fill="none" stroke="#000000" d="M590,-122.1061C590,-141.3391 590,-169 590,-169 590,-169 394.3344,-169 394.3344,-169"/>
<polygon fill="#000000" stroke="#000000" points="394.3344,-165.5001 384.3344,-169 394.3343,-172.5001 394.3344,-165.5001"/>
</g>
<!-- TabAttachmentsComponent -->
<g id="node2" class="node">
<title>TabAttachmentsComponent</title>
<polygon fill="#ffffb3" stroke="#000000" points="489.8571,-122 316.1429,-122 316.1429,-86 489.8571,-86 489.8571,-122"/>
<text text-anchor="middle" x="403" y="-99.8" font-family="Times,serif" font-size="14.00" fill="#000000">TabAttachmentsComponent</text>
</g>
<!-- TabAttachmentsComponent&#45;&gt;ProductDetailsModule -->
<g id="edge2" class="edge">
<title>TabAttachmentsComponent&#45;&gt;ProductDetailsModule</title>
<path fill="none" stroke="#000000" d="M350.2234,-122.1061C350.2234,-122.1061 350.2234,-140.991 350.2234,-140.991"/>
<polygon fill="#000000" stroke="#000000" points="346.7234,-140.9909 350.2234,-150.991 353.7234,-140.991 346.7234,-140.9909"/>
</g>
<!-- TabFeaturesComponent -->
<g id="node3" class="node">
<title>TabFeaturesComponent</title>
<polygon fill="#ffffb3" stroke="#000000" points="298.0226,-122 147.9774,-122 147.9774,-86 298.0226,-86 298.0226,-122"/>
<text text-anchor="middle" x="223" y="-99.8" font-family="Times,serif" font-size="14.00" fill="#000000">TabFeaturesComponent</text>
</g>
<!-- TabFeaturesComponent&#45;&gt;ProductDetailsModule -->
<g id="edge3" class="edge">
<title>TabFeaturesComponent&#45;&gt;ProductDetailsModule</title>
<path fill="none" stroke="#000000" d="M269.9429,-122.1061C269.9429,-122.1061 269.9429,-140.991 269.9429,-140.991"/>
<polygon fill="#000000" stroke="#000000" points="266.4429,-140.9909 269.9429,-150.991 273.4429,-140.991 266.4429,-140.9909"/>
</g>
<!-- PricingModule -->
<g id="node5" class="node">
<title>PricingModule</title>
<polygon fill="#8dd3c7" stroke="#000000" points="123.9888,-122 120.9888,-126 99.9888,-126 96.9888,-122 24.0112,-122 24.0112,-86 123.9888,-86 123.9888,-122"/>
<text text-anchor="middle" x="74" y="-99.8" font-family="Times,serif" font-size="14.00" fill="#000000">PricingModule</text>
</g>
<!-- PricingModule&#45;&gt;ProductDetailsModule -->
<g id="edge4" class="edge">
<title>PricingModule&#45;&gt;ProductDetailsModule</title>
<path fill="none" stroke="#000000" d="M74,-122.1061C74,-141.3391 74,-169 74,-169 74,-169 231.6159,-169 231.6159,-169"/>
<polygon fill="#000000" stroke="#000000" points="231.6159,-172.5001 241.6159,-169 231.6158,-165.5001 231.6159,-172.5001"/>
</g>
</g>
</svg>
