<?xml version="1.0" encoding="UTF-8" standalone="no"?>
<!DOCTYPE svg PUBLIC "-//W3C//DTD SVG 1.1//EN"
 "http://www.w3.org/Graphics/SVG/1.1/DTD/svg11.dtd">
<!-- Generated by graphviz version 2.40.1 (20161225.0304)
 -->
<!-- Title: dependencies Pages: 1 -->
<svg width="2095pt" height="211pt"
 viewBox="0.00 0.00 2095.00 211.00" xmlns="http://www.w3.org/2000/svg" xmlns:xlink="http://www.w3.org/1999/xlink">
<g id="graph0" class="graph" transform="scale(1 1) rotate(0) translate(4 207)">
<title>dependencies</title>
<polygon fill="#ffffff" stroke="transparent" points="-4,4 -4,-207 2091,-207 2091,4 -4,4"/>
<text text-anchor="start" x="1022.5091" y="-42.4" font-family="sans-serif" font-weight="bold" font-size="14.00" fill="#000000">Legend</text>
<polygon fill="#ffffb3" stroke="transparent" points="809.5,-10 809.5,-30 829.5,-30 829.5,-10 809.5,-10"/>
<text text-anchor="start" x="833.129" y="-15.4" font-family="sans-serif" font-size="14.00" fill="#000000"> &#160;Declarations</text>
<polygon fill="#8dd3c7" stroke="transparent" points="922.5,-10 922.5,-30 942.5,-30 942.5,-10 922.5,-10"/>
<text text-anchor="start" x="946.2251" y="-15.4" font-family="sans-serif" font-size="14.00" fill="#000000"> &#160;Module</text>
<polygon fill="#80b1d3" stroke="transparent" points="1008.5,-10 1008.5,-30 1028.5,-30 1028.5,-10 1008.5,-10"/>
<text text-anchor="start" x="1032.2812" y="-15.4" font-family="sans-serif" font-size="14.00" fill="#000000"> &#160;Bootstrap</text>
<polygon fill="#fdb462" stroke="transparent" points="1105.5,-10 1105.5,-30 1125.5,-30 1125.5,-10 1105.5,-10"/>
<text text-anchor="start" x="1129.1732" y="-15.4" font-family="sans-serif" font-size="14.00" fill="#000000"> &#160;Providers</text>
<polygon fill="#fb8072" stroke="transparent" points="1201.5,-10 1201.5,-30 1221.5,-30 1221.5,-10 1201.5,-10"/>
<text text-anchor="start" x="1225.2258" y="-15.4" font-family="sans-serif" font-size="14.00" fill="#000000"> &#160;Exports</text>
<g id="clust1" class="cluster">
<title>cluster_ProductDetailsModule</title>
<polygon fill="none" stroke="#000000" stroke-dasharray="1,5" points="8,-70 8,-195 2079,-195 2079,-70 8,-70"/>
</g>
<g id="clust2" class="cluster">
<title>cluster_ProductDetailsModule_declarations</title>
<polygon fill="none" stroke="#000000" points="957,-78 957,-130 2071,-130 2071,-78 957,-78"/>
</g>
<g id="clust9" class="cluster">
<title>cluster_ProductDetailsModule_imports</title>
<polygon fill="none" stroke="#000000" points="16,-78 16,-130 949,-130 949,-78 16,-78"/>
</g>
<!-- BreadcrumbComponent -->
<g id="node1" class="node">
<title>BreadcrumbComponent</title>
<polygon fill="#ffffb3" stroke="#000000" points="2063.0253,-122 1912.9747,-122 1912.9747,-86 2063.0253,-86 2063.0253,-122"/>
<text text-anchor="middle" x="1988" y="-99.8" font-family="Times,serif" font-size="14.00" fill="#000000">BreadcrumbComponent</text>
</g>
<!-- ProductDetailsModule -->
<g id="node7" class="node">
<title>ProductDetailsModule</title>
<polygon fill="#8dd3c7" stroke="#000000" points="964.2506,-187 961.2506,-191 940.2506,-191 937.2506,-187 821.7494,-187 821.7494,-151 964.2506,-151 964.2506,-187"/>
<text text-anchor="middle" x="893" y="-164.8" font-family="Times,serif" font-size="14.00" fill="#000000">ProductDetailsModule</text>
</g>
<!-- BreadcrumbComponent&#45;&gt;ProductDetailsModule -->
<g id="edge1" class="edge">
<title>BreadcrumbComponent&#45;&gt;ProductDetailsModule</title>
<path fill="none" stroke="#000000" d="M1988,-122.0908C1988,-145.1328 1988,-182 1988,-182 1988,-182 974.4236,-182 974.4236,-182"/>
<polygon fill="#000000" stroke="#000000" points="974.4237,-178.5001 964.4236,-182 974.4236,-185.5001 974.4237,-178.5001"/>
</g>
<!-- ProductDetailsComponent -->
<g id="node2" class="node">
<title>ProductDetailsComponent</title>
<polygon fill="#ffffb3" stroke="#000000" points="1894.0337,-122 1729.9663,-122 1729.9663,-86 1894.0337,-86 1894.0337,-122"/>
<text text-anchor="middle" x="1812" y="-99.8" font-family="Times,serif" font-size="14.00" fill="#000000">ProductDetailsComponent</text>
</g>
<!-- ProductDetailsComponent&#45;&gt;ProductDetailsModule -->
<g id="edge2" class="edge">
<title>ProductDetailsComponent&#45;&gt;ProductDetailsModule</title>
<path fill="none" stroke="#000000" d="M1812,-122.2843C1812,-143.3211 1812,-175 1812,-175 1812,-175 974.3477,-175 974.3477,-175"/>
<polygon fill="#000000" stroke="#000000" points="974.3477,-171.5001 964.3477,-175 974.3476,-178.5001 974.3477,-171.5001"/>
</g>
<!-- ProductImagesComponent -->
<g id="node3" class="node">
<title>ProductImagesComponent</title>
<polygon fill="#ffffb3" stroke="#000000" points="1711.8061,-122 1546.1939,-122 1546.1939,-86 1711.8061,-86 1711.8061,-122"/>
<text text-anchor="middle" x="1629" y="-99.8" font-family="Times,serif" font-size="14.00" fill="#000000">ProductImagesComponent</text>
</g>
<!-- ProductImagesComponent&#45;&gt;ProductDetailsModule -->
<g id="edge3" class="edge">
<title>ProductImagesComponent&#45;&gt;ProductDetailsModule</title>
<path fill="none" stroke="#000000" d="M1629,-122.1061C1629,-141.3391 1629,-169 1629,-169 1629,-169 974.5749,-169 974.5749,-169"/>
<polygon fill="#000000" stroke="#000000" points="974.5749,-165.5001 964.5749,-169 974.5748,-172.5001 974.5749,-165.5001"/>
</g>
<!-- ProductReplacementsComponent -->
<g id="node4" class="node">
<title>ProductReplacementsComponent</title>
<polygon fill="#ffffb3" stroke="#000000" points="1528.9072,-122 1325.0928,-122 1325.0928,-86 1528.9072,-86 1528.9072,-122"/>
<text text-anchor="middle" x="1427" y="-99.8" font-family="Times,serif" font-size="14.00" fill="#000000">ProductReplacementsComponent</text>
</g>
<!-- ProductReplacementsComponent&#45;&gt;ProductDetailsModule -->
<g id="edge4" class="edge">
<title>ProductReplacementsComponent&#45;&gt;ProductDetailsModule</title>
<path fill="none" stroke="#000000" d="M1427,-122.0225C1427,-139.3734 1427,-163 1427,-163 1427,-163 974.4635,-163 974.4635,-163"/>
<polygon fill="#000000" stroke="#000000" points="974.4636,-159.5001 964.4635,-163 974.4635,-166.5001 974.4636,-159.5001"/>
</g>
<!-- TabAttachmentsComponent -->
<g id="node5" class="node">
<title>TabAttachmentsComponent</title>
<polygon fill="#ffffb3" stroke="#000000" points="1306.8571,-122 1133.1429,-122 1133.1429,-86 1306.8571,-86 1306.8571,-122"/>
<text text-anchor="middle" x="1220" y="-99.8" font-family="Times,serif" font-size="14.00" fill="#000000">TabAttachmentsComponent</text>
</g>
<!-- TabAttachmentsComponent&#45;&gt;ProductDetailsModule -->
<g id="edge5" class="edge">
<title>TabAttachmentsComponent&#45;&gt;ProductDetailsModule</title>
<path fill="none" stroke="#000000" d="M1220,-122.2396C1220,-137.5706 1220,-157 1220,-157 1220,-157 974.3575,-157 974.3575,-157"/>
<polygon fill="#000000" stroke="#000000" points="974.3575,-153.5001 964.3575,-157 974.3574,-160.5001 974.3575,-153.5001"/>
</g>
<!-- TabFeaturesComponent -->
<g id="node6" class="node">
<title>TabFeaturesComponent</title>
<polygon fill="#ffffb3" stroke="#000000" points="1115.0226,-122 964.9774,-122 964.9774,-86 1115.0226,-86 1115.0226,-122"/>
<text text-anchor="middle" x="1040" y="-99.8" font-family="Times,serif" font-size="14.00" fill="#000000">TabFeaturesComponent</text>
</g>
<!-- TabFeaturesComponent&#45;&gt;ProductDetailsModule -->
<g id="edge6" class="edge">
<title>TabFeaturesComponent&#45;&gt;ProductDetailsModule</title>
<path fill="none" stroke="#000000" d="M964.6537,-104C957.5341,-104 952.9082,-104 952.9082,-104 952.9082,-104 952.9082,-140.8939 952.9082,-140.8939"/>
<polygon fill="#000000" stroke="#000000" points="949.4082,-140.8938 952.9082,-150.8939 956.4082,-140.8939 949.4082,-140.8938"/>
</g>
<!-- ApttusModule -->
<g id="node8" class="node">
<title>ApttusModule</title>
<polygon fill="#8dd3c7" stroke="#000000" points="941.3823,-122 938.3823,-126 917.3823,-126 914.3823,-122 844.6177,-122 844.6177,-86 941.3823,-86 941.3823,-122"/>
<text text-anchor="middle" x="893" y="-99.8" font-family="Times,serif" font-size="14.00" fill="#000000">ApttusModule</text>
</g>
<!-- ApttusModule&#45;&gt;ProductDetailsModule -->
<g id="edge7" class="edge">
<title>ApttusModule&#45;&gt;ProductDetailsModule</title>
<path fill="none" stroke="#000000" d="M893,-122.1061C893,-122.1061 893,-140.991 893,-140.991"/>
<polygon fill="#000000" stroke="#000000" points="889.5001,-140.9909 893,-150.991 896.5001,-140.991 889.5001,-140.9909"/>
</g>
<!-- CartModule -->
<g id="node9" class="node">
<title>CartModule</title>
<polygon fill="#8dd3c7" stroke="#000000" points="826.6529,-122 823.6529,-126 802.6529,-126 799.6529,-122 743.3471,-122 743.3471,-86 826.6529,-86 826.6529,-122"/>
<text text-anchor="middle" x="785" y="-99.8" font-family="Times,serif" font-size="14.00" fill="#000000">CartModule</text>
</g>
<!-- CartModule&#45;&gt;ProductDetailsModule -->
<g id="edge8" class="edge">
<title>CartModule&#45;&gt;ProductDetailsModule</title>
<path fill="none" stroke="#000000" d="M826.8625,-104C832.1158,-104 835.6925,-104 835.6925,-104 835.6925,-104 835.6925,-140.8939 835.6925,-140.8939"/>
<polygon fill="#000000" stroke="#000000" points="832.1926,-140.8938 835.6925,-150.8939 839.1926,-140.8939 832.1926,-140.8938"/>
</g>
<!-- CatalogModule -->
<g id="node10" class="node">
<title>CatalogModule</title>
<polygon fill="#8dd3c7" stroke="#000000" points="725.5968,-122 722.5968,-126 701.5968,-126 698.5968,-122 622.4032,-122 622.4032,-86 725.5968,-86 725.5968,-122"/>
<text text-anchor="middle" x="674" y="-99.8" font-family="Times,serif" font-size="14.00" fill="#000000">CatalogModule</text>
</g>
<!-- CatalogModule&#45;&gt;ProductDetailsModule -->
<g id="edge9" class="edge">
<title>CatalogModule&#45;&gt;ProductDetailsModule</title>
<path fill="none" stroke="#000000" d="M674,-122.2396C674,-137.5706 674,-157 674,-157 674,-157 811.5942,-157 811.5942,-157"/>
<polygon fill="#000000" stroke="#000000" points="811.5943,-160.5001 821.5942,-157 811.5942,-153.5001 811.5943,-160.5001"/>
</g>
<!-- ConstraintRulesModule -->
<g id="node11" class="node">
<title>ConstraintRulesModule</title>
<polygon fill="#8dd3c7" stroke="#000000" points="604.7646,-122 601.7646,-126 580.7646,-126 577.7646,-122 455.2354,-122 455.2354,-86 604.7646,-86 604.7646,-122"/>
<text text-anchor="middle" x="530" y="-99.8" font-family="Times,serif" font-size="14.00" fill="#000000">ConstraintRulesModule</text>
</g>
<!-- ConstraintRulesModule&#45;&gt;ProductDetailsModule -->
<g id="edge10" class="edge">
<title>ConstraintRulesModule&#45;&gt;ProductDetailsModule</title>
<path fill="none" stroke="#000000" d="M530,-122.0225C530,-139.3734 530,-163 530,-163 530,-163 811.716,-163 811.716,-163"/>
<polygon fill="#000000" stroke="#000000" points="811.716,-166.5001 821.716,-163 811.716,-159.5001 811.716,-166.5001"/>
</g>
<!-- PricingModule -->
<g id="node12" class="node">
<title>PricingModule</title>
<polygon fill="#8dd3c7" stroke="#000000" points="436.9888,-122 433.9888,-126 412.9888,-126 409.9888,-122 337.0112,-122 337.0112,-86 436.9888,-86 436.9888,-122"/>
<text text-anchor="middle" x="387" y="-99.8" font-family="Times,serif" font-size="14.00" fill="#000000">PricingModule</text>
</g>
<!-- PricingModule&#45;&gt;ProductDetailsModule -->
<g id="edge11" class="edge">
<title>PricingModule&#45;&gt;ProductDetailsModule</title>
<path fill="none" stroke="#000000" d="M387,-122.1061C387,-141.3391 387,-169 387,-169 387,-169 811.5758,-169 811.5758,-169"/>
<polygon fill="#000000" stroke="#000000" points="811.5758,-172.5001 821.5758,-169 811.5757,-165.5001 811.5758,-172.5001"/>
</g>
<!-- ProductDetailsRoutingModule -->
<g id="node13" class="node">
<title>ProductDetailsRoutingModule</title>
<polygon fill="#8dd3c7" stroke="#000000" points="318.8682,-122 315.8682,-126 294.8682,-126 291.8682,-122 131.1318,-122 131.1318,-86 318.8682,-86 318.8682,-122"/>
<text text-anchor="middle" x="225" y="-99.8" font-family="Times,serif" font-size="14.00" fill="#000000">ProductDetailsRoutingModule</text>
</g>
<!-- ProductDetailsRoutingModule&#45;&gt;ProductDetailsModule -->
<g id="edge12" class="edge">
<title>ProductDetailsRoutingModule&#45;&gt;ProductDetailsModule</title>
<path fill="none" stroke="#000000" d="M225,-122.2843C225,-143.3211 225,-175 225,-175 225,-175 811.5123,-175 811.5123,-175"/>
<polygon fill="#000000" stroke="#000000" points="811.5123,-178.5001 821.5123,-175 811.5123,-171.5001 811.5123,-178.5001"/>
</g>
<!-- StoreModule -->
<g id="node14" class="node">
<title>StoreModule</title>
<polygon fill="#8dd3c7" stroke="#000000" points="113.5983,-122 110.5983,-126 89.5983,-126 86.5983,-122 24.4017,-122 24.4017,-86 113.5983,-86 113.5983,-122"/>
<text text-anchor="middle" x="69" y="-99.8" font-family="Times,serif" font-size="14.00" fill="#000000">StoreModule</text>
</g>
<!-- StoreModule&#45;&gt;ProductDetailsModule -->
<g id="edge13" class="edge">
<title>StoreModule&#45;&gt;ProductDetailsModule</title>
<path fill="none" stroke="#000000" d="M69,-122.0908C69,-145.1328 69,-182 69,-182 69,-182 811.6753,-182 811.6753,-182"/>
<polygon fill="#000000" stroke="#000000" points="811.6754,-185.5001 821.6753,-182 811.6753,-178.5001 811.6754,-185.5001"/>
</g>
</g>
</svg>
