<?xml version="1.0" encoding="UTF-8" standalone="no"?>
<!DOCTYPE svg PUBLIC "-//W3C//DTD SVG 1.1//EN"
 "http://www.w3.org/Graphics/SVG/1.1/DTD/svg11.dtd">
<!-- Generated by graphviz version 2.40.1 (20161225.0304)
 -->
<!-- Title: dependencies Pages: 1 -->
<svg width="504pt" height="211pt"
 viewBox="0.00 0.00 504.00 211.00" xmlns="http://www.w3.org/2000/svg" xmlns:xlink="http://www.w3.org/1999/xlink">
<g id="graph0" class="graph" transform="scale(1 1) rotate(0) translate(4 207)">
<title>dependencies</title>
<polygon fill="#ffffff" stroke="transparent" points="-4,4 -4,-207 500,-207 500,4 -4,4"/>
<text text-anchor="start" x="227.0091" y="-42.4" font-family="sans-serif" font-weight="bold" font-size="14.00" fill="#000000">Legend</text>
<polygon fill="#ffffb3" stroke="transparent" points="14,-10 14,-30 34,-30 34,-10 14,-10"/>
<text text-anchor="start" x="37.629" y="-15.4" font-family="sans-serif" font-size="14.00" fill="#000000"> &#160;Declarations</text>
<polygon fill="#8dd3c7" stroke="transparent" points="127,-10 127,-30 147,-30 147,-10 127,-10"/>
<text text-anchor="start" x="150.7251" y="-15.4" font-family="sans-serif" font-size="14.00" fill="#000000"> &#160;Module</text>
<polygon fill="#80b1d3" stroke="transparent" points="213,-10 213,-30 233,-30 233,-10 213,-10"/>
<text text-anchor="start" x="236.7812" y="-15.4" font-family="sans-serif" font-size="14.00" fill="#000000"> &#160;Bootstrap</text>
<polygon fill="#fdb462" stroke="transparent" points="310,-10 310,-30 330,-30 330,-10 310,-10"/>
<text text-anchor="start" x="333.6732" y="-15.4" font-family="sans-serif" font-size="14.00" fill="#000000"> &#160;Providers</text>
<polygon fill="#fb8072" stroke="transparent" points="406,-10 406,-30 426,-30 426,-10 406,-10"/>
<text text-anchor="start" x="429.7258" y="-15.4" font-family="sans-serif" font-size="14.00" fill="#000000"> &#160;Exports</text>
<g id="clust1" class="cluster">
<title>cluster_OrderHistoryModule</title>
<polygon fill="none" stroke="#000000" stroke-dasharray="1,5" points="32,-70 32,-195 464,-195 464,-70 32,-70"/>
</g>
<g id="clust2" class="cluster">
<title>cluster_OrderHistoryModule_declarations</title>
<polygon fill="none" stroke="#000000" points="244,-78 244,-130 456,-130 456,-78 244,-78"/>
</g>
<g id="clust4" class="cluster">
<title>cluster_OrderHistoryModule_imports</title>
<polygon fill="none" stroke="#000000" points="40,-78 40,-130 236,-130 236,-78 40,-78"/>
</g>
<!-- OrderHistoryLayoutComponent -->
<g id="node1" class="node">
<title>OrderHistoryLayoutComponent</title>
<polygon fill="#ffffb3" stroke="#000000" points="447.626,-122 252.374,-122 252.374,-86 447.626,-86 447.626,-122"/>
<text text-anchor="middle" x="350" y="-99.8" font-family="Times,serif" font-size="14.00" fill="#000000">OrderHistoryLayoutComponent</text>
</g>
<!-- OrderHistoryModule -->
<g id="node2" class="node">
<title>OrderHistoryModule</title>
<polygon fill="#8dd3c7" stroke="#000000" points="311.1853,-187 308.1853,-191 287.1853,-191 284.1853,-187 176.8147,-187 176.8147,-151 311.1853,-151 311.1853,-187"/>
<text text-anchor="middle" x="244" y="-164.8" font-family="Times,serif" font-size="14.00" fill="#000000">OrderHistoryModule</text>
</g>
<!-- OrderHistoryLayoutComponent&#45;&gt;OrderHistoryModule -->
<g id="edge1" class="edge">
<title>OrderHistoryLayoutComponent&#45;&gt;OrderHistoryModule</title>
<path fill="none" stroke="#000000" d="M281.6399,-122.1061C281.6399,-122.1061 281.6399,-140.991 281.6399,-140.991"/>
<polygon fill="#000000" stroke="#000000" points="278.14,-140.9909 281.6399,-150.991 285.14,-140.991 278.14,-140.9909"/>
</g>
<!-- OrderHistoryRoutingModule -->
<g id="node3" class="node">
<title>OrderHistoryRoutingModule</title>
<polygon fill="#8dd3c7" stroke="#000000" points="227.8033,-122 224.8033,-126 203.8033,-126 200.8033,-122 48.1967,-122 48.1967,-86 227.8033,-86 227.8033,-122"/>
<text text-anchor="middle" x="138" y="-99.8" font-family="Times,serif" font-size="14.00" fill="#000000">OrderHistoryRoutingModule</text>
</g>
<!-- OrderHistoryRoutingModule&#45;&gt;OrderHistoryModule -->
<g id="edge2" class="edge">
<title>OrderHistoryRoutingModule&#45;&gt;OrderHistoryModule</title>
<path fill="none" stroke="#000000" d="M202.2795,-122.1061C202.2795,-122.1061 202.2795,-140.991 202.2795,-140.991"/>
<polygon fill="#000000" stroke="#000000" points="198.7795,-140.9909 202.2795,-150.991 205.7795,-140.991 198.7795,-140.9909"/>
</g>
</g>
</svg>
