<?xml version="1.0" encoding="UTF-8" standalone="no"?>
<!DOCTYPE svg PUBLIC "-//W3C//DTD SVG 1.1//EN"
 "http://www.w3.org/Graphics/SVG/1.1/DTD/svg11.dtd">
<!-- Generated by graphviz version 2.40.1 (20161225.0304)
 -->
<!-- Title: dependencies Pages: 1 -->
<svg width="830pt" height="396pt"
 viewBox="0.00 0.00 830.00 395.59" xmlns="http://www.w3.org/2000/svg" xmlns:xlink="http://www.w3.org/1999/xlink">
<g id="graph0" class="graph" transform="scale(1 1) rotate(0) translate(4 391.5901)">
<title>dependencies</title>
<polygon fill="#ffffff" stroke="transparent" points="-4,4 -4,-391.5901 826,-391.5901 826,4 -4,4"/>
<text text-anchor="start" x="390.0091" y="-42.4" font-family="sans-serif" font-weight="bold" font-size="14.00" fill="#000000">Legend</text>
<polygon fill="#ffffb3" stroke="transparent" points="177,-10 177,-30 197,-30 197,-10 177,-10"/>
<text text-anchor="start" x="200.629" y="-15.4" font-family="sans-serif" font-size="14.00" fill="#000000"> &#160;Declarations</text>
<polygon fill="#8dd3c7" stroke="transparent" points="290,-10 290,-30 310,-30 310,-10 290,-10"/>
<text text-anchor="start" x="313.7251" y="-15.4" font-family="sans-serif" font-size="14.00" fill="#000000"> &#160;Module</text>
<polygon fill="#80b1d3" stroke="transparent" points="376,-10 376,-30 396,-30 396,-10 376,-10"/>
<text text-anchor="start" x="399.7812" y="-15.4" font-family="sans-serif" font-size="14.00" fill="#000000"> &#160;Bootstrap</text>
<polygon fill="#fdb462" stroke="transparent" points="473,-10 473,-30 493,-30 493,-10 473,-10"/>
<text text-anchor="start" x="496.6732" y="-15.4" font-family="sans-serif" font-size="14.00" fill="#000000"> &#160;Providers</text>
<polygon fill="#fb8072" stroke="transparent" points="569,-10 569,-30 589,-30 589,-10 569,-10"/>
<text text-anchor="start" x="592.7258" y="-15.4" font-family="sans-serif" font-size="14.00" fill="#000000"> &#160;Exports</text>
<g id="clust1" class="cluster">
<title>cluster_DependentPicklistModule</title>
<polygon fill="none" stroke="#000000" stroke-dasharray="1,5" points="8,-70 8,-379.5901 814,-379.5901 814,-70 8,-70"/>
</g>
<g id="clust2" class="cluster">
<title>cluster_DependentPicklistModule_declarations</title>
<polygon fill="none" stroke="#000000" points="311,-189.5901 311,-241.5901 511,-241.5901 511,-189.5901 311,-189.5901"/>
</g>
<g id="clust3" class="cluster">
<title>cluster_DependentPicklistModule_DependentPicklistComponent_providers</title>
<polygon fill="none" stroke="#000000" points="16,-78 16,-176.5901 806,-176.5901 806,-78 16,-78"/>
</g>
<g id="clust5" class="cluster">
<title>cluster_DependentPicklistModule_exports</title>
<polygon fill="none" stroke="#000000" points="309,-319.5901 309,-371.5901 513,-371.5901 513,-319.5901 309,-319.5901"/>
</g>
<!-- DependentPicklistComponent -->
<g id="node1" class="node">
<title>DependentPicklistComponent</title>
<polygon fill="#ffffb3" stroke="#000000" points="502.9776,-233.5901 319.0224,-233.5901 319.0224,-197.5901 502.9776,-197.5901 502.9776,-233.5901"/>
<text text-anchor="middle" x="411" y="-211.3901" font-family="Times,serif" font-size="14.00" fill="#000000">DependentPicklistComponent</text>
</g>
<!-- DependentPicklistModule -->
<g id="node2" class="node">
<title>DependentPicklistModule</title>
<polygon fill="#8dd3c7" stroke="#000000" points="492.1951,-298.5901 489.1951,-302.5901 468.1951,-302.5901 465.1951,-298.5901 329.8049,-298.5901 329.8049,-262.5901 492.1951,-262.5901 492.1951,-298.5901"/>
<text text-anchor="middle" x="411" y="-276.3901" font-family="Times,serif" font-size="14.00" fill="#000000">DependentPicklistModule</text>
</g>
<!-- DependentPicklistComponent&#45;&gt;DependentPicklistModule -->
<g id="edge1" class="edge">
<title>DependentPicklistComponent&#45;&gt;DependentPicklistModule</title>
<path fill="none" stroke="#000000" d="M411,-233.6962C411,-233.6962 411,-252.581 411,-252.581"/>
<polygon fill="#000000" stroke="#000000" points="407.5001,-252.581 411,-262.581 414.5001,-252.5811 407.5001,-252.581"/>
</g>
<!-- DependentPicklistComponent  -->
<g id="node4" class="node">
<title>DependentPicklistComponent </title>
<polygon fill="#fb8072" stroke="#000000" points="504.9782,-363.5901 317.0218,-363.5901 317.0218,-327.5901 504.9782,-327.5901 504.9782,-363.5901"/>
<text text-anchor="middle" x="411" y="-341.3901" font-family="Times,serif" font-size="14.00" fill="#000000">DependentPicklistComponent </text>
</g>
<!-- DependentPicklistModule&#45;&gt;DependentPicklistComponent  -->
<g id="edge3" class="edge">
<title>DependentPicklistModule&#45;&gt;DependentPicklistComponent </title>
<path fill="none" stroke="#000000" stroke-dasharray="5,2" d="M411,-298.6962C411,-298.6962 411,-317.581 411,-317.581"/>
<polygon fill="#000000" stroke="#000000" points="407.5001,-317.581 411,-327.581 414.5001,-317.5811 407.5001,-317.581"/>
</g>
<!-- {
 &#160;&#160;&#160;provide: NG_VALUE_ACCESSOR, useExisting: DependentPicklistComponent, multi: true
} -->
<g id="node3" class="node">
<title>{
 &#160;&#160;&#160;provide: NG_VALUE_ACCESSOR, useExisting: DependentPicklistComponent, multi: true
}</title>
<ellipse fill="#fdb462" stroke="#000000" cx="411" cy="-127.295" rx="387.3536" ry="41.0911"/>
<text text-anchor="middle" x="411" y="-139.895" font-family="Times,serif" font-size="14.00" fill="#000000">{</text>
<text text-anchor="middle" x="411" y="-123.095" font-family="Times,serif" font-size="14.00" fill="#000000"> &#160;&#160;&#160;provide: NG_VALUE_ACCESSOR, useExisting: DependentPicklistComponent, multi: true</text>
<text text-anchor="middle" x="411" y="-106.295" font-family="Times,serif" font-size="14.00" fill="#000000">}</text>
</g>
<!-- {
 &#160;&#160;&#160;provide: NG_VALUE_ACCESSOR, useExisting: DependentPicklistComponent, multi: true
}&#45;&gt;DependentPicklistComponent -->
<g id="edge2" class="edge">
<title>{
 &#160;&#160;&#160;provide: NG_VALUE_ACCESSOR, useExisting: DependentPicklistComponent, multi: true
}&#45;&gt;DependentPicklistComponent</title>
<path fill="none" stroke="#000000" d="M411,-168.5989C411,-168.5989 411,-187.2551 411,-187.2551"/>
<polygon fill="#000000" stroke="#000000" points="407.5001,-187.255 411,-197.2551 414.5001,-187.2551 407.5001,-187.255"/>
</g>
</g>
</svg>
