<?xml version="1.0" encoding="UTF-8" standalone="no"?>
<!DOCTYPE svg PUBLIC "-//W3C//DTD SVG 1.1//EN"
 "http://www.w3.org/Graphics/SVG/1.1/DTD/svg11.dtd">
<!-- Generated by graphviz version 2.40.1 (20161225.0304)
 -->
<!-- Title: dependencies Pages: 1 -->
<svg width="518pt" height="284pt"
 viewBox="0.00 0.00 518.00 284.00" xmlns="http://www.w3.org/2000/svg" xmlns:xlink="http://www.w3.org/1999/xlink">
<g id="graph0" class="graph" transform="scale(1 1) rotate(0) translate(4 280)">
<title>dependencies</title>
<polygon fill="#ffffff" stroke="transparent" points="-4,4 -4,-280 514,-280 514,4 -4,4"/>
<text text-anchor="start" x="234.0091" y="-42.4" font-family="sans-serif" font-weight="bold" font-size="14.00" fill="#000000">Legend</text>
<polygon fill="#ffffb3" stroke="transparent" points="21,-10 21,-30 41,-30 41,-10 21,-10"/>
<text text-anchor="start" x="44.629" y="-15.4" font-family="sans-serif" font-size="14.00" fill="#000000"> &#160;Declarations</text>
<polygon fill="#8dd3c7" stroke="transparent" points="134,-10 134,-30 154,-30 154,-10 134,-10"/>
<text text-anchor="start" x="157.7251" y="-15.4" font-family="sans-serif" font-size="14.00" fill="#000000"> &#160;Module</text>
<polygon fill="#80b1d3" stroke="transparent" points="220,-10 220,-30 240,-30 240,-10 220,-10"/>
<text text-anchor="start" x="243.7812" y="-15.4" font-family="sans-serif" font-size="14.00" fill="#000000"> &#160;Bootstrap</text>
<polygon fill="#fdb462" stroke="transparent" points="317,-10 317,-30 337,-30 337,-10 317,-10"/>
<text text-anchor="start" x="340.6732" y="-15.4" font-family="sans-serif" font-size="14.00" fill="#000000"> &#160;Providers</text>
<polygon fill="#fb8072" stroke="transparent" points="413,-10 413,-30 433,-30 433,-10 413,-10"/>
<text text-anchor="start" x="436.7258" y="-15.4" font-family="sans-serif" font-size="14.00" fill="#000000"> &#160;Exports</text>
<g id="clust1" class="cluster">
<title>cluster_AptCartModule</title>
<polygon fill="none" stroke="#000000" stroke-dasharray="1,5" points="8,-70 8,-268 502,-268 502,-70 8,-70"/>
</g>
<g id="clust2" class="cluster">
<title>cluster_AptCartModule_declarations</title>
<polygon fill="none" stroke="#000000" points="182,-78 182,-130 494,-130 494,-78 182,-78"/>
</g>
<g id="clust5" class="cluster">
<title>cluster_AptCartModule_imports</title>
<polygon fill="none" stroke="#000000" points="16,-78 16,-130 174,-130 174,-78 16,-78"/>
</g>
<g id="clust6" class="cluster">
<title>cluster_AptCartModule_exports</title>
<polygon fill="none" stroke="#000000" points="98,-208 98,-260 416,-260 416,-208 98,-208"/>
</g>
<!-- AddToCartComponent -->
<g id="node1" class="node">
<title>AddToCartComponent</title>
<polygon fill="#ffffb3" stroke="#000000" points="485.594,-122 340.406,-122 340.406,-86 485.594,-86 485.594,-122"/>
<text text-anchor="middle" x="413" y="-99.8" font-family="Times,serif" font-size="14.00" fill="#000000">AddToCartComponent</text>
</g>
<!-- AptCartModule -->
<g id="node3" class="node">
<title>AptCartModule</title>
<polygon fill="#8dd3c7" stroke="#000000" points="308.15,-187 305.15,-191 284.15,-191 281.15,-187 203.85,-187 203.85,-151 308.15,-151 308.15,-187"/>
<text text-anchor="middle" x="256" y="-164.8" font-family="Times,serif" font-size="14.00" fill="#000000">AptCartModule</text>
</g>
<!-- AddToCartComponent&#45;&gt;AptCartModule -->
<g id="edge1" class="edge">
<title>AddToCartComponent&#45;&gt;AptCartModule</title>
<path fill="none" stroke="#000000" d="M374.375,-122.1061C374.375,-141.3391 374.375,-169 374.375,-169 374.375,-169 318.2656,-169 318.2656,-169"/>
<polygon fill="#000000" stroke="#000000" points="318.2656,-165.5001 308.2656,-169 318.2655,-172.5001 318.2656,-165.5001"/>
</g>
<!-- MiniCartComponent -->
<g id="node2" class="node">
<title>MiniCartComponent</title>
<polygon fill="#ffffb3" stroke="#000000" points="322.161,-122 189.839,-122 189.839,-86 322.161,-86 322.161,-122"/>
<text text-anchor="middle" x="256" y="-99.8" font-family="Times,serif" font-size="14.00" fill="#000000">MiniCartComponent</text>
</g>
<!-- MiniCartComponent&#45;&gt;AptCartModule -->
<g id="edge2" class="edge">
<title>MiniCartComponent&#45;&gt;AptCartModule</title>
<path fill="none" stroke="#000000" d="M256,-122.1061C256,-122.1061 256,-140.991 256,-140.991"/>
<polygon fill="#000000" stroke="#000000" points="252.5001,-140.9909 256,-150.991 259.5001,-140.991 252.5001,-140.9909"/>
</g>
<!-- AddToCartComponent  -->
<g id="node5" class="node">
<title>AddToCartComponent </title>
<polygon fill="#fb8072" stroke="#000000" points="408.0946,-252 259.9054,-252 259.9054,-216 408.0946,-216 408.0946,-252"/>
<text text-anchor="middle" x="334" y="-229.8" font-family="Times,serif" font-size="14.00" fill="#000000">AddToCartComponent </text>
</g>
<!-- AptCartModule&#45;&gt;AddToCartComponent  -->
<g id="edge4" class="edge">
<title>AptCartModule&#45;&gt;AddToCartComponent </title>
<path fill="none" stroke="#000000" stroke-dasharray="5,2" d="M284.0139,-187.1061C284.0139,-187.1061 284.0139,-205.991 284.0139,-205.991"/>
<polygon fill="#000000" stroke="#000000" points="280.5139,-205.9909 284.0139,-215.991 287.5139,-205.991 280.5139,-205.9909"/>
</g>
<!-- MiniCartComponent  -->
<g id="node6" class="node">
<title>MiniCartComponent </title>
<polygon fill="#fb8072" stroke="#000000" points="242.1607,-252 105.8393,-252 105.8393,-216 242.1607,-216 242.1607,-252"/>
<text text-anchor="middle" x="174" y="-229.8" font-family="Times,serif" font-size="14.00" fill="#000000">MiniCartComponent </text>
</g>
<!-- AptCartModule&#45;&gt;MiniCartComponent  -->
<g id="edge5" class="edge">
<title>AptCartModule&#45;&gt;MiniCartComponent </title>
<path fill="none" stroke="#000000" stroke-dasharray="5,2" d="M222.8778,-187.1061C222.8778,-187.1061 222.8778,-205.991 222.8778,-205.991"/>
<polygon fill="#000000" stroke="#000000" points="219.3779,-205.9909 222.8778,-215.991 226.3779,-205.991 219.3779,-205.9909"/>
</g>
<!-- AptCommerceModule -->
<g id="node4" class="node">
<title>AptCommerceModule</title>
<polygon fill="#8dd3c7" stroke="#000000" points="165.9692,-122 162.9692,-126 141.9692,-126 138.9692,-122 24.0308,-122 24.0308,-86 165.9692,-86 165.9692,-122"/>
<text text-anchor="middle" x="95" y="-99.8" font-family="Times,serif" font-size="14.00" fill="#000000">AptCommerceModule</text>
</g>
<!-- AptCommerceModule&#45;&gt;AptCartModule -->
<g id="edge3" class="edge">
<title>AptCommerceModule&#45;&gt;AptCartModule</title>
<path fill="none" stroke="#000000" d="M135.9522,-122.1061C135.9522,-141.3391 135.9522,-169 135.9522,-169 135.9522,-169 193.6945,-169 193.6945,-169"/>
<polygon fill="#000000" stroke="#000000" points="193.6945,-172.5001 203.6945,-169 193.6945,-165.5001 193.6945,-172.5001"/>
</g>
</g>
</svg>
