<?xml version="1.0" encoding="UTF-8" standalone="no"?>
<!DOCTYPE svg PUBLIC "-//W3C//DTD SVG 1.1//EN"
 "http://www.w3.org/Graphics/SVG/1.1/DTD/svg11.dtd">
<!-- Generated by graphviz version 2.40.1 (20161225.0304)
 -->
<!-- Title: dependencies Pages: 1 -->
<svg width="1186pt" height="284pt"
 viewBox="0.00 0.00 1186.00 284.00" xmlns="http://www.w3.org/2000/svg" xmlns:xlink="http://www.w3.org/1999/xlink">
<g id="graph0" class="graph" transform="scale(1 1) rotate(0) translate(4 280)">
<title>dependencies</title>
<polygon fill="#ffffff" stroke="transparent" points="-4,4 -4,-280 1182,-280 1182,4 -4,4"/>
<text text-anchor="start" x="568.0091" y="-42.4" font-family="sans-serif" font-weight="bold" font-size="14.00" fill="#000000">Legend</text>
<polygon fill="#ffffb3" stroke="transparent" points="355,-10 355,-30 375,-30 375,-10 355,-10"/>
<text text-anchor="start" x="378.629" y="-15.4" font-family="sans-serif" font-size="14.00" fill="#000000"> &#160;Declarations</text>
<polygon fill="#8dd3c7" stroke="transparent" points="468,-10 468,-30 488,-30 488,-10 468,-10"/>
<text text-anchor="start" x="491.7251" y="-15.4" font-family="sans-serif" font-size="14.00" fill="#000000"> &#160;Module</text>
<polygon fill="#80b1d3" stroke="transparent" points="554,-10 554,-30 574,-30 574,-10 554,-10"/>
<text text-anchor="start" x="577.7812" y="-15.4" font-family="sans-serif" font-size="14.00" fill="#000000"> &#160;Bootstrap</text>
<polygon fill="#fdb462" stroke="transparent" points="651,-10 651,-30 671,-30 671,-10 651,-10"/>
<text text-anchor="start" x="674.6732" y="-15.4" font-family="sans-serif" font-size="14.00" fill="#000000"> &#160;Providers</text>
<polygon fill="#fb8072" stroke="transparent" points="747,-10 747,-30 767,-30 767,-10 747,-10"/>
<text text-anchor="start" x="770.7258" y="-15.4" font-family="sans-serif" font-size="14.00" fill="#000000"> &#160;Exports</text>
<g id="clust1" class="cluster">
<title>cluster_ButtonModule</title>
<polygon fill="none" stroke="#000000" stroke-dasharray="1,5" points="8,-70 8,-268 1170,-268 1170,-70 8,-70"/>
</g>
<g id="clust2" class="cluster">
<title>cluster_ButtonModule_declarations</title>
<polygon fill="none" stroke="#000000" points="576,-78 576,-130 1162,-130 1162,-78 576,-78"/>
</g>
<g id="clust6" class="cluster">
<title>cluster_ButtonModule_imports</title>
<polygon fill="none" stroke="#000000" points="16,-78 16,-130 568,-130 568,-78 16,-78"/>
</g>
<g id="clust7" class="cluster">
<title>cluster_ButtonModule_exports</title>
<polygon fill="none" stroke="#000000" points="260,-208 260,-260 856,-260 856,-208 260,-208"/>
</g>
<!-- AddToCartComponent -->
<g id="node1" class="node">
<title>AddToCartComponent</title>
<polygon fill="#ffffb3" stroke="#000000" points="1153.594,-122 1008.406,-122 1008.406,-86 1153.594,-86 1153.594,-122"/>
<text text-anchor="middle" x="1081" y="-99.8" font-family="Times,serif" font-size="14.00" fill="#000000">AddToCartComponent</text>
</g>
<!-- ButtonModule -->
<g id="node4" class="node">
<title>ButtonModule</title>
<polygon fill="#8dd3c7" stroke="#000000" points="623.6682,-187 620.6682,-191 599.6682,-191 596.6682,-187 526.3318,-187 526.3318,-151 623.6682,-151 623.6682,-187"/>
<text text-anchor="middle" x="575" y="-164.8" font-family="Times,serif" font-size="14.00" fill="#000000">ButtonModule</text>
</g>
<!-- AddToCartComponent&#45;&gt;ButtonModule -->
<g id="edge1" class="edge">
<title>AddToCartComponent&#45;&gt;ButtonModule</title>
<path fill="none" stroke="#000000" d="M1081,-122.1061C1081,-141.3391 1081,-169 1081,-169 1081,-169 633.9772,-169 633.9772,-169"/>
<polygon fill="#000000" stroke="#000000" points="633.9772,-165.5001 623.9772,-169 633.9771,-172.5001 633.9772,-165.5001"/>
</g>
<!-- AssetDropdownButtonComponent -->
<g id="node2" class="node">
<title>AssetDropdownButtonComponent</title>
<polygon fill="#ffffb3" stroke="#000000" points="990.4254,-122 779.5746,-122 779.5746,-86 990.4254,-86 990.4254,-122"/>
<text text-anchor="middle" x="885" y="-99.8" font-family="Times,serif" font-size="14.00" fill="#000000">AssetDropdownButtonComponent</text>
</g>
<!-- AssetDropdownButtonComponent&#45;&gt;ButtonModule -->
<g id="edge2" class="edge">
<title>AssetDropdownButtonComponent&#45;&gt;ButtonModule</title>
<path fill="none" stroke="#000000" d="M814.0423,-122.027C814.0423,-138.3976 814.0423,-160 814.0423,-160 814.0423,-160 633.9506,-160 633.9506,-160"/>
<polygon fill="#000000" stroke="#000000" points="633.9506,-156.5001 623.9506,-160 633.9506,-163.5001 633.9506,-156.5001"/>
</g>
<!-- InstalledProductsComponent -->
<g id="node3" class="node">
<title>InstalledProductsComponent</title>
<polygon fill="#ffffb3" stroke="#000000" points="762.0322,-122 583.9678,-122 583.9678,-86 762.0322,-86 762.0322,-122"/>
<text text-anchor="middle" x="673" y="-99.8" font-family="Times,serif" font-size="14.00" fill="#000000">InstalledProductsComponent</text>
</g>
<!-- InstalledProductsComponent&#45;&gt;ButtonModule -->
<g id="edge3" class="edge">
<title>InstalledProductsComponent&#45;&gt;ButtonModule</title>
<path fill="none" stroke="#000000" d="M603.784,-122.1061C603.784,-122.1061 603.784,-140.991 603.784,-140.991"/>
<polygon fill="#000000" stroke="#000000" points="600.2841,-140.9909 603.784,-150.991 607.2841,-140.991 600.2841,-140.9909"/>
</g>
<!-- AddToCartComponent  -->
<g id="node8" class="node">
<title>AddToCartComponent </title>
<polygon fill="#fb8072" stroke="#000000" points="848.0946,-252 699.9054,-252 699.9054,-216 848.0946,-216 848.0946,-252"/>
<text text-anchor="middle" x="774" y="-229.8" font-family="Times,serif" font-size="14.00" fill="#000000">AddToCartComponent </text>
</g>
<!-- ButtonModule&#45;&gt;AddToCartComponent  -->
<g id="edge7" class="edge">
<title>ButtonModule&#45;&gt;AddToCartComponent </title>
<path fill="none" stroke="#000000" stroke-dasharray="5,2" d="M623.9265,-178C669.6716,-178 730.9844,-178 730.9844,-178 730.9844,-178 730.9844,-205.973 730.9844,-205.973"/>
<polygon fill="#000000" stroke="#000000" points="727.4845,-205.973 730.9844,-215.973 734.4845,-205.973 727.4845,-205.973"/>
</g>
<!-- AssetDropdownButtonComponent  -->
<g id="node9" class="node">
<title>AssetDropdownButtonComponent </title>
<polygon fill="#fb8072" stroke="#000000" points="681.925,-252 468.075,-252 468.075,-216 681.925,-216 681.925,-252"/>
<text text-anchor="middle" x="575" y="-229.8" font-family="Times,serif" font-size="14.00" fill="#000000">AssetDropdownButtonComponent </text>
</g>
<!-- ButtonModule&#45;&gt;AssetDropdownButtonComponent  -->
<g id="edge8" class="edge">
<title>ButtonModule&#45;&gt;AssetDropdownButtonComponent </title>
<path fill="none" stroke="#000000" stroke-dasharray="5,2" d="M575,-187.1061C575,-187.1061 575,-205.991 575,-205.991"/>
<polygon fill="#000000" stroke="#000000" points="571.5001,-205.9909 575,-215.991 578.5001,-205.991 571.5001,-205.9909"/>
</g>
<!-- InstalledProductsComponent  -->
<g id="node10" class="node">
<title>InstalledProductsComponent </title>
<polygon fill="#fb8072" stroke="#000000" points="450.0316,-252 267.9684,-252 267.9684,-216 450.0316,-216 450.0316,-252"/>
<text text-anchor="middle" x="359" y="-229.8" font-family="Times,serif" font-size="14.00" fill="#000000">InstalledProductsComponent </text>
</g>
<!-- ButtonModule&#45;&gt;InstalledProductsComponent  -->
<g id="edge9" class="edge">
<title>ButtonModule&#45;&gt;InstalledProductsComponent </title>
<path fill="none" stroke="#000000" stroke-dasharray="5,2" d="M526.029,-178C481.5577,-178 422.874,-178 422.874,-178 422.874,-178 422.874,-205.973 422.874,-205.973"/>
<polygon fill="#000000" stroke="#000000" points="419.374,-205.973 422.874,-215.973 426.374,-205.973 419.374,-205.973"/>
</g>
<!-- ConstraintPopoverModule -->
<g id="node5" class="node">
<title>ConstraintPopoverModule</title>
<polygon fill="#8dd3c7" stroke="#000000" points="560.0365,-122 557.0365,-126 536.0365,-126 533.0365,-122 395.9635,-122 395.9635,-86 560.0365,-86 560.0365,-122"/>
<text text-anchor="middle" x="478" y="-99.8" font-family="Times,serif" font-size="14.00" fill="#000000">ConstraintPopoverModule</text>
</g>
<!-- ConstraintPopoverModule&#45;&gt;ButtonModule -->
<g id="edge4" class="edge">
<title>ConstraintPopoverModule&#45;&gt;ButtonModule</title>
<path fill="none" stroke="#000000" d="M543.2171,-122.1061C543.2171,-122.1061 543.2171,-140.991 543.2171,-140.991"/>
<polygon fill="#000000" stroke="#000000" points="539.7171,-140.9909 543.2171,-150.991 546.7171,-140.991 539.7171,-140.9909"/>
</g>
<!-- PricingModule -->
<g id="node6" class="node">
<title>PricingModule</title>
<polygon fill="#8dd3c7" stroke="#000000" points="377.9888,-122 374.9888,-126 353.9888,-126 350.9888,-122 278.0112,-122 278.0112,-86 377.9888,-86 377.9888,-122"/>
<text text-anchor="middle" x="328" y="-99.8" font-family="Times,serif" font-size="14.00" fill="#000000">PricingModule</text>
</g>
<!-- PricingModule&#45;&gt;ButtonModule -->
<g id="edge5" class="edge">
<title>PricingModule&#45;&gt;ButtonModule</title>
<path fill="none" stroke="#000000" d="M328,-122.027C328,-138.3976 328,-160 328,-160 328,-160 516.2007,-160 516.2007,-160"/>
<polygon fill="#000000" stroke="#000000" points="516.2008,-163.5001 526.2007,-160 516.2007,-156.5001 516.2008,-163.5001"/>
</g>
<!-- ProductConfigurationSummaryModule -->
<g id="node7" class="node">
<title>ProductConfigurationSummaryModule</title>
<polygon fill="#8dd3c7" stroke="#000000" points="260.0814,-122 257.0814,-126 236.0814,-126 233.0814,-122 23.9186,-122 23.9186,-86 260.0814,-86 260.0814,-122"/>
<text text-anchor="middle" x="142" y="-99.8" font-family="Times,serif" font-size="14.00" fill="#000000">ProductConfigurationSummaryModule</text>
</g>
<!-- ProductConfigurationSummaryModule&#45;&gt;ButtonModule -->
<g id="edge6" class="edge">
<title>ProductConfigurationSummaryModule&#45;&gt;ButtonModule</title>
<path fill="none" stroke="#000000" d="M142,-122.1061C142,-141.3391 142,-169 142,-169 142,-169 516.1711,-169 516.1711,-169"/>
<polygon fill="#000000" stroke="#000000" points="516.1711,-172.5001 526.1711,-169 516.1711,-165.5001 516.1711,-172.5001"/>
</g>
</g>
</svg>
