<?xml version="1.0" encoding="UTF-8" standalone="no"?>
<!DOCTYPE svg PUBLIC "-//W3C//DTD SVG 1.1//EN"
 "http://www.w3.org/Graphics/SVG/1.1/DTD/svg11.dtd">
<!-- Generated by graphviz version 2.40.1 (20161225.0304)
 -->
<!-- Title: dependencies Pages: 1 -->
<svg width="1068pt" height="284pt"
 viewBox="0.00 0.00 1068.00 284.00" xmlns="http://www.w3.org/2000/svg" xmlns:xlink="http://www.w3.org/1999/xlink">
<g id="graph0" class="graph" transform="scale(1 1) rotate(0) translate(4 280)">
<title>dependencies</title>
<polygon fill="#ffffff" stroke="transparent" points="-4,4 -4,-280 1064,-280 1064,4 -4,4"/>
<text text-anchor="start" x="509.0091" y="-42.4" font-family="sans-serif" font-weight="bold" font-size="14.00" fill="#000000">Legend</text>
<polygon fill="#ffffb3" stroke="transparent" points="296,-10 296,-30 316,-30 316,-10 296,-10"/>
<text text-anchor="start" x="319.629" y="-15.4" font-family="sans-serif" font-size="14.00" fill="#000000"> &#160;Declarations</text>
<polygon fill="#8dd3c7" stroke="transparent" points="409,-10 409,-30 429,-30 429,-10 409,-10"/>
<text text-anchor="start" x="432.7251" y="-15.4" font-family="sans-serif" font-size="14.00" fill="#000000"> &#160;Module</text>
<polygon fill="#80b1d3" stroke="transparent" points="495,-10 495,-30 515,-30 515,-10 495,-10"/>
<text text-anchor="start" x="518.7812" y="-15.4" font-family="sans-serif" font-size="14.00" fill="#000000"> &#160;Bootstrap</text>
<polygon fill="#fdb462" stroke="transparent" points="592,-10 592,-30 612,-30 612,-10 592,-10"/>
<text text-anchor="start" x="615.6732" y="-15.4" font-family="sans-serif" font-size="14.00" fill="#000000"> &#160;Providers</text>
<polygon fill="#fb8072" stroke="transparent" points="688,-10 688,-30 708,-30 708,-10 688,-10"/>
<text text-anchor="start" x="711.7258" y="-15.4" font-family="sans-serif" font-size="14.00" fill="#000000"> &#160;Exports</text>
<g id="clust1" class="cluster">
<title>cluster_ButtonModule</title>
<polygon fill="none" stroke="#000000" stroke-dasharray="1,5" points="8,-70 8,-268 1052,-268 1052,-70 8,-70"/>
</g>
<g id="clust2" class="cluster">
<title>cluster_ButtonModule_declarations</title>
<polygon fill="none" stroke="#000000" points="458,-78 458,-130 1044,-130 1044,-78 458,-78"/>
</g>
<g id="clust6" class="cluster">
<title>cluster_ButtonModule_imports</title>
<polygon fill="none" stroke="#000000" points="16,-78 16,-130 450,-130 450,-78 16,-78"/>
</g>
<g id="clust7" class="cluster">
<title>cluster_ButtonModule_exports</title>
<polygon fill="none" stroke="#000000" points="240,-208 240,-260 836,-260 836,-208 240,-208"/>
</g>
<!-- AddToCartComponent -->
<g id="node1" class="node">
<title>AddToCartComponent</title>
<polygon fill="#ffffb3" stroke="#000000" points="1035.594,-122 890.406,-122 890.406,-86 1035.594,-86 1035.594,-122"/>
<text text-anchor="middle" x="963" y="-99.8" font-family="Times,serif" font-size="14.00" fill="#000000">AddToCartComponent</text>
</g>
<!-- ButtonModule -->
<g id="node4" class="node">
<title>ButtonModule</title>
<polygon fill="#8dd3c7" stroke="#000000" points="603.6682,-187 600.6682,-191 579.6682,-191 576.6682,-187 506.3318,-187 506.3318,-151 603.6682,-151 603.6682,-187"/>
<text text-anchor="middle" x="555" y="-164.8" font-family="Times,serif" font-size="14.00" fill="#000000">ButtonModule</text>
</g>
<!-- AddToCartComponent&#45;&gt;ButtonModule -->
<g id="edge1" class="edge">
<title>AddToCartComponent&#45;&gt;ButtonModule</title>
<path fill="none" stroke="#000000" d="M963,-122.1061C963,-141.3391 963,-169 963,-169 963,-169 613.8091,-169 613.8091,-169"/>
<polygon fill="#000000" stroke="#000000" points="613.8091,-165.5001 603.8091,-169 613.809,-172.5001 613.8091,-165.5001"/>
</g>
<!-- AssetDropdownButtonComponent -->
<g id="node2" class="node">
<title>AssetDropdownButtonComponent</title>
<polygon fill="#ffffb3" stroke="#000000" points="872.4254,-122 661.5746,-122 661.5746,-86 872.4254,-86 872.4254,-122"/>
<text text-anchor="middle" x="767" y="-99.8" font-family="Times,serif" font-size="14.00" fill="#000000">AssetDropdownButtonComponent</text>
</g>
<!-- AssetDropdownButtonComponent&#45;&gt;ButtonModule -->
<g id="edge2" class="edge">
<title>AssetDropdownButtonComponent&#45;&gt;ButtonModule</title>
<path fill="none" stroke="#000000" d="M670.8328,-122.027C670.8328,-138.3976 670.8328,-160 670.8328,-160 670.8328,-160 613.7878,-160 613.7878,-160"/>
<polygon fill="#000000" stroke="#000000" points="613.7878,-156.5001 603.7878,-160 613.7878,-163.5001 613.7878,-156.5001"/>
</g>
<!-- InstalledProductsComponent -->
<g id="node3" class="node">
<title>InstalledProductsComponent</title>
<polygon fill="#ffffb3" stroke="#000000" points="644.0322,-122 465.9678,-122 465.9678,-86 644.0322,-86 644.0322,-122"/>
<text text-anchor="middle" x="555" y="-99.8" font-family="Times,serif" font-size="14.00" fill="#000000">InstalledProductsComponent</text>
</g>
<!-- InstalledProductsComponent&#45;&gt;ButtonModule -->
<g id="edge3" class="edge">
<title>InstalledProductsComponent&#45;&gt;ButtonModule</title>
<path fill="none" stroke="#000000" d="M555,-122.1061C555,-122.1061 555,-140.991 555,-140.991"/>
<polygon fill="#000000" stroke="#000000" points="551.5001,-140.9909 555,-150.991 558.5001,-140.991 551.5001,-140.9909"/>
</g>
<!-- AddToCartComponent  -->
<g id="node7" class="node">
<title>AddToCartComponent </title>
<polygon fill="#fb8072" stroke="#000000" points="828.0946,-252 679.9054,-252 679.9054,-216 828.0946,-216 828.0946,-252"/>
<text text-anchor="middle" x="754" y="-229.8" font-family="Times,serif" font-size="14.00" fill="#000000">AddToCartComponent </text>
</g>
<!-- ButtonModule&#45;&gt;AddToCartComponent  -->
<g id="edge6" class="edge">
<title>ButtonModule&#45;&gt;AddToCartComponent </title>
<path fill="none" stroke="#000000" stroke-dasharray="5,2" d="M603.6809,-178C662.5945,-178 754,-178 754,-178 754,-178 754,-205.973 754,-205.973"/>
<polygon fill="#000000" stroke="#000000" points="750.5001,-205.973 754,-215.973 757.5001,-205.973 750.5001,-205.973"/>
</g>
<!-- AssetDropdownButtonComponent  -->
<g id="node8" class="node">
<title>AssetDropdownButtonComponent </title>
<polygon fill="#fb8072" stroke="#000000" points="661.925,-252 448.075,-252 448.075,-216 661.925,-216 661.925,-252"/>
<text text-anchor="middle" x="555" y="-229.8" font-family="Times,serif" font-size="14.00" fill="#000000">AssetDropdownButtonComponent </text>
</g>
<!-- ButtonModule&#45;&gt;AssetDropdownButtonComponent  -->
<g id="edge7" class="edge">
<title>ButtonModule&#45;&gt;AssetDropdownButtonComponent </title>
<path fill="none" stroke="#000000" stroke-dasharray="5,2" d="M555,-187.1061C555,-187.1061 555,-205.991 555,-205.991"/>
<polygon fill="#000000" stroke="#000000" points="551.5001,-205.9909 555,-215.991 558.5001,-205.991 551.5001,-205.9909"/>
</g>
<!-- InstalledProductsComponent  -->
<g id="node9" class="node">
<title>InstalledProductsComponent </title>
<polygon fill="#fb8072" stroke="#000000" points="430.0316,-252 247.9684,-252 247.9684,-216 430.0316,-216 430.0316,-252"/>
<text text-anchor="middle" x="339" y="-229.8" font-family="Times,serif" font-size="14.00" fill="#000000">InstalledProductsComponent </text>
</g>
<!-- ButtonModule&#45;&gt;InstalledProductsComponent  -->
<g id="edge8" class="edge">
<title>ButtonModule&#45;&gt;InstalledProductsComponent </title>
<path fill="none" stroke="#000000" stroke-dasharray="5,2" d="M506.313,-178C446.7892,-178 353.874,-178 353.874,-178 353.874,-178 353.874,-205.973 353.874,-205.973"/>
<polygon fill="#000000" stroke="#000000" points="350.374,-205.973 353.874,-215.973 357.374,-205.973 350.374,-205.973"/>
</g>
<!-- ConstraintPopoverModule -->
<g id="node5" class="node">
<title>ConstraintPopoverModule</title>
<polygon fill="#8dd3c7" stroke="#000000" points="442.0365,-122 439.0365,-126 418.0365,-126 415.0365,-122 277.9635,-122 277.9635,-86 442.0365,-86 442.0365,-122"/>
<text text-anchor="middle" x="360" y="-99.8" font-family="Times,serif" font-size="14.00" fill="#000000">ConstraintPopoverModule</text>
</g>
<!-- ConstraintPopoverModule&#45;&gt;ButtonModule -->
<g id="edge4" class="edge">
<title>ConstraintPopoverModule&#45;&gt;ButtonModule</title>
<path fill="none" stroke="#000000" d="M436.1419,-122.027C436.1419,-138.3976 436.1419,-160 436.1419,-160 436.1419,-160 496.3129,-160 496.3129,-160"/>
<polygon fill="#000000" stroke="#000000" points="496.3129,-163.5001 506.3129,-160 496.3129,-156.5001 496.3129,-163.5001"/>
</g>
<!-- ProductConfigurationSummaryModule -->
<g id="node6" class="node">
<title>ProductConfigurationSummaryModule</title>
<polygon fill="#8dd3c7" stroke="#000000" points="260.0814,-122 257.0814,-126 236.0814,-126 233.0814,-122 23.9186,-122 23.9186,-86 260.0814,-86 260.0814,-122"/>
<text text-anchor="middle" x="142" y="-99.8" font-family="Times,serif" font-size="14.00" fill="#000000">ProductConfigurationSummaryModule</text>
</g>
<!-- ProductConfigurationSummaryModule&#45;&gt;ButtonModule -->
<g id="edge5" class="edge">
<title>ProductConfigurationSummaryModule&#45;&gt;ButtonModule</title>
<path fill="none" stroke="#000000" d="M254.0125,-122.1061C254.0125,-141.3391 254.0125,-169 254.0125,-169 254.0125,-169 496.3066,-169 496.3066,-169"/>
<polygon fill="#000000" stroke="#000000" points="496.3067,-172.5001 506.3066,-169 496.3066,-165.5001 496.3067,-172.5001"/>
</g>
</g>
</svg>
