<?xml version="1.0" encoding="UTF-8" standalone="no"?>
<!DOCTYPE svg PUBLIC "-//W3C//DTD SVG 1.1//EN"
 "http://www.w3.org/Graphics/SVG/1.1/DTD/svg11.dtd">
<!-- Generated by graphviz version 2.40.1 (20161225.0304)
 -->
<!-- Title: dependencies Pages: 1 -->
<svg width="562pt" height="284pt"
 viewBox="0.00 0.00 562.00 284.00" xmlns="http://www.w3.org/2000/svg" xmlns:xlink="http://www.w3.org/1999/xlink">
<g id="graph0" class="graph" transform="scale(1 1) rotate(0) translate(4 280)">
<title>dependencies</title>
<polygon fill="#ffffff" stroke="transparent" points="-4,4 -4,-280 558,-280 558,4 -4,4"/>
<text text-anchor="start" x="256.0091" y="-42.4" font-family="sans-serif" font-weight="bold" font-size="14.00" fill="#000000">Legend</text>
<polygon fill="#ffffb3" stroke="transparent" points="43,-10 43,-30 63,-30 63,-10 43,-10"/>
<text text-anchor="start" x="66.629" y="-15.4" font-family="sans-serif" font-size="14.00" fill="#000000"> &#160;Declarations</text>
<polygon fill="#8dd3c7" stroke="transparent" points="156,-10 156,-30 176,-30 176,-10 156,-10"/>
<text text-anchor="start" x="179.7251" y="-15.4" font-family="sans-serif" font-size="14.00" fill="#000000"> &#160;Module</text>
<polygon fill="#80b1d3" stroke="transparent" points="242,-10 242,-30 262,-30 262,-10 242,-10"/>
<text text-anchor="start" x="265.7812" y="-15.4" font-family="sans-serif" font-size="14.00" fill="#000000"> &#160;Bootstrap</text>
<polygon fill="#fdb462" stroke="transparent" points="339,-10 339,-30 359,-30 359,-10 339,-10"/>
<text text-anchor="start" x="362.6732" y="-15.4" font-family="sans-serif" font-size="14.00" fill="#000000"> &#160;Providers</text>
<polygon fill="#fb8072" stroke="transparent" points="435,-10 435,-30 455,-30 455,-10 435,-10"/>
<text text-anchor="start" x="458.7258" y="-15.4" font-family="sans-serif" font-size="14.00" fill="#000000"> &#160;Exports</text>
<g id="clust1" class="cluster">
<title>cluster_FilterModule</title>
<polygon fill="none" stroke="#000000" stroke-dasharray="1,5" points="8,-70 8,-268 546,-268 546,-70 8,-70"/>
</g>
<g id="clust2" class="cluster">
<title>cluster_FilterModule_declarations</title>
<polygon fill="none" stroke="#000000" points="158,-78 158,-130 538,-130 538,-78 158,-78"/>
</g>
<g id="clust5" class="cluster">
<title>cluster_FilterModule_imports</title>
<polygon fill="none" stroke="#000000" points="16,-78 16,-130 150,-130 150,-78 16,-78"/>
</g>
<g id="clust6" class="cluster">
<title>cluster_FilterModule_exports</title>
<polygon fill="none" stroke="#000000" points="83,-208 83,-260 471,-260 471,-208 83,-208"/>
</g>
<!-- CategoryFilterComponent -->
<g id="node1" class="node">
<title>CategoryFilterComponent</title>
<polygon fill="#ffffb3" stroke="#000000" points="530.479,-122 367.521,-122 367.521,-86 530.479,-86 530.479,-122"/>
<text text-anchor="middle" x="449" y="-99.8" font-family="Times,serif" font-size="14.00" fill="#000000">CategoryFilterComponent</text>
</g>
<!-- FilterModule -->
<g id="node3" class="node">
<title>FilterModule</title>
<polygon fill="#8dd3c7" stroke="#000000" points="302.8795,-187 299.8795,-191 278.8795,-191 275.8795,-187 213.1205,-187 213.1205,-151 302.8795,-151 302.8795,-187"/>
<text text-anchor="middle" x="258" y="-164.8" font-family="Times,serif" font-size="14.00" fill="#000000">FilterModule</text>
</g>
<!-- CategoryFilterComponent&#45;&gt;FilterModule -->
<g id="edge1" class="edge">
<title>CategoryFilterComponent&#45;&gt;FilterModule</title>
<path fill="none" stroke="#000000" d="M415.375,-122.1061C415.375,-141.3391 415.375,-169 415.375,-169 415.375,-169 313.0974,-169 313.0974,-169"/>
<polygon fill="#000000" stroke="#000000" points="313.0974,-165.5001 303.0974,-169 313.0973,-172.5001 313.0974,-165.5001"/>
</g>
<!-- ProductTypeFilterComponent -->
<g id="node2" class="node">
<title>ProductTypeFilterComponent</title>
<polygon fill="#ffffb3" stroke="#000000" points="349.9776,-122 166.0224,-122 166.0224,-86 349.9776,-86 349.9776,-122"/>
<text text-anchor="middle" x="258" y="-99.8" font-family="Times,serif" font-size="14.00" fill="#000000">ProductTypeFilterComponent</text>
</g>
<!-- ProductTypeFilterComponent&#45;&gt;FilterModule -->
<g id="edge2" class="edge">
<title>ProductTypeFilterComponent&#45;&gt;FilterModule</title>
<path fill="none" stroke="#000000" d="M258,-122.1061C258,-122.1061 258,-140.991 258,-140.991"/>
<polygon fill="#000000" stroke="#000000" points="254.5001,-140.9909 258,-150.991 261.5001,-140.991 254.5001,-140.9909"/>
</g>
<!-- CategoryFilterComponent  -->
<g id="node5" class="node">
<title>CategoryFilterComponent </title>
<polygon fill="#fb8072" stroke="#000000" points="463.4797,-252 296.5203,-252 296.5203,-216 463.4797,-216 463.4797,-252"/>
<text text-anchor="middle" x="380" y="-229.8" font-family="Times,serif" font-size="14.00" fill="#000000">CategoryFilterComponent </text>
</g>
<!-- FilterModule&#45;&gt;CategoryFilterComponent  -->
<g id="edge4" class="edge">
<title>FilterModule&#45;&gt;CategoryFilterComponent </title>
<path fill="none" stroke="#000000" stroke-dasharray="5,2" d="M287.7496,-187.1061C287.7496,-206.3391 287.7496,-234 287.7496,-234 287.7496,-234 288.6342,-234 288.6342,-234"/>
<polygon fill="#000000" stroke="#000000" points="286.595,-237.5001 296.595,-234 286.595,-230.5001 286.595,-237.5001"/>
</g>
<!-- ProductTypeFilterComponent  -->
<g id="node6" class="node">
<title>ProductTypeFilterComponent </title>
<polygon fill="#fb8072" stroke="#000000" points="278.9782,-252 91.0218,-252 91.0218,-216 278.9782,-216 278.9782,-252"/>
<text text-anchor="middle" x="185" y="-229.8" font-family="Times,serif" font-size="14.00" fill="#000000">ProductTypeFilterComponent </text>
</g>
<!-- FilterModule&#45;&gt;ProductTypeFilterComponent  -->
<g id="edge5" class="edge">
<title>FilterModule&#45;&gt;ProductTypeFilterComponent </title>
<path fill="none" stroke="#000000" stroke-dasharray="5,2" d="M245.8995,-187.1061C245.8995,-187.1061 245.8995,-205.991 245.8995,-205.991"/>
<polygon fill="#000000" stroke="#000000" points="242.3996,-205.9909 245.8995,-215.991 249.3996,-205.991 242.3996,-205.9909"/>
</g>
<!-- InputFieldModule -->
<g id="node4" class="node">
<title>InputFieldModule</title>
<polygon fill="#8dd3c7" stroke="#000000" points="141.8795,-122 138.8795,-126 117.8795,-126 114.8795,-122 24.1205,-122 24.1205,-86 141.8795,-86 141.8795,-122"/>
<text text-anchor="middle" x="83" y="-99.8" font-family="Times,serif" font-size="14.00" fill="#000000">InputFieldModule</text>
</g>
<!-- InputFieldModule&#45;&gt;FilterModule -->
<g id="edge3" class="edge">
<title>InputFieldModule&#45;&gt;FilterModule</title>
<path fill="none" stroke="#000000" d="M116.6005,-122.1061C116.6005,-141.3391 116.6005,-169 116.6005,-169 116.6005,-169 202.8715,-169 202.8715,-169"/>
<polygon fill="#000000" stroke="#000000" points="202.8716,-172.5001 212.8715,-169 202.8715,-165.5001 202.8716,-172.5001"/>
</g>
</g>
</svg>
