<?xml version="1.0" encoding="UTF-8" standalone="no"?>
<!DOCTYPE svg PUBLIC "-//W3C//DTD SVG 1.1//EN"
 "http://www.w3.org/Graphics/SVG/1.1/DTD/svg11.dtd">
<!-- Generated by graphviz version 2.40.1 (20161225.0304)
 -->
<!-- Title: dependencies Pages: 1 -->
<svg width="680pt" height="284pt"
 viewBox="0.00 0.00 680.00 284.00" xmlns="http://www.w3.org/2000/svg" xmlns:xlink="http://www.w3.org/1999/xlink">
<g id="graph0" class="graph" transform="scale(1 1) rotate(0) translate(4 280)">
<title>dependencies</title>
<polygon fill="#ffffff" stroke="transparent" points="-4,4 -4,-280 676,-280 676,4 -4,4"/>
<text text-anchor="start" x="315.0091" y="-42.4" font-family="sans-serif" font-weight="bold" font-size="14.00" fill="#000000">Legend</text>
<polygon fill="#ffffb3" stroke="transparent" points="102,-10 102,-30 122,-30 122,-10 102,-10"/>
<text text-anchor="start" x="125.629" y="-15.4" font-family="sans-serif" font-size="14.00" fill="#000000"> &#160;Declarations</text>
<polygon fill="#8dd3c7" stroke="transparent" points="215,-10 215,-30 235,-30 235,-10 215,-10"/>
<text text-anchor="start" x="238.7251" y="-15.4" font-family="sans-serif" font-size="14.00" fill="#000000"> &#160;Module</text>
<polygon fill="#80b1d3" stroke="transparent" points="301,-10 301,-30 321,-30 321,-10 301,-10"/>
<text text-anchor="start" x="324.7812" y="-15.4" font-family="sans-serif" font-size="14.00" fill="#000000"> &#160;Bootstrap</text>
<polygon fill="#fdb462" stroke="transparent" points="398,-10 398,-30 418,-30 418,-10 398,-10"/>
<text text-anchor="start" x="421.6732" y="-15.4" font-family="sans-serif" font-size="14.00" fill="#000000"> &#160;Providers</text>
<polygon fill="#fb8072" stroke="transparent" points="494,-10 494,-30 514,-30 514,-10 494,-10"/>
<text text-anchor="start" x="517.7258" y="-15.4" font-family="sans-serif" font-size="14.00" fill="#000000"> &#160;Exports</text>
<g id="clust1" class="cluster">
<title>cluster_FilterModule</title>
<polygon fill="none" stroke="#000000" stroke-dasharray="1,5" points="8,-70 8,-268 664,-268 664,-70 8,-70"/>
</g>
<g id="clust2" class="cluster">
<title>cluster_FilterModule_declarations</title>
<polygon fill="none" stroke="#000000" points="276,-78 276,-130 656,-130 656,-78 276,-78"/>
</g>
<g id="clust5" class="cluster">
<title>cluster_FilterModule_imports</title>
<polygon fill="none" stroke="#000000" points="16,-78 16,-130 268,-130 268,-78 16,-78"/>
</g>
<g id="clust6" class="cluster">
<title>cluster_FilterModule_exports</title>
<polygon fill="none" stroke="#000000" points="100,-208 100,-260 488,-260 488,-208 100,-208"/>
</g>
<!-- CategoryFilterComponent -->
<g id="node1" class="node">
<title>CategoryFilterComponent</title>
<polygon fill="#ffffb3" stroke="#000000" points="648.479,-122 485.521,-122 485.521,-86 648.479,-86 648.479,-122"/>
<text text-anchor="middle" x="567" y="-99.8" font-family="Times,serif" font-size="14.00" fill="#000000">CategoryFilterComponent</text>
</g>
<!-- FilterModule -->
<g id="node3" class="node">
<title>FilterModule</title>
<polygon fill="#8dd3c7" stroke="#000000" points="329.8795,-187 326.8795,-191 305.8795,-191 302.8795,-187 240.1205,-187 240.1205,-151 329.8795,-151 329.8795,-187"/>
<text text-anchor="middle" x="285" y="-164.8" font-family="Times,serif" font-size="14.00" fill="#000000">FilterModule</text>
</g>
<!-- CategoryFilterComponent&#45;&gt;FilterModule -->
<g id="edge1" class="edge">
<title>CategoryFilterComponent&#45;&gt;FilterModule</title>
<path fill="none" stroke="#000000" d="M567,-122.1061C567,-141.3391 567,-169 567,-169 567,-169 339.9956,-169 339.9956,-169"/>
<polygon fill="#000000" stroke="#000000" points="339.9956,-165.5001 329.9956,-169 339.9955,-172.5001 339.9956,-165.5001"/>
</g>
<!-- ProductTypeFilterComponent -->
<g id="node2" class="node">
<title>ProductTypeFilterComponent</title>
<polygon fill="#ffffb3" stroke="#000000" points="467.9776,-122 284.0224,-122 284.0224,-86 467.9776,-86 467.9776,-122"/>
<text text-anchor="middle" x="376" y="-99.8" font-family="Times,serif" font-size="14.00" fill="#000000">ProductTypeFilterComponent</text>
</g>
<!-- ProductTypeFilterComponent&#45;&gt;FilterModule -->
<g id="edge2" class="edge">
<title>ProductTypeFilterComponent&#45;&gt;FilterModule</title>
<path fill="none" stroke="#000000" d="M306.9755,-122.1061C306.9755,-122.1061 306.9755,-140.991 306.9755,-140.991"/>
<polygon fill="#000000" stroke="#000000" points="303.4755,-140.9909 306.9755,-150.991 310.4755,-140.991 303.4755,-140.9909"/>
</g>
<!-- CategoryFilterComponent  -->
<g id="node6" class="node">
<title>CategoryFilterComponent </title>
<polygon fill="#fb8072" stroke="#000000" points="480.4797,-252 313.5203,-252 313.5203,-216 480.4797,-216 480.4797,-252"/>
<text text-anchor="middle" x="397" y="-229.8" font-family="Times,serif" font-size="14.00" fill="#000000">CategoryFilterComponent </text>
</g>
<!-- FilterModule&#45;&gt;CategoryFilterComponent  -->
<g id="edge5" class="edge">
<title>FilterModule&#45;&gt;CategoryFilterComponent </title>
<path fill="none" stroke="#000000" stroke-dasharray="5,2" d="M321.8501,-187.1061C321.8501,-187.1061 321.8501,-205.991 321.8501,-205.991"/>
<polygon fill="#000000" stroke="#000000" points="318.3502,-205.9909 321.8501,-215.991 325.3502,-205.991 318.3502,-205.9909"/>
</g>
<!-- ProductTypeFilterComponent  -->
<g id="node7" class="node">
<title>ProductTypeFilterComponent </title>
<polygon fill="#fb8072" stroke="#000000" points="295.9782,-252 108.0218,-252 108.0218,-216 295.9782,-216 295.9782,-252"/>
<text text-anchor="middle" x="202" y="-229.8" font-family="Times,serif" font-size="14.00" fill="#000000">ProductTypeFilterComponent </text>
</g>
<!-- FilterModule&#45;&gt;ProductTypeFilterComponent  -->
<g id="edge6" class="edge">
<title>FilterModule&#45;&gt;ProductTypeFilterComponent </title>
<path fill="none" stroke="#000000" stroke-dasharray="5,2" d="M267.8995,-187.1061C267.8995,-187.1061 267.8995,-205.991 267.8995,-205.991"/>
<polygon fill="#000000" stroke="#000000" points="264.3996,-205.9909 267.8995,-215.991 271.3996,-205.991 264.3996,-205.9909"/>
</g>
<!-- InputFieldModule -->
<g id="node4" class="node">
<title>InputFieldModule</title>
<polygon fill="#8dd3c7" stroke="#000000" points="259.8795,-122 256.8795,-126 235.8795,-126 232.8795,-122 142.1205,-122 142.1205,-86 259.8795,-86 259.8795,-122"/>
<text text-anchor="middle" x="201" y="-99.8" font-family="Times,serif" font-size="14.00" fill="#000000">InputFieldModule</text>
</g>
<!-- InputFieldModule&#45;&gt;FilterModule -->
<g id="edge3" class="edge">
<title>InputFieldModule&#45;&gt;FilterModule</title>
<path fill="none" stroke="#000000" d="M250,-122.1061C250,-122.1061 250,-140.991 250,-140.991"/>
<polygon fill="#000000" stroke="#000000" points="246.5001,-140.9909 250,-150.991 253.5001,-140.991 246.5001,-140.9909"/>
</g>
<!-- PricingModule -->
<g id="node5" class="node">
<title>PricingModule</title>
<polygon fill="#8dd3c7" stroke="#000000" points="123.9888,-122 120.9888,-126 99.9888,-126 96.9888,-122 24.0112,-122 24.0112,-86 123.9888,-86 123.9888,-122"/>
<text text-anchor="middle" x="74" y="-99.8" font-family="Times,serif" font-size="14.00" fill="#000000">PricingModule</text>
</g>
<!-- PricingModule&#45;&gt;FilterModule -->
<g id="edge4" class="edge">
<title>PricingModule&#45;&gt;FilterModule</title>
<path fill="none" stroke="#000000" d="M116.1278,-122.1061C116.1278,-141.3391 116.1278,-169 116.1278,-169 116.1278,-169 229.7453,-169 229.7453,-169"/>
<polygon fill="#000000" stroke="#000000" points="229.7454,-172.5001 239.7453,-169 229.7453,-165.5001 229.7454,-172.5001"/>
</g>
</g>
</svg>
