<?xml version="1.0" encoding="UTF-8" standalone="no"?>
<!DOCTYPE svg PUBLIC "-//W3C//DTD SVG 1.1//EN"
 "http://www.w3.org/Graphics/SVG/1.1/DTD/svg11.dtd">
<!-- Generated by graphviz version 2.40.1 (20161225.0304)
 -->
<!-- Title: dependencies Pages: 1 -->
<svg width="1021pt" height="284pt"
 viewBox="0.00 0.00 1021.00 284.00" xmlns="http://www.w3.org/2000/svg" xmlns:xlink="http://www.w3.org/1999/xlink">
<g id="graph0" class="graph" transform="scale(1 1) rotate(0) translate(4 280)">
<title>dependencies</title>
<polygon fill="#ffffff" stroke="transparent" points="-4,4 -4,-280 1017,-280 1017,4 -4,4"/>
<text text-anchor="start" x="485.5091" y="-42.4" font-family="sans-serif" font-weight="bold" font-size="14.00" fill="#000000">Legend</text>
<polygon fill="#ffffb3" stroke="transparent" points="272.5,-10 272.5,-30 292.5,-30 292.5,-10 272.5,-10"/>
<text text-anchor="start" x="296.129" y="-15.4" font-family="sans-serif" font-size="14.00" fill="#000000"> &#160;Declarations</text>
<polygon fill="#8dd3c7" stroke="transparent" points="385.5,-10 385.5,-30 405.5,-30 405.5,-10 385.5,-10"/>
<text text-anchor="start" x="409.2251" y="-15.4" font-family="sans-serif" font-size="14.00" fill="#000000"> &#160;Module</text>
<polygon fill="#80b1d3" stroke="transparent" points="471.5,-10 471.5,-30 491.5,-30 491.5,-10 471.5,-10"/>
<text text-anchor="start" x="495.2812" y="-15.4" font-family="sans-serif" font-size="14.00" fill="#000000"> &#160;Bootstrap</text>
<polygon fill="#fdb462" stroke="transparent" points="568.5,-10 568.5,-30 588.5,-30 588.5,-10 568.5,-10"/>
<text text-anchor="start" x="592.1732" y="-15.4" font-family="sans-serif" font-size="14.00" fill="#000000"> &#160;Providers</text>
<polygon fill="#fb8072" stroke="transparent" points="664.5,-10 664.5,-30 684.5,-30 684.5,-10 664.5,-10"/>
<text text-anchor="start" x="688.2258" y="-15.4" font-family="sans-serif" font-size="14.00" fill="#000000"> &#160;Exports</text>
<g id="clust1" class="cluster">
<title>cluster_FilterModule</title>
<polygon fill="none" stroke="#000000" stroke-dasharray="1,5" points="8,-70 8,-268 1005,-268 1005,-70 8,-70"/>
</g>
<g id="clust2" class="cluster">
<title>cluster_FilterModule_declarations</title>
<polygon fill="none" stroke="#000000" points="276,-78 276,-130 997,-130 997,-78 276,-78"/>
</g>
<g id="clust7" class="cluster">
<title>cluster_FilterModule_imports</title>
<polygon fill="none" stroke="#000000" points="16,-78 16,-130 268,-130 268,-78 16,-78"/>
</g>
<g id="clust8" class="cluster">
<title>cluster_FilterModule_exports</title>
<polygon fill="none" stroke="#000000" points="93,-208 93,-260 828,-260 828,-208 93,-208"/>
</g>
<!-- CategoryFilterComponent -->
<g id="node1" class="node">
<title>CategoryFilterComponent</title>
<polygon fill="#ffffb3" stroke="#000000" points="989.479,-122 826.521,-122 826.521,-86 989.479,-86 989.479,-122"/>
<text text-anchor="middle" x="908" y="-99.8" font-family="Times,serif" font-size="14.00" fill="#000000">CategoryFilterComponent</text>
</g>
<!-- FilterModule -->
<g id="node5" class="node">
<title>FilterModule</title>
<polygon fill="#8dd3c7" stroke="#000000" points="511.8795,-187 508.8795,-191 487.8795,-191 484.8795,-187 422.1205,-187 422.1205,-151 511.8795,-151 511.8795,-187"/>
<text text-anchor="middle" x="467" y="-164.8" font-family="Times,serif" font-size="14.00" fill="#000000">FilterModule</text>
</g>
<!-- CategoryFilterComponent&#45;&gt;FilterModule -->
<g id="edge1" class="edge">
<title>CategoryFilterComponent&#45;&gt;FilterModule</title>
<path fill="none" stroke="#000000" d="M908,-122.1061C908,-141.3391 908,-169 908,-169 908,-169 522.1223,-169 522.1223,-169"/>
<polygon fill="#000000" stroke="#000000" points="522.1223,-165.5001 512.1223,-169 522.1222,-172.5001 522.1223,-165.5001"/>
</g>
<!-- FieldFilterComponent -->
<g id="node2" class="node">
<title>FieldFilterComponent</title>
<polygon fill="#ffffb3" stroke="#000000" points="808.4411,-122 667.5589,-122 667.5589,-86 808.4411,-86 808.4411,-122"/>
<text text-anchor="middle" x="738" y="-99.8" font-family="Times,serif" font-size="14.00" fill="#000000">FieldFilterComponent</text>
</g>
<!-- FieldFilterComponent&#45;&gt;FilterModule -->
<g id="edge2" class="edge">
<title>FieldFilterComponent&#45;&gt;FilterModule</title>
<path fill="none" stroke="#000000" d="M738,-122.027C738,-138.3976 738,-160 738,-160 738,-160 522.0543,-160 522.0543,-160"/>
<polygon fill="#000000" stroke="#000000" points="522.0544,-156.5001 512.0543,-160 522.0543,-163.5001 522.0544,-156.5001"/>
</g>
<!-- PriceTierFilterComponent -->
<g id="node3" class="node">
<title>PriceTierFilterComponent</title>
<polygon fill="#ffffb3" stroke="#000000" points="649.7436,-122 486.2564,-122 486.2564,-86 649.7436,-86 649.7436,-122"/>
<text text-anchor="middle" x="568" y="-99.8" font-family="Times,serif" font-size="14.00" fill="#000000">PriceTierFilterComponent</text>
</g>
<!-- PriceTierFilterComponent&#45;&gt;FilterModule -->
<g id="edge3" class="edge">
<title>PriceTierFilterComponent&#45;&gt;FilterModule</title>
<path fill="none" stroke="#000000" d="M499.034,-122.1061C499.034,-122.1061 499.034,-140.991 499.034,-140.991"/>
<polygon fill="#000000" stroke="#000000" points="495.5341,-140.9909 499.034,-150.991 502.5341,-140.991 495.5341,-140.9909"/>
</g>
<!-- ProductTypeFilterComponent -->
<g id="node4" class="node">
<title>ProductTypeFilterComponent</title>
<polygon fill="#ffffb3" stroke="#000000" points="467.9776,-122 284.0224,-122 284.0224,-86 467.9776,-86 467.9776,-122"/>
<text text-anchor="middle" x="376" y="-99.8" font-family="Times,serif" font-size="14.00" fill="#000000">ProductTypeFilterComponent</text>
</g>
<!-- ProductTypeFilterComponent&#45;&gt;FilterModule -->
<g id="edge4" class="edge">
<title>ProductTypeFilterComponent&#45;&gt;FilterModule</title>
<path fill="none" stroke="#000000" d="M445.0246,-122.1061C445.0246,-122.1061 445.0246,-140.991 445.0246,-140.991"/>
<polygon fill="#000000" stroke="#000000" points="441.5246,-140.9909 445.0246,-150.991 448.5246,-140.991 441.5246,-140.9909"/>
</g>
<!-- CategoryFilterComponent  -->
<g id="node8" class="node">
<title>CategoryFilterComponent </title>
<polygon fill="#fb8072" stroke="#000000" points="820.4797,-252 653.5203,-252 653.5203,-216 820.4797,-216 820.4797,-252"/>
<text text-anchor="middle" x="737" y="-229.8" font-family="Times,serif" font-size="14.00" fill="#000000">CategoryFilterComponent </text>
</g>
<!-- FilterModule&#45;&gt;CategoryFilterComponent  -->
<g id="edge7" class="edge">
<title>FilterModule&#45;&gt;CategoryFilterComponent </title>
<path fill="none" stroke="#000000" stroke-dasharray="5,2" d="M511.9418,-178C569.1835,-178 660.7702,-178 660.7702,-178 660.7702,-178 660.7702,-205.973 660.7702,-205.973"/>
<polygon fill="#000000" stroke="#000000" points="657.2702,-205.973 660.7702,-215.973 664.2702,-205.973 657.2702,-205.973"/>
</g>
<!-- FieldFilterComponent  -->
<g id="node9" class="node">
<title>FieldFilterComponent </title>
<polygon fill="#fb8072" stroke="#000000" points="635.9404,-252 492.0596,-252 492.0596,-216 635.9404,-216 635.9404,-252"/>
<text text-anchor="middle" x="564" y="-229.8" font-family="Times,serif" font-size="14.00" fill="#000000">FieldFilterComponent </text>
</g>
<!-- FilterModule&#45;&gt;FieldFilterComponent  -->
<g id="edge8" class="edge">
<title>FilterModule&#45;&gt;FieldFilterComponent </title>
<path fill="none" stroke="#000000" stroke-dasharray="5,2" d="M501.9848,-187.1061C501.9848,-187.1061 501.9848,-205.991 501.9848,-205.991"/>
<polygon fill="#000000" stroke="#000000" points="498.4848,-205.9909 501.9848,-215.991 505.4848,-205.991 498.4848,-205.9909"/>
</g>
<!-- PriceTierFilterComponent  -->
<g id="node10" class="node">
<title>PriceTierFilterComponent </title>
<polygon fill="#fb8072" stroke="#000000" points="473.7436,-252 306.2564,-252 306.2564,-216 473.7436,-216 473.7436,-252"/>
<text text-anchor="middle" x="390" y="-229.8" font-family="Times,serif" font-size="14.00" fill="#000000">PriceTierFilterComponent </text>
</g>
<!-- FilterModule&#45;&gt;PriceTierFilterComponent  -->
<g id="edge9" class="edge">
<title>FilterModule&#45;&gt;PriceTierFilterComponent </title>
<path fill="none" stroke="#000000" stroke-dasharray="5,2" d="M447.841,-187.1061C447.841,-187.1061 447.841,-205.991 447.841,-205.991"/>
<polygon fill="#000000" stroke="#000000" points="444.3411,-205.9909 447.841,-215.991 451.3411,-205.991 444.3411,-205.9909"/>
</g>
<!-- ProductTypeFilterComponent  -->
<g id="node11" class="node">
<title>ProductTypeFilterComponent </title>
<polygon fill="#fb8072" stroke="#000000" points="288.9782,-252 101.0218,-252 101.0218,-216 288.9782,-216 288.9782,-252"/>
<text text-anchor="middle" x="195" y="-229.8" font-family="Times,serif" font-size="14.00" fill="#000000">ProductTypeFilterComponent </text>
</g>
<!-- FilterModule&#45;&gt;ProductTypeFilterComponent  -->
<g id="edge10" class="edge">
<title>FilterModule&#45;&gt;ProductTypeFilterComponent </title>
<path fill="none" stroke="#000000" stroke-dasharray="5,2" d="M421.7673,-178C364.155,-178 271.9755,-178 271.9755,-178 271.9755,-178 271.9755,-205.973 271.9755,-205.973"/>
<polygon fill="#000000" stroke="#000000" points="268.4755,-205.973 271.9755,-215.973 275.4755,-205.973 268.4755,-205.973"/>
</g>
<!-- InputFieldModule -->
<g id="node6" class="node">
<title>InputFieldModule</title>
<polygon fill="#8dd3c7" stroke="#000000" points="259.8795,-122 256.8795,-126 235.8795,-126 232.8795,-122 142.1205,-122 142.1205,-86 259.8795,-86 259.8795,-122"/>
<text text-anchor="middle" x="201" y="-99.8" font-family="Times,serif" font-size="14.00" fill="#000000">InputFieldModule</text>
</g>
<!-- InputFieldModule&#45;&gt;FilterModule -->
<g id="edge5" class="edge">
<title>InputFieldModule&#45;&gt;FilterModule</title>
<path fill="none" stroke="#000000" d="M201,-122.027C201,-138.3976 201,-160 201,-160 201,-160 411.8767,-160 411.8767,-160"/>
<polygon fill="#000000" stroke="#000000" points="411.8768,-163.5001 421.8767,-160 411.8767,-156.5001 411.8768,-163.5001"/>
</g>
<!-- PricingModule -->
<g id="node7" class="node">
<title>PricingModule</title>
<polygon fill="#8dd3c7" stroke="#000000" points="123.9888,-122 120.9888,-126 99.9888,-126 96.9888,-122 24.0112,-122 24.0112,-86 123.9888,-86 123.9888,-122"/>
<text text-anchor="middle" x="74" y="-99.8" font-family="Times,serif" font-size="14.00" fill="#000000">PricingModule</text>
</g>
<!-- PricingModule&#45;&gt;FilterModule -->
<g id="edge6" class="edge">
<title>PricingModule&#45;&gt;FilterModule</title>
<path fill="none" stroke="#000000" d="M112.6278,-122.1061C112.6278,-141.3391 112.6278,-169 112.6278,-169 112.6278,-169 412.1185,-169 412.1185,-169"/>
<polygon fill="#000000" stroke="#000000" points="412.1186,-172.5001 422.1185,-169 412.1185,-165.5001 412.1186,-172.5001"/>
</g>
</g>
</svg>
