<?xml version="1.0" encoding="UTF-8" standalone="no"?>
<!DOCTYPE svg PUBLIC "-//W3C//DTD SVG 1.1//EN"
 "http://www.w3.org/Graphics/SVG/1.1/DTD/svg11.dtd">
<!-- Generated by graphviz version 2.40.1 (20161225.0304)
 -->
<!-- Title: dependencies Pages: 1 -->
<svg width="504pt" height="284pt"
 viewBox="0.00 0.00 504.00 284.00" xmlns="http://www.w3.org/2000/svg" xmlns:xlink="http://www.w3.org/1999/xlink">
<g id="graph0" class="graph" transform="scale(1 1) rotate(0) translate(4 280)">
<title>dependencies</title>
<polygon fill="#ffffff" stroke="transparent" points="-4,4 -4,-280 500,-280 500,4 -4,4"/>
<text text-anchor="start" x="227.0091" y="-42.4" font-family="sans-serif" font-weight="bold" font-size="14.00" fill="#000000">Legend</text>
<polygon fill="#ffffb3" stroke="transparent" points="14,-10 14,-30 34,-30 34,-10 14,-10"/>
<text text-anchor="start" x="37.629" y="-15.4" font-family="sans-serif" font-size="14.00" fill="#000000"> &#160;Declarations</text>
<polygon fill="#8dd3c7" stroke="transparent" points="127,-10 127,-30 147,-30 147,-10 127,-10"/>
<text text-anchor="start" x="150.7251" y="-15.4" font-family="sans-serif" font-size="14.00" fill="#000000"> &#160;Module</text>
<polygon fill="#80b1d3" stroke="transparent" points="213,-10 213,-30 233,-30 233,-10 213,-10"/>
<text text-anchor="start" x="236.7812" y="-15.4" font-family="sans-serif" font-size="14.00" fill="#000000"> &#160;Bootstrap</text>
<polygon fill="#fdb462" stroke="transparent" points="310,-10 310,-30 330,-30 330,-10 310,-10"/>
<text text-anchor="start" x="333.6732" y="-15.4" font-family="sans-serif" font-size="14.00" fill="#000000"> &#160;Providers</text>
<polygon fill="#fb8072" stroke="transparent" points="406,-10 406,-30 426,-30 426,-10 406,-10"/>
<text text-anchor="start" x="429.7258" y="-15.4" font-family="sans-serif" font-size="14.00" fill="#000000"> &#160;Exports</text>
<g id="clust1" class="cluster">
<title>cluster_ConstraintPopoverModule</title>
<polygon fill="none" stroke="#000000" stroke-dasharray="1,5" points="52,-70 52,-268 444,-268 444,-70 52,-70"/>
</g>
<g id="clust2" class="cluster">
<title>cluster_ConstraintPopoverModule_declarations</title>
<polygon fill="none" stroke="#000000" points="274,-78 274,-130 436,-130 436,-78 274,-78"/>
</g>
<g id="clust4" class="cluster">
<title>cluster_ConstraintPopoverModule_imports</title>
<polygon fill="none" stroke="#000000" points="60,-78 60,-130 266,-130 266,-78 60,-78"/>
</g>
<g id="clust5" class="cluster">
<title>cluster_ConstraintPopoverModule_exports</title>
<polygon fill="none" stroke="#000000" points="133,-208 133,-260 299,-260 299,-208 133,-208"/>
</g>
<!-- CRPopoverComponent -->
<g id="node1" class="node">
<title>CRPopoverComponent</title>
<polygon fill="#ffffb3" stroke="#000000" points="428.1638,-122 281.8362,-122 281.8362,-86 428.1638,-86 428.1638,-122"/>
<text text-anchor="middle" x="355" y="-99.8" font-family="Times,serif" font-size="14.00" fill="#000000">CRPopoverComponent</text>
</g>
<!-- ConstraintPopoverModule -->
<g id="node2" class="node">
<title>ConstraintPopoverModule</title>
<polygon fill="#8dd3c7" stroke="#000000" points="298.0365,-187 295.0365,-191 274.0365,-191 271.0365,-187 133.9635,-187 133.9635,-151 298.0365,-151 298.0365,-187"/>
<text text-anchor="middle" x="216" y="-164.8" font-family="Times,serif" font-size="14.00" fill="#000000">ConstraintPopoverModule</text>
</g>
<!-- CRPopoverComponent&#45;&gt;ConstraintPopoverModule -->
<g id="edge1" class="edge">
<title>CRPopoverComponent&#45;&gt;ConstraintPopoverModule</title>
<path fill="none" stroke="#000000" d="M289.9681,-122.1061C289.9681,-122.1061 289.9681,-140.991 289.9681,-140.991"/>
<polygon fill="#000000" stroke="#000000" points="286.4682,-140.9909 289.9681,-150.991 293.4682,-140.991 286.4682,-140.9909"/>
</g>
<!-- CRPopoverComponent  -->
<g id="node5" class="node">
<title>CRPopoverComponent </title>
<polygon fill="#fb8072" stroke="#000000" points="291.1635,-252 140.8365,-252 140.8365,-216 291.1635,-216 291.1635,-252"/>
<text text-anchor="middle" x="216" y="-229.8" font-family="Times,serif" font-size="14.00" fill="#000000">CRPopoverComponent </text>
</g>
<!-- ConstraintPopoverModule&#45;&gt;CRPopoverComponent  -->
<g id="edge4" class="edge">
<title>ConstraintPopoverModule&#45;&gt;CRPopoverComponent </title>
<path fill="none" stroke="#000000" stroke-dasharray="5,2" d="M216,-187.1061C216,-187.1061 216,-205.991 216,-205.991"/>
<polygon fill="#000000" stroke="#000000" points="212.5001,-205.9909 216,-215.991 219.5001,-205.991 212.5001,-205.9909"/>
</g>
<!-- IconModule -->
<g id="node3" class="node">
<title>IconModule</title>
<polygon fill="#8dd3c7" stroke="#000000" points="258.4261,-122 255.4261,-126 234.4261,-126 231.4261,-122 173.5739,-122 173.5739,-86 258.4261,-86 258.4261,-122"/>
<text text-anchor="middle" x="216" y="-99.8" font-family="Times,serif" font-size="14.00" fill="#000000">IconModule</text>
</g>
<!-- IconModule&#45;&gt;ConstraintPopoverModule -->
<g id="edge2" class="edge">
<title>IconModule&#45;&gt;ConstraintPopoverModule</title>
<path fill="none" stroke="#000000" d="M216,-122.1061C216,-122.1061 216,-140.991 216,-140.991"/>
<polygon fill="#000000" stroke="#000000" points="212.5001,-140.9909 216,-150.991 219.5001,-140.991 212.5001,-140.9909"/>
</g>
<!-- PriceModule -->
<g id="node4" class="node">
<title>PriceModule</title>
<polygon fill="#8dd3c7" stroke="#000000" points="156.3134,-122 153.3134,-126 132.3134,-126 129.3134,-122 67.6866,-122 67.6866,-86 156.3134,-86 156.3134,-122"/>
<text text-anchor="middle" x="112" y="-99.8" font-family="Times,serif" font-size="14.00" fill="#000000">PriceModule</text>
</g>
<!-- PriceModule&#45;&gt;ConstraintPopoverModule -->
<g id="edge3" class="edge">
<title>PriceModule&#45;&gt;ConstraintPopoverModule</title>
<path fill="none" stroke="#000000" d="M144.9443,-122.1061C144.9443,-122.1061 144.9443,-140.991 144.9443,-140.991"/>
<polygon fill="#000000" stroke="#000000" points="141.4443,-140.9909 144.9443,-150.991 148.4443,-140.991 141.4443,-140.9909"/>
</g>
</g>
</svg>
