<?xml version="1.0" encoding="UTF-8" standalone="no"?>
<!DOCTYPE svg PUBLIC "-//W3C//DTD SVG 1.1//EN"
 "http://www.w3.org/Graphics/SVG/1.1/DTD/svg11.dtd">
<!-- Generated by graphviz version 2.40.1 (20161225.0304)
 -->
<!-- Title: dependencies Pages: 1 -->
<svg width="504pt" height="284pt"
 viewBox="0.00 0.00 504.00 284.00" xmlns="http://www.w3.org/2000/svg" xmlns:xlink="http://www.w3.org/1999/xlink">
<g id="graph0" class="graph" transform="scale(1 1) rotate(0) translate(4 280)">
<title>dependencies</title>
<polygon fill="#ffffff" stroke="transparent" points="-4,4 -4,-280 500,-280 500,4 -4,4"/>
<text text-anchor="start" x="227.0091" y="-42.4" font-family="sans-serif" font-weight="bold" font-size="14.00" fill="#000000">Legend</text>
<polygon fill="#ffffb3" stroke="transparent" points="14,-10 14,-30 34,-30 34,-10 14,-10"/>
<text text-anchor="start" x="37.629" y="-15.4" font-family="sans-serif" font-size="14.00" fill="#000000"> &#160;Declarations</text>
<polygon fill="#8dd3c7" stroke="transparent" points="127,-10 127,-30 147,-30 147,-10 127,-10"/>
<text text-anchor="start" x="150.7251" y="-15.4" font-family="sans-serif" font-size="14.00" fill="#000000"> &#160;Module</text>
<polygon fill="#80b1d3" stroke="transparent" points="213,-10 213,-30 233,-30 233,-10 213,-10"/>
<text text-anchor="start" x="236.7812" y="-15.4" font-family="sans-serif" font-size="14.00" fill="#000000"> &#160;Bootstrap</text>
<polygon fill="#fdb462" stroke="transparent" points="310,-10 310,-30 330,-30 330,-10 310,-10"/>
<text text-anchor="start" x="333.6732" y="-15.4" font-family="sans-serif" font-size="14.00" fill="#000000"> &#160;Providers</text>
<polygon fill="#fb8072" stroke="transparent" points="406,-10 406,-30 426,-30 426,-10 406,-10"/>
<text text-anchor="start" x="429.7258" y="-15.4" font-family="sans-serif" font-size="14.00" fill="#000000"> &#160;Exports</text>
<g id="clust1" class="cluster">
<title>cluster_ApttusModule</title>
<polygon fill="none" stroke="#000000" stroke-dasharray="1,5" points="68,-70 68,-268 428,-268 428,-70 68,-70"/>
</g>
<g id="clust2" class="cluster">
<title>cluster_ApttusModule_declarations</title>
<polygon fill="none" stroke="#000000" points="224,-78 224,-130 420,-130 420,-78 224,-78"/>
</g>
<g id="clust6" class="cluster">
<title>cluster_ApttusModule_exports</title>
<polygon fill="none" stroke="#000000" points="168,-208 168,-260 372,-260 372,-208 168,-208"/>
</g>
<g id="clust8" class="cluster">
<title>cluster_ApttusModule_providers</title>
<polygon fill="none" stroke="#000000" points="76,-78 76,-130 216,-130 216,-78 76,-78"/>
</g>
<!-- FileSizePipe -->
<g id="node1" class="node">
<title>FileSizePipe</title>
<polygon fill="#ffffb3" stroke="#000000" points="412.2689,-122 325.7311,-122 325.7311,-86 412.2689,-86 412.2689,-122"/>
<text text-anchor="middle" x="369" y="-99.8" font-family="Times,serif" font-size="14.00" fill="#000000">FileSizePipe</text>
</g>
<!-- ApttusModule -->
<g id="node3" class="node">
<title>ApttusModule</title>
<polygon fill="#8dd3c7" stroke="#000000" points="318.3823,-187 315.3823,-191 294.3823,-191 291.3823,-187 221.6177,-187 221.6177,-151 318.3823,-151 318.3823,-187"/>
<text text-anchor="middle" x="270" y="-164.8" font-family="Times,serif" font-size="14.00" fill="#000000">ApttusModule</text>
</g>
<!-- FileSizePipe&#45;&gt;ApttusModule -->
<g id="edge1" class="edge">
<title>FileSizePipe&#45;&gt;ApttusModule</title>
<path fill="none" stroke="#000000" d="M325.5742,-104C318.3689,-104 313.1876,-104 313.1876,-104 313.1876,-104 313.1876,-140.8939 313.1876,-140.8939"/>
<polygon fill="#000000" stroke="#000000" points="309.6877,-140.8938 313.1876,-150.8939 316.6877,-140.8939 309.6877,-140.8938"/>
</g>
<!-- ImagePipe -->
<g id="node2" class="node">
<title>ImagePipe</title>
<polygon fill="#ffffb3" stroke="#000000" points="307.8683,-122 232.1317,-122 232.1317,-86 307.8683,-86 307.8683,-122"/>
<text text-anchor="middle" x="270" y="-99.8" font-family="Times,serif" font-size="14.00" fill="#000000">ImagePipe</text>
</g>
<!-- ImagePipe&#45;&gt;ApttusModule -->
<g id="edge2" class="edge">
<title>ImagePipe&#45;&gt;ApttusModule</title>
<path fill="none" stroke="#000000" d="M270,-122.1061C270,-122.1061 270,-140.991 270,-140.991"/>
<polygon fill="#000000" stroke="#000000" points="266.5001,-140.9909 270,-150.991 273.5001,-140.991 266.5001,-140.9909"/>
</g>
<!-- FileSizePipe  -->
<g id="node4" class="node">
<title>FileSizePipe </title>
<polygon fill="#fb8072" stroke="#000000" points="364.269,-252 273.731,-252 273.731,-216 364.269,-216 364.269,-252"/>
<text text-anchor="middle" x="319" y="-229.8" font-family="Times,serif" font-size="14.00" fill="#000000">FileSizePipe </text>
</g>
<!-- ApttusModule&#45;&gt;FileSizePipe  -->
<g id="edge3" class="edge">
<title>ApttusModule&#45;&gt;FileSizePipe </title>
<path fill="none" stroke="#000000" stroke-dasharray="5,2" d="M296.1534,-187.1061C296.1534,-187.1061 296.1534,-205.991 296.1534,-205.991"/>
<polygon fill="#000000" stroke="#000000" points="292.6535,-205.9909 296.1534,-215.991 299.6535,-205.991 292.6535,-205.9909"/>
</g>
<!-- ImagePipe  -->
<g id="node5" class="node">
<title>ImagePipe </title>
<polygon fill="#fb8072" stroke="#000000" points="255.8691,-252 176.1309,-252 176.1309,-216 255.8691,-216 255.8691,-252"/>
<text text-anchor="middle" x="216" y="-229.8" font-family="Times,serif" font-size="14.00" fill="#000000">ImagePipe </text>
</g>
<!-- ApttusModule&#45;&gt;ImagePipe  -->
<g id="edge4" class="edge">
<title>ApttusModule&#45;&gt;ImagePipe </title>
<path fill="none" stroke="#000000" stroke-dasharray="5,2" d="M238.6215,-187.1061C238.6215,-187.1061 238.6215,-205.991 238.6215,-205.991"/>
<polygon fill="#000000" stroke="#000000" points="235.1216,-205.9909 238.6215,-215.991 242.1216,-205.991 235.1216,-205.9909"/>
</g>
<!-- ForceService -->
<g id="node6" class="node">
<title>ForceService</title>
<ellipse fill="#fdb462" stroke="#000000" cx="146" cy="-104" rx="61.9538" ry="18"/>
<text text-anchor="middle" x="146" y="-99.8" font-family="Times,serif" font-size="14.00" fill="#000000">ForceService</text>
</g>
<!-- ForceService&#45;&gt;ApttusModule -->
<g id="edge5" class="edge">
<title>ForceService&#45;&gt;ApttusModule</title>
<path fill="none" stroke="#000000" d="M208.0693,-104C218.9206,-104 226.8124,-104 226.8124,-104 226.8124,-104 226.8124,-140.8939 226.8124,-140.8939"/>
<polygon fill="#000000" stroke="#000000" points="223.3125,-140.8938 226.8124,-150.8939 230.3125,-140.8939 223.3125,-140.8938"/>
</g>
</g>
</svg>
